<svg xmlns="http://www.w3.org/2000/svg" xmlns:xlink="http://www.w3.org/1999/xlink" version="1.1" id="Layer_1" x="0px" y="0px" width="100px" height="100px" viewBox="0 0 100 100" enable-background="new 0 0 100 100" xml:space="preserve">
<path fill-rule="evenodd" clip-rule="evenodd" d="M50.328,95c-9.439,0-18.197-2.913-25.434-7.88L8.345,89.155  c-2.749,0.348-4.289-1.511-3.439-4.147l4.908-15.403C6.941,63.678,5.328,57.028,5.328,50c0-24.854,20.147-45,45-45  c24.853,0,45,20.147,45,45C95.328,74.853,75.181,95,50.328,95z M78.639,42.462l-14.713-5.255L58.27,22.361  c-1.071-2.837-3.655-3.376-5.771-1.206L41.29,32.577L26.411,31.55c-3.024-0.218-4.598,1.901-3.515,4.733l6.301,16.641l-4.764,14.947  c-0.93,2.886,0.755,4.919,3.763,4.538l17.378-2.138l15.068,8.918c2.605,1.552,4.963,0.365,5.267-2.651l1.62-15.606l12.436-12.726  C82.092,46.045,81.497,43.473,78.639,42.462z"/>
</svg>