<svg xmlns="http://www.w3.org/2000/svg" xmlns:xlink="http://www.w3.org/1999/xlink" version="1.2" baseProfile="tiny" id="Layer_1" x="0px" y="0px" width="70.7491082045px" height="100px" viewBox="0 0 595.28 841.89" overflow="inherit" xml:space="preserve">
<g>
	<path d="M432.022,504.366c0,0,17.214,7.377,30.328,0.819c0,0,13.935-27.87-4.918-49.181c0,0-29.233-6.661-52.395-8.545   c3.2-3.079,6.139-6.474,8.775-10.181c28.251-39.718,11.247-100.302-37.979-135.316c-15.406-10.958-32.144-18.113-48.735-21.555   c5.651-1.226,10.994-2.682,15.9-4.408c0,0,46-11,74,6l14.108-14.835c-10.938-4.064-40.553-9.824-59.317-6.423   c0,0-23.173,4.912-34.651,7.571c-36.757,5.149-59.006,8.126-77.671,5.016c-0.875-0.062-1.219-0.219-1.219-0.219l0.188-0.453   c0.723,0.071,0.922,0.077,1.641,0.141c9.801-0.359,80.354-8.277,90.303-12.056c0,0,18.891-5.289,36.933-3.821   c0,0,30.188,1.519,44.562,7.229L432,264c0,0-11-12-24-22c0,0-18.011-9.929-67.218-8.273c25.968-40.291,29.808-52.067,29.808-52.067   l4.484-12.275c-10.996,26.152-34.674,33.493-34.674,33.493c-13.377,7.441-42.134,1.904-42.134,1.904   c-60.82,14.578-95.69-51.958-95.69-51.958c-39.287-9.334-21.27-64.87-21.27-64.87c-1.176-6.087,3.891-22.611,3.891-22.611   c-3.661,8.722-34.831,71.171-34.831,71.171c-3.062,8.039,0.783,13.693,0.783,13.693c-9.588,25.816,20.419,42.445,20.419,42.445   c-5.981,29.814,82.524,52.961,82.524,52.961c0.682,0.153,1.479,0.373,2.341,0.625c-21.479,3.658-46.625,5.911-59.434-0.237   l-20.272,22.691c8.552,1.471,55.904,6.526,55.904,6.526c-2.937,2.828-46.116-4.677-55.687-5.003l5.656,11.42   c0,0,39.482,4.959,82.551,4.542c-11.764,5.432-21.953,13.549-29.604,24.306C207.297,350.2,224.3,410.784,273.527,445.797   c7.865,5.595,16.078,10.193,24.44,13.817c-2.489-0.261-4.813-0.638-6.928-1.15c0,0-63.934-5.737-72.951,9.017   c0,0-22.95,29.509,0,45.082c0,0,25.955,7.477,67.226,7.287c-98.842,61.022-28.739,130.593-28.739,130.593   c10.661,10.076,3.579,47.387,3.579,47.387c6.502-10.89,48.701-5.542,48.701-5.542c23.291,5.479,42.993,6.922,59.687,5.55   c4.694,18.623,26.324,122.457,26.324,122.457c3.962,3.047,3.048-1.219,3.048-1.219l-17.79-122.708   c72.592-12.706,79.685-82.967,79.685-82.967c0.502-58.791-37.713-98.058-37.713-98.058c-6.626-5.511-13.501-9.687-20.414-12.811   C414.304,501.269,425.591,501.397,432.022,504.366z M279.017,341.539c-9.918,13.944-24.81,20.375-33.261,14.364   c-8.45-6.011-7.261-22.188,2.657-36.132c9.918-13.944,24.81-20.375,33.261-14.364C290.125,311.417,288.935,327.595,279.017,341.539   z M232.57,503.66c-5.762,18.208-14.083,0.792-14.083,0.792c-8.322-22.167,2.561-33.25,2.561-33.25   c3.2-5.541,10.243-5.541,10.243-5.541C233.852,471.202,232.57,503.66,232.57,503.66z M435.152,619.472   c2.227,75.798-128.095,57.865-128.095,57.865l12.817-1.563c26.262,0.479,61.367-4.821,61.367-4.821   c49.252-8.198,50.117-59.877,50.117-59.877L435.152,619.472z M424.201,594.824l1.879,7.169   c2.229,75.796-125.973,64.298-125.973,64.298l-0.637-2.838c39.064,4.384,70.678-8.127,70.678-8.127   C434.439,638.062,424.201,594.824,424.201,594.824z"/>
	<path d="M185.488,92.363c0,0-14.151,45.219,24.618,59.834c0,0,18.464,48.32,69.156,48.486   c16.443,0.054,69.332,15.575,89.867-27.625c0,0,34.004-43.655,19.268-78.073c-6.541-15.287-28.191-52.753-60.221-53.979   c0,0-26.725-33.986-69.171-20.44c0,0-37.849,6.893-40.315,17.08C218.689,37.645,180.544,55.304,185.488,92.363z M258.959,64.998   c15.333-10.636,53.47,2.817,57.388,13.633c0,0,36.324,13.456,17.945,33.515c0,0-7.029,30.427-39.103,11.874   c0,0-40.399-4.465-35.209-25.472C259.981,98.548,243.628,75.634,258.959,64.998z"/>
	<path d="M298.741,121.312c26.421,15.198,32.017-9.391,32.017-9.391c14.969-16.133-13.979-28.53-13.979-28.53   C313.506,74.615,278.588,58.946,266,67.37c-16.148,10.808,0.269,31.682,0.269,31.682   C262.13,116.028,298.741,121.312,298.741,121.312z M312.277,112.974c-5.798,2.466-7.535-9.356-7.535-9.356   c2.867-0.45,5.883,1.135,5.883,1.135C317.443,109.106,312.277,112.974,312.277,112.974z M320.559,97.667   c-1.986,5.36-13.221-1.609-13.221-1.609c1.635-2.126,5.098-2.956,5.098-2.956C320.914,91.75,320.559,97.667,320.559,97.667z    M299.094,82.888c8.326-5.968,10.053,2.513,10.053,2.513c-0.156,8.482-14.293,4.084-14.293,4.084   C295.796,85.716,299.094,82.888,299.094,82.888z M284.71,76.791c2.349-2.049,4.484-1.433,4.484-1.433   c6.869,1.914-0.644,9.109-0.644,9.109C280.651,78.601,284.71,76.791,284.71,76.791z M267.135,81.94   c6.703-6.934,16.222,5.434,16.222,5.434c-14.961,6.25-16.936-0.702-16.936-0.702C265.233,85.01,267.135,81.94,267.135,81.94z"/>
</g>
</svg>