<?xml version="1.0"?>
<svg version="1.1" xmlns="http://www.w3.org/2000/svg" xmlns:xlink="http://www.w3.org/1999/xlink" width="1792" height="1792">
    <desc iVinci="yes" version="4.5" gridStep="20" showGrid="no" snapToGrid="no" codePlatform="0"/>
    <g id="Layer1" opacity="1">
        <g id="Shape1">
            <desc shapeID="1" type="0" basicInfo-basicType="0" basicInfo-roundedRectRadius="12" basicInfo-polygonSides="6" basicInfo-starPoints="5" bounding="rect(-704,-768,1408,1536)" text="" font-familyName="" font-pixelSize="20" font-bold="0" font-underline="0" font-alignment="1" strokeStyle="0" markerStart="0" markerEnd="0" shadowEnabled="0" shadowOffsetX="0" shadowOffsetY="2" shadowBlur="4" shadowOpacity="160" blurEnabled="0" blurRadius="4" transform="matrix(0.803084,0,0,0.813575,621.014,896)" pers-center="0,0" pers-size="0,0" pers-start="0,0" pers-end="0,0" locked="0" mesh="" flag=""/>
            <path id="shapePath1" d="M1186.39,1310.11 C1186.39,1375.2 1166.84,1426.59 1127.76,1464.28 C1088.68,1501.98 1036.74,1520.83 971.962,1520.83 L270.067,1520.83 C205.285,1520.83 153.352,1501.98 114.269,1464.28 C75.1853,1426.59 55.6436,1375.2 55.6436,1310.11 C55.6436,1281.36 56.5805,1253.3 58.4543,1225.9 C60.3282,1198.51 64.0759,1168.95 69.6975,1137.22 C75.3191,1105.5 82.4131,1076.07 90.9792,1048.95 C99.5455,1021.83 111.056,995.392 125.512,969.628 C139.967,943.865 156.564,921.899 175.303,903.729 C194.042,885.559 216.93,871.05 243.967,860.203 C271.004,849.355 300.852,843.931 333.511,843.931 C338.329,843.931 349.572,849.762 367.24,861.423 C384.908,873.084 404.851,886.101 427.07,900.475 C449.288,914.848 478.199,927.865 513.803,939.526 C549.406,951.187 585.143,957.018 621.014,957.018 C656.886,957.018 692.623,951.187 728.226,939.526 C763.83,927.865 792.741,914.848 814.959,900.475 C837.178,886.101 857.121,873.084 874.789,861.423 C892.457,849.762 903.7,843.931 908.518,843.931 C941.177,843.931 971.025,849.355 998.062,860.203 C1025.1,871.05 1047.99,885.559 1066.73,903.729 C1085.46,921.899 1102.06,943.865 1116.52,969.628 C1130.97,995.392 1142.48,1021.83 1151.05,1048.95 C1159.62,1076.07 1166.71,1105.5 1172.33,1137.22 C1177.95,1168.95 1181.7,1198.51 1183.57,1225.9 C1185.45,1253.3 1186.39,1281.36 1186.39,1310.11 M929.399,583.587 C929.399,669.826 899.283,743.455 839.052,804.473 C778.82,865.491 706.141,896 621.014,896 C535.888,896 463.209,865.491 402.977,804.473 C342.746,743.455 312.63,669.826 312.63,583.587 C312.63,497.348 342.746,423.72 402.977,362.701 C463.209,301.683 535.888,271.174 621.014,271.174 C706.141,271.174 778.82,301.683 839.052,362.701 C899.283,423.72 929.399,497.348 929.399,583.587 Z" style="stroke:none;fill-rule:nonzero;fill:#000000;fill-opacity:1;"/>
        </g>
    </g>
    <g id="Layer2" opacity="1">
        <g id="Shape2">
            <desc shapeID="2" type="0" basicInfo-basicType="0" basicInfo-roundedRectRadius="12" basicInfo-polygonSides="6" basicInfo-starPoints="5" bounding="rect(-704,-704,1408,1408)" text="" font-familyName="" font-pixelSize="20" font-bold="0" font-underline="0" font-alignment="1" strokeStyle="0" markerStart="0" markerEnd="0" shadowEnabled="0" shadowOffsetX="0" shadowOffsetY="2" shadowBlur="4" shadowOpacity="160" blurEnabled="0" blurRadius="4" transform="matrix(0.571745,0,0,0.575569,1289.42,927.224)" pers-center="0,0" pers-size="0,0" pers-start="0,0" pers-end="0,0" locked="0" mesh="" flag=""/>
            <path id="shapePath2" d="M1691.93,871.969 L1691.93,982.479 C1691.93,997.827 1686.59,1010.87 1675.92,1021.62 C1665.25,1032.36 1652.29,1037.73 1637.04,1037.73 L1399.19,1037.73 L1399.19,1277.17 C1399.19,1292.52 1393.86,1305.56 1383.18,1316.31 C1372.51,1327.05 1359.55,1332.42 1344.31,1332.42 L1234.53,1332.42 C1219.28,1332.42 1206.32,1327.05 1195.65,1316.31 C1184.98,1305.56 1179.64,1292.52 1179.64,1277.17 L1179.64,1037.73 L941.797,1037.73 C926.551,1037.73 913.591,1032.36 902.919,1021.62 C892.246,1010.87 886.91,997.827 886.91,982.479 L886.91,871.969 C886.91,856.621 892.246,843.575 902.919,832.831 C913.591,822.087 926.551,816.715 941.797,816.715 L1179.64,816.715 L1179.64,577.278 C1179.64,561.93 1184.98,548.883 1195.65,538.139 C1206.32,527.396 1219.28,522.024 1234.53,522.024 L1344.31,522.024 C1359.55,522.024 1372.51,527.396 1383.18,538.139 C1393.86,548.883 1399.19,561.93 1399.19,577.278 L1399.19,816.715 L1637.04,816.715 C1652.29,816.715 1665.25,822.087 1675.92,832.831 C1686.59,843.575 1691.93,856.621 1691.93,871.969 Z" style="stroke:none;fill-rule:nonzero;fill:#ffffff;fill-opacity:1;"/>
        </g>
        <g id="Shape3">
            <desc shapeID="3" type="0" basicInfo-basicType="0" basicInfo-roundedRectRadius="12" basicInfo-polygonSides="6" basicInfo-starPoints="5" bounding="rect(-704,-704,1408,1408)" text="" font-familyName="" font-pixelSize="20" font-bold="0" font-underline="0" font-alignment="1" strokeStyle="0" markerStart="0" markerEnd="0" shadowEnabled="0" shadowOffsetX="0" shadowOffsetY="2" shadowBlur="4" shadowOpacity="160" blurEnabled="0" blurRadius="4" transform="matrix(0.571745,0,0,0.590697,1289.42,999.331)" pers-center="0,0" pers-size="0,0" pers-start="0,0" pers-end="0,0" locked="0" mesh="" flag=""/>
            <path id="shapePath3" d="M1691.93,942.624 L1691.93,1056.04 C1691.93,1071.79 1686.59,1085.18 1675.92,1096.21 C1665.25,1107.23 1652.29,1112.74 1637.04,1112.74 L1399.19,1112.74 L1399.19,1358.47 C1399.19,1374.23 1393.86,1387.62 1383.18,1398.64 C1372.51,1409.67 1359.55,1415.18 1344.31,1415.18 L1234.53,1415.18 C1219.28,1415.18 1206.32,1409.67 1195.65,1398.64 C1184.98,1387.62 1179.64,1374.23 1179.64,1358.47 L1179.64,1112.74 L941.797,1112.74 C926.55,1112.74 913.591,1107.23 902.918,1096.21 C892.246,1085.18 886.909,1071.79 886.909,1056.04 L886.909,942.624 C886.909,926.872 892.246,913.483 902.918,902.457 C913.591,891.43 926.55,885.917 941.797,885.917 L1179.64,885.917 L1179.64,640.187 C1179.64,624.435 1184.98,611.046 1195.65,600.02 C1206.32,588.993 1219.28,583.48 1234.53,583.48 L1344.31,583.48 C1359.55,583.48 1372.51,588.993 1383.18,600.02 C1393.86,611.046 1399.19,624.435 1399.19,640.187 L1399.19,885.917 L1637.04,885.917 C1652.29,885.917 1665.25,891.43 1675.92,902.457 C1686.59,913.483 1691.93,926.872 1691.93,942.624 Z" style="stroke:none;fill-rule:nonzero;fill:#ffffff;fill-opacity:1;"/>
        </g>
        <g id="Shape4">
            <desc shapeID="4" type="0" basicInfo-basicType="0" basicInfo-roundedRectRadius="12" basicInfo-polygonSides="6" basicInfo-starPoints="5" bounding="rect(-704,-704,1408,1408)" text="" font-familyName="" font-pixelSize="20" font-bold="0" font-underline="0" font-alignment="1" strokeStyle="0" markerStart="0" markerEnd="0" shadowEnabled="0" shadowOffsetX="0" shadowOffsetY="2" shadowBlur="4" shadowOpacity="160" blurEnabled="0" blurRadius="4" transform="matrix(0.571745,0,0,0.575569,1332.55,961.41)" pers-center="0,0" pers-size="0,0" pers-start="0,0" pers-end="0,0" locked="0" mesh="" flag=""/>
            <path id="shapePath4" d="M1735.06,906.155 L1735.06,1016.66 C1735.06,1032.01 1729.72,1045.06 1719.05,1055.8 C1708.37,1066.55 1695.42,1071.92 1680.17,1071.92 L1442.32,1071.92 L1442.32,1311.36 C1442.32,1326.7 1436.99,1339.75 1426.31,1350.49 C1415.64,1361.24 1402.68,1366.61 1387.44,1366.61 L1277.66,1366.61 C1262.41,1366.61 1249.45,1361.24 1238.78,1350.49 C1228.11,1339.75 1222.77,1326.7 1222.77,1311.36 L1222.77,1071.92 L984.927,1071.92 C969.68,1071.92 956.72,1066.55 946.048,1055.8 C935.375,1045.06 930.039,1032.01 930.039,1016.66 L930.039,906.155 C930.039,890.806 935.375,877.76 946.048,867.016 C956.72,856.272 969.68,850.9 984.927,850.9 L1222.77,850.9 L1222.77,611.464 C1222.77,596.115 1228.11,583.069 1238.78,572.325 C1249.45,561.581 1262.41,556.209 1277.66,556.209 L1387.44,556.209 C1402.68,556.209 1415.64,561.581 1426.31,572.325 C1436.99,583.069 1442.32,596.115 1442.32,611.464 L1442.32,850.9 L1680.17,850.9 C1695.42,850.9 1708.37,856.272 1719.05,867.016 C1729.72,877.76 1735.06,890.806 1735.06,906.155 Z" style="stroke:none;fill-rule:nonzero;fill:#000000;fill-opacity:1;"/>
        </g>
        <g id="Shape5">
            <desc shapeID="5" type="0" basicInfo-basicType="0" basicInfo-roundedRectRadius="12" basicInfo-polygonSides="6" basicInfo-starPoints="5" bounding="rect(0,0,0,0)" text="" font-familyName="Helvetica" font-pixelSize="20" font-bold="0" font-underline="0" font-alignment="1" strokeStyle="0" markerStart="0" markerEnd="0" shadowEnabled="0" shadowOffsetX="0" shadowOffsetY="2" shadowBlur="4" shadowOpacity="160" blurEnabled="0" blurRadius="4" transform="matrix(1,0,0,1,-197.717,315.892)" pers-center="0,0" pers-size="0,0" pers-start="0,0" pers-end="0,0" locked="0" mesh="" flag=""/>
            <path id="shapePath5" d="M-197.717,315.892 Z" style="stroke:none;fill-rule:evenodd;fill:#ffffff;fill-opacity:1;"/>
        </g>
    </g>
</svg>
