<?xml version="1.0"?>
<svg version="1.1" xmlns="http://www.w3.org/2000/svg" xmlns:xlink="http://www.w3.org/1999/xlink" width="1792" height="1792">
    <desc iVinci="yes" version="4.5" gridStep="20" showGrid="no" snapToGrid="no" codePlatform="0"/>
    <g id="Layer1" opacity="1">
        <g id="Shape1">
            <desc shapeID="1" type="0" basicInfo-basicType="0" basicInfo-roundedRectRadius="12" basicInfo-polygonSides="6" basicInfo-starPoints="5" bounding="rect(-704.003,-768.003,1408.01,1536.01)" text="" font-familyName="" font-pixelSize="20" font-bold="0" font-underline="0" font-alignment="1" strokeStyle="0" markerStart="0" markerEnd="0" shadowEnabled="0" shadowOffsetX="0" shadowOffsetY="2" shadowBlur="4" shadowOpacity="160" blurEnabled="0" blurRadius="4" transform="matrix(0.803084,0,0,0.813575,621.017,896.002)" pers-center="0,0" pers-size="0,0" pers-start="0,0" pers-end="0,0" locked="0" mesh="" flag=""/>
            <path id="shapePath1" d="M1186.39,1310.11 C1186.39,1375.2 1166.84,1426.59 1127.76,1464.28 C1088.68,1501.98 1036.74,1520.83 971.962,1520.83 L270.067,1520.83 C205.285,1520.83 153.352,1501.98 114.269,1464.28 C75.1853,1426.59 55.6436,1375.2 55.6436,1310.11 C55.6436,1281.36 56.5805,1253.3 58.4543,1225.9 C60.3282,1198.51 64.0759,1168.95 69.6974,1137.23 C75.319,1105.5 82.4131,1076.07 90.9792,1048.95 C99.5455,1021.83 111.056,995.392 125.512,969.629 C139.967,943.865 156.564,921.899 175.303,903.729 C194.042,885.559 216.93,871.05 243.967,860.203 C271.004,849.355 300.852,843.931 333.511,843.931 C338.329,843.931 349.572,849.762 367.24,861.423 C384.908,873.084 404.851,886.102 427.07,900.475 C449.288,914.848 478.199,927.865 513.803,939.526 C549.406,951.188 585.143,957.018 621.014,957.018 C656.886,957.018 692.623,951.188 728.226,939.526 C763.83,927.865 792.741,914.848 814.959,900.475 C837.178,886.102 857.121,873.084 874.789,861.423 C892.457,849.762 903.7,843.931 908.518,843.931 C941.177,843.931 971.025,849.355 998.062,860.203 C1025.1,871.05 1047.99,885.559 1066.73,903.729 C1085.46,921.899 1102.06,943.865 1116.52,969.629 C1130.97,995.392 1142.48,1021.83 1151.05,1048.95 C1159.62,1076.07 1166.71,1105.5 1172.33,1137.23 C1177.95,1168.95 1181.7,1198.51 1183.57,1225.9 C1185.45,1253.3 1186.39,1281.36 1186.39,1310.11 M929.399,583.587 C929.399,669.826 899.283,743.455 839.052,804.473 C778.82,865.491 706.141,896 621.014,896 C535.888,896 463.209,865.491 402.977,804.473 C342.746,743.455 312.63,669.826 312.63,583.587 C312.63,497.348 342.746,423.72 402.977,362.701 C463.209,301.683 535.888,271.174 621.014,271.174 C706.141,271.174 778.82,301.683 839.052,362.701 C899.283,423.72 929.399,497.348 929.399,583.587 Z" style="stroke:none;fill-rule:evenodd;fill:#000000;fill-opacity:1;"/>
        </g>
    </g>
    <g id="Layer2" opacity="1">
        <g id="Shape2">
            <desc shapeID="2" type="0" basicInfo-basicType="0" basicInfo-roundedRectRadius="12" basicInfo-polygonSides="6" basicInfo-starPoints="5" bounding="rect(-62.571,-67.7877,125.142,135.575)" text="" font-familyName="" font-pixelSize="20" font-bold="0" font-underline="0" font-alignment="1" strokeStyle="0" markerStart="0" markerEnd="0" shadowEnabled="0" shadowOffsetX="0" shadowOffsetY="2" shadowBlur="4" shadowOpacity="160" blurEnabled="0" blurRadius="4" transform="matrix(6.52071,0,0,7.25141,1304.71,949.72)" pers-center="0,0" pers-size="0,0" pers-start="0,0" pers-end="0,0" locked="0" mesh="" flag=""/>
            <path id="shapePath2" d="M1686.69,1007.62 C1704.05,978.473 1712.71,946.379 1712.71,911.325 C1712.71,870.754 1699.27,835.512 1672.35,805.549 C1645.43,775.615 1613.56,760.655 1576.72,760.655 L1483.22,760.655 C1500.21,721.665 1508.72,683.848 1508.72,647.222 C1508.72,601.139 1502.52,564.512 1490.13,537.334 C1477.72,510.148 1459.66,490.163 1435.93,477.357 C1412.19,464.559 1385.46,458.163 1355.71,458.163 C1337.64,458.163 1321.7,465.451 1307.89,480.026 C1292.67,496.566 1281.69,517.842 1274.96,543.838 C1268.23,569.827 1262.82,594.743 1258.75,618.571 C1254.68,642.399 1248.39,659.237 1239.89,669.085 C1222.54,689.961 1203.59,715.175 1183.05,744.71 C1147.27,796.303 1123.01,826.832 1110.26,836.288 L964.705,836.288 C945.932,836.288 929.904,843.684 916.621,858.441 C903.345,873.212 896.7,891.036 896.7,911.913 L896.7,1290.03 C896.7,1310.9 903.338,1328.72 916.621,1343.49 C929.91,1358.26 945.932,1365.66 964.705,1365.66 L1117.7,1365.66 C1125.49,1365.66 1149.92,1373.53 1191.01,1389.28 C1234.57,1406.22 1272.92,1419.12 1306.03,1427.98 C1339.15,1436.85 1372.7,1441.28 1406.71,1441.28 L1456.1,1441.28 L1475.24,1441.28 C1525.18,1441.28 1565.37,1425.42 1595.83,1393.71 C1626.29,1362 1641.34,1318.78 1641,1264.03 C1662.24,1233.7 1672.87,1198.64 1672.87,1158.87 C1672.87,1150.21 1672.34,1141.74 1671.28,1133.46 C1684.73,1107.08 1691.47,1078.72 1691.47,1048.4 C1691.47,1034.21 1689.88,1020.62 1686.69,1007.62 M1022.61,1278.81 C1015.88,1286.29 1007.91,1290.03 998.714,1290.03 C989.494,1290.03 981.528,1286.29 974.798,1278.81 C968.069,1271.33 964.704,1262.46 964.704,1252.22 C964.704,1241.98 968.063,1233.12 974.798,1225.63 C981.534,1218.15 989.494,1214.41 998.714,1214.41 C1007.91,1214.41 1015.88,1218.15 1022.61,1225.63 C1029.34,1233.12 1032.7,1241.98 1032.7,1252.22 C1032.7,1262.46 1029.34,1271.33 1022.61,1278.81 M1633.31,959.794 C1625.69,977.915 1616.22,987.168 1604.88,987.559 C1610.19,994.26 1614.63,1003.61 1618.17,1015.63 C1621.71,1027.64 1623.47,1038.57 1623.47,1048.42 C1623.47,1075.58 1614.09,1099.02 1595.32,1118.71 C1601.7,1131.31 1604.88,1144.9 1604.88,1159.47 C1604.88,1174.04 1601.79,1188.52 1595.59,1202.89 C1589.39,1217.26 1580.98,1227.6 1570.36,1233.9 C1572.12,1245.71 1573,1256.74 1573,1266.98 C1573,1332.75 1539,1365.64 1470.99,1365.64 L1406.73,1365.64 C1360.32,1365.64 1299.76,1351.27 1225.03,1322.51 C1223.25,1321.73 1218.12,1319.66 1209.62,1316.31 C1201.12,1312.97 1194.83,1310.5 1190.75,1308.93 C1186.68,1307.34 1180.48,1305.08 1172.16,1302.13 C1163.83,1299.18 1157.11,1297.01 1151.97,1295.63 C1146.84,1294.26 1140.99,1292.98 1134.44,1291.8 C1127.89,1290.61 1122.31,1290.03 1117.71,1290.03 L1100.71,1290.03 L1100.71,911.927 L1117.71,911.927 C1123.38,911.927 1129.66,910.151 1136.57,906.612 C1143.47,903.066 1150.56,897.751 1157.82,890.659 C1165.08,883.567 1171.9,876.576 1178.27,869.68 C1184.65,862.792 1191.73,854.126 1199.52,843.691 C1207.32,833.249 1213.43,824.881 1217.85,818.58 C1222.28,812.278 1227.86,804.2 1234.59,794.353 C1241.32,784.513 1245.39,778.603 1246.81,776.63 C1266.28,749.851 1279.92,731.933 1287.71,722.868 C1302.23,705.936 1312.77,684.371 1319.32,658.179 C1325.88,631.979 1331.28,607.266 1335.51,584.033 C1339.77,560.792 1346.5,544.049 1355.71,533.81 C1389.71,533.81 1412.39,543.062 1423.71,561.575 C1435.05,580.088 1440.71,608.644 1440.71,647.243 C1440.71,670.477 1432.2,702.086 1415.2,742.063 C1398.21,782.04 1389.71,813.453 1389.71,836.295 L1576.71,836.295 C1594.44,836.295 1610.19,843.873 1624,859.043 C1637.81,874.205 1644.73,891.826 1644.73,911.92 C1644.73,925.705 1640.92,941.658 1633.31,959.794 Z" style="stroke:none;fill-rule:evenodd;fill:#ffffff;fill-opacity:1;"/>
        </g>
        <g id="Shape3">
            <desc shapeID="3" type="0" basicInfo-basicType="0" basicInfo-roundedRectRadius="12" basicInfo-polygonSides="6" basicInfo-starPoints="5" bounding="rect(-131.967,-222.762,263.935,445.526)" text="" font-familyName="Helvetica" font-pixelSize="20" font-bold="0" font-underline="0" font-alignment="1" strokeStyle="0" markerStart="0" markerEnd="0" shadowEnabled="0" shadowOffsetX="0" shadowOffsetY="2" shadowBlur="4" shadowOpacity="160" blurEnabled="0" blurRadius="4" transform="matrix(1,0,0,1,1092.97,1084.08)" pers-center="0,0" pers-size="0,0" pers-start="0,0" pers-end="0,0" locked="0" mesh="" flag=""/>
            <path id="shapePath3" d="M1211.3,861.318 C1208.51,863.819 1205.35,866.169 1206.75,870.409 C1201.58,869.255 1197.6,873.148 1193.12,874.954 C1186.96,896.148 1165.89,896.626 1152.21,906.77 C1094.4,907.721 1038.82,914.034 979.494,911.316 C978.37,918.166 974.891,924.039 970.403,929.496 C959.138,1023.18 960.994,1122.7 961.313,1220.39 C967.878,1235.13 979.062,1239.74 979.494,1256.75 L984.039,1256.75 L984.039,1279.48 C1010.73,1282.63 1032.34,1298.67 1056.76,1297.66 L1061.31,1302.2 C1121.05,1298.52 1167.75,1307.87 1224.94,1306.75 " style="stroke:none;fill-rule:evenodd;fill:#ffffff;fill-opacity:1;"/>
        </g>
        <g id="Shape4">
            <desc shapeID="4" type="0" basicInfo-basicType="0" basicInfo-roundedRectRadius="12" basicInfo-polygonSides="6" basicInfo-starPoints="5" bounding="rect(-62.571,-67.7877,125.142,135.575)" text="" font-familyName="" font-pixelSize="20" font-bold="0" font-underline="0" font-alignment="1" strokeStyle="0" markerStart="0" markerEnd="0" shadowEnabled="0" shadowOffsetX="0" shadowOffsetY="2" shadowBlur="4" shadowOpacity="160" blurEnabled="0" blurRadius="4" transform="matrix(6.52071,0,0,7.25141,1304.71,925.142)" pers-center="0,0" pers-size="0,0" pers-start="0,0" pers-end="0,0" locked="0" mesh="" flag=""/>
            <path id="shapePath4" d="M1686.69,983.046 C1704.05,953.895 1712.71,921.801 1712.71,886.747 C1712.71,846.176 1699.27,810.934 1672.35,780.971 C1645.43,751.037 1613.56,736.077 1576.72,736.077 L1483.22,736.077 C1500.21,697.087 1508.72,659.27 1508.72,622.644 C1508.72,576.561 1502.52,539.934 1490.13,512.756 C1477.72,485.57 1459.66,465.585 1435.93,452.779 C1412.19,439.981 1385.46,433.585 1355.71,433.585 C1337.64,433.585 1321.7,440.873 1307.89,455.448 C1292.67,471.988 1281.69,493.264 1274.96,519.26 C1268.23,545.249 1262.82,570.165 1258.75,593.993 C1254.68,617.821 1248.39,634.659 1239.89,644.507 C1222.54,665.383 1203.59,690.597 1183.05,720.132 C1147.27,771.725 1123.01,802.254 1110.26,811.71 L964.705,811.71 C945.932,811.71 929.904,819.106 916.621,833.863 C903.345,848.634 896.7,866.458 896.7,887.335 L896.7,1265.45 C896.7,1286.32 903.338,1304.14 916.621,1318.91 C929.91,1333.68 945.932,1341.08 964.705,1341.08 L1117.7,1341.08 C1125.49,1341.08 1149.92,1348.95 1191.01,1364.7 C1234.57,1381.64 1272.92,1394.54 1306.03,1403.4 C1339.15,1412.27 1372.7,1416.7 1406.71,1416.7 L1456.1,1416.7 L1475.24,1416.7 C1525.18,1416.7 1565.37,1400.84 1595.83,1369.13 C1626.29,1337.42 1641.34,1294.2 1641,1239.45 C1662.24,1209.12 1672.87,1174.06 1672.87,1134.29 C1672.87,1125.63 1672.34,1117.16 1671.28,1108.88 C1684.73,1082.5 1691.47,1054.14 1691.47,1023.82 C1691.47,1009.63 1689.88,996.038 1686.69,983.046 M1022.61,1254.23 C1015.88,1261.71 1007.91,1265.45 998.714,1265.45 C989.494,1265.45 981.528,1261.71 974.798,1254.23 C968.069,1246.75 964.704,1237.88 964.704,1227.64 C964.704,1217.4 968.063,1208.54 974.798,1201.05 C981.534,1193.57 989.494,1189.83 998.714,1189.83 C1007.91,1189.83 1015.88,1193.57 1022.61,1201.05 C1029.34,1208.54 1032.7,1217.4 1032.7,1227.64 C1032.7,1237.88 1029.34,1246.75 1022.61,1254.23 M1633.31,935.216 C1625.69,953.337 1616.22,962.59 1604.88,962.981 C1610.19,969.682 1614.63,979.036 1618.17,991.048 C1621.71,1003.06 1623.47,1013.99 1623.47,1023.84 C1623.47,1051 1614.09,1074.44 1595.32,1094.13 C1601.7,1106.73 1604.88,1120.32 1604.88,1134.89 C1604.88,1149.46 1601.79,1163.94 1595.59,1178.31 C1589.39,1192.68 1580.98,1203.02 1570.36,1209.32 C1572.12,1221.13 1573,1232.16 1573,1242.4 C1573,1308.17 1539,1341.06 1470.99,1341.06 L1406.73,1341.06 C1360.32,1341.06 1299.76,1326.69 1225.03,1297.93 C1223.25,1297.15 1218.12,1295.08 1209.62,1291.73 C1201.12,1288.39 1194.83,1285.92 1190.75,1284.35 C1186.68,1282.76 1180.48,1280.5 1172.16,1277.55 C1163.83,1274.6 1157.11,1272.43 1151.97,1271.05 C1146.84,1269.68 1140.99,1268.4 1134.44,1267.22 C1127.89,1266.03 1122.31,1265.45 1117.71,1265.45 L1100.71,1265.45 L1100.71,887.349 L1117.71,887.349 C1123.38,887.349 1129.66,885.573 1136.57,882.034 C1143.47,878.488 1150.56,873.173 1157.82,866.081 C1165.08,858.989 1171.9,851.998 1178.27,845.102 C1184.65,838.214 1191.73,829.548 1199.52,819.113 C1207.32,808.671 1213.43,800.303 1217.85,794.002 C1222.28,787.7 1227.86,779.622 1234.59,769.775 C1241.32,759.935 1245.39,754.025 1246.81,752.052 C1266.28,725.273 1279.92,707.355 1287.71,698.29 C1302.23,681.358 1312.77,659.793 1319.32,633.601 C1325.88,607.401 1331.28,582.688 1335.51,559.455 C1339.77,536.214 1346.5,519.471 1355.71,509.232 C1389.71,509.232 1412.39,518.484 1423.71,536.997 C1435.05,555.51 1440.71,584.066 1440.71,622.665 C1440.71,645.899 1432.2,677.508 1415.2,717.485 C1398.21,757.462 1389.71,788.875 1389.71,811.717 L1576.71,811.717 C1594.44,811.717 1610.19,819.295 1624,834.465 C1637.81,849.627 1644.73,867.248 1644.73,887.342 C1644.73,901.127 1640.92,917.08 1633.31,935.216 Z" style="stroke:none;fill-rule:evenodd;fill:#ffffff;fill-opacity:1;"/>
        </g>
        <g id="Shape5">
            <desc shapeID="5" type="0" basicInfo-basicType="0" basicInfo-roundedRectRadius="12" basicInfo-polygonSides="6" basicInfo-starPoints="5" bounding="rect(-131.967,-222.762,263.935,445.526)" text="" font-familyName="Helvetica" font-pixelSize="20" font-bold="0" font-underline="0" font-alignment="1" strokeStyle="0" markerStart="0" markerEnd="0" shadowEnabled="0" shadowOffsetX="0" shadowOffsetY="2" shadowBlur="4" shadowOpacity="160" blurEnabled="0" blurRadius="4" transform="matrix(1,0,0,1,1092.97,1084.08)" pers-center="0,0" pers-size="0,0" pers-start="0,0" pers-end="0,0" locked="0" mesh="" flag=""/>
            <path id="shapePath5" d="M1211.3,861.318 C1208.51,863.819 1205.35,866.169 1206.75,870.409 C1201.58,869.255 1197.6,873.148 1193.12,874.954 C1186.96,896.148 1165.89,896.626 1152.21,906.77 C1094.4,907.721 1038.82,914.034 979.494,911.316 C978.37,918.166 974.891,924.039 970.403,929.496 C959.138,1023.18 960.994,1122.7 961.313,1220.39 C967.878,1235.13 979.062,1239.74 979.494,1256.75 L984.039,1256.75 L984.039,1279.48 C1010.73,1282.63 1032.34,1298.67 1056.76,1297.66 L1061.31,1302.2 C1121.05,1298.52 1167.75,1307.87 1224.94,1306.75 " style="stroke:none;fill-rule:evenodd;fill:#ffffff;fill-opacity:1;"/>
        </g>
    </g>
    <g id="Layer3" opacity="1">
        <g id="Shape6">
            <desc shapeID="6" type="0" basicInfo-basicType="0" basicInfo-roundedRectRadius="12" basicInfo-polygonSides="6" basicInfo-starPoints="5" bounding="rect(-62.5709,-67.7883,125.142,135.577)" text="" font-familyName="" font-pixelSize="20" font-bold="0" font-underline="0" font-alignment="1" strokeStyle="0" markerStart="0" markerEnd="0" shadowEnabled="0" shadowOffsetX="0" shadowOffsetY="2" shadowBlur="4" shadowOpacity="160" blurEnabled="0" blurRadius="4" transform="matrix(6.52071,0,0,6.51385,1345.38,954.498)" pers-center="0,0" pers-size="0,0" pers-start="0,0" pers-end="0,0" locked="0" mesh="" flag=""/>
            <path id="shapePath6" d="M1727.37,1006.51 C1744.73,980.323 1753.39,951.493 1753.39,920.005 C1753.39,883.56 1739.95,851.903 1713.04,824.987 C1686.11,798.098 1654.24,784.66 1617.4,784.66 L1523.9,784.66 C1540.89,749.635 1549.4,715.665 1549.4,682.764 C1549.4,641.368 1543.2,608.467 1530.81,584.053 C1518.4,559.633 1500.34,541.68 1476.61,530.177 C1452.87,518.68 1426.14,512.935 1396.39,512.935 C1378.32,512.935 1362.38,519.481 1348.57,532.574 C1333.35,547.432 1322.37,566.544 1315.64,589.896 C1308.91,613.242 1303.5,635.623 1299.43,657.028 C1295.36,678.432 1289.07,693.557 1280.57,702.403 C1263.22,721.156 1244.27,743.805 1223.73,770.336 C1187.95,816.682 1163.69,844.106 1150.94,852.6 L1005.38,852.6 C986.608,852.6 970.58,859.244 957.297,872.499 C944.021,885.768 937.377,901.779 937.377,920.533 L937.377,1260.18 C937.377,1278.94 944.015,1294.94 957.297,1308.21 C970.587,1321.48 986.608,1328.12 1005.38,1328.12 L1158.38,1328.12 C1166.17,1328.12 1190.6,1335.2 1231.69,1349.35 C1275.25,1364.56 1313.6,1376.15 1346.71,1384.11 C1379.83,1392.08 1413.38,1396.06 1447.39,1396.06 L1496.78,1396.06 L1515.92,1396.06 C1565.86,1396.06 1606.05,1381.8 1636.51,1353.33 C1666.97,1324.84 1682.02,1286.01 1681.68,1236.83 C1702.92,1209.58 1713.55,1178.1 1713.55,1142.37 C1713.55,1134.59 1713.02,1126.98 1711.96,1119.54 C1725.41,1095.85 1732.15,1070.37 1732.15,1043.13 C1732.15,1030.39 1730.56,1018.18 1727.37,1006.51 M1063.29,1250.11 C1056.56,1256.82 1048.59,1260.19 1039.39,1260.19 C1030.17,1260.19 1022.2,1256.82 1015.48,1250.11 C1008.75,1243.39 1005.38,1235.43 1005.38,1226.22 C1005.38,1217.02 1008.74,1209.06 1015.48,1202.34 C1022.21,1195.62 1030.17,1192.26 1039.39,1192.26 C1048.59,1192.26 1056.56,1195.62 1063.29,1202.34 C1070.02,1209.06 1073.39,1217.02 1073.39,1226.22 C1073.39,1235.43 1070.02,1243.39 1063.29,1250.11 M1673.99,963.544 C1666.37,979.822 1656.9,988.133 1645.57,988.485 C1650.87,994.504 1655.31,1002.91 1658.85,1013.69 C1662.39,1024.49 1664.15,1034.3 1664.15,1043.15 C1664.15,1067.55 1654.77,1088.61 1636,1106.29 C1642.38,1117.61 1645.57,1129.82 1645.57,1142.91 C1645.57,1156 1642.47,1169 1636.27,1181.91 C1630.07,1194.82 1621.66,1204.11 1611.04,1209.77 C1612.81,1220.38 1613.69,1230.29 1613.69,1239.48 C1613.69,1298.56 1579.68,1328.1 1511.68,1328.1 L1447.41,1328.1 C1401,1328.1 1340.44,1315.2 1265.71,1289.37 C1263.93,1288.66 1258.8,1286.8 1250.3,1283.8 C1241.8,1280.79 1235.51,1278.58 1231.43,1277.17 C1227.36,1275.74 1221.16,1273.71 1212.84,1271.06 C1204.51,1268.41 1197.79,1266.46 1192.65,1265.22 C1187.52,1263.99 1181.67,1262.84 1175.12,1261.77 C1168.57,1260.71 1162.99,1260.18 1158.39,1260.18 L1141.39,1260.18 L1141.39,920.546 L1158.39,920.546 C1164.06,920.546 1170.34,918.95 1177.25,915.771 C1184.15,912.586 1191.24,907.811 1198.5,901.44 C1205.76,895.07 1212.58,888.791 1218.95,882.596 C1225.33,876.408 1232.41,868.624 1240.21,859.25 C1248,849.87 1254.11,842.353 1258.53,836.693 C1262.96,831.032 1268.54,823.776 1275.27,814.93 C1282,806.091 1286.07,800.782 1287.49,799.01 C1306.96,774.954 1320.6,758.859 1328.39,750.716 C1342.91,735.507 1353.45,716.134 1360,692.606 C1366.56,669.072 1371.96,646.872 1376.19,626.002 C1380.45,605.125 1387.18,590.085 1396.4,580.887 C1430.39,580.887 1453.07,589.199 1464.39,605.829 C1475.73,622.459 1481.39,648.11 1481.39,682.783 C1481.39,703.654 1472.88,732.048 1455.88,767.959 C1438.89,803.87 1430.39,832.088 1430.39,852.606 L1617.4,852.606 C1635.12,852.606 1650.87,859.413 1664.68,873.04 C1678.49,886.661 1685.41,902.489 1685.41,920.539 C1685.41,932.922 1681.61,947.252 1673.99,963.544 Z" style="stroke:none;fill-rule:evenodd;fill:#000000;fill-opacity:1;"/>
        </g>
    </g>
</svg>
