<?xml version="1.0" encoding="utf-8"?>
<!-- Generator: Adobe Illustrator 16.0.0, SVG Export Plug-In . SVG Version: 6.00 Build 0)  -->
<!DOCTYPE svg PUBLIC "-//W3C//DTD SVG 1.1//EN" "http://www.w3.org/Graphics/SVG/1.1/DTD/svg11.dtd">
<svg version="1.1" id="Layer_1" xmlns="http://www.w3.org/2000/svg" xmlns:xlink="http://www.w3.org/1999/xlink" x="0px" y="0px"
	 width="57.05px" height="100px" viewBox="21.475 2.369 57.05 100" enable-background="new 21.475 2.369 57.05 100"
	 xml:space="preserve">
<g id="Captions" display="none">
</g>
<path d="M45.753,58.461c-0.946-0.623-1.839-1.211-2.75-1.455c-0.478-0.128-1.029-0.187-1.733-0.187
	c-0.491,0-0.994,0.027-1.495,0.056c-0.08,0.005-0.158,0.005-0.237,0.009l-3.763,44.202l7.868-3.319l0.09,0.059l7.101,4.544
	l2.105-24.725l-5.331-18.069C46.974,59.253,46.358,58.858,45.753,58.461z"/>
<path d="M61.753,56.931c-0.499,0-1.013-0.028-1.526-0.057c-0.501-0.027-1.001-0.056-1.491-0.056c-0.706,0-1.258,0.06-1.737,0.188
	c-0.911,0.244-1.805,0.832-2.751,1.456c-1.325,0.871-2.696,1.773-4.247,1.773c-0.666,0-1.292-0.187-1.901-0.444l4.936,16.733
	l0.159,0.539l0.158,0.54l3.694,12.52l6.125-5.954l8.371,1.678l-8.555-28.999C62.553,56.91,62.128,56.931,61.753,56.931z"/>
<path d="M50,11.712c-10.577,0-19.181,8.604-19.181,19.182c0,10.576,8.604,19.181,19.181,19.181c10.577,0,19.182-8.604,19.182-19.181
	C69.182,20.316,60.577,11.712,50,11.712z"/>
<path d="M76.886,27.099c-0.632-0.96-1.285-1.953-1.562-2.993c-0.291-1.09-0.224-2.308-0.157-3.486c0.083-1.5,0.163-2.918-0.46-3.991
	c-0.633-1.097-1.913-1.74-3.269-2.42c-1.042-0.524-2.121-1.066-2.903-1.849c-0.782-0.781-1.323-1.86-1.848-2.904
	c-0.682-1.355-1.324-2.635-2.422-3.27c-0.613-0.355-1.388-0.515-2.509-0.515c-0.487,0-0.985,0.028-1.484,0.056
	c-0.517,0.029-1.035,0.058-1.542,0.058c-0.775,0-1.394-0.068-1.942-0.215c-1.04-0.278-2.031-0.931-2.991-1.562
	c-1.224-0.806-2.489-1.64-3.796-1.64s-2.572,0.833-3.797,1.64c-0.958,0.632-1.95,1.285-2.989,1.562
	c-0.549,0.146-1.168,0.215-1.946,0.215c-0.506,0-1.023-0.029-1.54-0.057c-0.499-0.028-0.998-0.056-1.483-0.056
	c-1.122,0-1.896,0.158-2.51,0.514c-1.097,0.634-1.739,1.914-2.419,3.269c-0.524,1.043-1.066,2.123-1.849,2.904
	c-0.782,0.782-1.861,1.325-2.905,1.849c-1.355,0.681-2.636,1.324-3.269,2.419c-0.62,1.073-0.541,2.49-0.458,3.991
	c0.066,1.178,0.134,2.397-0.157,3.487c-0.278,1.041-0.931,2.033-1.563,2.992c-0.806,1.224-1.64,2.49-1.64,3.796
	c0,1.307,0.834,2.573,1.641,3.798c0.632,0.959,1.285,1.951,1.563,2.99c0.291,1.09,0.223,2.309,0.157,3.486
	c-0.083,1.501-0.163,2.918,0.458,3.992c0.634,1.096,1.915,1.738,3.27,2.419c1.043,0.524,2.123,1.065,2.904,1.846
	c0.783,0.782,1.325,1.862,1.849,2.907c0.681,1.354,1.322,2.634,2.418,3.267c0.616,0.357,1.39,0.517,2.511,0.517
	c0.446,0,0.904-0.026,1.362-0.051c0.041-0.003,0.081-0.003,0.122-0.005c0.517-0.028,1.034-0.059,1.541-0.059
	c0.778,0,1.396,0.069,1.944,0.216c1.039,0.278,2.03,0.932,2.988,1.562c0.355,0.233,0.716,0.464,1.078,0.682
	c0.169,0.101,0.339,0.192,0.51,0.284c0.723,0.388,1.458,0.674,2.209,0.674c1.307,0,2.572-0.833,3.798-1.64
	c0.958-0.631,1.949-1.284,2.989-1.562c0.55-0.146,1.168-0.216,1.948-0.216c0.505,0,1.021,0.029,1.537,0.058
	c0.498,0.027,0.995,0.056,1.48,0.056c0.374,0,0.697-0.024,1-0.062c0.609-0.072,1.102-0.216,1.512-0.454
	c1.096-0.631,1.737-1.91,2.419-3.266c0.524-1.044,1.066-2.123,1.851-2.905c0.78-0.783,1.862-1.326,2.907-1.851
	c1.354-0.68,2.632-1.322,3.265-2.417c0.623-1.074,0.543-2.492,0.46-3.994c-0.066-1.177-0.134-2.395,0.157-3.485
	c0.277-1.041,0.931-2.033,1.562-2.993c0.806-1.224,1.64-2.49,1.64-3.795C78.525,29.588,77.691,28.323,76.886,27.099z M50,50.891
	c-11.027,0-19.998-8.97-19.998-19.997S38.973,10.895,50,10.895c11.028,0,19.999,8.972,19.999,19.999S61.028,50.891,50,50.891z"/>
</svg>
