<?xml version="1.0"?>
<svg version="1.1" xmlns="http://www.w3.org/2000/svg" xmlns:xlink="http://www.w3.org/1999/xlink" width="1920" height="2048">
    <desc iVinci="yes" version="4.5" gridStep="20" showGrid="no" snapToGrid="no" codePlatform="0"/>
    <g id="Layer1" opacity="1">
        <g id="Shape1">
            <desc shapeID="1" type="0" basicInfo-basicType="0" basicInfo-roundedRectRadius="12" basicInfo-polygonSides="6" basicInfo-starPoints="5" bounding="rect(0,0,0,0)" text="" font-familyName="Helvetica" font-pixelSize="20" font-bold="0" font-underline="0" font-alignment="1" strokeStyle="0" markerStart="0" markerEnd="0" shadowEnabled="0" shadowOffsetX="0" shadowOffsetY="2" shadowBlur="4" shadowOpacity="160" blurEnabled="0" blurRadius="4" transform="matrix(1,0,0,1,960.152,892.952)" pers-center="0,0" pers-size="0,0" pers-start="0,0" pers-end="0,0" locked="0" mesh="" flag=""/>
            <path id="shapePath1" d="M960.152,892.952 Z" style="stroke:none;fill-rule:evenodd;fill:#ffffff;fill-opacity:1;"/>
        </g>
        <g id="Shape2">
            <desc shapeID="2" type="0" basicInfo-basicType="0" basicInfo-roundedRectRadius="12" basicInfo-polygonSides="6" basicInfo-starPoints="5" bounding="rect(-19.767,-19.767,39.534,39.534)" text="" font-familyName="" font-pixelSize="20" font-bold="0" font-underline="0" font-alignment="1" strokeStyle="0" markerStart="0" markerEnd="0" shadowEnabled="0" shadowOffsetX="0" shadowOffsetY="2" shadowBlur="4" shadowOpacity="160" blurEnabled="0" blurRadius="4" transform="matrix(17.5811,0,0,17.273,641.091,825.379)" pers-center="0,0" pers-size="0,0" pers-start="0,0" pers-end="0,0" locked="0" mesh="" flag=""/>
            <path id="shapePath2" d="M641.073,483.944 C449.457,483.944 293.566,637.121 293.566,825.361 C293.566,1013.62 449.44,1166.81 641.073,1166.81 C832.69,1166.81 988.616,1013.64 988.616,825.361 C988.616,637.121 832.672,483.944 641.073,483.944 Z" style="stroke:none;fill-rule:nonzero;fill:#000000;fill-opacity:1;"/>
        </g>
        <g id="Shape3">
            <desc shapeID="3" type="0" basicInfo-basicType="0" basicInfo-roundedRectRadius="12" basicInfo-polygonSides="6" basicInfo-starPoints="5" bounding="rect(-31.2917,-44.1602,62.5835,88.3203)" text="" font-familyName="" font-pixelSize="20" font-bold="0" font-underline="0" font-alignment="1" strokeStyle="0" markerStart="0" markerEnd="0" shadowEnabled="0" shadowOffsetX="0" shadowOffsetY="2" shadowBlur="4" shadowOpacity="160" blurEnabled="0" blurRadius="4" transform="matrix(17.5811,0,0,17.273,641.095,1045.19)" pers-center="0,0" pers-size="0,0" pers-start="0,0" pers-end="0,0" locked="0" mesh="" flag=""/>
            <path id="shapePath3" d="M1033.94,1225.02 C1080.56,1199.06 1100.77,1145.01 1085.1,1096.77 C1123.8,1079.65 1150.82,1041.5 1150.82,997.089 C1150.82,972.423 1142.38,949.709 1128.33,931.434 C1165.52,913.712 1191.24,876.368 1191.24,833.064 C1191.24,795.15 1171.6,761.744 1141.76,742.14 C1158.66,722.932 1169,697.99 1169,670.595 C1169,613.266 1124.08,566.318 1066.9,561.672 C1072.06,549.131 1074.94,535.468 1074.94,521.115 C1074.94,460.711 1025.08,411.759 963.615,411.759 C948.302,411.759 933.675,414.799 920.454,420.31 C917.219,362.739 868.801,317.017 809.447,317.017 C785.273,317.017 762.98,324.686 744.713,337.538 C717.181,290.123 657.335,269.292 604.873,291.021 C581.737,300.625 563.716,317.052 552.007,336.864 C520.976,310.091 475.934,301.316 435.321,318.14 C399.772,332.874 376.056,363.654 369.269,398.304 C344.691,390.41 317.264,390.773 291.614,401.413 C237.851,423.695 211.268,482.596 229.113,536.108 C215.347,536.367 201.423,539.044 187.973,544.623 C131.309,568.114 104.779,632.232 128.672,687.885 C134.597,701.738 143.124,713.76 153.426,723.64 C100.736,748.928 76.6321,810.506 99.7161,864.277 C105.746,878.337 114.449,890.514 124.998,900.498 C97.1492,939.708 97.8876,993.738 130.307,1032.43 C146.288,1051.48 167.456,1063.76 190.118,1069.12 C172.871,1106.01 177.178,1150.9 205.185,1184.34 C220.938,1203.19 241.736,1215.33 264.046,1220.79 L97.8348,1665.05 L343.794,1594.56 L493.55,1807.97 L640.036,1416.39 L786.556,1807.97 L936.277,1594.56 L1182.24,1665.05 L1020.05,1231.48 C1024.73,1229.62 1029.4,1227.56 1033.94,1225.02 M641.073,1225.09 C416.721,1225.09 234.194,1045.78 234.194,825.361 C234.194,604.94 416.721,425.63 641.073,425.63 C865.478,425.63 1047.95,604.94 1047.95,825.361 C1047.95,1045.78 865.478,1225.09 641.073,1225.09 Z" style="stroke:none;fill-rule:nonzero;fill:#000000;fill-opacity:1;"/>
        </g>
    </g>
    <g id="Layer2" opacity="1">
        <g id="Shape4">
            <desc shapeID="4" type="0" basicInfo-basicType="0" basicInfo-roundedRectRadius="12" basicInfo-polygonSides="6" basicInfo-starPoints="5" bounding="rect(-263.139,-339.163,526.278,678.327)" text="" font-familyName="Helvetica" font-pixelSize="20" font-bold="0" font-underline="0" font-alignment="1" strokeStyle="0" markerStart="0" markerEnd="0" shadowEnabled="0" shadowOffsetX="0" shadowOffsetY="2" shadowBlur="4" shadowOpacity="160" blurEnabled="0" blurRadius="4" transform="matrix(1,0,0,1,1429.82,1184.95)" pers-center="0,0" pers-size="0,0" pers-start="0,0" pers-end="0,0" locked="0" mesh="" flag=""/>
            <path id="shapePath4" d="M1692.96,950.46 L1692.96,942.492 C1666.73,922.659 1640.89,904.543 1609.31,894.688 L1605.32,886.721 C1594.1,887.007 1584.44,881.095 1573.45,878.753 C1537.75,849.637 1485.74,842.75 1438.01,846.884 C1422.33,854.32 1402.48,854.228 1390.2,866.802 C1365.91,864.245 1354.41,884.476 1334.43,886.721 C1335.27,894.029 1326.09,897.19 1322.48,902.655 C1306.66,912.073 1283.28,918.086 1278.66,938.509 C1271.35,937.673 1268.19,946.849 1262.72,950.46 L1262.72,958.427 L1242.81,978.346 C1242.95,988.802 1236.66,996.589 1234.84,1006.23 C1222.51,1015.07 1212.09,1027.52 1206.95,1042.08 C1190.78,1047.57 1187.04,1069.43 1175.08,1081.92 C1161.31,1161.93 1169.12,1246.52 1167.11,1328.91 C1181.35,1359.39 1209.16,1381.46 1222.89,1412.57 C1227.78,1418.93 1237.54,1419.15 1238.82,1428.5 C1300.51,1456.7 1354.07,1500.19 1426.06,1496.23 C1444.4,1506.95 1464.53,1513.01 1485.81,1512.16 L1493.78,1520.13 L1681.01,1524.11 " style="stroke:none;fill-rule:evenodd;fill:#ffffff;fill-opacity:1;"/>
        </g>
        <g id="Shape5">
            <desc shapeID="5" type="0" basicInfo-basicType="0" basicInfo-roundedRectRadius="12" basicInfo-polygonSides="6" basicInfo-starPoints="5" bounding="rect(0,0,0,0)" text="" font-familyName="Helvetica" font-pixelSize="20" font-bold="0" font-underline="0" font-alignment="1" strokeStyle="0" markerStart="0" markerEnd="0" shadowEnabled="0" shadowOffsetX="0" shadowOffsetY="2" shadowBlur="4" shadowOpacity="160" blurEnabled="0" blurRadius="4" transform="matrix(1,0,0,1,-163.441,528.187)" pers-center="0,0" pers-size="0,0" pers-start="0,0" pers-end="0,0" locked="0" mesh="" flag=""/>
            <path id="shapePath5" d="M-163.441,528.187 Z" style="stroke:none;fill-rule:evenodd;fill:#ffffff;fill-opacity:1;"/>
        </g>
    </g>
    <g id="Layer3" opacity="1">
        <g id="Shape6">
            <desc shapeID="6" type="0" basicInfo-basicType="0" basicInfo-roundedRectRadius="12" basicInfo-polygonSides="6" basicInfo-starPoints="5" bounding="rect(-94.481,-204.585,188.962,409.17)" text="" font-familyName="Helvetica" font-pixelSize="20" font-bold="0" font-underline="0" font-alignment="1" strokeStyle="0" markerStart="0" markerEnd="0" shadowEnabled="0" shadowOffsetX="0" shadowOffsetY="2" shadowBlur="4" shadowOpacity="160" blurEnabled="0" blurRadius="4" transform="matrix(1,0,0,1,1199.81,1269.2)" pers-center="0,0" pers-size="0,0" pers-start="0,0" pers-end="0,0" locked="0" mesh="" flag=""/>
            <path id="shapePath6" d="M1283.52,1064.61 C1285.16,1069.62 1281.43,1072.41 1278.14,1075.38 C1226.8,1100.96 1173.47,1097.39 1111.24,1096.91 C1106.39,1143 1098.59,1193.93 1116.63,1236.89 L1116.63,1349.95 L1111.24,1355.33 L1111.24,1387.64 L1105.86,1387.64 L1105.86,1425.32 L1111.24,1425.32 C1107.68,1441.44 1116.39,1445.3 1116.63,1457.63 L1122.01,1457.63 C1117.49,1472.61 1140.71,1463.37 1138.16,1473.78 L1261.99,1473.78 L1261.99,1468.39 L1294.29,1468.39 L1294.29,1463.01 " style="stroke:none;fill-rule:evenodd;fill:#ffffff;fill-opacity:1;"/>
        </g>
        <g id="Shape7">
            <desc shapeID="7" type="0" basicInfo-basicType="0" basicInfo-roundedRectRadius="12" basicInfo-polygonSides="6" basicInfo-starPoints="5" bounding="rect(-45.3279,-43.8472,90.6559,87.6944)" text="" font-familyName="" font-pixelSize="20" font-bold="0" font-underline="0" font-alignment="1" strokeStyle="0" markerStart="0" markerEnd="0" shadowEnabled="0" shadowOffsetX="0" shadowOffsetY="2" shadowBlur="4" shadowOpacity="160" blurEnabled="0" blurRadius="4" transform="matrix(9.16572,0,0,10.3295,1427.17,1194.4)" pers-center="0,0" pers-size="0,0" pers-start="0,0" pers-end="0,0" locked="0" mesh="" flag=""/>
            <path id="shapePath7" d="M1430.18,1641.93 C1312.82,1617.94 1278.33,1593.91 1197.06,1560.53 L1045.37,1581.55 C1020.18,1585.15 1006.06,1565.95 1013.85,1538.72 L1058.84,1379.61 C1032.5,1318.39 1014.96,1249.63 1017.72,1177.1 C1027.5,920.371 1193.15,771.333 1419.64,743.876 C1641.63,716.965 1842.63,920.381 1842.63,1177.1 C1842.63,1433.82 1654.32,1687.75 1430.18,1641.93 M1689.67,1099.24 L1554.81,1044.96 L1502.97,891.603 C1493.15,862.298 1469.47,856.73 1450.08,879.146 L1347.34,997.13 L1210.96,986.521 C1183.24,984.269 1168.82,1006.16 1178.74,1035.41 L1236.5,1207.3 L1192.83,1361.7 C1184.31,1391.51 1199.75,1412.51 1227.32,1408.58 L1386.6,1386.49 L1524.71,1478.61 C1548.59,1494.64 1570.2,1482.38 1572.99,1451.23 L1587.84,1290.02 L1701.82,1158.57 C1721.32,1136.25 1715.86,1109.68 1689.67,1099.24 Z" style="stroke:none;fill-rule:evenodd;fill:#ffffff;fill-opacity:1;"/>
        </g>
        <g id="Shape8">
            <desc shapeID="8" type="0" basicInfo-basicType="0" basicInfo-roundedRectRadius="12" basicInfo-polygonSides="6" basicInfo-starPoints="5" bounding="rect(0,0,0,0)" text="" font-familyName="Helvetica" font-pixelSize="20" font-bold="0" font-underline="0" font-alignment="1" strokeStyle="0" markerStart="0" markerEnd="0" shadowEnabled="0" shadowOffsetX="0" shadowOffsetY="2" shadowBlur="4" shadowOpacity="160" blurEnabled="0" blurRadius="4" transform="matrix(1,0,0,1,-218.369,906.063)" pers-center="0,0" pers-size="0,0" pers-start="0,0" pers-end="0,0" locked="0" mesh="" flag=""/>
            <path id="shapePath8" d="M-218.369,906.063 Z" style="stroke:none;fill-rule:evenodd;fill:#ffffff;fill-opacity:1;"/>
        </g>
        <g id="Shape9">
            <desc shapeID="9" type="0" basicInfo-basicType="0" basicInfo-roundedRectRadius="12" basicInfo-polygonSides="6" basicInfo-starPoints="5" bounding="rect(-45.3279,-45,90.6559,90)" text="" font-familyName="" font-pixelSize="20" font-bold="0" font-underline="0" font-alignment="1" strokeStyle="0" markerStart="0" markerEnd="0" shadowEnabled="0" shadowOffsetX="0" shadowOffsetY="2" shadowBlur="4" shadowOpacity="160" blurEnabled="0" blurRadius="4" transform="matrix(9.16572,0,0,9.07291,1471.72,1185.67)" pers-center="0,0" pers-size="0,0" pers-start="0,0" pers-end="0,0" locked="0" mesh="" flag=""/>
            <path id="shapePath9" d="M1474.73,1593.95 C1388.22,1593.95 1307.94,1567.52 1241.61,1522.45 L1089.93,1540.92 C1064.73,1544.08 1050.61,1527.21 1058.41,1503.29 L1103.39,1363.54 C1077.06,1309.77 1062.27,1249.43 1062.27,1185.67 C1062.27,960.171 1246.93,777.388 1474.73,777.388 C1702.53,777.388 1887.19,960.18 1887.19,1185.67 C1887.19,1411.16 1702.53,1593.95 1474.73,1593.95 M1734.22,1117.28 L1599.37,1069.6 L1547.52,934.902 C1537.71,909.163 1514.02,904.272 1494.63,923.961 L1391.89,1027.59 L1255.51,1018.27 C1227.8,1016.3 1213.37,1035.52 1223.3,1061.22 L1281.05,1212.2 L1237.38,1347.81 C1228.86,1373.99 1244.3,1392.44 1271.87,1388.98 L1431.16,1369.59 L1569.27,1450.5 C1593.14,1464.58 1614.76,1453.81 1617.54,1426.45 L1632.39,1284.85 L1746.38,1169.39 C1765.87,1149.79 1760.42,1126.45 1734.22,1117.28 Z" style="stroke:none;fill-rule:evenodd;fill:#000000;fill-opacity:1;"/>
        </g>
    </g>
</svg>
