<svg width="146" height="146" xmlns="http://www.w3.org/2000/svg" xmlns:svg="http://www.w3.org/2000/svg">
 <g>
  <title>Layer 1</title>
  <path fill="black" id="svg_1" d="m130.57899,80.984c2.662,-4.02 3.991,-8.446 3.991,-13.28c0,-5.595 -2.062,-10.455 -6.189,-14.587c-4.12901,-4.128 -9.01701,-6.191 -14.666,-6.191l-14.339,0c2.606,-5.377 3.911,-10.592 3.911,-15.643c0,-6.355 -0.952,-11.406 -2.85199,-15.154c-1.90201,-3.749 -4.67201,-6.505 -8.31201,-8.271c-3.64,-1.765 -7.74,-2.647 -12.30199,-2.647c-2.771,0 -5.215,1.005 -7.333,3.015c-2.335,2.281 -4.019,5.215 -5.051,8.8c-1.032,3.584 -1.861,7.02 -2.485,10.306c-0.624,3.286 -1.589,5.608 -2.892,6.966c-2.662,2.879 -5.568,6.356 -8.718,10.429c-5.486,7.115 -9.207,11.325 -11.16199,12.629l-22.32299,0c-2.879,0 -5.337,1.02 -7.374,3.055c-2.036,2.037 -3.055,4.495 -3.055,7.374l0,52.143c0,2.879 1.018,5.336 3.055,7.373c2.038,2.03699 4.495,3.057 7.374,3.057l23.463,0c1.195,0 4.942,1.086 11.243,3.258c6.681,2.336 12.561,4.11501 17.639,5.33701c5.07899,1.22299 10.225,1.834 15.43999,1.834l7.575,0l2.935,0c7.658,0 13.82201,-2.188 18.494,-6.56c4.67,-4.373 6.979,-10.33401 6.92601,-17.884c3.258,-4.183 4.888,-9.01701 4.888,-14.502c0,-1.194 -0.08101,-2.36201 -0.244,-3.50401c2.063,-3.638 3.097,-7.549 3.097,-11.731c-0.00101,-1.956 -0.24501,-3.831 -0.73401,-5.622zm-101.841,37.397c-1.032,1.03101 -2.254,1.548 -3.666,1.548c-1.413,0 -2.635,-0.517 -3.667,-1.548c-1.032,-1.031 -1.548,-2.254 -1.548,-3.667c0,-1.41199 0.515,-2.634 1.548,-3.666c1.033,-1.032 2.254,-1.548 3.667,-1.548c1.412,0 2.634,0.516 3.666,1.548c1.032,1.03201 1.548,2.25401 1.548,3.666c0,1.413 -0.51601,2.636 -1.548,3.667zm93.65501,-43.993c-1.168,2.499 -2.621,3.775 -4.35899,3.829c0.814,0.924 1.494,2.214 2.037,3.87c0.543,1.65701 0.81299,3.164 0.81299,4.522c0,3.746 -1.43799,6.979 -4.31699,9.694c0.97899,1.737 1.467,3.612 1.467,5.621s-0.47501,4.006 -1.42599,5.988c-0.95001,1.981 -2.24001,3.407 -3.869,4.276c0.271,1.629 0.40599,3.14999 0.40599,4.562c0,9.07 -5.215,13.605 -15.644,13.605l-9.856,0c-7.117,0 -16.404,-1.981 -27.86501,-5.947c-0.272,-0.10799 -1.059,-0.394 -2.363,-0.855c-1.304,-0.461 -2.268,-0.801 -2.893,-1.018c-0.625,-0.219 -1.575,-0.53101 -2.852,-0.938c-1.277,-0.407 -2.308,-0.706 -3.096,-0.896c-0.787,-0.189 -1.684,-0.366 -2.688,-0.529c-1.004,-0.16299 -1.86,-0.244 -2.566,-0.244l-2.60699,0l0,-52.141l2.60699,0c0.869,0 1.833,-0.245 2.89201,-0.733c1.059,-0.489 2.146,-1.222 3.259,-2.2c1.11401,-0.978 2.159,-1.942 3.137,-2.893c0.978,-0.95 2.064,-2.145 3.259,-3.584c1.195,-1.44 2.132,-2.594 2.811,-3.463c0.679,-0.869 1.534,-1.983 2.566,-3.341c1.032,-1.357 1.657,-2.172 1.874,-2.444c2.987,-3.693 5.078,-6.164 6.273,-7.414c2.227,-2.335 3.84299,-5.309 4.847,-8.921c1.006,-3.613 1.834,-7.021 2.48399,-10.225c0.652,-3.205 1.68501,-5.514 3.098,-6.926c5.214,0 8.691,1.276 10.428,3.829c1.738,2.553 2.607,6.491 2.607,11.814c0,3.204 -1.305,7.563 -3.912,13.076c-2.606,5.513 -3.909,9.845 -3.909,12.995l28.67799,0c2.718,0 5.134,1.045 7.252,3.137c2.11801,2.091 3.179,4.521 3.179,7.292c0,1.90099 -0.584,4.101 -1.752,6.602z"/>
 </g>
</svg>