<svg width="146" height="146" xmlns="http://www.w3.org/2000/svg" xmlns:svg="http://www.w3.org/2000/svg">
 <g>
  <title>Layer 1</title>
  <path fill="black" id="svg_1" d="m103.493,21.65c-8.147,-8.148 -17.978,-12.221 -29.493,-12.221c-11.515,0 -21.346,4.074 -29.493,12.221s-12.221,17.978 -12.221,29.493c0,5.921 0.896,10.782 2.688,14.584l29.738,63.061c0.815,1.79201 2.078,3.20401 3.789,4.235c1.711,1.032 3.544,1.54901 5.5,1.54901c1.955,0 3.789,-0.51701 5.5,-1.54901c1.711,-1.03099 3,-2.44299 3.869,-4.235l29.65499,-63.061c1.793,-3.80199 2.68901,-8.663 2.68901,-14.584c0.00099,-11.515 -4.073,-21.345 -12.22101,-29.493zm-14.74699,44.24c-4.07301,4.073 -8.988,6.11 -14.746,6.11s-10.673,-2.037 -14.747,-6.11c-4.074,-4.074 -6.111,-8.989 -6.111,-14.747c0,-5.757 2.037,-10.673 6.111,-14.746c4.07401,-4.074 8.99,-6.111 14.747,-6.111c5.758,0 10.673,2.037 14.746,6.111c4.074,4.073 6.11099,8.989 6.11099,14.746c0,5.757 -2.03699,10.67199 -6.11099,14.747z"/>
 </g>
</svg>