<?xml version="1.0"?>
<svg version="1.1" xmlns="http://www.w3.org/2000/svg" xmlns:xlink="http://www.w3.org/1999/xlink" width="1792" height="1792">
    <desc iVinci="yes" version="4.5" gridStep="20" showGrid="no" snapToGrid="no" codePlatform="0"/>
    <g id="Layer1" opacity="1">
        <g id="Shape1">
            <desc shapeID="1" type="0" basicInfo-basicType="0" basicInfo-roundedRectRadius="12" basicInfo-polygonSides="6" basicInfo-starPoints="5" bounding="rect(-704,-768,1408,1536)" text="" font-familyName="" font-pixelSize="20" font-bold="0" font-underline="0" font-alignment="1" strokeStyle="0" markerStart="0" markerEnd="0" shadowEnabled="0" shadowOffsetX="0" shadowOffsetY="2" shadowBlur="4" shadowOpacity="160" blurEnabled="0" blurRadius="4" transform="matrix(0.803084,0,0,0.813575,621.014,896)" pers-center="0,0" pers-size="0,0" pers-start="0,0" pers-end="0,0" locked="0" mesh="" flag=""/>
            <path id="shapePath1" d="M1186.39,1310.11 C1186.39,1375.2 1166.84,1426.59 1127.76,1464.28 C1088.68,1501.98 1036.74,1520.83 971.962,1520.83 L270.067,1520.83 C205.285,1520.83 153.352,1501.98 114.269,1464.28 C75.1853,1426.59 55.6436,1375.2 55.6436,1310.11 C55.6436,1281.36 56.5805,1253.3 58.4543,1225.9 C60.3282,1198.51 64.0759,1168.95 69.6975,1137.23 C75.3191,1105.5 82.4131,1076.07 90.9792,1048.95 C99.5455,1021.83 111.056,995.392 125.512,969.629 C139.967,943.865 156.564,921.899 175.303,903.729 C194.042,885.559 216.93,871.05 243.967,860.203 C271.004,849.355 300.852,843.931 333.511,843.931 C338.329,843.931 349.572,849.762 367.24,861.423 C384.908,873.084 404.851,886.102 427.07,900.475 C449.288,914.848 478.199,927.865 513.803,939.526 C549.406,951.188 585.143,957.018 621.014,957.018 C656.886,957.018 692.623,951.188 728.226,939.526 C763.83,927.865 792.741,914.848 814.959,900.475 C837.178,886.102 857.121,873.084 874.789,861.423 C892.457,849.762 903.7,843.931 908.518,843.931 C941.177,843.931 971.025,849.355 998.062,860.203 C1025.1,871.05 1047.99,885.559 1066.73,903.729 C1085.46,921.899 1102.06,943.865 1116.52,969.629 C1130.97,995.392 1142.48,1021.83 1151.05,1048.95 C1159.62,1076.07 1166.71,1105.5 1172.33,1137.23 C1177.95,1168.95 1181.7,1198.51 1183.57,1225.9 C1185.45,1253.3 1186.39,1281.36 1186.39,1310.11 M929.399,583.587 C929.399,669.826 899.283,743.455 839.052,804.473 C778.82,865.491 706.141,896 621.014,896 C535.888,896 463.209,865.491 402.977,804.473 C342.746,743.455 312.63,669.826 312.63,583.587 C312.63,497.348 342.746,423.72 402.977,362.701 C463.209,301.683 535.888,271.174 621.014,271.174 C706.141,271.174 778.82,301.683 839.052,362.701 C899.283,423.72 929.399,497.348 929.399,583.587 Z" style="stroke:none;fill-rule:nonzero;fill:#000000;fill-opacity:1;"/>
        </g>
        <g id="Shape2">
            <desc shapeID="2" type="0" basicInfo-basicType="0" basicInfo-roundedRectRadius="12" basicInfo-polygonSides="6" basicInfo-starPoints="5" bounding="rect(-62.571,-67.788,125.142,135.576)" text="" font-familyName="" font-pixelSize="20" font-bold="0" font-underline="0" font-alignment="1" strokeStyle="0" markerStart="0" markerEnd="0" shadowEnabled="0" shadowOffsetX="0" shadowOffsetY="2" shadowBlur="4" shadowOpacity="160" blurEnabled="0" blurRadius="4" transform="matrix(6.04855,0,0,5.97745,1378.26,1065.63)" pers-center="0,0" pers-size="0,0" pers-start="0,0" pers-end="0,0" locked="0" mesh="" flag=""/>
            <path id="shapePath2" d="M1732.59,1113.36 C1748.69,1089.33 1756.73,1062.87 1756.73,1033.98 C1756.73,1000.53 1744.25,971.484 1719.29,946.785 C1694.32,922.11 1664.75,909.779 1630.58,909.779 L1543.85,909.779 C1559.62,877.638 1567.51,846.466 1567.51,816.273 C1567.51,778.287 1561.75,748.095 1550.26,725.691 C1538.75,703.282 1522,686.808 1499.98,676.252 C1477.97,665.701 1453.17,660.429 1425.57,660.429 C1408.81,660.429 1394.03,666.437 1381.22,678.451 C1367.1,692.086 1356.91,709.624 1350.67,731.053 C1344.43,752.476 1339.41,773.015 1335.64,792.656 C1331.86,812.298 1326.03,826.178 1318.15,834.295 C1302.04,851.505 1284.47,872.288 1265.41,896.634 C1232.23,939.164 1209.73,964.329 1197.9,972.124 L1062.88,972.124 C1045.46,972.124 1030.6,978.221 1018.28,990.385 C1005.96,1002.56 999.798,1017.25 999.798,1034.46 L999.798,1346.14 C999.798,1363.35 1005.96,1378.04 1018.28,1390.22 C1030.6,1402.39 1045.46,1408.49 1062.88,1408.49 L1204.8,1408.49 C1212.02,1408.49 1234.69,1414.98 1272.8,1427.96 C1313.21,1441.93 1348.78,1452.56 1379.49,1459.87 C1410.21,1467.18 1441.34,1470.83 1472.88,1470.83 L1518.7,1470.83 L1536.45,1470.83 C1582.77,1470.83 1620.05,1457.75 1648.31,1431.62 C1676.56,1405.48 1690.52,1369.85 1690.2,1324.72 C1709.91,1299.71 1719.77,1270.82 1719.77,1238.03 C1719.77,1230.89 1719.28,1223.91 1718.29,1217.09 C1730.77,1195.34 1737.03,1171.96 1737.03,1146.96 C1737.02,1135.27 1735.54,1124.06 1732.59,1113.36 M1116.6,1336.9 C1110.35,1343.06 1102.96,1346.15 1094.42,1346.15 C1085.88,1346.15 1078.48,1343.06 1072.24,1336.9 C1066,1330.73 1062.88,1323.42 1062.88,1314.98 C1062.88,1306.54 1065.99,1299.23 1072.24,1293.06 C1078.49,1286.9 1085.88,1283.81 1094.42,1283.81 C1102.96,1283.81 1110.35,1286.9 1116.6,1293.06 C1122.84,1299.23 1125.96,1306.54 1125.96,1314.98 C1125.96,1323.42 1122.84,1330.73 1116.6,1336.9 M1683.07,1073.93 C1676.01,1088.87 1667.22,1096.5 1656.71,1096.82 C1661.63,1102.34 1665.74,1110.05 1669.03,1119.95 C1672.31,1129.86 1673.95,1138.86 1673.95,1146.98 C1673.95,1169.37 1665.25,1188.7 1647.83,1204.93 C1653.75,1215.31 1656.71,1226.52 1656.71,1238.53 C1656.71,1250.54 1653.83,1262.47 1648.08,1274.32 C1642.34,1286.16 1634.53,1294.68 1624.68,1299.88 C1626.32,1309.62 1627.14,1318.71 1627.14,1327.15 C1627.14,1381.36 1595.59,1408.47 1532.51,1408.47 L1472.9,1408.47 C1429.85,1408.47 1373.68,1396.63 1304.35,1372.92 C1302.71,1372.28 1297.95,1370.57 1290.06,1367.81 C1282.17,1365.06 1276.34,1363.02 1272.56,1361.73 C1268.78,1360.42 1263.04,1358.55 1255.31,1356.12 C1247.59,1353.69 1241.35,1351.9 1236.59,1350.77 C1231.83,1349.64 1226.4,1348.58 1220.33,1347.6 C1214.26,1346.63 1209.08,1346.14 1204.81,1346.14 L1189.04,1346.14 L1189.04,1034.47 L1204.81,1034.47 C1210.06,1034.47 1215.89,1033.01 1222.3,1030.09 C1228.71,1027.17 1235.28,1022.79 1242.01,1016.94 C1248.75,1011.1 1255.07,1005.33 1260.99,999.65 C1266.9,993.971 1273.47,986.828 1280.7,978.227 C1287.93,969.619 1293.59,962.721 1297.7,957.527 C1301.81,952.332 1306.98,945.673 1313.22,937.556 C1319.46,929.445 1323.24,924.573 1324.56,922.947 C1342.62,900.872 1355.27,886.102 1362.5,878.63 C1375.97,864.673 1385.74,846.896 1391.82,825.305 C1397.9,803.709 1402.91,783.338 1406.84,764.186 C1410.78,745.028 1417.03,731.226 1425.58,722.786 C1457.12,722.786 1478.15,730.413 1488.65,745.674 C1499.17,760.934 1504.42,784.473 1504.42,816.291 C1504.42,835.443 1496.53,861.499 1480.76,894.453 C1465,927.406 1457.12,953.301 1457.12,972.13 L1630.58,972.13 C1647.02,972.13 1661.63,978.376 1674.44,990.881 C1687.25,1003.38 1693.67,1017.9 1693.67,1034.47 C1693.67,1045.83 1690.14,1058.98 1683.07,1073.93 Z" style="stroke:none;fill-rule:nonzero;fill:#000000;fill-opacity:1;"/>
        </g>
    </g>
</svg>
