<?xml version="1.0"?>
<svg version="1.1" xmlns="http://www.w3.org/2000/svg" xmlns:xlink="http://www.w3.org/1999/xlink" width="1920" height="2048">
    <desc iVinci="yes" version="4.5" gridStep="20" showGrid="no" snapToGrid="no" codePlatform="0"/>
    <g id="Layer1" opacity="1">
        <g id="Shape1">
            <desc shapeID="1" type="0" basicInfo-basicType="0" basicInfo-roundedRectRadius="12" basicInfo-polygonSides="6" basicInfo-starPoints="5" bounding="rect(-960.002,-896.001,1920,1792)" text="" font-familyName="" font-pixelSize="20" font-bold="0" font-underline="0" font-alignment="1" strokeStyle="0" markerStart="0" markerEnd="0" shadowEnabled="0" shadowOffsetX="0" shadowOffsetY="2" shadowBlur="4" shadowOpacity="160" blurEnabled="0" blurRadius="4" transform="matrix(0.699967,0,0,0.708579,715.04,1112.83)" pers-center="0,0" pers-size="0,0" pers-start="0,0" pers-end="0,0" locked="0" mesh="" flag=""/>
            <path id="shapePath1" d="M458.15,1112.83 C382.554,1115.19 320.724,1145.43 272.659,1203.53 L178.864,1203.53 C140.599,1203.53 108.4,1193.96 82.2682,1174.83 C56.1364,1155.7 43.0701,1127.71 43.0701,1090.87 C43.0701,924.114 72.0019,840.738 129.866,840.738 C132.666,840.738 142.815,845.698 160.315,855.618 C177.814,865.538 200.563,875.576 228.561,885.733 C256.56,895.889 284.326,900.967 311.857,900.967 C343.123,900.967 374.154,895.534 404.953,884.67 C402.62,902.148 401.453,917.737 401.453,931.436 C401.453,997.098 420.352,1057.56 458.15,1112.83 M1207.81,1564.2 C1207.81,1620.88 1190.78,1665.64 1156.72,1698.47 C1122.65,1731.3 1077.39,1747.72 1020.92,1747.72 L409.153,1747.72 C352.689,1747.72 307.424,1731.3 273.359,1698.47 C239.294,1665.64 222.262,1620.88 222.262,1564.2 C222.262,1539.16 223.078,1514.71 224.711,1490.86 C226.345,1467 229.611,1441.26 234.511,1413.62 C239.411,1385.99 245.594,1360.36 253.06,1336.74 C260.527,1313.12 270.559,1290.1 283.159,1267.66 C295.758,1245.22 310.224,1226.09 326.557,1210.26 C342.889,1194.44 362.838,1181.8 386.404,1172.35 C409.97,1162.91 435.985,1158.18 464.45,1158.18 C469.117,1158.18 479.149,1163.26 494.549,1173.42 C509.948,1183.57 526.98,1194.91 545.646,1207.43 C564.312,1219.95 589.277,1231.28 620.543,1241.44 C651.808,1251.6 683.307,1256.67 715.038,1256.67 C746.77,1256.67 778.268,1251.6 809.534,1241.44 C840.799,1231.28 865.764,1219.95 884.43,1207.43 C903.096,1194.91 920.128,1183.57 935.528,1173.42 C950.927,1163.26 960.96,1158.18 965.626,1158.18 C994.092,1158.18 1020.11,1162.91 1043.67,1172.35 C1067.24,1181.8 1087.19,1194.44 1103.52,1210.26 C1119.85,1226.09 1134.32,1245.22 1146.92,1267.66 C1159.52,1290.1 1169.55,1313.12 1177.02,1336.74 C1184.48,1360.36 1190.67,1385.99 1195.57,1413.62 C1200.47,1441.26 1203.73,1467 1205.36,1490.86 C1207,1514.71 1207.81,1539.16 1207.81,1564.2 M491.049,659.342 C491.049,709.415 473.55,752.165 438.551,787.594 C403.553,823.023 361.322,840.738 311.857,840.738 C262.393,840.738 220.162,823.023 185.163,787.594 C150.165,752.165 132.666,709.415 132.666,659.342 C132.666,609.268 150.165,566.518 185.163,531.089 C220.162,495.66 262.393,477.945 311.857,477.945 C361.322,477.945 403.553,495.66 438.551,531.089 C473.55,566.518 491.049,609.268 491.049,659.342 M983.825,931.436 C983.825,1006.55 957.577,1070.67 905.079,1123.82 C852.582,1176.96 789.235,1203.53 715.038,1203.53 C640.842,1203.53 577.495,1176.96 524.997,1123.82 C472.5,1070.67 446.251,1006.55 446.251,931.436 C446.251,856.327 472.5,792.2 524.997,739.057 C577.495,685.913 640.842,659.342 715.038,659.342 C789.235,659.342 852.582,685.913 905.079,739.057 C957.577,792.2 983.825,856.327 983.825,931.436 M1387.01,1090.87 C1387.01,1127.71 1373.94,1155.7 1347.81,1174.83 C1321.68,1193.96 1289.48,1203.53 1251.21,1203.53 L1157.42,1203.53 C1109.35,1145.43 1047.52,1115.19 971.926,1112.83 C1009.72,1057.56 1028.62,997.098 1028.62,931.436 C1028.62,917.737 1027.46,902.148 1025.12,884.67 C1055.92,895.534 1086.95,900.967 1118.22,900.967 C1145.75,900.967 1173.52,895.889 1201.52,885.733 C1229.51,875.576 1252.26,865.538 1269.76,855.618 C1287.26,845.698 1297.41,840.738 1300.21,840.738 C1358.07,840.738 1387.01,924.114 1387.01,1090.87 M1297.41,659.342 C1297.41,709.415 1279.91,752.165 1244.91,787.594 C1209.91,823.023 1167.68,840.738 1118.22,840.738 C1068.75,840.738 1026.52,823.023 991.525,787.594 C956.527,752.165 939.027,709.415 939.027,659.342 C939.027,609.268 956.527,566.518 991.525,531.089 C1026.52,495.66 1068.75,477.945 1118.22,477.945 C1167.68,477.945 1209.91,495.66 1244.91,531.089 C1279.91,566.518 1297.41,609.268 1297.41,659.342 Z" style="stroke:none;fill-rule:evenodd;fill:#000000;fill-opacity:1;"/>
        </g>
        <g id="Shape2">
            <desc shapeID="2" type="0" basicInfo-basicType="0" basicInfo-roundedRectRadius="12" basicInfo-polygonSides="6" basicInfo-starPoints="5" bounding="rect(0,0,0,0)" text="" font-familyName="Helvetica" font-pixelSize="20" font-bold="0" font-underline="0" font-alignment="1" strokeStyle="0" markerStart="0" markerEnd="0" shadowEnabled="0" shadowOffsetX="0" shadowOffsetY="2" shadowBlur="4" shadowOpacity="160" blurEnabled="0" blurRadius="4" transform="matrix(1,0,0,1,966.237,984.23)" pers-center="0,0" pers-size="0,0" pers-start="0,0" pers-end="0,0" locked="0" mesh="" flag=""/>
            <path id="shapePath2" d="M966.237,984.23 Z" style="stroke:none;fill-rule:evenodd;fill:#ffffff;fill-opacity:1;"/>
        </g>
    </g>
    <g id="Layer2" opacity="1">
        <g id="Shape3">
            <desc shapeID="3" type="0" basicInfo-basicType="0" basicInfo-roundedRectRadius="12" basicInfo-polygonSides="6" basicInfo-starPoints="5" bounding="rect(-94.481,-204.585,188.962,409.17)" text="" font-familyName="Helvetica" font-pixelSize="20" font-bold="0" font-underline="0" font-alignment="1" strokeStyle="0" markerStart="0" markerEnd="0" shadowEnabled="0" shadowOffsetX="0" shadowOffsetY="2" shadowBlur="4" shadowOpacity="160" blurEnabled="0" blurRadius="4" transform="matrix(1,0,0,1,1232.62,1402.47)" pers-center="0,0" pers-size="0,0" pers-start="0,0" pers-end="0,0" locked="0" mesh="" flag=""/>
            <path id="shapePath3" d="M1316.33,1197.89 C1317.97,1202.9 1314.24,1205.69 1310.95,1208.66 C1259.61,1234.24 1206.28,1230.67 1144.05,1230.19 C1139.2,1276.28 1131.4,1327.21 1149.44,1370.17 L1149.44,1483.23 L1144.05,1488.61 L1144.05,1520.92 L1138.67,1520.92 L1138.67,1558.6 L1144.05,1558.6 C1140.49,1574.72 1149.2,1578.58 1149.44,1590.91 L1154.82,1590.91 C1150.3,1605.89 1173.52,1596.65 1170.97,1607.06 L1294.8,1607.06 L1294.8,1601.67 L1327.1,1601.67 L1327.1,1596.29 " style="stroke:none;fill-rule:evenodd;fill:#ffffff;fill-opacity:1;"/>
        </g>
        <g id="Shape4">
            <desc shapeID="4" type="0" basicInfo-basicType="0" basicInfo-roundedRectRadius="12" basicInfo-polygonSides="6" basicInfo-starPoints="5" bounding="rect(-62.5703,-67.7879,125.141,135.576)" text="" font-familyName="" font-pixelSize="20" font-bold="0" font-underline="0" font-alignment="1" strokeStyle="0" markerStart="0" markerEnd="0" shadowEnabled="0" shadowOffsetX="0" shadowOffsetY="2" shadowBlur="4" shadowOpacity="160" blurEnabled="0" blurRadius="4" transform="matrix(6.78165,0,0,7.25141,1467.58,1251.24)" pers-center="0,0" pers-size="0,0" pers-start="0,0" pers-end="0,0" locked="0" mesh="" flag=""/>
            <path id="shapePath4" d="M1864.85,1309.15 C1882.9,1280 1891.91,1247.9 1891.91,1212.85 C1891.91,1172.28 1877.93,1137.03 1849.94,1107.07 C1821.94,1077.14 1788.79,1062.18 1750.48,1062.18 L1653.24,1062.18 C1670.91,1023.19 1679.76,985.368 1679.76,948.741 C1679.76,902.658 1673.31,866.031 1660.42,838.853 C1647.52,811.668 1628.74,791.683 1604.05,778.877 C1579.37,766.078 1551.56,759.682 1520.63,759.682 C1501.83,759.682 1485.26,766.97 1470.9,781.545 C1455.06,798.086 1443.64,819.361 1436.64,845.358 C1429.64,871.347 1424.02,896.263 1419.79,920.091 C1415.56,943.919 1409.01,960.757 1400.18,970.604 C1382.12,991.481 1362.42,1016.7 1341.06,1046.23 C1303.85,1097.83 1278.62,1128.35 1265.36,1137.81 L1113.97,1137.81 C1094.45,1137.81 1077.78,1145.21 1063.96,1159.96 C1050.16,1174.73 1043.25,1192.56 1043.25,1213.43 L1043.25,1591.55 C1043.25,1612.42 1050.15,1630.24 1063.96,1645.01 C1077.78,1659.78 1094.45,1667.18 1113.97,1667.18 L1273.09,1667.18 C1281.19,1667.18 1306.6,1675.05 1349.34,1690.8 C1394.64,1707.74 1434.52,1720.64 1468.96,1729.5 C1503.4,1738.37 1538.3,1742.8 1573.67,1742.8 L1625.04,1742.8 L1644.94,1742.8 C1696.87,1742.8 1738.68,1726.94 1770.36,1695.23 C1802.03,1663.52 1817.69,1620.3 1817.33,1565.55 C1839.43,1535.22 1850.48,1500.16 1850.48,1460.39 C1850.48,1451.73 1849.93,1443.26 1848.82,1434.98 C1862.81,1408.6 1869.83,1380.24 1869.83,1349.91 C1869.82,1335.73 1868.17,1322.13 1864.85,1309.15 M1174.2,1580.33 C1167.2,1587.8 1158.91,1591.55 1149.34,1591.55 C1139.76,1591.55 1131.47,1587.8 1124.47,1580.33 C1117.47,1572.85 1113.97,1563.98 1113.97,1553.74 C1113.97,1543.5 1117.46,1534.64 1124.47,1527.15 C1131.47,1519.67 1139.76,1515.93 1149.34,1515.93 C1158.91,1515.93 1167.2,1519.67 1174.2,1527.15 C1181.2,1534.64 1184.7,1543.5 1184.7,1553.74 C1184.7,1563.98 1181.2,1572.85 1174.2,1580.33 M1809.33,1261.32 C1801.41,1279.44 1791.56,1288.69 1779.77,1289.08 C1785.29,1295.78 1789.91,1305.14 1793.59,1317.14 C1797.27,1329.16 1799.1,1340.09 1799.1,1349.94 C1799.1,1377.1 1789.35,1400.54 1769.83,1420.23 C1776.46,1432.83 1779.77,1446.42 1779.77,1460.99 C1779.77,1475.56 1776.55,1490.04 1770.1,1504.41 C1763.66,1518.78 1754.91,1529.12 1743.86,1535.42 C1745.7,1547.23 1746.62,1558.26 1746.62,1568.5 C1746.62,1634.27 1711.25,1667.16 1640.53,1667.16 L1573.69,1667.16 C1525.42,1667.16 1462.44,1652.79 1384.72,1624.03 C1382.87,1623.25 1377.53,1621.17 1368.69,1617.83 C1359.85,1614.49 1353.31,1612.02 1349.07,1610.45 C1344.83,1608.86 1338.39,1606.6 1329.73,1603.65 C1321.07,1600.7 1314.08,1598.53 1308.73,1597.15 C1303.4,1595.78 1297.31,1594.5 1290.5,1593.31 C1283.7,1592.13 1277.89,1591.55 1273.1,1591.55 L1255.42,1591.55 L1255.42,1213.45 L1273.1,1213.45 C1279,1213.45 1285.53,1211.67 1292.72,1208.13 C1299.9,1204.59 1307.27,1199.27 1314.82,1192.18 C1322.37,1185.09 1329.46,1178.1 1336.09,1171.2 C1342.72,1164.31 1350.09,1155.65 1358.19,1145.21 C1366.3,1134.77 1372.65,1126.4 1377.26,1120.1 C1381.86,1113.8 1387.66,1105.72 1394.66,1095.88 C1401.66,1086.03 1405.89,1080.12 1407.37,1078.15 C1427.62,1051.37 1441.8,1033.45 1449.91,1024.39 C1465.01,1007.46 1475.97,985.89 1482.78,959.698 C1489.6,933.499 1495.22,908.786 1499.62,885.552 C1504.05,862.311 1511.05,845.568 1520.63,835.329 C1555.99,835.329 1579.57,844.582 1591.35,863.095 C1603.14,881.607 1609.03,910.163 1609.03,948.763 C1609.03,971.996 1600.18,1003.61 1582.5,1043.59 C1564.83,1083.56 1555.99,1114.98 1555.99,1137.82 L1750.48,1137.82 C1768.91,1137.82 1785.29,1145.39 1799.66,1160.56 C1814.02,1175.73 1821.22,1193.35 1821.22,1213.44 C1821.22,1227.23 1817.26,1243.18 1809.33,1261.32 Z" style="stroke:none;fill-rule:evenodd;fill:#ffffff;fill-opacity:1;"/>
        </g>
    </g>
    <g id="Layer3" opacity="1">
        <g id="Shape5">
            <desc shapeID="5" type="0" basicInfo-basicType="0" basicInfo-roundedRectRadius="12" basicInfo-polygonSides="6" basicInfo-starPoints="5" bounding="rect(-62.5703,-67.7879,125.141,135.576)" text="" font-familyName="" font-pixelSize="20" font-bold="0" font-underline="0" font-alignment="1" strokeStyle="0" markerStart="0" markerEnd="0" shadowEnabled="0" shadowOffsetX="0" shadowOffsetY="2" shadowBlur="4" shadowOpacity="160" blurEnabled="0" blurRadius="4" transform="matrix(6.78165,0,0,7.25141,1465.36,1238.31)" pers-center="0,0" pers-size="0,0" pers-start="0,0" pers-end="0,0" locked="0" mesh="" flag=""/>
            <path id="shapePath5" d="M1862.63,1296.22 C1880.68,1267.07 1889.69,1234.97 1889.69,1199.92 C1889.69,1159.35 1875.71,1124.1 1847.72,1094.14 C1819.72,1064.21 1786.57,1049.25 1748.26,1049.25 L1651.02,1049.25 C1668.69,1010.26 1677.54,972.441 1677.54,935.814 C1677.54,889.731 1671.09,853.104 1658.2,825.926 C1645.3,798.741 1626.52,778.756 1601.83,765.95 C1577.15,753.151 1549.34,746.755 1518.41,746.755 C1499.61,746.755 1483.04,754.043 1468.68,768.618 C1452.84,785.159 1441.42,806.434 1434.42,832.431 C1427.42,858.42 1421.8,883.336 1417.57,907.164 C1413.34,930.992 1406.79,947.83 1397.96,957.677 C1379.9,978.554 1360.2,1003.77 1338.84,1033.3 C1301.63,1084.9 1276.4,1115.42 1263.14,1124.88 L1111.75,1124.88 C1092.23,1124.88 1075.56,1132.28 1061.74,1147.03 C1047.94,1161.8 1041.03,1179.63 1041.03,1200.5 L1041.03,1578.62 C1041.03,1599.49 1047.93,1617.31 1061.74,1632.08 C1075.56,1646.85 1092.23,1654.25 1111.75,1654.25 L1270.87,1654.25 C1278.97,1654.25 1304.38,1662.12 1347.12,1677.87 C1392.42,1694.81 1432.3,1707.71 1466.74,1716.57 C1501.18,1725.44 1536.08,1729.87 1571.45,1729.87 L1622.82,1729.87 L1642.72,1729.87 C1694.65,1729.87 1736.46,1714.01 1768.14,1682.3 C1799.81,1650.59 1815.47,1607.37 1815.11,1552.62 C1837.21,1522.29 1848.26,1487.23 1848.26,1447.46 C1848.26,1438.8 1847.71,1430.33 1846.6,1422.05 C1860.59,1395.67 1867.61,1367.31 1867.61,1336.98 C1867.6,1322.8 1865.95,1309.2 1862.63,1296.22 M1171.98,1567.4 C1164.98,1574.87 1156.69,1578.62 1147.12,1578.62 C1137.54,1578.62 1129.25,1574.87 1122.25,1567.4 C1115.25,1559.92 1111.75,1551.05 1111.75,1540.81 C1111.75,1530.57 1115.24,1521.71 1122.25,1514.22 C1129.25,1506.74 1137.54,1503 1147.12,1503 C1156.69,1503 1164.98,1506.74 1171.98,1514.22 C1178.98,1521.71 1182.48,1530.57 1182.48,1540.81 C1182.48,1551.05 1178.98,1559.92 1171.98,1567.4 M1807.11,1248.39 C1799.19,1266.51 1789.34,1275.76 1777.55,1276.15 C1783.07,1282.85 1787.69,1292.21 1791.37,1304.21 C1795.05,1316.23 1796.88,1327.16 1796.88,1337.01 C1796.88,1364.17 1787.13,1387.61 1767.61,1407.3 C1774.24,1419.9 1777.55,1433.49 1777.55,1448.06 C1777.55,1462.63 1774.33,1477.11 1767.88,1491.48 C1761.44,1505.85 1752.69,1516.19 1741.64,1522.49 C1743.48,1534.3 1744.4,1545.33 1744.4,1555.57 C1744.4,1621.34 1709.03,1654.23 1638.31,1654.23 L1571.47,1654.23 C1523.2,1654.23 1460.22,1639.86 1382.5,1611.1 C1380.65,1610.32 1375.31,1608.24 1366.47,1604.9 C1357.63,1601.56 1351.09,1599.09 1346.85,1597.52 C1342.61,1595.93 1336.17,1593.67 1327.51,1590.72 C1318.85,1587.77 1311.86,1585.6 1306.51,1584.22 C1301.18,1582.85 1295.09,1581.57 1288.28,1580.38 C1281.48,1579.2 1275.67,1578.62 1270.88,1578.62 L1253.2,1578.62 L1253.2,1200.52 L1270.88,1200.52 C1276.78,1200.52 1283.31,1198.74 1290.5,1195.2 C1297.68,1191.66 1305.05,1186.34 1312.6,1179.25 C1320.15,1172.16 1327.24,1165.17 1333.87,1158.27 C1340.5,1151.38 1347.87,1142.72 1355.97,1132.28 C1364.08,1121.84 1370.43,1113.47 1375.04,1107.17 C1379.64,1100.87 1385.44,1092.79 1392.44,1082.95 C1399.44,1073.1 1403.67,1067.19 1405.15,1065.22 C1425.4,1038.44 1439.58,1020.52 1447.69,1011.46 C1462.79,994.53 1473.75,972.963 1480.56,946.771 C1487.38,920.572 1493,895.859 1497.4,872.625 C1501.83,849.384 1508.83,832.641 1518.41,822.402 C1553.77,822.402 1577.35,831.655 1589.13,850.168 C1600.92,868.68 1606.81,897.236 1606.81,935.836 C1606.81,959.069 1597.96,990.678 1580.28,1030.66 C1562.61,1070.63 1553.77,1102.05 1553.77,1124.89 L1748.26,1124.89 C1766.69,1124.89 1783.07,1132.46 1797.44,1147.63 C1811.8,1162.8 1819,1180.42 1819,1200.51 C1819,1214.3 1815.04,1230.25 1807.11,1248.39 Z" style="stroke:none;fill-rule:evenodd;fill:#ffffff;fill-opacity:1;"/>
        </g>
        <g id="Shape6">
            <desc shapeID="6" type="0" basicInfo-basicType="0" basicInfo-roundedRectRadius="12" basicInfo-polygonSides="6" basicInfo-starPoints="5" bounding="rect(0,0,0,0)" text="" font-familyName="Helvetica" font-pixelSize="20" font-bold="0" font-underline="0" font-alignment="1" strokeStyle="0" markerStart="0" markerEnd="0" shadowEnabled="0" shadowOffsetX="0" shadowOffsetY="2" shadowBlur="4" shadowOpacity="160" blurEnabled="0" blurRadius="4" transform="matrix(1,0,0,1,37.3091,106.683)" pers-center="0,0" pers-size="0,0" pers-start="0,0" pers-end="0,0" locked="0" mesh="" flag=""/>
            <path id="shapePath6" d="M37.3091,106.683 Z" style="stroke:none;fill-rule:evenodd;fill:#ffffff;fill-opacity:1;"/>
        </g>
        <g id="Shape7">
            <desc shapeID="7" type="0" basicInfo-basicType="0" basicInfo-roundedRectRadius="12" basicInfo-polygonSides="6" basicInfo-starPoints="5" bounding="rect(-62.5706,-67.7879,125.141,135.576)" text="" font-familyName="" font-pixelSize="20" font-bold="0" font-underline="0" font-alignment="1" strokeStyle="0" markerStart="0" markerEnd="0" shadowEnabled="0" shadowOffsetX="0" shadowOffsetY="2" shadowBlur="4" shadowOpacity="160" blurEnabled="0" blurRadius="4" transform="matrix(6.52071,0,0,6.51385,1485.08,1259.88)" pers-center="0,0" pers-size="0,0" pers-start="0,0" pers-end="0,0" locked="0" mesh="" flag=""/>
            <path id="shapePath7" d="M1867.06,1311.89 C1884.42,1285.71 1893.08,1256.88 1893.08,1225.39 C1893.08,1188.94 1879.64,1157.29 1852.72,1130.37 C1825.8,1103.48 1793.93,1090.04 1757.09,1090.04 L1663.59,1090.04 C1680.58,1055.02 1689.09,1021.05 1689.09,988.148 C1689.09,946.753 1682.89,913.851 1670.5,889.438 C1658.09,865.017 1640.03,847.065 1616.3,835.561 C1592.56,824.064 1565.83,818.319 1536.08,818.319 C1518.01,818.319 1502.07,824.866 1488.26,837.958 C1473.04,852.817 1462.06,871.928 1455.33,895.28 C1448.6,918.626 1443.19,941.008 1439.12,962.412 C1435.05,983.817 1428.76,998.942 1420.26,1007.79 C1402.91,1026.54 1383.96,1049.19 1363.42,1075.72 C1327.64,1122.07 1303.38,1149.49 1290.63,1157.98 L1145.07,1157.98 C1126.3,1157.98 1110.27,1164.63 1096.99,1177.88 C1083.71,1191.15 1077.07,1207.16 1077.07,1225.92 L1077.07,1565.57 C1077.07,1584.32 1083.7,1600.33 1096.99,1613.6 C1110.28,1626.86 1126.3,1633.51 1145.07,1633.51 L1298.07,1633.51 C1305.86,1633.51 1330.29,1640.58 1371.38,1654.73 C1414.94,1669.95 1453.29,1681.54 1486.4,1689.5 C1519.52,1697.46 1553.07,1701.44 1587.08,1701.44 L1636.47,1701.44 L1655.61,1701.44 C1705.55,1701.44 1745.74,1687.19 1776.2,1658.71 C1806.66,1630.23 1821.71,1591.4 1821.37,1542.22 C1842.61,1514.97 1853.24,1483.48 1853.24,1447.75 C1853.24,1439.98 1852.71,1432.37 1851.65,1424.93 C1865.1,1401.23 1871.84,1375.76 1871.84,1348.51 C1871.84,1335.77 1870.25,1323.56 1867.06,1311.89 M1202.98,1555.49 C1196.25,1562.21 1188.28,1565.58 1179.08,1565.58 C1169.86,1565.58 1161.89,1562.21 1155.16,1555.49 C1148.44,1548.78 1145.07,1540.81 1145.07,1531.61 C1145.07,1522.41 1148.43,1514.45 1155.16,1507.73 C1161.9,1501 1169.86,1497.64 1179.08,1497.64 C1188.28,1497.64 1196.25,1501 1202.98,1507.73 C1209.71,1514.45 1213.08,1522.41 1213.08,1531.61 C1213.08,1540.81 1209.71,1548.78 1202.98,1555.49 M1813.68,1268.93 C1806.06,1285.21 1796.59,1293.52 1785.25,1293.87 C1790.56,1299.89 1795,1308.29 1798.54,1319.08 C1802.08,1329.87 1803.84,1339.69 1803.84,1348.53 C1803.84,1372.93 1794.46,1393.99 1775.69,1411.68 C1782.07,1422.99 1785.25,1435.21 1785.25,1448.29 C1785.25,1461.38 1782.16,1474.39 1775.96,1487.3 C1769.76,1500.2 1761.35,1509.49 1750.73,1515.15 C1752.49,1525.76 1753.38,1535.67 1753.38,1544.87 C1753.38,1603.95 1719.37,1633.49 1651.36,1633.49 L1587.1,1633.49 C1540.69,1633.49 1480.13,1620.59 1405.4,1594.75 C1403.62,1594.05 1398.49,1592.18 1389.99,1589.18 C1381.49,1586.18 1375.2,1583.96 1371.12,1582.55 C1367.05,1581.12 1360.85,1579.09 1352.53,1576.44 C1344.2,1573.79 1337.48,1571.84 1332.34,1570.6 C1327.21,1569.37 1321.36,1568.22 1314.81,1567.16 C1308.26,1566.1 1302.68,1565.57 1298.08,1565.57 L1281.08,1565.57 L1281.08,1225.93 L1298.08,1225.93 C1303.75,1225.93 1310.03,1224.33 1316.94,1221.16 C1323.84,1217.97 1330.93,1213.2 1338.19,1206.82 C1345.45,1200.45 1352.27,1194.18 1358.64,1187.98 C1365.02,1181.79 1372.1,1174.01 1379.89,1164.63 C1387.69,1155.25 1393.8,1147.74 1398.22,1142.08 C1402.65,1136.42 1408.23,1129.16 1414.96,1120.31 C1421.69,1111.48 1425.76,1106.17 1427.18,1104.39 C1446.65,1080.34 1460.29,1064.24 1468.08,1056.1 C1482.6,1040.89 1493.14,1021.52 1499.69,997.991 C1506.25,974.456 1511.65,952.257 1515.88,931.387 C1520.14,910.51 1526.87,895.469 1536.09,886.272 C1570.08,886.272 1592.76,894.583 1604.08,911.213 C1615.42,927.843 1621.08,953.495 1621.08,988.168 C1621.08,1009.04 1612.57,1037.43 1595.57,1073.34 C1578.58,1109.25 1570.08,1137.47 1570.08,1157.99 L1757.09,1157.99 C1774.81,1157.99 1790.56,1164.8 1804.37,1178.42 C1818.18,1192.05 1825.1,1207.87 1825.1,1225.92 C1825.1,1238.31 1821.29,1252.64 1813.68,1268.93 Z" style="stroke:none;fill-rule:evenodd;fill:#000000;fill-opacity:1;"/>
        </g>
    </g>
</svg>
