<?xml version="1.0"?>
<svg version="1.1" xmlns="http://www.w3.org/2000/svg" xmlns:xlink="http://www.w3.org/1999/xlink" width="1920" height="2048">
    <desc iVinci="yes" version="4.5" gridStep="20" showGrid="no" snapToGrid="no" codePlatform="0"/>
    <g id="Layer1" opacity="1">
        <g id="Shape1">
            <desc shapeID="1" type="0" basicInfo-basicType="0" basicInfo-roundedRectRadius="12" basicInfo-polygonSides="6" basicInfo-starPoints="5" bounding="rect(-960.002,-896.001,1920,1792)" text="" font-familyName="" font-pixelSize="20" font-bold="0" font-underline="0" font-alignment="1" strokeStyle="0" markerStart="0" markerEnd="0" shadowEnabled="0" shadowOffsetX="0" shadowOffsetY="2" shadowBlur="4" shadowOpacity="160" blurEnabled="0" blurRadius="4" transform="matrix(0.699967,0,0,0.708579,715.04,1112.83)" pers-center="0,0" pers-size="0,0" pers-start="0,0" pers-end="0,0" locked="0" mesh="" flag=""/>
            <path id="shapePath1" d="M458.15,1112.83 C382.554,1115.19 320.724,1145.43 272.659,1203.53 L178.864,1203.53 C140.599,1203.53 108.4,1193.96 82.2682,1174.83 C56.1364,1155.7 43.0701,1127.71 43.0701,1090.87 C43.0701,924.114 72.0019,840.738 129.866,840.738 C132.666,840.738 142.815,845.698 160.315,855.618 C177.814,865.538 200.563,875.576 228.561,885.733 C256.56,895.889 284.326,900.967 311.857,900.967 C343.123,900.967 374.154,895.534 404.953,884.67 C402.62,902.148 401.453,917.737 401.453,931.436 C401.453,997.098 420.352,1057.56 458.15,1112.83 M1207.81,1564.2 C1207.81,1620.88 1190.78,1665.64 1156.72,1698.47 C1122.65,1731.3 1077.39,1747.72 1020.92,1747.72 L409.153,1747.72 C352.689,1747.72 307.424,1731.3 273.359,1698.47 C239.294,1665.64 222.262,1620.88 222.262,1564.2 C222.262,1539.16 223.078,1514.71 224.711,1490.86 C226.345,1467 229.611,1441.26 234.511,1413.62 C239.411,1385.99 245.594,1360.36 253.06,1336.74 C260.527,1313.12 270.559,1290.1 283.159,1267.66 C295.758,1245.22 310.224,1226.09 326.557,1210.26 C342.889,1194.44 362.838,1181.8 386.404,1172.35 C409.97,1162.91 435.985,1158.18 464.45,1158.18 C469.117,1158.18 479.149,1163.26 494.549,1173.42 C509.948,1183.57 526.98,1194.91 545.646,1207.43 C564.312,1219.95 589.277,1231.28 620.543,1241.44 C651.808,1251.6 683.307,1256.67 715.038,1256.67 C746.77,1256.67 778.268,1251.6 809.534,1241.44 C840.799,1231.28 865.764,1219.95 884.43,1207.43 C903.096,1194.91 920.128,1183.57 935.528,1173.42 C950.927,1163.26 960.96,1158.18 965.626,1158.18 C994.092,1158.18 1020.11,1162.91 1043.67,1172.35 C1067.24,1181.8 1087.19,1194.44 1103.52,1210.26 C1119.85,1226.09 1134.32,1245.22 1146.92,1267.66 C1159.52,1290.1 1169.55,1313.12 1177.02,1336.74 C1184.48,1360.36 1190.67,1385.99 1195.57,1413.62 C1200.47,1441.26 1203.73,1467 1205.36,1490.86 C1207,1514.71 1207.81,1539.16 1207.81,1564.2 M491.049,659.342 C491.049,709.415 473.55,752.165 438.551,787.594 C403.553,823.023 361.322,840.738 311.857,840.738 C262.393,840.738 220.162,823.023 185.163,787.594 C150.165,752.165 132.666,709.415 132.666,659.342 C132.666,609.268 150.165,566.518 185.163,531.089 C220.162,495.66 262.393,477.945 311.857,477.945 C361.322,477.945 403.553,495.66 438.551,531.089 C473.55,566.518 491.049,609.268 491.049,659.342 M983.825,931.436 C983.825,1006.55 957.577,1070.67 905.079,1123.82 C852.582,1176.96 789.235,1203.53 715.038,1203.53 C640.842,1203.53 577.495,1176.96 524.997,1123.82 C472.5,1070.67 446.251,1006.55 446.251,931.436 C446.251,856.327 472.5,792.2 524.997,739.057 C577.495,685.913 640.842,659.342 715.038,659.342 C789.235,659.342 852.582,685.913 905.079,739.057 C957.577,792.2 983.825,856.327 983.825,931.436 M1387.01,1090.87 C1387.01,1127.71 1373.94,1155.7 1347.81,1174.83 C1321.68,1193.96 1289.48,1203.53 1251.21,1203.53 L1157.42,1203.53 C1109.35,1145.43 1047.52,1115.19 971.926,1112.83 C1009.72,1057.56 1028.62,997.098 1028.62,931.436 C1028.62,917.737 1027.46,902.148 1025.12,884.67 C1055.92,895.534 1086.95,900.967 1118.22,900.967 C1145.75,900.967 1173.52,895.889 1201.52,885.733 C1229.51,875.576 1252.26,865.538 1269.76,855.618 C1287.26,845.698 1297.41,840.738 1300.21,840.738 C1358.07,840.738 1387.01,924.114 1387.01,1090.87 M1297.41,659.342 C1297.41,709.415 1279.91,752.165 1244.91,787.594 C1209.91,823.023 1167.68,840.738 1118.22,840.738 C1068.75,840.738 1026.52,823.023 991.525,787.594 C956.527,752.165 939.027,709.415 939.027,659.342 C939.027,609.268 956.527,566.518 991.525,531.089 C1026.52,495.66 1068.75,477.945 1118.22,477.945 C1167.68,477.945 1209.91,495.66 1244.91,531.089 C1279.91,566.518 1297.41,609.268 1297.41,659.342 Z" style="stroke:none;fill-rule:evenodd;fill:#000000;fill-opacity:1;"/>
        </g>
        <g id="Shape2">
            <desc shapeID="2" type="0" basicInfo-basicType="0" basicInfo-roundedRectRadius="12" basicInfo-polygonSides="6" basicInfo-starPoints="5" bounding="rect(0,0,0,0)" text="" font-familyName="Helvetica" font-pixelSize="20" font-bold="0" font-underline="0" font-alignment="1" strokeStyle="0" markerStart="0" markerEnd="0" shadowEnabled="0" shadowOffsetX="0" shadowOffsetY="2" shadowBlur="4" shadowOpacity="160" blurEnabled="0" blurRadius="4" transform="matrix(1,0,0,1,966.237,984.23)" pers-center="0,0" pers-size="0,0" pers-start="0,0" pers-end="0,0" locked="0" mesh="" flag=""/>
            <path id="shapePath2" d="M966.237,984.23 Z" style="stroke:none;fill-rule:evenodd;fill:#ffffff;fill-opacity:1;"/>
        </g>
    </g>
    <g id="Layer2" opacity="1">
        <g id="Shape3">
            <desc shapeID="3" type="0" basicInfo-basicType="0" basicInfo-roundedRectRadius="12" basicInfo-polygonSides="6" basicInfo-starPoints="5" bounding="rect(-263.139,-339.163,526.278,678.327)" text="" font-familyName="Helvetica" font-pixelSize="20" font-bold="0" font-underline="0" font-alignment="1" strokeStyle="0" markerStart="0" markerEnd="0" shadowEnabled="0" shadowOffsetX="0" shadowOffsetY="2" shadowBlur="4" shadowOpacity="160" blurEnabled="0" blurRadius="4" transform="matrix(1,0,0,1,1435.91,1276.23)" pers-center="0,0" pers-size="0,0" pers-start="0,0" pers-end="0,0" locked="0" mesh="" flag=""/>
            <path id="shapePath3" d="M1699.05,1041.74 L1699.05,1033.77 C1672.82,1013.94 1646.97,995.821 1615.39,985.966 L1611.41,977.999 C1600.18,978.285 1590.53,972.373 1579.54,970.031 C1543.84,940.915 1491.82,934.029 1444.09,938.162 C1428.41,945.598 1408.56,945.506 1396.29,958.08 C1371.99,955.523 1360.5,975.754 1340.52,977.999 C1341.35,985.307 1332.17,988.468 1328.56,993.933 C1312.75,1003.35 1289.36,1009.36 1284.74,1029.79 C1277.44,1028.95 1274.28,1038.13 1268.81,1041.74 L1268.81,1049.71 L1248.89,1069.62 C1249.04,1080.08 1242.74,1087.87 1240.92,1097.51 C1228.6,1106.35 1218.18,1118.8 1213.04,1133.36 C1196.87,1138.84 1193.13,1160.71 1181.17,1173.2 C1167.4,1253.21 1175.2,1337.8 1173.2,1420.19 C1187.44,1450.67 1215.25,1472.74 1228.97,1503.85 C1233.87,1510.21 1243.62,1510.43 1244.91,1519.78 C1306.59,1547.97 1360.15,1591.47 1432.14,1587.5 C1450.49,1598.23 1470.61,1604.29 1491.9,1603.44 L1499.86,1611.41 L1687.1,1615.39 " style="stroke:none;fill-rule:evenodd;fill:#ffffff;fill-opacity:1;"/>
        </g>
    </g>
    <g id="Layer3" opacity="1">
        <g id="Shape4">
            <desc shapeID="4" type="0" basicInfo-basicType="0" basicInfo-roundedRectRadius="12" basicInfo-polygonSides="6" basicInfo-starPoints="5" bounding="rect(-94.481,-204.585,188.962,409.17)" text="" font-familyName="Helvetica" font-pixelSize="20" font-bold="0" font-underline="0" font-alignment="1" strokeStyle="0" markerStart="0" markerEnd="0" shadowEnabled="0" shadowOffsetX="0" shadowOffsetY="2" shadowBlur="4" shadowOpacity="160" blurEnabled="0" blurRadius="4" transform="matrix(1,0,0,1,1205.89,1360.48)" pers-center="0,0" pers-size="0,0" pers-start="0,0" pers-end="0,0" locked="0" mesh="" flag=""/>
            <path id="shapePath4" d="M1289.6,1155.89 C1291.24,1160.9 1287.51,1163.69 1284.22,1166.66 C1232.88,1192.24 1179.55,1188.67 1117.32,1188.19 C1112.47,1234.28 1104.67,1285.21 1122.71,1328.17 L1122.71,1441.23 L1117.32,1446.61 L1117.32,1478.92 L1111.94,1478.92 L1111.94,1516.6 L1117.32,1516.6 C1113.76,1532.72 1122.47,1536.58 1122.71,1548.91 L1128.09,1548.91 C1123.57,1563.89 1146.79,1554.65 1144.24,1565.06 L1268.07,1565.06 L1268.07,1559.67 L1300.37,1559.67 L1300.37,1554.29 " style="stroke:none;fill-rule:evenodd;fill:#ffffff;fill-opacity:1;"/>
        </g>
        <g id="Shape5">
            <desc shapeID="5" type="0" basicInfo-basicType="0" basicInfo-roundedRectRadius="12" basicInfo-polygonSides="6" basicInfo-starPoints="5" bounding="rect(-45.3279,-43.8472,90.6559,87.6944)" text="" font-familyName="" font-pixelSize="20" font-bold="0" font-underline="0" font-alignment="1" strokeStyle="0" markerStart="0" markerEnd="0" shadowEnabled="0" shadowOffsetX="0" shadowOffsetY="2" shadowBlur="4" shadowOpacity="160" blurEnabled="0" blurRadius="4" transform="matrix(9.16572,0,0,10.3295,1433.26,1285.68)" pers-center="0,0" pers-size="0,0" pers-start="0,0" pers-end="0,0" locked="0" mesh="" flag=""/>
            <path id="shapePath5" d="M1436.26,1733.21 C1318.9,1709.22 1284.42,1685.19 1203.14,1651.81 L1051.46,1672.83 C1026.26,1676.43 1012.15,1657.22 1019.94,1630 L1064.92,1470.89 C1038.59,1409.67 1021.04,1340.91 1023.8,1268.38 C1033.58,1011.65 1199.24,862.611 1425.73,835.154 C1647.72,808.243 1848.72,1011.66 1848.72,1268.38 C1848.72,1525.1 1660.4,1779.03 1436.26,1733.21 M1695.75,1190.52 L1560.9,1136.23 L1509.06,982.881 C1499.24,953.576 1475.56,948.008 1456.16,970.424 L1353.42,1088.41 L1217.05,1077.8 C1189.33,1075.55 1174.9,1097.44 1184.83,1126.69 L1242.58,1298.58 L1198.92,1452.98 C1190.39,1482.79 1205.84,1503.79 1233.41,1499.85 L1392.69,1477.77 L1530.8,1569.89 C1554.67,1585.92 1576.29,1573.66 1579.07,1542.5 L1593.92,1381.3 L1707.91,1249.85 C1727.4,1227.53 1721.95,1200.96 1695.75,1190.52 Z" style="stroke:none;fill-rule:evenodd;fill:#ffffff;fill-opacity:1;"/>
        </g>
        <g id="Shape6">
            <desc shapeID="6" type="0" basicInfo-basicType="0" basicInfo-roundedRectRadius="12" basicInfo-polygonSides="6" basicInfo-starPoints="5" bounding="rect(0,0,0,0)" text="" font-familyName="Helvetica" font-pixelSize="20" font-bold="0" font-underline="0" font-alignment="1" strokeStyle="0" markerStart="0" markerEnd="0" shadowEnabled="0" shadowOffsetX="0" shadowOffsetY="2" shadowBlur="4" shadowOpacity="160" blurEnabled="0" blurRadius="4" transform="matrix(1,0,0,1,-212.283,997.341)" pers-center="0,0" pers-size="0,0" pers-start="0,0" pers-end="0,0" locked="0" mesh="" flag=""/>
            <path id="shapePath6" d="M-212.283,997.341 Z" style="stroke:none;fill-rule:evenodd;fill:#ffffff;fill-opacity:1;"/>
        </g>
        <g id="Shape7">
            <desc shapeID="7" type="0" basicInfo-basicType="0" basicInfo-roundedRectRadius="12" basicInfo-polygonSides="6" basicInfo-starPoints="5" bounding="rect(-45.3279,-45,90.6559,90)" text="" font-familyName="" font-pixelSize="20" font-bold="0" font-underline="0" font-alignment="1" strokeStyle="0" markerStart="0" markerEnd="0" shadowEnabled="0" shadowOffsetX="0" shadowOffsetY="2" shadowBlur="4" shadowOpacity="160" blurEnabled="0" blurRadius="4" transform="matrix(9.16572,0,0,9.07291,1477.81,1276.95)" pers-center="0,0" pers-size="0,0" pers-start="0,0" pers-end="0,0" locked="0" mesh="" flag=""/>
            <path id="shapePath7" d="M1480.82,1685.23 C1394.3,1685.23 1314.03,1658.8 1247.69,1613.73 L1096.01,1632.2 C1070.81,1635.35 1056.7,1618.49 1064.49,1594.57 L1109.48,1454.82 C1083.14,1401.05 1068.36,1340.71 1068.36,1276.95 C1068.36,1051.45 1253.02,868.666 1480.82,868.666 C1708.61,868.666 1893.27,1051.46 1893.27,1276.95 C1893.27,1502.44 1708.61,1685.23 1480.82,1685.23 M1740.31,1208.56 L1605.45,1160.88 L1553.61,1026.18 C1543.79,1000.44 1520.11,995.55 1500.71,1015.24 L1397.98,1118.87 L1261.6,1109.55 C1233.88,1107.57 1219.46,1126.8 1229.38,1152.49 L1287.13,1303.48 L1243.47,1439.09 C1234.95,1465.27 1250.39,1483.72 1277.96,1480.26 L1437.24,1460.86 L1575.35,1541.78 C1599.23,1555.86 1620.84,1545.09 1623.63,1517.72 L1638.48,1376.13 L1752.46,1260.67 C1771.96,1241.06 1766.5,1217.73 1740.31,1208.56 Z" style="stroke:none;fill-rule:evenodd;fill:#000000;fill-opacity:1;"/>
        </g>
    </g>
</svg>
