<?xml version="1.0"?>
<svg version="1.1" xmlns="http://www.w3.org/2000/svg" xmlns:xlink="http://www.w3.org/1999/xlink" width="1792" height="1792">
    <desc iVinci="yes" version="4.5" gridStep="20" showGrid="no" snapToGrid="no" codePlatform="0"/>
    <g id="Layer1" opacity="1">
        <g id="Shape1">
            <desc shapeID="1" type="0" basicInfo-basicType="0" basicInfo-roundedRectRadius="12" basicInfo-polygonSides="6" basicInfo-starPoints="5" bounding="rect(-704,-768,1408,1536)" text="" font-familyName="" font-pixelSize="20" font-bold="0" font-underline="0" font-alignment="1" strokeStyle="0" markerStart="0" markerEnd="0" shadowEnabled="0" shadowOffsetX="0" shadowOffsetY="2" shadowBlur="4" shadowOpacity="160" blurEnabled="0" blurRadius="4" transform="matrix(0.803084,0,0,0.813575,621.014,896)" pers-center="0,0" pers-size="0,0" pers-start="0,0" pers-end="0,0" locked="0" mesh="" flag=""/>
            <path id="shapePath1" d="M1186.39,1310.11 C1186.39,1375.2 1166.84,1426.59 1127.76,1464.28 C1088.68,1501.98 1036.74,1520.83 971.962,1520.83 L270.067,1520.83 C205.285,1520.83 153.352,1501.98 114.269,1464.28 C75.1853,1426.59 55.6436,1375.2 55.6436,1310.11 C55.6436,1281.36 56.5805,1253.3 58.4543,1225.9 C60.3282,1198.51 64.0759,1168.95 69.6975,1137.23 C75.3191,1105.5 82.4131,1076.07 90.9792,1048.95 C99.5455,1021.83 111.056,995.392 125.512,969.629 C139.967,943.865 156.564,921.899 175.303,903.729 C194.042,885.559 216.93,871.05 243.967,860.203 C271.004,849.355 300.852,843.931 333.511,843.931 C338.329,843.931 349.572,849.762 367.24,861.423 C384.908,873.084 404.851,886.102 427.07,900.475 C449.288,914.848 478.199,927.865 513.803,939.526 C549.406,951.188 585.143,957.018 621.014,957.018 C656.886,957.018 692.623,951.188 728.226,939.526 C763.83,927.865 792.741,914.848 814.959,900.475 C837.178,886.102 857.121,873.084 874.789,861.423 C892.457,849.762 903.7,843.931 908.518,843.931 C941.177,843.931 971.025,849.355 998.062,860.203 C1025.1,871.05 1047.99,885.559 1066.73,903.729 C1085.46,921.899 1102.06,943.865 1116.52,969.629 C1130.97,995.392 1142.48,1021.83 1151.05,1048.95 C1159.62,1076.07 1166.71,1105.5 1172.33,1137.23 C1177.95,1168.95 1181.7,1198.51 1183.57,1225.9 C1185.45,1253.3 1186.39,1281.36 1186.39,1310.11 M929.399,583.587 C929.399,669.826 899.283,743.455 839.052,804.473 C778.82,865.491 706.141,896 621.014,896 C535.888,896 463.209,865.491 402.977,804.473 C342.746,743.455 312.63,669.826 312.63,583.587 C312.63,497.348 342.746,423.72 402.977,362.701 C463.209,301.683 535.888,271.174 621.014,271.174 C706.141,271.174 778.82,301.683 839.052,362.701 C899.283,423.72 929.399,497.348 929.399,583.587 Z" style="stroke:none;fill-rule:nonzero;fill:#000000;fill-opacity:1;"/>
        </g>
    </g>
    <g id="Layer2" opacity="1">
        <g id="Shape2">
            <desc shapeID="2" type="0" basicInfo-basicType="0" basicInfo-roundedRectRadius="12" basicInfo-polygonSides="6" basicInfo-starPoints="5" bounding="rect(-768,-832,1536,1664)" text="" font-familyName="" font-pixelSize="20" font-bold="0" font-underline="0" font-alignment="1" strokeStyle="0" markerStart="0" markerEnd="0" shadowEnabled="0" shadowOffsetX="0" shadowOffsetY="2" shadowBlur="4" shadowOpacity="160" blurEnabled="0" blurRadius="4" transform="matrix(0.49473,0,0,0.5,1336.29,1054.49)" pers-center="0,0" pers-size="0,0" pers-start="0,0" pers-end="0,0" locked="0" mesh="" flag=""/>
            <path id="shapePath2" d="M1082.99,798.49 C1082.99,789.824 1079.86,782.324 1073.59,775.99 C1067.33,769.657 1059.91,766.49 1051.33,766.49 C1042.75,766.49 1035.33,769.657 1029.07,775.99 C1022.8,782.324 1019.67,789.824 1019.67,798.49 C1019.67,807.157 1022.8,814.657 1029.07,820.99 C1035.33,827.324 1042.75,830.49 1051.33,830.49 C1059.91,830.49 1067.33,827.324 1073.59,820.99 C1079.86,814.657 1082.99,807.157 1082.99,798.49 M1652.92,1086.49 C1652.92,1074.82 1649.38,1061.32 1642.28,1045.99 C1635.19,1030.66 1626.37,1022.82 1615.82,1022.49 C1620.76,1016.82 1624.89,1008.91 1628.18,998.74 C1631.48,988.574 1633.13,979.324 1633.13,970.99 C1633.13,947.99 1624.39,928.157 1606.91,911.49 C1612.85,900.824 1615.82,889.324 1615.82,876.99 C1615.82,864.657 1612.93,852.407 1607.16,840.24 C1601.39,828.074 1593.55,819.324 1583.66,813.99 C1585.31,803.99 1586.13,794.657 1586.13,785.99 C1586.13,757.657 1578.05,736.657 1561.89,722.99 C1545.73,709.324 1523.3,702.49 1494.61,702.49 L1431.28,702.49 C1388.08,702.49 1331.68,714.657 1262.08,738.99 C1260.44,739.657 1255.65,741.407 1247.74,744.24 C1239.82,747.074 1233.97,749.157 1230.17,750.49 C1226.38,751.824 1220.61,753.74 1212.86,756.24 C1205.11,758.74 1198.84,760.574 1194.06,761.74 C1189.28,762.907 1183.83,763.99 1177.73,764.99 C1171.63,765.99 1166.44,766.49 1162.15,766.49 L1146.32,766.49 L1146.32,1086.49 L1162.15,1086.49 C1167.43,1086.49 1173.28,1087.99 1179.71,1090.99 C1186.14,1093.99 1192.74,1098.49 1199.5,1104.49 C1206.26,1110.49 1212.61,1116.41 1218.55,1122.24 C1224.49,1128.07 1231.08,1135.41 1238.34,1144.24 C1245.59,1153.07 1251.28,1160.16 1255.41,1165.49 C1259.53,1170.82 1264.72,1177.66 1270.99,1185.99 C1277.26,1194.32 1281.05,1199.32 1282.37,1200.99 C1300.51,1223.66 1313.21,1238.82 1320.46,1246.49 C1333.99,1260.82 1343.8,1279.07 1349.9,1301.24 C1356,1323.41 1361.03,1344.32 1364.99,1363.99 C1368.95,1383.66 1375.21,1397.82 1383.79,1406.49 C1415.45,1406.49 1436.56,1398.66 1447.11,1382.99 C1457.67,1367.32 1462.95,1343.16 1462.95,1310.49 C1462.95,1290.82 1455.03,1264.07 1439.2,1230.24 C1423.37,1196.41 1415.45,1169.82 1415.45,1150.49 L1589.6,1150.49 C1606.09,1150.49 1620.76,1144.07 1633.63,1131.24 C1646.49,1118.41 1652.92,1103.49 1652.92,1086.49 M1716.25,1086.99 C1716.25,1121.32 1703.71,1151.16 1678.65,1176.49 C1653.58,1201.82 1623.9,1214.49 1589.6,1214.49 L1502.52,1214.49 C1518.35,1247.49 1526.27,1279.49 1526.27,1310.49 C1526.27,1349.82 1520.5,1380.82 1508.95,1403.49 C1497.41,1426.49 1480.59,1443.41 1458.49,1454.24 C1436.39,1465.07 1411.49,1470.49 1383.79,1470.49 C1366.97,1470.49 1352.13,1464.32 1339.26,1451.99 C1328.05,1440.99 1319.14,1427.32 1312.55,1410.99 C1305.95,1394.66 1301.75,1379.57 1299.93,1365.74 C1298.12,1351.91 1295.23,1337.82 1291.27,1323.49 C1287.32,1309.16 1282.2,1298.49 1275.94,1291.49 C1260.11,1274.82 1242.46,1253.66 1223,1227.99 C1189.69,1184.32 1167.1,1158.49 1155.22,1150.49 L1019.67,1150.49 C1002.19,1150.49 987.262,1144.24 974.894,1131.74 C962.526,1119.24 956.342,1104.16 956.342,1086.49 L956.342,766.49 C956.342,748.824 962.526,733.74 974.894,721.24 C987.262,708.74 1002.19,702.49 1019.67,702.49 L1162.15,702.49 C1169.41,702.49 1192.16,695.824 1230.42,682.49 C1272.64,667.824 1309.41,656.824 1340.75,649.49 C1372.08,642.157 1405.06,638.49 1439.69,638.49 L1495.1,638.49 C1541.28,638.49 1578.63,651.657 1607.16,677.99 C1635.69,704.324 1649.79,740.324 1649.46,785.99 L1649.46,788.49 C1669.25,814.157 1679.14,843.824 1679.14,877.49 C1679.14,884.824 1678.65,891.99 1677.66,898.99 C1690.19,921.324 1696.46,945.324 1696.46,970.99 C1696.46,982.99 1694.97,994.49 1692.01,1005.49 C1708.17,1030.16 1716.25,1057.32 1716.25,1086.99 Z" style="stroke:none;fill-rule:nonzero;fill:#ffffff;fill-opacity:1;"/>
        </g>
    </g>
    <g id="Layer3" opacity="1">
        <g id="Shape3">
            <desc shapeID="3" type="0" basicInfo-basicType="0" basicInfo-roundedRectRadius="12" basicInfo-polygonSides="6" basicInfo-starPoints="5" bounding="rect(-768,-832,1536,1664)" text="" font-familyName="" font-pixelSize="20" font-bold="0" font-underline="0" font-alignment="1" strokeStyle="0" markerStart="0" markerEnd="0" shadowEnabled="0" shadowOffsetX="0" shadowOffsetY="2" shadowBlur="4" shadowOpacity="160" blurEnabled="0" blurRadius="4" transform="matrix(0.49473,0,0,0.5,1368.11,1027.22)" pers-center="0,0" pers-size="0,0" pers-start="0,0" pers-end="0,0" locked="0" mesh="" flag=""/>
            <path id="shapePath3" d="M1114.81,771.219 C1114.81,762.553 1111.68,755.053 1105.41,748.719 C1099.14,742.386 1091.72,739.219 1083.15,739.219 C1074.57,739.219 1067.15,742.386 1060.88,748.719 C1054.62,755.053 1051.48,762.553 1051.48,771.219 C1051.48,779.886 1054.62,787.386 1060.88,793.719 C1067.15,800.053 1074.57,803.219 1083.15,803.219 C1091.72,803.219 1099.14,800.053 1105.41,793.719 C1111.68,787.386 1114.81,779.886 1114.81,771.219 M1684.74,1059.22 C1684.74,1047.55 1681.19,1034.05 1674.1,1018.72 C1667.01,1003.39 1658.19,995.553 1647.63,995.219 C1652.58,989.553 1656.7,981.636 1660,971.469 C1663.3,961.303 1664.95,952.053 1664.95,943.719 C1664.95,920.719 1656.21,900.886 1638.73,884.219 C1644.66,873.553 1647.63,862.053 1647.63,849.719 C1647.63,837.386 1644.75,825.136 1638.98,812.969 C1633.2,800.803 1625.37,792.053 1615.48,786.719 C1617.12,776.719 1617.95,767.386 1617.95,758.719 C1617.95,730.386 1609.87,709.386 1593.71,695.719 C1577.55,682.053 1555.12,675.219 1526.42,675.219 L1463.1,675.219 C1419.89,675.219 1363.49,687.386 1293.9,711.719 C1292.25,712.386 1287.47,714.136 1279.55,716.969 C1271.64,719.803 1265.78,721.886 1261.99,723.219 C1258.2,724.553 1252.43,726.469 1244.68,728.969 C1236.92,731.469 1230.66,733.303 1225.88,734.469 C1221.09,735.636 1215.65,736.719 1209.55,737.719 C1203.45,738.719 1198.25,739.219 1193.97,739.219 L1178.13,739.219 L1178.13,1059.22 L1193.97,1059.22 C1199.24,1059.22 1205.1,1060.72 1211.53,1063.72 C1217.96,1066.72 1224.56,1071.22 1231.32,1077.22 C1238.08,1083.22 1244.43,1089.14 1250.36,1094.97 C1256.3,1100.8 1262.9,1108.14 1270.15,1116.97 C1277.41,1125.8 1283.1,1132.89 1287.22,1138.22 C1291.34,1143.55 1296.54,1150.39 1302.81,1158.72 C1309.07,1167.05 1312.87,1172.05 1314.18,1173.72 C1332.32,1196.39 1345.02,1211.55 1352.28,1219.22 C1365.8,1233.55 1375.61,1251.8 1381.72,1273.97 C1387.82,1296.14 1392.85,1317.05 1396.8,1336.72 C1400.76,1356.39 1407.03,1370.55 1415.6,1379.22 C1447.27,1379.22 1468.38,1371.39 1478.93,1355.72 C1489.48,1340.05 1494.76,1315.89 1494.76,1283.22 C1494.76,1263.55 1486.85,1236.8 1471.01,1202.97 C1455.18,1169.14 1447.27,1142.55 1447.27,1123.22 L1621.41,1123.22 C1637.9,1123.22 1652.58,1116.8 1665.44,1103.97 C1678.31,1091.14 1684.74,1076.22 1684.74,1059.22 M1748.06,1059.72 C1748.06,1094.05 1735.53,1123.89 1710.46,1149.22 C1685.4,1174.55 1655.71,1187.22 1621.41,1187.22 L1534.34,1187.22 C1550.17,1220.22 1558.09,1252.22 1558.09,1283.22 C1558.09,1322.55 1552.31,1353.55 1540.77,1376.22 C1529.23,1399.22 1512.41,1416.14 1490.31,1426.97 C1468.21,1437.8 1443.31,1443.22 1415.6,1443.22 C1398.78,1443.22 1383.94,1437.05 1371.08,1424.72 C1359.86,1413.72 1350.96,1400.05 1344.36,1383.72 C1337.77,1367.39 1333.56,1352.3 1331.75,1338.47 C1329.93,1324.64 1327.05,1310.55 1323.09,1296.22 C1319.13,1281.89 1314.02,1271.22 1307.75,1264.22 C1291.92,1247.55 1274.28,1226.39 1254.82,1200.72 C1221.51,1157.05 1198.91,1131.22 1187.04,1123.22 L1051.48,1123.22 C1034,1123.22 1019.08,1116.97 1006.71,1104.47 C994.342,1091.97 988.158,1076.89 988.158,1059.22 L988.158,739.219 C988.158,721.553 994.342,706.469 1006.71,693.969 C1019.08,681.469 1034,675.219 1051.48,675.219 L1193.97,675.219 C1201.22,675.219 1223.98,668.553 1262.24,655.219 C1304.46,640.553 1341.23,629.553 1372.56,622.219 C1403.9,614.886 1436.88,611.219 1471.51,611.219 L1526.92,611.219 C1573.09,611.219 1610.45,624.386 1638.98,650.719 C1667.5,677.053 1681.6,713.053 1681.27,758.719 L1681.27,761.219 C1701.06,786.886 1710.96,816.553 1710.96,850.219 C1710.96,857.553 1710.46,864.719 1709.47,871.719 C1722.01,894.053 1728.27,918.053 1728.27,943.719 C1728.27,955.719 1726.79,967.219 1723.82,978.219 C1739.98,1002.89 1748.06,1030.05 1748.06,1059.72 Z" style="stroke:none;fill-rule:nonzero;fill:#000000;fill-opacity:1;"/>
        </g>
    </g>
</svg>
