<?xml version="1.0"?>
<svg version="1.1" xmlns="http://www.w3.org/2000/svg" xmlns:xlink="http://www.w3.org/1999/xlink" width="1792" height="1792">
    <desc iVinci="yes" version="4.5" gridStep="20" showGrid="no" snapToGrid="no" codePlatform="0"/>
    <g id="Layer1" opacity="1">
        <g id="Shape1">
            <desc shapeID="1" type="0" basicInfo-basicType="0" basicInfo-roundedRectRadius="12" basicInfo-polygonSides="6" basicInfo-starPoints="5" bounding="rect(-704.003,-768.003,1408.01,1536.01)" text="" font-familyName="" font-pixelSize="20" font-bold="0" font-underline="0" font-alignment="1" strokeStyle="0" markerStart="0" markerEnd="0" shadowEnabled="0" shadowOffsetX="0" shadowOffsetY="2" shadowBlur="4" shadowOpacity="160" blurEnabled="0" blurRadius="4" transform="matrix(0.803084,0,0,0.813575,621.017,896.002)" pers-center="0,0" pers-size="0,0" pers-start="0,0" pers-end="0,0" locked="0" mesh="" flag=""/>
            <path id="shapePath1" d="M1186.39,1310.11 C1186.39,1375.2 1166.84,1426.59 1127.76,1464.28 C1088.68,1501.98 1036.74,1520.83 971.962,1520.83 L270.067,1520.83 C205.285,1520.83 153.352,1501.98 114.269,1464.28 C75.1853,1426.59 55.6436,1375.2 55.6436,1310.11 C55.6436,1281.36 56.5805,1253.3 58.4543,1225.9 C60.3282,1198.51 64.0759,1168.95 69.6974,1137.23 C75.319,1105.5 82.4131,1076.07 90.9792,1048.95 C99.5455,1021.83 111.056,995.392 125.512,969.629 C139.967,943.865 156.564,921.899 175.303,903.729 C194.042,885.559 216.93,871.05 243.967,860.203 C271.004,849.355 300.852,843.931 333.511,843.931 C338.329,843.931 349.572,849.762 367.24,861.423 C384.908,873.084 404.851,886.102 427.07,900.475 C449.288,914.848 478.199,927.865 513.803,939.526 C549.406,951.188 585.143,957.018 621.014,957.018 C656.886,957.018 692.623,951.188 728.226,939.526 C763.83,927.865 792.741,914.848 814.959,900.475 C837.178,886.102 857.121,873.084 874.789,861.423 C892.457,849.762 903.7,843.931 908.518,843.931 C941.177,843.931 971.025,849.355 998.062,860.203 C1025.1,871.05 1047.99,885.559 1066.73,903.729 C1085.46,921.899 1102.06,943.865 1116.52,969.629 C1130.97,995.392 1142.48,1021.83 1151.05,1048.95 C1159.62,1076.07 1166.71,1105.5 1172.33,1137.23 C1177.95,1168.95 1181.7,1198.51 1183.57,1225.9 C1185.45,1253.3 1186.39,1281.36 1186.39,1310.11 M929.399,583.587 C929.399,669.826 899.283,743.455 839.052,804.473 C778.82,865.491 706.141,896 621.014,896 C535.888,896 463.209,865.491 402.977,804.473 C342.746,743.455 312.63,669.826 312.63,583.587 C312.63,497.348 342.746,423.72 402.977,362.701 C463.209,301.683 535.888,271.174 621.014,271.174 C706.141,271.174 778.82,301.683 839.052,362.701 C899.283,423.72 929.399,497.348 929.399,583.587 Z" style="stroke:none;fill-rule:evenodd;fill:#000000;fill-opacity:1;"/>
        </g>
    </g>
    <g id="Layer2" opacity="1">
        <g id="Shape2">
            <desc shapeID="2" type="0" basicInfo-basicType="0" basicInfo-roundedRectRadius="12" basicInfo-polygonSides="6" basicInfo-starPoints="5" bounding="rect(-45.3279,-45.5436,90.6559,91.0872)" text="" font-familyName="" font-pixelSize="20" font-bold="0" font-underline="0" font-alignment="1" strokeStyle="0" markerStart="0" markerEnd="0" shadowEnabled="0" shadowOffsetX="0" shadowOffsetY="2" shadowBlur="4" shadowOpacity="160" blurEnabled="0" blurRadius="4" transform="matrix(9.16572,0,0,10.3295,1288.62,1005.66)" pers-center="0,0" pers-size="0,0" pers-start="0,0" pers-end="0,0" locked="0" mesh="" flag=""/>
            <path id="shapePath2" d="M1291.62,1470.71 C1174.26,1446.72 1139.78,1422.69 1058.5,1389.31 L906.82,1410.33 C881.624,1413.93 867.508,1394.72 875.299,1367.49 L920.285,1208.39 C893.952,1147.16 876.405,1078.41 879.167,1005.88 C888.944,749.147 1068.2,591.12 1291.62,541.048 C1505.71,493.067 1704.08,749.157 1704.08,1005.88 C1704.08,1262.6 1515.76,1516.52 1291.62,1470.71 M1551.12,928.013 L1416.26,873.731 L1364.42,720.379 C1354.6,691.074 1330.92,685.506 1311.52,707.922 L1208.78,825.906 L1072.41,815.297 C1044.69,813.045 1030.26,834.934 1040.19,864.187 L1097.94,1036.08 L1054.28,1190.48 C1045.75,1220.29 1061.2,1241.29 1088.77,1237.35 L1248.05,1215.27 L1386.16,1307.39 C1410.04,1323.42 1431.65,1311.16 1434.44,1280 L1449.28,1118.8 L1563.27,987.346 C1582.76,965.024 1577.31,938.456 1551.12,928.013 Z" style="stroke:none;fill-rule:evenodd;fill:#ffffff;fill-opacity:1;"/>
        </g>
        <g id="Shape3">
            <desc shapeID="3" type="0" basicInfo-basicType="0" basicInfo-roundedRectRadius="12" basicInfo-polygonSides="6" basicInfo-starPoints="5" bounding="rect(-178.057,-283.599,356.114,567.197)" text="" font-familyName="Helvetica" font-pixelSize="20" font-bold="0" font-underline="0" font-alignment="1" strokeStyle="0" markerStart="0" markerEnd="0" shadowEnabled="0" shadowOffsetX="0" shadowOffsetY="2" shadowBlur="4" shadowOpacity="160" blurEnabled="0" blurRadius="4" transform="matrix(1,0,0,1,1159.71,1049.49)" pers-center="0,0" pers-size="0,0" pers-start="0,0" pers-end="0,0" locked="0" mesh="" flag=""/>
            <path id="shapePath3" d="M1206.57,766.115 C1202.45,765.158 1199.1,767.44 1195.63,769.245 C1162.53,795.223 1115.66,774.067 1080.06,794.229 L1070.69,794.229 C1067.81,796.806 1064.58,799.24 1066,803.6 C1059.49,801.247 1059.37,809.235 1056.63,812.972 C1051.77,815.865 1039.67,821.132 1042.57,831.715 L1037.89,831.715 C1033.18,855.66 1029.39,877.709 1028.51,902 L1023.83,902 L1023.83,911.372 L1019.14,911.372 C1019.42,923.573 1007,923.095 1009.77,934.8 L1005.09,934.8 C1004.29,945.135 1001.52,954.655 995.715,962.915 C995.763,1005.44 993.969,1048.41 1000.4,1089.43 C1007.21,1092.59 1002.97,1100.33 1009.77,1103.49 C1011.87,1121.06 1013.76,1139.93 1023.83,1155.03 L1023.83,1206.57 L1019.14,1206.57 C1012.51,1230.15 997.423,1248.47 991.029,1272.17 L981.658,1272.17 L981.658,1286.23 C983.219,1287.79 984.782,1289.35 986.343,1290.91 C1034.01,1295.67 1082.59,1296.53 1131.6,1295.6 L1136.29,1300.29 L1178.46,1300.29 C1180.02,1301.85 1181.58,1303.41 1183.14,1304.97 L1201.89,1304.97 C1205.74,1313.86 1216.77,1305.45 1220.63,1314.34 L1234.69,1314.34 L1234.69,1319.03 C1246.87,1316.94 1253.15,1329.07 1262.8,1333.09 L1337.77,1333.09 " style="stroke:none;fill-rule:evenodd;fill:#ffffff;fill-opacity:1;"/>
        </g>
    </g>
    <g id="Layer3" opacity="1">
        <g id="Shape4">
            <desc shapeID="4" type="0" basicInfo-basicType="0" basicInfo-roundedRectRadius="12" basicInfo-polygonSides="6" basicInfo-starPoints="5" bounding="rect(-45.3279,-45,90.6559,90)" text="" font-familyName="" font-pixelSize="20" font-bold="0" font-underline="0" font-alignment="1" strokeStyle="0" markerStart="0" markerEnd="0" shadowEnabled="0" shadowOffsetX="0" shadowOffsetY="2" shadowBlur="4" shadowOpacity="160" blurEnabled="0" blurRadius="4" transform="matrix(9.16572,0,0,9.07291,1333.17,1014.44)" pers-center="0,0" pers-size="0,0" pers-start="0,0" pers-end="0,0" locked="0" mesh="" flag=""/>
            <path id="shapePath4" d="M1336.18,1422.73 C1249.66,1422.73 1169.39,1396.3 1103.06,1351.23 L951.373,1369.69 C926.177,1372.85 912.062,1355.99 919.853,1332.07 L964.838,1192.32 C938.505,1138.54 923.72,1078.21 923.72,1014.44 C923.72,788.947 1108.38,606.164 1336.18,606.164 C1563.97,606.164 1748.64,788.956 1748.64,1014.44 C1748.64,1239.93 1563.97,1422.73 1336.18,1422.73 M1595.67,946.053 L1460.81,898.375 L1408.97,763.678 C1399.16,737.939 1375.47,733.048 1356.08,752.737 L1253.34,856.367 L1116.96,847.049 C1089.24,845.072 1074.82,864.297 1084.74,889.992 L1142.5,1040.97 L1098.83,1176.59 C1090.31,1202.77 1105.75,1221.22 1133.32,1217.76 L1292.6,1198.36 L1430.71,1279.27 C1454.59,1293.35 1476.2,1282.59 1478.99,1255.22 L1493.84,1113.63 L1607.82,998.168 C1627.32,978.561 1621.86,955.226 1595.67,946.053 Z" style="stroke:none;fill-rule:evenodd;fill:#000000;fill-opacity:1;"/>
        </g>
    </g>
</svg>
