<?xml version="1.0"?>
<svg version="1.1" xmlns="http://www.w3.org/2000/svg" xmlns:xlink="http://www.w3.org/1999/xlink" width="100" height="100">
    <desc iVinci="yes" version="4.5" gridStep="20" showGrid="no" snapToGrid="no" codePlatform="0"/>
    <g id="Layer1" opacity="1">
        <g id="Shape1">
            <desc shapeID="1" type="0" basicInfo-basicType="0" basicInfo-roundedRectRadius="12" basicInfo-polygonSides="6" basicInfo-starPoints="5" bounding="rect(-19.767,-19.767,39.534,39.534)" text="" font-familyName="" font-pixelSize="20" font-bold="0" font-underline="0" font-alignment="1" strokeStyle="0" markerStart="0" markerEnd="0" shadowEnabled="0" shadowOffsetX="0" shadowOffsetY="2" shadowBlur="4" shadowOpacity="160" blurEnabled="0" blurRadius="4" transform="matrix(1.08686,0,0,1.09018,49.7547,36.0133)" pers-center="0,0" pers-size="0,0" pers-start="0,0" pers-end="0,0" locked="0" mesh="" flag=""/>
            <path id="shapePath1" d="M49.7536,14.4636 C37.9079,14.4636 28.2708,24.1314 28.2708,36.0122 C28.2708,47.8941 37.9069,57.5629 49.7536,57.5629 C61.5992,57.5629 71.2385,47.8952 71.2385,36.0122 C71.2385,24.1314 61.5981,14.4636 49.7536,14.4636 Z" style="stroke:none;fill-rule:nonzero;fill:#ffffff;fill-opacity:1;"/>
        </g>
        <g id="Shape2">
            <desc shapeID="2" type="0" basicInfo-basicType="0" basicInfo-roundedRectRadius="12" basicInfo-polygonSides="6" basicInfo-starPoints="5" bounding="rect(-31.2917,-44.1602,62.5835,88.3203)" text="" font-familyName="" font-pixelSize="20" font-bold="0" font-underline="0" font-alignment="1" strokeStyle="0" markerStart="0" markerEnd="0" shadowEnabled="0" shadowOffsetX="0" shadowOffsetY="2" shadowBlur="4" shadowOpacity="160" blurEnabled="0" blurRadius="4" transform="matrix(1.08686,0,0,1.09018,49.755,49.8868)" pers-center="0,0" pers-size="0,0" pers-start="0,0" pers-end="0,0" locked="0" mesh="" flag=""/>
            <path id="shapePath2" d="M74.0405,61.2368 C76.9228,59.5983 78.1716,56.1871 77.2032,53.1422 C79.5954,52.0618 81.2659,49.6536 81.2659,46.8508 C81.2659,45.294 80.7442,43.8604 79.8758,42.707 C82.1745,41.5885 83.7645,39.2315 83.7645,36.4984 C83.7645,34.1054 82.5505,31.997 80.7061,30.7597 C81.7506,29.5474 82.3897,27.9732 82.3897,26.2441 C82.3897,22.6258 79.6128,19.6627 76.0783,19.3695 C76.3968,18.578 76.575,17.7157 76.575,16.8097 C76.575,12.9973 73.4927,9.90777 69.693,9.90777 C68.7464,9.90777 67.8421,10.0996 67.0248,10.4474 C66.8248,6.81384 63.8316,3.92812 60.1624,3.92812 C58.668,3.92812 57.2898,4.41216 56.1606,5.22326 C54.4586,2.23071 50.7589,0.915947 47.5157,2.2874 C46.0854,2.89354 44.9714,3.93031 44.2476,5.18074 C42.3293,3.49096 39.5447,2.93715 37.0341,3.99899 C34.8365,4.92891 33.3703,6.87161 32.9508,9.05852 C31.4314,8.56031 29.7359,8.5832 28.1502,9.25475 C24.8266,10.6611 23.1832,14.3786 24.2864,17.756 C23.4354,17.7723 22.5746,17.9413 21.7431,18.2935 C18.2402,19.7761 16.6001,23.8229 18.0772,27.3354 C18.4435,28.2097 18.9706,28.9685 19.6075,29.5921 C16.3502,31.1881 14.8601,35.0746 16.2871,38.4684 C16.6599,39.3558 17.1979,40.1243 17.85,40.7545 C16.1284,43.2292 16.1741,46.6393 18.1783,49.0813 C19.1662,50.2837 20.4748,51.0589 21.8757,51.3968 C20.8095,53.7255 21.0758,56.5588 22.8072,58.6694 C23.781,59.8588 25.0667,60.6252 26.446,60.9697 L16.1708,89.0092 L31.3759,84.5602 L40.6338,98.0294 L49.6895,73.3149 L58.7473,98.0294 L68.003,84.5602 L83.2081,89.0092 L73.1818,61.6445 C73.4709,61.5268 73.76,61.3971 74.0405,61.2368 M49.7536,61.2412 C35.8842,61.2412 24.6005,49.924 24.6005,36.0122 C24.6005,22.1004 35.8842,10.7832 49.7536,10.7832 C63.6262,10.7832 74.9067,22.1004 74.9067,36.0122 C74.9067,49.924 63.6262,61.2412 49.7536,61.2412 Z" style="stroke:none;fill-rule:nonzero;fill:#ffffff;fill-opacity:1;"/>
        </g>
        <g id="Shape3">
            <desc shapeID="3" type="0" basicInfo-basicType="0" basicInfo-roundedRectRadius="12" basicInfo-polygonSides="6" basicInfo-starPoints="5" bounding="rect(-45,-44.985,90,89.97)" text="" font-familyName="" font-pixelSize="20" font-bold="0" font-underline="0" font-alignment="1" strokeStyle="0" markerStart="0" markerEnd="0" shadowEnabled="0" shadowOffsetX="0" shadowOffsetY="2" shadowBlur="4" shadowOpacity="160" blurEnabled="0" blurRadius="4" transform="matrix(1.08686,0,0,1.09018,49.7536,49.8869)" pers-center="0,0" pers-size="0,0" pers-start="0,0" pers-end="0,0" locked="0" mesh="" flag=""/>
            <path id="shapePath3" d="M0.845085,0.845085 L98.6621,0.845085 L98.6621,98.9288 L0.845085,98.9288 L0.845085,0.845085 Z" style="stroke:none;fill:none;"/>
        </g>
    </g>
</svg>
