<svg xmlns="http://www.w3.org/2000/svg" xmlns:xlink="http://www.w3.org/1999/xlink" version="1.1" id="Layer_1" x="0px" y="0px" width="100px" height="100px" viewBox="0 0 100 100" enable-background="new 0 0 100 100" xml:space="preserve">
<path d="M88.921,53.438c-0.017-0.018-0.023-0.041-0.041-0.058c-0.212-0.2-0.433-0.39-0.66-0.569c0.494-0.635,0.906-1.33,1.231-2.082  c2.103-4.884-0.158-10.569-5.044-12.676c-0.07-0.03-0.142-0.06-0.214-0.089c0.006-0.024,0.008-0.048,0.014-0.073  c0.012-0.052,0.03-0.104,0.041-0.156c0.01-0.047,0.01-0.094,0.015-0.141c0.846-4.353-1.414-8.882-5.637-10.701  c-2.998-1.294-6.536-0.897-9.207,0.896c0-0.022,0.005-0.043,0.004-0.065c-0.289-6.619-3.897-10.865-9.652-11.359  c-1.895-0.164-3.798,0.392-5.51,1.575c-1.771-2.8-4.896-4.58-8.28-4.58c-4.028,0-7.648,2.508-9.108,6.203  c-3.493,0.807-6.022,3.918-6.022,7.593c0,0.265,0.022,0.546,0.058,0.851c-2.725-2.002-6.375-2.475-9.535-1.113  c-4.219,1.817-6.479,6.341-5.639,10.691c0.005,0.051,0.006,0.102,0.017,0.153c0.012,0.056,0.031,0.109,0.043,0.165  c0.005,0.021,0.007,0.041,0.012,0.062c-0.073,0.029-0.145,0.059-0.217,0.09c-4.884,2.105-7.145,7.792-5.04,12.675  c0.323,0.75,0.735,1.446,1.231,2.082c-0.229,0.18-0.45,0.369-0.662,0.57c-0.018,0.017-0.024,0.04-0.041,0.059  c-2.827,2.716-3.809,6.995-2.184,10.765c1.612,3.741,5.39,6.031,9.399,5.805c12.125,15.982,30.51,16.612,31.297,16.632  c0.012,0,0.024,0,0.036,0c0.128,0,0.25-0.021,0.368-0.053c0.123,0.033,0.25,0.053,0.379,0.053c0.012,0,0.023,0,0.036,0  c0.787-0.02,19.171-0.649,31.296-16.632c4.032,0.222,7.805-2.104,9.399-5.805C92.731,60.434,91.749,56.154,88.921,53.438z   M38.129,22.313c0.593-0.063,1.088-0.479,1.252-1.052c0.839-2.93,3.553-4.976,6.599-4.976c2.845,0,5.428,1.795,6.428,4.468  c0.174,0.465,0.572,0.81,1.058,0.917c0.48,0.103,0.99-0.041,1.343-0.391c0.832-0.826,2.56-2.18,4.712-1.999  c5.167,0.444,6.533,4.717,6.878,7.425c-1.085-0.408-2.217-0.626-3.375-0.626c-3.856,0-7.335,2.288-8.862,5.83  c-1.653,3.835-0.587,8.299,2.449,11.013c-0.367,0.527-0.681,1.088-0.935,1.679c-0.441,1.021-0.698,2.109-0.765,3.216  c-0.254-0.02-0.508-0.03-0.763-0.03c-1.479,0-2.898,0.342-4.177,0.956c-1.528-0.721-3.21-1.053-4.885-0.923  c-0.066-1.107-0.323-2.195-0.764-3.218c-0.255-0.591-0.568-1.153-0.936-1.68c3.036-2.712,4.101-7.176,2.448-11.012  c-1.02-2.366-2.899-4.193-5.293-5.146c-2.173-0.863-4.53-0.903-6.717-0.143C34.074,24.367,35.829,22.556,38.129,22.313z   M20.155,67.608c-0.322-0.442-0.859-0.665-1.403-0.586c-3.014,0.463-5.965-1.177-7.171-3.977c-1.168-2.711-0.398-5.798,1.723-7.677  c0.178-0.158,0.365-0.305,0.559-0.443c0.103-0.072,0.202-0.147,0.31-0.215c0.294-0.185,0.598-0.355,0.92-0.495  c0.918-0.396,1.89-0.568,2.886-0.547c0.817,0.05,1.484-0.605,1.511-1.413c0.027-0.808-0.605-1.484-1.413-1.511  c-1.274-0.045-2.507,0.174-3.688,0.617c-0.478-0.534-0.866-1.131-1.151-1.792c-1.466-3.402,0.108-7.364,3.509-8.83  c0.052-0.022,0.116-0.033,0.169-0.054c0.46,0.773,1.017,1.48,1.678,2.1c0.282,0.264,0.642,0.395,1,0.395  c0.391,0,0.78-0.155,1.068-0.463c0.552-0.59,0.522-1.516-0.068-2.068c-0.675-0.632-1.204-1.386-1.574-2.244  c-0.006-0.013-0.009-0.027-0.015-0.04c-0.001-0.004-0.002-0.009-0.004-0.014c-1.425-3.386,0.159-7.321,3.531-8.774  c2.148-0.925,4.617-0.627,6.5,0.684c-0.581,0.847-1.034,1.79-1.325,2.806c-0.223,0.777,0.226,1.587,1.002,1.81  c0.135,0.039,0.271,0.057,0.404,0.057c0.636,0,1.222-0.418,1.406-1.06c0.329-1.148,0.952-2.161,1.783-2.968  c0.075-0.072,0.149-0.146,0.227-0.214c0.108-0.095,0.221-0.185,0.335-0.273c0.07-0.055,0.139-0.111,0.211-0.163  c0.137-0.098,0.281-0.188,0.426-0.275c0.058-0.035,0.113-0.074,0.172-0.107c0.208-0.118,0.423-0.226,0.646-0.322  c0,0,0.001,0,0.001-0.001c1.648-0.71,3.474-0.737,5.142-0.073c1.667,0.663,2.978,1.936,3.688,3.584  c1.306,3.031,0.173,6.626-2.635,8.362c-0.379,0.234-0.631,0.628-0.684,1.07s0.099,0.885,0.412,1.202  c0.597,0.604,1.065,1.296,1.394,2.058c0.375,0.87,0.553,1.81,0.536,2.759c-0.046,0.019-0.093,0.032-0.139,0.052  c-1.295,0.558-2.427,1.371-3.365,2.418c-0.539,0.602-0.488,1.527,0.114,2.066c0.279,0.25,0.628,0.373,0.976,0.373  c0.401,0,0.801-0.164,1.09-0.486c0.652-0.729,1.44-1.295,2.342-1.683c0.262-0.112,0.532-0.202,0.804-0.282  c1.025-0.295,2.101-0.33,3.134-0.13c-0.75,0.8-1.387,1.719-1.837,2.764c-2.105,4.885,0.156,10.571,5.046,12.679  c0.021,0.009,0.041,0.018,0.062,0.026c1.34,3.836,2.098,9.714-0.886,17.13c-0.024-0.018-0.044-0.039-0.07-0.055  c-8.685-5.43-13.647-12.188-16.452-18.578l4.115-5.095c0.507-0.629,0.41-1.55-0.219-2.057c-0.628-0.508-1.549-0.411-2.057,0.219  l-3.062,3.792c-0.763-2.229-1.279-4.369-1.626-6.353c0.002-0.003,0.006-0.005,0.008-0.008l4.475-5.541  c0.507-0.628,0.41-1.549-0.219-2.057c-0.628-0.507-1.55-0.41-2.057,0.219l-2.716,3.363c-0.335-4.262,0.076-7.175,0.128-7.514  c0.123-0.798-0.424-1.545-1.222-1.669c-0.799-0.123-1.545,0.421-1.669,1.219c-0.015,0.096-0.515,3.597-0.009,8.755l-2.963-1.158  c-0.755-0.295-1.602,0.078-1.895,0.831c-0.294,0.753,0.078,1.601,0.831,1.895l4.47,1.745c0.389,2.297,0.992,4.801,1.895,7.407  l-3.932-0.72c-0.795-0.139-1.557,0.382-1.702,1.176c-0.146,0.795,0.381,1.558,1.176,1.703l5.707,1.044  c2.48,5.687,6.51,11.622,13.021,16.752C37.15,81.259,27.294,77.419,20.155,67.608z M88.418,63.046  c-1.061,2.462-3.481,4.053-6.167,4.053c-0.335,0-0.673-0.026-1.004-0.076c-0.542-0.079-1.081,0.146-1.402,0.586  c-7.116,9.778-16.97,13.624-23.293,15.135c6.499-5.127,10.524-11.056,13.002-16.736l5.708-1.044c0.794-0.146,1.32-0.908,1.176-1.703  c-0.146-0.795-0.906-1.314-1.703-1.176l-3.932,0.719c0.902-2.605,1.506-5.109,1.895-7.406l4.47-1.745  c0.753-0.294,1.124-1.142,0.83-1.895c-0.295-0.754-1.146-1.124-1.895-0.831l-2.963,1.157c0.506-5.157,0.006-8.658-0.009-8.754  c-0.126-0.798-0.868-1.347-1.672-1.219c-0.798,0.125-1.344,0.873-1.219,1.671c0.014,0.085,0.437,3.026,0.067,7.439l-2.656-3.29  c-0.508-0.628-1.428-0.726-2.057-0.219c-0.629,0.508-0.727,1.429-0.219,2.057l4.411,5.461c-0.351,1.979-0.874,4.122-1.63,6.348  l-2.988-3.7c-0.508-0.63-1.428-0.727-2.057-0.219c-0.629,0.507-0.727,1.428-0.219,2.057l4.048,5.012  c-2.489,5.73-6.687,11.746-13.664,16.812c2.169-7.287,1.092-13.092-0.373-16.892c-0.157-0.407-0.488-0.724-0.902-0.861  c-0.174-0.058-0.349-0.118-0.513-0.188c-3.402-1.467-4.978-5.429-3.511-8.831c0.55-1.277,1.471-2.313,2.599-3.021  c0.122-0.049,0.237-0.11,0.342-0.191c0.972-0.533,2.073-0.844,3.23-0.844c0.636,0,1.269,0.091,1.881,0.271  c0.264,0.078,0.524,0.166,0.778,0.274c0.902,0.389,1.69,0.955,2.342,1.683c0.289,0.323,0.688,0.487,1.091,0.487  c0.347,0,0.695-0.123,0.975-0.373c0.603-0.539,0.653-1.464,0.114-2.065c-0.937-1.047-2.069-1.86-3.365-2.418  c-0.046-0.02-0.094-0.033-0.139-0.052c-0.017-0.95,0.162-1.89,0.537-2.759c0.328-0.761,0.797-1.454,1.394-2.059  c0.313-0.317,0.464-0.759,0.41-1.202c-0.053-0.442-0.304-0.836-0.683-1.07c-2.809-1.737-3.941-5.332-2.635-8.362  c1.063-2.468,3.487-4.062,6.175-4.062c0.913,0,1.806,0.185,2.654,0.55c0.001,0,0.001,0,0.002,0.001  c0.224,0.096,0.438,0.205,0.647,0.323c0.056,0.031,0.107,0.067,0.162,0.1c0.148,0.089,0.295,0.181,0.436,0.281  c0.072,0.051,0.14,0.108,0.21,0.162c0.113,0.088,0.226,0.177,0.333,0.271c0.082,0.072,0.16,0.149,0.239,0.226  c0.826,0.806,1.445,1.814,1.772,2.958c0.184,0.642,0.77,1.061,1.405,1.061c0.134,0,0.27-0.019,0.404-0.057  c0.776-0.223,1.226-1.033,1.003-1.809c-0.291-1.015-0.742-1.957-1.322-2.803c1.873-1.29,4.37-1.605,6.497-0.688  c3.373,1.452,4.957,5.388,3.531,8.773c-0.001,0.001-0.001,0.003-0.001,0.005c-0.008,0.017-0.013,0.034-0.02,0.051  c-0.368,0.855-0.897,1.61-1.572,2.242c-0.59,0.552-0.62,1.478-0.068,2.068c0.288,0.308,0.678,0.463,1.068,0.463  c0.358,0,0.718-0.131,1-0.395c0.665-0.623,1.223-1.333,1.683-2.108c0.054,0.021,0.112,0.039,0.164,0.061  c3.401,1.467,4.976,5.428,3.512,8.829c-0.286,0.662-0.676,1.26-1.153,1.792c-1.185-0.443-2.425-0.663-3.688-0.616  c-0.808,0.027-1.44,0.703-1.413,1.511s0.728,1.463,1.511,1.413c0.991-0.021,1.968,0.151,2.888,0.548  c0.324,0.14,0.629,0.312,0.924,0.498c0.104,0.065,0.202,0.139,0.302,0.21c0.195,0.139,0.384,0.287,0.564,0.446  C88.818,57.25,89.587,60.336,88.418,63.046z"/>
</svg>