<svg xmlns="http://www.w3.org/2000/svg" xmlns:xlink="http://www.w3.org/1999/xlink" version="1.1" id="Your_Icon" x="0px" y="0px" width="100px" height="100px" viewBox="0 0 100 100" enable-background="new 0 0 100 100" xml:space="preserve">
<g>
	<path d="M51.56,73.607c0.056-0.527,0.105-1.053,0.162-1.579c3.412,0.371,6.812,0.772,10.224,1.104   c1.725,0.175,3.493,0.471,5.193,0.29c2.59-0.274,4.471-2.359,4.675-4.717c0.225-2.642-1.25-4.128-3.585-4.737   c-1.869-0.493-3.817-0.724-5.741-0.929c-7.977-0.856-15.953-1.74-23.941-2.422c-2.335-0.203-5.112-0.504-7.024,0.502   c-7.509,3.95-14.769,8.368-22.079,12.695c-1.937,1.143-3.369,2.774-3.35,5.265c0.025,3.933-0.236,7.883,0.081,11.791   c0.336,4.131,3.705,6.085,7.521,4.485c2.392-1.006,4.621-2.45,6.825-3.848c5.255-3.345,10.69-5.294,17.198-4.97   c10.024,0.498,20.093,0.007,30.143,0.188c4.365,0.081,8.051-0.784,11.352-3.888c3.636-3.419,7.69-6.387,11.525-9.599   c2.341-1.961,2.926-5.533,1.345-7.576c-1.37-1.765-4.895-2.095-7.185-0.432c-1.577,1.148-2.939,2.608-4.327,3.997   c-4.958,4.964-10.437,8.126-17.935,6.945C58.819,75.575,55.021,75.345,51.56,73.607z"/>
	<path fill-rule="evenodd" clip-rule="evenodd" d="M51.56,73.607c3.461,1.737,7.26,1.968,11.076,2.567   c7.498,1.181,12.977-1.981,17.935-6.945c1.388-1.389,2.75-2.849,4.327-3.997c2.29-1.663,5.814-1.333,7.185,0.432   c1.581,2.043,0.996,5.615-1.345,7.576c-3.835,3.212-7.89,6.18-11.525,9.599c-3.301,3.104-6.986,3.969-11.352,3.888   c-10.05-0.181-20.118,0.311-30.143-0.188c-6.507-0.324-11.942,1.625-17.198,4.97c-2.204,1.397-4.433,2.842-6.825,3.848   c-3.816,1.6-7.185-0.354-7.521-4.485c-0.317-3.908-0.056-7.858-0.081-11.791c-0.019-2.49,1.414-4.122,3.35-5.265   c7.31-4.327,14.57-8.745,22.079-12.695c1.912-1.006,4.688-0.705,7.024-0.502c7.989,0.682,15.965,1.565,23.941,2.422   c1.924,0.205,3.872,0.436,5.741,0.929c2.335,0.609,3.81,2.096,3.585,4.737c-0.204,2.357-2.085,4.442-4.675,4.717   c-1.7,0.181-3.469-0.115-5.193-0.29c-3.412-0.332-6.812-0.733-10.224-1.104C51.665,72.555,51.615,73.08,51.56,73.607z"/>
</g>
<path fill-rule="evenodd" clip-rule="evenodd" d="M63.035,45.22c-0.498-5.58,1.693-10.361,6.475-12.853  c-4.227-1.784-6.574-10.271-5.18-15.042c0.367-1.25,1.594-8.668,9.85-13.724c6.265,7.055,6.988,12.03,6.688,17.708  c-0.379,7.289-5.866,10.539-8.199,11.774c-4.608,2.441-7.293,5.953-6.888,10.268c0.062,0.642,0.192,1.276,0.342,2.267  c0,0,7.609-0.296,13.449,6.081c6.726,7.338,1.862,16.47-6.773,20.319c1.395-1.395,1.862-4.414,1.588-5.379  c-0.842-2.955-2.714-5.081-5.773-5.554c-4.283-0.66-8.623-0.946-12.938-1.408c-4.931-0.528-9.857-1.07-15.024-1.637  c-0.23-5.156,3.493-8.167,6.445-10.13c2.876-1.913,6.326-2.88,9.894-3.04c1.562-1.843-1.488-4.859-3.45-6.27  c-9.103-6.547-9.495-16.382-0.734-24.539c11.726,8.842,8.2,20.212,3.892,24.116C61.242,42.23,59.548,44.921,63.035,45.22z"/>
</svg>