<svg xmlns="http://www.w3.org/2000/svg" xmlns:xlink="http://www.w3.org/1999/xlink" version="1.1" id="Layer_1" x="0px" y="0px" width="96px" height="96px" viewBox="0 0 96 96" enable-background="new 0 0 96 96" xml:space="preserve">
<path d="M68,44h12v8H68V44z"/>
<path d="M48,0C21.532,0,0,21.532,0,48s21.532,48,48,48s48-21.532,48-48S74.468,0,48,0z M24.584,25.416  c-0.78-0.776-0.78-2.048,0-2.828c0.78-0.776,2.048-0.776,2.828,0c2.048,2.052,1.292,5.448,0.624,8.448  c-0.268,1.216-0.72,3.24-0.516,3.788c0.78,0.78,0.724,1.972-0.056,2.752c-0.372,0.368-0.864,0.548-1.364,0.548  c-0.552,0-1.108-0.22-1.52-0.624c-1.7-1.708-1.092-4.436-0.448-7.332C24.416,28.9,25.08,25.908,24.584,25.416z M16.584,25.416  c-0.78-0.776-0.78-2.048,0-2.828c0.78-0.776,2.048-0.776,2.828,0c2.048,2.052,1.292,5.448,0.624,8.448  c-0.268,1.216-0.72,3.24-0.516,3.788c0.78,0.78,0.724,1.972-0.056,2.752c-0.372,0.368-0.864,0.548-1.364,0.548  c-0.552,0-1.108-0.22-1.52-0.624c-1.7-1.708-1.092-4.436-0.448-7.332C16.416,28.9,17.08,25.908,16.584,25.416z M82,56H14  c-1.104,0-2-0.9-2-2V42c0-1.1,0.896-2,2-2h68c1.1,0,2,0.9,2,2v12C84,55.1,83.1,56,82,56z"/>
<path d="M16,44h48v8H16V44z"/>
</svg>