<svg xmlns="http://www.w3.org/2000/svg" xmlns:xlink="http://www.w3.org/1999/xlink" version="1.1" id="Layer_1" x="0px" y="0px" width="100px" height="100px" viewBox="0 0 100 100" enable-background="new 0 0 100 100" xml:space="preserve">
<path d="M81.642,30.847c2.621-2.177,0.344-7.347-2.881-11.229v0c-2.266-2.723-5.405-4.086-7.452-4.728l0.727-3.586  c0.16-0.792-0.352-1.564-1.144-1.724c-0.783-0.159-1.563,0.351-1.724,1.143l-0.693,3.424c-2.138-0.2-6.257-0.292-9.579,1.412  c-4.488,2.305-8.611,6.166-7.057,9.197c0.08,0.155,0.188,0.329,0.334,0.506c-1.024,1.697-1.124,3.237-1.124,4.888l0.002,4.834  c-0.13,9.502-11.966,13.986-19.039,16.665c-0.653,0.248-1.26,0.478-1.808,0.693c-0.834,0.327-1.625,0.639-2.354,0.947  c-12.263,5.216-11.344,14.543-9.586,21.105c3.178,11.838,12.223,16.055,19.629,16.055c0.001,0,0.003,0,0.005,0  c0.679,0,1.364-0.035,2.037-0.104c13.877-1.427,24.599-6.938,31.866-16.381c12.786-16.617,10.09-39.773,9.643-42.968  C81.518,30.946,81.583,30.896,81.642,30.847z M69.483,72.18c-6.759,8.781-16.801,13.914-29.846,15.256  c-0.573,0.059-1.158,0.088-1.739,0.088c-0.001,0-0.002,0-0.004,0c-3.073,0-13.346-1.004-16.804-13.887  c-1.7-6.345-2.09-13.404,7.903-17.654c0.705-0.299,1.471-0.601,2.281-0.918c0.538-0.211,1.134-0.437,1.775-0.68  c7.259-2.75,20.771-7.868,20.928-19.381l-0.002-4.854c0-1.528,0.095-2.489,0.848-3.606c0.551,0.068,1.197,0.074,1.949-0.004  c1.674-0.175,3.609-0.742,5.549-1.619c-0.577,4.421,0.099,8.852,3.034,9.462c2.943,0.601,5.334-3.215,6.562-7.521  c1.446,1.579,3.013,2.87,4.491,3.691c0.812,0.451,1.522,0.72,2.142,0.859C78.963,34.355,81.581,56.457,69.483,72.18z M79.782,28.59  c-0.573,0.284-3.424-0.916-6.4-4.498c-0.361-0.436-0.689-0.917-1.004-1.473c-0.317-0.561-0.962-0.848-1.595-0.707  c-0.63,0.142-1.092,0.68-1.138,1.323c-0.035,0.485-0.091,0.913-0.169,1.299c-0.948,4.567-2.912,6.963-3.515,6.986  c-0.57-0.267-1.419-3.248-0.472-7.812c0.078-0.376,0.192-0.776,0.35-1.222c0.215-0.61,0.004-1.289-0.519-1.669  c-0.257-0.187-0.56-0.28-0.861-0.28c-0.313,0-0.625,0.1-0.887,0.299c-0.5,0.381-0.985,0.691-1.482,0.946  c-3.402,1.746-6.102,2.045-7.176,1.843c-0.132-0.07-0.271-0.118-0.413-0.145c-0.021-0.016-0.04-0.032-0.055-0.049  c-0.149-0.611,1.638-3.142,5.784-5.271c2.745-1.408,6.635-1.282,8.522-1.046c0.163,0.124,0.353,0.213,0.558,0.26  c1.095,0.251,4.85,1.289,7.199,4.113C79.49,25.075,80.141,28.103,79.782,28.59z"/>
</svg>