<svg xmlns="http://www.w3.org/2000/svg" xmlns:xlink="http://www.w3.org/1999/xlink" version="1.1" id="Layer_1" x="0px" y="0px" width="100px" height="100px" viewBox="0 0 100 100" enable-background="new 0 0 100 100" xml:space="preserve">
<path d="M63.09,56.27c0-10.761-8.55-19.516-19.06-19.516s-19.06,8.755-19.06,19.516c0,10.813,8.55,19.61,19.06,19.61  S63.09,67.083,63.09,56.27z M44.03,72.847c-8.837,0-16.026-7.437-16.026-16.577c0-9.088,7.189-16.483,16.026-16.483  s16.026,7.395,16.026,16.483C60.057,65.41,52.867,72.847,44.03,72.847z"/>
<path d="M55.274,29.974h-0.499c0.825-0.584,1.65-1.269,2.443-2.062c3.113-3.113,5.448-7.48,3.22-9.709  c-0.395-0.394-1.107-0.864-2.269-0.864c-2.073,0-4.926,1.563-7.441,4.08c-0.41,0.41-0.794,0.832-1.155,1.26v-0.993  c0-0.808-0.655-1.463-1.463-1.463s-1.463,0.655-1.463,1.463v8.206c0,0.028,0.007,0.055,0.008,0.083h-1.055  c-0.52-0.032-1.042-0.054-1.569-0.054c-14.172,0-25.702,11.812-25.702,26.332c0,14.591,11.53,26.462,25.702,26.462  c0.526,0,1.047-0.021,1.565-0.054h9.677c14.525,0,26.342-11.817,26.342-26.344C81.616,41.791,69.8,29.974,55.274,29.974z   M52.797,23.488c2.116-2.116,4.305-3.223,5.373-3.223c0.104,0,0.171,0.011,0.188,0.007c0.176,0.517-0.508,2.872-3.207,5.571  c-2.116,2.116-4.305,3.223-5.373,3.223c-0.087,0-0.146-0.008-0.174-0.008c-0.006,0-0.011,0-0.014,0.001  c-0.015-0.044-0.014-0.119-0.016-0.189v-0.133C49.645,27.878,50.469,25.815,52.797,23.488z M21.363,56.252  c0-12.847,10.169-23.298,22.669-23.298c12.498,0,22.667,10.452,22.667,23.298c0,12.919-10.169,23.429-22.667,23.429  C31.533,79.681,21.363,69.171,21.363,56.252z M55.887,79.719c8.219-4.42,13.846-13.277,13.846-23.467  c0-10.128-5.613-18.933-13.815-23.336c12.615,0.342,22.773,10.704,22.773,23.4C78.69,69.024,68.516,79.393,55.887,79.719z"/>
<circle cx="74.544" cy="57.311" r="1.499"/>
<path d="M71.022,66.505c-0.828,0-1.502,0.673-1.502,1.499c0,0.827,0.674,1.5,1.502,1.5c0.826,0,1.498-0.673,1.498-1.5  C72.521,67.178,71.849,66.505,71.022,66.505z"/>
<circle cx="66.974" cy="72.78" r="1.5"/>
<circle cx="73.021" cy="62.741" r="1.499"/>
<circle cx="70.546" cy="46.98" r="1.5"/>
<circle cx="72.545" cy="51.84" r="1.499"/>
<path d="M54.866,54.863h-7.355l5.146-5.252c0.565-0.577,0.556-1.503-0.021-2.069c-0.576-0.564-1.503-0.557-2.068,0.021l-5.074,5.18  v-7.251c0-0.808-0.655-1.463-1.463-1.463s-1.463,0.655-1.463,1.463v7.251l-5.074-5.18c-0.565-0.577-1.492-0.586-2.069-0.021  s-0.586,1.492-0.021,2.069l5.146,5.252h-7.353c-0.808,0-1.463,0.655-1.463,1.463s0.655,1.463,1.463,1.463h7.354l-5.146,5.254  c-0.565,0.577-0.556,1.503,0.021,2.068c0.285,0.279,0.654,0.418,1.024,0.418c0.379,0,0.759-0.146,1.045-0.439l5.074-5.18v7.252  c0,0.808,0.655,1.463,1.463,1.463s1.463-0.655,1.463-1.463V59.91l5.074,5.18c0.286,0.293,0.666,0.439,1.045,0.439  c0.369,0,0.739-0.139,1.023-0.418c0.577-0.565,0.587-1.491,0.021-2.068l-5.146-5.254h7.355c0.808,0,1.463-0.655,1.463-1.463  S55.674,54.863,54.866,54.863z"/>
</svg>