<?xml version="1.0"?>
<svg width="580" height="580" xmlns="http://www.w3.org/2000/svg" xmlns:svg="http://www.w3.org/2000/svg">

 <metadata>image/svg+xmlOpen Clip Art LibraryHalal2012-05-03T23:45:10Halalhttp://openclipart.org/detail/169827/halal-by-dasnolojydasnolojyclip artcliparthalallogosign</metadata>
 <g>
  <title>Layer 1</title>
  <path stroke="null" fill="#000000" id="path3441" d="m289.287445,20.881945l-270.000025,270.000013l270.000025,269.999939l269.999969,-269.999939l-269.999969,-270.000013zm-189.906273,80.093748l0,103.4375l35.937492,-35.90625c0.976776,-14.504883 -1.105957,-28.069855 -8.75,-40.3125c12.528351,7.616608 26.325516,9.374512 41.03125,8l35.218765,-35.21875l-103.437508,0zm276.374992,0l35.4375,35.4375c14.540771,1.324371 28.241547,-0.507965 40.75,-8.21875c-7.801605,12.234406 -9.705078,25.870667 -8.437469,40.5l35.687469,35.71875l0,-103.4375l-103.4375,0zm-86.468719,13.3125c32.433716,34.426544 73.132599,16.941132 72.812469,72.8125l31,0l0,30.96875c56.768341,0.191528 39.303864,45.387802 72.78125,72.812515c-33.245209,30.814453 -15.72403,72.70929 -72.78125,72.78125l0,31l-31,0c-0.42099,55.849304 -40.86557,37.086609 -72.812469,72.8125c-32.692444,-35.944946 -72.138596,-16.723816 -72.781281,-72.8125l-31,0l0,-31c-54.962982,-0.334595 -37.07605,-44.080444 -72.781242,-72.78125c36.392876,-27.483276 17.794365,-72.1548 72.781242,-72.812515l0,-30.96875l31,0c-0.844666,-55.604095 40.182831,-38.049561 72.781281,-72.8125zm0.03125,6l-0.90625,0.843758l-0.15625,0.156242c-12.568176,11.789764 -29.031311,18.210846 -45.062531,24.8125l-0.031219,0.03125l-0.03125,0c-8.32576,3.74939 -16.641464,9.826141 -19.562531,19.1875c-2.680618,8.590881 -3.256104,17.47525 -3.21875,25.96875l-29.34375,0l-1.312485,0l0,1.3125c0.000031,9.884064 0.000031,19.740936 0,29.625c-10.76239,-0.160858 -22.415039,0.667175 -31.656265,7.40625l-0.03125,0l0,0.03125c-8.668777,6.711639 -12.511414,17.114777 -16.312485,26.500015l0,0.03125c-4.93248,12.587494 -11.524445,24.765411 -21.375008,33.875l-1.03125,0.9375l1,0.96875c11.660912,11.125977 18.152641,26.447815 24.124992,41.5l0.031265,0.03125c3.71962,8.675598 9.193375,17.829163 18.531235,21.875c0.008011,0.004028 0.022766,-0.004028 0.03125,0c8.442917,3.891785 17.771713,4.226074 26.687515,4.09375l0,29.6875l0,1.3125l1.312485,0l29.625,0c0.075287,10.872864 0.378082,22.664185 6.75,32.375l0.03125,0c5.658142,8.280945 15.083191,12.178467 23.625015,15.625c13.571182,5.289124 26.947372,11.863342 37.281265,22l0.90625,0.90625l0.9375,-0.90625c12.12088,-11.909973 28.283173,-18.625 44.15625,-24.9375l0.03125,0l0.03125,-0.03125c7.987335,-3.550171 16.030914,-9.058289 19.593719,-17.71875c0.002991,-0.004028 0.029266,0.004028 0.03125,0c3.726196,-8.736694 3.929169,-18.2323 4,-27.3125l29.593781,0l1.312469,0l0,-1.3125l0,-29.6875c11.026398,0.149109 22.883667,-0.225586 32.750031,-6.46875l0,-0.03125c9.78363,-6.317505 13.966614,-17.514587 17.84375,-27.40625c4.764771,-12.136963 10.55249,-24.076843 19.343719,-33.59375l0.875,-0.9375l-0.90625,-0.875c-10.892151,-10.732605 -16.869202,-25.338531 -22.374969,-39.718765l-0.03125,-0.03125c-3.751862,-9.123871 -9.065491,-18.719849 -18.656281,-23.40625c-0.009003,-0.005005 -0.021942,-0.026855 -0.03125,-0.03125c-8.162567,-4.160156 -20.024658,-4.722137 -28.84375,-4.6875l0,-7.75c0,-7.314941 0.03125,-14.615051 0.03125,-21.9375l0,-1.3125l-1.312469,0l-29.750031,0c0.254089,-10.915375 -0.010803,-22.723816 -6.312469,-32.5l0,-0.03125c-6.004333,-8.988861 -16.218201,-12.992554 -25.40625,-16.71875l-0.031281,0c-13.001801,-5.128662 -25.723724,-11.440094 -35.874969,-20.906242l-0.90625,-0.843758zm0.03125,3.562508c10.361328,9.350517 23.015686,15.58886 35.78125,20.624992c9.188629,3.72644 18.754242,7.602234 24.1875,15.71875c6.029022,9.35318 6.204529,21.130615 5.90625,32.34375l-0.0625,1.375l1.375,0l29.75,0c-0.002991,6.87796 -0.03125,13.740326 -0.03125,20.625l0,9.03125l0,1.34375l1.3125,-0.03125c8.786987,-0.091888 21.318787,0.527527 28.96875,4.4375l0.03125,0l0,0.03125c8.660278,4.219482 13.739685,13.121857 17.406219,22.03125c5.377136,14.044296 11.288116,28.624954 22.125,39.750015c-8.66748,9.729187 -14.365112,21.582886 -19.03125,33.46875c-3.884216,9.90979 -7.951202,20.459595 -16.812469,26.1875c-9.460907,5.981506 -21.302246,6.25354 -32.625,6.0625l-1.34375,-0.03125l0,1.34375l0,29.6875l-29.59375,0l-1.3125,0l0,1.3125c-0.06781,9.470337 -0.174377,19.070374 -3.8125,27.59375l0,0.03125c-3.17041,7.716919 -10.574371,12.907227 -18.21875,16.3125c-15.520447,6.17218 -31.64093,12.818909 -44.125,24.65625c-10.591431,-10.024353 -23.896271,-16.525879 -37.218796,-21.71875c-8.509476,-3.433594 -17.305374,-7.176086 -22.406235,-14.625c-0.003998,-0.007019 -0.027161,-0.024658 -0.03125,-0.03125c-6.074448,-9.273743 -6.27887,-21.020508 -6.343735,-32.21875l-0.031265,-1.3125l-1.28125,0l-29.59375,0l0,-29.6875l0,-1.34375l-1.34375,0.03125c-9.243134,0.180847 -18.686615,-0.078674 -26.90625,-3.875c-8.350586,-3.6073 -13.573257,-12.049316 -17.1875,-20.46875c-0.00499,-0.01178 -0.02684,-0.01947 -0.03125,-0.03125c-5.823334,-14.675171 -12.223801,-29.927246 -23.781242,-41.4375c9.720207,-9.380463 16.213036,-21.501801 21.062492,-33.875c0,-0.003998 0.029266,-0.027252 0.031265,-0.03125c3.819901,-9.432236 7.525955,-19.28093 15.437485,-25.406265c8.811279,-6.407379 20.407318,-7.083344 31.375,-6.84375l1.34375,0.03125l0,-1.34375c0.000031,-9.889832 0.000031,-19.766418 0,-29.65625l29.34375,0l1.3125,0l0,-1.34375c-0.102646,-8.767883 0.40094,-17.807556 3.09375,-26.4375c2.586884,-8.290497 10.159164,-14.012604 18.093781,-17.59375c0.014008,-0.006012 0.048355,0.006012 0.0625,0c15.699158,-6.464203 32.185944,-12.872559 45.125,-24.687492zm0.03125,58.343742c-8.345886,0 -16.472107,0.933807 -24.281281,2.71875a1.31352,1.31352 0 0 0 0.281281,2.59375l0.406219,0c43.528107,0 78.781281,35.253174 78.781281,78.781265c0,43.528076 -35.253174,78.78125 -78.781281,78.78125c-43.528137,0 -78.78125,-35.253418 -78.78125,-78.78125c0,-1.047729 0.021622,-2.081543 0.0625,-3.125a1.31352,1.31352 0 0 0 -2.59375,-0.40625c-2.372955,8.923401 -3.625,18.301025 -3.625,27.96875c0,59.927551 48.603714,108.53125 108.531281,108.53125c59.927551,0 108.562469,-48.603455 108.562469,-108.53125c0,-59.927719 -48.634918,-108.531265 -108.562469,-108.531265zm0,2.625c58.508087,0 105.90625,47.398468 105.90625,105.906265c0,58.507874 -47.398163,105.90625 -105.90625,105.90625c-58.508087,0 -105.906281,-47.398132 -105.906281,-105.90625c0,-5.570251 0.483429,-11.039581 1.312515,-16.375c4.056915,41.160339 38.77681,73.34375 80.999985,73.34375c44.94754,0 81.437531,-36.45874 81.437531,-81.40625c0,-41.372757 -30.938995,-75.480759 -70.90625,-80.656265c4.27771,-0.52417 8.64032,-0.8125 13.0625,-0.8125zm13.125,4.5625c8.491486,4.398834 13.969055,8.176941 15.84375,9.65625c23.725464,18.721558 36.874939,50.485046 31.718719,80.500015c-4.886627,31.146545 -28.160706,58.891357 -58.468719,68.03125c-29.849854,9.393066 -65.139465,1.464355 -86.562531,-21.71875c-2.868149,-3.10376 -8.709229,-8.150452 -16.75,-24.15625c0.506516,8.108643 2.504486,16.158691 3.28125,18.625c11.837997,37.587158 45.809814,67.542114 85.062531,71.8125c36.190735,4.695923 74.402802,-11.35907 95.40625,-41.21875c20.035156,-27.356873 25.46936,-65.132202 12.812469,-96.78125c-10.816132,-28.103165 -34.425873,-51.49379 -63.406219,-60.281265c-1.078735,-0.327118 -11.057434,-4.067474 -18.9375,-4.46875zm-24.375,26.71875c-2.113281,0.87442 -4.258148,5.759766 -6.59375,7.96875c0.604858,15.926605 1.408661,31.841812 1.59375,47.781265c-0.661438,5.943848 2.22406,14.161804 -4.062531,17.78125c-6.514313,2.797791 -15.42981,3.518799 -20.968765,-1.65625c-4.963882,-5.813171 -2.843613,-14.047516 -1.562454,-20.8125c-5.302368,5.589172 -8.431641,13.470825 -8.312515,21.21875c-0.194412,6.68457 4.630615,12.858154 11.250015,14.03125c3.867981,0.630676 7.890442,0.462952 11.75,-0.15625c8.860107,-2.533142 13.96637,-10.895996 18.15625,-18.4375c6.799927,4.110229 15.360626,3.829163 22.499969,0.78125c8.084381,-2.443604 17.763702,-5.606323 25.437531,-0.3125c5.407715,6.797852 7.299438,-4.5737 11.3125,-7.5625c5.441406,-4.654846 -1.4935,-3.289703 -4.906281,-4.53125c-10.986603,-2.91861 -17.806671,-13.525604 -28.9375,-16.0625c-6.645844,-2.192139 -13.045807,2.193787 -16.59375,7.5625c1.238556,2.58551 8.604767,2.652863 11.250031,6.1875c2.710571,-3.389465 7.583557,-1.054535 9.624969,2.21875c-2.357452,3.709869 -10.156494,1.76239 -14.562469,2.53125c-5.659027,0.285797 -12.558777,-0.365723 -15.531281,-5.96875c-0.763336,-17.519089 -0.056305,-35.046494 -0.843719,-52.562515zm-47.437515,2.6875c-0.890121,0.141296 -1.627792,1.081635 -2.125015,3.34375c-4.708572,5.004486 -0.22049,9.328033 1.53125,14.28125c0.632324,11.768738 0.323975,23.55809 0.437515,35.343765c0.855255,6.032227 -1.447678,12.724365 -7.968765,14.25c-5.763382,1.118103 -12.270325,1.40448 -17.625,-1.46875c-6.444916,-2.241821 -4.045242,-10.682404 -5.875,-15.0625c-3.065674,4.006622 -5.018143,9.030487 -4.96875,14.125c-0.729736,7.564941 6.654556,12.66687 13.437515,13.3125c1.204849,0.171509 2.409485,0.228027 3.625,0.25c11.0746,1.014465 20.95694,-7.511108 23.906235,-17.78125c1.354065,-12.114929 0.68071,-24.392609 1.40625,-36.562515c-0.913757,-6.482025 3.300461,-13.480164 2.9375,-18.875c-3.144928,-0.741058 -6.443985,-5.517395 -8.718735,-5.15625zm17.093735,14.4375c-4.244537,0.194702 -8.406433,2.265991 -7.249969,7.375c-0.127869,6.341309 6.735474,8.236816 11.531219,10.03125c1.057281,-2.573212 3.951599,-6.281555 7.65625,-3.6875c6.797638,3.421448 8.037262,11.55748 8.03125,18.406265c0.083649,1.729034 0.08255,3.476105 0.375031,5.1875c3.164948,-4.24054 3.479858,-12.077148 2.937469,-17.937515c-0.528961,-10.032562 -9.187317,-18.466492 -19.187515,-18.96875c-1.238174,-0.308838 -2.678848,-0.471161 -4.093735,-0.40625zm-148.406242,144.125015l0,103.4375l103.437508,0l-35.625015,-35.625c-14.54303,-1.31427 -28.197113,0.568848 -40.625,8.375c7.724823,-12.274231 9.723145,-25.846008 8.625,-40.375l-35.812492,-35.8125zm379.812492,0l-35.937469,35.96875c-1.210876,14.316101 0.770691,27.786865 8.687469,40.21875c-12.623993,-7.666992 -26.431854,-9.34314 -41.09375,-7.84375l-35.09375,35.09375l103.4375,0l0,-103.4375z"/>
 </g>
</svg>