<?xml version="1.0"?>
<svg width="96" height="96" xmlns="http://www.w3.org/2000/svg" xmlns:svg="http://www.w3.org/2000/svg">
 <g>
  <title>Layer 1</title>
  <path fill="#ffffff" id="svg_1" d="m72,56c-4.813004,0 -9.119999,2.137001 -12.054001,5.500999l-20.302998,-10.151001c0.23,-1.080997 0.356998,-2.201 0.356998,-3.349998s-0.126999,-2.269001 -0.356998,-3.348999l20.302998,-10.152c2.933002,3.364998 7.240997,5.500999 12.054001,5.500999c8.835999,0 16,-7.164001 16,-16s-7.164001,-16 -16,-16s-16,7.164 -16,16c0,1.149 0.126999,2.268999 0.356998,3.349001l-20.302998,10.151999c-2.933002,-3.364998 -7.240002,-5.500999 -12.054001,-5.500999c-8.836,0 -16,7.164001 -16,16c0,8.835999 7.164,16 16,16c4.813999,0 9.119999,-2.137001 12.054001,-5.500999l20.304001,10.152c-0.231003,1.080002 -0.358002,2.199997 -0.358002,3.348999c0,8.835999 7.164001,16 16,16s16,-7.164001 16,-16s-7.164001,-16 -16,-16zm0,-40c4.417999,0 8,3.582001 8,8s-3.582001,8 -8,8s-8,-3.582001 -8,-8s3.582001,-8 8,-8zm-48,40c-4.417999,0 -8,-3.582001 -8,-8c0,-4.417999 3.582001,-8 8,-8s8,3.582001 8,8c0,4.417999 -3.582001,8 -8,8zm48,24c-4.417999,0 -8,-3.582001 -8,-8s3.582001,-8 8,-8s8,3.582001 8,8s-3.582001,8 -8,8z"/>
 </g>
</svg>