<svg width="220px" height="110px" xmlns="http://www.w3.org/2000/svg" xmlns:xlink="http://www.w3.org/1999/xlink">
 <!-- Created with SVG-edit - http://svg-edit.googlecode.com/ -->
 <defs>
  <svg viewBox="0 0 100 100" height="100px" width="100px" y="0px" x="0px" id="svg_4" xmlns:xlink="http://www.w3.org/1999/xlink">
   <g>
    <g>
     <polygon points="10.886,89.768 24.015,89.768 24.015,40.683 2.226,40.683   " fill="#000000"/>
     <path d="m97.773003,48.293999c0,-5.249001 -4.197998,-6.042 -4.197998,-6.042h-27.300003c0,0 -1.840996,-2.356998 -0.265999,-7.347c1.573997,-4.989 1.841003,-12.336 0.526001,-15.486c-1.308998,-3.149 -3.674999,-8.926 -9.713001,-9.187c-3.541,0.542 -4.724998,3.410001 -4.724998,3.410001v11.554999c0,0 -11.283001,20.470001 -12.857002,20.73c-1.578999,0.265999 -7.863998,1.054001 -7.863998,1.054001v36.224995h1.826c0,0 13.384998,6.561005 16.007,6.561005c2.627998,0 33.077999,0 33.077999,0s4.723999,-1.053001 4.723999,-6.299004c0,-3.409996 -2.888,-5.515999 -2.888,-5.515999s7.091003,-0.523003 7.091003,-6.558998c0,-2.479004 -3.417,-4.724998 -3.417,-4.724998s6.564995,-1.314003 6.305,-6.824001c-0.527,-3.412003 -2.366005,-5.251999 -2.366005,-5.251999s6.037003,-1.050999 6.037003,-6.298z" fill="#000000"/>
    </g>
   </g>
  </svg>
  <svg viewBox="0 0 90 90" height="90px" width="90px" y="0px" x="0px" id="svg_6" xmlns:xlink="http://www.w3.org/1999/xlink">
   <g>
    <path d="m53.032001,50.435001c-0.510998,-1.536999 -0.798,-3.174 -0.798,-4.870998c0,-0.574001 0.034,-1.138 0.096001,-1.694c-1.584,-0.852001 -3.526001,-1.601002 -5.735001,-2.223c-3.318001,5.411999 -9.042999,9.072998 -15.401001,9.072998c-6.357998,0 -12.083998,-3.661999 -15.401999,-9.075001c-4.808,1.350002 -8.334,3.310001 -9.727,5.580002c-1.744,2.279999 -2.815,5.292999 -2.815,8.610001c0,3.029999 0.949,5.810997 2.473,8.007c1.958,4.625 12.614001,8.159996 25.470999,8.159996c5.007999,0 9.68,-0.537994 13.636002,-1.466995c-1.271,-2.098999 -1.945999,-4.504005 -1.945999,-7.013004c0,-2.981998 0.933998,-5.869999 2.633999,-8.151997c1.456997,-2.240002 4.222,-3.842003 7.514,-4.935001z"/>
    <path d="m31.195,47.366001c7.871998,0 15.045002,-7.299 15.045002,-16.302999c-0.001003,-9.004999 -6.737003,-16.302999 -15.045002,-16.302999c-8.309,0 -15.045,7.299 -15.045,16.302999c0,9.004 7.173,16.302999 15.045,16.302999z"/>
    <path d="m84.708,57.280998c-0.921997,-1.501999 -3.134003,-2.817001 -6.161003,-3.779999c-2.545998,4.300999 -7.036995,7.237 -12.051994,7.237s-9.506001,-2.936001 -12.053001,-7.237c-3.028,0.962997 -5.240002,2.278 -6.161003,3.779999c-1.264,1.652 -2.040997,3.836998 -2.040997,6.241001c0,2.196995 0.688,4.212002 1.792,5.803997c1.419998,3.352005 9.143997,5.915001 18.462002,5.915001s17.042,-2.561996 18.461998,-5.915001c1.104996,-1.592995 1.792,-3.607002 1.792,-5.803997c0,-2.404999 -0.776001,-4.589001 -2.040001,-6.241001z"/>
    <path d="m66.495003,57.381001c5.706001,0 10.904999,-5.291 10.904999,-11.817001c0,-6.526001 -4.881996,-11.816998 -10.904999,-11.816998c-6.022999,0 -10.904999,5.290997 -10.904999,11.816998s5.198997,11.817001 10.904999,11.817001z"/>
   </g>
  </svg>
 </defs>
 <g>
  <title>Layer 1</title>
  <use x="0" y="0" transform="matrix(0.9029002527036966,0,0,0.9745093837716993,1.8546443909653638,-3.2254714577956665) " id="svg_5" xlink:href="#svg_4"/>
  <use x="55.88639" y="-14.162707" transform="matrix(1.52046183553351,0,0,1.4096658599765703,0.5789611716083982,5.065221095364905) " id="svg_7" xlink:href="#svg_6"/>
 </g>
</svg>