<svg width="280px" height="130px" xmlns="http://www.w3.org/2000/svg" xmlns:xlink="http://www.w3.org/1999/xlink">
 <!-- Created with SVG-edit - http://svg-edit.googlecode.com/ -->
 <defs>
  <svg viewBox="0 0 100 100" height="100px" width="100px" y="0px" x="0px" id="svg_13" xmlns:xlink="http://www.w3.org/1999/xlink">
   <path d="m50.327999,95c-9.438999,0 -18.196999,-2.913002 -25.434,-7.879997l-16.548999,2.034996c-2.749,0.348 -4.289,-1.511002 -3.439,-4.147003l4.908,-15.403c-2.873,-5.926994 -4.486,-12.576996 -4.486,-19.604996c0,-24.854 20.146998,-45 44.999999,-45c24.853001,0 45.000004,20.146999 45.000004,45c0,24.852997 -20.147003,45 -45.000004,45zm28.311001,-52.537998l-14.713001,-5.255001l-5.655998,-14.846001c-1.070999,-2.837 -3.654999,-3.375999 -5.771,-1.205999l-11.209,11.421999l-14.879002,-1.027c-3.024,-0.218 -4.598,1.901001 -3.514999,4.732998l6.301001,16.641003l-4.764,14.947002c-0.93,2.886002 0.754999,4.918999 3.762999,4.537994l17.378002,-2.137993l15.067997,8.917999c2.605003,1.551994 4.963005,0.364998 5.266998,-2.651001l1.620003,-15.606003l12.435997,-12.725998c2.127007,-2.161003 1.532005,-4.733002 -1.325996,-5.743999z" clip-rule="evenodd" fill-rule="evenodd"/>
  </svg>
  <svg viewBox="0 0 90 90" height="90px" width="90px" y="0px" x="0px" id="svg_16" xmlns:xlink="http://www.w3.org/1999/xlink">
   <g>
    <path d="m53.032001,50.435001c-0.510998,-1.536999 -0.798,-3.174 -0.798,-4.870998c0,-0.574001 0.034,-1.138 0.096001,-1.694c-1.584,-0.852001 -3.526001,-1.601002 -5.735001,-2.223c-3.318001,5.411999 -9.042999,9.072998 -15.401001,9.072998c-6.357998,0 -12.083998,-3.661999 -15.401999,-9.075001c-4.808,1.350002 -8.334,3.310001 -9.727,5.580002c-1.744,2.279999 -2.815,5.292999 -2.815,8.610001c0,3.029999 0.949,5.810997 2.473,8.007c1.958,4.625 12.614001,8.159996 25.470999,8.159996c5.007999,0 9.68,-0.537994 13.636002,-1.466995c-1.271,-2.098999 -1.945999,-4.504005 -1.945999,-7.013004c0,-2.981998 0.933998,-5.869999 2.633999,-8.151997c1.456997,-2.240002 4.222,-3.842003 7.514,-4.935001z"/>
    <path d="m31.195,47.366001c7.871998,0 15.045002,-7.299 15.045002,-16.302999c-0.001003,-9.004999 -6.737003,-16.302999 -15.045002,-16.302999c-8.309,0 -15.045,7.299 -15.045,16.302999c0,9.004 7.173,16.302999 15.045,16.302999z"/>
    <path d="m84.708,57.280998c-0.921997,-1.501999 -3.134003,-2.817001 -6.161003,-3.779999c-2.545998,4.300999 -7.036995,7.237 -12.051994,7.237s-9.506001,-2.936001 -12.053001,-7.237c-3.028,0.962997 -5.240002,2.278 -6.161003,3.779999c-1.264,1.652 -2.040997,3.836998 -2.040997,6.241001c0,2.196995 0.688,4.212002 1.792,5.803997c1.419998,3.352005 9.143997,5.915001 18.462002,5.915001s17.042,-2.561996 18.461998,-5.915001c1.104996,-1.592995 1.792,-3.607002 1.792,-5.803997c0,-2.404999 -0.776001,-4.589001 -2.040001,-6.241001z"/>
    <path d="m66.495003,57.381001c5.706001,0 10.904999,-5.291 10.904999,-11.817001c0,-6.526001 -4.881996,-11.816998 -10.904999,-11.816998c-6.022999,0 -10.904999,5.290997 -10.904999,11.816998s5.198997,11.817001 10.904999,11.817001z"/>
   </g>
  </svg>
 </defs>
 <g>
  <title>Layer 1</title>
  <use x="127.007791" y="-1.654676" transform="matrix(1.267638766761557,0,0,1.2086956866665302,-0.9843039559686131,-0.4347826512986901) " id="svg_14" xlink:href="#svg_13"/>
  <use x="-1.125" y="-11.8125" transform="matrix(1.8479548697931847,0,0,1.8738070733549392,-0.15789850134774497,-1.3213631659700695) " id="svg_17" xlink:href="#svg_16"/>
 </g>
</svg>