<svg xmlns="http://www.w3.org/2000/svg" xmlns:xlink="http://www.w3.org/1999/xlink" version="1.1" id="Layer_1" x="0px" y="0px" width="100px" height="100px" viewBox="0 0 100 100" enable-background="new 0 0 100 100" xml:space="preserve">
<g>
	<circle cx="42.66" cy="41.607" r="12.325"/>
	<path d="M57.843,40.04c1.583,0.741,3.343,0.999,5.206,0.999c4.851,0,9.042-3.039,11.055-7.039H69V24h5.235   c-1.956-4-6.227-7.295-11.187-7.295c-6.743,0.001-12.212,5.346-12.314,12.065C54.62,31.205,57.344,35.255,57.843,40.04z"/>
	<path d="M21.032,41.208c2.411,0,4.655-0.704,6.556-1.903c0.604-3.94,2.716-7.382,5.733-9.728c0.013-0.231,0.035-0.459,0.035-0.692   c0-6.808-5.519-12.325-12.324-12.325c-6.809,0-12.325,5.517-12.325,12.325C8.707,35.689,14.223,41.208,21.032,41.208z"/>
	<path d="M32.25,54.057c-2.79-2.676-4.629-6.633-4.759-10.76C27.105,43.27,26.651,43,26.259,43H15.8C7.099,43,0,50.557,0,59.257   v12.792l0.042,0.198l1.034,0.277C7.738,74.604,14,75.563,19,75.864v-3.862C19,63.529,24.513,56.358,32.25,54.057z"/>
	<path d="M68.279,43H57.902c-0.113,5-1.689,8.129-4.49,10.818C61.146,56.119,67,63.529,67,72.002v3.941   c10-0.376,15.955-3.305,16.346-3.5L83.973,72H84V59.257C84,50.557,76.98,43,68.279,43z"/>
	<path d="M47.887,56H37.43C28.728,56,22,63.281,22,71.982v12.791l-0.145,0.2l0.793,0.276c8.305,2.594,15.477,3.459,21.415,3.459   c11.599,0,18.3-3.193,18.714-3.405L63.579,85H64V71.982C64,63.281,56.589,56,47.887,56z"/>
	<polygon points="88,26 88,15 83,15 83,26 72,26 72,32 83,32 83,43 88,43 88,32 100,32 100,26  "/>
</g>
</svg>