<?xml version="1.0"?>
<svg version="1.1" xmlns="http://www.w3.org/2000/svg" xmlns:xlink="http://www.w3.org/1999/xlink" width="1920" height="2048">
    <desc iVinci="yes" version="4.5" gridStep="20" showGrid="no" snapToGrid="no" codePlatform="0"/>
    <g id="Layer1" opacity="1">
        <g id="Shape1">
            <desc shapeID="1" type="0" basicInfo-basicType="0" basicInfo-roundedRectRadius="12" basicInfo-polygonSides="6" basicInfo-starPoints="5" bounding="rect(-960,-896,1920,1792)" text="" font-familyName="" font-pixelSize="20" font-bold="0" font-underline="0" font-alignment="1" strokeStyle="0" markerStart="0" markerEnd="0" shadowEnabled="0" shadowOffsetX="0" shadowOffsetY="2" shadowBlur="4" shadowOpacity="160" blurEnabled="0" blurRadius="4" transform="matrix(0.699967,0,0,0.708579,715.038,1112.83)" pers-center="0,0" pers-size="0,0" pers-start="0,0" pers-end="0,0" locked="0" mesh="" flag=""/>
            <path id="shapePath1" d="M458.15,1112.83 C382.554,1115.19 320.724,1145.43 272.659,1203.53 L178.864,1203.53 C140.599,1203.53 108.4,1193.96 82.2682,1174.83 C56.1364,1155.7 43.0701,1127.71 43.0701,1090.87 C43.0701,924.114 72.0019,840.738 129.866,840.738 C132.666,840.738 142.815,845.698 160.315,855.618 C177.814,865.538 200.563,875.576 228.561,885.733 C256.56,895.889 284.326,900.967 311.857,900.967 C343.123,900.967 374.154,895.534 404.953,884.67 C402.62,902.148 401.453,917.737 401.453,931.436 C401.453,997.098 420.352,1057.56 458.15,1112.83 M1207.81,1564.2 C1207.81,1620.88 1190.78,1665.64 1156.72,1698.47 C1122.65,1731.3 1077.39,1747.72 1020.92,1747.72 L409.153,1747.72 C352.689,1747.72 307.424,1731.3 273.359,1698.47 C239.294,1665.64 222.262,1620.88 222.262,1564.2 C222.262,1539.16 223.078,1514.71 224.711,1490.86 C226.345,1467 229.611,1441.26 234.511,1413.62 C239.411,1385.99 245.594,1360.36 253.06,1336.74 C260.527,1313.12 270.559,1290.1 283.159,1267.66 C295.758,1245.22 310.224,1226.09 326.557,1210.26 C342.889,1194.44 362.838,1181.8 386.404,1172.35 C409.97,1162.91 435.985,1158.18 464.45,1158.18 C469.117,1158.18 479.149,1163.26 494.549,1173.42 C509.948,1183.57 526.98,1194.91 545.646,1207.43 C564.312,1219.95 589.277,1231.28 620.543,1241.44 C651.808,1251.6 683.307,1256.67 715.038,1256.67 C746.77,1256.67 778.268,1251.6 809.534,1241.44 C840.799,1231.28 865.764,1219.95 884.43,1207.43 C903.096,1194.91 920.128,1183.57 935.528,1173.42 C950.927,1163.26 960.96,1158.18 965.626,1158.18 C994.092,1158.18 1020.11,1162.91 1043.67,1172.35 C1067.24,1181.8 1087.19,1194.44 1103.52,1210.26 C1119.85,1226.09 1134.32,1245.22 1146.92,1267.66 C1159.52,1290.1 1169.55,1313.12 1177.02,1336.74 C1184.48,1360.36 1190.67,1385.99 1195.57,1413.62 C1200.47,1441.26 1203.73,1467 1205.36,1490.86 C1207,1514.71 1207.81,1539.16 1207.81,1564.2 M491.049,659.342 C491.049,709.415 473.55,752.165 438.551,787.594 C403.553,823.023 361.322,840.738 311.857,840.738 C262.393,840.738 220.162,823.023 185.163,787.594 C150.165,752.165 132.666,709.415 132.666,659.342 C132.666,609.268 150.165,566.518 185.163,531.089 C220.162,495.66 262.393,477.945 311.857,477.945 C361.322,477.945 403.553,495.66 438.551,531.089 C473.55,566.518 491.049,609.268 491.049,659.342 M983.825,931.436 C983.825,1006.55 957.577,1070.67 905.079,1123.82 C852.582,1176.96 789.235,1203.53 715.038,1203.53 C640.842,1203.53 577.495,1176.96 524.997,1123.82 C472.5,1070.67 446.251,1006.55 446.251,931.436 C446.251,856.327 472.5,792.2 524.997,739.057 C577.495,685.913 640.842,659.342 715.038,659.342 C789.235,659.342 852.582,685.913 905.079,739.057 C957.577,792.2 983.825,856.327 983.825,931.436 M1387.01,1090.87 C1387.01,1127.71 1373.94,1155.7 1347.81,1174.83 C1321.68,1193.96 1289.48,1203.53 1251.21,1203.53 L1157.42,1203.53 C1109.35,1145.43 1047.52,1115.19 971.926,1112.83 C1009.72,1057.56 1028.62,997.098 1028.62,931.436 C1028.62,917.737 1027.46,902.148 1025.12,884.67 C1055.92,895.534 1086.95,900.967 1118.22,900.967 C1145.75,900.967 1173.52,895.889 1201.52,885.733 C1229.51,875.576 1252.26,865.538 1269.76,855.618 C1287.26,845.698 1297.41,840.738 1300.21,840.738 C1358.07,840.738 1387.01,924.114 1387.01,1090.87 M1297.41,659.342 C1297.41,709.415 1279.91,752.165 1244.91,787.594 C1209.91,823.023 1167.68,840.738 1118.22,840.738 C1068.75,840.738 1026.52,823.023 991.525,787.594 C956.527,752.165 939.027,709.415 939.027,659.342 C939.027,609.268 956.527,566.518 991.525,531.089 C1026.52,495.66 1068.75,477.945 1118.22,477.945 C1167.68,477.945 1209.91,495.66 1244.91,531.089 C1279.91,566.518 1297.41,609.268 1297.41,659.342 Z" style="stroke:none;fill-rule:nonzero;fill:#000000;fill-opacity:1;"/>
        </g>
        <g id="Shape2">
            <desc shapeID="2" type="0" basicInfo-basicType="0" basicInfo-roundedRectRadius="12" basicInfo-polygonSides="6" basicInfo-starPoints="5" bounding="rect(0,0,0,0)" text="" font-familyName="Helvetica" font-pixelSize="20" font-bold="0" font-underline="0" font-alignment="1" strokeStyle="0" markerStart="0" markerEnd="0" shadowEnabled="0" shadowOffsetX="0" shadowOffsetY="2" shadowBlur="4" shadowOpacity="160" blurEnabled="0" blurRadius="4" transform="matrix(1,0,0,1,966.237,984.23)" pers-center="0,0" pers-size="0,0" pers-start="0,0" pers-end="0,0" locked="0" mesh="" flag=""/>
            <path id="shapePath2" d="M966.237,984.23 Z" style="stroke:none;fill-rule:evenodd;fill:#ffffff;fill-opacity:1;"/>
        </g>
    </g>
    <g id="Layer2" opacity="1">
        <g id="Shape3">
            <desc shapeID="3" type="0" basicInfo-basicType="0" basicInfo-roundedRectRadius="12" basicInfo-polygonSides="6" basicInfo-starPoints="5" bounding="rect(-704,-704,1408,1408)" text="" font-familyName="" font-pixelSize="20" font-bold="0" font-underline="0" font-alignment="1" strokeStyle="0" markerStart="0" markerEnd="0" shadowEnabled="0" shadowOffsetX="0" shadowOffsetY="2" shadowBlur="4" shadowOpacity="160" blurEnabled="0" blurRadius="4" transform="matrix(0.571745,0,0,0.575569,1432.65,1238.25)" pers-center="0,0" pers-size="0,0" pers-start="0,0" pers-end="0,0" locked="0" mesh="" flag=""/>
            <path id="shapePath3" d="M1835.16,1182.99 L1835.16,1293.5 C1835.16,1308.85 1829.82,1321.9 1819.15,1332.64 C1808.48,1343.38 1795.52,1348.76 1780.27,1348.76 L1542.42,1348.76 L1542.42,1588.19 C1542.42,1603.54 1537.09,1616.59 1526.42,1627.33 C1515.74,1638.08 1502.78,1643.45 1487.54,1643.45 L1377.76,1643.45 C1362.52,1643.45 1349.56,1638.08 1338.88,1627.33 C1328.21,1616.59 1322.87,1603.54 1322.87,1588.19 L1322.87,1348.76 L1085.03,1348.76 C1069.78,1348.76 1056.82,1343.38 1046.15,1332.64 C1035.48,1321.9 1030.14,1308.85 1030.14,1293.5 L1030.14,1182.99 C1030.14,1167.64 1035.48,1154.6 1046.15,1143.85 C1056.82,1133.11 1069.78,1127.74 1085.03,1127.74 L1322.87,1127.74 L1322.87,888.301 C1322.87,872.953 1328.21,859.906 1338.88,849.162 C1349.56,838.418 1362.52,833.047 1377.76,833.047 L1487.54,833.047 C1502.78,833.047 1515.74,838.418 1526.42,849.162 C1537.09,859.906 1542.42,872.953 1542.42,888.301 L1542.42,1127.74 L1780.27,1127.74 C1795.52,1127.74 1808.48,1133.11 1819.15,1143.85 C1829.82,1154.6 1835.16,1167.64 1835.16,1182.99 Z" style="stroke:none;fill-rule:nonzero;fill:#ffffff;fill-opacity:1;"/>
        </g>
        <g id="Shape4">
            <desc shapeID="4" type="0" basicInfo-basicType="0" basicInfo-roundedRectRadius="12" basicInfo-polygonSides="6" basicInfo-starPoints="5" bounding="rect(-704,-704,1408,1408)" text="" font-familyName="" font-pixelSize="20" font-bold="0" font-underline="0" font-alignment="1" strokeStyle="0" markerStart="0" markerEnd="0" shadowEnabled="0" shadowOffsetX="0" shadowOffsetY="2" shadowBlur="4" shadowOpacity="160" blurEnabled="0" blurRadius="4" transform="matrix(0.571745,0,0,0.575569,1432.65,1319.11)" pers-center="0,0" pers-size="0,0" pers-start="0,0" pers-end="0,0" locked="0" mesh="" flag=""/>
            <path id="shapePath4" d="M1835.16,1263.86 L1835.16,1374.37 C1835.16,1389.72 1829.82,1402.76 1819.15,1413.51 C1808.48,1424.25 1795.52,1429.62 1780.27,1429.62 L1542.42,1429.62 L1542.42,1669.06 C1542.42,1684.41 1537.09,1697.45 1526.42,1708.2 C1515.74,1718.94 1502.78,1724.31 1487.54,1724.31 L1377.76,1724.31 C1362.52,1724.31 1349.56,1718.94 1338.88,1708.2 C1328.21,1697.45 1322.87,1684.41 1322.87,1669.06 L1322.87,1429.62 L1085.03,1429.62 C1069.78,1429.62 1056.82,1424.25 1046.15,1413.51 C1035.48,1402.76 1030.14,1389.72 1030.14,1374.37 L1030.14,1263.86 C1030.14,1248.51 1035.48,1235.46 1046.15,1224.72 C1056.82,1213.98 1069.78,1208.6 1085.03,1208.6 L1322.87,1208.6 L1322.87,969.166 C1322.87,953.818 1328.21,940.772 1338.88,930.028 C1349.56,919.284 1362.52,913.912 1377.76,913.912 L1487.54,913.912 C1502.78,913.912 1515.74,919.284 1526.42,930.028 C1537.09,940.772 1542.42,953.818 1542.42,969.166 L1542.42,1208.6 L1780.27,1208.6 C1795.52,1208.6 1808.48,1213.98 1819.15,1224.72 C1829.82,1235.46 1835.16,1248.51 1835.16,1263.86 Z" style="stroke:none;fill-rule:nonzero;fill:#ffffff;fill-opacity:1;"/>
        </g>
        <g id="Shape5">
            <desc shapeID="5" type="0" basicInfo-basicType="0" basicInfo-roundedRectRadius="12" basicInfo-polygonSides="6" basicInfo-starPoints="5" bounding="rect(-704,-704,1408,1408)" text="" font-familyName="" font-pixelSize="20" font-bold="0" font-underline="0" font-alignment="1" strokeStyle="0" markerStart="0" markerEnd="0" shadowEnabled="0" shadowOffsetX="0" shadowOffsetY="2" shadowBlur="4" shadowOpacity="160" blurEnabled="0" blurRadius="4" transform="matrix(0.571745,0,0,0.575569,1475.15,1275.95)" pers-center="0,0" pers-size="0,0" pers-start="0,0" pers-end="0,0" locked="0" mesh="" flag=""/>
            <path id="shapePath5" d="M1877.66,1220.7 L1877.66,1331.21 C1877.66,1346.56 1872.33,1359.6 1861.65,1370.35 C1850.98,1381.09 1838.02,1386.46 1822.78,1386.46 L1584.93,1386.46 L1584.93,1625.9 C1584.93,1641.25 1579.59,1654.3 1568.92,1665.04 C1558.25,1675.78 1545.29,1681.16 1530.04,1681.16 L1420.27,1681.16 C1405.02,1681.16 1392.06,1675.78 1381.39,1665.04 C1370.72,1654.3 1365.38,1641.25 1365.38,1625.9 L1365.38,1386.46 L1127.53,1386.46 C1112.29,1386.46 1099.33,1381.09 1088.65,1370.35 C1077.98,1359.6 1072.65,1346.56 1072.65,1331.21 L1072.65,1220.7 C1072.65,1205.35 1077.98,1192.31 1088.65,1181.56 C1099.33,1170.82 1112.29,1165.45 1127.53,1165.45 L1365.38,1165.45 L1365.38,926.009 C1365.38,910.66 1370.72,897.614 1381.39,886.87 C1392.06,876.126 1405.02,870.754 1420.27,870.754 L1530.04,870.754 C1545.29,870.754 1558.25,876.126 1568.92,886.87 C1579.59,897.614 1584.93,910.66 1584.93,926.009 L1584.93,1165.45 L1822.78,1165.45 C1838.02,1165.45 1850.98,1170.82 1861.65,1181.56 C1872.33,1192.31 1877.66,1205.35 1877.66,1220.7 Z" style="stroke:none;fill-rule:nonzero;fill:#000000;fill-opacity:1;"/>
        </g>
    </g>
</svg>
