<svg xmlns="http://www.w3.org/2000/svg" xmlns:xlink="http://www.w3.org/1999/xlink" version="1.1" x="0px" y="0px" width="100px" height="100px" viewBox="0 0 100 100" enable-background="new 0 0 100 100" xml:space="preserve">
<g id="Captions">
</g>
<g id="Your_Icon">
	<path d="M39.617,24.684c4.757,0,9.121,0.428,12.558,1.139c0.22-0.377,0.349-0.769,0.349-1.175c0-2.849-5.778-5.156-12.906-5.156   s-12.905,2.307-12.905,5.156c0,0.406,0.128,0.798,0.348,1.175C30.497,25.112,34.86,24.684,39.617,24.684z"/>
	<path d="M75.956,41.988c4.758,0,9.121,0.428,12.558,1.139c0.22-0.377,0.349-0.769,0.349-1.174c0-2.849-5.778-5.156-12.906-5.156   c-7.127,0-12.905,2.307-12.905,5.156c0,0.405,0.129,0.797,0.349,1.174C66.836,42.416,71.199,41.988,75.956,41.988z"/>
	<path d="M75.956,29.312c-4.609,0-8.9,0.625-12.545,1.692v-7.826c0-6.169-10.653-11.17-23.794-11.17c-13.14,0-23.793,5-23.793,11.17   v18.945C6.741,43.697,0.25,47.785,0.25,52.596v24.227c0,6.17,10.653,11.17,23.793,11.17s23.793-5,23.793-11.17V57.877   c1.522-0.264,2.969-0.597,4.326-0.994v7.826c0,6.17,10.653,11.17,23.793,11.17c13.141,0,23.794-5,23.794-11.17V40.483   C99.75,34.313,89.097,29.312,75.956,29.312z M24.043,62.611c-10.087,0-18.264-3.838-18.264-8.574c0-4.737,8.177-8.574,18.264-8.574   s18.264,3.837,18.264,8.574C42.308,58.773,34.13,62.611,24.043,62.611z M39.617,33.194c-10.087,0-18.264-3.838-18.264-8.575   c0-4.736,8.177-8.574,18.264-8.574s18.265,3.838,18.265,8.574C57.882,29.356,49.704,33.194,39.617,33.194z M75.956,50.499   c-10.086,0-18.264-3.837-18.264-8.574s8.178-8.575,18.264-8.575c10.087,0,18.265,3.838,18.265,8.575S86.043,50.499,75.956,50.499z"/>
	<path d="M24.043,54.102c4.757,0,9.12,0.428,12.558,1.139c0.22-0.377,0.348-0.769,0.348-1.174c0-2.85-5.778-5.156-12.906-5.156   s-12.906,2.307-12.906,5.156c0,0.405,0.128,0.797,0.348,1.174C14.923,54.529,19.287,54.102,24.043,54.102z"/>
</g>
</svg>