<svg xmlns="http://www.w3.org/2000/svg" xmlns:xlink="http://www.w3.org/1999/xlink" version="1.1" id="Your_Icon" x="0px" y="0px" width="100px" height="100px" viewBox="0 0 100 100" enable-background="new 0 0 100 100" xml:space="preserve">
<g>
	<g>
		<g>
		</g>
	</g>
	<g>
	</g>
</g>
<path d="M7.521,55.92c-1.056-4.078-0.854-7.429,2.304-9.402c1.686-1.058,3.637-1.008,5.348-1.937  c2.855-1.549,4.621-4.854,6.876-7.021c4.563-4.377,7.735-3.207,13.472-3.702c4.562-0.396,8.171-3.334,12.885-2.816  c2.684,5.961,11.577,1.031,15.869,4.143c2.081,1.509,1.643,4.557,4.366,5.786c2.934,1.32,3.443-0.343,5.326,2.021  c1.747,2.196,2.833,5.398,3.453,8.804c-8.017-8.122-19.566-13.225-32.419-13.225c-15.341,0-28.825,7.265-36.657,18.259  C8.05,56.495,7.766,56.184,7.521,55.92z M7.521,55.92 M67.095,39.747c0.376,0.488,0.856,0.916,1.546,1.225  c2.062,0.932,2.931,0.403,3.914,0.817C70.802,40.971,68.97,40.299,67.095,39.747z M82.678,68.983H5  c4.71-16.534,20.311-28.681,38.839-28.681C62.364,40.302,77.968,52.449,82.678,68.983z M20.236,61.778  c0-1.302-1.167-2.353-2.604-2.353c-1.441,0-2.609,1.051-2.609,2.353s1.168,2.351,2.609,2.351  C19.069,64.129,20.236,63.08,20.236,61.778z M32.912,54.477c0-1.298-1.166-2.354-2.607-2.354c-1.438,0-2.608,1.056-2.608,2.354  c0,1.304,1.17,2.354,2.608,2.354C31.746,56.831,32.912,55.78,32.912,54.477z M43.839,61.778c0-1.302-1.168-2.353-2.606-2.353  c-1.439,0-2.604,1.051-2.604,2.353s1.165,2.351,2.604,2.351C42.671,64.129,43.839,63.08,43.839,61.778z M46.443,48.162  c0-1.3-1.166-2.351-2.604-2.351c-1.441,0-2.606,1.051-2.606,2.351c0,1.305,1.165,2.355,2.606,2.355  C45.277,50.517,46.443,49.466,46.443,48.162z M56.369,54.638c0-1.297-1.17-2.348-2.606-2.348c-1.441,0-2.606,1.051-2.606,2.348  c0,1.308,1.165,2.355,2.606,2.355C55.199,56.993,56.369,55.945,56.369,54.638z M67.596,61.778c0-1.302-1.168-2.353-2.609-2.353  c-1.439,0-2.604,1.051-2.604,2.353s1.165,2.351,2.604,2.351C66.428,64.129,67.596,63.08,67.596,61.778z M72.866,41.948  c0.328,0.204,0.677,0.513,1.101,1.045c1.65,2.072,2.815,5.612,3.453,8.804c4.605,4.912,7.965,10.427,9.839,17.222H95  C91.806,56.946,83.594,47.066,72.866,41.948z"/>
</svg>