<svg width="50" height="50" xmlns="http://www.w3.org/2000/svg" xmlns:svg="http://www.w3.org/2000/svg">
 <!-- Created with SVG-edit - http://svg-edit.googlecode.com/ -->

 <g>
  <title>Layer 1</title>
  <path fill="#ffffff" id="svg_5" d="m38.59096,30.11517l-9.79781,0l5.14418,-10.8833l0.84925,-1.79869c0.10206,-0.28036 0.19404,-0.56588 0.27342,-0.85656c0.2499,-0.9159 0.39312,-1.87738 0.39312,-2.87541c0,-5.90992 -4.68092,-10.70141 -10.45385,-10.70141c-5.77293,0 -10.45343,4.79149 -10.45343,10.70141c0,0.9976 0.14364,1.95908 0.39354,2.87541c0.07896,0.29068 0.17094,0.5762 0.273,0.85656l0.84966,1.79826l5.14293,10.88373l-9.79697,0l-7.408,15.88463l41.9998,0l-7.40884,-15.88463zm-13.59127,-20.24268c2.06515,0 3.74096,1.71484 3.74096,3.82872c0,2.1156 -1.67539,3.82915 -3.74096,3.82915c-2.06557,0 -3.74012,-1.71442 -3.74012,-3.82915c0,-2.11388 1.67455,-3.82872 3.74012,-3.82872zm-5.93379,24.16944c1.75813,0.24467 2.79049,1.5007 4.05512,3.06031c2.00971,2.47723 4.51082,5.5612 11.18424,5.5612c4.08116,0 6.58018,-0.75896 7.44496,-2.2532l1.89967,4.07253l-24.58399,0l0,-10.44083zm20.18908,1.01781c-2.59897,0.00645 -5.49615,-0.01805 -6.91828,-1.4706c-0.48888,-0.50052 -0.76146,-1.15068 -0.84672,-1.95779l6.16773,0l1.59727,3.42839zm-14.25529,3.08268l3.07736,-6.51064l2.67457,0c0.09492,1.01264 0.43975,1.8576 1.06218,2.49486c1.56745,1.60175 4.44572,1.69205 7.0951,1.69205c0.17262,0 0.34356,0 0.51366,0l0.1869,-0.00087l1.70563,3.65673c-0.02394,0.13372 -0.0588,0.26659 -0.1176,0.39602c-0.41706,0.92881 -1.95133,2.03477 -6.89098,2.03477c-6.32523,0 -8.60417,-2.80876 -10.61388,-5.28772c-1.2873,-1.58584 -2.51959,-3.07708 -4.62506,-3.33206l0,-1.65336l2.85643,0l3.07567,6.51021zm-12.6576,-6.51064l5.98335,0l0,1.60348c-3.23402,0.02623 -4.69479,1.15368 -5.86869,2.06485c-0.7728,0.599 -1.40869,1.08704 -2.39065,1.21347l2.27599,-4.8818zm-2.64266,5.66611c1.44817,-0.04299 2.30497,-0.69703 3.2042,-1.3932c1.14156,-0.8858 2.44105,-1.88383 5.42181,-1.90834l0,10.48641l-11.97636,0l3.35036,-7.18488z"/>
 </g>
</svg>