<?xml version="1.0"?>
<svg version="1.1" xmlns="http://www.w3.org/2000/svg" xmlns:xlink="http://www.w3.org/1999/xlink" width="2792" height="2792">
    <desc iVinci="yes" version="4.5" gridStep="20" showGrid="no" snapToGrid="no" codePlatform="0"/>
    <g id="Layer1" visibility="hidden" opacity="1">
        <g id="Shape1">
            <desc shapeID="1" type="0" basicInfo-basicType="1" basicInfo-roundedRectRadius="12" basicInfo-polygonSides="6" basicInfo-starPoints="5" bounding="rect(-1727.39,-1727.39,3454.78,3454.78)" text="" font-familyName="Lato" font-pixelSize="140" font-bold="0" font-underline="0" font-alignment="0" strokeStyle="0" markerStart="0" markerEnd="0" shadowEnabled="0" shadowOffsetX="0" shadowOffsetY="2" shadowBlur="4" shadowOpacity="160" blurEnabled="0" blurRadius="4" transform="matrix(1,0,0,1,1451.67,1511.47)" pers-center="0,0" pers-size="0,0" pers-start="0,0" pers-end="0,0" locked="0" mesh="" flag=""/>
            <path id="shapePath1" d="M-275.718,-215.924 L3179.06,-215.924 L3179.06,3238.86 L-275.718,3238.86 L-275.718,-215.924 Z" style="stroke:none;fill-rule:evenodd;fill:#000000;fill-opacity:1;"/>
        </g>
    </g>
    <g id="Layer2" opacity="1">
        <g id="Shape2">
            <desc shapeID="2" type="0" basicInfo-basicType="2" basicInfo-roundedRectRadius="13" basicInfo-polygonSides="6" basicInfo-starPoints="5" bounding="rect(-315.581,-132.876,631.162,265.752)" text="" font-familyName="Helvetica" font-pixelSize="20" font-bold="0" font-underline="0" font-alignment="1" strokeStyle="0" markerStart="0" markerEnd="0" shadowEnabled="0" shadowOffsetX="0" shadowOffsetY="2" shadowBlur="4" shadowOpacity="160" blurEnabled="0" blurRadius="4" transform="matrix(1.07368,0,0,1,1936.67,524.861)" pers-center="0,0" pers-size="0,0" pers-start="0,0" pers-end="0,0" locked="0" mesh="" flag=""/>
            <path id="shapePath2" d="M1597.84,404.985 C1597.84,397.805 1604.09,391.985 1611.79,391.985 L2261.55,391.985 C2269.26,391.985 2275.5,397.805 2275.5,404.985 L2275.5,644.737 C2275.5,651.917 2269.26,657.737 2261.55,657.737 L1611.79,657.737 C1604.09,657.737 1597.84,651.917 1597.84,644.737 L1597.84,404.985 Z" style="stroke:#ffffff;stroke-opacity:1;stroke-width:12;stroke-linejoin:miter;stroke-miterlimit:2;stroke-linecap:butt;fill:none;"/>
        </g>
        <g id="Shape3">
            <desc shapeID="3" type="0" basicInfo-basicType="2" basicInfo-roundedRectRadius="13" basicInfo-polygonSides="6" basicInfo-starPoints="5" bounding="rect(-315.581,-132.876,631.162,265.752)" text="" font-familyName="Helvetica" font-pixelSize="20" font-bold="0" font-underline="0" font-alignment="1" strokeStyle="0" markerStart="0" markerEnd="0" shadowEnabled="0" shadowOffsetX="0" shadowOffsetY="2" shadowBlur="4" shadowOpacity="160" blurEnabled="0" blurRadius="4" transform="matrix(1.07368,0,0,1,2096.12,1175.95)" pers-center="0,0" pers-size="0,0" pers-start="0,0" pers-end="0,0" locked="0" mesh="" flag=""/>
            <path id="shapePath3" d="M1757.29,1056.08 C1757.29,1048.9 1763.54,1043.08 1771.25,1043.08 L2421,1043.08 C2428.71,1043.08 2434.96,1048.9 2434.96,1056.08 L2434.96,1295.83 C2434.96,1303.01 2428.71,1308.83 2421,1308.83 L1771.25,1308.83 C1763.54,1308.83 1757.29,1303.01 1757.29,1295.83 L1757.29,1056.08 Z" style="stroke:#ffffff;stroke-opacity:1;stroke-width:12;stroke-linejoin:miter;stroke-miterlimit:2;stroke-linecap:butt;fill:none;"/>
        </g>
        <g id="Shape4">
            <desc shapeID="4" type="0" basicInfo-basicType="2" basicInfo-roundedRectRadius="13" basicInfo-polygonSides="6" basicInfo-starPoints="5" bounding="rect(-315.581,-132.876,631.162,265.752)" text="" font-familyName="Helvetica" font-pixelSize="20" font-bold="0" font-underline="0" font-alignment="1" strokeStyle="0" markerStart="0" markerEnd="0" shadowEnabled="0" shadowOffsetX="0" shadowOffsetY="2" shadowBlur="4" shadowOpacity="160" blurEnabled="0" blurRadius="4" transform="matrix(1.07368,0,0,1,2072.87,1866.91)" pers-center="0,0" pers-size="0,0" pers-start="0,0" pers-end="0,0" locked="0" mesh="" flag=""/>
            <path id="shapePath4" d="M1734.03,1747.03 C1734.03,1739.85 1740.28,1734.03 1747.99,1734.03 L2397.74,1734.03 C2405.45,1734.03 2411.7,1739.85 2411.7,1747.03 L2411.7,1986.79 C2411.7,1993.97 2405.45,1999.79 2397.74,1999.79 L1747.99,1999.79 C1740.28,1999.79 1734.03,1993.97 1734.03,1986.79 L1734.03,1747.03 Z" style="stroke:#ffffff;stroke-opacity:1;stroke-width:12;stroke-linejoin:miter;stroke-miterlimit:2;stroke-linecap:butt;fill:none;"/>
        </g>
    </g>
    <g id="Layer3" opacity="1">
        <g id="Shape5">
            <desc shapeID="5" type="0" basicInfo-basicType="0" basicInfo-roundedRectRadius="12" basicInfo-polygonSides="6" basicInfo-starPoints="5" bounding="rect(0,0,0,0)" text="" font-familyName="Helvetica" font-pixelSize="20" font-bold="0" font-underline="0" font-alignment="1" strokeStyle="0" markerStart="0" markerEnd="0" shadowEnabled="0" shadowOffsetX="0" shadowOffsetY="2" shadowBlur="4" shadowOpacity="160" blurEnabled="0" blurRadius="4" transform="matrix(0.828914,0,0,0.796916,2432.94,312.991)" pers-center="0,0" pers-size="0,0" pers-start="0,0" pers-end="0,0" locked="0" mesh="" flag=""/>
            <path id="shapePath5" d="M2432.94,312.991 Z" style="stroke:none;fill-rule:evenodd;fill:#fbfbfb;fill-opacity:1;"/>
        </g>
        <g id="Shape6">
            <desc shapeID="6" type="2" basicInfo-basicType="0" basicInfo-roundedRectRadius="12" basicInfo-polygonSides="6" basicInfo-starPoints="5" bounding="rect(-787.364,-236.915,1574.73,473.829)" text="Swipe up to              Like" font-familyName="Lato" font-pixelSize="140" font-bold="0" font-underline="0" font-alignment="0" strokeStyle="0" markerStart="0" markerEnd="0" shadowEnabled="0" shadowOffsetX="0" shadowOffsetY="2" shadowBlur="4" shadowOpacity="160" blurEnabled="0" blurRadius="4" transform="matrix(1,0,0,1,1615.07,518.597)" pers-center="0,0" pers-size="0,0" pers-start="0,0" pers-end="0,0" locked="0" mesh="" flag=""/>
            <path id="shapePath6" d="M891.274,488.232 C890.854,488.932 890.411,489.457 889.944,489.807 C889.478,490.157 888.871,490.332 888.124,490.332 C887.331,490.332 886.409,489.936 885.359,489.142 C884.309,488.349 882.979,487.474 881.369,486.517 C879.759,485.561 877.823,484.686 875.559,483.892 C873.296,483.099 870.554,482.702 867.334,482.702 C864.301,482.702 861.618,483.111 859.284,483.927 C856.951,484.744 855.003,485.852 853.439,487.252 C851.876,488.652 850.698,490.297 849.904,492.187 C849.111,494.077 848.714,496.119 848.714,498.312 C848.714,501.112 849.403,503.434 850.779,505.277 C852.156,507.121 853.976,508.696 856.239,510.002 C858.503,511.309 861.069,512.441 863.939,513.397 C866.809,514.354 869.749,515.346 872.759,516.372 C875.769,517.399 878.709,518.554 881.579,519.837 C884.449,521.121 887.016,522.742 889.279,524.702 C891.543,526.662 893.363,529.066 894.739,531.912 C896.116,534.759 896.804,538.259 896.804,542.412 C896.804,546.799 896.058,550.917 894.564,554.767 C893.071,558.617 890.889,561.966 888.019,564.812 C885.149,567.659 881.626,569.899 877.449,571.532 C873.273,573.166 868.524,573.982 863.204,573.982 C856.718,573.982 850.803,572.804 845.459,570.447 C840.116,568.091 835.554,564.906 831.774,560.892 L835.694,554.452 C836.068,553.939 836.523,553.507 837.059,553.157 C837.596,552.807 838.191,552.632 838.844,552.632 C839.824,552.632 840.944,553.157 842.204,554.207 C843.464,555.257 845.039,556.412 846.929,557.672 C848.819,558.932 851.106,560.087 853.789,561.137 C856.473,562.187 859.751,562.712 863.624,562.712 C866.844,562.712 869.714,562.269 872.234,561.382 C874.754,560.496 876.889,559.247 878.639,557.637 C880.389,556.027 881.731,554.102 882.664,551.862 C883.598,549.622 884.064,547.126 884.064,544.372 C884.064,541.339 883.376,538.854 881.999,536.917 C880.623,534.981 878.814,533.359 876.574,532.052 C874.334,530.746 871.779,529.637 868.909,528.727 C866.039,527.817 863.099,526.884 860.089,525.927 C857.079,524.971 854.139,523.862 851.269,522.602 C848.399,521.342 845.844,519.709 843.604,517.702 C841.364,515.696 839.556,513.187 838.179,510.177 C836.803,507.167 836.114,503.446 836.114,499.012 C836.114,495.466 836.803,492.036 838.179,488.722 C839.556,485.409 841.551,482.469 844.164,479.902 C846.778,477.336 850.009,475.282 853.859,473.742 C857.709,472.202 862.131,471.432 867.124,471.432 C872.724,471.432 877.834,472.319 882.454,474.092 C887.074,475.866 891.111,478.432 894.564,481.792 L891.274,488.232 M902.882,501.952 L912.682,501.952 C913.708,501.952 914.549,502.209 915.202,502.722 C915.855,503.236 916.299,503.842 916.532,504.542 L930.112,550.182 C930.485,551.862 930.835,553.484 931.162,555.047 C931.489,556.611 931.768,558.186 932.002,559.772 C932.375,558.186 932.795,556.611 933.262,555.047 C933.729,553.484 934.219,551.862 934.732,550.182 L949.712,504.262 C949.945,503.562 950.354,502.979 950.937,502.512 C951.52,502.046 952.255,501.812 953.142,501.812 L958.532,501.812 C959.465,501.812 960.235,502.046 960.842,502.512 C961.449,502.979 961.869,503.562 962.102,504.262 L976.732,550.182 C977.245,551.816 977.7,553.426 978.097,555.012 C978.494,556.599 978.879,558.162 979.252,559.702 C979.485,558.162 979.789,556.552 980.162,554.872 C980.535,553.192 980.932,551.629 981.352,550.182 L995.212,504.542 C995.445,503.796 995.889,503.177 996.542,502.687 C997.195,502.197 997.965,501.952 998.852,501.952 L1008.23,501.952 L985.272,572.862 L975.402,572.862 C974.189,572.862 973.349,572.069 972.882,570.482 L957.202,522.392 C956.829,521.319 956.525,520.234 956.292,519.137 C956.059,518.041 955.825,516.956 955.592,515.882 C955.359,516.956 955.125,518.052 954.892,519.172 C954.659,520.292 954.355,521.389 953.982,522.462 L938.092,570.482 C937.579,572.069 936.622,572.862 935.222,572.862 L925.842,572.862 L902.882,501.952 M1033.22,501.952 L1033.22,572.862 L1020.76,572.862 L1020.76,501.952 L1033.22,501.952 M1036.02,479.692 C1036.02,480.906 1035.77,482.037 1035.28,483.087 C1034.79,484.137 1034.14,485.071 1033.32,485.887 C1032.5,486.704 1031.56,487.346 1030.49,487.812 C1029.41,488.279 1028.27,488.512 1027.06,488.512 C1025.84,488.512 1024.71,488.279 1023.66,487.812 C1022.61,487.346 1021.68,486.704 1020.86,485.887 C1020.04,485.071 1019.4,484.137 1018.94,483.087 C1018.47,482.037 1018.24,480.906 1018.24,479.692 C1018.24,478.479 1018.47,477.324 1018.94,476.227 C1019.4,475.131 1020.04,474.174 1020.86,473.357 C1021.68,472.541 1022.61,471.899 1023.66,471.432 C1024.71,470.966 1025.84,470.732 1027.06,470.732 C1028.27,470.732 1029.41,470.966 1030.49,471.432 C1031.56,471.899 1032.5,472.541 1033.32,473.357 C1034.14,474.174 1034.79,475.131 1035.28,476.227 C1035.77,477.324 1036.02,478.479 1036.02,479.692 M1055.18,596.872 L1055.18,501.952 L1062.6,501.952 C1064.38,501.952 1065.5,502.816 1065.96,504.542 L1067.01,512.942 C1070.05,509.256 1073.51,506.292 1077.41,504.052 C1081.31,501.812 1085.8,500.692 1090.88,500.692 C1094.94,500.692 1098.63,501.474 1101.94,503.037 C1105.26,504.601 1108.08,506.911 1110.41,509.967 C1112.75,513.024 1114.54,516.816 1115.8,521.342 C1117.06,525.869 1117.69,531.072 1117.69,536.952 C1117.69,542.179 1116.99,547.044 1115.59,551.547 C1114.19,556.051 1112.19,559.947 1109.57,563.237 C1106.96,566.527 1103.75,569.117 1099.95,571.007 C1096.15,572.897 1091.86,573.842 1087.1,573.842 C1082.72,573.842 1078.97,573.119 1075.87,571.672 C1072.77,570.226 1070.02,568.172 1067.64,565.512 L1067.64,596.872 L1055.18,596.872 M1086.75,510.772 C1082.69,510.772 1079.14,511.706 1076.08,513.572 C1073.02,515.439 1070.21,518.076 1067.64,521.482 L1067.64,555.782 C1069.93,558.862 1072.44,561.032 1075.17,562.292 C1077.9,563.552 1080.94,564.182 1084.3,564.182 C1090.88,564.182 1095.95,561.826 1099.49,557.112 C1103.04,552.399 1104.81,545.679 1104.81,536.952 C1104.81,532.332 1104.41,528.366 1103.59,525.052 C1102.77,521.739 1101.59,519.021 1100.05,516.897 C1098.51,514.774 1096.62,513.222 1094.38,512.242 C1092.14,511.262 1089.6,510.772 1086.75,510.772 M1160.52,500.832 C1164.77,500.832 1168.69,501.544 1172.28,502.967 C1175.87,504.391 1178.98,506.444 1181.59,509.127 C1184.2,511.811 1186.24,515.124 1187.71,519.067 C1189.18,523.011 1189.92,527.502 1189.92,532.542 C1189.92,534.502 1189.71,535.809 1189.29,536.462 C1188.87,537.116 1188.08,537.442 1186.91,537.442 L1139.73,537.442 C1139.82,541.922 1140.43,545.819 1141.55,549.132 C1142.67,552.446 1144.21,555.211 1146.17,557.427 C1148.13,559.644 1150.46,561.301 1153.17,562.397 C1155.88,563.494 1158.91,564.042 1162.27,564.042 C1165.4,564.042 1168.09,563.681 1170.35,562.957 C1172.62,562.234 1174.57,561.452 1176.2,560.612 C1177.83,559.772 1179.2,558.991 1180.29,558.267 C1181.39,557.544 1182.34,557.182 1183.13,557.182 C1184.16,557.182 1184.95,557.579 1185.51,558.372 L1189.01,562.922 C1187.47,564.789 1185.63,566.411 1183.48,567.787 C1181.33,569.164 1179.03,570.296 1176.58,571.182 C1174.14,572.069 1171.6,572.734 1168.99,573.177 C1166.38,573.621 1163.79,573.842 1161.22,573.842 C1156.32,573.842 1151.8,573.014 1147.68,571.357 C1143.54,569.701 1139.97,567.274 1136.96,564.077 C1133.95,560.881 1131.61,556.926 1129.93,552.212 C1128.25,547.499 1127.41,542.086 1127.41,535.972 C1127.41,531.026 1128.17,526.406 1129.68,522.112 C1131.2,517.819 1133.38,514.097 1136.23,510.947 C1139.08,507.797 1142.55,505.324 1146.66,503.527 C1150.77,501.731 1155.39,500.832 1160.52,500.832 M1160.8,510.002 C1154.78,510.002 1150.04,511.741 1146.59,515.217 C1143.14,518.694 1140.99,523.512 1140.15,529.672 L1178.72,529.672 C1178.72,526.779 1178.32,524.131 1177.53,521.727 C1176.74,519.324 1175.57,517.247 1174.03,515.497 C1172.49,513.747 1170.61,512.394 1168.4,511.437 C1166.18,510.481 1163.65,510.002 1160.8,510.002 M1243.6,501.952 L1243.6,547.172 C1243.6,552.539 1244.84,556.692 1247.31,559.632 C1249.79,562.572 1253.52,564.042 1258.52,564.042 C1262.16,564.042 1265.58,563.179 1268.8,561.452 C1272.03,559.726 1274.99,557.322 1277.69,554.242 L1277.69,501.952 L1290.16,501.952 L1290.16,572.862 L1282.73,572.862 C1280.96,572.862 1279.84,571.999 1279.38,570.272 L1278.4,562.642 C1275.31,566.049 1271.86,568.791 1268.03,570.867 C1264.21,572.944 1259.82,573.982 1254.88,573.982 C1251,573.982 1247.58,573.341 1244.62,572.057 C1241.66,570.774 1239.17,568.966 1237.17,566.632 C1235.16,564.299 1233.65,561.476 1232.65,558.162 C1231.65,554.849 1231.15,551.186 1231.15,547.172 L1231.15,501.952 L1243.6,501.952 M1310.65,596.872 L1310.65,501.952 L1318.07,501.952 C1319.85,501.952 1320.97,502.816 1321.43,504.542 L1322.48,512.942 C1325.52,509.256 1328.98,506.292 1332.88,504.052 C1336.77,501.812 1341.27,500.692 1346.35,500.692 C1350.41,500.692 1354.1,501.474 1357.41,503.037 C1360.73,504.601 1363.55,506.911 1365.88,509.967 C1368.22,513.024 1370.01,516.816 1371.27,521.342 C1372.53,525.869 1373.16,531.072 1373.16,536.952 C1373.16,542.179 1372.46,547.044 1371.06,551.547 C1369.66,556.051 1367.66,559.947 1365.04,563.237 C1362.43,566.527 1359.22,569.117 1355.42,571.007 C1351.61,572.897 1347.33,573.842 1342.57,573.842 C1338.19,573.842 1334.44,573.119 1331.34,571.672 C1328.23,570.226 1325.49,568.172 1323.11,565.512 L1323.11,596.872 L1310.65,596.872 M1342.22,510.772 C1338.16,510.772 1334.6,511.706 1331.55,513.572 C1328.49,515.439 1325.68,518.076 1323.11,521.482 L1323.11,555.782 C1325.4,558.862 1327.91,561.032 1330.64,562.292 C1333.37,563.552 1336.41,564.182 1339.77,564.182 C1346.35,564.182 1351.42,561.826 1354.96,557.112 C1358.51,552.399 1360.28,545.679 1360.28,536.952 C1360.28,532.332 1359.87,528.366 1359.06,525.052 C1358.24,521.739 1357.06,519.021 1355.52,516.897 C1353.98,514.774 1352.09,513.222 1349.85,512.242 C1347.61,511.262 1345.07,510.772 1342.22,510.772 M1436.42,573.982 C1430.82,573.982 1426.52,572.419 1423.51,569.292 C1420.5,566.166 1418.99,561.662 1418.99,555.782 L1418.99,512.382 L1410.45,512.382 C1409.71,512.382 1409.08,512.161 1408.56,511.717 C1408.05,511.274 1407.79,510.586 1407.79,509.652 L1407.79,504.682 L1419.41,503.212 L1422.28,481.302 C1422.38,480.602 1422.68,480.031 1423.19,479.587 C1423.71,479.144 1424.36,478.922 1425.15,478.922 L1431.45,478.922 L1431.45,503.352 L1451.75,503.352 L1451.75,512.382 L1431.45,512.382 L1431.45,554.942 C1431.45,557.929 1432.18,560.146 1433.62,561.592 C1435.07,563.039 1436.94,563.762 1439.22,563.762 C1440.53,563.762 1441.66,563.587 1442.62,563.237 C1443.58,562.887 1444.4,562.502 1445.1,562.082 C1445.8,561.662 1446.4,561.277 1446.89,560.927 C1447.38,560.577 1447.81,560.402 1448.18,560.402 C1448.84,560.402 1449.42,560.799 1449.93,561.592 L1453.57,567.542 C1451.43,569.549 1448.84,571.124 1445.8,572.267 C1442.77,573.411 1439.64,573.982 1436.42,573.982 M1495.85,500.832 C1501.03,500.832 1505.71,501.696 1509.89,503.422 C1514.06,505.149 1517.61,507.599 1520.53,510.772 C1523.44,513.946 1525.68,517.784 1527.25,522.287 C1528.81,526.791 1529.59,531.819 1529.59,537.372 C1529.59,542.972 1528.81,548.012 1527.25,552.492 C1525.68,556.972 1523.44,560.799 1520.53,563.972 C1517.61,567.146 1514.06,569.584 1509.89,571.287 C1505.71,572.991 1501.03,573.842 1495.85,573.842 C1490.67,573.842 1485.99,572.991 1481.82,571.287 C1477.64,569.584 1474.08,567.146 1471.14,563.972 C1468.2,560.799 1465.94,556.972 1464.35,552.492 C1462.77,548.012 1461.97,542.972 1461.97,537.372 C1461.97,531.819 1462.77,526.791 1464.35,522.287 C1465.94,517.784 1468.2,513.946 1471.14,510.772 C1474.08,507.599 1477.64,505.149 1481.82,503.422 C1485.99,501.696 1490.67,500.832 1495.85,500.832 M1495.85,564.112 C1502.85,564.112 1508.08,561.767 1511.53,557.077 C1514.99,552.387 1516.71,545.842 1516.71,537.442 C1516.71,528.996 1514.99,522.416 1511.53,517.702 C1508.08,512.989 1502.85,510.632 1495.85,510.632 C1492.31,510.632 1489.23,511.239 1486.61,512.452 C1484,513.666 1481.82,515.416 1480.07,517.702 C1478.32,519.989 1477.01,522.801 1476.15,526.137 C1475.28,529.474 1474.85,533.242 1474.85,537.442 C1474.85,541.642 1475.28,545.399 1476.15,548.712 C1477.01,552.026 1478.32,554.814 1480.07,557.077 C1481.82,559.341 1484,561.079 1486.61,562.292 C1489.23,563.506 1492.31,564.112 1495.85,564.112 M1938.74,561.452 L1982.14,561.452 L1982.14,572.862 L1925.16,572.862 L1925.16,472.552 L1938.74,472.552 L1938.74,561.452 M2009.01,501.952 L2009.01,572.862 L1996.55,572.862 L1996.55,501.952 L2009.01,501.952 M2011.81,479.692 C2011.81,480.906 2011.57,482.037 2011.08,483.087 C2010.59,484.137 2009.93,485.071 2009.12,485.887 C2008.3,486.704 2007.36,487.346 2006.28,487.812 C2005.21,488.279 2004.07,488.512 2002.85,488.512 C2001.64,488.512 2000.51,488.279 1999.46,487.812 C1998.41,487.346 1997.47,486.704 1996.66,485.887 C1995.84,485.071 1995.2,484.137 1994.73,483.087 C1994.27,482.037 1994.03,480.906 1994.03,479.692 C1994.03,478.479 1994.27,477.324 1994.73,476.227 C1995.2,475.131 1995.84,474.174 1996.66,473.357 C1997.47,472.541 1998.41,471.899 1999.46,471.432 C2000.51,470.966 2001.64,470.732 2002.85,470.732 C2004.07,470.732 2005.21,470.966 2006.28,471.432 C2007.36,471.899 2008.3,472.541 2009.12,473.357 C2009.93,474.174 2010.59,475.131 2011.08,476.227 C2011.57,477.324 2011.81,478.479 2011.81,479.692 M2043.93,469.752 L2043.93,530.442 L2047.15,530.442 C2048.08,530.442 2048.85,530.314 2049.46,530.057 C2050.07,529.801 2050.74,529.276 2051.49,528.482 L2073.89,504.472 C2074.59,503.726 2075.29,503.119 2075.99,502.652 C2076.69,502.186 2077.62,501.952 2078.79,501.952 L2090.13,501.952 L2064.02,529.742 C2063.37,530.536 2062.73,531.236 2062.1,531.842 C2061.47,532.449 2060.75,532.986 2059.96,533.452 C2060.8,534.012 2061.56,534.654 2062.24,535.377 C2062.91,536.101 2063.55,536.929 2064.16,537.862 L2091.88,572.862 L2080.68,572.862 C2079.65,572.862 2078.78,572.664 2078.06,572.267 C2077.33,571.871 2076.64,571.252 2075.99,570.412 L2052.68,541.362 C2051.98,540.382 2051.28,539.741 2050.58,539.437 C2049.88,539.134 2048.83,538.982 2047.43,538.982 L2043.93,538.982 L2043.93,572.862 L2031.4,572.862 L2031.4,469.752 L2043.93,469.752 M2128.21,500.832 C2132.45,500.832 2136.37,501.544 2139.97,502.967 C2143.56,504.391 2146.66,506.444 2149.28,509.127 C2151.89,511.811 2153.93,515.124 2155.4,519.067 C2156.87,523.011 2157.61,527.502 2157.61,532.542 C2157.61,534.502 2157.4,535.809 2156.98,536.462 C2156.56,537.116 2155.76,537.442 2154.6,537.442 L2107.42,537.442 C2107.51,541.922 2108.12,545.819 2109.24,549.132 C2110.36,552.446 2111.9,555.211 2113.86,557.427 C2115.82,559.644 2118.15,561.301 2120.86,562.397 C2123.56,563.494 2126.6,564.042 2129.96,564.042 C2133.08,564.042 2135.78,563.681 2138.04,562.957 C2140.31,562.234 2142.25,561.452 2143.89,560.612 C2145.52,559.772 2146.89,558.991 2147.98,558.267 C2149.08,557.544 2150.02,557.182 2150.82,557.182 C2151.84,557.182 2152.64,557.579 2153.2,558.372 L2156.7,562.922 C2155.16,564.789 2153.31,566.411 2151.17,567.787 C2149.02,569.164 2146.72,570.296 2144.27,571.182 C2141.82,572.069 2139.29,572.734 2136.68,573.177 C2134.06,573.621 2131.47,573.842 2128.91,573.842 C2124.01,573.842 2119.49,573.014 2115.36,571.357 C2111.23,569.701 2107.66,567.274 2104.65,564.077 C2101.64,560.881 2099.3,556.926 2097.62,552.212 C2095.94,547.499 2095.1,542.086 2095.1,535.972 C2095.1,531.026 2095.86,526.406 2097.37,522.112 C2098.89,517.819 2101.07,514.097 2103.92,510.947 C2106.76,507.797 2110.24,505.324 2114.35,503.527 C2118.45,501.731 2123.07,500.832 2128.21,500.832 M2128.49,510.002 C2122.47,510.002 2117.73,511.741 2114.28,515.217 C2110.82,518.694 2108.68,523.512 2107.84,529.672 L2146.41,529.672 C2146.41,526.779 2146.01,524.131 2145.22,521.727 C2144.42,519.324 2143.26,517.247 2141.72,515.497 C2140.18,513.747 2138.3,512.394 2136.08,511.437 C2133.87,510.481 2131.33,510.002 2128.49,510.002 Z" style="stroke:none;fill-rule:nonzero;fill:#fbfbfb;fill-opacity:1;"/>
        </g>
        <g id="Shape7">
            <desc shapeID="7" type="2" basicInfo-basicType="0" basicInfo-roundedRectRadius="12" basicInfo-polygonSides="6" basicInfo-starPoints="5" bounding="rect(-850.254,-236.915,1700.51,473.829)" text="Swipe down to          Dislike" font-familyName="Lato" font-pixelSize="140" font-bold="0" font-underline="0" font-alignment="0" strokeStyle="0" markerStart="0" markerEnd="0" shadowEnabled="0" shadowOffsetX="0" shadowOffsetY="2" shadowBlur="4" shadowOpacity="160" blurEnabled="0" blurRadius="4" transform="matrix(1,0,0,1,1677.96,1182.04)" pers-center="0,0" pers-size="0,0" pers-start="0,0" pers-end="0,0" locked="0" mesh="" flag=""/>
            <path id="shapePath7" d="M891.273,1151.67 C890.853,1152.37 890.41,1152.9 889.943,1153.25 C889.476,1153.6 888.87,1153.77 888.123,1153.77 C887.33,1153.77 886.408,1153.38 885.358,1152.58 C884.308,1151.79 882.978,1150.92 881.368,1149.96 C879.758,1149 877.821,1148.13 875.558,1147.33 C873.295,1146.54 870.553,1146.14 867.333,1146.14 C864.3,1146.14 861.616,1146.55 859.283,1147.37 C856.95,1148.19 855.001,1149.29 853.438,1150.69 C851.875,1152.09 850.696,1153.74 849.903,1155.63 C849.11,1157.52 848.713,1159.56 848.713,1161.75 C848.713,1164.55 849.401,1166.88 850.778,1168.72 C852.155,1170.56 853.975,1172.14 856.238,1173.44 C858.501,1174.75 861.068,1175.88 863.938,1176.84 C866.808,1177.8 869.748,1178.79 872.758,1179.81 C875.768,1180.84 878.708,1182 881.578,1183.28 C884.448,1184.56 887.015,1186.18 889.278,1188.14 C891.541,1190.1 893.361,1192.51 894.738,1195.35 C896.115,1198.2 896.803,1201.7 896.803,1205.85 C896.803,1210.24 896.056,1214.36 894.563,1218.21 C893.07,1222.06 890.888,1225.41 888.018,1228.25 C885.148,1231.1 881.625,1233.34 877.448,1234.97 C873.271,1236.61 868.523,1237.42 863.203,1237.42 C856.716,1237.42 850.801,1236.25 845.458,1233.89 C840.115,1231.53 835.553,1228.35 831.773,1224.33 L835.693,1217.89 C836.066,1217.38 836.521,1216.95 837.058,1216.6 C837.595,1216.25 838.19,1216.07 838.843,1216.07 C839.823,1216.07 840.943,1216.6 842.203,1217.65 C843.463,1218.7 845.038,1219.85 846.928,1221.11 C848.818,1222.37 851.105,1223.53 853.788,1224.58 C856.471,1225.63 859.75,1226.15 863.623,1226.15 C866.843,1226.15 869.713,1225.71 872.233,1224.82 C874.753,1223.94 876.888,1222.69 878.638,1221.08 C880.388,1219.47 881.73,1217.54 882.663,1215.3 C883.596,1213.06 884.063,1210.57 884.063,1207.81 C884.063,1204.78 883.375,1202.3 881.998,1200.36 C880.621,1198.42 878.813,1196.8 876.573,1195.49 C874.333,1194.19 871.778,1193.08 868.908,1192.17 C866.038,1191.26 863.098,1190.33 860.088,1189.37 C857.078,1188.41 854.138,1187.3 851.268,1186.04 C848.398,1184.78 845.843,1183.15 843.603,1181.14 C841.363,1179.14 839.555,1176.63 838.178,1173.62 C836.801,1170.61 836.113,1166.89 836.113,1162.45 C836.113,1158.91 836.801,1155.48 838.178,1152.16 C839.555,1148.85 841.55,1145.91 844.163,1143.34 C846.776,1140.78 850.008,1138.72 853.858,1137.18 C857.708,1135.64 862.13,1134.87 867.123,1134.87 C872.723,1134.87 877.833,1135.76 882.453,1137.53 C887.073,1139.31 891.11,1141.87 894.563,1145.23 L891.273,1151.67 M902.88,1165.39 L912.68,1165.39 C913.707,1165.39 914.547,1165.65 915.2,1166.16 C915.854,1166.68 916.297,1167.28 916.53,1167.98 L930.11,1213.62 C930.484,1215.3 930.834,1216.93 931.16,1218.49 C931.487,1220.05 931.767,1221.63 932,1223.21 C932.374,1221.63 932.794,1220.05 933.26,1218.49 C933.727,1216.93 934.217,1215.3 934.73,1213.62 L949.71,1167.7 C949.944,1167 950.352,1166.42 950.935,1165.95 C951.519,1165.49 952.254,1165.25 953.14,1165.25 L958.53,1165.25 C959.464,1165.25 960.234,1165.49 960.84,1165.95 C961.447,1166.42 961.867,1167 962.1,1167.7 L976.73,1213.62 C977.244,1215.26 977.699,1216.87 978.095,1218.45 C978.492,1220.04 978.877,1221.6 979.25,1223.14 C979.484,1221.6 979.787,1219.99 980.16,1218.31 C980.534,1216.63 980.93,1215.07 981.35,1213.62 L995.21,1167.98 C995.444,1167.24 995.887,1166.62 996.54,1166.13 C997.194,1165.64 997.964,1165.39 998.85,1165.39 L1008.23,1165.39 L985.27,1236.3 L975.4,1236.3 C974.187,1236.3 973.347,1235.51 972.88,1233.92 L957.2,1185.83 C956.827,1184.76 956.524,1183.68 956.29,1182.58 C956.057,1181.48 955.824,1180.4 955.59,1179.32 C955.357,1180.4 955.124,1181.49 954.89,1182.61 C954.657,1183.73 954.354,1184.83 953.98,1185.9 L938.09,1233.92 C937.577,1235.51 936.62,1236.3 935.22,1236.3 L925.84,1236.3 L902.88,1165.39 M1033.21,1165.39 L1033.21,1236.3 L1020.75,1236.3 L1020.75,1165.39 L1033.21,1165.39 M1036.01,1143.13 C1036.01,1144.35 1035.77,1145.48 1035.28,1146.53 C1034.79,1147.58 1034.14,1148.51 1033.32,1149.33 C1032.5,1150.15 1031.56,1150.79 1030.48,1151.25 C1029.41,1151.72 1028.27,1151.95 1027.05,1151.95 C1025.84,1151.95 1024.71,1151.72 1023.66,1151.25 C1022.61,1150.79 1021.68,1150.15 1020.86,1149.33 C1020.04,1148.51 1019.4,1147.58 1018.93,1146.53 C1018.47,1145.48 1018.23,1144.35 1018.23,1143.13 C1018.23,1141.92 1018.47,1140.77 1018.93,1139.67 C1019.4,1138.57 1020.04,1137.62 1020.86,1136.8 C1021.68,1135.98 1022.61,1135.34 1023.66,1134.87 C1024.71,1134.41 1025.84,1134.17 1027.05,1134.17 C1028.27,1134.17 1029.41,1134.41 1030.48,1134.87 C1031.56,1135.34 1032.5,1135.98 1033.32,1136.8 C1034.14,1137.62 1034.79,1138.57 1035.28,1139.67 C1035.77,1140.77 1036.01,1141.92 1036.01,1143.13 M1055.18,1260.31 L1055.18,1165.39 L1062.6,1165.39 C1064.38,1165.39 1065.5,1166.26 1065.96,1167.98 L1067.01,1176.38 C1070.05,1172.7 1073.51,1169.73 1077.41,1167.49 C1081.3,1165.25 1085.8,1164.13 1090.88,1164.13 C1094.94,1164.13 1098.63,1164.92 1101.94,1166.48 C1105.26,1168.04 1108.08,1170.35 1110.41,1173.41 C1112.75,1176.47 1114.54,1180.26 1115.8,1184.78 C1117.06,1189.31 1117.69,1194.51 1117.69,1200.39 C1117.69,1205.62 1116.99,1210.49 1115.59,1214.99 C1114.19,1219.49 1112.19,1223.39 1109.57,1226.68 C1106.96,1229.97 1103.75,1232.56 1099.95,1234.45 C1096.14,1236.34 1091.86,1237.28 1087.1,1237.28 C1082.72,1237.28 1078.97,1236.56 1075.87,1235.11 C1072.76,1233.67 1070.02,1231.61 1067.64,1228.95 L1067.64,1260.31 L1055.18,1260.31 M1086.75,1174.21 C1082.69,1174.21 1079.13,1175.15 1076.08,1177.01 C1073.02,1178.88 1070.21,1181.52 1067.64,1184.92 L1067.64,1219.22 C1069.93,1222.3 1072.44,1224.47 1075.17,1225.73 C1077.9,1226.99 1080.94,1227.62 1084.3,1227.62 C1090.88,1227.62 1095.95,1225.27 1099.49,1220.55 C1103.04,1215.84 1104.81,1209.12 1104.81,1200.39 C1104.81,1195.77 1104.4,1191.81 1103.59,1188.49 C1102.77,1185.18 1101.59,1182.46 1100.05,1180.34 C1098.51,1178.22 1096.62,1176.66 1094.38,1175.68 C1092.14,1174.7 1089.6,1174.21 1086.75,1174.21 M1160.52,1164.27 C1164.77,1164.27 1168.69,1164.99 1172.28,1166.41 C1175.87,1167.83 1178.98,1169.89 1181.59,1172.57 C1184.2,1175.25 1186.24,1178.57 1187.71,1182.51 C1189.18,1186.45 1189.92,1190.94 1189.92,1195.98 C1189.92,1197.94 1189.71,1199.25 1189.29,1199.9 C1188.87,1200.56 1188.08,1200.88 1186.91,1200.88 L1139.73,1200.88 C1139.82,1205.36 1140.43,1209.26 1141.55,1212.57 C1142.67,1215.89 1144.21,1218.65 1146.17,1220.87 C1148.13,1223.09 1150.46,1224.74 1153.17,1225.84 C1155.88,1226.94 1158.91,1227.48 1162.27,1227.48 C1165.4,1227.48 1168.09,1227.12 1170.35,1226.4 C1172.62,1225.68 1174.57,1224.89 1176.2,1224.05 C1177.83,1223.21 1179.2,1222.43 1180.29,1221.71 C1181.39,1220.99 1182.34,1220.62 1183.13,1220.62 C1184.16,1220.62 1184.95,1221.02 1185.51,1221.81 L1189.01,1226.36 C1187.47,1228.23 1185.63,1229.85 1183.48,1231.23 C1181.33,1232.61 1179.03,1233.74 1176.58,1234.62 C1174.13,1235.51 1171.6,1236.18 1168.99,1236.62 C1166.38,1237.06 1163.79,1237.28 1161.22,1237.28 C1156.32,1237.28 1151.8,1236.46 1147.67,1234.8 C1143.54,1233.14 1139.97,1230.72 1136.96,1227.52 C1133.95,1224.32 1131.61,1220.37 1129.93,1215.65 C1128.25,1210.94 1127.41,1205.53 1127.41,1199.41 C1127.41,1194.47 1128.17,1189.85 1129.68,1185.55 C1131.2,1181.26 1133.38,1177.54 1136.23,1174.39 C1139.08,1171.24 1142.55,1168.77 1146.66,1166.97 C1150.77,1165.17 1155.39,1164.27 1160.52,1164.27 M1160.8,1173.44 C1154.78,1173.44 1150.04,1175.18 1146.59,1178.66 C1143.14,1182.14 1140.99,1186.95 1140.15,1193.11 L1178.72,1193.11 C1178.72,1190.22 1178.32,1187.57 1177.53,1185.17 C1176.74,1182.77 1175.57,1180.69 1174.03,1178.94 C1172.49,1177.19 1170.61,1175.84 1168.39,1174.88 C1166.18,1173.92 1163.65,1173.44 1160.8,1173.44 M1282.73,1236.3 C1280.96,1236.3 1279.84,1235.44 1279.37,1233.71 L1278.25,1225.1 C1275.22,1228.79 1271.76,1231.74 1267.86,1233.96 C1263.96,1236.18 1259.49,1237.28 1254.45,1237.28 C1250.39,1237.28 1246.71,1236.5 1243.39,1234.94 C1240.08,1233.38 1237.26,1231.08 1234.92,1228.04 C1232.59,1225.01 1230.79,1221.23 1229.53,1216.7 C1228.27,1212.18 1227.64,1206.97 1227.64,1201.09 C1227.64,1195.87 1228.34,1191 1229.74,1186.5 C1231.14,1182 1233.16,1178.09 1235.8,1174.77 C1238.44,1171.46 1241.64,1168.86 1245.42,1166.97 C1249.2,1165.08 1253.5,1164.13 1258.3,1164.13 C1262.64,1164.13 1266.35,1164.87 1269.43,1166.34 C1272.51,1167.81 1275.27,1169.87 1277.69,1172.53 L1277.69,1133.19 L1290.15,1133.19 L1290.15,1236.3 L1282.73,1236.3 M1258.58,1227.2 C1262.64,1227.2 1266.2,1226.27 1269.26,1224.4 C1272.32,1222.54 1275.13,1219.9 1277.69,1216.49 L1277.69,1182.19 C1275.41,1179.11 1272.9,1176.96 1270.17,1175.72 C1267.44,1174.48 1264.42,1173.86 1261.1,1173.86 C1254.48,1173.86 1249.39,1176.22 1245.84,1180.93 C1242.3,1185.65 1240.52,1192.37 1240.52,1201.09 C1240.52,1205.71 1240.92,1209.67 1241.71,1212.96 C1242.51,1216.25 1243.67,1218.96 1245.21,1221.08 C1246.75,1223.2 1248.64,1224.75 1250.88,1225.73 C1253.12,1226.71 1255.69,1227.2 1258.58,1227.2 M1339.77,1164.27 C1344.95,1164.27 1349.63,1165.14 1353.81,1166.86 C1357.99,1168.59 1361.53,1171.04 1364.45,1174.21 C1367.37,1177.39 1369.61,1181.23 1371.17,1185.73 C1372.73,1190.23 1373.51,1195.26 1373.51,1200.81 C1373.51,1206.41 1372.73,1211.45 1371.17,1215.93 C1369.61,1220.41 1367.37,1224.24 1364.45,1227.41 C1361.53,1230.59 1357.99,1233.03 1353.81,1234.73 C1349.63,1236.43 1344.95,1237.28 1339.77,1237.28 C1334.59,1237.28 1329.92,1236.43 1325.74,1234.73 C1321.56,1233.03 1318,1230.59 1315.06,1227.41 C1312.12,1224.24 1309.86,1220.41 1308.27,1215.93 C1306.69,1211.45 1305.89,1206.41 1305.89,1200.81 C1305.89,1195.26 1306.69,1190.23 1308.27,1185.73 C1309.86,1181.23 1312.12,1177.39 1315.06,1174.21 C1318,1171.04 1321.56,1168.59 1325.74,1166.86 C1329.92,1165.14 1334.59,1164.27 1339.77,1164.27 M1339.77,1227.55 C1346.77,1227.55 1352,1225.21 1355.45,1220.52 C1358.91,1215.83 1360.63,1209.28 1360.63,1200.88 C1360.63,1192.44 1358.91,1185.86 1355.45,1181.14 C1352,1176.43 1346.77,1174.07 1339.77,1174.07 C1336.23,1174.07 1333.15,1174.68 1330.53,1175.89 C1327.92,1177.11 1325.74,1178.86 1323.99,1181.14 C1322.24,1183.43 1320.93,1186.24 1320.07,1189.58 C1319.21,1192.92 1318.77,1196.68 1318.77,1200.88 C1318.77,1205.08 1319.21,1208.84 1320.07,1212.15 C1320.93,1215.47 1322.24,1218.26 1323.99,1220.52 C1325.74,1222.78 1327.92,1224.52 1330.53,1225.73 C1333.15,1226.95 1336.23,1227.55 1339.77,1227.55 M1379.66,1165.39 L1389.46,1165.39 C1390.49,1165.39 1391.33,1165.65 1391.98,1166.16 C1392.64,1166.68 1393.08,1167.28 1393.31,1167.98 L1406.89,1213.62 C1407.27,1215.3 1407.61,1216.93 1407.94,1218.49 C1408.27,1220.05 1408.55,1221.63 1408.78,1223.21 C1409.16,1221.63 1409.57,1220.05 1410.04,1218.49 C1410.51,1216.93 1411,1215.3 1411.51,1213.62 L1426.49,1167.7 C1426.72,1167 1427.13,1166.42 1427.72,1165.95 C1428.3,1165.49 1429.03,1165.25 1429.92,1165.25 L1435.31,1165.25 C1436.24,1165.25 1437.02,1165.49 1437.62,1165.95 C1438.23,1166.42 1438.65,1167 1438.88,1167.7 L1453.51,1213.62 C1454.03,1215.26 1454.48,1216.87 1454.88,1218.45 C1455.27,1220.04 1455.66,1221.6 1456.03,1223.14 C1456.27,1221.6 1456.57,1219.99 1456.94,1218.31 C1457.31,1216.63 1457.71,1215.07 1458.13,1213.62 L1471.99,1167.98 C1472.22,1167.24 1472.67,1166.62 1473.32,1166.13 C1473.97,1165.64 1474.74,1165.39 1475.63,1165.39 L1485.01,1165.39 L1462.05,1236.3 L1452.18,1236.3 C1450.97,1236.3 1450.13,1235.51 1449.66,1233.92 L1433.98,1185.83 C1433.61,1184.76 1433.3,1183.68 1433.07,1182.58 C1432.84,1181.48 1432.6,1180.4 1432.37,1179.32 C1432.14,1180.4 1431.91,1181.49 1431.67,1182.61 C1431.44,1183.73 1431.14,1184.83 1430.76,1185.9 L1414.87,1233.92 C1414.36,1235.51 1413.4,1236.3 1412,1236.3 L1402.62,1236.3 L1379.66,1165.39 M1496.14,1236.3 L1496.14,1165.39 L1503.56,1165.39 C1505.33,1165.39 1506.45,1166.26 1506.92,1167.98 L1507.9,1175.68 C1510.98,1172.28 1514.42,1169.52 1518.22,1167.42 C1522.02,1165.32 1526.42,1164.27 1531.42,1164.27 C1535.29,1164.27 1538.71,1164.92 1541.67,1166.2 C1544.63,1167.48 1547.11,1169.3 1549.09,1171.66 C1551.07,1174.02 1552.58,1176.85 1553.61,1180.16 C1554.63,1183.48 1555.15,1187.14 1555.15,1191.15 L1555.15,1236.3 L1542.69,1236.3 L1542.69,1191.15 C1542.69,1185.79 1541.46,1181.62 1539.01,1178.66 C1536.56,1175.7 1532.82,1174.21 1527.78,1174.21 C1524.09,1174.21 1520.65,1175.1 1517.45,1176.87 C1514.25,1178.65 1511.3,1181.05 1508.6,1184.08 L1508.6,1236.3 L1496.14,1236.3 M1622.47,1237.42 C1616.87,1237.42 1612.56,1235.86 1609.55,1232.73 C1606.54,1229.61 1605.04,1225.1 1605.04,1219.22 L1605.04,1175.82 L1596.5,1175.82 C1595.75,1175.82 1595.12,1175.6 1594.61,1175.16 C1594.1,1174.72 1593.84,1174.03 1593.84,1173.09 L1593.84,1168.12 L1605.46,1166.65 L1608.33,1144.74 C1608.42,1144.04 1608.73,1143.47 1609.24,1143.03 C1609.75,1142.59 1610.41,1142.36 1611.2,1142.36 L1617.5,1142.36 L1617.5,1166.79 L1637.8,1166.79 L1637.8,1175.82 L1617.5,1175.82 L1617.5,1218.38 C1617.5,1221.37 1618.22,1223.59 1619.67,1225.03 C1621.12,1226.48 1622.98,1227.2 1625.27,1227.2 C1626.58,1227.2 1627.71,1227.03 1628.66,1226.68 C1629.62,1226.33 1630.45,1225.94 1631.15,1225.52 C1631.85,1225.1 1632.44,1224.72 1632.93,1224.37 C1633.42,1224.02 1633.86,1223.84 1634.23,1223.84 C1634.88,1223.84 1635.47,1224.24 1635.98,1225.03 L1639.62,1230.98 C1637.47,1232.99 1634.88,1234.57 1631.85,1235.71 C1628.82,1236.85 1625.69,1237.42 1622.47,1237.42 M1681.9,1164.27 C1687.08,1164.27 1691.76,1165.14 1695.93,1166.86 C1700.11,1168.59 1703.66,1171.04 1706.57,1174.21 C1709.49,1177.39 1711.73,1181.23 1713.29,1185.73 C1714.86,1190.23 1715.64,1195.26 1715.64,1200.81 C1715.64,1206.41 1714.86,1211.45 1713.29,1215.93 C1711.73,1220.41 1709.49,1224.24 1706.57,1227.41 C1703.66,1230.59 1700.11,1233.03 1695.93,1234.73 C1691.76,1236.43 1687.08,1237.28 1681.9,1237.28 C1676.72,1237.28 1672.04,1236.43 1667.86,1234.73 C1663.69,1233.03 1660.13,1230.59 1657.19,1227.41 C1654.25,1224.24 1651.99,1220.41 1650.4,1215.93 C1648.81,1211.45 1648.02,1206.41 1648.02,1200.81 C1648.02,1195.26 1648.81,1190.23 1650.4,1185.73 C1651.99,1181.23 1654.25,1177.39 1657.19,1174.21 C1660.13,1171.04 1663.69,1168.59 1667.86,1166.86 C1672.04,1165.14 1676.72,1164.27 1681.9,1164.27 M1681.9,1227.55 C1688.9,1227.55 1694.13,1225.21 1697.58,1220.52 C1701.03,1215.83 1702.76,1209.28 1702.76,1200.88 C1702.76,1192.44 1701.03,1185.86 1697.58,1181.14 C1694.13,1176.43 1688.9,1174.07 1681.9,1174.07 C1678.35,1174.07 1675.27,1174.68 1672.66,1175.89 C1670.05,1177.11 1667.86,1178.86 1666.11,1181.14 C1664.36,1183.43 1663.06,1186.24 1662.19,1189.58 C1661.33,1192.92 1660.9,1196.68 1660.9,1200.88 C1660.9,1205.08 1661.33,1208.84 1662.19,1212.15 C1663.06,1215.47 1664.36,1218.26 1666.11,1220.52 C1667.86,1222.78 1670.05,1224.52 1672.66,1225.73 C1675.27,1226.95 1678.35,1227.55 1681.9,1227.55 M2090.08,1186.18 C2090.08,1193.7 2088.89,1200.53 2086.51,1206.69 C2084.13,1212.85 2080.77,1218.13 2076.43,1222.51 C2072.09,1226.9 2066.89,1230.3 2060.82,1232.7 C2054.76,1235.1 2048.04,1236.3 2040.66,1236.3 L2003.14,1236.3 L2003.14,1135.99 L2040.66,1135.99 C2048.04,1135.99 2054.76,1137.2 2060.82,1139.6 C2066.89,1142 2072.09,1145.41 2076.43,1149.82 C2080.77,1154.23 2084.13,1159.51 2086.51,1165.67 C2088.89,1171.83 2090.08,1178.67 2090.08,1186.18 M2076.15,1186.18 C2076.15,1180.02 2075.31,1174.52 2073.63,1169.66 C2071.95,1164.81 2069.57,1160.7 2066.49,1157.34 C2063.41,1153.98 2059.68,1151.42 2055.29,1149.64 C2050.91,1147.87 2046.03,1146.98 2040.66,1146.98 L2016.79,1146.98 L2016.79,1225.31 L2040.66,1225.31 C2046.03,1225.31 2050.91,1224.43 2055.29,1222.65 C2059.68,1220.88 2063.41,1218.33 2066.49,1214.99 C2069.57,1211.65 2071.95,1207.56 2073.63,1202.7 C2075.31,1197.85 2076.15,1192.34 2076.15,1186.18 M2120.45,1165.39 L2120.45,1236.3 L2107.99,1236.3 L2107.99,1165.39 L2120.45,1165.39 M2123.25,1143.13 C2123.25,1144.35 2123,1145.48 2122.51,1146.53 C2122.02,1147.58 2121.37,1148.51 2120.55,1149.33 C2119.74,1150.15 2118.79,1150.79 2117.72,1151.25 C2116.65,1151.72 2115.5,1151.95 2114.29,1151.95 C2113.08,1151.95 2111.94,1151.72 2110.89,1151.25 C2109.84,1150.79 2108.91,1150.15 2108.09,1149.33 C2107.28,1148.51 2106.64,1147.58 2106.17,1146.53 C2105.7,1145.48 2105.47,1144.35 2105.47,1143.13 C2105.47,1141.92 2105.7,1140.77 2106.17,1139.67 C2106.64,1138.57 2107.28,1137.62 2108.09,1136.8 C2108.91,1135.98 2109.84,1135.34 2110.89,1134.87 C2111.94,1134.41 2113.08,1134.17 2114.29,1134.17 C2115.5,1134.17 2116.65,1134.41 2117.72,1134.87 C2118.79,1135.34 2119.74,1135.98 2120.55,1136.8 C2121.37,1137.62 2122.02,1138.57 2122.51,1139.67 C2123,1140.77 2123.25,1141.92 2123.25,1143.13 M2183.02,1177.08 C2182.46,1178.11 2181.59,1178.62 2180.43,1178.62 C2179.73,1178.62 2178.93,1178.37 2178.05,1177.85 C2177.16,1177.34 2176.08,1176.77 2174.79,1176.14 C2173.51,1175.51 2171.98,1174.93 2170.21,1174.39 C2168.43,1173.85 2166.33,1173.58 2163.91,1173.58 C2161.81,1173.58 2159.92,1173.85 2158.24,1174.39 C2156.56,1174.93 2155.12,1175.66 2153.93,1176.59 C2152.74,1177.53 2151.83,1178.61 2151.2,1179.85 C2150.57,1181.09 2150.26,1182.43 2150.26,1183.87 C2150.26,1185.69 2150.78,1187.21 2151.83,1188.42 C2152.88,1189.64 2154.27,1190.69 2156,1191.57 C2157.72,1192.46 2159.68,1193.24 2161.88,1193.92 C2164.07,1194.6 2166.32,1195.32 2168.63,1196.09 C2170.94,1196.86 2173.19,1197.71 2175.39,1198.64 C2177.58,1199.58 2179.54,1200.74 2181.27,1202.14 C2182.99,1203.54 2184.38,1205.26 2185.43,1207.29 C2186.48,1209.32 2187.01,1211.76 2187.01,1214.6 C2187.01,1217.87 2186.42,1220.89 2185.26,1223.67 C2184.09,1226.45 2182.36,1228.85 2180.08,1230.88 C2177.79,1232.91 2174.99,1234.51 2171.68,1235.67 C2168.36,1236.84 2164.54,1237.42 2160.2,1237.42 C2155.25,1237.42 2150.77,1236.62 2146.76,1235.01 C2142.74,1233.4 2139.34,1231.33 2136.54,1228.81 L2139.48,1224.05 C2139.85,1223.45 2140.29,1222.98 2140.81,1222.65 C2141.32,1222.33 2142,1222.16 2142.84,1222.16 C2143.68,1222.16 2144.56,1222.49 2145.5,1223.14 C2146.43,1223.8 2147.56,1224.52 2148.89,1225.31 C2150.22,1226.11 2151.83,1226.83 2153.72,1227.48 C2155.61,1228.14 2157.98,1228.46 2160.83,1228.46 C2163.25,1228.46 2165.38,1228.15 2167.2,1227.52 C2169.02,1226.89 2170.53,1226.04 2171.75,1224.96 C2172.96,1223.89 2173.86,1222.65 2174.44,1221.25 C2175.03,1219.85 2175.32,1218.36 2175.32,1216.77 C2175.32,1214.81 2174.79,1213.19 2173.74,1211.91 C2172.69,1210.63 2171.3,1209.53 2169.58,1208.62 C2167.85,1207.71 2165.88,1206.92 2163.66,1206.24 C2161.45,1205.56 2159.18,1204.85 2156.87,1204.1 C2154.56,1203.36 2152.3,1202.51 2150.08,1201.55 C2147.87,1200.59 2145.89,1199.39 2144.17,1197.94 C2142.44,1196.5 2141.05,1194.71 2140,1192.59 C2138.95,1190.47 2138.43,1187.89 2138.43,1184.85 C2138.43,1182.15 2138.99,1179.55 2140.11,1177.05 C2141.23,1174.55 2142.86,1172.36 2145.01,1170.47 C2147.15,1168.58 2149.79,1167.07 2152.92,1165.95 C2156.04,1164.83 2159.61,1164.27 2163.63,1164.27 C2168.29,1164.27 2172.48,1165.01 2176.19,1166.48 C2179.9,1167.95 2183.11,1169.97 2185.82,1172.53 L2183.02,1177.08 M2217.03,1133.19 L2217.03,1236.3 L2204.57,1236.3 L2204.57,1133.19 L2217.03,1133.19 M2252.86,1165.39 L2252.86,1236.3 L2240.4,1236.3 L2240.4,1165.39 L2252.86,1165.39 M2255.66,1143.13 C2255.66,1144.35 2255.41,1145.48 2254.92,1146.53 C2254.43,1147.58 2253.78,1148.51 2252.96,1149.33 C2252.14,1150.15 2251.2,1150.79 2250.13,1151.25 C2249.05,1151.72 2247.91,1151.95 2246.7,1151.95 C2245.48,1151.95 2244.35,1151.72 2243.3,1151.25 C2242.25,1150.79 2241.32,1150.15 2240.5,1149.33 C2239.68,1148.51 2239.04,1147.58 2238.58,1146.53 C2238.11,1145.48 2237.88,1144.35 2237.88,1143.13 C2237.88,1141.92 2238.11,1140.77 2238.58,1139.67 C2239.04,1138.57 2239.68,1137.62 2240.5,1136.8 C2241.32,1135.98 2242.25,1135.34 2243.3,1134.87 C2244.35,1134.41 2245.48,1134.17 2246.7,1134.17 C2247.91,1134.17 2249.05,1134.41 2250.13,1134.87 C2251.2,1135.34 2252.14,1135.98 2252.96,1136.8 C2253.78,1137.62 2254.43,1138.57 2254.92,1139.67 C2255.41,1140.77 2255.66,1141.92 2255.66,1143.13 M2287.77,1133.19 L2287.77,1193.88 L2290.99,1193.88 C2291.93,1193.88 2292.7,1193.76 2293.3,1193.5 C2293.91,1193.24 2294.59,1192.72 2295.33,1191.92 L2317.73,1167.91 C2318.43,1167.17 2319.13,1166.56 2319.83,1166.09 C2320.53,1165.63 2321.47,1165.39 2322.63,1165.39 L2333.97,1165.39 L2307.86,1193.18 C2307.21,1193.98 2306.57,1194.68 2305.94,1195.28 C2305.31,1195.89 2304.6,1196.43 2303.8,1196.89 C2304.64,1197.45 2305.4,1198.1 2306.08,1198.82 C2306.76,1199.54 2307.4,1200.37 2308,1201.3 L2335.72,1236.3 L2324.52,1236.3 C2323.5,1236.3 2322.62,1236.11 2321.9,1235.71 C2321.18,1235.31 2320.49,1234.69 2319.83,1233.85 L2296.52,1204.8 C2295.82,1203.82 2295.12,1203.18 2294.42,1202.88 C2293.72,1202.58 2292.67,1202.42 2291.27,1202.42 L2287.77,1202.42 L2287.77,1236.3 L2275.24,1236.3 L2275.24,1133.19 L2287.77,1133.19 M2372.05,1164.27 C2376.3,1164.27 2380.22,1164.99 2383.81,1166.41 C2387.4,1167.83 2390.51,1169.89 2393.12,1172.57 C2395.73,1175.25 2397.77,1178.57 2399.24,1182.51 C2400.71,1186.45 2401.45,1190.94 2401.45,1195.98 C2401.45,1197.94 2401.24,1199.25 2400.82,1199.9 C2400.4,1200.56 2399.61,1200.88 2398.44,1200.88 L2351.26,1200.88 C2351.35,1205.36 2351.96,1209.26 2353.08,1212.57 C2354.2,1215.89 2355.74,1218.65 2357.7,1220.87 C2359.66,1223.09 2361.99,1224.74 2364.7,1225.84 C2367.41,1226.94 2370.44,1227.48 2373.8,1227.48 C2376.93,1227.48 2379.62,1227.12 2381.88,1226.4 C2384.15,1225.68 2386.1,1224.89 2387.73,1224.05 C2389.36,1223.21 2390.73,1222.43 2391.82,1221.71 C2392.92,1220.99 2393.87,1220.62 2394.66,1220.62 C2395.69,1220.62 2396.48,1221.02 2397.04,1221.81 L2400.54,1226.36 C2399,1228.23 2397.16,1229.85 2395.01,1231.23 C2392.86,1232.61 2390.56,1233.74 2388.11,1234.62 C2385.66,1235.51 2383.13,1236.18 2380.52,1236.62 C2377.91,1237.06 2375.32,1237.28 2372.75,1237.28 C2367.85,1237.28 2363.33,1236.46 2359.2,1234.8 C2355.07,1233.14 2351.5,1230.72 2348.49,1227.52 C2345.48,1224.32 2343.14,1220.37 2341.46,1215.65 C2339.78,1210.94 2338.94,1205.53 2338.94,1199.41 C2338.94,1194.47 2339.7,1189.85 2341.21,1185.55 C2342.73,1181.26 2344.91,1177.54 2347.76,1174.39 C2350.61,1171.24 2354.08,1168.77 2358.19,1166.97 C2362.3,1165.17 2366.92,1164.27 2372.05,1164.27 M2372.33,1173.44 C2366.31,1173.44 2361.57,1175.18 2358.12,1178.66 C2354.67,1182.14 2352.52,1186.95 2351.68,1193.11 L2390.25,1193.11 C2390.25,1190.22 2389.85,1187.57 2389.06,1185.17 C2388.27,1182.77 2387.1,1180.69 2385.56,1178.94 C2384.02,1177.19 2382.14,1175.84 2379.92,1174.88 C2377.71,1173.92 2375.18,1173.44 2372.33,1173.44 Z" style="stroke:none;fill-rule:nonzero;fill:#fbfbfb;fill-opacity:1;"/>
        </g>
        <g id="Shape8">
            <desc shapeID="8" type="2" basicInfo-basicType="0" basicInfo-roundedRectRadius="12" basicInfo-polygonSides="6" basicInfo-starPoints="5" bounding="rect(-765.677,-236.915,1531.35,473.829)" text="Double tap for            Info" font-familyName="Lato" font-pixelSize="140" font-bold="0" font-underline="0" font-alignment="0" strokeStyle="0" markerStart="0" markerEnd="0" shadowEnabled="0" shadowOffsetX="0" shadowOffsetY="2" shadowBlur="4" shadowOpacity="160" blurEnabled="0" blurRadius="4" transform="matrix(1,0,0,1,1585.27,1873.4)" pers-center="0,0" pers-size="0,0" pers-start="0,0" pers-end="0,0" locked="0" mesh="" flag=""/>
            <path id="shapePath8" d="M918.722,1877.54 C918.722,1885.06 917.532,1891.89 915.152,1898.05 C912.772,1904.21 909.412,1909.49 905.072,1913.87 C900.732,1918.26 895.529,1921.66 889.462,1924.06 C883.395,1926.46 876.675,1927.66 869.302,1927.66 L831.782,1927.66 L831.782,1827.35 L869.302,1827.35 C876.675,1827.35 883.395,1828.56 889.462,1830.96 C895.529,1833.36 900.732,1836.77 905.072,1841.18 C909.412,1845.59 912.772,1850.87 915.152,1857.03 C917.532,1863.19 918.722,1870.03 918.722,1877.54 M904.792,1877.54 C904.792,1871.38 903.952,1865.88 902.272,1861.02 C900.592,1856.17 898.212,1852.06 895.132,1848.7 C892.052,1845.34 888.319,1842.78 883.932,1841 C879.545,1839.23 874.669,1838.34 869.302,1838.34 L845.432,1838.34 L845.432,1916.67 L869.302,1916.67 C874.669,1916.67 879.545,1915.79 883.932,1914.01 C888.319,1912.24 892.052,1909.69 895.132,1906.35 C898.212,1903.01 900.592,1898.92 902.272,1894.06 C903.952,1889.21 904.792,1883.7 904.792,1877.54 M963.928,1855.63 C969.108,1855.63 973.787,1856.5 977.963,1858.22 C982.14,1859.95 985.687,1862.4 988.603,1865.57 C991.52,1868.75 993.76,1872.59 995.323,1877.09 C996.887,1881.59 997.668,1886.62 997.668,1892.17 C997.668,1897.77 996.887,1902.81 995.323,1907.29 C993.76,1911.77 991.52,1915.6 988.603,1918.77 C985.687,1921.95 982.14,1924.39 977.963,1926.09 C973.787,1927.79 969.108,1928.64 963.928,1928.64 C958.748,1928.64 954.07,1927.79 949.893,1926.09 C945.717,1924.39 942.158,1921.95 939.218,1918.77 C936.278,1915.6 934.015,1911.77 932.428,1907.29 C930.842,1902.81 930.048,1897.77 930.048,1892.17 C930.048,1886.62 930.842,1881.59 932.428,1877.09 C934.015,1872.59 936.278,1868.75 939.218,1865.57 C942.158,1862.4 945.717,1859.95 949.893,1858.22 C954.07,1856.5 958.748,1855.63 963.928,1855.63 M963.928,1918.91 C970.928,1918.91 976.155,1916.57 979.608,1911.88 C983.062,1907.19 984.788,1900.64 984.788,1892.24 C984.788,1883.8 983.062,1877.22 979.608,1872.5 C976.155,1867.79 970.928,1865.43 963.928,1865.43 C960.382,1865.43 957.302,1866.04 954.688,1867.25 C952.075,1868.47 949.893,1870.22 948.143,1872.5 C946.393,1874.79 945.087,1877.6 944.223,1880.94 C943.36,1884.28 942.928,1888.04 942.928,1892.24 C942.928,1896.44 943.36,1900.2 944.223,1903.51 C945.087,1906.83 946.393,1909.62 948.143,1911.88 C949.893,1914.14 952.075,1915.88 954.688,1917.09 C957.302,1918.31 960.382,1918.91 963.928,1918.91 M1023.84,1856.75 L1023.84,1901.97 C1023.84,1907.34 1025.07,1911.49 1027.55,1914.43 C1030.02,1917.37 1033.75,1918.84 1038.75,1918.84 C1042.39,1918.84 1045.82,1917.98 1049.04,1916.25 C1052.26,1914.53 1055.22,1912.12 1057.93,1909.04 L1057.93,1856.75 L1070.39,1856.75 L1070.39,1927.66 L1062.97,1927.66 C1061.19,1927.66 1060.07,1926.8 1059.61,1925.07 L1058.63,1917.44 C1055.55,1920.85 1052.09,1923.59 1048.27,1925.67 C1044.44,1927.75 1040.05,1928.78 1035.11,1928.78 C1031.23,1928.78 1027.81,1928.14 1024.85,1926.86 C1021.89,1925.58 1019.4,1923.77 1017.4,1921.43 C1015.39,1919.1 1013.88,1916.28 1012.88,1912.96 C1011.88,1909.65 1011.38,1905.99 1011.38,1901.97 L1011.38,1856.75 L1023.84,1856.75 M1091.3,1927.66 L1091.3,1824.55 L1103.83,1824.55 L1103.83,1866.97 C1106.77,1863.57 1110.15,1860.83 1113.95,1858.75 C1117.75,1856.67 1122.1,1855.63 1127,1855.63 C1131.11,1855.63 1134.82,1856.4 1138.13,1857.94 C1141.45,1859.48 1144.27,1861.78 1146.6,1864.84 C1148.94,1867.9 1150.73,1871.68 1151.99,1876.18 C1153.25,1880.68 1153.88,1885.87 1153.88,1891.75 C1153.88,1896.98 1153.18,1901.85 1151.78,1906.35 C1150.38,1910.85 1148.37,1914.75 1145.73,1918.04 C1143.09,1921.33 1139.87,1923.92 1136.07,1925.81 C1132.27,1927.7 1127.98,1928.64 1123.22,1928.64 C1118.65,1928.64 1114.77,1927.76 1111.57,1925.98 C1108.37,1924.21 1105.58,1921.74 1103.2,1918.56 L1102.57,1925 C1102.2,1926.78 1101.13,1927.66 1099.35,1927.66 L1091.3,1927.66 M1122.94,1865.57 C1118.88,1865.57 1115.33,1866.51 1112.27,1868.37 C1109.21,1870.24 1106.4,1872.88 1103.83,1876.28 L1103.83,1910.58 C1106.07,1913.66 1108.56,1915.83 1111.29,1917.09 C1114.02,1918.35 1117.06,1918.98 1120.42,1918.98 C1127.05,1918.98 1132.14,1916.63 1135.68,1911.91 C1139.23,1907.2 1141,1900.48 1141,1891.75 C1141,1887.13 1140.6,1883.17 1139.78,1879.85 C1138.96,1876.54 1137.78,1873.82 1136.24,1871.7 C1134.7,1869.58 1132.81,1868.02 1130.57,1867.04 C1128.33,1866.06 1125.79,1865.57 1122.94,1865.57 M1182.99,1824.55 L1182.99,1927.66 L1170.53,1927.66 L1170.53,1824.55 L1182.99,1824.55 M1233.03,1855.63 C1237.28,1855.63 1241.2,1856.35 1244.79,1857.77 C1248.39,1859.19 1251.49,1861.25 1254.1,1863.93 C1256.72,1866.61 1258.76,1869.93 1260.23,1873.87 C1261.7,1877.81 1262.43,1882.3 1262.43,1887.34 C1262.43,1889.3 1262.22,1890.61 1261.8,1891.26 C1261.38,1891.92 1260.59,1892.24 1259.42,1892.24 L1212.24,1892.24 C1212.34,1896.72 1212.94,1900.62 1214.06,1903.93 C1215.18,1907.25 1216.72,1910.01 1218.68,1912.23 C1220.64,1914.45 1222.98,1916.1 1225.68,1917.2 C1228.39,1918.3 1231.42,1918.84 1234.78,1918.84 C1237.91,1918.84 1240.6,1918.48 1242.87,1917.76 C1245.13,1917.04 1247.08,1916.25 1248.71,1915.41 C1250.35,1914.57 1251.71,1913.79 1252.81,1913.07 C1253.9,1912.35 1254.85,1911.98 1255.64,1911.98 C1256.67,1911.98 1257.46,1912.38 1258.02,1913.17 L1261.52,1917.72 C1259.98,1919.59 1258.14,1921.21 1255.99,1922.59 C1253.85,1923.97 1251.55,1925.1 1249.1,1925.98 C1246.65,1926.87 1244.12,1927.54 1241.5,1927.98 C1238.89,1928.42 1236.3,1928.64 1233.73,1928.64 C1228.83,1928.64 1224.32,1927.82 1220.19,1926.16 C1216.06,1924.5 1212.49,1922.08 1209.48,1918.88 C1206.47,1915.68 1204.12,1911.73 1202.44,1907.01 C1200.76,1902.3 1199.92,1896.89 1199.92,1890.77 C1199.92,1885.83 1200.68,1881.21 1202.2,1876.91 C1203.71,1872.62 1205.9,1868.9 1208.74,1865.75 C1211.59,1862.6 1215.07,1860.13 1219.17,1858.33 C1223.28,1856.53 1227.9,1855.63 1233.03,1855.63 M1233.31,1864.8 C1227.29,1864.8 1222.56,1866.54 1219.1,1870.02 C1215.65,1873.5 1213.5,1878.31 1212.66,1884.47 L1251.23,1884.47 C1251.23,1881.58 1250.84,1878.93 1250.04,1876.53 C1249.25,1874.13 1248.08,1872.05 1246.54,1870.3 C1245,1868.55 1243.12,1867.2 1240.91,1866.24 C1238.69,1865.28 1236.16,1864.8 1233.31,1864.8 M1326.83,1928.78 C1321.23,1928.78 1316.92,1927.22 1313.91,1924.09 C1310.9,1920.97 1309.4,1916.46 1309.4,1910.58 L1309.4,1867.18 L1300.86,1867.18 C1300.11,1867.18 1299.48,1866.96 1298.97,1866.52 C1298.45,1866.08 1298.2,1865.39 1298.2,1864.45 L1298.2,1859.48 L1309.82,1858.01 L1312.69,1836.1 C1312.78,1835.4 1313.08,1834.83 1313.6,1834.39 C1314.11,1833.95 1314.76,1833.72 1315.56,1833.72 L1321.86,1833.72 L1321.86,1858.15 L1342.16,1858.15 L1342.16,1867.18 L1321.86,1867.18 L1321.86,1909.74 C1321.86,1912.73 1322.58,1914.95 1324.03,1916.39 C1325.47,1917.84 1327.34,1918.56 1329.63,1918.56 C1330.93,1918.56 1332.07,1918.39 1333.02,1918.04 C1333.98,1917.69 1334.81,1917.3 1335.51,1916.88 C1336.21,1916.46 1336.8,1916.08 1337.29,1915.73 C1337.78,1915.38 1338.21,1915.2 1338.59,1915.2 C1339.24,1915.2 1339.82,1915.6 1340.34,1916.39 L1343.98,1922.34 C1341.83,1924.35 1339.24,1925.93 1336.21,1927.07 C1333.17,1928.21 1330.05,1928.78 1326.83,1928.78 M1409.64,1927.66 L1404.11,1927.66 C1402.89,1927.66 1401.91,1927.48 1401.17,1927.1 C1400.42,1926.73 1399.93,1925.94 1399.7,1924.72 L1398.3,1918.14 C1396.43,1919.82 1394.61,1921.33 1392.84,1922.66 C1391.06,1923.99 1389.2,1925.11 1387.24,1926.02 C1385.28,1926.93 1383.19,1927.62 1380.97,1928.08 C1378.75,1928.55 1376.29,1928.78 1373.59,1928.78 C1370.83,1928.78 1368.25,1928.4 1365.85,1927.63 C1363.45,1926.86 1361.36,1925.7 1359.59,1924.16 C1357.81,1922.62 1356.4,1920.68 1355.35,1918.32 C1354.3,1915.96 1353.78,1913.17 1353.78,1909.95 C1353.78,1907.15 1354.55,1904.46 1356.09,1901.87 C1357.63,1899.28 1360.11,1896.98 1363.54,1894.97 C1366.97,1892.97 1371.46,1891.32 1377.02,1890.04 C1382.57,1888.76 1389.36,1888.02 1397.39,1887.83 L1397.39,1882.3 C1397.39,1876.8 1396.21,1872.63 1393.85,1869.81 C1391.49,1866.99 1388.01,1865.57 1383.39,1865.57 C1380.35,1865.57 1377.8,1865.96 1375.72,1866.73 C1373.64,1867.5 1371.85,1868.36 1370.33,1869.32 C1368.81,1870.28 1367.51,1871.14 1366.41,1871.91 C1365.31,1872.68 1364.23,1873.06 1363.16,1873.06 C1362.32,1873.06 1361.58,1872.84 1360.95,1872.4 C1360.32,1871.96 1359.82,1871.41 1359.45,1870.75 L1357.21,1866.76 C1361.13,1862.98 1365.35,1860.16 1369.88,1858.29 C1374.4,1856.43 1379.42,1855.49 1384.93,1855.49 C1388.89,1855.49 1392.42,1856.15 1395.5,1857.45 C1398.58,1858.76 1401.17,1860.58 1403.27,1862.91 C1405.37,1865.25 1406.95,1868.07 1408.03,1871.38 C1409.1,1874.7 1409.64,1878.34 1409.64,1882.3 L1409.64,1927.66 M1377.3,1920.03 C1379.49,1920.03 1381.5,1919.81 1383.32,1919.37 C1385.14,1918.93 1386.85,1918.3 1388.46,1917.48 C1390.07,1916.66 1391.61,1915.67 1393.08,1914.5 C1394.55,1913.34 1395.99,1912.01 1397.39,1910.51 L1397.39,1895.74 C1391.65,1895.93 1386.77,1896.39 1382.76,1897.11 C1378.74,1897.83 1375.48,1898.78 1372.96,1899.94 C1370.44,1901.11 1368.6,1902.49 1367.46,1904.07 C1366.32,1905.66 1365.75,1907.43 1365.75,1909.39 C1365.75,1911.26 1366.05,1912.87 1366.66,1914.22 C1367.26,1915.58 1368.08,1916.69 1369.11,1917.55 C1370.13,1918.41 1371.35,1919.04 1372.75,1919.44 C1374.15,1919.84 1375.66,1920.03 1377.3,1920.03 M1428.53,1951.67 L1428.53,1856.75 L1435.95,1856.75 C1437.72,1856.75 1438.84,1857.62 1439.31,1859.34 L1440.36,1867.74 C1443.39,1864.06 1446.85,1861.09 1450.75,1858.85 C1454.65,1856.61 1459.14,1855.49 1464.23,1855.49 C1468.29,1855.49 1471.97,1856.28 1475.29,1857.84 C1478.6,1859.4 1481.42,1861.71 1483.76,1864.77 C1486.09,1867.83 1487.89,1871.62 1489.15,1876.14 C1490.41,1880.67 1491.04,1885.87 1491.04,1891.75 C1491.04,1896.98 1490.34,1901.85 1488.94,1906.35 C1487.54,1910.85 1485.53,1914.75 1482.92,1918.04 C1480.3,1921.33 1477.09,1923.92 1473.29,1925.81 C1469.49,1927.7 1465.21,1928.64 1460.45,1928.64 C1456.06,1928.64 1452.31,1927.92 1449.21,1926.47 C1446.11,1925.03 1443.37,1922.97 1440.99,1920.31 L1440.99,1951.67 L1428.53,1951.67 M1460.1,1865.57 C1456.04,1865.57 1452.48,1866.51 1449.42,1868.37 C1446.36,1870.24 1443.55,1872.88 1440.99,1876.28 L1440.99,1910.58 C1443.27,1913.66 1445.78,1915.83 1448.51,1917.09 C1451.24,1918.35 1454.29,1918.98 1457.65,1918.98 C1464.23,1918.98 1469.29,1916.63 1472.84,1911.91 C1476.38,1907.2 1478.16,1900.48 1478.16,1891.75 C1478.16,1887.13 1477.75,1883.17 1476.93,1879.85 C1476.11,1876.54 1474.94,1873.82 1473.4,1871.7 C1471.86,1869.58 1469.97,1868.02 1467.73,1867.04 C1465.49,1866.06 1462.94,1865.57 1460.1,1865.57 M1535.61,1927.66 L1535.61,1867.39 L1527.77,1866.48 C1526.79,1866.25 1525.98,1865.89 1525.35,1865.4 C1524.72,1864.91 1524.41,1864.2 1524.41,1863.26 L1524.41,1858.15 L1535.61,1858.15 L1535.61,1851.29 C1535.61,1847.23 1536.18,1843.63 1537.32,1840.48 C1538.46,1837.33 1540.1,1834.67 1542.22,1832.5 C1544.34,1830.33 1546.9,1828.68 1549.89,1827.56 C1552.87,1826.44 1556.23,1825.88 1559.97,1825.88 C1563.14,1825.88 1566.08,1826.35 1568.79,1827.28 L1568.51,1833.51 C1568.46,1834.45 1568.06,1835.01 1567.32,1835.19 C1566.57,1835.38 1565.52,1835.47 1564.17,1835.47 L1562,1835.47 C1559.85,1835.47 1557.9,1835.75 1556.15,1836.31 C1554.4,1836.87 1552.9,1837.78 1551.64,1839.04 C1550.38,1840.3 1549.41,1841.96 1548.73,1844.01 C1548.05,1846.07 1547.72,1848.61 1547.72,1851.64 L1547.72,1858.15 L1568.23,1858.15 L1568.23,1867.18 L1548.14,1867.18 L1548.14,1927.66 L1535.61,1927.66 M1608.68,1855.63 C1613.86,1855.63 1618.54,1856.5 1622.71,1858.22 C1626.89,1859.95 1630.44,1862.4 1633.35,1865.57 C1636.27,1868.75 1638.51,1872.59 1640.07,1877.09 C1641.64,1881.59 1642.42,1886.62 1642.42,1892.17 C1642.42,1897.77 1641.64,1902.81 1640.07,1907.29 C1638.51,1911.77 1636.27,1915.6 1633.35,1918.77 C1630.44,1921.95 1626.89,1924.39 1622.71,1926.09 C1618.54,1927.79 1613.86,1928.64 1608.68,1928.64 C1603.5,1928.64 1598.82,1927.79 1594.64,1926.09 C1590.47,1924.39 1586.91,1921.95 1583.97,1918.77 C1581.03,1915.6 1578.77,1911.77 1577.18,1907.29 C1575.59,1902.81 1574.8,1897.77 1574.8,1892.17 C1574.8,1886.62 1575.59,1881.59 1577.18,1877.09 C1578.77,1872.59 1581.03,1868.75 1583.97,1865.57 C1586.91,1862.4 1590.47,1859.95 1594.64,1858.22 C1598.82,1856.5 1603.5,1855.63 1608.68,1855.63 M1608.68,1918.91 C1615.68,1918.91 1620.91,1916.57 1624.36,1911.88 C1627.81,1907.19 1629.54,1900.64 1629.54,1892.24 C1629.54,1883.8 1627.81,1877.22 1624.36,1872.5 C1620.91,1867.79 1615.68,1865.43 1608.68,1865.43 C1605.13,1865.43 1602.05,1866.04 1599.44,1867.25 C1596.82,1868.47 1594.64,1870.22 1592.89,1872.5 C1591.14,1874.79 1589.84,1877.6 1588.97,1880.94 C1588.11,1884.28 1587.68,1888.04 1587.68,1892.24 C1587.68,1896.44 1588.11,1900.2 1588.97,1903.51 C1589.84,1906.83 1591.14,1909.62 1592.89,1911.88 C1594.64,1914.14 1596.82,1915.88 1599.44,1917.09 C1602.05,1918.31 1605.13,1918.91 1608.68,1918.91 M1657.81,1927.66 L1657.81,1856.75 L1664.95,1856.75 C1666.3,1856.75 1667.23,1857.01 1667.75,1857.52 C1668.26,1858.04 1668.61,1858.92 1668.8,1860.18 L1669.64,1871.24 C1672.06,1866.3 1675.06,1862.44 1678.63,1859.66 C1682.2,1856.88 1686.39,1855.49 1691.2,1855.49 C1693.16,1855.49 1694.93,1855.72 1696.52,1856.16 C1698.1,1856.6 1699.57,1857.22 1700.93,1858.01 L1699.32,1867.32 C1698.99,1868.49 1698.27,1869.07 1697.15,1869.07 C1696.49,1869.07 1695.49,1868.85 1694.14,1868.41 C1692.78,1867.97 1690.89,1867.74 1688.47,1867.74 C1684.13,1867.74 1680.5,1869 1677.58,1871.52 C1674.66,1874.04 1672.23,1877.71 1670.27,1882.51 L1670.27,1927.66 L1657.81,1927.66 M2056.46,1927.66 L2042.88,1927.66 L2042.88,1827.35 L2056.46,1827.35 L2056.46,1927.66 M2081.37,1927.66 L2081.37,1856.75 L2088.79,1856.75 C2090.56,1856.75 2091.68,1857.62 2092.15,1859.34 L2093.13,1867.04 C2096.21,1863.64 2099.65,1860.88 2103.45,1858.78 C2107.26,1856.68 2111.66,1855.63 2116.65,1855.63 C2120.52,1855.63 2123.94,1856.28 2126.9,1857.56 C2129.87,1858.84 2132.34,1860.66 2134.32,1863.02 C2136.31,1865.38 2137.81,1868.21 2138.84,1871.52 C2139.87,1874.84 2140.38,1878.5 2140.38,1882.51 L2140.38,1927.66 L2127.92,1927.66 L2127.92,1882.51 C2127.92,1877.15 2126.69,1872.98 2124.24,1870.02 C2121.79,1867.06 2118.05,1865.57 2113.01,1865.57 C2109.32,1865.57 2105.88,1866.46 2102.68,1868.23 C2099.49,1870.01 2096.54,1872.41 2093.83,1875.44 L2093.83,1927.66 L2081.37,1927.66 M2162,1927.66 L2162,1867.39 L2154.16,1866.48 C2153.18,1866.25 2152.37,1865.89 2151.74,1865.4 C2151.11,1864.91 2150.8,1864.2 2150.8,1863.26 L2150.8,1858.15 L2162,1858.15 L2162,1851.29 C2162,1847.23 2162.57,1843.63 2163.71,1840.48 C2164.86,1837.33 2166.49,1834.67 2168.61,1832.5 C2170.74,1830.33 2173.29,1828.68 2176.28,1827.56 C2179.26,1826.44 2182.62,1825.88 2186.36,1825.88 C2189.53,1825.88 2192.47,1826.35 2195.18,1827.28 L2194.9,1833.51 C2194.85,1834.45 2194.45,1835.01 2193.71,1835.19 C2192.96,1835.38 2191.91,1835.47 2190.56,1835.47 L2188.39,1835.47 C2186.24,1835.47 2184.29,1835.75 2182.54,1836.31 C2180.79,1836.87 2179.29,1837.78 2178.03,1839.04 C2176.77,1840.3 2175.8,1841.96 2175.12,1844.01 C2174.45,1846.07 2174.11,1848.61 2174.11,1851.64 L2174.11,1858.15 L2194.62,1858.15 L2194.62,1867.18 L2174.53,1867.18 L2174.53,1927.66 L2162,1927.66 M2235.07,1855.63 C2240.25,1855.63 2244.93,1856.5 2249.1,1858.22 C2253.28,1859.95 2256.83,1862.4 2259.74,1865.57 C2262.66,1868.75 2264.9,1872.59 2266.46,1877.09 C2268.03,1881.59 2268.81,1886.62 2268.81,1892.17 C2268.81,1897.77 2268.03,1902.81 2266.46,1907.29 C2264.9,1911.77 2262.66,1915.6 2259.74,1918.77 C2256.83,1921.95 2253.28,1924.39 2249.1,1926.09 C2244.93,1927.79 2240.25,1928.64 2235.07,1928.64 C2229.89,1928.64 2225.21,1927.79 2221.03,1926.09 C2216.86,1924.39 2213.3,1921.95 2210.36,1918.77 C2207.42,1915.6 2205.16,1911.77 2203.57,1907.29 C2201.98,1902.81 2201.19,1897.77 2201.19,1892.17 C2201.19,1886.62 2201.98,1881.59 2203.57,1877.09 C2205.16,1872.59 2207.42,1868.75 2210.36,1865.57 C2213.3,1862.4 2216.86,1859.95 2221.03,1858.22 C2225.21,1856.5 2229.89,1855.63 2235.07,1855.63 M2235.07,1918.91 C2242.07,1918.91 2247.3,1916.57 2250.75,1911.88 C2254.2,1907.19 2255.93,1900.64 2255.93,1892.24 C2255.93,1883.8 2254.2,1877.22 2250.75,1872.5 C2247.3,1867.79 2242.07,1865.43 2235.07,1865.43 C2231.52,1865.43 2228.44,1866.04 2225.83,1867.25 C2223.22,1868.47 2221.03,1870.22 2219.28,1872.5 C2217.53,1874.79 2216.23,1877.6 2215.36,1880.94 C2214.5,1884.28 2214.07,1888.04 2214.07,1892.24 C2214.07,1896.44 2214.5,1900.2 2215.36,1903.51 C2216.23,1906.83 2217.53,1909.62 2219.28,1911.88 C2221.03,1914.14 2223.22,1915.88 2225.83,1917.09 C2228.44,1918.31 2231.52,1918.91 2235.07,1918.91 Z" style="stroke:none;fill-rule:nonzero;fill:#fbfbfb;fill-opacity:1;"/>
        </g>
    </g>
    <g id="Layer4" opacity="1">
        <g id="Shape9">
            <desc shapeID="9" type="0" basicInfo-basicType="0" basicInfo-roundedRectRadius="12" basicInfo-polygonSides="6" basicInfo-starPoints="5" bounding="rect(-62.5708,-67.7887,125.142,135.578)" text="" font-familyName="" font-pixelSize="20" font-bold="0" font-underline="0" font-alignment="1" strokeStyle="0" markerStart="0" markerEnd="0" shadowEnabled="0" shadowOffsetX="0" shadowOffsetY="2" shadowBlur="4" shadowOpacity="160" blurEnabled="0" blurRadius="4" transform="matrix(1.41652,0,0,1.50051,1795.95,518.218)" pers-center="0,0" pers-size="0,0" pers-start="0,0" pers-end="0,0" locked="0" mesh="" flag=""/>
            <path id="shapePath9" d="M1878.93,530.199 C1882.7,524.167 1884.58,517.526 1884.58,510.272 C1884.58,501.877 1881.66,494.584 1875.81,488.384 C1869.96,482.19 1863.04,479.094 1855.04,479.094 L1834.73,479.094 C1838.42,471.026 1840.27,463.201 1840.27,455.622 C1840.27,446.086 1838.92,438.507 1836.23,432.883 C1833.53,427.258 1829.61,423.122 1824.45,420.472 C1819.3,417.824 1813.49,416.5 1807.03,416.5 C1803.1,416.5 1799.64,418.008 1796.64,421.024 C1793.33,424.447 1790.95,428.85 1789.49,434.229 C1788.02,439.607 1786.85,444.763 1785.96,449.693 C1785.08,454.624 1783.71,458.108 1781.87,460.146 C1778.1,464.466 1773.98,469.683 1769.52,475.795 C1761.75,486.471 1756.48,492.788 1753.71,494.745 L1722.08,494.745 C1718.01,494.745 1714.53,496.275 1711.64,499.329 C1708.76,502.385 1707.31,506.074 1707.31,510.394 L1707.31,588.633 C1707.31,592.956 1708.76,596.643 1711.64,599.698 C1714.53,602.753 1718.01,604.283 1722.08,604.283 L1755.32,604.283 C1757.01,604.283 1762.32,605.916 1771.25,609.174 C1780.71,612.678 1789.04,615.348 1796.23,617.183 C1803.43,619.019 1810.72,619.937 1818.11,619.937 L1828.84,619.937 L1832.99,619.937 C1843.84,619.937 1852.57,616.651 1859.19,610.091 C1865.81,603.528 1869.08,594.585 1869,583.254 C1873.61,576.976 1875.92,569.726 1875.92,561.496 C1875.92,559.703 1875.81,557.95 1875.58,556.237 C1878.5,550.779 1879.96,544.91 1879.96,538.635 C1879.96,535.7 1879.62,532.888 1878.93,530.199 M1734.66,586.313 C1733.2,587.858 1731.47,588.637 1729.47,588.637 C1727.47,588.637 1725.74,587.858 1724.28,586.313 C1722.82,584.767 1722.08,582.932 1722.08,580.81 C1722.08,578.693 1722.82,576.857 1724.28,575.312 C1725.74,573.762 1727.47,572.987 1729.47,572.987 C1731.47,572.987 1733.2,573.762 1734.66,575.312 C1736.13,576.857 1736.86,578.693 1736.86,580.81 C1736.86,582.932 1736.13,584.767 1734.66,586.313 M1867.33,520.301 C1865.68,524.051 1863.62,525.966 1861.16,526.047 C1862.31,527.433 1863.27,529.37 1864.04,531.853 C1864.81,534.341 1865.19,536.601 1865.19,538.639 C1865.19,544.26 1863.15,549.111 1859.08,553.184 C1860.46,555.792 1861.16,558.604 1861.16,561.62 C1861.16,564.635 1860.49,567.63 1859.14,570.604 C1857.79,573.579 1855.96,575.717 1853.66,577.02 C1854.04,579.467 1854.23,581.748 1854.23,583.866 C1854.23,597.473 1846.84,604.279 1832.07,604.279 L1818.11,604.279 C1808.03,604.279 1794.87,601.307 1778.64,595.359 C1778.25,595.193 1777.14,594.768 1775.29,594.076 C1773.44,593.381 1772.08,592.872 1771.19,592.547 C1770.31,592.217 1768.96,591.752 1767.15,591.14 C1765.35,590.528 1763.89,590.079 1762.77,589.793 C1761.65,589.511 1760.38,589.245 1758.96,588.999 C1757.54,588.756 1756.33,588.633 1755.32,588.633 L1751.63,588.633 L1751.63,510.397 L1755.32,510.397 C1756.55,510.397 1757.92,510.029 1759.42,509.297 C1760.92,508.563 1762.46,507.463 1764.04,505.995 C1765.61,504.528 1767.1,503.082 1768.48,501.655 C1769.87,500.229 1771.41,498.436 1773.1,496.277 C1774.79,494.116 1776.12,492.384 1777.08,491.08 C1778.04,489.776 1779.25,488.105 1780.72,486.067 C1782.18,484.031 1783.06,482.808 1783.37,482.4 C1787.6,476.859 1790.56,473.151 1792.26,471.275 C1795.41,467.772 1797.7,463.309 1799.12,457.889 C1800.55,452.467 1801.72,447.354 1802.64,442.546 C1803.57,437.737 1805.03,434.272 1807.03,432.154 C1814.41,432.154 1819.34,434.068 1821.8,437.899 C1824.26,441.73 1825.49,447.639 1825.49,455.626 C1825.49,460.434 1823.64,466.975 1819.95,475.247 C1816.26,483.519 1814.41,490.02 1814.41,494.746 L1855.04,494.746 C1858.89,494.746 1862.31,496.314 1865.31,499.453 C1868.31,502.591 1869.81,506.237 1869.81,510.395 C1869.81,513.247 1868.99,516.549 1867.33,520.301 Z" style="stroke:none;fill-rule:evenodd;fill:#ffffff;fill-opacity:1;"/>
        </g>
        <g id="Shape10">
            <desc shapeID="10" type="0" basicInfo-basicType="0" basicInfo-roundedRectRadius="12" basicInfo-polygonSides="6" basicInfo-starPoints="5" bounding="rect(-768,-831.998,1536,1664)" text="" font-familyName="" font-pixelSize="20" font-bold="0" font-underline="0" font-alignment="1" strokeStyle="0" markerStart="0" markerEnd="0" shadowEnabled="0" shadowOffsetX="0" shadowOffsetY="2" shadowBlur="4" shadowOpacity="160" blurEnabled="0" blurRadius="4" transform="matrix(0.115407,0,0,0.122257,1884.58,1182.6)" pers-center="0,0" pers-size="0,0" pers-start="0,0" pers-end="0,0" locked="0" mesh="" flag=""/>
            <path id="shapePath10" d="M1825.49,1120 C1825.49,1117.88 1824.76,1116.05 1823.3,1114.5 C1821.84,1112.95 1820.11,1112.18 1818.1,1112.18 C1816.1,1112.18 1814.37,1112.95 1812.91,1114.5 C1811.45,1116.05 1810.72,1117.88 1810.72,1120 C1810.72,1122.12 1811.45,1123.96 1812.91,1125.5 C1814.37,1127.05 1816.1,1127.83 1818.1,1127.83 C1820.11,1127.83 1821.84,1127.05 1823.3,1125.5 C1824.76,1123.96 1825.49,1122.12 1825.49,1120 M1958.44,1190.42 C1958.44,1187.57 1957.61,1184.27 1955.96,1180.52 C1954.3,1176.77 1952.25,1174.85 1949.78,1174.77 C1950.94,1173.39 1951.9,1171.45 1952.67,1168.97 C1953.44,1166.48 1953.82,1164.22 1953.82,1162.18 C1953.82,1156.56 1951.78,1151.71 1947.71,1147.63 C1949.09,1145.02 1949.78,1142.21 1949.78,1139.2 C1949.78,1136.18 1949.11,1133.19 1947.76,1130.21 C1946.42,1127.24 1944.59,1125.1 1942.28,1123.79 C1942.67,1121.35 1942.86,1119.06 1942.86,1116.95 C1942.86,1110.02 1940.97,1104.88 1937.2,1101.54 C1933.44,1098.2 1928.2,1096.53 1921.51,1096.53 L1906.74,1096.53 C1896.66,1096.53 1883.5,1099.5 1867.27,1105.45 C1866.88,1105.62 1865.77,1106.04 1863.92,1106.74 C1862.07,1107.43 1860.71,1107.94 1859.82,1108.27 C1858.94,1108.59 1857.59,1109.06 1855.79,1109.67 C1853.98,1110.28 1852.52,1110.73 1851.4,1111.02 C1850.28,1111.3 1849.01,1111.57 1847.59,1111.81 C1846.17,1112.06 1844.96,1112.18 1843.96,1112.18 L1840.26,1112.18 L1840.26,1190.42 L1843.96,1190.42 C1845.19,1190.42 1846.55,1190.79 1848.05,1191.52 C1849.55,1192.26 1851.09,1193.36 1852.67,1194.82 C1854.25,1196.29 1855.73,1197.74 1857.11,1199.16 C1858.5,1200.59 1860.04,1202.38 1861.73,1204.54 C1863.42,1206.7 1864.75,1208.43 1865.71,1209.74 C1866.67,1211.04 1867.88,1212.71 1869.35,1214.75 C1870.81,1216.79 1871.69,1218.01 1872,1218.42 C1876.23,1223.96 1879.19,1227.67 1880.89,1229.54 C1884.04,1233.05 1886.33,1237.51 1887.75,1242.93 C1889.18,1248.35 1890.35,1253.47 1891.27,1258.28 C1892.2,1263.08 1893.66,1266.55 1895.66,1268.67 C1903.04,1268.67 1907.97,1266.75 1910.43,1262.92 C1912.89,1259.09 1914.12,1253.18 1914.12,1245.19 C1914.12,1240.39 1912.28,1233.84 1908.58,1225.57 C1904.89,1217.3 1903.04,1210.8 1903.04,1206.07 L1943.67,1206.07 C1947.51,1206.07 1950.94,1204.5 1953.94,1201.36 C1956.94,1198.23 1958.44,1194.58 1958.44,1190.42 M1973.21,1190.55 C1973.21,1198.94 1970.29,1206.23 1964.44,1212.43 C1958.59,1218.62 1951.67,1221.72 1943.67,1221.72 L1923.36,1221.72 C1927.05,1229.79 1928.9,1237.61 1928.9,1245.19 C1928.9,1254.81 1927.55,1262.39 1924.86,1267.93 C1922.16,1273.56 1918.24,1277.69 1913.08,1280.34 C1907.93,1282.99 1902.12,1284.32 1895.66,1284.32 C1891.73,1284.32 1888.27,1282.81 1885.27,1279.79 C1882.66,1277.1 1880.58,1273.76 1879.04,1269.77 C1877.5,1265.77 1876.52,1262.09 1876.1,1258.7 C1875.67,1255.32 1875,1251.88 1874.08,1248.37 C1873.15,1244.87 1871.96,1242.26 1870.5,1240.55 C1866.81,1236.47 1862.69,1231.3 1858.15,1225.02 C1850.38,1214.34 1845.11,1208.03 1842.34,1206.07 L1810.72,1206.07 C1806.64,1206.07 1803.16,1204.54 1800.27,1201.49 C1797.39,1198.43 1795.95,1194.74 1795.95,1190.42 L1795.95,1112.18 C1795.95,1107.86 1797.39,1104.17 1800.27,1101.11 C1803.16,1098.06 1806.64,1096.53 1810.72,1096.53 L1843.96,1096.53 C1845.65,1096.53 1850.96,1094.9 1859.88,1091.64 C1869.73,1088.05 1878.31,1085.36 1885.62,1083.57 C1892.93,1081.78 1900.62,1080.88 1908.7,1080.88 L1921.63,1080.88 C1932.4,1080.88 1941.11,1084.1 1947.76,1090.54 C1954.42,1096.98 1957.71,1105.78 1957.63,1116.95 L1957.63,1117.56 C1962.25,1123.83 1964.56,1131.09 1964.56,1139.32 C1964.56,1141.11 1964.44,1142.86 1964.21,1144.58 C1967.13,1150.04 1968.6,1155.91 1968.6,1162.18 C1968.6,1165.12 1968.25,1167.93 1967.56,1170.62 C1971.33,1176.65 1973.21,1183.29 1973.21,1190.55 Z" style="stroke:none;fill-rule:evenodd;fill:#ffffff;fill-opacity:1;"/>
        </g>
        <g id="Shape11">
            <desc shapeID="11" type="0" basicInfo-basicType="0" basicInfo-roundedRectRadius="12" basicInfo-polygonSides="6" basicInfo-starPoints="5" bounding="rect(-768,-768,1536,1536)" text="" font-familyName="" font-pixelSize="20" font-bold="0" font-underline="0" font-alignment="1" strokeStyle="0" markerStart="0" markerEnd="0" shadowEnabled="0" shadowOffsetX="0" shadowOffsetY="2" shadowBlur="4" shadowOpacity="160" blurEnabled="0" blurRadius="4" transform="matrix(0.115407,0,0,0.119689,1920.06,1864.73)" pers-center="0,0" pers-size="0,0" pers-start="0,0" pers-end="0,0" locked="0" mesh="" flag=""/>
            <path id="shapePath11" d="M1949.61,1922.18 L1949.61,1914.52 C1949.61,1913.4 1949.26,1912.48 1948.57,1911.76 C1947.87,1911.04 1946.99,1910.69 1945.91,1910.69 L1934.83,1910.69 L1934.83,1853.24 C1934.83,1852.12 1934.49,1851.2 1933.79,1850.48 C1933.1,1849.76 1932.22,1849.41 1931.14,1849.41 L1894.21,1849.41 C1893.13,1849.41 1892.25,1849.76 1891.56,1850.48 C1890.86,1851.2 1890.52,1852.12 1890.52,1853.24 L1890.52,1860.9 C1890.52,1862.01 1890.86,1862.93 1891.56,1863.65 C1892.25,1864.37 1893.13,1864.73 1894.21,1864.73 L1905.29,1864.73 L1905.29,1910.69 L1894.21,1910.69 C1893.13,1910.69 1892.25,1911.04 1891.56,1911.76 C1890.86,1912.48 1890.52,1913.4 1890.52,1914.52 L1890.52,1922.18 C1890.52,1923.29 1890.86,1924.21 1891.56,1924.93 C1892.25,1925.65 1893.13,1926.01 1894.21,1926.01 L1945.91,1926.01 C1946.99,1926.01 1947.87,1925.65 1948.57,1924.93 C1949.26,1924.21 1949.61,1923.29 1949.61,1922.18 M1934.83,1830.25 L1934.83,1807.27 C1934.83,1806.16 1934.49,1805.24 1933.79,1804.52 C1933.1,1803.8 1932.22,1803.44 1931.14,1803.44 L1908.98,1803.44 C1907.9,1803.44 1907.02,1803.8 1906.33,1804.52 C1905.64,1805.24 1905.29,1806.16 1905.29,1807.27 L1905.29,1830.25 C1905.29,1831.37 1905.64,1832.29 1906.33,1833.01 C1907.02,1833.73 1907.9,1834.08 1908.98,1834.08 L1931.14,1834.08 C1932.22,1834.08 1933.1,1833.73 1933.79,1833.01 C1934.49,1832.29 1934.83,1831.37 1934.83,1830.25 M2008.69,1864.73 C2008.69,1881.4 2004.73,1896.78 1996.81,1910.87 C1988.88,1924.95 1978.13,1936.1 1964.55,1944.32 C1950.97,1952.54 1936.14,1956.65 1920.06,1956.65 C1903.98,1956.65 1889.15,1952.54 1875.57,1944.32 C1861.99,1936.1 1851.24,1924.95 1843.32,1910.87 C1835.39,1896.78 1831.43,1881.4 1831.43,1864.73 C1831.43,1848.05 1835.39,1832.67 1843.32,1818.59 C1851.24,1804.5 1861.99,1793.35 1875.57,1785.13 C1889.15,1776.91 1903.98,1772.8 1920.06,1772.8 C1936.14,1772.8 1950.97,1776.91 1964.55,1785.13 C1978.13,1793.35 1988.88,1804.5 1996.81,1818.59 C2004.73,1832.67 2008.69,1848.05 2008.69,1864.73 Z" style="stroke:none;fill-rule:nonzero;fill:#ffffff;fill-opacity:1;"/>
        </g>
    </g>
    <g id="Layer5" opacity="1">
        <g id="Shape12">
            <desc shapeID="12" type="0" basicInfo-basicType="0" basicInfo-roundedRectRadius="12" basicInfo-polygonSides="6" basicInfo-starPoints="5" bounding="rect(-32.4369,-45,64.8737,90)" text="" font-familyName="" font-pixelSize="20" font-bold="0" font-underline="0" font-alignment="1" strokeStyle="0" markerStart="0" markerEnd="0" shadowEnabled="0" shadowOffsetX="0" shadowOffsetY="2" shadowBlur="4" shadowOpacity="160" blurEnabled="0" blurRadius="4" transform="matrix(5.44198,0,0,5.70742,434.819,1862.17)" pers-center="0,0" pers-size="0,0" pers-start="0,0" pers-end="0,0" locked="0" mesh="" flag=""/>
            <path id="shapePath12" d="M576.054,1833.63 C573.839,1833.63 568.218,1834.43 562.438,1836.31 C560.964,1815.69 544.485,1799.39 524.453,1799.39 C515.311,1799.39 506.914,1802.78 500.345,1808.43 C494.98,1793.17 480.972,1782.26 464.591,1782.26 C455.063,1782.26 445.262,1785.32 437.382,1791.24 L437.382,1749.75 C459.955,1736.59 475.285,1711.34 475.285,1682.38 C475.285,1639.9 442.328,1605.33 401.818,1605.33 C361.308,1605.33 328.351,1639.9 328.351,1682.38 C328.351,1710.89 343.219,1735.77 365.221,1749.09 L365.607,1929.18 L334.261,1894.68 C325.826,1885.83 314.67,1880.96 302.85,1880.96 C291.03,1880.96 279.869,1885.83 271.439,1894.68 C254.003,1912.96 253.965,1942.68 271.047,1960.57 C271.33,1960.91 299.721,1994.11 340.226,2036.59 L346.816,2043.52 C385.226,2084.02 418.389,2119 484.77,2119 C553.497,2119 576.49,2082.83 594.154,2045.77 C611.144,2010.14 611.34,1873.66 611.34,1867.87 C611.335,1849.63 594.851,1833.63 576.054,1833.63 M344.677,1682.38 C344.677,1649.34 370.309,1622.46 401.818,1622.46 C433.327,1622.46 458.959,1649.34 458.959,1682.38 C458.959,1701.33 450.508,1718.21 437.382,1729.21 L437.382,1688.09 C437.382,1662.49 423.118,1645.29 401.894,1645.29 C380.567,1645.29 365.09,1663.29 365.09,1688.11 L365.177,1728.31 C352.661,1717.31 344.677,1700.81 344.677,1682.38 M381.416,1688.27 C381.416,1676.42 386.777,1662.49 401.894,1662.49 C419.679,1662.49 421.056,1682.06 421.056,1688.08 L421.056,1847.89 C421.056,1852.62 424.713,1856.45 429.219,1856.45 C433.725,1856.45 437.382,1852.62 437.382,1847.89 L437.382,1825.06 C437.382,1806.22 453.653,1799.38 464.591,1799.38 C476.597,1799.38 486.359,1809.62 486.359,1822.21 L486.359,1853.6 C486.359,1858.33 490.016,1862.16 494.522,1862.16 C499.028,1862.16 502.685,1858.33 502.685,1853.6 L502.685,1839.33 C502.685,1826.74 512.448,1816.5 524.453,1816.5 C536.458,1816.5 546.221,1826.74 546.221,1839.33 L546.221,1876.43 C546.221,1881.16 549.878,1884.99 554.384,1884.99 C558.89,1884.99 562.547,1881.16 562.547,1876.43 L562.547,1854.63 C565.812,1852.96 572.212,1850.74 576.054,1850.74 C585.795,1850.74 595.003,1859.06 595.003,1867.86 C595.003,1906.19 592.217,2011.51 579.537,2038.11 C562.906,2072.99 544.3,2101.87 484.759,2101.87 C425.17,2101.87 395.696,2070.8 358.38,2031.44 L351.757,2024.47 C311.59,1982.35 283.477,1949.47 282.889,1948.81 C277.55,1943.2 274.612,1935.74 274.628,1927.81 C274.65,1919.86 277.61,1912.4 282.971,1906.78 C288.32,1901.16 295.378,1898.07 302.839,1898.07 C310.3,1898.07 317.353,1901.16 322.567,1906.63 L367.898,1956.52 C370.211,1959.07 373.77,1959.86 376.85,1958.56 C379.952,1957.25 381.977,1954.1 381.971,1950.59 L381.416,1688.27 Z" style="stroke:none;fill-rule:nonzero;fill:#ffffff;fill-opacity:1;"/>
        </g>
        <g id="Shape13">
            <desc shapeID="13" type="2" basicInfo-basicType="0" basicInfo-roundedRectRadius="12" basicInfo-polygonSides="6" basicInfo-starPoints="5" bounding="rect(-78.8219,-72.664,157.644,145.328)" text="2 x" font-familyName="Lato" font-pixelSize="80" font-bold="0" font-underline="0" font-alignment="1" strokeStyle="0" markerStart="0" markerEnd="0" shadowEnabled="0" shadowOffsetX="0" shadowOffsetY="2" shadowBlur="4" shadowOpacity="160" blurEnabled="0" blurRadius="4" transform="matrix(1,0,0,1,254.619,1663)" pers-center="0,0" pers-size="0,0" pers-start="0,0" pers-end="0,0" locked="0" mesh="" flag=""/>
            <path id="shapePath13" d="M227.596,1636.34 C230.023,1636.34 232.29,1636.7 234.396,1637.42 C236.503,1638.14 238.323,1639.18 239.856,1640.56 C241.39,1641.93 242.596,1643.6 243.476,1645.58 C244.356,1647.55 244.796,1649.79 244.796,1652.3 C244.796,1654.43 244.476,1656.4 243.836,1658.22 C243.196,1660.03 242.33,1661.77 241.236,1663.44 C240.143,1665.1 238.883,1666.72 237.456,1668.28 C236.03,1669.84 234.516,1671.43 232.916,1673.06 L217.836,1688.5 C218.903,1688.2 219.983,1687.97 221.076,1687.8 C222.17,1687.62 223.223,1687.54 224.236,1687.54 L243.436,1687.54 C244.21,1687.54 244.823,1687.76 245.276,1688.22 C245.73,1688.67 245.956,1689.26 245.956,1689.98 L245.956,1694.3 L207.716,1694.3 L207.716,1691.86 C207.716,1691.35 207.816,1690.83 208.016,1690.3 C208.216,1689.76 208.543,1689.27 208.996,1688.82 L227.356,1670.38 C228.876,1668.83 230.263,1667.34 231.516,1665.92 C232.77,1664.49 233.843,1663.06 234.736,1661.62 C235.63,1660.18 236.316,1658.72 236.796,1657.24 C237.276,1655.76 237.516,1654.18 237.516,1652.5 C237.516,1650.82 237.25,1649.34 236.716,1648.08 C236.183,1646.81 235.45,1645.76 234.516,1644.94 C233.583,1644.11 232.49,1643.49 231.236,1643.08 C229.983,1642.66 228.636,1642.46 227.196,1642.46 C225.756,1642.46 224.423,1642.67 223.196,1643.1 C221.97,1643.52 220.883,1644.12 219.936,1644.88 C218.99,1645.64 218.19,1646.54 217.536,1647.58 C216.883,1648.62 216.423,1649.76 216.156,1651.02 C215.943,1651.79 215.623,1652.35 215.196,1652.7 C214.77,1653.04 214.21,1653.22 213.516,1653.22 C213.383,1653.22 213.243,1653.21 213.096,1653.2 C212.95,1653.18 212.783,1653.16 212.596,1653.14 L208.876,1652.5 C209.25,1649.88 209.97,1647.57 211.036,1645.56 C212.103,1643.54 213.456,1641.86 215.096,1640.5 C216.736,1639.14 218.616,1638.1 220.736,1637.4 C222.856,1636.69 225.143,1636.34 227.596,1636.34 M280.704,1673.54 L267.064,1653.78 L273.904,1653.78 C274.491,1653.78 274.918,1653.87 275.184,1654.06 C275.451,1654.24 275.691,1654.51 275.904,1654.86 L285.824,1670.06 C286.064,1669.31 286.411,1668.56 286.864,1667.82 L295.584,1655.02 C295.851,1654.64 296.118,1654.34 296.384,1654.12 C296.651,1653.89 296.984,1653.78 297.384,1653.78 L303.944,1653.78 L290.304,1673.14 L304.504,1694.3 L297.664,1694.3 C297.078,1694.3 296.618,1694.14 296.284,1693.84 C295.951,1693.53 295.678,1693.19 295.464,1692.82 L285.264,1676.94 C285.078,1677.71 284.798,1678.4 284.424,1679.02 L274.984,1692.82 C274.718,1693.19 274.431,1693.53 274.124,1693.84 C273.818,1694.14 273.398,1694.3 272.864,1694.3 L266.504,1694.3 L280.704,1673.54 Z" style="stroke:none;fill-rule:nonzero;fill:#ffffff;fill-opacity:1;"/>
        </g>
        <g id="Shape14">
            <desc shapeID="14" type="0" basicInfo-basicType="0" basicInfo-roundedRectRadius="12" basicInfo-polygonSides="6" basicInfo-starPoints="5" bounding="rect(-7.32239,-32.8097,14.6448,65.6194)" text="" font-familyName="" font-pixelSize="20" font-bold="0" font-underline="0" font-alignment="1" strokeStyle="0" markerStart="0" markerEnd="0" shadowEnabled="0" shadowOffsetX="0" shadowOffsetY="2" shadowBlur="4" shadowOpacity="160" blurEnabled="0" blurRadius="4" transform="matrix(5.9347,0,0,5.58801,182.64,1130.85)" pers-center="0,0" pers-size="0,0" pers-start="0,0" pers-end="0,0" locked="0" mesh="" flag=""/>
            <path id="shapePath14" d="M215.604,1255.98 C208.856,1257.45 202.115,1258.9 195.367,1260.37 C171.379,1162.23 174.928,1059.66 205.99,962.834 C207.824,957.107 204.156,949.658 198.524,947.903 C192.886,946.154 185.183,950.368 183.272,956.369 C150.999,1056.93 147.32,1163.46 172.233,1265.38 C163.557,1267.26 154.88,1269.14 146.204,1271.02 C142.702,1271.78 139.699,1273.19 139.26,1277.07 C138.827,1280.94 140.234,1283.31 143.426,1285.45 C158.34,1295.39 173.492,1304.59 188.821,1313.04 C193.325,1315.52 198.661,1313.83 200.815,1309.43 C208.174,1294.41 216.15,1279.97 224.678,1266.12 C226.506,1263.16 226.672,1260.81 224.554,1258 C222.423,1255.19 219.118,1255.23 215.604,1255.98 Z" style="stroke:none;fill-rule:nonzero;fill:#ffffff;fill-opacity:1;"/>
        </g>
        <g id="Shape15">
            <desc shapeID="15" type="0" basicInfo-basicType="0" basicInfo-roundedRectRadius="12" basicInfo-polygonSides="6" basicInfo-starPoints="5" bounding="rect(-42.771,-28.9835,85.5421,57.967)" text="" font-familyName="" font-pixelSize="20" font-bold="0" font-underline="0" font-alignment="1" strokeStyle="0" markerStart="0" markerEnd="0" shadowEnabled="0" shadowOffsetX="0" shadowOffsetY="2" shadowBlur="4" shadowOpacity="160" blurEnabled="0" blurRadius="4" transform="matrix(5.9347,0,0,5.58801,476.622,1151.52)" pers-center="0,0" pers-size="0,0" pers-start="0,0" pers-end="0,0" locked="0" mesh="" flag=""/>
            <path id="shapePath15" d="M689.413,1067.49 C660.932,1039.16 527.651,993.267 521.989,991.328 C518.565,990.154 514.945,989.562 511.235,989.562 C495.9,989.562 480.814,999.799 475.36,1013.9 C474.535,1016.04 473.23,1021.73 472.915,1027.93 C469.259,1026.97 465.497,1026.48 461.698,1026.48 C444.298,1026.48 428.613,1036.83 422.66,1052.22 C419.384,1060.69 419.301,1069.76 422.351,1078.17 C405.046,1077.62 390.363,1086.74 384.583,1101.71 C380.785,1111.52 381.402,1121.98 386.298,1131.16 L281.367,1099.15 C275.753,1097.23 270.014,1096.25 264.31,1096.25 C246.31,1096.25 231.367,1105.96 225.319,1121.6 C217.224,1142.56 229.094,1164.54 253.118,1172.77 L433.099,1230.38 C433.918,1235.46 435.906,1243.44 440.666,1254.39 C453.295,1283.44 498.541,1313.48 552.387,1313.48 C563.063,1313.48 573.716,1312.29 584.06,1309.93 C655.265,1293.75 695.965,1260.14 720.161,1197.55 C745.792,1131.23 719.021,1096.94 689.413,1067.49 M703.431,1191.81 C681.235,1249.24 645.443,1278.74 579.882,1293.64 C570.903,1295.68 561.657,1296.72 552.387,1296.72 C506.63,1296.72 467.319,1271.45 457.141,1248.04 C455.224,1243.63 453.841,1239.85 452.856,1236.71 L511.639,1255.52 C516.292,1257 521.348,1254.67 522.927,1250.28 C524.505,1245.9 522.025,1241.14 517.36,1239.65 L259.017,1156.95 C244.245,1151.89 237.266,1139.71 242.049,1127.33 C246.714,1115.26 260.186,1109.75 275.58,1115 L433.758,1163.27 C438.084,1164.58 442.802,1162.61 444.648,1158.67 C446.488,1154.73 444.862,1150.13 440.891,1148 L417.331,1135.41 C416.897,1135.19 416.446,1134.99 415.978,1134.83 C409.835,1132.73 404.951,1128.77 402.221,1123.68 C399.533,1118.66 399.206,1112.9 401.307,1107.45 C404.393,1099.48 411.509,1094.91 420.838,1094.91 C424.102,1094.91 427.437,1095.49 430.761,1096.63 L447.449,1102.34 C447.461,1102.35 447.479,1102.35 447.491,1102.36 C452.108,1103.94 457.218,1101.7 458.897,1097.34 C460.577,1093 458.197,1088.18 453.58,1086.6 C447.621,1084.56 442.868,1080.46 440.185,1075.05 C437.509,1069.63 437.224,1063.56 439.39,1057.96 C442.791,1049.16 451.758,1043.24 461.704,1043.24 C464.464,1043.24 467.194,1043.7 469.823,1044.6 L506.066,1057.02 C510.66,1058.6 515.793,1056.37 517.473,1052.01 C519.152,1047.66 516.772,1042.85 512.155,1041.27 L490.862,1033.97 C490.446,1030.27 490.672,1023.34 492.096,1019.64 C495.586,1010.63 507.378,1004.16 515.906,1007.09 C553.36,1019.92 655.223,1057.86 676.493,1079.02 C704.362,1106.74 725.632,1134.36 703.431,1191.81 Z" style="stroke:none;fill-rule:nonzero;fill:#ffffff;fill-opacity:1;"/>
        </g>
        <g id="Shape16">
            <desc shapeID="16" type="0" basicInfo-basicType="0" basicInfo-roundedRectRadius="12" basicInfo-polygonSides="6" basicInfo-starPoints="5" bounding="rect(-7.32239,-32.8095,14.6448,65.619)" text="" font-familyName="" font-pixelSize="20" font-bold="0" font-underline="0" font-alignment="1" strokeStyle="0" markerStart="0" markerEnd="0" shadowEnabled="0" shadowOffsetX="0" shadowOffsetY="2" shadowBlur="4" shadowOpacity="160" blurEnabled="0" blurRadius="4" transform="matrix(5.9347,0,0,5.57732,182.64,541.286)" pers-center="0,0" pers-size="0,0" pers-start="0,0" pers-end="0,0" locked="0" mesh="" flag=""/>
            <path id="shapePath16" d="M224.678,406.273 C216.144,392.458 208.174,378.04 200.815,363.043 C198.666,358.654 193.325,356.969 188.821,359.44 C173.491,367.873 158.334,377.053 143.426,386.981 C140.233,389.111 138.827,391.476 139.26,395.341 C139.699,399.212 142.702,400.617 146.204,401.382 C154.88,403.256 163.557,405.13 172.233,407.009 C147.319,508.734 150.999,615.065 183.272,715.424 C185.183,721.414 192.886,725.619 198.524,723.879 C204.156,722.128 207.818,714.699 205.99,708.976 C174.928,612.344 171.379,509.961 195.367,412.006 C202.115,413.468 208.856,414.923 215.604,416.385 C219.117,417.143 222.423,417.182 224.554,414.377 C226.672,411.571 226.506,409.234 224.678,406.273 Z" style="stroke:none;fill-rule:nonzero;fill:#ffffff;fill-opacity:1;"/>
        </g>
        <g id="Shape17">
            <desc shapeID="17" type="0" basicInfo-basicType="0" basicInfo-roundedRectRadius="12" basicInfo-polygonSides="6" basicInfo-starPoints="5" bounding="rect(-42.771,-28.9835,85.5421,57.967)" text="" font-familyName="" font-pixelSize="20" font-bold="0" font-underline="0" font-alignment="1" strokeStyle="0" markerStart="0" markerEnd="0" shadowEnabled="0" shadowOffsetX="0" shadowOffsetY="2" shadowBlur="4" shadowOpacity="160" blurEnabled="0" blurRadius="4" transform="matrix(5.9347,0,0,5.57732,476.621,561.916)" pers-center="0,0" pers-size="0,0" pers-start="0,0" pers-end="0,0" locked="0" mesh="" flag=""/>
            <path id="shapePath17" d="M689.413,478.042 C660.932,449.765 527.651,403.964 521.989,402.029 C518.565,400.857 514.945,400.266 511.235,400.266 C495.9,400.266 480.814,410.484 475.36,424.561 C474.535,426.691 473.229,432.375 472.915,438.566 C469.259,437.601 465.497,437.11 461.698,437.11 C444.298,437.11 428.612,447.439 422.66,462.805 C419.384,471.26 419.301,480.312 422.351,488.706 C405.117,488.159 390.369,497.256 384.583,512.203 C380.785,521.991 381.402,532.426 386.298,541.595 L281.367,509.648 C275.752,507.73 270.013,506.754 264.31,506.754 C246.31,506.754 231.367,516.442 225.319,532.047 C217.224,552.973 229.094,574.909 253.117,583.124 L433.099,640.626 C433.918,645.696 435.906,653.655 440.666,664.592 C453.295,693.577 498.541,723.567 552.387,723.567 C563.063,723.567 573.716,722.373 584.06,720.025 C655.265,703.873 695.965,670.331 720.161,607.859 C745.793,541.668 719.021,507.434 689.413,478.042 M703.431,602.132 C681.235,659.444 645.443,688.892 579.882,703.761 C570.903,705.797 561.657,706.835 552.387,706.835 C506.63,706.835 467.319,681.62 457.141,658.251 C455.224,653.85 453.841,650.08 452.856,646.945 L511.639,665.719 C516.298,667.197 521.348,664.865 522.927,660.487 C524.505,656.109 522.025,651.363 517.36,649.873 L259.016,567.335 C244.245,562.287 237.266,550.123 242.049,537.769 C246.714,525.728 260.174,520.229 275.58,525.466 L433.758,573.637 C438.078,574.953 442.808,572.979 444.648,569.052 C446.488,565.12 444.862,560.525 440.891,558.4 L417.331,545.84 C416.897,545.611 416.446,545.416 415.977,545.26 C409.835,543.163 404.951,539.208 402.221,534.127 C399.532,529.113 399.206,523.363 401.307,517.931 C404.393,509.978 411.509,505.415 420.838,505.415 C424.102,505.415 427.437,505.99 430.761,507.128 L447.449,512.833 C447.461,512.839 447.479,512.839 447.491,512.844 C452.114,514.428 457.218,512.186 458.897,507.841 C460.577,503.502 458.197,498.7 453.58,497.122 C447.621,495.086 442.868,490.987 440.185,485.588 C437.508,480.184 437.224,474.127 439.39,468.532 C442.79,459.748 451.758,453.842 461.704,453.842 C464.464,453.842 467.194,454.299 469.823,455.197 L506.066,467.596 C510.666,469.168 515.793,466.943 517.473,462.598 C519.152,458.253 516.772,453.451 512.155,451.873 L490.861,444.589 C490.446,440.891 490.672,433.981 492.096,430.283 C495.585,421.293 507.384,414.84 515.906,417.757 C553.36,430.568 655.223,468.438 676.493,489.553 C704.362,517.222 725.632,544.791 703.431,602.132 Z" style="stroke:none;fill-rule:nonzero;fill:#ffffff;fill-opacity:1;"/>
        </g>
    </g>
</svg>
