<?xml version="1.0"?>
<svg version="1.1" xmlns="http://www.w3.org/2000/svg" xmlns:xlink="http://www.w3.org/1999/xlink" width="2792" height="2792">
    <desc iVinci="yes" version="4.5" gridStep="20" showGrid="no" snapToGrid="no" codePlatform="0"/>
    <g id="Layer1" opacity="1">
        <g id="Shape1">
            <desc shapeID="1" type="0" basicInfo-basicType="2" basicInfo-roundedRectRadius="13" basicInfo-polygonSides="6" basicInfo-starPoints="5" bounding="rect(-315.581,-132.876,631.162,265.752)" text="" font-familyName="Helvetica" font-pixelSize="20" font-bold="0" font-underline="0" font-alignment="1" strokeStyle="0" markerStart="0" markerEnd="0" shadowEnabled="0" shadowOffsetX="0" shadowOffsetY="2" shadowBlur="4" shadowOpacity="160" blurEnabled="0" blurRadius="4" transform="matrix(1.07368,0,0,1,2049.61,524.861)" pers-center="0,0" pers-size="0,0" pers-start="0,0" pers-end="0,0" locked="0" mesh="" flag=""/>
            <path id="shapePath1" d="M1710.78,404.985 C1710.78,397.805 1717.03,391.985 1724.74,391.985 L2374.49,391.985 C2382.2,391.985 2388.45,397.805 2388.45,404.985 L2388.45,644.737 C2388.45,651.917 2382.2,657.737 2374.49,657.737 L1724.74,657.737 C1717.03,657.737 1710.78,651.917 1710.78,644.737 L1710.78,404.985 Z" style="stroke:#ffffff;stroke-opacity:1;stroke-width:12;stroke-linejoin:miter;stroke-miterlimit:2;stroke-linecap:butt;fill:none;"/>
        </g>
        <g id="Shape2">
            <desc shapeID="2" type="0" basicInfo-basicType="2" basicInfo-roundedRectRadius="13" basicInfo-polygonSides="6" basicInfo-starPoints="5" bounding="rect(-315.581,-132.876,631.162,265.752)" text="" font-familyName="Helvetica" font-pixelSize="20" font-bold="0" font-underline="0" font-alignment="1" strokeStyle="0" markerStart="0" markerEnd="0" shadowEnabled="0" shadowOffsetX="0" shadowOffsetY="2" shadowBlur="4" shadowOpacity="160" blurEnabled="0" blurRadius="4" transform="matrix(1.07368,0,0,1,1976.53,1175.95)" pers-center="0,0" pers-size="0,0" pers-start="0,0" pers-end="0,0" locked="0" mesh="" flag=""/>
            <path id="shapePath2" d="M1637.7,1056.08 C1637.7,1048.9 1643.95,1043.08 1651.66,1043.08 L2301.41,1043.08 C2309.12,1043.08 2315.37,1048.9 2315.37,1056.08 L2315.37,1295.83 C2315.37,1303.01 2309.12,1308.83 2301.41,1308.83 L1651.66,1308.83 C1643.95,1308.83 1637.7,1303.01 1637.7,1295.83 L1637.7,1056.08 Z" style="stroke:#ffffff;stroke-opacity:1;stroke-width:12;stroke-linejoin:miter;stroke-miterlimit:2;stroke-linecap:butt;fill:none;"/>
        </g>
        <g id="Shape3">
            <desc shapeID="3" type="0" basicInfo-basicType="2" basicInfo-roundedRectRadius="13" basicInfo-polygonSides="6" basicInfo-starPoints="5" bounding="rect(-315.581,-132.876,631.162,265.752)" text="" font-familyName="Helvetica" font-pixelSize="20" font-bold="0" font-underline="0" font-alignment="1" strokeStyle="0" markerStart="0" markerEnd="0" shadowEnabled="0" shadowOffsetX="0" shadowOffsetY="2" shadowBlur="4" shadowOpacity="160" blurEnabled="0" blurRadius="4" transform="matrix(1.07368,0,0,1,2072.87,1866.91)" pers-center="0,0" pers-size="0,0" pers-start="0,0" pers-end="0,0" locked="0" mesh="" flag=""/>
            <path id="shapePath3" d="M1734.03,1747.03 C1734.03,1739.85 1740.28,1734.03 1747.99,1734.03 L2397.74,1734.03 C2405.45,1734.03 2411.7,1739.85 2411.7,1747.03 L2411.7,1986.79 C2411.7,1993.97 2405.45,1999.79 2397.74,1999.79 L1747.99,1999.79 C1740.28,1999.79 1734.03,1993.97 1734.03,1986.79 L1734.03,1747.03 Z" style="stroke:#ffffff;stroke-opacity:1;stroke-width:12;stroke-linejoin:miter;stroke-miterlimit:2;stroke-linecap:butt;fill:none;"/>
        </g>
    </g>
    <g id="Layer2" opacity="1">
        <g id="Shape4">
            <desc shapeID="4" type="0" basicInfo-basicType="0" basicInfo-roundedRectRadius="12" basicInfo-polygonSides="6" basicInfo-starPoints="5" bounding="rect(0,0,0,0)" text="" font-familyName="Helvetica" font-pixelSize="20" font-bold="0" font-underline="0" font-alignment="1" strokeStyle="0" markerStart="0" markerEnd="0" shadowEnabled="0" shadowOffsetX="0" shadowOffsetY="2" shadowBlur="4" shadowOpacity="160" blurEnabled="0" blurRadius="4" transform="matrix(0.828914,0,0,0.796916,2432.94,312.991)" pers-center="0,0" pers-size="0,0" pers-start="0,0" pers-end="0,0" locked="0" mesh="" flag=""/>
            <path id="shapePath4" d="M2432.94,312.991 Z" style="stroke:none;fill-rule:evenodd;fill:#ffffff;fill-opacity:1;"/>
        </g>
        <g id="Shape5">
            <desc shapeID="5" type="2" basicInfo-basicType="0" basicInfo-roundedRectRadius="12" basicInfo-polygonSides="6" basicInfo-starPoints="5" bounding="rect(-787.364,-236.915,1574.73,473.829)" text="Swipe right to            Like" font-familyName="Lato" font-pixelSize="140" font-bold="0" font-underline="0" font-alignment="0" strokeStyle="0" markerStart="0" markerEnd="0" shadowEnabled="0" shadowOffsetX="0" shadowOffsetY="2" shadowBlur="4" shadowOpacity="160" blurEnabled="0" blurRadius="4" transform="matrix(1,0,0,1,1615.07,518.597)" pers-center="0,0" pers-size="0,0" pers-start="0,0" pers-end="0,0" locked="0" mesh="" flag=""/>
            <path id="shapePath5" d="M891.274,488.232 C890.854,488.932 890.411,489.457 889.944,489.807 C889.478,490.157 888.871,490.332 888.124,490.332 C887.331,490.332 886.409,489.936 885.359,489.142 C884.309,488.349 882.979,487.474 881.369,486.517 C879.759,485.561 877.823,484.686 875.559,483.892 C873.296,483.099 870.554,482.702 867.334,482.702 C864.301,482.702 861.618,483.111 859.284,483.927 C856.951,484.744 855.003,485.852 853.439,487.252 C851.876,488.652 850.698,490.297 849.904,492.187 C849.111,494.077 848.714,496.119 848.714,498.312 C848.714,501.112 849.403,503.434 850.779,505.277 C852.156,507.121 853.976,508.696 856.239,510.002 C858.503,511.309 861.069,512.441 863.939,513.397 C866.809,514.354 869.749,515.346 872.759,516.372 C875.769,517.399 878.709,518.554 881.579,519.837 C884.449,521.121 887.016,522.742 889.279,524.702 C891.543,526.662 893.363,529.066 894.739,531.912 C896.116,534.759 896.804,538.259 896.804,542.412 C896.804,546.799 896.058,550.917 894.564,554.767 C893.071,558.617 890.889,561.966 888.019,564.812 C885.149,567.659 881.626,569.899 877.449,571.532 C873.273,573.166 868.524,573.982 863.204,573.982 C856.718,573.982 850.803,572.804 845.459,570.447 C840.116,568.091 835.554,564.906 831.774,560.892 L835.694,554.452 C836.068,553.939 836.523,553.507 837.059,553.157 C837.596,552.807 838.191,552.632 838.844,552.632 C839.824,552.632 840.944,553.157 842.204,554.207 C843.464,555.257 845.039,556.412 846.929,557.672 C848.819,558.932 851.106,560.087 853.789,561.137 C856.473,562.187 859.751,562.712 863.624,562.712 C866.844,562.712 869.714,562.269 872.234,561.382 C874.754,560.496 876.889,559.247 878.639,557.637 C880.389,556.027 881.731,554.102 882.664,551.862 C883.598,549.622 884.064,547.126 884.064,544.372 C884.064,541.339 883.376,538.854 881.999,536.917 C880.623,534.981 878.814,533.359 876.574,532.052 C874.334,530.746 871.779,529.637 868.909,528.727 C866.039,527.817 863.099,526.884 860.089,525.927 C857.079,524.971 854.139,523.862 851.269,522.602 C848.399,521.342 845.844,519.709 843.604,517.702 C841.364,515.696 839.556,513.187 838.179,510.177 C836.803,507.167 836.114,503.446 836.114,499.012 C836.114,495.466 836.803,492.036 838.179,488.722 C839.556,485.409 841.551,482.469 844.164,479.902 C846.778,477.336 850.009,475.282 853.859,473.742 C857.709,472.202 862.131,471.432 867.124,471.432 C872.724,471.432 877.834,472.319 882.454,474.092 C887.074,475.866 891.111,478.432 894.564,481.792 L891.274,488.232 M902.882,501.952 L912.682,501.952 C913.708,501.952 914.549,502.209 915.202,502.722 C915.855,503.236 916.299,503.842 916.532,504.542 L930.112,550.182 C930.485,551.862 930.835,553.484 931.162,555.047 C931.489,556.611 931.768,558.186 932.002,559.772 C932.375,558.186 932.795,556.611 933.262,555.047 C933.729,553.484 934.219,551.862 934.732,550.182 L949.712,504.262 C949.945,503.562 950.354,502.979 950.937,502.512 C951.52,502.046 952.255,501.812 953.142,501.812 L958.532,501.812 C959.465,501.812 960.235,502.046 960.842,502.512 C961.449,502.979 961.869,503.562 962.102,504.262 L976.732,550.182 C977.245,551.816 977.7,553.426 978.097,555.012 C978.494,556.599 978.879,558.162 979.252,559.702 C979.485,558.162 979.789,556.552 980.162,554.872 C980.535,553.192 980.932,551.629 981.352,550.182 L995.212,504.542 C995.445,503.796 995.889,503.177 996.542,502.687 C997.195,502.197 997.965,501.952 998.852,501.952 L1008.23,501.952 L985.272,572.862 L975.402,572.862 C974.189,572.862 973.349,572.069 972.882,570.482 L957.202,522.392 C956.829,521.319 956.525,520.234 956.292,519.137 C956.059,518.041 955.825,516.956 955.592,515.882 C955.359,516.956 955.125,518.052 954.892,519.172 C954.659,520.292 954.355,521.389 953.982,522.462 L938.092,570.482 C937.579,572.069 936.622,572.862 935.222,572.862 L925.842,572.862 L902.882,501.952 M1033.22,501.952 L1033.22,572.862 L1020.76,572.862 L1020.76,501.952 L1033.22,501.952 M1036.02,479.692 C1036.02,480.906 1035.77,482.037 1035.28,483.087 C1034.79,484.137 1034.14,485.071 1033.32,485.887 C1032.5,486.704 1031.56,487.346 1030.49,487.812 C1029.41,488.279 1028.27,488.512 1027.06,488.512 C1025.84,488.512 1024.71,488.279 1023.66,487.812 C1022.61,487.346 1021.68,486.704 1020.86,485.887 C1020.04,485.071 1019.4,484.137 1018.94,483.087 C1018.47,482.037 1018.24,480.906 1018.24,479.692 C1018.24,478.479 1018.47,477.324 1018.94,476.227 C1019.4,475.131 1020.04,474.174 1020.86,473.357 C1021.68,472.541 1022.61,471.899 1023.66,471.432 C1024.71,470.966 1025.84,470.732 1027.06,470.732 C1028.27,470.732 1029.41,470.966 1030.49,471.432 C1031.56,471.899 1032.5,472.541 1033.32,473.357 C1034.14,474.174 1034.79,475.131 1035.28,476.227 C1035.77,477.324 1036.02,478.479 1036.02,479.692 M1055.18,596.872 L1055.18,501.952 L1062.6,501.952 C1064.38,501.952 1065.5,502.816 1065.96,504.542 L1067.01,512.942 C1070.05,509.256 1073.51,506.292 1077.41,504.052 C1081.31,501.812 1085.8,500.692 1090.88,500.692 C1094.94,500.692 1098.63,501.474 1101.94,503.037 C1105.26,504.601 1108.08,506.911 1110.41,509.967 C1112.75,513.024 1114.54,516.816 1115.8,521.342 C1117.06,525.869 1117.69,531.072 1117.69,536.952 C1117.69,542.179 1116.99,547.044 1115.59,551.547 C1114.19,556.051 1112.19,559.947 1109.57,563.237 C1106.96,566.527 1103.75,569.117 1099.95,571.007 C1096.15,572.897 1091.86,573.842 1087.1,573.842 C1082.72,573.842 1078.97,573.119 1075.87,571.672 C1072.77,570.226 1070.02,568.172 1067.64,565.512 L1067.64,596.872 L1055.18,596.872 M1086.75,510.772 C1082.69,510.772 1079.14,511.706 1076.08,513.572 C1073.02,515.439 1070.21,518.076 1067.64,521.482 L1067.64,555.782 C1069.93,558.862 1072.44,561.032 1075.17,562.292 C1077.9,563.552 1080.94,564.182 1084.3,564.182 C1090.88,564.182 1095.95,561.826 1099.49,557.112 C1103.04,552.399 1104.81,545.679 1104.81,536.952 C1104.81,532.332 1104.41,528.366 1103.59,525.052 C1102.77,521.739 1101.59,519.021 1100.05,516.897 C1098.51,514.774 1096.62,513.222 1094.38,512.242 C1092.14,511.262 1089.6,510.772 1086.75,510.772 M1160.52,500.832 C1164.77,500.832 1168.69,501.544 1172.28,502.967 C1175.87,504.391 1178.98,506.444 1181.59,509.127 C1184.2,511.811 1186.24,515.124 1187.71,519.067 C1189.18,523.011 1189.92,527.502 1189.92,532.542 C1189.92,534.502 1189.71,535.809 1189.29,536.462 C1188.87,537.116 1188.08,537.442 1186.91,537.442 L1139.73,537.442 C1139.82,541.922 1140.43,545.819 1141.55,549.132 C1142.67,552.446 1144.21,555.211 1146.17,557.427 C1148.13,559.644 1150.46,561.301 1153.17,562.397 C1155.88,563.494 1158.91,564.042 1162.27,564.042 C1165.4,564.042 1168.09,563.681 1170.35,562.957 C1172.62,562.234 1174.57,561.452 1176.2,560.612 C1177.83,559.772 1179.2,558.991 1180.29,558.267 C1181.39,557.544 1182.34,557.182 1183.13,557.182 C1184.16,557.182 1184.95,557.579 1185.51,558.372 L1189.01,562.922 C1187.47,564.789 1185.63,566.411 1183.48,567.787 C1181.33,569.164 1179.03,570.296 1176.58,571.182 C1174.14,572.069 1171.6,572.734 1168.99,573.177 C1166.38,573.621 1163.79,573.842 1161.22,573.842 C1156.32,573.842 1151.8,573.014 1147.68,571.357 C1143.54,569.701 1139.97,567.274 1136.96,564.077 C1133.95,560.881 1131.61,556.926 1129.93,552.212 C1128.25,547.499 1127.41,542.086 1127.41,535.972 C1127.41,531.026 1128.17,526.406 1129.68,522.112 C1131.2,517.819 1133.38,514.097 1136.23,510.947 C1139.08,507.797 1142.55,505.324 1146.66,503.527 C1150.77,501.731 1155.39,500.832 1160.52,500.832 M1160.8,510.002 C1154.78,510.002 1150.04,511.741 1146.59,515.217 C1143.14,518.694 1140.99,523.512 1140.15,529.672 L1178.72,529.672 C1178.72,526.779 1178.32,524.131 1177.53,521.727 C1176.74,519.324 1175.57,517.247 1174.03,515.497 C1172.49,513.747 1170.61,512.394 1168.4,511.437 C1166.18,510.481 1163.65,510.002 1160.8,510.002 M1232.82,572.862 L1232.82,501.952 L1239.96,501.952 C1241.32,501.952 1242.25,502.209 1242.77,502.722 C1243.28,503.236 1243.63,504.122 1243.81,505.382 L1244.66,516.442 C1247.08,511.496 1250.08,507.634 1253.65,504.857 C1257.22,502.081 1261.41,500.692 1266.21,500.692 C1268.18,500.692 1269.95,500.914 1271.53,501.357 C1273.12,501.801 1274.59,502.419 1275.94,503.212 L1274.33,512.522 C1274.01,513.689 1273.28,514.272 1272.17,514.272 C1271.51,514.272 1270.51,514.051 1269.16,513.607 C1267.8,513.164 1265.91,512.942 1263.48,512.942 C1259.15,512.942 1255.52,514.202 1252.6,516.722 C1249.68,519.242 1247.24,522.906 1245.28,527.712 L1245.28,572.862 L1232.82,572.862 M1303.09,501.952 L1303.09,572.862 L1290.63,572.862 L1290.63,501.952 L1303.09,501.952 M1305.89,479.692 C1305.89,480.906 1305.65,482.037 1305.16,483.087 C1304.67,484.137 1304.01,485.071 1303.2,485.887 C1302.38,486.704 1301.43,487.346 1300.36,487.812 C1299.29,488.279 1298.14,488.512 1296.93,488.512 C1295.72,488.512 1294.59,488.279 1293.54,487.812 C1292.49,487.346 1291.55,486.704 1290.74,485.887 C1289.92,485.071 1289.28,484.137 1288.81,483.087 C1288.34,482.037 1288.11,480.906 1288.11,479.692 C1288.11,478.479 1288.34,477.324 1288.81,476.227 C1289.28,475.131 1289.92,474.174 1290.74,473.357 C1291.55,472.541 1292.49,471.899 1293.54,471.432 C1294.59,470.966 1295.72,470.732 1296.93,470.732 C1298.14,470.732 1299.29,470.966 1300.36,471.432 C1301.43,471.899 1302.38,472.541 1303.2,473.357 C1304.01,474.174 1304.67,475.131 1305.16,476.227 C1305.65,477.324 1305.89,478.479 1305.89,479.692 M1348.93,500.762 C1352.01,500.762 1354.89,501.101 1357.57,501.777 C1360.26,502.454 1362.7,503.446 1364.89,504.752 L1384.14,504.752 L1384.14,509.372 C1384.14,510.912 1383.16,511.892 1381.2,512.312 L1373.15,513.432 C1374.74,516.466 1375.53,519.849 1375.53,523.582 C1375.53,527.036 1374.86,530.174 1373.53,532.997 C1372.2,535.821 1370.36,538.236 1368,540.242 C1365.65,542.249 1362.85,543.789 1359.6,544.862 C1356.36,545.936 1352.8,546.472 1348.93,546.472 C1345.62,546.472 1342.49,546.076 1339.55,545.282 C1338.06,546.216 1336.92,547.219 1336.15,548.292 C1335.38,549.366 1335,550.416 1335,551.442 C1335,553.122 1335.68,554.394 1337.03,555.257 C1338.38,556.121 1340.18,556.739 1342.42,557.112 C1344.66,557.486 1347.2,557.719 1350.05,557.812 C1352.9,557.906 1355.8,558.057 1358.76,558.267 C1361.73,558.477 1364.63,558.839 1367.48,559.352 C1370.33,559.866 1372.87,560.706 1375.11,561.872 C1377.35,563.039 1379.15,564.649 1380.5,566.702 C1381.85,568.756 1382.53,571.416 1382.53,574.682 C1382.53,577.716 1381.77,580.656 1380.25,583.502 C1378.74,586.349 1376.56,588.881 1373.71,591.097 C1370.86,593.314 1367.39,595.087 1363.28,596.417 C1359.17,597.747 1354.53,598.412 1349.35,598.412 C1344.17,598.412 1339.63,597.899 1335.73,596.872 C1331.84,595.846 1328.61,594.469 1326.04,592.742 C1323.47,591.016 1321.55,589.021 1320.26,586.757 C1318.98,584.494 1318.34,582.126 1318.34,579.652 C1318.34,576.152 1319.45,573.177 1321.66,570.727 C1323.88,568.277 1326.93,566.329 1330.8,564.882 C1328.79,563.949 1327.19,562.701 1326,561.137 C1324.81,559.574 1324.22,557.486 1324.22,554.872 C1324.22,553.846 1324.41,552.784 1324.78,551.687 C1325.15,550.591 1325.72,549.506 1326.49,548.432 C1327.26,547.359 1328.21,546.332 1329.33,545.352 C1330.45,544.372 1331.76,543.509 1333.25,542.762 C1329.75,540.802 1327.01,538.201 1325.02,534.957 C1323.04,531.714 1322.05,527.922 1322.05,523.582 C1322.05,520.129 1322.71,516.991 1324.04,514.167 C1325.37,511.344 1327.23,508.941 1329.61,506.957 C1331.99,504.974 1334.82,503.446 1338.11,502.372 C1341.4,501.299 1345.01,500.762 1348.93,500.762 M1371.05,576.712 C1371.05,574.939 1370.56,573.516 1369.58,572.442 C1368.6,571.369 1367.27,570.541 1365.59,569.957 C1363.91,569.374 1361.97,568.942 1359.78,568.662 C1357.59,568.382 1355.28,568.184 1352.85,568.067 C1350.42,567.951 1347.95,567.822 1345.43,567.682 C1342.91,567.542 1340.51,567.286 1338.22,566.912 C1335.56,568.172 1333.4,569.712 1331.74,571.532 C1330.09,573.352 1329.26,575.522 1329.26,578.042 C1329.26,579.629 1329.67,581.111 1330.48,582.487 C1331.3,583.864 1332.55,585.054 1334.23,586.057 C1335.91,587.061 1338.02,587.854 1340.56,588.437 C1343.11,589.021 1346.11,589.312 1349.56,589.312 C1352.92,589.312 1355.93,589.009 1358.59,588.402 C1361.25,587.796 1363.5,586.932 1365.34,585.812 C1367.19,584.692 1368.6,583.362 1369.58,581.822 C1370.56,580.282 1371.05,578.579 1371.05,576.712 M1348.93,538.212 C1351.45,538.212 1353.68,537.862 1355.61,537.162 C1357.55,536.462 1359.17,535.482 1360.48,534.222 C1361.79,532.962 1362.77,531.457 1363.42,529.707 C1364.07,527.957 1364.4,526.032 1364.4,523.932 C1364.4,519.592 1363.08,516.139 1360.44,513.572 C1357.81,511.006 1353.97,509.722 1348.93,509.722 C1343.94,509.722 1340.12,511.006 1337.48,513.572 C1334.85,516.139 1333.53,519.592 1333.53,523.932 C1333.53,526.032 1333.87,527.957 1334.54,529.707 C1335.22,531.457 1336.21,532.962 1337.52,534.222 C1338.83,535.482 1340.44,536.462 1342.35,537.162 C1344.26,537.862 1346.46,538.212 1348.93,538.212 M1396.59,572.862 L1396.59,469.752 L1409.05,469.752 L1409.05,511.472 C1412.08,508.252 1415.44,505.674 1419.13,503.737 C1422.82,501.801 1427.06,500.832 1431.87,500.832 C1435.74,500.832 1439.16,501.474 1442.13,502.757 C1445.09,504.041 1447.56,505.861 1449.55,508.217 C1451.53,510.574 1453.03,513.409 1454.06,516.722 C1455.09,520.036 1455.6,523.699 1455.6,527.712 L1455.6,572.862 L1443.14,572.862 L1443.14,527.712 C1443.14,522.346 1441.92,518.181 1439.47,515.217 C1437.02,512.254 1433.27,510.772 1428.23,510.772 C1424.54,510.772 1421.1,511.659 1417.91,513.432 C1414.71,515.206 1411.76,517.609 1409.05,520.642 L1409.05,572.862 L1396.59,572.862 M1495.91,573.982 C1490.31,573.982 1486,572.419 1482.99,569.292 C1479.98,566.166 1478.48,561.662 1478.48,555.782 L1478.48,512.382 L1469.94,512.382 C1469.19,512.382 1468.56,512.161 1468.05,511.717 C1467.54,511.274 1467.28,510.586 1467.28,509.652 L1467.28,504.682 L1478.9,503.212 L1481.77,481.302 C1481.86,480.602 1482.17,480.031 1482.68,479.587 C1483.19,479.144 1483.85,478.922 1484.64,478.922 L1490.94,478.922 L1490.94,503.352 L1511.24,503.352 L1511.24,512.382 L1490.94,512.382 L1490.94,554.942 C1490.94,557.929 1491.66,560.146 1493.11,561.592 C1494.56,563.039 1496.42,563.762 1498.71,563.762 C1500.02,563.762 1501.15,563.587 1502.1,563.237 C1503.06,562.887 1503.89,562.502 1504.59,562.082 C1505.29,561.662 1505.88,561.277 1506.37,560.927 C1506.86,560.577 1507.3,560.402 1507.67,560.402 C1508.32,560.402 1508.91,560.799 1509.42,561.592 L1513.06,567.542 C1510.91,569.549 1508.32,571.124 1505.29,572.267 C1502.26,573.411 1499.13,573.982 1495.91,573.982 M1575.14,573.982 C1569.54,573.982 1565.24,572.419 1562.23,569.292 C1559.22,566.166 1557.71,561.662 1557.71,555.782 L1557.71,512.382 L1549.17,512.382 C1548.43,512.382 1547.8,512.161 1547.28,511.717 C1546.77,511.274 1546.51,510.586 1546.51,509.652 L1546.51,504.682 L1558.13,503.212 L1561,481.302 C1561.1,480.602 1561.4,480.031 1561.91,479.587 C1562.43,479.144 1563.08,478.922 1563.87,478.922 L1570.17,478.922 L1570.17,503.352 L1590.47,503.352 L1590.47,512.382 L1570.17,512.382 L1570.17,554.942 C1570.17,557.929 1570.9,560.146 1572.34,561.592 C1573.79,563.039 1575.66,563.762 1577.94,563.762 C1579.25,563.762 1580.38,563.587 1581.34,563.237 C1582.29,562.887 1583.12,562.502 1583.82,562.082 C1584.52,561.662 1585.12,561.277 1585.61,560.927 C1586.1,560.577 1586.53,560.402 1586.9,560.402 C1587.56,560.402 1588.14,560.799 1588.65,561.592 L1592.29,567.542 C1590.15,569.549 1587.56,571.124 1584.52,572.267 C1581.49,573.411 1578.36,573.982 1575.14,573.982 M1634.57,500.832 C1639.75,500.832 1644.43,501.696 1648.61,503.422 C1652.78,505.149 1656.33,507.599 1659.25,510.772 C1662.16,513.946 1664.4,517.784 1665.97,522.287 C1667.53,526.791 1668.31,531.819 1668.31,537.372 C1668.31,542.972 1667.53,548.012 1665.97,552.492 C1664.4,556.972 1662.16,560.799 1659.25,563.972 C1656.33,567.146 1652.78,569.584 1648.61,571.287 C1644.43,572.991 1639.75,573.842 1634.57,573.842 C1629.39,573.842 1624.71,572.991 1620.54,571.287 C1616.36,569.584 1612.8,567.146 1609.86,563.972 C1606.92,560.799 1604.66,556.972 1603.07,552.492 C1601.49,548.012 1600.69,542.972 1600.69,537.372 C1600.69,531.819 1601.49,526.791 1603.07,522.287 C1604.66,517.784 1606.92,513.946 1609.86,510.772 C1612.8,507.599 1616.36,505.149 1620.54,503.422 C1624.71,501.696 1629.39,500.832 1634.57,500.832 M1634.57,564.112 C1641.57,564.112 1646.8,561.767 1650.25,557.077 C1653.71,552.387 1655.43,545.842 1655.43,537.442 C1655.43,528.996 1653.71,522.416 1650.25,517.702 C1646.8,512.989 1641.57,510.632 1634.57,510.632 C1631.03,510.632 1627.95,511.239 1625.33,512.452 C1622.72,513.666 1620.54,515.416 1618.79,517.702 C1617.04,519.989 1615.73,522.801 1614.87,526.137 C1614,529.474 1613.57,533.242 1613.57,537.442 C1613.57,541.642 1614,545.399 1614.87,548.712 C1615.73,552.026 1617.04,554.814 1618.79,557.077 C1620.54,559.341 1622.72,561.079 1625.33,562.292 C1627.95,563.506 1631.03,564.112 1634.57,564.112 M2023.43,561.452 L2066.83,561.452 L2066.83,572.862 L2009.85,572.862 L2009.85,472.552 L2023.43,472.552 L2023.43,561.452 M2093.7,501.952 L2093.7,572.862 L2081.24,572.862 L2081.24,501.952 L2093.7,501.952 M2096.5,479.692 C2096.5,480.906 2096.26,482.037 2095.77,483.087 C2095.28,484.137 2094.62,485.071 2093.81,485.887 C2092.99,486.704 2092.04,487.346 2090.97,487.812 C2089.9,488.279 2088.75,488.512 2087.54,488.512 C2086.33,488.512 2085.2,488.279 2084.15,487.812 C2083.1,487.346 2082.16,486.704 2081.35,485.887 C2080.53,485.071 2079.89,484.137 2079.42,483.087 C2078.95,482.037 2078.72,480.906 2078.72,479.692 C2078.72,478.479 2078.95,477.324 2079.42,476.227 C2079.89,475.131 2080.53,474.174 2081.35,473.357 C2082.16,472.541 2083.1,471.899 2084.15,471.432 C2085.2,470.966 2086.33,470.732 2087.54,470.732 C2088.75,470.732 2089.9,470.966 2090.97,471.432 C2092.04,471.899 2092.99,472.541 2093.81,473.357 C2094.62,474.174 2095.28,475.131 2095.77,476.227 C2096.26,477.324 2096.5,478.479 2096.5,479.692 M2128.62,469.752 L2128.62,530.442 L2131.84,530.442 C2132.77,530.442 2133.54,530.314 2134.15,530.057 C2134.76,529.801 2135.43,529.276 2136.18,528.482 L2158.58,504.472 C2159.28,503.726 2159.98,503.119 2160.68,502.652 C2161.38,502.186 2162.31,501.952 2163.48,501.952 L2174.82,501.952 L2148.71,529.742 C2148.06,530.536 2147.41,531.236 2146.78,531.842 C2146.15,532.449 2145.44,532.986 2144.65,533.452 C2145.49,534.012 2146.25,534.654 2146.92,535.377 C2147.6,536.101 2148.24,536.929 2148.85,537.862 L2176.57,572.862 L2165.37,572.862 C2164.34,572.862 2163.47,572.664 2162.74,572.267 C2162.02,571.871 2161.33,571.252 2160.68,570.412 L2137.37,541.362 C2136.67,540.382 2135.97,539.741 2135.27,539.437 C2134.57,539.134 2133.52,538.982 2132.12,538.982 L2128.62,538.982 L2128.62,572.862 L2116.09,572.862 L2116.09,469.752 L2128.62,469.752 M2212.9,500.832 C2217.14,500.832 2221.06,501.544 2224.66,502.967 C2228.25,504.391 2231.35,506.444 2233.96,509.127 C2236.58,511.811 2238.62,515.124 2240.09,519.067 C2241.56,523.011 2242.29,527.502 2242.29,532.542 C2242.29,534.502 2242.08,535.809 2241.67,536.462 C2241.25,537.116 2240.45,537.442 2239.28,537.442 L2192.1,537.442 C2192.2,541.922 2192.8,545.819 2193.93,549.132 C2195.04,552.446 2196.58,555.211 2198.54,557.427 C2200.5,559.644 2202.84,561.301 2205.54,562.397 C2208.25,563.494 2211.28,564.042 2214.65,564.042 C2217.77,564.042 2220.47,563.681 2222.73,562.957 C2224.99,562.234 2226.94,561.452 2228.57,560.612 C2230.21,559.772 2231.57,558.991 2232.67,558.267 C2233.77,557.544 2234.71,557.182 2235.5,557.182 C2236.53,557.182 2237.32,557.579 2237.89,558.372 L2241.39,562.922 C2239.84,564.789 2238,566.411 2235.85,567.787 C2233.71,569.164 2231.41,570.296 2228.96,571.182 C2226.51,572.069 2223.98,572.734 2221.36,573.177 C2218.75,573.621 2216.16,573.842 2213.59,573.842 C2208.7,573.842 2204.18,573.014 2200.05,571.357 C2195.92,569.701 2192.35,567.274 2189.34,564.077 C2186.33,560.881 2183.98,556.926 2182.3,552.212 C2180.62,547.499 2179.78,542.086 2179.78,535.972 C2179.78,531.026 2180.54,526.406 2182.06,522.112 C2183.58,517.819 2185.76,514.097 2188.6,510.947 C2191.45,507.797 2194.93,505.324 2199.03,503.527 C2203.14,501.731 2207.76,500.832 2212.9,500.832 M2213.18,510.002 C2207.16,510.002 2202.42,511.741 2198.96,515.217 C2195.51,518.694 2193.36,523.512 2192.52,529.672 L2231.09,529.672 C2231.09,526.779 2230.7,524.131 2229.91,521.727 C2229.11,519.324 2227.95,517.247 2226.41,515.497 C2224.86,513.747 2222.99,512.394 2220.77,511.437 C2218.55,510.481 2216.02,510.002 2213.18,510.002 Z" style="stroke:none;fill-rule:nonzero;fill:#ffffff;fill-opacity:1;"/>
        </g>
        <g id="Shape6">
            <desc shapeID="6" type="2" basicInfo-basicType="0" basicInfo-roundedRectRadius="12" basicInfo-polygonSides="6" basicInfo-starPoints="5" bounding="rect(-850.254,-236.915,1700.51,473.829)" text="Swipe left to          Dislike" font-familyName="Lato" font-pixelSize="140" font-bold="0" font-underline="0" font-alignment="0" strokeStyle="0" markerStart="0" markerEnd="0" shadowEnabled="0" shadowOffsetX="0" shadowOffsetY="2" shadowBlur="4" shadowOpacity="160" blurEnabled="0" blurRadius="4" transform="matrix(1,0,0,1,1677.96,1182.04)" pers-center="0,0" pers-size="0,0" pers-start="0,0" pers-end="0,0" locked="0" mesh="" flag=""/>
            <path id="shapePath6" d="M891.273,1151.67 C890.853,1152.37 890.41,1152.9 889.943,1153.25 C889.476,1153.6 888.87,1153.77 888.123,1153.77 C887.33,1153.77 886.408,1153.38 885.358,1152.58 C884.308,1151.79 882.978,1150.92 881.368,1149.96 C879.758,1149 877.821,1148.13 875.558,1147.33 C873.295,1146.54 870.553,1146.14 867.333,1146.14 C864.3,1146.14 861.616,1146.55 859.283,1147.37 C856.95,1148.19 855.001,1149.29 853.438,1150.69 C851.875,1152.09 850.696,1153.74 849.903,1155.63 C849.11,1157.52 848.713,1159.56 848.713,1161.75 C848.713,1164.55 849.401,1166.88 850.778,1168.72 C852.155,1170.56 853.975,1172.14 856.238,1173.44 C858.501,1174.75 861.068,1175.88 863.938,1176.84 C866.808,1177.8 869.748,1178.79 872.758,1179.81 C875.768,1180.84 878.708,1182 881.578,1183.28 C884.448,1184.56 887.015,1186.18 889.278,1188.14 C891.541,1190.1 893.361,1192.51 894.738,1195.35 C896.115,1198.2 896.803,1201.7 896.803,1205.85 C896.803,1210.24 896.056,1214.36 894.563,1218.21 C893.07,1222.06 890.888,1225.41 888.018,1228.25 C885.148,1231.1 881.625,1233.34 877.448,1234.97 C873.271,1236.61 868.523,1237.42 863.203,1237.42 C856.716,1237.42 850.801,1236.25 845.458,1233.89 C840.115,1231.53 835.553,1228.35 831.773,1224.33 L835.693,1217.89 C836.066,1217.38 836.521,1216.95 837.058,1216.6 C837.595,1216.25 838.19,1216.07 838.843,1216.07 C839.823,1216.07 840.943,1216.6 842.203,1217.65 C843.463,1218.7 845.038,1219.85 846.928,1221.11 C848.818,1222.37 851.105,1223.53 853.788,1224.58 C856.471,1225.63 859.75,1226.15 863.623,1226.15 C866.843,1226.15 869.713,1225.71 872.233,1224.82 C874.753,1223.94 876.888,1222.69 878.638,1221.08 C880.388,1219.47 881.73,1217.54 882.663,1215.3 C883.596,1213.06 884.063,1210.57 884.063,1207.81 C884.063,1204.78 883.375,1202.3 881.998,1200.36 C880.621,1198.42 878.813,1196.8 876.573,1195.49 C874.333,1194.19 871.778,1193.08 868.908,1192.17 C866.038,1191.26 863.098,1190.33 860.088,1189.37 C857.078,1188.41 854.138,1187.3 851.268,1186.04 C848.398,1184.78 845.843,1183.15 843.603,1181.14 C841.363,1179.14 839.555,1176.63 838.178,1173.62 C836.801,1170.61 836.113,1166.89 836.113,1162.45 C836.113,1158.91 836.801,1155.48 838.178,1152.16 C839.555,1148.85 841.55,1145.91 844.163,1143.34 C846.776,1140.78 850.008,1138.72 853.858,1137.18 C857.708,1135.64 862.13,1134.87 867.123,1134.87 C872.723,1134.87 877.833,1135.76 882.453,1137.53 C887.073,1139.31 891.11,1141.87 894.563,1145.23 L891.273,1151.67 M902.88,1165.39 L912.68,1165.39 C913.707,1165.39 914.547,1165.65 915.2,1166.16 C915.854,1166.68 916.297,1167.28 916.53,1167.98 L930.11,1213.62 C930.484,1215.3 930.834,1216.93 931.16,1218.49 C931.487,1220.05 931.767,1221.63 932,1223.21 C932.374,1221.63 932.794,1220.05 933.26,1218.49 C933.727,1216.93 934.217,1215.3 934.73,1213.62 L949.71,1167.7 C949.944,1167 950.352,1166.42 950.935,1165.95 C951.519,1165.49 952.254,1165.25 953.14,1165.25 L958.53,1165.25 C959.464,1165.25 960.234,1165.49 960.84,1165.95 C961.447,1166.42 961.867,1167 962.1,1167.7 L976.73,1213.62 C977.244,1215.26 977.699,1216.87 978.095,1218.45 C978.492,1220.04 978.877,1221.6 979.25,1223.14 C979.484,1221.6 979.787,1219.99 980.16,1218.31 C980.534,1216.63 980.93,1215.07 981.35,1213.62 L995.21,1167.98 C995.444,1167.24 995.887,1166.62 996.54,1166.13 C997.194,1165.64 997.964,1165.39 998.85,1165.39 L1008.23,1165.39 L985.27,1236.3 L975.4,1236.3 C974.187,1236.3 973.347,1235.51 972.88,1233.92 L957.2,1185.83 C956.827,1184.76 956.524,1183.68 956.29,1182.58 C956.057,1181.48 955.824,1180.4 955.59,1179.32 C955.357,1180.4 955.124,1181.49 954.89,1182.61 C954.657,1183.73 954.354,1184.83 953.98,1185.9 L938.09,1233.92 C937.577,1235.51 936.62,1236.3 935.22,1236.3 L925.84,1236.3 L902.88,1165.39 M1033.21,1165.39 L1033.21,1236.3 L1020.75,1236.3 L1020.75,1165.39 L1033.21,1165.39 M1036.01,1143.13 C1036.01,1144.35 1035.77,1145.48 1035.28,1146.53 C1034.79,1147.58 1034.14,1148.51 1033.32,1149.33 C1032.5,1150.15 1031.56,1150.79 1030.48,1151.25 C1029.41,1151.72 1028.27,1151.95 1027.05,1151.95 C1025.84,1151.95 1024.71,1151.72 1023.66,1151.25 C1022.61,1150.79 1021.68,1150.15 1020.86,1149.33 C1020.04,1148.51 1019.4,1147.58 1018.93,1146.53 C1018.47,1145.48 1018.23,1144.35 1018.23,1143.13 C1018.23,1141.92 1018.47,1140.77 1018.93,1139.67 C1019.4,1138.57 1020.04,1137.62 1020.86,1136.8 C1021.68,1135.98 1022.61,1135.34 1023.66,1134.87 C1024.71,1134.41 1025.84,1134.17 1027.05,1134.17 C1028.27,1134.17 1029.41,1134.41 1030.48,1134.87 C1031.56,1135.34 1032.5,1135.98 1033.32,1136.8 C1034.14,1137.62 1034.79,1138.57 1035.28,1139.67 C1035.77,1140.77 1036.01,1141.92 1036.01,1143.13 M1055.18,1260.31 L1055.18,1165.39 L1062.6,1165.39 C1064.38,1165.39 1065.5,1166.26 1065.96,1167.98 L1067.01,1176.38 C1070.05,1172.7 1073.51,1169.73 1077.41,1167.49 C1081.3,1165.25 1085.8,1164.13 1090.88,1164.13 C1094.94,1164.13 1098.63,1164.92 1101.94,1166.48 C1105.26,1168.04 1108.08,1170.35 1110.41,1173.41 C1112.75,1176.47 1114.54,1180.26 1115.8,1184.78 C1117.06,1189.31 1117.69,1194.51 1117.69,1200.39 C1117.69,1205.62 1116.99,1210.49 1115.59,1214.99 C1114.19,1219.49 1112.19,1223.39 1109.57,1226.68 C1106.96,1229.97 1103.75,1232.56 1099.95,1234.45 C1096.14,1236.34 1091.86,1237.28 1087.1,1237.28 C1082.72,1237.28 1078.97,1236.56 1075.87,1235.11 C1072.76,1233.67 1070.02,1231.61 1067.64,1228.95 L1067.64,1260.31 L1055.18,1260.31 M1086.75,1174.21 C1082.69,1174.21 1079.13,1175.15 1076.08,1177.01 C1073.02,1178.88 1070.21,1181.52 1067.64,1184.92 L1067.64,1219.22 C1069.93,1222.3 1072.44,1224.47 1075.17,1225.73 C1077.9,1226.99 1080.94,1227.62 1084.3,1227.62 C1090.88,1227.62 1095.95,1225.27 1099.49,1220.55 C1103.04,1215.84 1104.81,1209.12 1104.81,1200.39 C1104.81,1195.77 1104.4,1191.81 1103.59,1188.49 C1102.77,1185.18 1101.59,1182.46 1100.05,1180.34 C1098.51,1178.22 1096.62,1176.66 1094.38,1175.68 C1092.14,1174.7 1089.6,1174.21 1086.75,1174.21 M1160.52,1164.27 C1164.77,1164.27 1168.69,1164.99 1172.28,1166.41 C1175.87,1167.83 1178.98,1169.89 1181.59,1172.57 C1184.2,1175.25 1186.24,1178.57 1187.71,1182.51 C1189.18,1186.45 1189.92,1190.94 1189.92,1195.98 C1189.92,1197.94 1189.71,1199.25 1189.29,1199.9 C1188.87,1200.56 1188.08,1200.88 1186.91,1200.88 L1139.73,1200.88 C1139.82,1205.36 1140.43,1209.26 1141.55,1212.57 C1142.67,1215.89 1144.21,1218.65 1146.17,1220.87 C1148.13,1223.09 1150.46,1224.74 1153.17,1225.84 C1155.88,1226.94 1158.91,1227.48 1162.27,1227.48 C1165.4,1227.48 1168.09,1227.12 1170.35,1226.4 C1172.62,1225.68 1174.57,1224.89 1176.2,1224.05 C1177.83,1223.21 1179.2,1222.43 1180.29,1221.71 C1181.39,1220.99 1182.34,1220.62 1183.13,1220.62 C1184.16,1220.62 1184.95,1221.02 1185.51,1221.81 L1189.01,1226.36 C1187.47,1228.23 1185.63,1229.85 1183.48,1231.23 C1181.33,1232.61 1179.03,1233.74 1176.58,1234.62 C1174.13,1235.51 1171.6,1236.18 1168.99,1236.62 C1166.38,1237.06 1163.79,1237.28 1161.22,1237.28 C1156.32,1237.28 1151.8,1236.46 1147.67,1234.8 C1143.54,1233.14 1139.97,1230.72 1136.96,1227.52 C1133.95,1224.32 1131.61,1220.37 1129.93,1215.65 C1128.25,1210.94 1127.41,1205.53 1127.41,1199.41 C1127.41,1194.47 1128.17,1189.85 1129.68,1185.55 C1131.2,1181.26 1133.38,1177.54 1136.23,1174.39 C1139.08,1171.24 1142.55,1168.77 1146.66,1166.97 C1150.77,1165.17 1155.39,1164.27 1160.52,1164.27 M1160.8,1173.44 C1154.78,1173.44 1150.04,1175.18 1146.59,1178.66 C1143.14,1182.14 1140.99,1186.95 1140.15,1193.11 L1178.72,1193.11 C1178.72,1190.22 1178.32,1187.57 1177.53,1185.17 C1176.74,1182.77 1175.57,1180.69 1174.03,1178.94 C1172.49,1177.19 1170.61,1175.84 1168.39,1174.88 C1166.18,1173.92 1163.65,1173.44 1160.8,1173.44 M1246.68,1133.19 L1246.68,1236.3 L1234.22,1236.3 L1234.22,1133.19 L1246.68,1133.19 M1296.72,1164.27 C1300.97,1164.27 1304.89,1164.99 1308.48,1166.41 C1312.07,1167.83 1315.18,1169.89 1317.79,1172.57 C1320.41,1175.25 1322.45,1178.57 1323.92,1182.51 C1325.39,1186.45 1326.12,1190.94 1326.12,1195.98 C1326.12,1197.94 1325.91,1199.25 1325.49,1199.9 C1325.07,1200.56 1324.28,1200.88 1323.11,1200.88 L1275.93,1200.88 C1276.02,1205.36 1276.63,1209.26 1277.75,1212.57 C1278.87,1215.89 1280.41,1218.65 1282.37,1220.87 C1284.33,1223.09 1286.67,1224.74 1289.37,1225.84 C1292.08,1226.94 1295.11,1227.48 1298.47,1227.48 C1301.6,1227.48 1304.29,1227.12 1306.56,1226.4 C1308.82,1225.68 1310.77,1224.89 1312.4,1224.05 C1314.03,1223.21 1315.4,1222.43 1316.5,1221.71 C1317.59,1220.99 1318.54,1220.62 1319.33,1220.62 C1320.36,1220.62 1321.15,1221.02 1321.71,1221.81 L1325.21,1226.36 C1323.67,1228.23 1321.83,1229.85 1319.68,1231.23 C1317.53,1232.61 1315.24,1233.74 1312.79,1234.62 C1310.34,1235.51 1307.8,1236.18 1305.19,1236.62 C1302.58,1237.06 1299.99,1237.28 1297.42,1237.28 C1292.52,1237.28 1288.01,1236.46 1283.88,1234.8 C1279.75,1233.14 1276.18,1230.72 1273.17,1227.52 C1270.16,1224.32 1267.81,1220.37 1266.13,1215.65 C1264.45,1210.94 1263.61,1205.53 1263.61,1199.41 C1263.61,1194.47 1264.37,1189.85 1265.89,1185.55 C1267.4,1181.26 1269.58,1177.54 1272.43,1174.39 C1275.28,1171.24 1278.76,1168.77 1282.86,1166.97 C1286.97,1165.17 1291.59,1164.27 1296.72,1164.27 M1297,1173.44 C1290.98,1173.44 1286.24,1175.18 1282.79,1178.66 C1279.34,1182.14 1277.19,1186.95 1276.35,1193.11 L1314.92,1193.11 C1314.92,1190.22 1314.52,1187.57 1313.73,1185.17 C1312.94,1182.77 1311.77,1180.69 1310.23,1178.94 C1308.69,1177.19 1306.81,1175.84 1304.6,1174.88 C1302.38,1173.92 1299.85,1173.44 1297,1173.44 M1344.81,1236.3 L1344.81,1176.03 L1336.97,1175.12 C1335.99,1174.89 1335.19,1174.53 1334.56,1174.04 C1333.93,1173.55 1333.61,1172.84 1333.61,1171.9 L1333.61,1166.79 L1344.81,1166.79 L1344.81,1159.93 C1344.81,1155.87 1345.38,1152.27 1346.53,1149.12 C1347.67,1145.97 1349.3,1143.31 1351.43,1141.14 C1353.55,1138.97 1356.1,1137.32 1359.09,1136.2 C1362.08,1135.08 1365.44,1134.52 1369.17,1134.52 C1372.34,1134.52 1375.28,1134.99 1377.99,1135.92 L1377.71,1142.15 C1377.66,1143.09 1377.27,1143.65 1376.52,1143.83 C1375.77,1144.02 1374.72,1144.11 1373.37,1144.11 L1371.2,1144.11 C1369.05,1144.11 1367.11,1144.39 1365.36,1144.95 C1363.61,1145.51 1362.1,1146.42 1360.84,1147.68 C1359.58,1148.94 1358.61,1150.6 1357.94,1152.65 C1357.26,1154.71 1356.92,1157.25 1356.92,1160.28 L1356.92,1166.79 L1377.43,1166.79 L1377.43,1175.82 L1357.34,1175.82 L1357.34,1236.3 L1344.81,1236.3 M1410.67,1237.42 C1405.07,1237.42 1400.77,1235.86 1397.76,1232.73 C1394.75,1229.61 1393.24,1225.1 1393.24,1219.22 L1393.24,1175.82 L1384.7,1175.82 C1383.96,1175.82 1383.33,1175.6 1382.81,1175.16 C1382.3,1174.72 1382.04,1174.03 1382.04,1173.09 L1382.04,1168.12 L1393.66,1166.65 L1396.53,1144.74 C1396.63,1144.04 1396.93,1143.47 1397.44,1143.03 C1397.96,1142.59 1398.61,1142.36 1399.4,1142.36 L1405.7,1142.36 L1405.7,1166.79 L1426,1166.79 L1426,1175.82 L1405.7,1175.82 L1405.7,1218.38 C1405.7,1221.37 1406.43,1223.59 1407.87,1225.03 C1409.32,1226.48 1411.19,1227.2 1413.47,1227.2 C1414.78,1227.2 1415.91,1227.03 1416.87,1226.68 C1417.82,1226.33 1418.65,1225.94 1419.35,1225.52 C1420.05,1225.1 1420.65,1224.72 1421.14,1224.37 C1421.63,1224.02 1422.06,1223.84 1422.43,1223.84 C1423.09,1223.84 1423.67,1224.24 1424.18,1225.03 L1427.82,1230.98 C1425.68,1232.99 1423.09,1234.57 1420.05,1235.71 C1417.02,1236.85 1413.89,1237.42 1410.67,1237.42 M1489.91,1237.42 C1484.31,1237.42 1480,1235.86 1476.99,1232.73 C1473.98,1229.61 1472.48,1225.1 1472.48,1219.22 L1472.48,1175.82 L1463.94,1175.82 C1463.19,1175.82 1462.56,1175.6 1462.05,1175.16 C1461.53,1174.72 1461.28,1174.03 1461.28,1173.09 L1461.28,1168.12 L1472.9,1166.65 L1475.77,1144.74 C1475.86,1144.04 1476.16,1143.47 1476.68,1143.03 C1477.19,1142.59 1477.84,1142.36 1478.64,1142.36 L1484.94,1142.36 L1484.94,1166.79 L1505.24,1166.79 L1505.24,1175.82 L1484.94,1175.82 L1484.94,1218.38 C1484.94,1221.37 1485.66,1223.59 1487.11,1225.03 C1488.55,1226.48 1490.42,1227.2 1492.71,1227.2 C1494.01,1227.2 1495.15,1227.03 1496.1,1226.68 C1497.06,1226.33 1497.89,1225.94 1498.59,1225.52 C1499.29,1225.1 1499.88,1224.72 1500.37,1224.37 C1500.86,1224.02 1501.29,1223.84 1501.67,1223.84 C1502.32,1223.84 1502.9,1224.24 1503.42,1225.03 L1507.06,1230.98 C1504.91,1232.99 1502.32,1234.57 1499.29,1235.71 C1496.25,1236.85 1493.13,1237.42 1489.91,1237.42 M1549.34,1164.27 C1554.52,1164.27 1559.19,1165.14 1563.37,1166.86 C1567.55,1168.59 1571.09,1171.04 1574.01,1174.21 C1576.93,1177.39 1579.17,1181.23 1580.73,1185.73 C1582.29,1190.23 1583.08,1195.26 1583.08,1200.81 C1583.08,1206.41 1582.29,1211.45 1580.73,1215.93 C1579.17,1220.41 1576.93,1224.24 1574.01,1227.41 C1571.09,1230.59 1567.55,1233.03 1563.37,1234.73 C1559.19,1236.43 1554.52,1237.28 1549.34,1237.28 C1544.16,1237.28 1539.48,1236.43 1535.3,1234.73 C1531.12,1233.03 1527.57,1230.59 1524.63,1227.41 C1521.69,1224.24 1519.42,1220.41 1517.84,1215.93 C1516.25,1211.45 1515.46,1206.41 1515.46,1200.81 C1515.46,1195.26 1516.25,1190.23 1517.84,1185.73 C1519.42,1181.23 1521.69,1177.39 1524.63,1174.21 C1527.57,1171.04 1531.12,1168.59 1535.3,1166.86 C1539.48,1165.14 1544.16,1164.27 1549.34,1164.27 M1549.34,1227.55 C1556.34,1227.55 1561.56,1225.21 1565.02,1220.52 C1568.47,1215.83 1570.2,1209.28 1570.2,1200.88 C1570.2,1192.44 1568.47,1185.86 1565.02,1181.14 C1561.56,1176.43 1556.34,1174.07 1549.34,1174.07 C1545.79,1174.07 1542.71,1174.68 1540.1,1175.89 C1537.48,1177.11 1535.3,1178.86 1533.55,1181.14 C1531.8,1183.43 1530.49,1186.24 1529.63,1189.58 C1528.77,1192.92 1528.34,1196.68 1528.34,1200.88 C1528.34,1205.08 1528.77,1208.84 1529.63,1212.15 C1530.49,1215.47 1531.8,1218.26 1533.55,1220.52 C1535.3,1222.78 1537.48,1224.52 1540.1,1225.73 C1542.71,1226.95 1545.79,1227.55 1549.34,1227.55 M1957.52,1186.18 C1957.52,1193.7 1956.33,1200.53 1953.95,1206.69 C1951.57,1212.85 1948.21,1218.13 1943.87,1222.51 C1939.53,1226.9 1934.33,1230.3 1928.26,1232.7 C1922.19,1235.1 1915.47,1236.3 1908.1,1236.3 L1870.58,1236.3 L1870.58,1135.99 L1908.1,1135.99 C1915.47,1135.99 1922.19,1137.2 1928.26,1139.6 C1934.33,1142 1939.53,1145.41 1943.87,1149.82 C1948.21,1154.23 1951.57,1159.51 1953.95,1165.67 C1956.33,1171.83 1957.52,1178.67 1957.52,1186.18 M1943.59,1186.18 C1943.59,1180.02 1942.75,1174.52 1941.07,1169.66 C1939.39,1164.81 1937.01,1160.7 1933.93,1157.34 C1930.85,1153.98 1927.12,1151.42 1922.73,1149.64 C1918.34,1147.87 1913.47,1146.98 1908.1,1146.98 L1884.23,1146.98 L1884.23,1225.31 L1908.1,1225.31 C1913.47,1225.31 1918.34,1224.43 1922.73,1222.65 C1927.12,1220.88 1930.85,1218.33 1933.93,1214.99 C1937.01,1211.65 1939.39,1207.56 1941.07,1202.7 C1942.75,1197.85 1943.59,1192.34 1943.59,1186.18 M1987.89,1165.39 L1987.89,1236.3 L1975.43,1236.3 L1975.43,1165.39 L1987.89,1165.39 M1990.69,1143.13 C1990.69,1144.35 1990.44,1145.48 1989.95,1146.53 C1989.46,1147.58 1988.81,1148.51 1987.99,1149.33 C1987.18,1150.15 1986.23,1150.79 1985.16,1151.25 C1984.08,1151.72 1982.94,1151.95 1981.73,1151.95 C1980.51,1151.95 1979.38,1151.72 1978.33,1151.25 C1977.28,1150.79 1976.35,1150.15 1975.53,1149.33 C1974.71,1148.51 1974.07,1147.58 1973.61,1146.53 C1973.14,1145.48 1972.91,1144.35 1972.91,1143.13 C1972.91,1141.92 1973.14,1140.77 1973.61,1139.67 C1974.07,1138.57 1974.71,1137.62 1975.53,1136.8 C1976.35,1135.98 1977.28,1135.34 1978.33,1134.87 C1979.38,1134.41 1980.51,1134.17 1981.73,1134.17 C1982.94,1134.17 1984.08,1134.41 1985.16,1134.87 C1986.23,1135.34 1987.18,1135.98 1987.99,1136.8 C1988.81,1137.62 1989.46,1138.57 1989.95,1139.67 C1990.44,1140.77 1990.69,1141.92 1990.69,1143.13 M2050.45,1177.08 C2049.89,1178.11 2049.03,1178.62 2047.86,1178.62 C2047.16,1178.62 2046.37,1178.37 2045.48,1177.85 C2044.6,1177.34 2043.51,1176.77 2042.23,1176.14 C2040.95,1175.51 2039.42,1174.93 2037.64,1174.39 C2035.87,1173.85 2033.77,1173.58 2031.34,1173.58 C2029.24,1173.58 2027.35,1173.85 2025.67,1174.39 C2023.99,1174.93 2022.56,1175.66 2021.37,1176.59 C2020.18,1177.53 2019.27,1178.61 2018.64,1179.85 C2018.01,1181.09 2017.69,1182.43 2017.69,1183.87 C2017.69,1185.69 2018.22,1187.21 2019.27,1188.42 C2020.32,1189.64 2021.71,1190.69 2023.43,1191.57 C2025.16,1192.46 2027.12,1193.24 2029.31,1193.92 C2031.51,1194.6 2033.76,1195.32 2036.07,1196.09 C2038.38,1196.86 2040.63,1197.71 2042.82,1198.64 C2045.02,1199.58 2046.98,1200.74 2048.7,1202.14 C2050.43,1203.54 2051.82,1205.26 2052.87,1207.29 C2053.92,1209.32 2054.44,1211.76 2054.44,1214.6 C2054.44,1217.87 2053.86,1220.89 2052.69,1223.67 C2051.53,1226.45 2049.8,1228.85 2047.51,1230.88 C2045.23,1232.91 2042.43,1234.51 2039.11,1235.67 C2035.8,1236.84 2031.97,1237.42 2027.63,1237.42 C2022.69,1237.42 2018.21,1236.62 2014.19,1235.01 C2010.18,1233.4 2006.77,1231.33 2003.97,1228.81 L2006.91,1224.05 C2007.29,1223.45 2007.73,1222.98 2008.24,1222.65 C2008.76,1222.33 2009.43,1222.16 2010.27,1222.16 C2011.11,1222.16 2012,1222.49 2012.93,1223.14 C2013.87,1223.8 2015,1224.52 2016.33,1225.31 C2017.66,1226.11 2019.27,1226.83 2021.16,1227.48 C2023.05,1228.14 2025.42,1228.46 2028.26,1228.46 C2030.69,1228.46 2032.81,1228.15 2034.63,1227.52 C2036.45,1226.89 2037.97,1226.04 2039.18,1224.96 C2040.4,1223.89 2041.3,1222.65 2041.88,1221.25 C2042.46,1219.85 2042.75,1218.36 2042.75,1216.77 C2042.75,1214.81 2042.23,1213.19 2041.18,1211.91 C2040.13,1210.63 2038.74,1209.53 2037.01,1208.62 C2035.29,1207.71 2033.32,1206.92 2031.1,1206.24 C2028.88,1205.56 2026.62,1204.85 2024.31,1204.1 C2022,1203.36 2019.74,1202.51 2017.52,1201.55 C2015.3,1200.59 2013.33,1199.39 2011.6,1197.94 C2009.88,1196.5 2008.49,1194.71 2007.44,1192.59 C2006.39,1190.47 2005.86,1187.89 2005.86,1184.85 C2005.86,1182.15 2006.42,1179.55 2007.54,1177.05 C2008.66,1174.55 2010.3,1172.36 2012.44,1170.47 C2014.59,1168.58 2017.23,1167.07 2020.35,1165.95 C2023.48,1164.83 2027.05,1164.27 2031.06,1164.27 C2035.73,1164.27 2039.92,1165.01 2043.63,1166.48 C2047.34,1167.95 2050.55,1169.97 2053.25,1172.53 L2050.45,1177.08 M2084.46,1133.19 L2084.46,1236.3 L2072,1236.3 L2072,1133.19 L2084.46,1133.19 M2120.29,1165.39 L2120.29,1236.3 L2107.83,1236.3 L2107.83,1165.39 L2120.29,1165.39 M2123.09,1143.13 C2123.09,1144.35 2122.85,1145.48 2122.36,1146.53 C2121.87,1147.58 2121.21,1148.51 2120.4,1149.33 C2119.58,1150.15 2118.64,1150.79 2117.56,1151.25 C2116.49,1151.72 2115.35,1151.95 2114.13,1151.95 C2112.92,1151.95 2111.79,1151.72 2110.74,1151.25 C2109.69,1150.79 2108.75,1150.15 2107.94,1149.33 C2107.12,1148.51 2106.48,1147.58 2106.01,1146.53 C2105.55,1145.48 2105.31,1144.35 2105.31,1143.13 C2105.31,1141.92 2105.55,1140.77 2106.01,1139.67 C2106.48,1138.57 2107.12,1137.62 2107.94,1136.8 C2108.75,1135.98 2109.69,1135.34 2110.74,1134.87 C2111.79,1134.41 2112.92,1134.17 2114.13,1134.17 C2115.35,1134.17 2116.49,1134.41 2117.56,1134.87 C2118.64,1135.34 2119.58,1135.98 2120.4,1136.8 C2121.21,1137.62 2121.87,1138.57 2122.36,1139.67 C2122.85,1140.77 2123.09,1141.92 2123.09,1143.13 M2155.21,1133.19 L2155.21,1193.88 L2158.43,1193.88 C2159.36,1193.88 2160.13,1193.76 2160.74,1193.5 C2161.35,1193.24 2162.02,1192.72 2162.77,1191.92 L2185.17,1167.91 C2185.87,1167.17 2186.57,1166.56 2187.27,1166.09 C2187.97,1165.63 2188.9,1165.39 2190.07,1165.39 L2201.41,1165.39 L2175.3,1193.18 C2174.65,1193.98 2174.01,1194.68 2173.38,1195.28 C2172.75,1195.89 2172.03,1196.43 2171.24,1196.89 C2172.08,1197.45 2172.84,1198.1 2173.52,1198.82 C2174.19,1199.54 2174.83,1200.37 2175.44,1201.3 L2203.16,1236.3 L2191.96,1236.3 C2190.93,1236.3 2190.06,1236.11 2189.34,1235.71 C2188.61,1235.31 2187.92,1234.69 2187.27,1233.85 L2163.96,1204.8 C2163.26,1203.82 2162.56,1203.18 2161.86,1202.88 C2161.16,1202.58 2160.11,1202.42 2158.71,1202.42 L2155.21,1202.42 L2155.21,1236.3 L2142.68,1236.3 L2142.68,1133.19 L2155.21,1133.19 M2239.49,1164.27 C2243.73,1164.27 2247.65,1164.99 2251.25,1166.41 C2254.84,1167.83 2257.94,1169.89 2260.56,1172.57 C2263.17,1175.25 2265.21,1178.57 2266.68,1182.51 C2268.15,1186.45 2268.89,1190.94 2268.89,1195.98 C2268.89,1197.94 2268.68,1199.25 2268.26,1199.9 C2267.84,1200.56 2267.04,1200.88 2265.88,1200.88 L2218.7,1200.88 C2218.79,1205.36 2219.4,1209.26 2220.52,1212.57 C2221.64,1215.89 2223.18,1218.65 2225.14,1220.87 C2227.1,1223.09 2229.43,1224.74 2232.14,1225.84 C2234.84,1226.94 2237.88,1227.48 2241.24,1227.48 C2244.36,1227.48 2247.06,1227.12 2249.32,1226.4 C2251.59,1225.68 2253.53,1224.89 2255.17,1224.05 C2256.8,1223.21 2258.17,1222.43 2259.26,1221.71 C2260.36,1220.99 2261.3,1220.62 2262.1,1220.62 C2263.12,1220.62 2263.92,1221.02 2264.48,1221.81 L2267.98,1226.36 C2266.44,1228.23 2264.59,1229.85 2262.45,1231.23 C2260.3,1232.61 2258,1233.74 2255.55,1234.62 C2253.1,1235.51 2250.57,1236.18 2247.96,1236.62 C2245.34,1237.06 2242.75,1237.28 2240.19,1237.28 C2235.29,1237.28 2230.77,1236.46 2226.64,1234.8 C2222.51,1233.14 2218.94,1230.72 2215.93,1227.52 C2212.92,1224.32 2210.58,1220.37 2208.9,1215.65 C2207.22,1210.94 2206.38,1205.53 2206.38,1199.41 C2206.38,1194.47 2207.14,1189.85 2208.65,1185.55 C2210.17,1181.26 2212.35,1177.54 2215.2,1174.39 C2218.04,1171.24 2221.52,1168.77 2225.63,1166.97 C2229.73,1165.17 2234.35,1164.27 2239.49,1164.27 M2239.77,1173.44 C2233.75,1173.44 2229.01,1175.18 2225.56,1178.66 C2222.1,1182.14 2219.96,1186.95 2219.12,1193.11 L2257.69,1193.11 C2257.69,1190.22 2257.29,1187.57 2256.5,1185.17 C2255.7,1182.77 2254.54,1180.69 2253,1178.94 C2251.46,1177.19 2249.58,1175.84 2247.36,1174.88 C2245.15,1173.92 2242.61,1173.44 2239.77,1173.44 Z" style="stroke:none;fill-rule:nonzero;fill:#ffffff;fill-opacity:1;"/>
        </g>
        <g id="Shape7">
            <desc shapeID="7" type="2" basicInfo-basicType="0" basicInfo-roundedRectRadius="12" basicInfo-polygonSides="6" basicInfo-starPoints="5" bounding="rect(-765.677,-236.915,1531.35,473.829)" text="Double tap for            Info" font-familyName="Lato" font-pixelSize="140" font-bold="0" font-underline="0" font-alignment="0" strokeStyle="0" markerStart="0" markerEnd="0" shadowEnabled="0" shadowOffsetX="0" shadowOffsetY="2" shadowBlur="4" shadowOpacity="160" blurEnabled="0" blurRadius="4" transform="matrix(1,0,0,1,1585.27,1873.4)" pers-center="0,0" pers-size="0,0" pers-start="0,0" pers-end="0,0" locked="0" mesh="" flag=""/>
            <path id="shapePath7" d="M918.722,1877.54 C918.722,1885.06 917.532,1891.89 915.152,1898.05 C912.772,1904.21 909.412,1909.49 905.072,1913.87 C900.732,1918.26 895.529,1921.66 889.462,1924.06 C883.395,1926.46 876.675,1927.66 869.302,1927.66 L831.782,1927.66 L831.782,1827.35 L869.302,1827.35 C876.675,1827.35 883.395,1828.56 889.462,1830.96 C895.529,1833.36 900.732,1836.77 905.072,1841.18 C909.412,1845.59 912.772,1850.87 915.152,1857.03 C917.532,1863.19 918.722,1870.03 918.722,1877.54 M904.792,1877.54 C904.792,1871.38 903.952,1865.88 902.272,1861.02 C900.592,1856.17 898.212,1852.06 895.132,1848.7 C892.052,1845.34 888.319,1842.78 883.932,1841 C879.545,1839.23 874.669,1838.34 869.302,1838.34 L845.432,1838.34 L845.432,1916.67 L869.302,1916.67 C874.669,1916.67 879.545,1915.79 883.932,1914.01 C888.319,1912.24 892.052,1909.69 895.132,1906.35 C898.212,1903.01 900.592,1898.92 902.272,1894.06 C903.952,1889.21 904.792,1883.7 904.792,1877.54 M963.928,1855.63 C969.108,1855.63 973.787,1856.5 977.963,1858.22 C982.14,1859.95 985.687,1862.4 988.603,1865.57 C991.52,1868.75 993.76,1872.59 995.323,1877.09 C996.887,1881.59 997.668,1886.62 997.668,1892.17 C997.668,1897.77 996.887,1902.81 995.323,1907.29 C993.76,1911.77 991.52,1915.6 988.603,1918.77 C985.687,1921.95 982.14,1924.39 977.963,1926.09 C973.787,1927.79 969.108,1928.64 963.928,1928.64 C958.748,1928.64 954.07,1927.79 949.893,1926.09 C945.717,1924.39 942.158,1921.95 939.218,1918.77 C936.278,1915.6 934.015,1911.77 932.428,1907.29 C930.842,1902.81 930.048,1897.77 930.048,1892.17 C930.048,1886.62 930.842,1881.59 932.428,1877.09 C934.015,1872.59 936.278,1868.75 939.218,1865.57 C942.158,1862.4 945.717,1859.95 949.893,1858.22 C954.07,1856.5 958.748,1855.63 963.928,1855.63 M963.928,1918.91 C970.928,1918.91 976.155,1916.57 979.608,1911.88 C983.062,1907.19 984.788,1900.64 984.788,1892.24 C984.788,1883.8 983.062,1877.22 979.608,1872.5 C976.155,1867.79 970.928,1865.43 963.928,1865.43 C960.382,1865.43 957.302,1866.04 954.688,1867.25 C952.075,1868.47 949.893,1870.22 948.143,1872.5 C946.393,1874.79 945.087,1877.6 944.223,1880.94 C943.36,1884.28 942.928,1888.04 942.928,1892.24 C942.928,1896.44 943.36,1900.2 944.223,1903.51 C945.087,1906.83 946.393,1909.62 948.143,1911.88 C949.893,1914.14 952.075,1915.88 954.688,1917.09 C957.302,1918.31 960.382,1918.91 963.928,1918.91 M1023.84,1856.75 L1023.84,1901.97 C1023.84,1907.34 1025.07,1911.49 1027.55,1914.43 C1030.02,1917.37 1033.75,1918.84 1038.75,1918.84 C1042.39,1918.84 1045.82,1917.98 1049.04,1916.25 C1052.26,1914.53 1055.22,1912.12 1057.93,1909.04 L1057.93,1856.75 L1070.39,1856.75 L1070.39,1927.66 L1062.97,1927.66 C1061.19,1927.66 1060.07,1926.8 1059.61,1925.07 L1058.63,1917.44 C1055.55,1920.85 1052.09,1923.59 1048.27,1925.67 C1044.44,1927.75 1040.05,1928.78 1035.11,1928.78 C1031.23,1928.78 1027.81,1928.14 1024.85,1926.86 C1021.89,1925.58 1019.4,1923.77 1017.4,1921.43 C1015.39,1919.1 1013.88,1916.28 1012.88,1912.96 C1011.88,1909.65 1011.38,1905.99 1011.38,1901.97 L1011.38,1856.75 L1023.84,1856.75 M1091.3,1927.66 L1091.3,1824.55 L1103.83,1824.55 L1103.83,1866.97 C1106.77,1863.57 1110.15,1860.83 1113.95,1858.75 C1117.75,1856.67 1122.1,1855.63 1127,1855.63 C1131.11,1855.63 1134.82,1856.4 1138.13,1857.94 C1141.45,1859.48 1144.27,1861.78 1146.6,1864.84 C1148.94,1867.9 1150.73,1871.68 1151.99,1876.18 C1153.25,1880.68 1153.88,1885.87 1153.88,1891.75 C1153.88,1896.98 1153.18,1901.85 1151.78,1906.35 C1150.38,1910.85 1148.37,1914.75 1145.73,1918.04 C1143.09,1921.33 1139.87,1923.92 1136.07,1925.81 C1132.27,1927.7 1127.98,1928.64 1123.22,1928.64 C1118.65,1928.64 1114.77,1927.76 1111.57,1925.98 C1108.37,1924.21 1105.58,1921.74 1103.2,1918.56 L1102.57,1925 C1102.2,1926.78 1101.13,1927.66 1099.35,1927.66 L1091.3,1927.66 M1122.94,1865.57 C1118.88,1865.57 1115.33,1866.51 1112.27,1868.37 C1109.21,1870.24 1106.4,1872.88 1103.83,1876.28 L1103.83,1910.58 C1106.07,1913.66 1108.56,1915.83 1111.29,1917.09 C1114.02,1918.35 1117.06,1918.98 1120.42,1918.98 C1127.05,1918.98 1132.14,1916.63 1135.68,1911.91 C1139.23,1907.2 1141,1900.48 1141,1891.75 C1141,1887.13 1140.6,1883.17 1139.78,1879.85 C1138.96,1876.54 1137.78,1873.82 1136.24,1871.7 C1134.7,1869.58 1132.81,1868.02 1130.57,1867.04 C1128.33,1866.06 1125.79,1865.57 1122.94,1865.57 M1182.99,1824.55 L1182.99,1927.66 L1170.53,1927.66 L1170.53,1824.55 L1182.99,1824.55 M1233.03,1855.63 C1237.28,1855.63 1241.2,1856.35 1244.79,1857.77 C1248.39,1859.19 1251.49,1861.25 1254.1,1863.93 C1256.72,1866.61 1258.76,1869.93 1260.23,1873.87 C1261.7,1877.81 1262.43,1882.3 1262.43,1887.34 C1262.43,1889.3 1262.22,1890.61 1261.8,1891.26 C1261.38,1891.92 1260.59,1892.24 1259.42,1892.24 L1212.24,1892.24 C1212.34,1896.72 1212.94,1900.62 1214.06,1903.93 C1215.18,1907.25 1216.72,1910.01 1218.68,1912.23 C1220.64,1914.45 1222.98,1916.1 1225.68,1917.2 C1228.39,1918.3 1231.42,1918.84 1234.78,1918.84 C1237.91,1918.84 1240.6,1918.48 1242.87,1917.76 C1245.13,1917.04 1247.08,1916.25 1248.71,1915.41 C1250.35,1914.57 1251.71,1913.79 1252.81,1913.07 C1253.9,1912.35 1254.85,1911.98 1255.64,1911.98 C1256.67,1911.98 1257.46,1912.38 1258.02,1913.17 L1261.52,1917.72 C1259.98,1919.59 1258.14,1921.21 1255.99,1922.59 C1253.85,1923.97 1251.55,1925.1 1249.1,1925.98 C1246.65,1926.87 1244.12,1927.54 1241.5,1927.98 C1238.89,1928.42 1236.3,1928.64 1233.73,1928.64 C1228.83,1928.64 1224.32,1927.82 1220.19,1926.16 C1216.06,1924.5 1212.49,1922.08 1209.48,1918.88 C1206.47,1915.68 1204.12,1911.73 1202.44,1907.01 C1200.76,1902.3 1199.92,1896.89 1199.92,1890.77 C1199.92,1885.83 1200.68,1881.21 1202.2,1876.91 C1203.71,1872.62 1205.9,1868.9 1208.74,1865.75 C1211.59,1862.6 1215.07,1860.13 1219.17,1858.33 C1223.28,1856.53 1227.9,1855.63 1233.03,1855.63 M1233.31,1864.8 C1227.29,1864.8 1222.56,1866.54 1219.1,1870.02 C1215.65,1873.5 1213.5,1878.31 1212.66,1884.47 L1251.23,1884.47 C1251.23,1881.58 1250.84,1878.93 1250.04,1876.53 C1249.25,1874.13 1248.08,1872.05 1246.54,1870.3 C1245,1868.55 1243.12,1867.2 1240.91,1866.24 C1238.69,1865.28 1236.16,1864.8 1233.31,1864.8 M1326.83,1928.78 C1321.23,1928.78 1316.92,1927.22 1313.91,1924.09 C1310.9,1920.97 1309.4,1916.46 1309.4,1910.58 L1309.4,1867.18 L1300.86,1867.18 C1300.11,1867.18 1299.48,1866.96 1298.97,1866.52 C1298.45,1866.08 1298.2,1865.39 1298.2,1864.45 L1298.2,1859.48 L1309.82,1858.01 L1312.69,1836.1 C1312.78,1835.4 1313.08,1834.83 1313.6,1834.39 C1314.11,1833.95 1314.76,1833.72 1315.56,1833.72 L1321.86,1833.72 L1321.86,1858.15 L1342.16,1858.15 L1342.16,1867.18 L1321.86,1867.18 L1321.86,1909.74 C1321.86,1912.73 1322.58,1914.95 1324.03,1916.39 C1325.47,1917.84 1327.34,1918.56 1329.63,1918.56 C1330.93,1918.56 1332.07,1918.39 1333.02,1918.04 C1333.98,1917.69 1334.81,1917.3 1335.51,1916.88 C1336.21,1916.46 1336.8,1916.08 1337.29,1915.73 C1337.78,1915.38 1338.21,1915.2 1338.59,1915.2 C1339.24,1915.2 1339.82,1915.6 1340.34,1916.39 L1343.98,1922.34 C1341.83,1924.35 1339.24,1925.93 1336.21,1927.07 C1333.17,1928.21 1330.05,1928.78 1326.83,1928.78 M1409.64,1927.66 L1404.11,1927.66 C1402.89,1927.66 1401.91,1927.48 1401.17,1927.1 C1400.42,1926.73 1399.93,1925.94 1399.7,1924.72 L1398.3,1918.14 C1396.43,1919.82 1394.61,1921.33 1392.84,1922.66 C1391.06,1923.99 1389.2,1925.11 1387.24,1926.02 C1385.28,1926.93 1383.19,1927.62 1380.97,1928.08 C1378.75,1928.55 1376.29,1928.78 1373.59,1928.78 C1370.83,1928.78 1368.25,1928.4 1365.85,1927.63 C1363.45,1926.86 1361.36,1925.7 1359.59,1924.16 C1357.81,1922.62 1356.4,1920.68 1355.35,1918.32 C1354.3,1915.96 1353.78,1913.17 1353.78,1909.95 C1353.78,1907.15 1354.55,1904.46 1356.09,1901.87 C1357.63,1899.28 1360.11,1896.98 1363.54,1894.97 C1366.97,1892.97 1371.46,1891.32 1377.02,1890.04 C1382.57,1888.76 1389.36,1888.02 1397.39,1887.83 L1397.39,1882.3 C1397.39,1876.8 1396.21,1872.63 1393.85,1869.81 C1391.49,1866.99 1388.01,1865.57 1383.39,1865.57 C1380.35,1865.57 1377.8,1865.96 1375.72,1866.73 C1373.64,1867.5 1371.85,1868.36 1370.33,1869.32 C1368.81,1870.28 1367.51,1871.14 1366.41,1871.91 C1365.31,1872.68 1364.23,1873.06 1363.16,1873.06 C1362.32,1873.06 1361.58,1872.84 1360.95,1872.4 C1360.32,1871.96 1359.82,1871.41 1359.45,1870.75 L1357.21,1866.76 C1361.13,1862.98 1365.35,1860.16 1369.88,1858.29 C1374.4,1856.43 1379.42,1855.49 1384.93,1855.49 C1388.89,1855.49 1392.42,1856.15 1395.5,1857.45 C1398.58,1858.76 1401.17,1860.58 1403.27,1862.91 C1405.37,1865.25 1406.95,1868.07 1408.03,1871.38 C1409.1,1874.7 1409.64,1878.34 1409.64,1882.3 L1409.64,1927.66 M1377.3,1920.03 C1379.49,1920.03 1381.5,1919.81 1383.32,1919.37 C1385.14,1918.93 1386.85,1918.3 1388.46,1917.48 C1390.07,1916.66 1391.61,1915.67 1393.08,1914.5 C1394.55,1913.34 1395.99,1912.01 1397.39,1910.51 L1397.39,1895.74 C1391.65,1895.93 1386.77,1896.39 1382.76,1897.11 C1378.74,1897.83 1375.48,1898.78 1372.96,1899.94 C1370.44,1901.11 1368.6,1902.49 1367.46,1904.07 C1366.32,1905.66 1365.75,1907.43 1365.75,1909.39 C1365.75,1911.26 1366.05,1912.87 1366.66,1914.22 C1367.26,1915.58 1368.08,1916.69 1369.11,1917.55 C1370.13,1918.41 1371.35,1919.04 1372.75,1919.44 C1374.15,1919.84 1375.66,1920.03 1377.3,1920.03 M1428.53,1951.67 L1428.53,1856.75 L1435.95,1856.75 C1437.72,1856.75 1438.84,1857.62 1439.31,1859.34 L1440.36,1867.74 C1443.39,1864.06 1446.85,1861.09 1450.75,1858.85 C1454.65,1856.61 1459.14,1855.49 1464.23,1855.49 C1468.29,1855.49 1471.97,1856.28 1475.29,1857.84 C1478.6,1859.4 1481.42,1861.71 1483.76,1864.77 C1486.09,1867.83 1487.89,1871.62 1489.15,1876.14 C1490.41,1880.67 1491.04,1885.87 1491.04,1891.75 C1491.04,1896.98 1490.34,1901.85 1488.94,1906.35 C1487.54,1910.85 1485.53,1914.75 1482.92,1918.04 C1480.3,1921.33 1477.09,1923.92 1473.29,1925.81 C1469.49,1927.7 1465.21,1928.64 1460.45,1928.64 C1456.06,1928.64 1452.31,1927.92 1449.21,1926.47 C1446.11,1925.03 1443.37,1922.97 1440.99,1920.31 L1440.99,1951.67 L1428.53,1951.67 M1460.1,1865.57 C1456.04,1865.57 1452.48,1866.51 1449.42,1868.37 C1446.36,1870.24 1443.55,1872.88 1440.99,1876.28 L1440.99,1910.58 C1443.27,1913.66 1445.78,1915.83 1448.51,1917.09 C1451.24,1918.35 1454.29,1918.98 1457.65,1918.98 C1464.23,1918.98 1469.29,1916.63 1472.84,1911.91 C1476.38,1907.2 1478.16,1900.48 1478.16,1891.75 C1478.16,1887.13 1477.75,1883.17 1476.93,1879.85 C1476.11,1876.54 1474.94,1873.82 1473.4,1871.7 C1471.86,1869.58 1469.97,1868.02 1467.73,1867.04 C1465.49,1866.06 1462.94,1865.57 1460.1,1865.57 M1535.61,1927.66 L1535.61,1867.39 L1527.77,1866.48 C1526.79,1866.25 1525.98,1865.89 1525.35,1865.4 C1524.72,1864.91 1524.41,1864.2 1524.41,1863.26 L1524.41,1858.15 L1535.61,1858.15 L1535.61,1851.29 C1535.61,1847.23 1536.18,1843.63 1537.32,1840.48 C1538.46,1837.33 1540.1,1834.67 1542.22,1832.5 C1544.34,1830.33 1546.9,1828.68 1549.89,1827.56 C1552.87,1826.44 1556.23,1825.88 1559.97,1825.88 C1563.14,1825.88 1566.08,1826.35 1568.79,1827.28 L1568.51,1833.51 C1568.46,1834.45 1568.06,1835.01 1567.32,1835.19 C1566.57,1835.38 1565.52,1835.47 1564.17,1835.47 L1562,1835.47 C1559.85,1835.47 1557.9,1835.75 1556.15,1836.31 C1554.4,1836.87 1552.9,1837.78 1551.64,1839.04 C1550.38,1840.3 1549.41,1841.96 1548.73,1844.01 C1548.05,1846.07 1547.72,1848.61 1547.72,1851.64 L1547.72,1858.15 L1568.23,1858.15 L1568.23,1867.18 L1548.14,1867.18 L1548.14,1927.66 L1535.61,1927.66 M1608.68,1855.63 C1613.86,1855.63 1618.54,1856.5 1622.71,1858.22 C1626.89,1859.95 1630.44,1862.4 1633.35,1865.57 C1636.27,1868.75 1638.51,1872.59 1640.07,1877.09 C1641.64,1881.59 1642.42,1886.62 1642.42,1892.17 C1642.42,1897.77 1641.64,1902.81 1640.07,1907.29 C1638.51,1911.77 1636.27,1915.6 1633.35,1918.77 C1630.44,1921.95 1626.89,1924.39 1622.71,1926.09 C1618.54,1927.79 1613.86,1928.64 1608.68,1928.64 C1603.5,1928.64 1598.82,1927.79 1594.64,1926.09 C1590.47,1924.39 1586.91,1921.95 1583.97,1918.77 C1581.03,1915.6 1578.77,1911.77 1577.18,1907.29 C1575.59,1902.81 1574.8,1897.77 1574.8,1892.17 C1574.8,1886.62 1575.59,1881.59 1577.18,1877.09 C1578.77,1872.59 1581.03,1868.75 1583.97,1865.57 C1586.91,1862.4 1590.47,1859.95 1594.64,1858.22 C1598.82,1856.5 1603.5,1855.63 1608.68,1855.63 M1608.68,1918.91 C1615.68,1918.91 1620.91,1916.57 1624.36,1911.88 C1627.81,1907.19 1629.54,1900.64 1629.54,1892.24 C1629.54,1883.8 1627.81,1877.22 1624.36,1872.5 C1620.91,1867.79 1615.68,1865.43 1608.68,1865.43 C1605.13,1865.43 1602.05,1866.04 1599.44,1867.25 C1596.82,1868.47 1594.64,1870.22 1592.89,1872.5 C1591.14,1874.79 1589.84,1877.6 1588.97,1880.94 C1588.11,1884.28 1587.68,1888.04 1587.68,1892.24 C1587.68,1896.44 1588.11,1900.2 1588.97,1903.51 C1589.84,1906.83 1591.14,1909.62 1592.89,1911.88 C1594.64,1914.14 1596.82,1915.88 1599.44,1917.09 C1602.05,1918.31 1605.13,1918.91 1608.68,1918.91 M1657.81,1927.66 L1657.81,1856.75 L1664.95,1856.75 C1666.3,1856.75 1667.23,1857.01 1667.75,1857.52 C1668.26,1858.04 1668.61,1858.92 1668.8,1860.18 L1669.64,1871.24 C1672.06,1866.3 1675.06,1862.44 1678.63,1859.66 C1682.2,1856.88 1686.39,1855.49 1691.2,1855.49 C1693.16,1855.49 1694.93,1855.72 1696.52,1856.16 C1698.1,1856.6 1699.57,1857.22 1700.93,1858.01 L1699.32,1867.32 C1698.99,1868.49 1698.27,1869.07 1697.15,1869.07 C1696.49,1869.07 1695.49,1868.85 1694.14,1868.41 C1692.78,1867.97 1690.89,1867.74 1688.47,1867.74 C1684.13,1867.74 1680.5,1869 1677.58,1871.52 C1674.66,1874.04 1672.23,1877.71 1670.27,1882.51 L1670.27,1927.66 L1657.81,1927.66 M2056.46,1927.66 L2042.88,1927.66 L2042.88,1827.35 L2056.46,1827.35 L2056.46,1927.66 M2081.37,1927.66 L2081.37,1856.75 L2088.79,1856.75 C2090.56,1856.75 2091.68,1857.62 2092.15,1859.34 L2093.13,1867.04 C2096.21,1863.64 2099.65,1860.88 2103.45,1858.78 C2107.26,1856.68 2111.66,1855.63 2116.65,1855.63 C2120.52,1855.63 2123.94,1856.28 2126.9,1857.56 C2129.87,1858.84 2132.34,1860.66 2134.32,1863.02 C2136.31,1865.38 2137.81,1868.21 2138.84,1871.52 C2139.87,1874.84 2140.38,1878.5 2140.38,1882.51 L2140.38,1927.66 L2127.92,1927.66 L2127.92,1882.51 C2127.92,1877.15 2126.69,1872.98 2124.24,1870.02 C2121.79,1867.06 2118.05,1865.57 2113.01,1865.57 C2109.32,1865.57 2105.88,1866.46 2102.68,1868.23 C2099.49,1870.01 2096.54,1872.41 2093.83,1875.44 L2093.83,1927.66 L2081.37,1927.66 M2162,1927.66 L2162,1867.39 L2154.16,1866.48 C2153.18,1866.25 2152.37,1865.89 2151.74,1865.4 C2151.11,1864.91 2150.8,1864.2 2150.8,1863.26 L2150.8,1858.15 L2162,1858.15 L2162,1851.29 C2162,1847.23 2162.57,1843.63 2163.71,1840.48 C2164.86,1837.33 2166.49,1834.67 2168.61,1832.5 C2170.74,1830.33 2173.29,1828.68 2176.28,1827.56 C2179.26,1826.44 2182.62,1825.88 2186.36,1825.88 C2189.53,1825.88 2192.47,1826.35 2195.18,1827.28 L2194.9,1833.51 C2194.85,1834.45 2194.45,1835.01 2193.71,1835.19 C2192.96,1835.38 2191.91,1835.47 2190.56,1835.47 L2188.39,1835.47 C2186.24,1835.47 2184.29,1835.75 2182.54,1836.31 C2180.79,1836.87 2179.29,1837.78 2178.03,1839.04 C2176.77,1840.3 2175.8,1841.96 2175.12,1844.01 C2174.45,1846.07 2174.11,1848.61 2174.11,1851.64 L2174.11,1858.15 L2194.62,1858.15 L2194.62,1867.18 L2174.53,1867.18 L2174.53,1927.66 L2162,1927.66 M2235.07,1855.63 C2240.25,1855.63 2244.93,1856.5 2249.1,1858.22 C2253.28,1859.95 2256.83,1862.4 2259.74,1865.57 C2262.66,1868.75 2264.9,1872.59 2266.46,1877.09 C2268.03,1881.59 2268.81,1886.62 2268.81,1892.17 C2268.81,1897.77 2268.03,1902.81 2266.46,1907.29 C2264.9,1911.77 2262.66,1915.6 2259.74,1918.77 C2256.83,1921.95 2253.28,1924.39 2249.1,1926.09 C2244.93,1927.79 2240.25,1928.64 2235.07,1928.64 C2229.89,1928.64 2225.21,1927.79 2221.03,1926.09 C2216.86,1924.39 2213.3,1921.95 2210.36,1918.77 C2207.42,1915.6 2205.16,1911.77 2203.57,1907.29 C2201.98,1902.81 2201.19,1897.77 2201.19,1892.17 C2201.19,1886.62 2201.98,1881.59 2203.57,1877.09 C2205.16,1872.59 2207.42,1868.75 2210.36,1865.57 C2213.3,1862.4 2216.86,1859.95 2221.03,1858.22 C2225.21,1856.5 2229.89,1855.63 2235.07,1855.63 M2235.07,1918.91 C2242.07,1918.91 2247.3,1916.57 2250.75,1911.88 C2254.2,1907.19 2255.93,1900.64 2255.93,1892.24 C2255.93,1883.8 2254.2,1877.22 2250.75,1872.5 C2247.3,1867.79 2242.07,1865.43 2235.07,1865.43 C2231.52,1865.43 2228.44,1866.04 2225.83,1867.25 C2223.22,1868.47 2221.03,1870.22 2219.28,1872.5 C2217.53,1874.79 2216.23,1877.6 2215.36,1880.94 C2214.5,1884.28 2214.07,1888.04 2214.07,1892.24 C2214.07,1896.44 2214.5,1900.2 2215.36,1903.51 C2216.23,1906.83 2217.53,1909.62 2219.28,1911.88 C2221.03,1914.14 2223.22,1915.88 2225.83,1917.09 C2228.44,1918.31 2231.52,1918.91 2235.07,1918.91 Z" style="stroke:none;fill-rule:nonzero;fill:#ffffff;fill-opacity:1;"/>
        </g>
    </g>
    <g id="Layer3" opacity="1">
        <g id="Shape8">
            <desc shapeID="8" type="0" basicInfo-basicType="0" basicInfo-roundedRectRadius="12" basicInfo-polygonSides="6" basicInfo-starPoints="5" bounding="rect(-62.5708,-67.7887,125.142,135.578)" text="" font-familyName="" font-pixelSize="20" font-bold="0" font-underline="0" font-alignment="1" strokeStyle="0" markerStart="0" markerEnd="0" shadowEnabled="0" shadowOffsetX="0" shadowOffsetY="2" shadowBlur="4" shadowOpacity="160" blurEnabled="0" blurRadius="4" transform="matrix(1.41652,0,0,1.50051,1880.2,518.217)" pers-center="0,0" pers-size="0,0" pers-start="0,0" pers-end="0,0" locked="0" mesh="" flag=""/>
            <path id="shapePath8" d="M1963.18,530.198 C1966.95,524.166 1968.83,517.525 1968.83,510.271 C1968.83,501.876 1965.91,494.584 1960.07,488.383 C1954.22,482.189 1947.29,479.094 1939.29,479.094 L1918.98,479.094 C1922.67,471.025 1924.52,463.2 1924.52,455.621 C1924.52,446.085 1923.17,438.506 1920.48,432.882 C1917.78,427.257 1913.86,423.121 1908.71,420.471 C1903.55,417.823 1897.74,416.5 1891.28,416.5 C1887.35,416.5 1883.89,418.008 1880.89,421.024 C1877.58,424.446 1875.2,428.849 1873.74,434.228 C1872.27,439.606 1871.1,444.762 1870.21,449.693 C1869.33,454.623 1867.96,458.107 1866.12,460.145 C1862.35,464.465 1858.23,469.682 1853.77,475.794 C1846,486.47 1840.73,492.787 1837.96,494.744 L1806.34,494.744 C1802.26,494.744 1798.78,496.274 1795.89,499.328 C1793.01,502.385 1791.57,506.073 1791.57,510.393 L1791.57,588.633 C1791.57,592.955 1793.01,596.642 1795.89,599.697 C1798.78,602.753 1802.26,604.282 1806.34,604.282 L1839.58,604.282 C1841.27,604.282 1846.57,605.915 1855.5,609.173 C1864.96,612.677 1873.29,615.347 1880.49,617.183 C1887.68,619.018 1894.97,619.936 1902.36,619.936 L1913.09,619.936 L1917.25,619.936 C1928.09,619.936 1936.82,616.65 1943.44,610.091 C1950.06,603.527 1953.33,594.584 1953.25,583.253 C1957.87,576.976 1960.18,569.725 1960.18,561.495 C1960.18,559.703 1960.06,557.95 1959.83,556.236 C1962.75,550.779 1964.22,544.909 1964.22,538.634 C1964.22,535.699 1963.87,532.887 1963.18,530.198 M1818.92,586.312 C1817.46,587.858 1815.72,588.637 1813.72,588.637 C1811.72,588.637 1809.99,587.858 1808.53,586.312 C1807.07,584.767 1806.34,582.931 1806.34,580.81 C1806.34,578.692 1807.07,576.857 1808.53,575.311 C1809.99,573.762 1811.72,572.987 1813.72,572.987 C1815.72,572.987 1817.46,573.762 1818.92,575.311 C1820.38,576.857 1821.11,578.692 1821.11,580.81 C1821.11,582.931 1820.38,584.767 1818.92,586.312 M1951.58,520.301 C1949.93,524.051 1947.87,525.965 1945.41,526.046 C1946.56,527.433 1947.53,529.369 1948.29,531.852 C1949.06,534.34 1949.45,536.6 1949.45,538.639 C1949.45,544.26 1947.41,549.111 1943.33,553.183 C1944.72,555.791 1945.41,558.604 1945.41,561.619 C1945.41,564.635 1944.74,567.629 1943.39,570.603 C1942.04,573.579 1940.22,575.716 1937.91,577.019 C1938.29,579.467 1938.48,581.747 1938.48,583.865 C1938.48,597.473 1931.1,604.278 1916.32,604.278 L1902.36,604.278 C1892.28,604.278 1879.12,601.306 1862.89,595.359 C1862.5,595.192 1861.39,594.767 1859.54,594.076 C1857.7,593.38 1856.33,592.872 1855.44,592.546 C1854.56,592.216 1853.21,591.751 1851.41,591.14 C1849.6,590.528 1848.14,590.079 1847.02,589.793 C1845.91,589.511 1844.64,589.244 1843.21,588.998 C1841.79,588.756 1840.58,588.633 1839.58,588.633 L1835.88,588.633 L1835.88,510.396 L1839.58,510.396 C1840.81,510.396 1842.17,510.028 1843.67,509.296 C1845.17,508.562 1846.71,507.462 1848.29,505.995 C1849.87,504.528 1851.35,503.081 1852.73,501.654 C1854.12,500.228 1855.66,498.435 1857.35,496.276 C1859.05,494.115 1860.37,492.384 1861.33,491.08 C1862.29,489.776 1863.5,488.104 1864.97,486.067 C1866.43,484.03 1867.31,482.808 1867.62,482.399 C1871.85,476.858 1874.81,473.15 1876.51,471.274 C1879.66,467.771 1881.95,463.308 1883.38,457.888 C1884.8,452.467 1885.97,447.353 1886.89,442.545 C1887.82,437.737 1889.28,434.272 1891.28,432.153 C1898.66,432.153 1903.59,434.068 1906.05,437.899 C1908.51,441.729 1909.74,447.638 1909.74,455.625 C1909.74,460.433 1907.9,466.974 1904.2,475.247 C1900.51,483.519 1898.66,490.019 1898.66,494.746 L1939.29,494.746 C1943.14,494.746 1946.56,496.313 1949.56,499.452 C1952.56,502.59 1954.06,506.236 1954.06,510.395 C1954.06,513.247 1953.24,516.548 1951.58,520.301 Z" style="stroke:none;fill-rule:evenodd;fill:#ffffff;fill-opacity:1;"/>
        </g>
        <g id="Shape9">
            <desc shapeID="9" type="0" basicInfo-basicType="0" basicInfo-roundedRectRadius="12" basicInfo-polygonSides="6" basicInfo-starPoints="5" bounding="rect(-768,-831.998,1536,1664)" text="" font-familyName="" font-pixelSize="20" font-bold="0" font-underline="0" font-alignment="1" strokeStyle="0" markerStart="0" markerEnd="0" shadowEnabled="0" shadowOffsetX="0" shadowOffsetY="2" shadowBlur="4" shadowOpacity="160" blurEnabled="0" blurRadius="4" transform="matrix(0.115407,0,0,0.122257,1764.99,1182.6)" pers-center="0,0" pers-size="0,0" pers-start="0,0" pers-end="0,0" locked="0" mesh="" flag=""/>
            <path id="shapePath9" d="M1705.9,1120 C1705.9,1117.88 1705.17,1116.05 1703.71,1114.5 C1702.25,1112.95 1700.52,1112.18 1698.52,1112.18 C1696.52,1112.18 1694.78,1112.95 1693.32,1114.5 C1691.86,1116.05 1691.13,1117.88 1691.13,1120 C1691.13,1122.12 1691.86,1123.96 1693.32,1125.5 C1694.78,1127.05 1696.52,1127.83 1698.52,1127.83 C1700.52,1127.83 1702.25,1127.05 1703.71,1125.5 C1705.17,1123.96 1705.9,1122.12 1705.9,1120 M1838.85,1190.42 C1838.85,1187.57 1838.02,1184.27 1836.37,1180.52 C1834.72,1176.77 1832.66,1174.85 1830.2,1174.77 C1831.35,1173.39 1832.31,1171.45 1833.08,1168.97 C1833.85,1166.48 1834.23,1164.22 1834.23,1162.18 C1834.23,1156.56 1832.2,1151.71 1828.12,1147.63 C1829.5,1145.02 1830.2,1142.21 1830.2,1139.2 C1830.2,1136.18 1829.52,1133.19 1828.18,1130.21 C1826.83,1127.24 1825,1125.1 1822.69,1123.79 C1823.08,1121.35 1823.27,1119.06 1823.27,1116.95 C1823.27,1110.02 1821.39,1104.88 1817.62,1101.54 C1813.85,1098.2 1808.61,1096.53 1801.92,1096.53 L1787.15,1096.53 C1777.07,1096.53 1763.91,1099.5 1747.68,1105.45 C1747.29,1105.62 1746.18,1106.04 1744.33,1106.74 C1742.49,1107.43 1741.12,1107.94 1740.24,1108.27 C1739.35,1108.59 1738,1109.06 1736.2,1109.67 C1734.39,1110.28 1732.93,1110.73 1731.81,1111.02 C1730.7,1111.3 1729.43,1111.57 1728,1111.81 C1726.58,1112.06 1725.37,1112.18 1724.37,1112.18 L1720.67,1112.18 L1720.67,1190.42 L1724.37,1190.42 C1725.6,1190.42 1726.96,1190.79 1728.46,1191.52 C1729.96,1192.26 1731.5,1193.36 1733.08,1194.82 C1734.66,1196.29 1736.14,1197.74 1737.52,1199.16 C1738.91,1200.59 1740.45,1202.38 1742.14,1204.54 C1743.83,1206.7 1745.16,1208.43 1746.12,1209.74 C1747.08,1211.04 1748.29,1212.71 1749.76,1214.75 C1751.22,1216.79 1752.1,1218.01 1752.41,1218.42 C1756.64,1223.96 1759.6,1227.67 1761.3,1229.54 C1764.45,1233.05 1766.74,1237.51 1768.16,1242.93 C1769.59,1248.35 1770.76,1253.47 1771.68,1258.28 C1772.61,1263.08 1774.07,1266.55 1776.07,1268.67 C1783.46,1268.67 1788.38,1266.75 1790.84,1262.92 C1793.3,1259.09 1794.53,1253.18 1794.53,1245.19 C1794.53,1240.38 1792.69,1233.84 1789,1225.57 C1785.3,1217.3 1783.46,1210.8 1783.46,1206.07 L1824.08,1206.07 C1827.93,1206.07 1831.35,1204.5 1834.35,1201.36 C1837.35,1198.23 1838.85,1194.58 1838.85,1190.42 M1853.62,1190.54 C1853.62,1198.94 1850.7,1206.23 1844.85,1212.43 C1839,1218.62 1832.08,1221.72 1824.08,1221.72 L1803.77,1221.72 C1807.46,1229.79 1809.31,1237.61 1809.31,1245.19 C1809.31,1254.81 1807.96,1262.39 1805.27,1267.93 C1802.57,1273.56 1798.65,1277.69 1793.5,1280.34 C1788.34,1282.99 1782.53,1284.32 1776.07,1284.32 C1772.15,1284.32 1768.68,1282.81 1765.68,1279.79 C1763.07,1277.1 1760.99,1273.76 1759.45,1269.77 C1757.91,1265.77 1756.93,1262.09 1756.51,1258.7 C1756.08,1255.32 1755.41,1251.88 1754.49,1248.37 C1753.56,1244.87 1752.37,1242.26 1750.91,1240.55 C1747.22,1236.47 1743.1,1231.3 1738.56,1225.02 C1730.79,1214.34 1725.52,1208.03 1722.75,1206.07 L1691.13,1206.07 C1687.05,1206.07 1683.57,1204.54 1680.69,1201.49 C1677.8,1198.43 1676.36,1194.74 1676.36,1190.42 L1676.36,1112.18 C1676.36,1107.86 1677.8,1104.17 1680.69,1101.11 C1683.57,1098.06 1687.05,1096.53 1691.13,1096.53 L1724.37,1096.53 C1726.06,1096.53 1731.37,1094.9 1740.29,1091.64 C1750.14,1088.05 1758.72,1085.36 1766.03,1083.57 C1773.34,1081.78 1781.03,1080.88 1789.11,1080.88 L1802.04,1080.88 C1812.81,1080.88 1821.52,1084.1 1828.18,1090.54 C1834.83,1096.98 1838.12,1105.78 1838.04,1116.95 L1838.04,1117.56 C1842.66,1123.83 1844.97,1131.09 1844.97,1139.32 C1844.97,1141.11 1844.85,1142.86 1844.62,1144.58 C1847.55,1150.04 1849.01,1155.91 1849.01,1162.18 C1849.01,1165.12 1848.66,1167.93 1847.97,1170.62 C1851.74,1176.65 1853.62,1183.29 1853.62,1190.54 Z" style="stroke:none;fill-rule:evenodd;fill:#ffffff;fill-opacity:1;"/>
        </g>
        <g id="Shape10">
            <desc shapeID="10" type="0" basicInfo-basicType="0" basicInfo-roundedRectRadius="12" basicInfo-polygonSides="6" basicInfo-starPoints="5" bounding="rect(-768,-768,1536,1536)" text="" font-familyName="" font-pixelSize="20" font-bold="0" font-underline="0" font-alignment="1" strokeStyle="0" markerStart="0" markerEnd="0" shadowEnabled="0" shadowOffsetX="0" shadowOffsetY="2" shadowBlur="4" shadowOpacity="160" blurEnabled="0" blurRadius="4" transform="matrix(0.115407,0,0,0.119689,1920.06,1864.73)" pers-center="0,0" pers-size="0,0" pers-start="0,0" pers-end="0,0" locked="0" mesh="" flag=""/>
            <path id="shapePath10" d="M1949.61,1922.18 L1949.61,1914.52 C1949.61,1913.4 1949.26,1912.48 1948.57,1911.76 C1947.87,1911.04 1946.99,1910.69 1945.91,1910.69 L1934.83,1910.69 L1934.83,1853.24 C1934.83,1852.12 1934.49,1851.2 1933.79,1850.48 C1933.1,1849.76 1932.22,1849.41 1931.14,1849.41 L1894.21,1849.41 C1893.13,1849.41 1892.25,1849.76 1891.56,1850.48 C1890.86,1851.2 1890.52,1852.12 1890.52,1853.24 L1890.52,1860.9 C1890.52,1862.01 1890.86,1862.93 1891.56,1863.65 C1892.25,1864.37 1893.13,1864.73 1894.21,1864.73 L1905.29,1864.73 L1905.29,1910.69 L1894.21,1910.69 C1893.13,1910.69 1892.25,1911.04 1891.56,1911.76 C1890.86,1912.48 1890.52,1913.4 1890.52,1914.52 L1890.52,1922.18 C1890.52,1923.29 1890.86,1924.21 1891.56,1924.93 C1892.25,1925.65 1893.13,1926.01 1894.21,1926.01 L1945.91,1926.01 C1946.99,1926.01 1947.87,1925.65 1948.57,1924.93 C1949.26,1924.21 1949.61,1923.29 1949.61,1922.18 M1934.83,1830.25 L1934.83,1807.27 C1934.83,1806.16 1934.49,1805.24 1933.79,1804.52 C1933.1,1803.8 1932.22,1803.44 1931.14,1803.44 L1908.98,1803.44 C1907.9,1803.44 1907.02,1803.8 1906.33,1804.52 C1905.64,1805.24 1905.29,1806.16 1905.29,1807.27 L1905.29,1830.25 C1905.29,1831.37 1905.64,1832.29 1906.33,1833.01 C1907.02,1833.73 1907.9,1834.08 1908.98,1834.08 L1931.14,1834.08 C1932.22,1834.08 1933.1,1833.73 1933.79,1833.01 C1934.49,1832.29 1934.83,1831.37 1934.83,1830.25 M2008.69,1864.73 C2008.69,1881.4 2004.73,1896.78 1996.81,1910.87 C1988.88,1924.95 1978.13,1936.1 1964.55,1944.32 C1950.97,1952.54 1936.14,1956.65 1920.06,1956.65 C1903.98,1956.65 1889.15,1952.54 1875.57,1944.32 C1861.99,1936.1 1851.24,1924.95 1843.32,1910.87 C1835.39,1896.78 1831.43,1881.4 1831.43,1864.73 C1831.43,1848.05 1835.39,1832.67 1843.32,1818.59 C1851.24,1804.5 1861.99,1793.35 1875.57,1785.13 C1889.15,1776.91 1903.98,1772.8 1920.06,1772.8 C1936.14,1772.8 1950.97,1776.91 1964.55,1785.13 C1978.13,1793.35 1988.88,1804.5 1996.81,1818.59 C2004.73,1832.67 2008.69,1848.05 2008.69,1864.73 Z" style="stroke:none;fill-rule:nonzero;fill:#ffffff;fill-opacity:1;"/>
        </g>
    </g>
    <g id="Layer4" opacity="1">
        <g id="Shape11">
            <desc shapeID="11" type="0" basicInfo-basicType="0" basicInfo-roundedRectRadius="12" basicInfo-polygonSides="6" basicInfo-starPoints="5" bounding="rect(-32.8051,-37.516,65.6102,75.032)" text="" font-familyName="" font-pixelSize="20" font-bold="0" font-underline="0" font-alignment="1" strokeStyle="0" markerStart="0" markerEnd="0" shadowEnabled="0" shadowOffsetX="0" shadowOffsetY="2" shadowBlur="4" shadowOpacity="160" blurEnabled="0" blurRadius="4" transform="matrix(5.53826,0,0,6.11256,468.005,1221.74)" pers-center="0,0" pers-size="0,0" pers-start="0,0" pers-end="0,0" locked="0" mesh="" flag=""/>
            <path id="shapePath11" d="M606.767,1138.53 C602.186,1124.62 589.016,1115.26 574.002,1115.26 C569.705,1115.26 565.556,1116.05 561.669,1117.61 C558.063,1119.06 553.677,1121.94 549.529,1125.53 C543.298,1110.36 529.458,1100.38 514.211,1100.38 C509.692,1100.38 505.234,1101.25 500.953,1102.97 C492.241,1106.47 485.335,1113.13 480.921,1121.38 C473.682,1111.93 462.888,1106.14 451.274,1106.14 C446.761,1106.14 442.297,1107.01 438.016,1108.72 C428.905,1112.39 420.554,1119.23 414.977,1128.21 L380.739,1024.41 C374.137,1004.38 360.846,992.42 345.183,992.42 C341.041,992.42 336.804,993.276 332.601,994.969 C312.203,1003.16 303.381,1027.22 311.616,1052.21 L392.126,1294.63 L350.705,1271.95 C344.596,1268.81 338.128,1267.22 331.482,1267.22 C314.064,1267.22 298.031,1278.55 290.621,1296.09 C285.487,1308.24 284.933,1321.86 289.059,1334.44 C293.185,1347.05 301.52,1357.12 312.115,1362.56 C312.491,1362.78 350.661,1385.29 403.496,1412.48 L412.08,1416.91 C445.952,1434.47 477.947,1451.06 515.031,1451.06 L515.036,1451.06 C532.692,1451.06 550.37,1447.4 569.079,1439.89 C634.801,1413.49 644.787,1368.25 649.383,1324.17 C653.803,1281.78 608.694,1144.35 606.767,1138.53 M632.874,1322.08 C628.549,1363.57 620.33,1399.78 563.396,1422.65 C546.538,1429.42 530.721,1432.71 515.036,1432.71 L515.031,1432.71 C481.657,1432.71 452.687,1417.7 419.147,1400.31 L410.518,1395.85 C358.132,1368.89 320.333,1346.6 319.547,1346.16 C312.58,1342.57 307.302,1336.19 304.682,1328.2 C302.063,1320.2 302.417,1311.55 305.679,1303.83 C310.442,1292.55 320.333,1285.55 331.482,1285.55 C335.685,1285.55 339.789,1286.56 343.494,1288.48 L403.402,1321.27 C406.448,1322.94 410.103,1322.4 412.639,1319.88 C415.17,1317.38 416.068,1313.42 414.894,1309.9 L327.223,1045.92 C323.296,1033.99 323.833,1018.01 338.283,1012.2 C340.67,1011.24 342.996,1010.76 345.189,1010.76 C353.568,1010.76 361.017,1018.21 365.138,1030.69 L418.178,1191.51 C419.751,1196.27 424.53,1198.73 428.822,1196.99 C433.137,1195.26 435.363,1189.99 433.785,1185.24 L426.208,1162.26 C419.956,1143.3 433.247,1130.16 443.704,1125.96 C446.151,1124.98 448.699,1124.48 451.274,1124.48 C460.556,1124.48 468.93,1130.94 472.104,1140.57 L482.427,1171.9 L482.521,1172.17 C484.094,1176.93 488.874,1179.38 493.166,1177.64 C497.475,1175.91 499.701,1170.65 498.128,1165.89 L493.277,1151.17 C489.333,1138.63 495.32,1124.74 506.629,1120.2 C509.077,1119.21 511.625,1118.71 514.206,1118.71 C523.482,1118.71 531.851,1125.19 535.029,1134.81 L547.169,1171.63 L547.33,1172.14 C548.897,1176.9 553.649,1179.36 557.98,1177.62 C562.289,1175.89 564.515,1170.62 562.942,1165.86 L555.709,1143.94 C558.274,1141 563.668,1136.31 567.34,1134.84 C569.394,1134.01 571.632,1133.59 573.991,1133.59 C581.922,1133.59 588.972,1138.19 591.149,1144.79 C603.881,1183.38 636.175,1290.42 632.874,1322.08 Z" style="stroke:none;fill-rule:nonzero;fill:#ffffff;fill-opacity:1;"/>
        </g>
        <g id="Shape12">
            <desc shapeID="12" type="0" basicInfo-basicType="0" basicInfo-roundedRectRadius="12" basicInfo-polygonSides="6" basicInfo-starPoints="5" bounding="rect(-32.8095,-7.32274,65.619,14.6455)" text="" font-familyName="" font-pixelSize="20" font-bold="0" font-underline="0" font-alignment="1" strokeStyle="0" markerStart="0" markerEnd="0" shadowEnabled="0" shadowOffsetX="0" shadowOffsetY="2" shadowBlur="4" shadowOpacity="160" blurEnabled="0" blurRadius="4" transform="matrix(5.53826,0,0,6.11256,334.129,943.59)" pers-center="0,0" pers-size="0,0" pers-start="0,0" pers-end="0,0" locked="0" mesh="" flag=""/>
            <path id="shapePath12" d="M205.758,956.699 C303.021,931.992 404.687,935.647 500.642,967.646 C506.319,969.535 513.702,965.757 515.441,959.957 C517.174,954.15 513.004,946.216 507.05,944.241 C407.389,911.007 301.802,907.217 200.79,932.872 C198.924,923.935 197.063,914.999 195.202,906.062 C194.443,902.456 193.048,899.369 189.204,898.91 C185.366,898.458 183.018,899.907 180.902,903.201 C171.044,918.556 161.923,934.168 153.554,949.956 C151.106,954.59 152.773,960.097 157.132,962.31 C172.019,969.89 186.341,978.105 200.059,986.889 C203,988.771 205.32,988.948 208.106,986.76 C210.886,984.572 210.853,981.161 210.1,977.549 C208.66,970.592 207.209,963.649 205.758,956.699 Z" style="stroke:none;fill-rule:nonzero;fill:#ffffff;fill-opacity:1;"/>
        </g>
        <g id="Shape13">
            <desc shapeID="13" type="0" basicInfo-basicType="0" basicInfo-roundedRectRadius="12" basicInfo-polygonSides="6" basicInfo-starPoints="5" bounding="rect(-32.6843,-42.508,65.3685,85.016)" text="" font-familyName="" font-pixelSize="20" font-bold="0" font-underline="0" font-alignment="1" strokeStyle="0" markerStart="0" markerEnd="0" shadowEnabled="0" shadowOffsetX="0" shadowOffsetY="2" shadowBlur="4" shadowOpacity="160" blurEnabled="0" blurRadius="4" transform="matrix(5.75622,0,0,5.56222,395.854,520.001)" pers-center="0,0" pers-size="0,0" pers-start="0,0" pers-end="0,0" locked="0" mesh="" flag=""/>
            <path id="shapePath13" d="M558.95,519.3 C554.074,517.576 548.162,517.098 544.49,516.975 C550.125,497.585 539.373,476.9 519.462,469.886 C510.666,466.799 500.887,466.849 492.402,469.73 C492.385,464.162 491.113,458.611 488.609,453.416 C484.055,443.993 475.985,436.846 465.877,433.286 C456.213,429.888 444.953,429.521 435.732,432.001 L471.311,337.533 C475.329,326.87 475.887,316.502 472.917,307.547 C469.515,297.295 461.871,289.82 450.802,285.932 C446.341,284.358 441.811,283.562 437.344,283.562 C420.645,283.562 406.128,294.559 399.445,312.28 L316.803,533.228 L297.548,490.677 C289.852,474.725 273.182,464.418 255.079,464.418 C248.165,464.418 241.442,465.87 235.099,468.729 C223.667,473.879 214.975,483.012 210.641,494.448 C206.295,505.912 206.836,518.316 211.976,528.94 C212.143,529.34 228.911,569.677 254.52,622.747 L258.676,631.418 C282.875,681.934 303.782,724.574 369.766,747.78 C387.869,754.149 404.879,756.44 420.311,756.44 C420.311,756.44 420.317,756.44 420.323,756.44 C458.567,756.44 482.501,738.402 503.736,718.962 C532.92,692.269 580.19,567.77 582.188,562.469 C585.33,554.148 584.335,544.748 579.459,536.243 C574.917,528.289 567.44,522.282 558.95,519.3 M565.972,557.274 C552.744,592.382 513.66,687.852 491.872,707.787 C472.382,725.62 452.241,741.634 420.323,741.628 C406.899,741.628 391.881,738.736 375.672,733.04 C316.44,712.209 297.865,673.435 274.345,624.354 L270.171,615.672 C244.781,563.047 228.174,523.111 227.823,522.298 C224.444,515.296 224.104,507.442 226.856,500.177 C229.613,492.919 235.133,487.117 242.398,483.841 C246.444,482.017 250.704,481.094 255.079,481.094 C266.672,481.094 276.952,487.468 281.816,497.541 L309.659,559.076 C311.075,562.202 314.178,564.232 317.85,564.071 C321.385,563.954 324.487,561.779 325.69,558.564 L415.677,317.959 C420.881,304.142 432.589,297.273 444.89,301.601 C450.836,303.692 454.733,307.402 456.466,312.63 C458.233,317.948 457.744,324.762 455.084,331.815 L399.963,478.168 C398.328,482.501 400.642,487.284 405.12,488.864 C409.57,490.427 414.555,488.208 416.184,483.88 L424.058,462.972 C429.475,448.593 443.019,447.042 448.591,447.042 C452.46,447.042 456.391,447.703 459.971,448.966 C465.751,450.996 470.361,455.085 472.963,460.469 C475.559,465.853 475.836,471.894 473.735,477.484 L462.907,506.229 C461.278,510.562 463.586,515.346 468.065,516.925 C472.52,518.494 477.493,516.269 479.128,511.942 L484.055,498.865 C487.348,490.11 496.046,484.219 505.699,484.219 C508.375,484.219 511.023,484.676 513.556,485.565 C525.489,489.771 531.665,502.564 527.325,514.089 L514.529,548.063 C512.9,552.385 515.208,557.179 519.686,558.753 C524.142,560.322 529.115,558.102 530.75,553.77 L538.268,533.823 C539.258,533.712 540.599,533.629 542.291,533.629 C546.43,533.629 550.747,534.168 553.038,534.975 C557.603,536.582 561.833,540.17 564.355,544.57 C565.8,547.089 567.924,552.09 565.972,557.274 Z" style="stroke:none;fill-rule:nonzero;fill:#ffffff;fill-opacity:1;"/>
        </g>
        <g id="Shape14">
            <desc shapeID="14" type="0" basicInfo-basicType="0" basicInfo-roundedRectRadius="12" basicInfo-polygonSides="6" basicInfo-starPoints="5" bounding="rect(-32.8093,-7.32279,65.6187,14.6456)" text="" font-familyName="" font-pixelSize="20" font-bold="0" font-underline="0" font-alignment="1" strokeStyle="0" markerStart="0" markerEnd="0" shadowEnabled="0" shadowOffsetX="0" shadowOffsetY="2" shadowBlur="4" shadowOpacity="160" blurEnabled="0" blurRadius="4" transform="matrix(5.75622,0,0,5.56222,438.473,244.943)" pers-center="0,0" pers-size="0,0" pers-start="0,0" pers-end="0,0" locked="0" mesh="" flag=""/>
            <path id="shapePath14" d="M626.154,250.734 C617.451,236.367 607.976,222.161 597.73,208.188 C595.531,205.19 593.091,203.878 589.102,204.284 C585.107,204.695 583.656,207.51 582.868,210.792 C580.934,218.923 579,227.055 577.06,235.187 C472.072,211.843 362.33,215.291 258.746,245.533 C252.57,247.33 248.224,254.55 250.026,259.834 C251.827,265.112 259.5,268.544 265.406,266.831 C365.139,237.718 470.806,234.392 571.896,256.869 C570.388,263.193 568.886,269.517 567.378,275.842 C566.595,279.135 566.555,282.233 569.45,284.224 C572.345,286.215 574.757,286.06 577.814,284.341 C592.072,276.348 606.952,268.872 622.43,261.975 C626.96,259.956 628.699,254.95 626.154,250.734 Z" style="stroke:none;fill-rule:nonzero;fill:#ffffff;fill-opacity:1;"/>
        </g>
        <g id="Shape15">
            <desc shapeID="15" type="0" basicInfo-basicType="0" basicInfo-roundedRectRadius="12" basicInfo-polygonSides="6" basicInfo-starPoints="5" bounding="rect(-32.4369,-45,64.8737,90)" text="" font-familyName="" font-pixelSize="20" font-bold="0" font-underline="0" font-alignment="1" strokeStyle="0" markerStart="0" markerEnd="0" shadowEnabled="0" shadowOffsetX="0" shadowOffsetY="2" shadowBlur="4" shadowOpacity="160" blurEnabled="0" blurRadius="4" transform="matrix(5.44198,0,0,5.70742,434.819,1862.17)" pers-center="0,0" pers-size="0,0" pers-start="0,0" pers-end="0,0" locked="0" mesh="" flag=""/>
            <path id="shapePath15" d="M576.054,1833.63 C573.839,1833.63 568.218,1834.43 562.438,1836.31 C560.964,1815.69 544.485,1799.39 524.453,1799.39 C515.311,1799.39 506.914,1802.78 500.345,1808.43 C494.98,1793.17 480.972,1782.26 464.591,1782.26 C455.063,1782.26 445.262,1785.32 437.382,1791.24 L437.382,1749.75 C459.955,1736.59 475.285,1711.34 475.285,1682.38 C475.285,1639.9 442.328,1605.33 401.818,1605.33 C361.308,1605.33 328.351,1639.9 328.351,1682.38 C328.351,1710.89 343.219,1735.77 365.221,1749.09 L365.607,1929.18 L334.261,1894.68 C325.826,1885.83 314.67,1880.96 302.85,1880.96 C291.03,1880.96 279.869,1885.83 271.439,1894.68 C254.003,1912.96 253.965,1942.68 271.047,1960.57 C271.33,1960.91 299.721,1994.11 340.226,2036.59 L346.816,2043.52 C385.226,2084.02 418.389,2119 484.77,2119 C553.497,2119 576.49,2082.83 594.154,2045.77 C611.144,2010.14 611.34,1873.66 611.34,1867.87 C611.335,1849.63 594.851,1833.63 576.054,1833.63 M344.677,1682.38 C344.677,1649.34 370.309,1622.46 401.818,1622.46 C433.327,1622.46 458.959,1649.34 458.959,1682.38 C458.959,1701.33 450.508,1718.21 437.382,1729.21 L437.382,1688.09 C437.382,1662.49 423.118,1645.29 401.894,1645.29 C380.567,1645.29 365.09,1663.29 365.09,1688.11 L365.177,1728.31 C352.661,1717.31 344.677,1700.81 344.677,1682.38 M381.416,1688.27 C381.416,1676.42 386.777,1662.49 401.894,1662.49 C419.679,1662.49 421.056,1682.06 421.056,1688.08 L421.056,1847.89 C421.056,1852.62 424.713,1856.45 429.219,1856.45 C433.725,1856.45 437.382,1852.62 437.382,1847.89 L437.382,1825.06 C437.382,1806.22 453.653,1799.38 464.591,1799.38 C476.597,1799.38 486.359,1809.62 486.359,1822.21 L486.359,1853.6 C486.359,1858.33 490.016,1862.16 494.522,1862.16 C499.028,1862.16 502.685,1858.33 502.685,1853.6 L502.685,1839.33 C502.685,1826.74 512.448,1816.5 524.453,1816.5 C536.458,1816.5 546.221,1826.74 546.221,1839.33 L546.221,1876.43 C546.221,1881.16 549.878,1884.99 554.384,1884.99 C558.89,1884.99 562.547,1881.16 562.547,1876.43 L562.547,1854.63 C565.812,1852.96 572.212,1850.74 576.054,1850.74 C585.795,1850.74 595.003,1859.06 595.003,1867.86 C595.003,1906.19 592.217,2011.51 579.537,2038.11 C562.906,2072.99 544.3,2101.87 484.759,2101.87 C425.17,2101.87 395.696,2070.8 358.38,2031.44 L351.757,2024.47 C311.59,1982.35 283.477,1949.47 282.889,1948.81 C277.55,1943.2 274.612,1935.74 274.628,1927.81 C274.65,1919.86 277.61,1912.4 282.971,1906.78 C288.32,1901.16 295.378,1898.07 302.839,1898.07 C310.3,1898.07 317.353,1901.16 322.567,1906.63 L367.898,1956.52 C370.211,1959.07 373.77,1959.86 376.85,1958.56 C379.952,1957.25 381.977,1954.1 381.971,1950.59 L381.416,1688.27 Z" style="stroke:none;fill-rule:nonzero;fill:#ffffff;fill-opacity:1;"/>
        </g>
        <g id="Shape16">
            <desc shapeID="16" type="2" basicInfo-basicType="0" basicInfo-roundedRectRadius="12" basicInfo-polygonSides="6" basicInfo-starPoints="5" bounding="rect(-78.8219,-72.664,157.644,145.328)" text="2 x" font-familyName="Lato" font-pixelSize="80" font-bold="0" font-underline="0" font-alignment="1" strokeStyle="0" markerStart="0" markerEnd="0" shadowEnabled="0" shadowOffsetX="0" shadowOffsetY="2" shadowBlur="4" shadowOpacity="160" blurEnabled="0" blurRadius="4" transform="matrix(1,0,0,1,254.619,1663)" pers-center="0,0" pers-size="0,0" pers-start="0,0" pers-end="0,0" locked="0" mesh="" flag=""/>
            <path id="shapePath16" d="M227.596,1636.34 C230.023,1636.34 232.29,1636.7 234.396,1637.42 C236.503,1638.14 238.323,1639.18 239.856,1640.56 C241.39,1641.93 242.596,1643.6 243.476,1645.58 C244.356,1647.55 244.796,1649.79 244.796,1652.3 C244.796,1654.43 244.476,1656.4 243.836,1658.22 C243.196,1660.03 242.33,1661.77 241.236,1663.44 C240.143,1665.1 238.883,1666.72 237.456,1668.28 C236.03,1669.84 234.516,1671.43 232.916,1673.06 L217.836,1688.5 C218.903,1688.2 219.983,1687.97 221.076,1687.8 C222.17,1687.62 223.223,1687.54 224.236,1687.54 L243.436,1687.54 C244.21,1687.54 244.823,1687.76 245.276,1688.22 C245.73,1688.67 245.956,1689.26 245.956,1689.98 L245.956,1694.3 L207.716,1694.3 L207.716,1691.86 C207.716,1691.35 207.816,1690.83 208.016,1690.3 C208.216,1689.76 208.543,1689.27 208.996,1688.82 L227.356,1670.38 C228.876,1668.83 230.263,1667.34 231.516,1665.92 C232.77,1664.49 233.843,1663.06 234.736,1661.62 C235.63,1660.18 236.316,1658.72 236.796,1657.24 C237.276,1655.76 237.516,1654.18 237.516,1652.5 C237.516,1650.82 237.25,1649.34 236.716,1648.08 C236.183,1646.81 235.45,1645.76 234.516,1644.94 C233.583,1644.11 232.49,1643.49 231.236,1643.08 C229.983,1642.66 228.636,1642.46 227.196,1642.46 C225.756,1642.46 224.423,1642.67 223.196,1643.1 C221.97,1643.52 220.883,1644.12 219.936,1644.88 C218.99,1645.64 218.19,1646.54 217.536,1647.58 C216.883,1648.62 216.423,1649.76 216.156,1651.02 C215.943,1651.79 215.623,1652.35 215.196,1652.7 C214.77,1653.04 214.21,1653.22 213.516,1653.22 C213.383,1653.22 213.243,1653.21 213.096,1653.2 C212.95,1653.18 212.783,1653.16 212.596,1653.14 L208.876,1652.5 C209.25,1649.88 209.97,1647.57 211.036,1645.56 C212.103,1643.54 213.456,1641.86 215.096,1640.5 C216.736,1639.14 218.616,1638.1 220.736,1637.4 C222.856,1636.69 225.143,1636.34 227.596,1636.34 M280.704,1673.54 L267.064,1653.78 L273.904,1653.78 C274.491,1653.78 274.918,1653.87 275.184,1654.06 C275.451,1654.24 275.691,1654.51 275.904,1654.86 L285.824,1670.06 C286.064,1669.31 286.411,1668.56 286.864,1667.82 L295.584,1655.02 C295.851,1654.64 296.118,1654.34 296.384,1654.12 C296.651,1653.89 296.984,1653.78 297.384,1653.78 L303.944,1653.78 L290.304,1673.14 L304.504,1694.3 L297.664,1694.3 C297.078,1694.3 296.618,1694.14 296.284,1693.84 C295.951,1693.53 295.678,1693.19 295.464,1692.82 L285.264,1676.94 C285.078,1677.71 284.798,1678.4 284.424,1679.02 L274.984,1692.82 C274.718,1693.19 274.431,1693.53 274.124,1693.84 C273.818,1694.14 273.398,1694.3 272.864,1694.3 L266.504,1694.3 L280.704,1673.54 Z" style="stroke:none;fill-rule:nonzero;fill:#ffffff;fill-opacity:1;"/>
        </g>
    </g>
</svg>
