<?xml version="1.0"?>
<svg version="1.1" xmlns="http://www.w3.org/2000/svg" xmlns:xlink="http://www.w3.org/1999/xlink" width="400" height="400">
    <desc iVinci="yes" version="4.5" gridStep="20" showGrid="no" snapToGrid="no" codePlatform="0"/>
    <g id="Layer1" opacity="1">
        <g id="Shape1">
            <desc shapeID="1" type="0" basicInfo-basicType="1" basicInfo-roundedRectRadius="12" basicInfo-polygonSides="6" basicInfo-starPoints="5" bounding="rect(-214,-208.5,428,417)" text="" font-familyName="Helvetica" font-pixelSize="20" font-bold="0" font-underline="0" font-alignment="0" strokeStyle="0" markerStart="0" markerEnd="0" shadowEnabled="0" shadowOffsetX="0" shadowOffsetY="2" shadowBlur="4" shadowOpacity="160" blurEnabled="0" blurRadius="4" transform="matrix(1,0,0,1,207.5,204)" pers-center="0,0" pers-size="0,0" pers-start="0,0" pers-end="0,0" locked="0" mesh="" flag=""/>
            <path id="shapePath1" d="M-6.5,-4.5 L421.5,-4.5 L421.5,412.5 L-6.5,412.5 L-6.5,-4.5 Z" style="stroke:none;fill-rule:evenodd;fill:#fbfbfb;fill-opacity:1;"/>
        </g>
    </g>
    <g id="Layer2" opacity="1">
        <g id="Shape2">
            <desc shapeID="2" type="2" basicInfo-basicType="0" basicInfo-roundedRectRadius="12" basicInfo-polygonSides="6" basicInfo-starPoints="5" bounding="rect(-165,-111,330,222)" text="Ooops, looks like you have reviewed all the food items we’ve got! &#10;&#10;As FoodPorn is currently at the prototyping stage, this is all we’ve got for now. Sorry!" font-familyName="Helvetica" font-pixelSize="20" font-bold="0" font-underline="0" font-alignment="0" strokeStyle="0" markerStart="0" markerEnd="0" shadowEnabled="0" shadowOffsetX="0" shadowOffsetY="2" shadowBlur="4" shadowOpacity="160" blurEnabled="0" blurRadius="4" transform="matrix(1,0,0,1,203.345,199.75)" pers-center="0,0" pers-size="0,0" pers-start="0,0" pers-end="0,0" locked="0" mesh="" flag=""/>
            <path id="shapePath2" d="M51.6846,142.861 C52.6351,144.131 53.1104,145.755 53.1104,147.734 C53.1104,149.876 52.5667,151.657 51.4795,153.076 C50.2034,154.743 48.3838,155.576 46.0205,155.576 C43.8135,155.576 42.0784,154.847 40.8154,153.389 C39.6891,151.982 39.126,150.205 39.126,148.057 C39.126,146.117 39.6077,144.456 40.5713,143.076 C41.8083,141.305 43.6377,140.42 46.0596,140.42 C48.5921,140.42 50.4671,141.234 51.6846,142.861 M49.9707,151.997 C50.7357,150.77 51.1182,149.359 51.1182,147.764 C51.1182,146.077 50.6771,144.72 49.7949,143.691 C48.9128,142.663 47.7067,142.148 46.1768,142.148 C44.6924,142.148 43.4814,142.658 42.5439,143.677 C41.6064,144.696 41.1377,146.198 41.1377,148.184 C41.1377,149.772 41.5397,151.112 42.3438,152.202 C43.1478,153.293 44.4515,153.838 46.2549,153.838 C47.9671,153.838 49.2057,153.224 49.9707,151.997 M61.7285,152.7 C62.1615,151.818 62.3779,150.837 62.3779,149.756 C62.3779,148.779 62.2217,147.985 61.9092,147.373 C61.4144,146.41 60.5615,145.928 59.3506,145.928 C58.2764,145.928 57.4951,146.338 57.0068,147.158 C56.5186,147.979 56.2744,148.968 56.2744,150.127 C56.2744,151.24 56.5186,152.168 57.0068,152.91 C57.4951,153.652 58.2699,154.023 59.3311,154.023 C60.4964,154.023 61.2956,153.582 61.7285,152.7 M62.8174,145.742 C63.7484,146.641 64.2139,147.962 64.2139,149.707 C64.2139,151.393 63.8037,152.786 62.9834,153.887 C62.1631,154.987 60.8903,155.537 59.165,155.537 C57.7262,155.537 56.5837,155.05 55.7373,154.077 C54.8909,153.104 54.4678,151.797 54.4678,150.156 C54.4678,148.398 54.9137,146.999 55.8057,145.957 C56.6976,144.915 57.8955,144.395 59.3994,144.395 C60.7471,144.395 61.8864,144.844 62.8174,145.742 M72.8379,152.7 C73.2708,151.818 73.4873,150.837 73.4873,149.756 C73.4873,148.779 73.3311,147.985 73.0186,147.373 C72.5238,146.41 71.6709,145.928 70.46,145.928 C69.3857,145.928 68.6045,146.338 68.1162,147.158 C67.6279,147.979 67.3838,148.968 67.3838,150.127 C67.3838,151.24 67.6279,152.168 68.1162,152.91 C68.6045,153.652 69.3792,154.023 70.4404,154.023 C71.6058,154.023 72.405,153.582 72.8379,152.7 M73.9268,145.742 C74.8577,146.641 75.3232,147.962 75.3232,149.707 C75.3232,151.393 74.9131,152.786 74.0928,153.887 C73.2725,154.987 71.9997,155.537 70.2744,155.537 C68.8356,155.537 67.693,155.05 66.8467,154.077 C66.0003,153.104 65.5771,151.797 65.5771,150.156 C65.5771,148.398 66.0231,146.999 66.915,145.957 C67.807,144.915 69.0049,144.395 70.5088,144.395 C71.8564,144.395 72.9958,144.844 73.9268,145.742 M83.8594,152.944 C84.403,152.257 84.6748,151.23 84.6748,149.863 C84.6748,149.03 84.5544,148.314 84.3135,147.715 C83.8577,146.562 83.0244,145.986 81.8135,145.986 C80.596,145.986 79.7627,146.595 79.3135,147.812 C79.0726,148.464 78.9521,149.29 78.9521,150.293 C78.9521,151.1 79.0726,151.787 79.3135,152.354 C79.7692,153.434 80.6025,153.975 81.8135,153.975 C82.6338,153.975 83.3158,153.631 83.8594,152.944 M77.2627,144.746 L78.9717,144.746 L78.9717,146.133 C79.3232,145.658 79.7074,145.29 80.124,145.029 C80.7165,144.639 81.4131,144.443 82.2139,144.443 C83.3988,144.443 84.4046,144.897 85.2314,145.806 C86.0583,146.714 86.4717,148.011 86.4717,149.697 C86.4717,151.976 85.876,153.604 84.6846,154.58 C83.9294,155.199 83.0505,155.508 82.0479,155.508 C81.2601,155.508 80.5993,155.335 80.0654,154.99 C79.7529,154.795 79.4046,154.46 79.0205,153.984 L79.0205,159.326 L77.2627,159.326 L77.2627,144.746 M89.5537,151.875 C89.6058,152.461 89.7523,152.91 89.9932,153.223 C90.4359,153.789 91.2041,154.072 92.2979,154.072 C92.9489,154.072 93.5218,153.931 94.0166,153.647 C94.5114,153.364 94.7588,152.926 94.7588,152.334 C94.7588,151.885 94.5602,151.543 94.1631,151.309 C93.9092,151.165 93.4079,150.999 92.6592,150.811 L91.2627,150.459 C90.3708,150.238 89.7132,149.99 89.29,149.717 C88.5348,149.242 88.1572,148.584 88.1572,147.744 C88.1572,146.755 88.5137,145.954 89.2266,145.342 C89.9395,144.73 90.8981,144.424 92.1025,144.424 C93.6781,144.424 94.8141,144.886 95.5107,145.811 C95.9469,146.396 96.1585,147.028 96.1455,147.705 L94.4854,147.705 C94.4528,147.308 94.3128,146.947 94.0654,146.621 C93.6618,146.159 92.9619,145.928 91.9658,145.928 C91.3018,145.928 90.7988,146.055 90.457,146.309 C90.1152,146.562 89.9443,146.898 89.9443,147.314 C89.9443,147.77 90.1689,148.135 90.6182,148.408 C90.8786,148.571 91.2627,148.714 91.7705,148.838 L92.9326,149.121 C94.1956,149.427 95.042,149.723 95.4717,150.01 C96.1553,150.459 96.4971,151.165 96.4971,152.129 C96.4971,153.06 96.1439,153.864 95.4375,154.541 C94.7311,155.218 93.6553,155.557 92.21,155.557 C90.654,155.557 89.5521,155.203 88.9043,154.497 C88.2565,153.791 87.9098,152.917 87.8643,151.875 L89.5537,151.875 M98.8799,157.197 C99.3291,157.119 99.6449,156.803 99.8271,156.25 C99.9248,155.957 99.9736,155.674 99.9736,155.4 C99.9736,155.355 99.972,155.314 99.9688,155.278 C99.9655,155.243 99.9574,155.202 99.9443,155.156 L98.8799,155.156 L98.8799,153.027 L100.97,153.027 L100.97,155 C100.97,155.775 100.813,156.455 100.501,157.041 C100.188,157.627 99.6481,157.988 98.8799,158.125 L98.8799,157.197 M109.651,140.811 L111.409,140.811 L111.409,155.156 L109.651,155.156 L109.651,140.811 M120.588,152.7 C121.021,151.818 121.237,150.837 121.237,149.756 C121.237,148.779 121.081,147.985 120.769,147.373 C120.274,146.41 119.421,145.928 118.21,145.928 C117.136,145.928 116.354,146.338 115.866,147.158 C115.378,147.979 115.134,148.968 115.134,150.127 C115.134,151.24 115.378,152.168 115.866,152.91 C116.354,153.652 117.129,154.023 118.19,154.023 C119.356,154.023 120.155,153.582 120.588,152.7 M121.677,145.742 C122.608,146.641 123.073,147.962 123.073,149.707 C123.073,151.393 122.663,152.786 121.843,153.887 C121.022,154.987 119.75,155.537 118.024,155.537 C116.586,155.537 115.443,155.05 114.597,154.077 C113.75,153.104 113.327,151.797 113.327,150.156 C113.327,148.398 113.773,146.999 114.665,145.957 C115.557,144.915 116.755,144.395 118.259,144.395 C119.606,144.395 120.746,144.844 121.677,145.742 M131.697,152.7 C132.13,151.818 132.347,150.837 132.347,149.756 C132.347,148.779 132.19,147.985 131.878,147.373 C131.383,146.41 130.53,145.928 129.319,145.928 C128.245,145.928 127.464,146.338 126.976,147.158 C126.487,147.979 126.243,148.968 126.243,150.127 C126.243,151.24 126.487,152.168 126.976,152.91 C127.464,153.652 128.239,154.023 129.3,154.023 C130.465,154.023 131.264,153.582 131.697,152.7 M132.786,145.742 C133.717,146.641 134.183,147.962 134.183,149.707 C134.183,151.393 133.772,152.786 132.952,153.887 C132.132,154.987 130.859,155.537 129.134,155.537 C127.695,155.537 126.552,155.05 125.706,154.077 C124.86,153.104 124.437,151.797 124.437,150.156 C124.437,148.398 124.882,146.999 125.774,145.957 C126.666,144.915 127.864,144.395 129.368,144.395 C130.716,144.395 131.855,144.844 132.786,145.742 M136.22,140.811 L137.909,140.811 L137.909,149.141 L142.421,144.697 L144.667,144.697 L140.663,148.613 L144.892,155.156 L142.646,155.156 L139.384,149.883 L137.909,151.23 L137.909,155.156 L136.22,155.156 L136.22,140.811 M147.304,151.875 C147.356,152.461 147.502,152.91 147.743,153.223 C148.186,153.789 148.954,154.072 150.048,154.072 C150.699,154.072 151.272,153.931 151.767,153.647 C152.261,153.364 152.509,152.926 152.509,152.334 C152.509,151.885 152.31,151.543 151.913,151.309 C151.659,151.165 151.158,150.999 150.409,150.811 L149.013,150.459 C148.121,150.238 147.463,149.99 147.04,149.717 C146.285,149.242 145.907,148.584 145.907,147.744 C145.907,146.755 146.264,145.954 146.977,145.342 C147.689,144.73 148.648,144.424 149.853,144.424 C151.428,144.424 152.564,144.886 153.261,145.811 C153.697,146.396 153.909,147.028 153.896,147.705 L152.235,147.705 C152.203,147.308 152.063,146.947 151.815,146.621 C151.412,146.159 150.712,145.928 149.716,145.928 C149.052,145.928 148.549,146.055 148.207,146.309 C147.865,146.562 147.694,146.898 147.694,147.314 C147.694,147.77 147.919,148.135 148.368,148.408 C148.629,148.571 149.013,148.714 149.521,148.838 L150.683,149.121 C151.946,149.427 152.792,149.723 153.222,150.01 C153.905,150.459 154.247,151.165 154.247,152.129 C154.247,153.06 153.894,153.864 153.188,154.541 C152.481,155.218 151.405,155.557 149.96,155.557 C148.404,155.557 147.302,155.203 146.654,154.497 C146.007,153.791 145.66,152.917 145.614,151.875 L147.304,151.875 M161.854,140.811 L163.612,140.811 L163.612,155.156 L161.854,155.156 L161.854,140.811 M166.243,144.746 L168.03,144.746 L168.03,155.156 L166.243,155.156 L166.243,144.746 M166.243,140.811 L168.03,140.811 L168.03,142.803 L166.243,142.803 L166.243,140.811 M170.642,140.811 L172.331,140.811 L172.331,149.141 L176.843,144.697 L179.089,144.697 L175.085,148.613 L179.313,155.156 L177.067,155.156 L173.806,149.883 L172.331,151.23 L172.331,155.156 L170.642,155.156 L170.642,140.811 M187.194,144.985 C187.891,145.334 188.422,145.785 188.786,146.338 C189.138,146.865 189.372,147.48 189.489,148.184 C189.593,148.665 189.646,149.434 189.646,150.488 L181.979,150.488 C182.012,151.549 182.263,152.401 182.731,153.042 C183.2,153.683 183.926,154.004 184.909,154.004 C185.827,154.004 186.56,153.701 187.106,153.096 C187.419,152.744 187.64,152.337 187.771,151.875 L189.499,151.875 C189.453,152.259 189.302,152.687 189.045,153.159 C188.788,153.631 188.5,154.017 188.181,154.316 C187.647,154.837 186.986,155.189 186.198,155.371 C185.775,155.475 185.297,155.527 184.763,155.527 C183.461,155.527 182.357,155.054 181.452,154.106 C180.547,153.159 180.095,151.833 180.095,150.127 C180.095,148.447 180.55,147.083 181.462,146.035 C182.373,144.987 183.565,144.463 185.036,144.463 C185.778,144.463 186.498,144.637 187.194,144.985 M187.839,149.092 C187.767,148.33 187.601,147.721 187.341,147.266 C186.859,146.419 186.055,145.996 184.929,145.996 C184.121,145.996 183.444,146.287 182.897,146.87 C182.351,147.453 182.061,148.193 182.028,149.092 L187.839,149.092 M203.87,144.697 L205.813,144.697 C205.566,145.368 205.016,146.898 204.163,149.287 C203.525,151.084 202.991,152.549 202.562,153.682 C201.546,156.351 200.83,157.979 200.413,158.564 C199.996,159.15 199.28,159.443 198.265,159.443 C198.017,159.443 197.827,159.434 197.693,159.414 C197.56,159.395 197.396,159.359 197.2,159.307 L197.2,157.705 C197.506,157.79 197.728,157.842 197.864,157.861 C198.001,157.881 198.121,157.891 198.226,157.891 C198.551,157.891 198.79,157.837 198.943,157.729 C199.096,157.622 199.225,157.49 199.329,157.334 C199.362,157.282 199.479,157.015 199.681,156.533 C199.882,156.051 200.029,155.693 200.12,155.459 L196.253,144.697 L198.245,144.697 L201.048,153.213 L203.87,144.697 M213.885,152.7 C214.318,151.818 214.534,150.837 214.534,149.756 C214.534,148.779 214.378,147.985 214.065,147.373 C213.571,146.41 212.718,145.928 211.507,145.928 C210.433,145.928 209.651,146.338 209.163,147.158 C208.675,147.979 208.431,148.968 208.431,150.127 C208.431,151.24 208.675,152.168 209.163,152.91 C209.651,153.652 210.426,154.023 211.487,154.023 C212.653,154.023 213.452,153.582 213.885,152.7 M214.974,145.742 C215.905,146.641 216.37,147.962 216.37,149.707 C216.37,151.393 215.96,152.786 215.14,153.887 C214.319,154.987 213.047,155.537 211.321,155.537 C209.882,155.537 208.74,155.05 207.894,154.077 C207.047,153.104 206.624,151.797 206.624,150.156 C206.624,148.398 207.07,146.999 207.962,145.957 C208.854,144.915 210.052,144.395 211.556,144.395 C212.903,144.395 214.043,144.844 214.974,145.742 M220.204,144.697 L220.204,151.641 C220.204,152.174 220.289,152.611 220.458,152.949 C220.771,153.574 221.353,153.887 222.206,153.887 C223.43,153.887 224.263,153.34 224.706,152.246 C224.947,151.66 225.067,150.856 225.067,149.834 L225.067,144.697 L226.825,144.697 L226.825,155.156 L225.165,155.156 L225.185,153.613 C224.957,154.01 224.674,154.346 224.335,154.619 C223.664,155.166 222.851,155.439 221.894,155.439 C220.403,155.439 219.387,154.941 218.847,153.945 C218.554,153.411 218.407,152.699 218.407,151.807 L218.407,144.697 L220.204,144.697 M235.103,140.762 L236.86,140.762 L236.86,146.113 C237.277,145.586 237.651,145.215 237.983,145 C238.55,144.629 239.256,144.443 240.103,144.443 C241.619,144.443 242.648,144.974 243.188,146.035 C243.481,146.615 243.628,147.419 243.628,148.447 L243.628,155.156 L241.821,155.156 L241.821,148.564 C241.821,147.796 241.724,147.233 241.528,146.875 C241.209,146.302 240.61,146.016 239.731,146.016 C239.002,146.016 238.341,146.266 237.749,146.768 C237.157,147.269 236.86,148.216 236.86,149.609 L236.86,155.156 L235.103,155.156 L235.103,140.762 M248.116,153.574 C248.487,153.867 248.927,154.014 249.435,154.014 C250.053,154.014 250.652,153.87 251.231,153.584 C252.208,153.109 252.696,152.331 252.696,151.25 L252.696,149.834 C252.481,149.971 252.205,150.085 251.866,150.176 C251.528,150.267 251.196,150.332 250.87,150.371 L249.806,150.508 C249.168,150.592 248.689,150.726 248.37,150.908 C247.83,151.214 247.56,151.702 247.56,152.373 C247.56,152.881 247.745,153.281 248.116,153.574 M251.817,148.818 C252.221,148.766 252.491,148.597 252.628,148.311 C252.706,148.154 252.745,147.93 252.745,147.637 C252.745,147.038 252.532,146.603 252.105,146.333 C251.679,146.063 251.069,145.928 250.274,145.928 C249.356,145.928 248.705,146.175 248.321,146.67 C248.106,146.943 247.966,147.35 247.901,147.891 L246.261,147.891 C246.293,146.602 246.712,145.705 247.516,145.2 C248.32,144.696 249.252,144.443 250.313,144.443 C251.544,144.443 252.543,144.678 253.312,145.146 C254.073,145.615 254.454,146.344 254.454,147.334 L254.454,153.359 C254.454,153.542 254.492,153.688 254.566,153.799 C254.641,153.91 254.799,153.965 255.04,153.965 C255.118,153.965 255.206,153.96 255.304,153.95 C255.401,153.94 255.506,153.926 255.616,153.906 L255.616,155.205 C255.343,155.283 255.134,155.332 254.991,155.352 C254.848,155.371 254.653,155.381 254.405,155.381 C253.8,155.381 253.36,155.166 253.087,154.736 C252.944,154.508 252.843,154.186 252.784,153.77 C252.426,154.238 251.912,154.645 251.241,154.99 C250.571,155.335 249.832,155.508 249.024,155.508 C248.054,155.508 247.262,155.213 246.646,154.624 C246.031,154.035 245.724,153.298 245.724,152.412 C245.724,151.442 246.026,150.69 246.632,150.156 C247.237,149.622 248.032,149.294 249.015,149.17 L251.817,148.818 M258.181,144.697 L260.974,153.213 L263.894,144.697 L265.817,144.697 L261.872,155.156 L259.997,155.156 L256.14,144.697 L258.181,144.697 M273.835,144.985 C274.532,145.334 275.062,145.785 275.427,146.338 C275.778,146.865 276.013,147.48 276.13,148.184 C276.234,148.665 276.286,149.434 276.286,150.488 L268.62,150.488 C268.653,151.549 268.903,152.401 269.372,153.042 C269.841,153.683 270.567,154.004 271.55,154.004 C272.468,154.004 273.2,153.701 273.747,153.096 C274.06,152.744 274.281,152.337 274.411,151.875 L276.14,151.875 C276.094,152.259 275.943,152.687 275.686,153.159 C275.428,153.631 275.14,154.017 274.821,154.316 C274.287,154.837 273.627,155.189 272.839,155.371 C272.416,155.475 271.937,155.527 271.403,155.527 C270.101,155.527 268.998,155.054 268.093,154.106 C267.188,153.159 266.735,151.833 266.735,150.127 C266.735,148.447 267.191,147.083 268.103,146.035 C269.014,144.987 270.205,144.463 271.677,144.463 C272.419,144.463 273.138,144.637 273.835,144.985 M274.479,149.092 C274.408,148.33 274.242,147.721 273.981,147.266 C273.5,146.419 272.696,145.996 271.569,145.996 C270.762,145.996 270.085,146.287 269.538,146.87 C268.991,147.453 268.702,148.193 268.669,149.092 L274.479,149.092 M284.026,144.697 L285.696,144.697 L285.696,146.504 C285.833,146.152 286.168,145.724 286.702,145.22 C287.236,144.715 287.851,144.463 288.548,144.463 C288.58,144.463 288.636,144.466 288.714,144.473 C288.792,144.479 288.925,144.492 289.114,144.512 L289.114,146.367 C289.01,146.348 288.914,146.335 288.826,146.328 C288.738,146.322 288.642,146.318 288.538,146.318 C287.653,146.318 286.972,146.603 286.497,147.173 C286.022,147.743 285.784,148.398 285.784,149.141 L285.784,155.156 L284.026,155.156 L284.026,144.697 M297.147,144.985 C297.844,145.334 298.375,145.785 298.739,146.338 C299.091,146.865 299.325,147.48 299.442,148.184 C299.547,148.665 299.599,149.434 299.599,150.488 L291.933,150.488 C291.965,151.549 292.216,152.401 292.685,153.042 C293.153,153.683 293.879,154.004 294.862,154.004 C295.78,154.004 296.513,153.701 297.06,153.096 C297.372,152.744 297.593,152.337 297.724,151.875 L299.452,151.875 C299.407,152.259 299.255,152.687 298.998,153.159 C298.741,153.631 298.453,154.017 298.134,154.316 C297.6,154.837 296.939,155.189 296.151,155.371 C295.728,155.475 295.25,155.527 294.716,155.527 C293.414,155.527 292.31,155.054 291.405,154.106 C290.5,153.159 290.048,151.833 290.048,150.127 C290.048,148.447 290.504,147.083 291.415,146.035 C292.327,144.987 293.518,144.463 294.989,144.463 C295.731,144.463 296.451,144.637 297.147,144.985 M297.792,149.092 C297.72,148.33 297.554,147.721 297.294,147.266 C296.812,146.419 296.008,145.996 294.882,145.996 C294.075,145.996 293.397,146.287 292.851,146.87 C292.304,147.453 292.014,148.193 291.981,149.092 L297.792,149.092 M302.603,144.697 L305.396,153.213 L308.315,144.697 L310.239,144.697 L306.294,155.156 L304.419,155.156 L300.562,144.697 L302.603,144.697 M311.743,144.746 L313.53,144.746 L313.53,155.156 L311.743,155.156 L311.743,144.746 M311.743,140.811 L313.53,140.811 L313.53,142.803 L311.743,142.803 L311.743,140.811 M322.694,144.985 C323.391,145.334 323.922,145.785 324.286,146.338 C324.638,146.865 324.872,147.48 324.989,148.184 C325.093,148.665 325.146,149.434 325.146,150.488 L317.479,150.488 C317.512,151.549 317.763,152.401 318.231,153.042 C318.7,153.683 319.426,154.004 320.409,154.004 C321.327,154.004 322.06,153.701 322.606,153.096 C322.919,152.744 323.14,152.337 323.271,151.875 L324.999,151.875 C324.953,152.259 324.802,152.687 324.545,153.159 C324.288,153.631 324,154.017 323.681,154.316 C323.147,154.837 322.486,155.189 321.698,155.371 C321.275,155.475 320.797,155.527 320.263,155.527 C318.961,155.527 317.857,155.054 316.952,154.106 C316.047,153.159 315.595,151.833 315.595,150.127 C315.595,148.447 316.05,147.083 316.962,146.035 C317.873,144.987 319.065,144.463 320.536,144.463 C321.278,144.463 321.998,144.637 322.694,144.985 M323.339,149.092 C323.267,148.33 323.101,147.721 322.841,147.266 C322.359,146.419 321.555,145.996 320.429,145.996 C319.621,145.996 318.944,146.287 318.397,146.87 C317.851,147.453 317.561,148.193 317.528,149.092 L323.339,149.092 M328.101,144.697 L330.112,152.939 L332.153,144.697 L334.126,144.697 L336.177,152.891 L338.315,144.697 L340.073,144.697 L337.036,155.156 L335.21,155.156 L333.081,147.061 L331.021,155.156 L329.194,155.156 L326.177,144.697 L328.101,144.697 M348.241,144.985 C348.938,145.334 349.468,145.785 349.833,146.338 C350.185,146.865 350.419,147.48 350.536,148.184 C350.64,148.665 350.692,149.434 350.692,150.488 L343.026,150.488 C343.059,151.549 343.31,152.401 343.778,153.042 C344.247,153.683 344.973,154.004 345.956,154.004 C346.874,154.004 347.606,153.701 348.153,153.096 C348.466,152.744 348.687,152.337 348.817,151.875 L350.546,151.875 C350.5,152.259 350.349,152.687 350.092,153.159 C349.835,153.631 349.547,154.017 349.228,154.316 C348.694,154.837 348.033,155.189 347.245,155.371 C346.822,155.475 346.343,155.527 345.81,155.527 C344.508,155.527 343.404,155.054 342.499,154.106 C341.594,153.159 341.142,151.833 341.142,150.127 C341.142,148.447 341.597,147.083 342.509,146.035 C343.42,144.987 344.612,144.463 346.083,144.463 C346.825,144.463 347.545,144.637 348.241,144.985 M348.886,149.092 C348.814,148.33 348.648,147.721 348.388,147.266 C347.906,146.419 347.102,145.996 345.976,145.996 C345.168,145.996 344.491,146.287 343.944,146.87 C343.397,147.453 343.108,148.193 343.075,149.092 L348.886,149.092 M354.663,152.861 C355.138,153.617 355.9,153.994 356.948,153.994 C357.762,153.994 358.431,153.644 358.955,152.944 C359.479,152.244 359.741,151.24 359.741,149.932 C359.741,148.61 359.471,147.632 358.931,146.997 C358.39,146.362 357.723,146.045 356.929,146.045 C356.043,146.045 355.326,146.383 354.775,147.061 C354.225,147.738 353.95,148.734 353.95,150.049 C353.95,151.169 354.188,152.106 354.663,152.861 M358.608,145.02 C358.921,145.215 359.276,145.557 359.673,146.045 L359.673,140.762 L361.362,140.762 L361.362,155.156 L359.78,155.156 L359.78,153.701 C359.37,154.346 358.885,154.811 358.325,155.098 C357.765,155.384 357.124,155.527 356.401,155.527 C355.236,155.527 354.227,155.037 353.374,154.058 C352.521,153.078 352.095,151.774 352.095,150.146 C352.095,148.623 352.484,147.303 353.262,146.187 C354.04,145.07 355.151,144.512 356.597,144.512 C357.397,144.512 358.068,144.681 358.608,145.02 M41.5381,173.574 C41.9092,173.867 42.3486,174.014 42.8564,174.014 C43.4749,174.014 44.0739,173.87 44.6533,173.584 C45.6299,173.109 46.1182,172.331 46.1182,171.25 L46.1182,169.834 C45.9033,169.971 45.6266,170.085 45.2881,170.176 C44.9495,170.267 44.6175,170.332 44.292,170.371 L43.2275,170.508 C42.5895,170.592 42.111,170.726 41.792,170.908 C41.2516,171.214 40.9814,171.702 40.9814,172.373 C40.9814,172.881 41.167,173.281 41.5381,173.574 M45.2393,168.818 C45.6429,168.766 45.9131,168.597 46.0498,168.311 C46.1279,168.154 46.167,167.93 46.167,167.637 C46.167,167.038 45.9538,166.603 45.5273,166.333 C45.1009,166.063 44.4906,165.928 43.6963,165.928 C42.7783,165.928 42.1273,166.175 41.7432,166.67 C41.5283,166.943 41.3884,167.35 41.3232,167.891 L39.6826,167.891 C39.7152,166.602 40.1335,165.705 40.9375,165.2 C41.7415,164.696 42.6741,164.443 43.7354,164.443 C44.9658,164.443 45.9652,164.678 46.7334,165.146 C47.4951,165.615 47.876,166.344 47.876,167.334 L47.876,173.359 C47.876,173.542 47.9134,173.688 47.9883,173.799 C48.0632,173.91 48.221,173.965 48.4619,173.965 C48.54,173.965 48.6279,173.96 48.7256,173.95 C48.8232,173.94 48.9274,173.926 49.0381,173.906 L49.0381,175.205 C48.7646,175.283 48.5563,175.332 48.4131,175.352 C48.2699,175.371 48.0745,175.381 47.8271,175.381 C47.2217,175.381 46.7822,175.166 46.5088,174.736 C46.3656,174.508 46.2646,174.186 46.2061,173.77 C45.848,174.238 45.3337,174.645 44.6631,174.99 C43.9925,175.335 43.2536,175.508 42.4463,175.508 C41.4762,175.508 40.6836,175.213 40.0684,174.624 C39.4531,174.035 39.1455,173.298 39.1455,172.412 C39.1455,171.442 39.4482,170.69 40.0537,170.156 C40.6592,169.622 41.4534,169.294 42.4365,169.17 L45.2393,168.818 M50.792,160.811 L52.5498,160.811 L52.5498,175.156 L50.792,175.156 L50.792,160.811 M55.2295,160.811 L56.9873,160.811 L56.9873,175.156 L55.2295,175.156 L55.2295,160.811 M65.5166,161.777 L67.2939,161.777 L67.2939,164.697 L68.9639,164.697 L68.9639,166.133 L67.2939,166.133 L67.2939,172.959 C67.2939,173.324 67.4176,173.568 67.665,173.691 C67.8018,173.763 68.0296,173.799 68.3486,173.799 C68.4333,173.799 68.5244,173.797 68.6221,173.794 C68.7197,173.791 68.8337,173.783 68.9639,173.77 L68.9639,175.156 C68.762,175.215 68.5521,175.257 68.334,175.283 C68.1159,175.309 67.8799,175.322 67.626,175.322 C66.8057,175.322 66.249,175.112 65.9561,174.692 C65.6631,174.272 65.5166,173.727 65.5166,173.057 L65.5166,166.133 L64.1006,166.133 L64.1006,164.697 L65.5166,164.697 L65.5166,161.777 M70.7119,160.762 L72.4697,160.762 L72.4697,166.113 C72.8864,165.586 73.2607,165.215 73.5928,165 C74.1592,164.629 74.8656,164.443 75.7119,164.443 C77.2288,164.443 78.2575,164.974 78.7979,166.035 C79.0908,166.615 79.2373,167.419 79.2373,168.447 L79.2373,175.156 L77.4307,175.156 L77.4307,168.564 C77.4307,167.796 77.333,167.233 77.1377,166.875 C76.8187,166.302 76.2197,166.016 75.3408,166.016 C74.6116,166.016 73.9509,166.266 73.3584,166.768 C72.7659,167.269 72.4697,168.216 72.4697,169.609 L72.4697,175.156 L70.7119,175.156 L70.7119,160.762 M88.335,164.985 C89.0316,165.334 89.5622,165.785 89.9268,166.338 C90.2783,166.865 90.5127,167.48 90.6299,168.184 C90.734,168.665 90.7861,169.434 90.7861,170.488 L83.1201,170.488 C83.1527,171.549 83.4033,172.401 83.8721,173.042 C84.3408,173.683 85.0667,174.004 86.0498,174.004 C86.9678,174.004 87.7002,173.701 88.2471,173.096 C88.5596,172.744 88.7809,172.337 88.9111,171.875 L90.6396,171.875 C90.5941,172.259 90.4427,172.687 90.1855,173.159 C89.9284,173.631 89.6403,174.017 89.3213,174.316 C88.7874,174.837 88.1266,175.189 87.3389,175.371 C86.9157,175.475 86.4372,175.527 85.9033,175.527 C84.6012,175.527 83.4977,175.054 82.5928,174.106 C81.6878,173.159 81.2354,171.833 81.2354,170.127 C81.2354,168.447 81.6911,167.083 82.6025,166.035 C83.514,164.987 84.7054,164.463 86.1768,164.463 C86.9189,164.463 87.6383,164.637 88.335,164.985 M88.9795,169.092 C88.9079,168.33 88.7419,167.721 88.4814,167.266 C87.9997,166.419 87.1956,165.996 86.0693,165.996 C85.262,165.996 84.585,166.287 84.0381,166.87 C83.4912,167.453 83.2015,168.193 83.1689,169.092 L88.9795,169.092 M99.2979,161.504 C99.708,160.905 100.499,160.605 101.671,160.605 C101.782,160.605 101.896,160.609 102.013,160.615 C102.13,160.622 102.263,160.632 102.413,160.645 L102.413,162.246 C102.231,162.233 102.099,162.225 102.018,162.222 C101.936,162.218 101.86,162.217 101.788,162.217 C101.254,162.217 100.935,162.355 100.831,162.632 C100.727,162.909 100.675,163.613 100.675,164.746 L102.413,164.746 L102.413,166.133 L100.655,166.133 L100.655,175.156 L98.917,175.156 L98.917,166.133 L97.4619,166.133 L97.4619,164.746 L98.917,164.746 L98.917,163.105 C98.943,162.376 99.07,161.842 99.2979,161.504 M110.572,172.7 C111.005,171.818 111.222,170.837 111.222,169.756 C111.222,168.779 111.065,167.985 110.753,167.373 C110.258,166.41 109.405,165.928 108.194,165.928 C107.12,165.928 106.339,166.338 105.851,167.158 C105.362,167.979 105.118,168.968 105.118,170.127 C105.118,171.24 105.362,172.168 105.851,172.91 C106.339,173.652 107.114,174.023 108.175,174.023 C109.34,174.023 110.139,173.582 110.572,172.7 M111.661,165.742 C112.592,166.641 113.058,167.962 113.058,169.707 C113.058,171.393 112.647,172.786 111.827,173.887 C111.007,174.987 109.734,175.537 108.009,175.537 C106.57,175.537 105.427,175.05 104.581,174.077 C103.735,173.104 103.312,171.797 103.312,170.156 C103.312,168.398 103.757,166.999 104.649,165.957 C105.541,164.915 106.739,164.395 108.243,164.395 C109.591,164.395 110.73,164.844 111.661,165.742 M121.682,172.7 C122.115,171.818 122.331,170.837 122.331,169.756 C122.331,168.779 122.175,167.985 121.862,167.373 C121.368,166.41 120.515,165.928 119.304,165.928 C118.229,165.928 117.448,166.338 116.96,167.158 C116.472,167.979 116.228,168.968 116.228,170.127 C116.228,171.24 116.472,172.168 116.96,172.91 C117.448,173.652 118.223,174.023 119.284,174.023 C120.45,174.023 121.249,173.582 121.682,172.7 M122.771,165.742 C123.701,166.641 124.167,167.962 124.167,169.707 C124.167,171.393 123.757,172.786 122.937,173.887 C122.116,174.987 120.843,175.537 119.118,175.537 C117.679,175.537 116.537,175.05 115.69,174.077 C114.844,173.104 114.421,171.797 114.421,170.156 C114.421,168.398 114.867,166.999 115.759,165.957 C116.651,164.915 117.849,164.395 119.353,164.395 C120.7,164.395 121.84,164.844 122.771,165.742 M128.069,172.861 C128.545,173.617 129.306,173.994 130.354,173.994 C131.168,173.994 131.837,173.644 132.361,172.944 C132.885,172.244 133.147,171.24 133.147,169.932 C133.147,168.61 132.877,167.632 132.337,166.997 C131.797,166.362 131.129,166.045 130.335,166.045 C129.45,166.045 128.732,166.383 128.182,167.061 C127.632,167.738 127.356,168.734 127.356,170.049 C127.356,171.169 127.594,172.106 128.069,172.861 M132.015,165.02 C132.327,165.215 132.682,165.557 133.079,166.045 L133.079,160.762 L134.769,160.762 L134.769,175.156 L133.187,175.156 L133.187,173.701 C132.776,174.346 132.291,174.811 131.731,175.098 C131.172,175.384 130.53,175.527 129.808,175.527 C128.642,175.527 127.633,175.037 126.78,174.058 C125.927,173.078 125.501,171.774 125.501,170.146 C125.501,168.623 125.89,167.303 126.668,166.187 C127.446,165.07 128.558,164.512 130.003,164.512 C130.804,164.512 131.474,164.681 132.015,165.02 M142.899,164.746 L144.687,164.746 L144.687,175.156 L142.899,175.156 L142.899,164.746 M142.899,160.811 L144.687,160.811 L144.687,162.803 L142.899,162.803 L142.899,160.811 M147.688,161.777 L149.466,161.777 L149.466,164.697 L151.136,164.697 L151.136,166.133 L149.466,166.133 L149.466,172.959 C149.466,173.324 149.59,173.568 149.837,173.691 C149.974,173.763 150.201,173.799 150.521,173.799 C150.605,173.799 150.696,173.797 150.794,173.794 C150.892,173.791 151.006,173.783 151.136,173.77 L151.136,175.156 C150.934,175.215 150.724,175.257 150.506,175.283 C150.288,175.309 150.052,175.322 149.798,175.322 C148.978,175.322 148.421,175.112 148.128,174.692 C147.835,174.272 147.688,173.727 147.688,173.057 L147.688,166.133 L146.272,166.133 L146.272,164.697 L147.688,164.697 L147.688,161.777 M159.397,164.985 C160.094,165.334 160.625,165.785 160.989,166.338 C161.341,166.865 161.575,167.48 161.692,168.184 C161.797,168.665 161.849,169.434 161.849,170.488 L154.183,170.488 C154.215,171.549 154.466,172.401 154.935,173.042 C155.403,173.683 156.129,174.004 157.112,174.004 C158.03,174.004 158.763,173.701 159.31,173.096 C159.622,172.744 159.843,172.337 159.974,171.875 L161.702,171.875 C161.657,172.259 161.505,172.687 161.248,173.159 C160.991,173.631 160.703,174.017 160.384,174.316 C159.85,174.837 159.189,175.189 158.401,175.371 C157.978,175.475 157.5,175.527 156.966,175.527 C155.664,175.527 154.56,175.054 153.655,174.106 C152.75,173.159 152.298,171.833 152.298,170.127 C152.298,168.447 152.754,167.083 153.665,166.035 C154.576,164.987 155.768,164.463 157.239,164.463 C157.981,164.463 158.701,164.637 159.397,164.985 M160.042,169.092 C159.97,168.33 159.804,167.721 159.544,167.266 C159.062,166.419 158.258,165.996 157.132,165.996 C156.325,165.996 155.647,166.287 155.101,166.87 C154.554,167.453 154.264,168.193 154.231,169.092 L160.042,169.092 M163.993,164.697 L165.731,164.697 L165.731,166.182 C166.148,165.667 166.526,165.293 166.864,165.059 C167.444,164.661 168.101,164.463 168.837,164.463 C169.67,164.463 170.341,164.668 170.849,165.078 C171.135,165.312 171.396,165.658 171.63,166.113 C172.021,165.553 172.479,165.138 173.007,164.868 C173.534,164.598 174.127,164.463 174.784,164.463 C176.19,164.463 177.147,164.971 177.655,165.986 C177.929,166.533 178.065,167.269 178.065,168.193 L178.065,175.156 L176.239,175.156 L176.239,167.891 C176.239,167.194 176.065,166.715 175.717,166.455 C175.368,166.195 174.944,166.064 174.442,166.064 C173.752,166.064 173.158,166.296 172.66,166.758 C172.162,167.22 171.913,167.992 171.913,169.072 L171.913,175.156 L170.126,175.156 L170.126,168.33 C170.126,167.62 170.041,167.103 169.872,166.777 C169.605,166.289 169.107,166.045 168.378,166.045 C167.714,166.045 167.11,166.302 166.566,166.816 C166.023,167.331 165.751,168.262 165.751,169.609 L165.751,175.156 L163.993,175.156 L163.993,164.697 M181.694,171.875 C181.746,172.461 181.893,172.91 182.134,173.223 C182.576,173.789 183.345,174.072 184.438,174.072 C185.09,174.072 185.662,173.931 186.157,173.647 C186.652,173.364 186.899,172.926 186.899,172.334 C186.899,171.885 186.701,171.543 186.304,171.309 C186.05,171.165 185.549,170.999 184.8,170.811 L183.403,170.459 C182.511,170.238 181.854,169.99 181.431,169.717 C180.675,169.242 180.298,168.584 180.298,167.744 C180.298,166.755 180.654,165.954 181.367,165.342 C182.08,164.73 183.039,164.424 184.243,164.424 C185.819,164.424 186.955,164.886 187.651,165.811 C188.088,166.396 188.299,167.028 188.286,167.705 L186.626,167.705 C186.593,167.308 186.453,166.947 186.206,166.621 C185.802,166.159 185.103,165.928 184.106,165.928 C183.442,165.928 182.939,166.055 182.598,166.309 C182.256,166.562 182.085,166.898 182.085,167.314 C182.085,167.77 182.31,168.135 182.759,168.408 C183.019,168.571 183.403,168.714 183.911,168.838 L185.073,169.121 C186.336,169.427 187.183,169.723 187.612,170.01 C188.296,170.459 188.638,171.165 188.638,172.129 C188.638,173.06 188.285,173.864 187.578,174.541 C186.872,175.218 185.796,175.557 184.351,175.557 C182.795,175.557 181.693,175.203 181.045,174.497 C180.397,173.791 180.05,172.917 180.005,171.875 L181.694,171.875 M197.007,164.697 L199.019,172.939 L201.06,164.697 L203.032,164.697 L205.083,172.891 L207.222,164.697 L208.979,164.697 L205.942,175.156 L204.116,175.156 L201.987,167.061 L199.927,175.156 L198.101,175.156 L195.083,164.697 L197.007,164.697 M217.147,164.985 C217.844,165.334 218.375,165.785 218.739,166.338 C219.091,166.865 219.325,167.48 219.442,168.184 C219.547,168.665 219.599,169.434 219.599,170.488 L211.933,170.488 C211.965,171.549 212.216,172.401 212.685,173.042 C213.153,173.683 213.879,174.004 214.862,174.004 C215.78,174.004 216.513,173.701 217.06,173.096 C217.372,172.744 217.593,172.337 217.724,171.875 L219.452,171.875 C219.407,172.259 219.255,172.687 218.998,173.159 C218.741,173.631 218.453,174.017 218.134,174.316 C217.6,174.837 216.939,175.189 216.151,175.371 C215.728,175.475 215.25,175.527 214.716,175.527 C213.414,175.527 212.31,175.054 211.405,174.106 C210.5,173.159 210.048,171.833 210.048,170.127 C210.048,168.447 210.504,167.083 211.415,166.035 C212.326,164.987 213.518,164.463 214.989,164.463 C215.731,164.463 216.451,164.637 217.147,164.985 M217.792,169.092 C217.72,168.33 217.554,167.721 217.294,167.266 C216.812,166.419 216.008,165.996 214.882,165.996 C214.075,165.996 213.397,166.287 212.851,166.87 C212.304,167.453 212.014,168.193 211.981,169.092 L217.792,169.092 M222.114,164.98 C222.472,164.922 222.744,164.72 222.93,164.375 C223.115,164.03 223.208,163.633 223.208,163.184 C223.208,163.138 223.206,163.097 223.203,163.062 C223.2,163.026 223.192,162.985 223.179,162.939 L222.114,162.939 L222.114,160.811 L224.204,160.811 L224.204,162.773 C224.204,163.607 224.032,164.315 223.687,164.897 C223.341,165.48 222.817,165.814 222.114,165.898 L222.114,164.98 M227.04,164.697 L229.833,173.213 L232.753,164.697 L234.677,164.697 L230.731,175.156 L228.856,175.156 L224.999,164.697 L227.04,164.697 M242.694,164.985 C243.391,165.334 243.922,165.785 244.286,166.338 C244.638,166.865 244.872,167.48 244.989,168.184 C245.093,168.665 245.146,169.434 245.146,170.488 L237.479,170.488 C237.512,171.549 237.763,172.401 238.231,173.042 C238.7,173.683 239.426,174.004 240.409,174.004 C241.327,174.004 242.06,173.701 242.606,173.096 C242.919,172.744 243.14,172.337 243.271,171.875 L244.999,171.875 C244.953,172.259 244.802,172.687 244.545,173.159 C244.288,173.631 244,174.017 243.681,174.316 C243.147,174.837 242.486,175.189 241.698,175.371 C241.275,175.475 240.797,175.527 240.263,175.527 C238.961,175.527 237.857,175.054 236.952,174.106 C236.047,173.159 235.595,171.833 235.595,170.127 C235.595,168.447 236.05,167.083 236.962,166.035 C237.873,164.987 239.065,164.463 240.536,164.463 C241.278,164.463 241.998,164.637 242.694,164.985 M243.339,169.092 C243.267,168.33 243.101,167.721 242.841,167.266 C242.359,166.419 241.555,165.996 240.429,165.996 C239.621,165.996 238.944,166.287 238.397,166.87 C237.851,167.453 237.561,168.193 237.528,169.092 L243.339,169.092 M258.677,165.117 C259.009,165.345 259.347,165.677 259.692,166.113 L259.692,164.795 L261.313,164.795 L261.313,174.307 C261.313,175.635 261.118,176.683 260.728,177.451 C259.998,178.87 258.621,179.58 256.597,179.58 C255.47,179.58 254.523,179.328 253.755,178.823 C252.987,178.319 252.557,177.529 252.466,176.455 L254.253,176.455 C254.338,176.924 254.507,177.285 254.761,177.539 C255.158,177.93 255.783,178.125 256.636,178.125 C257.983,178.125 258.866,177.65 259.282,176.699 C259.53,176.139 259.644,175.14 259.624,173.701 C259.272,174.235 258.849,174.632 258.354,174.893 C257.86,175.153 257.205,175.283 256.392,175.283 C255.259,175.283 254.268,174.881 253.418,174.077 C252.568,173.273 252.144,171.943 252.144,170.088 C252.144,168.337 252.572,166.969 253.428,165.986 C254.284,165.003 255.317,164.512 256.528,164.512 C257.349,164.512 258.065,164.714 258.677,165.117 M258.892,167.002 C258.358,166.377 257.677,166.064 256.851,166.064 C255.614,166.064 254.767,166.644 254.312,167.803 C254.071,168.421 253.95,169.232 253.95,170.234 C253.95,171.413 254.189,172.31 254.668,172.925 C255.146,173.54 255.789,173.848 256.597,173.848 C257.86,173.848 258.748,173.278 259.263,172.139 C259.549,171.494 259.692,170.742 259.692,169.883 C259.692,168.587 259.425,167.627 258.892,167.002 M270.494,172.7 C270.927,171.818 271.144,170.837 271.144,169.756 C271.144,168.779 270.987,167.985 270.675,167.373 C270.18,166.41 269.327,165.928 268.116,165.928 C267.042,165.928 266.261,166.338 265.772,167.158 C265.284,167.979 265.04,168.968 265.04,170.127 C265.04,171.24 265.284,172.168 265.772,172.91 C266.261,173.652 267.035,174.023 268.097,174.023 C269.262,174.023 270.061,173.582 270.494,172.7 M271.583,165.742 C272.514,166.641 272.979,167.962 272.979,169.707 C272.979,171.393 272.569,172.786 271.749,173.887 C270.929,174.987 269.656,175.537 267.931,175.537 C266.492,175.537 265.349,175.05 264.503,174.077 C263.657,173.104 263.233,171.797 263.233,170.156 C263.233,168.398 263.679,166.999 264.571,165.957 C265.463,164.915 266.661,164.395 268.165,164.395 C269.513,164.395 270.652,164.844 271.583,165.742 M275.407,161.777 L277.185,161.777 L277.185,164.697 L278.854,164.697 L278.854,166.133 L277.185,166.133 L277.185,172.959 C277.185,173.324 277.308,173.568 277.556,173.691 C277.692,173.763 277.92,173.799 278.239,173.799 C278.324,173.799 278.415,173.797 278.513,173.794 C278.61,173.791 278.724,173.783 278.854,173.77 L278.854,175.156 C278.653,175.215 278.443,175.257 278.225,175.283 C278.007,175.309 277.771,175.322 277.517,175.322 C276.696,175.322 276.14,175.112 275.847,174.692 C275.554,174.272 275.407,173.727 275.407,173.057 L275.407,166.133 L273.991,166.133 L273.991,164.697 L275.407,164.697 L275.407,161.777 M281.628,160.811 L283.61,160.811 L283.61,165.527 L283.132,171.738 L282.136,171.738 L281.628,165.527 L281.628,160.811 M281.628,173.125 L283.571,173.125 L283.571,175.156 L281.628,175.156 L281.628,173.125 M47.2314,209.277 L45.0537,202.939 L42.7393,209.277 L47.2314,209.277 M44.0381,200.811 L46.2354,200.811 L51.4404,215.156 L49.3115,215.156 L47.8564,210.859 L42.1826,210.859 L40.6299,215.156 L38.6377,215.156 L44.0381,200.811 M54.0068,211.875 C54.0589,212.461 54.2054,212.91 54.4463,213.223 C54.889,213.789 55.6572,214.072 56.751,214.072 C57.402,214.072 57.9749,213.931 58.4697,213.647 C58.9645,213.364 59.2119,212.926 59.2119,212.334 C59.2119,211.885 59.0134,211.543 58.6162,211.309 C58.3623,211.165 57.861,210.999 57.1123,210.811 L55.7158,210.459 C54.8239,210.238 54.1663,209.99 53.7432,209.717 C52.988,209.242 52.6104,208.584 52.6104,207.744 C52.6104,206.755 52.9668,205.954 53.6797,205.342 C54.3926,204.73 55.3512,204.424 56.5557,204.424 C58.1312,204.424 59.2673,204.886 59.9639,205.811 C60.4001,206.396 60.6116,207.028 60.5986,207.705 L58.9385,207.705 C58.9059,207.308 58.7659,206.947 58.5186,206.621 C58.1149,206.159 57.415,205.928 56.4189,205.928 C55.7549,205.928 55.252,206.055 54.9102,206.309 C54.5684,206.562 54.3975,206.898 54.3975,207.314 C54.3975,207.77 54.6221,208.135 55.0713,208.408 C55.3317,208.571 55.7158,208.714 56.2236,208.838 L57.3857,209.121 C58.6488,209.427 59.4951,209.723 59.9248,210.01 C60.6084,210.459 60.9502,211.165 60.9502,212.129 C60.9502,213.06 60.597,213.864 59.8906,214.541 C59.1842,215.218 58.1084,215.557 56.6631,215.557 C55.1071,215.557 54.0052,215.203 53.3574,214.497 C52.7096,213.791 52.363,212.917 52.3174,211.875 L54.0068,211.875 M68.9287,200.811 L78.8799,200.811 L78.8799,202.568 L70.8721,202.568 L70.8721,206.924 L77.9131,206.924 L77.9131,208.633 L70.8721,208.633 L70.8721,215.156 L68.9287,215.156 L68.9287,200.811 M87.2598,212.7 C87.6927,211.818 87.9092,210.837 87.9092,209.756 C87.9092,208.779 87.7529,207.985 87.4404,207.373 C86.9456,206.41 86.0928,205.928 84.8818,205.928 C83.8076,205.928 83.0264,206.338 82.5381,207.158 C82.0498,207.979 81.8057,208.968 81.8057,210.127 C81.8057,211.24 82.0498,212.168 82.5381,212.91 C83.0264,213.652 83.8011,214.023 84.8623,214.023 C86.0277,214.023 86.8268,213.582 87.2598,212.7 M88.3486,205.742 C89.2796,206.641 89.7451,207.962 89.7451,209.707 C89.7451,211.393 89.335,212.786 88.5146,213.887 C87.6943,214.987 86.4215,215.537 84.6963,215.537 C83.2575,215.537 82.1149,215.05 81.2686,214.077 C80.4222,213.104 79.999,211.797 79.999,210.156 C79.999,208.398 80.445,206.999 81.3369,205.957 C82.2288,204.915 83.4268,204.395 84.9307,204.395 C86.2783,204.395 87.4176,204.844 88.3486,205.742 M98.3691,212.7 C98.8021,211.818 99.0186,210.837 99.0186,209.756 C99.0186,208.779 98.8623,207.985 98.5498,207.373 C98.055,206.41 97.2021,205.928 95.9912,205.928 C94.917,205.928 94.1357,206.338 93.6475,207.158 C93.1592,207.979 92.915,208.968 92.915,210.127 C92.915,211.24 93.1592,212.168 93.6475,212.91 C94.1357,213.652 94.9105,214.023 95.9717,214.023 C97.137,214.023 97.9362,213.582 98.3691,212.7 M99.458,205.742 C100.389,206.641 100.854,207.962 100.854,209.707 C100.854,211.393 100.444,212.786 99.624,213.887 C98.8037,214.987 97.5309,215.537 95.8057,215.537 C94.3669,215.537 93.2243,215.05 92.3779,214.077 C91.5316,213.104 91.1084,211.797 91.1084,210.156 C91.1084,208.398 91.5544,206.999 92.4463,205.957 C93.3382,204.915 94.5361,204.395 96.04,204.395 C97.3877,204.395 98.527,204.844 99.458,205.742 M104.757,212.861 C105.232,213.617 105.994,213.994 107.042,213.994 C107.856,213.994 108.525,213.644 109.049,212.944 C109.573,212.244 109.835,211.24 109.835,209.932 C109.835,208.61 109.565,207.632 109.024,206.997 C108.484,206.362 107.817,206.045 107.022,206.045 C106.137,206.045 105.419,206.383 104.869,207.061 C104.319,207.738 104.044,208.734 104.044,210.049 C104.044,211.169 104.282,212.106 104.757,212.861 M108.702,205.02 C109.015,205.215 109.369,205.557 109.767,206.045 L109.767,200.762 L111.456,200.762 L111.456,215.156 L109.874,215.156 L109.874,213.701 C109.464,214.346 108.979,214.811 108.419,215.098 C107.859,215.384 107.218,215.527 106.495,215.527 C105.33,215.527 104.321,215.037 103.468,214.058 C102.615,213.078 102.188,211.774 102.188,210.146 C102.188,208.623 102.577,207.303 103.355,206.187 C104.133,205.07 105.245,204.512 106.69,204.512 C107.491,204.512 108.162,204.681 108.702,205.02 M114.46,200.811 L120.915,200.811 C122.191,200.811 123.22,201.17 124.001,201.89 C124.782,202.609 125.173,203.62 125.173,204.922 C125.173,206.042 124.825,207.017 124.128,207.847 C123.431,208.677 122.36,209.092 120.915,209.092 L116.403,209.092 L116.403,215.156 L114.46,215.156 L114.46,200.811 M122.038,202.783 C121.608,202.581 121.019,202.48 120.271,202.48 L116.403,202.48 L116.403,207.451 L120.271,207.451 C121.143,207.451 121.851,207.266 122.395,206.895 C122.938,206.523 123.21,205.869 123.21,204.932 C123.21,203.877 122.819,203.161 122.038,202.783 M133.916,212.7 C134.349,211.818 134.565,210.837 134.565,209.756 C134.565,208.779 134.409,207.985 134.097,207.373 C133.602,206.41 132.749,205.928 131.538,205.928 C130.464,205.928 129.683,206.338 129.194,207.158 C128.706,207.979 128.462,208.968 128.462,210.127 C128.462,211.24 128.706,212.168 129.194,212.91 C129.683,213.652 130.457,214.023 131.519,214.023 C132.684,214.023 133.483,213.582 133.916,212.7 M135.005,205.742 C135.936,206.641 136.401,207.962 136.401,209.707 C136.401,211.393 135.991,212.786 135.171,213.887 C134.351,214.987 133.078,215.537 131.353,215.537 C129.914,215.537 128.771,215.05 127.925,214.077 C127.078,213.104 126.655,211.797 126.655,210.156 C126.655,208.398 127.101,206.999 127.993,205.957 C128.885,204.915 130.083,204.395 131.587,204.395 C132.935,204.395 134.074,204.844 135.005,205.742 M138.526,204.697 L140.196,204.697 L140.196,206.504 C140.333,206.152 140.668,205.724 141.202,205.22 C141.736,204.715 142.351,204.463 143.048,204.463 C143.08,204.463 143.136,204.466 143.214,204.473 C143.292,204.479 143.425,204.492 143.614,204.512 L143.614,206.367 C143.51,206.348 143.414,206.335 143.326,206.328 C143.238,206.322 143.142,206.318 143.038,206.318 C142.153,206.318 141.472,206.603 140.997,207.173 C140.522,207.743 140.284,208.398 140.284,209.141 L140.284,215.156 L138.526,215.156 L138.526,204.697 M145.134,204.697 L146.804,204.697 L146.804,206.182 C147.299,205.57 147.823,205.13 148.376,204.863 C148.929,204.596 149.545,204.463 150.222,204.463 C151.706,204.463 152.709,204.98 153.229,206.016 C153.516,206.582 153.659,207.393 153.659,208.447 L153.659,215.156 L151.872,215.156 L151.872,208.564 C151.872,207.926 151.778,207.412 151.589,207.021 C151.276,206.37 150.71,206.045 149.89,206.045 C149.473,206.045 149.131,206.087 148.864,206.172 C148.382,206.315 147.959,206.602 147.595,207.031 C147.302,207.376 147.111,207.733 147.023,208.101 C146.936,208.468 146.892,208.994 146.892,209.678 L146.892,215.156 L145.134,215.156 L145.134,204.697 M161.79,204.746 L163.577,204.746 L163.577,215.156 L161.79,215.156 L161.79,204.746 M161.79,200.811 L163.577,200.811 L163.577,202.803 L161.79,202.803 L161.79,200.811 M167.272,211.875 C167.325,212.461 167.471,212.91 167.712,213.223 C168.155,213.789 168.923,214.072 170.017,214.072 C170.668,214.072 171.241,213.931 171.735,213.647 C172.23,213.364 172.478,212.926 172.478,212.334 C172.478,211.885 172.279,211.543 171.882,211.309 C171.628,211.165 171.127,210.999 170.378,210.811 L168.981,210.459 C168.09,210.238 167.432,209.99 167.009,209.717 C166.254,209.242 165.876,208.584 165.876,207.744 C165.876,206.755 166.232,205.954 166.945,205.342 C167.658,204.73 168.617,204.424 169.821,204.424 C171.397,204.424 172.533,204.886 173.229,205.811 C173.666,206.396 173.877,207.028 173.864,207.705 L172.204,207.705 C172.172,207.308 172.032,206.947 171.784,206.621 C171.381,206.159 170.681,205.928 169.685,205.928 C169.021,205.928 168.518,206.055 168.176,206.309 C167.834,206.562 167.663,206.898 167.663,207.314 C167.663,207.77 167.888,208.135 168.337,208.408 C168.597,208.571 168.981,208.714 169.489,208.838 L170.651,209.121 C171.914,209.427 172.761,209.723 173.19,210.01 C173.874,210.459 174.216,211.165 174.216,212.129 C174.216,213.06 173.863,213.864 173.156,214.541 C172.45,215.218 171.374,215.557 169.929,215.557 C168.373,215.557 167.271,215.203 166.623,214.497 C165.975,213.791 165.629,212.917 165.583,211.875 L167.272,211.875 M188.684,205.254 C189.423,205.827 189.867,206.813 190.017,208.213 L188.308,208.213 C188.203,207.568 187.966,207.033 187.595,206.606 C187.224,206.18 186.628,205.967 185.808,205.967 C184.688,205.967 183.887,206.514 183.405,207.607 C183.093,208.317 182.937,209.193 182.937,210.234 C182.937,211.283 183.158,212.165 183.601,212.881 C184.043,213.597 184.74,213.955 185.69,213.955 C186.42,213.955 186.997,213.732 187.424,213.286 C187.85,212.84 188.145,212.23 188.308,211.455 L190.017,211.455 C189.821,212.842 189.333,213.856 188.552,214.497 C187.771,215.138 186.771,215.459 185.554,215.459 C184.187,215.459 183.096,214.959 182.282,213.96 C181.468,212.961 181.062,211.712 181.062,210.215 C181.062,208.379 181.507,206.95 182.399,205.928 C183.291,204.906 184.427,204.395 185.808,204.395 C186.986,204.395 187.945,204.681 188.684,205.254 M193.532,204.697 L193.532,211.641 C193.532,212.174 193.617,212.611 193.786,212.949 C194.099,213.574 194.681,213.887 195.534,213.887 C196.758,213.887 197.591,213.34 198.034,212.246 C198.275,211.66 198.396,210.856 198.396,209.834 L198.396,204.697 L200.153,204.697 L200.153,215.156 L198.493,215.156 L198.513,213.613 C198.285,214.01 198.002,214.346 197.663,214.619 C196.993,215.166 196.179,215.439 195.222,215.439 C193.731,215.439 192.715,214.941 192.175,213.945 C191.882,213.411 191.735,212.699 191.735,211.807 L191.735,204.697 L193.532,204.697 M202.933,204.697 L204.603,204.697 L204.603,206.504 C204.739,206.152 205.075,205.724 205.608,205.22 C206.142,204.715 206.757,204.463 207.454,204.463 C207.487,204.463 207.542,204.466 207.62,204.473 C207.698,204.479 207.832,204.492 208.021,204.512 L208.021,206.367 C207.916,206.348 207.82,206.335 207.732,206.328 C207.645,206.322 207.549,206.318 207.444,206.318 C206.559,206.318 205.879,206.603 205.403,207.173 C204.928,207.743 204.69,208.398 204.69,209.141 L204.69,215.156 L202.933,215.156 L202.933,204.697 M209.589,204.697 L211.259,204.697 L211.259,206.504 C211.396,206.152 211.731,205.724 212.265,205.22 C212.799,204.715 213.414,204.463 214.11,204.463 C214.143,204.463 214.198,204.466 214.276,204.473 C214.354,204.479 214.488,204.492 214.677,204.512 L214.677,206.367 C214.573,206.348 214.477,206.335 214.389,206.328 C214.301,206.322 214.205,206.318 214.101,206.318 C213.215,206.318 212.535,206.603 212.06,207.173 C211.584,207.743 211.347,208.398 211.347,209.141 L211.347,215.156 L209.589,215.156 L209.589,204.697 M222.71,204.985 C223.407,205.334 223.937,205.785 224.302,206.338 C224.653,206.865 224.888,207.48 225.005,208.184 C225.109,208.665 225.161,209.434 225.161,210.488 L217.495,210.488 C217.528,211.549 217.778,212.401 218.247,213.042 C218.716,213.683 219.442,214.004 220.425,214.004 C221.343,214.004 222.075,213.701 222.622,213.096 C222.935,212.744 223.156,212.337 223.286,211.875 L225.015,211.875 C224.969,212.259 224.818,212.687 224.561,213.159 C224.303,213.631 224.015,214.017 223.696,214.316 C223.162,214.837 222.502,215.189 221.714,215.371 C221.291,215.475 220.812,215.527 220.278,215.527 C218.976,215.527 217.873,215.054 216.968,214.106 C216.063,213.159 215.61,211.833 215.61,210.127 C215.61,208.447 216.066,207.083 216.978,206.035 C217.889,204.987 219.08,204.463 220.552,204.463 C221.294,204.463 222.013,204.637 222.71,204.985 M223.354,209.092 C223.283,208.33 223.117,207.721 222.856,207.266 C222.375,206.419 221.571,205.996 220.444,205.996 C219.637,205.996 218.96,206.287 218.413,206.87 C217.866,207.453 217.576,208.193 217.544,209.092 L223.354,209.092 M227.306,204.697 L228.976,204.697 L228.976,206.182 C229.47,205.57 229.994,205.13 230.548,204.863 C231.101,204.596 231.716,204.463 232.394,204.463 C233.878,204.463 234.881,204.98 235.401,206.016 C235.688,206.582 235.831,207.393 235.831,208.447 L235.831,215.156 L234.044,215.156 L234.044,208.564 C234.044,207.926 233.95,207.412 233.761,207.021 C233.448,206.37 232.882,206.045 232.062,206.045 C231.645,206.045 231.303,206.087 231.036,206.172 C230.554,206.315 230.131,206.602 229.767,207.031 C229.474,207.376 229.283,207.733 229.195,208.101 C229.107,208.468 229.063,208.994 229.063,209.678 L229.063,215.156 L227.306,215.156 L227.306,204.697 M238.767,201.777 L240.544,201.777 L240.544,204.697 L242.214,204.697 L242.214,206.133 L240.544,206.133 L240.544,212.959 C240.544,213.324 240.668,213.568 240.915,213.691 C241.052,213.763 241.28,213.799 241.599,213.799 C241.683,213.799 241.774,213.797 241.872,213.794 C241.97,213.791 242.084,213.783 242.214,213.77 L242.214,215.156 C242.012,215.215 241.802,215.257 241.584,215.283 C241.366,215.309 241.13,215.322 240.876,215.322 C240.056,215.322 239.499,215.112 239.206,214.692 C238.913,214.272 238.767,213.727 238.767,213.057 L238.767,206.133 L237.351,206.133 L237.351,204.697 L238.767,204.697 L238.767,201.777 M244.011,200.811 L245.769,200.811 L245.769,215.156 L244.011,215.156 L244.011,200.811 M254.933,204.697 L256.876,204.697 C256.629,205.368 256.078,206.898 255.226,209.287 C254.588,211.084 254.054,212.549 253.624,213.682 C252.608,216.351 251.892,217.979 251.476,218.564 C251.059,219.15 250.343,219.443 249.327,219.443 C249.08,219.443 248.889,219.434 248.756,219.414 C248.622,219.395 248.458,219.359 248.263,219.307 L248.263,217.705 C248.569,217.79 248.79,217.842 248.927,217.861 C249.063,217.881 249.184,217.891 249.288,217.891 C249.614,217.891 249.853,217.837 250.006,217.729 C250.159,217.622 250.287,217.49 250.392,217.334 C250.424,217.282 250.541,217.015 250.743,216.533 C250.945,216.051 251.091,215.693 251.183,215.459 L247.315,204.697 L249.308,204.697 L252.11,213.213 L254.933,204.697 M265.851,213.574 C266.222,213.867 266.661,214.014 267.169,214.014 C267.787,214.014 268.386,213.87 268.966,213.584 C269.942,213.109 270.431,212.331 270.431,211.25 L270.431,209.834 C270.216,209.971 269.939,210.085 269.601,210.176 C269.262,210.267 268.93,210.332 268.604,210.371 L267.54,210.508 C266.902,210.592 266.423,210.726 266.104,210.908 C265.564,211.214 265.294,211.702 265.294,212.373 C265.294,212.881 265.479,213.281 265.851,213.574 M269.552,208.818 C269.955,208.766 270.226,208.597 270.362,208.311 C270.44,208.154 270.479,207.93 270.479,207.637 C270.479,207.038 270.266,206.603 269.84,206.333 C269.413,206.063 268.803,205.928 268.009,205.928 C267.091,205.928 266.44,206.175 266.056,206.67 C265.841,206.943 265.701,207.35 265.636,207.891 L263.995,207.891 C264.028,206.602 264.446,205.705 265.25,205.2 C266.054,204.696 266.987,204.443 268.048,204.443 C269.278,204.443 270.278,204.678 271.046,205.146 C271.808,205.615 272.188,206.344 272.188,207.334 L272.188,213.359 C272.188,213.542 272.226,213.688 272.301,213.799 C272.376,213.91 272.534,213.965 272.774,213.965 C272.853,213.965 272.94,213.96 273.038,213.95 C273.136,213.94 273.24,213.926 273.351,213.906 L273.351,215.205 C273.077,215.283 272.869,215.332 272.726,215.352 C272.582,215.371 272.387,215.381 272.14,215.381 C271.534,215.381 271.095,215.166 270.821,214.736 C270.678,214.508 270.577,214.186 270.519,213.77 C270.16,214.238 269.646,214.645 268.976,214.99 C268.305,215.335 267.566,215.508 266.759,215.508 C265.789,215.508 264.996,215.213 264.381,214.624 C263.766,214.035 263.458,213.298 263.458,212.412 C263.458,211.442 263.761,210.69 264.366,210.156 C264.972,209.622 265.766,209.294 266.749,209.17 L269.552,208.818 M275.407,201.777 L277.185,201.777 L277.185,204.697 L278.854,204.697 L278.854,206.133 L277.185,206.133 L277.185,212.959 C277.185,213.324 277.308,213.568 277.556,213.691 C277.692,213.763 277.92,213.799 278.239,213.799 C278.324,213.799 278.415,213.797 278.513,213.794 C278.61,213.791 278.724,213.783 278.854,213.77 L278.854,215.156 C278.653,215.215 278.443,215.257 278.225,215.283 C278.007,215.309 277.771,215.322 277.517,215.322 C276.696,215.322 276.14,215.112 275.847,214.692 C275.554,214.272 275.407,213.727 275.407,213.057 L275.407,206.133 L273.991,206.133 L273.991,204.697 L275.407,204.697 L275.407,201.777 M286.501,201.777 L288.278,201.777 L288.278,204.697 L289.948,204.697 L289.948,206.133 L288.278,206.133 L288.278,212.959 C288.278,213.324 288.402,213.568 288.649,213.691 C288.786,213.763 289.014,213.799 289.333,213.799 C289.418,213.799 289.509,213.797 289.606,213.794 C289.704,213.791 289.818,213.783 289.948,213.77 L289.948,215.156 C289.746,215.215 289.536,215.257 289.318,215.283 C289.1,215.309 288.864,215.322 288.61,215.322 C287.79,215.322 287.233,215.112 286.94,214.692 C286.647,214.272 286.501,213.727 286.501,213.057 L286.501,206.133 L285.085,206.133 L285.085,204.697 L286.501,204.697 L286.501,201.777 M291.696,200.762 L293.454,200.762 L293.454,206.113 C293.871,205.586 294.245,205.215 294.577,205 C295.144,204.629 295.85,204.443 296.696,204.443 C298.213,204.443 299.242,204.974 299.782,206.035 C300.075,206.615 300.222,207.419 300.222,208.447 L300.222,215.156 L298.415,215.156 L298.415,208.564 C298.415,207.796 298.317,207.233 298.122,206.875 C297.803,206.302 297.204,206.016 296.325,206.016 C295.596,206.016 294.935,206.266 294.343,206.768 C293.75,207.269 293.454,208.216 293.454,209.609 L293.454,215.156 L291.696,215.156 L291.696,200.762 M309.319,204.985 C310.016,205.334 310.547,205.785 310.911,206.338 C311.263,206.865 311.497,207.48 311.614,208.184 C311.718,208.665 311.771,209.434 311.771,210.488 L304.104,210.488 C304.137,211.549 304.388,212.401 304.856,213.042 C305.325,213.683 306.051,214.004 307.034,214.004 C307.952,214.004 308.685,213.701 309.231,213.096 C309.544,212.744 309.765,212.337 309.896,211.875 L311.624,211.875 C311.578,212.259 311.427,212.687 311.17,213.159 C310.913,213.631 310.625,214.017 310.306,214.316 C309.772,214.837 309.111,215.189 308.323,215.371 C307.9,215.475 307.422,215.527 306.888,215.527 C305.586,215.527 304.482,215.054 303.577,214.106 C302.672,213.159 302.22,211.833 302.22,210.127 C302.22,208.447 302.675,207.083 303.587,206.035 C304.498,204.987 305.69,204.463 307.161,204.463 C307.903,204.463 308.623,204.637 309.319,204.985 M309.964,209.092 C309.892,208.33 309.726,207.721 309.466,207.266 C308.984,206.419 308.18,205.996 307.054,205.996 C306.246,205.996 305.569,206.287 305.022,206.87 C304.476,207.453 304.186,208.193 304.153,209.092 L309.964,209.092 M46.0938,232.944 C46.6374,232.257 46.9092,231.23 46.9092,229.863 C46.9092,229.03 46.7887,228.314 46.5479,227.715 C46.0921,226.562 45.2588,225.986 44.0479,225.986 C42.8304,225.986 41.9971,226.595 41.5479,227.812 C41.307,228.464 41.1865,229.29 41.1865,230.293 C41.1865,231.1 41.307,231.787 41.5479,232.354 C42.0036,233.434 42.8369,233.975 44.0479,233.975 C44.8682,233.975 45.5501,233.631 46.0938,232.944 M39.4971,224.746 L41.2061,224.746 L41.2061,226.133 C41.5576,225.658 41.9417,225.29 42.3584,225.029 C42.9509,224.639 43.6475,224.443 44.4482,224.443 C45.6331,224.443 46.639,224.897 47.4658,225.806 C48.2926,226.714 48.7061,228.011 48.7061,229.697 C48.7061,231.976 48.1104,233.604 46.9189,234.58 C46.1637,235.199 45.2848,235.508 44.2822,235.508 C43.4945,235.508 42.8337,235.335 42.2998,234.99 C41.9873,234.795 41.639,234.46 41.2549,233.984 L41.2549,239.326 L39.4971,239.326 L39.4971,224.746 M50.792,224.697 L52.4619,224.697 L52.4619,226.504 C52.5986,226.152 52.9339,225.724 53.4678,225.22 C54.0016,224.715 54.6169,224.463 55.3135,224.463 C55.346,224.463 55.4014,224.466 55.4795,224.473 C55.5576,224.479 55.6911,224.492 55.8799,224.512 L55.8799,226.367 C55.7757,226.348 55.6797,226.335 55.5918,226.328 C55.5039,226.322 55.4079,226.318 55.3037,226.318 C54.4183,226.318 53.738,226.603 53.2627,227.173 C52.7874,227.743 52.5498,228.398 52.5498,229.141 L52.5498,235.156 L50.792,235.156 L50.792,224.697 M63.9473,232.7 C64.3802,231.818 64.5967,230.837 64.5967,229.756 C64.5967,228.779 64.4404,227.985 64.1279,227.373 C63.6331,226.41 62.7803,225.928 61.5693,225.928 C60.4951,225.928 59.7139,226.338 59.2256,227.158 C58.7373,227.979 58.4932,228.968 58.4932,230.127 C58.4932,231.24 58.7373,232.168 59.2256,232.91 C59.7139,233.652 60.4886,234.023 61.5498,234.023 C62.7152,234.023 63.5143,233.582 63.9473,232.7 M65.0361,225.742 C65.9671,226.641 66.4326,227.962 66.4326,229.707 C66.4326,231.393 66.0225,232.786 65.2021,233.887 C64.3818,234.987 63.1091,235.537 61.3838,235.537 C59.945,235.537 58.8024,235.05 57.9561,234.077 C57.1097,233.104 56.6865,231.797 56.6865,230.156 C56.6865,228.398 57.1325,226.999 58.0244,225.957 C58.9163,224.915 60.1143,224.395 61.6182,224.395 C62.9658,224.395 64.1051,224.844 65.0361,225.742 M68.8604,221.777 L70.6377,221.777 L70.6377,224.697 L72.3076,224.697 L72.3076,226.133 L70.6377,226.133 L70.6377,232.959 C70.6377,233.324 70.7614,233.568 71.0088,233.691 C71.1455,233.763 71.3734,233.799 71.6924,233.799 C71.777,233.799 71.8682,233.797 71.9658,233.794 C72.0635,233.791 72.1774,233.783 72.3076,233.77 L72.3076,235.156 C72.1058,235.215 71.8958,235.257 71.6777,235.283 C71.4596,235.309 71.2236,235.322 70.9697,235.322 C70.1494,235.322 69.5928,235.112 69.2998,234.692 C69.0068,234.272 68.8604,233.727 68.8604,233.057 L68.8604,226.133 L67.4443,226.133 L67.4443,224.697 L68.8604,224.697 L68.8604,221.777 M80.6035,232.7 C81.0365,231.818 81.2529,230.837 81.2529,229.756 C81.2529,228.779 81.0967,227.985 80.7842,227.373 C80.2894,226.41 79.4365,225.928 78.2256,225.928 C77.1514,225.928 76.3701,226.338 75.8818,227.158 C75.3936,227.979 75.1494,228.968 75.1494,230.127 C75.1494,231.24 75.3936,232.168 75.8818,232.91 C76.3701,233.652 77.1449,234.023 78.2061,234.023 C79.3714,234.023 80.1706,233.582 80.6035,232.7 M81.6924,225.742 C82.6234,226.641 83.0889,227.962 83.0889,229.707 C83.0889,231.393 82.6787,232.786 81.8584,233.887 C81.0381,234.987 79.7653,235.537 78.04,235.537 C76.6012,235.537 75.4587,235.05 74.6123,234.077 C73.7659,233.104 73.3428,231.797 73.3428,230.156 C73.3428,228.398 73.7887,226.999 74.6807,225.957 C75.5726,224.915 76.7705,224.395 78.2744,224.395 C79.6221,224.395 80.7614,224.844 81.6924,225.742 M85.5166,221.777 L87.2939,221.777 L87.2939,224.697 L88.9639,224.697 L88.9639,226.133 L87.2939,226.133 L87.2939,232.959 C87.2939,233.324 87.4176,233.568 87.665,233.691 C87.8018,233.763 88.0296,233.799 88.3486,233.799 C88.4333,233.799 88.5244,233.797 88.6221,233.794 C88.7197,233.791 88.8337,233.783 88.9639,233.77 L88.9639,235.156 C88.762,235.215 88.5521,235.257 88.334,235.283 C88.1159,235.309 87.8799,235.322 87.626,235.322 C86.8057,235.322 86.249,235.112 85.9561,234.692 C85.6631,234.272 85.5166,233.727 85.5166,233.057 L85.5166,226.133 L84.1006,226.133 L84.1006,224.697 L85.5166,224.697 L85.5166,221.777 M97.2451,224.697 L99.1885,224.697 C98.9411,225.368 98.391,226.898 97.5381,229.287 C96.9001,231.084 96.3662,232.549 95.9365,233.682 C94.9209,236.351 94.2048,237.979 93.7881,238.564 C93.3714,239.15 92.6553,239.443 91.6396,239.443 C91.3923,239.443 91.2018,239.434 91.0684,239.414 C90.9349,239.395 90.7705,239.359 90.5752,239.307 L90.5752,237.705 C90.8812,237.79 91.1025,237.842 91.2393,237.861 C91.376,237.881 91.4964,237.891 91.6006,237.891 C91.9261,237.891 92.1654,237.837 92.3184,237.729 C92.4714,237.622 92.5999,237.49 92.7041,237.334 C92.7367,237.282 92.8538,237.015 93.0557,236.533 C93.2575,236.051 93.404,235.693 93.4951,235.459 L89.6279,224.697 L91.6201,224.697 L94.4229,233.213 L97.2451,224.697 M107.172,232.944 C107.715,232.257 107.987,231.23 107.987,229.863 C107.987,229.03 107.867,228.314 107.626,227.715 C107.17,226.562 106.337,225.986 105.126,225.986 C103.909,225.986 103.075,226.595 102.626,227.812 C102.385,228.464 102.265,229.29 102.265,230.293 C102.265,231.1 102.385,231.787 102.626,232.354 C103.082,233.434 103.915,233.975 105.126,233.975 C105.946,233.975 106.628,233.631 107.172,232.944 M100.575,224.746 L102.284,224.746 L102.284,226.133 C102.636,225.658 103.02,225.29 103.437,225.029 C104.029,224.639 104.726,224.443 105.526,224.443 C106.711,224.443 107.717,224.897 108.544,225.806 C109.371,226.714 109.784,228.011 109.784,229.697 C109.784,231.976 109.188,233.604 107.997,234.58 C107.242,235.199 106.363,235.508 105.36,235.508 C104.573,235.508 103.912,235.335 103.378,234.99 C103.065,234.795 102.717,234.46 102.333,233.984 L102.333,239.326 L100.575,239.326 L100.575,224.746 M111.821,224.746 L113.608,224.746 L113.608,235.156 L111.821,235.156 L111.821,224.746 M111.821,220.811 L113.608,220.811 L113.608,222.803 L111.821,222.803 L111.821,220.811 M116.259,224.697 L117.929,224.697 L117.929,226.182 C118.424,225.57 118.948,225.13 119.501,224.863 C120.054,224.596 120.67,224.463 121.347,224.463 C122.831,224.463 123.834,224.98 124.354,226.016 C124.641,226.582 124.784,227.393 124.784,228.447 L124.784,235.156 L122.997,235.156 L122.997,228.564 C122.997,227.926 122.903,227.412 122.714,227.021 C122.401,226.37 121.835,226.045 121.015,226.045 C120.598,226.045 120.256,226.087 119.989,226.172 C119.507,226.315 119.084,226.602 118.72,227.031 C118.427,227.376 118.236,227.733 118.148,228.101 C118.061,228.468 118.017,228.994 118.017,229.678 L118.017,235.156 L116.259,235.156 L116.259,224.697 M133.208,225.117 C133.54,225.345 133.879,225.677 134.224,226.113 L134.224,224.795 L135.845,224.795 L135.845,234.307 C135.845,235.635 135.649,236.683 135.259,237.451 C134.53,238.87 133.153,239.58 131.128,239.58 C130.002,239.58 129.054,239.328 128.286,238.823 C127.518,238.319 127.088,237.529 126.997,236.455 L128.784,236.455 C128.869,236.924 129.038,237.285 129.292,237.539 C129.689,237.93 130.314,238.125 131.167,238.125 C132.515,238.125 133.397,237.65 133.813,236.699 C134.061,236.139 134.175,235.14 134.155,233.701 C133.804,234.235 133.381,234.632 132.886,234.893 C132.391,235.153 131.737,235.283 130.923,235.283 C129.79,235.283 128.799,234.881 127.949,234.077 C127.1,233.273 126.675,231.943 126.675,230.088 C126.675,228.337 127.103,226.969 127.959,225.986 C128.815,225.003 129.849,224.512 131.06,224.512 C131.88,224.512 132.596,224.714 133.208,225.117 M133.423,227.002 C132.889,226.377 132.209,226.064 131.382,226.064 C130.145,226.064 129.298,226.644 128.843,227.803 C128.602,228.421 128.481,229.232 128.481,230.234 C128.481,231.413 128.721,232.31 129.199,232.925 C129.678,233.54 130.321,233.848 131.128,233.848 C132.391,233.848 133.28,233.278 133.794,232.139 C134.08,231.494 134.224,230.742 134.224,229.883 C134.224,228.587 133.957,227.627 133.423,227.002 M145.069,231.875 C145.121,232.461 145.268,232.91 145.509,233.223 C145.951,233.789 146.72,234.072 147.813,234.072 C148.465,234.072 149.037,233.931 149.532,233.647 C150.027,233.364 150.274,232.926 150.274,232.334 C150.274,231.885 150.076,231.543 149.679,231.309 C149.425,231.165 148.924,230.999 148.175,230.811 L146.778,230.459 C145.886,230.238 145.229,229.99 144.806,229.717 C144.05,229.242 143.673,228.584 143.673,227.744 C143.673,226.755 144.029,225.954 144.742,225.342 C145.455,224.73 146.414,224.424 147.618,224.424 C149.194,224.424 150.33,224.886 151.026,225.811 C151.463,226.396 151.674,227.028 151.661,227.705 L150.001,227.705 C149.968,227.308 149.828,226.947 149.581,226.621 C149.177,226.159 148.478,225.928 147.481,225.928 C146.817,225.928 146.314,226.055 145.973,226.309 C145.631,226.562 145.46,226.898 145.46,227.314 C145.46,227.77 145.685,228.135 146.134,228.408 C146.394,228.571 146.778,228.714 147.286,228.838 L148.448,229.121 C149.711,229.427 150.558,229.723 150.987,230.01 C151.671,230.459 152.013,231.165 152.013,232.129 C152.013,233.06 151.66,233.864 150.953,234.541 C150.247,235.218 149.171,235.557 147.726,235.557 C146.17,235.557 145.068,235.203 144.42,234.497 C143.772,233.791 143.425,232.917 143.38,231.875 L145.069,231.875 M154.376,221.777 L156.153,221.777 L156.153,224.697 L157.823,224.697 L157.823,226.133 L156.153,226.133 L156.153,232.959 C156.153,233.324 156.277,233.568 156.524,233.691 C156.661,233.763 156.889,233.799 157.208,233.799 C157.293,233.799 157.384,233.797 157.481,233.794 C157.579,233.791 157.693,233.783 157.823,233.77 L157.823,235.156 C157.621,235.215 157.411,235.257 157.193,235.283 C156.975,235.309 156.739,235.322 156.485,235.322 C155.665,235.322 155.108,235.112 154.815,234.692 C154.522,234.272 154.376,233.727 154.376,233.057 L154.376,226.133 L152.96,226.133 L152.96,224.697 L154.376,224.697 L154.376,221.777 M161.476,233.574 C161.847,233.867 162.286,234.014 162.794,234.014 C163.412,234.014 164.011,233.87 164.591,233.584 C165.567,233.109 166.056,232.331 166.056,231.25 L166.056,229.834 C165.841,229.971 165.564,230.085 165.226,230.176 C164.887,230.267 164.555,230.332 164.229,230.371 L163.165,230.508 C162.527,230.592 162.049,230.726 161.729,230.908 C161.189,231.214 160.919,231.702 160.919,232.373 C160.919,232.881 161.104,233.281 161.476,233.574 M165.177,228.818 C165.58,228.766 165.851,228.597 165.987,228.311 C166.065,228.154 166.104,227.93 166.104,227.637 C166.104,227.038 165.891,226.603 165.465,226.333 C165.038,226.063 164.428,225.928 163.634,225.928 C162.716,225.928 162.065,226.175 161.681,226.67 C161.466,226.943 161.326,227.35 161.261,227.891 L159.62,227.891 C159.653,226.602 160.071,225.705 160.875,225.2 C161.679,224.696 162.612,224.443 163.673,224.443 C164.903,224.443 165.903,224.678 166.671,225.146 C167.433,225.615 167.813,226.344 167.813,227.334 L167.813,233.359 C167.813,233.542 167.851,233.688 167.926,233.799 C168.001,233.91 168.159,233.965 168.399,233.965 C168.478,233.965 168.565,233.96 168.663,233.95 C168.761,233.94 168.865,233.926 168.976,233.906 L168.976,235.205 C168.702,235.283 168.494,235.332 168.351,235.352 C168.207,235.371 168.012,235.381 167.765,235.381 C167.159,235.381 166.72,235.166 166.446,234.736 C166.303,234.508 166.202,234.186 166.144,233.77 C165.785,234.238 165.271,234.645 164.601,234.99 C163.93,235.335 163.191,235.508 162.384,235.508 C161.414,235.508 160.621,235.213 160.006,234.624 C159.391,234.035 159.083,233.298 159.083,232.412 C159.083,231.442 159.386,230.69 159.991,230.156 C160.597,229.622 161.391,229.294 162.374,229.17 L165.177,228.818 M176.521,225.117 C176.853,225.345 177.191,225.677 177.536,226.113 L177.536,224.795 L179.157,224.795 L179.157,234.307 C179.157,235.635 178.962,236.683 178.571,237.451 C177.842,238.87 176.465,239.58 174.44,239.58 C173.314,239.58 172.367,239.328 171.599,238.823 C170.83,238.319 170.401,237.529 170.31,236.455 L172.097,236.455 C172.181,236.924 172.351,237.285 172.604,237.539 C173.002,237.93 173.627,238.125 174.479,238.125 C175.827,238.125 176.709,237.65 177.126,236.699 C177.373,236.139 177.487,235.14 177.468,233.701 C177.116,234.235 176.693,234.632 176.198,234.893 C175.703,235.153 175.049,235.283 174.235,235.283 C173.103,235.283 172.111,234.881 171.262,234.077 C170.412,233.273 169.987,231.943 169.987,230.088 C169.987,228.337 170.415,226.969 171.271,225.986 C172.128,225.003 173.161,224.512 174.372,224.512 C175.192,224.512 175.909,224.714 176.521,225.117 M176.735,227.002 C176.201,226.377 175.521,226.064 174.694,226.064 C173.457,226.064 172.611,226.644 172.155,227.803 C171.914,228.421 171.794,229.232 171.794,230.234 C171.794,231.413 172.033,232.31 172.512,232.925 C172.99,233.54 173.633,233.848 174.44,233.848 C175.703,233.848 176.592,233.278 177.106,232.139 C177.393,231.494 177.536,230.742 177.536,229.883 C177.536,228.587 177.269,227.627 176.735,227.002 M188.304,224.985 C189,225.334 189.531,225.785 189.896,226.338 C190.247,226.865 190.481,227.48 190.599,228.184 C190.703,228.665 190.755,229.434 190.755,230.488 L183.089,230.488 C183.121,231.549 183.372,232.401 183.841,233.042 C184.31,233.683 185.035,234.004 186.019,234.004 C186.937,234.004 187.669,233.701 188.216,233.096 C188.528,232.744 188.75,232.337 188.88,231.875 L190.608,231.875 C190.563,232.259 190.411,232.687 190.154,233.159 C189.897,233.631 189.609,234.017 189.29,234.316 C188.756,234.837 188.095,235.189 187.308,235.371 C186.884,235.475 186.406,235.527 185.872,235.527 C184.57,235.527 183.466,235.054 182.562,234.106 C181.657,233.159 181.204,231.833 181.204,230.127 C181.204,228.447 181.66,227.083 182.571,226.035 C183.483,224.987 184.674,224.463 186.146,224.463 C186.888,224.463 187.607,224.637 188.304,224.985 M188.948,229.092 C188.877,228.33 188.711,227.721 188.45,227.266 C187.968,226.419 187.164,225.996 186.038,225.996 C185.231,225.996 184.554,226.287 184.007,226.87 C183.46,227.453 183.17,228.193 183.138,229.092 L188.948,229.092 M193.271,237.197 C193.72,237.119 194.035,236.803 194.218,236.25 C194.315,235.957 194.364,235.674 194.364,235.4 C194.364,235.355 194.363,235.314 194.359,235.278 C194.356,235.243 194.348,235.202 194.335,235.156 L193.271,235.156 L193.271,233.027 L195.36,233.027 L195.36,235 C195.36,235.775 195.204,236.455 194.892,237.041 C194.579,237.627 194.039,237.988 193.271,238.125 L193.271,237.197 M204.345,221.777 L206.122,221.777 L206.122,224.697 L207.792,224.697 L207.792,226.133 L206.122,226.133 L206.122,232.959 C206.122,233.324 206.246,233.568 206.493,233.691 C206.63,233.763 206.858,233.799 207.177,233.799 C207.261,233.799 207.353,233.797 207.45,233.794 C207.548,233.791 207.662,233.783 207.792,233.77 L207.792,235.156 C207.59,235.215 207.38,235.257 207.162,235.283 C206.944,235.309 206.708,235.322 206.454,235.322 C205.634,235.322 205.077,235.112 204.784,234.692 C204.491,234.272 204.345,233.727 204.345,233.057 L204.345,226.133 L202.929,226.133 L202.929,224.697 L204.345,224.697 L204.345,221.777 M209.54,220.762 L211.298,220.762 L211.298,226.113 C211.715,225.586 212.089,225.215 212.421,225 C212.987,224.629 213.694,224.443 214.54,224.443 C216.057,224.443 217.086,224.974 217.626,226.035 C217.919,226.615 218.065,227.419 218.065,228.447 L218.065,235.156 L216.259,235.156 L216.259,228.564 C216.259,227.796 216.161,227.233 215.966,226.875 C215.647,226.302 215.048,226.016 214.169,226.016 C213.44,226.016 212.779,226.266 212.187,226.768 C211.594,227.269 211.298,228.216 211.298,229.609 L211.298,235.156 L209.54,235.156 L209.54,220.762 M220.649,224.746 L222.437,224.746 L222.437,235.156 L220.649,235.156 L220.649,224.746 M220.649,220.811 L222.437,220.811 L222.437,222.803 L220.649,222.803 L220.649,220.811 M226.132,231.875 C226.184,232.461 226.33,232.91 226.571,233.223 C227.014,233.789 227.782,234.072 228.876,234.072 C229.527,234.072 230.1,233.931 230.595,233.647 C231.09,233.364 231.337,232.926 231.337,232.334 C231.337,231.885 231.138,231.543 230.741,231.309 C230.487,231.165 229.986,230.999 229.237,230.811 L227.841,230.459 C226.949,230.238 226.291,229.99 225.868,229.717 C225.113,229.242 224.735,228.584 224.735,227.744 C224.735,226.755 225.092,225.954 225.805,225.342 C226.518,224.73 227.476,224.424 228.681,224.424 C230.256,224.424 231.392,224.886 232.089,225.811 C232.525,226.396 232.737,227.028 232.724,227.705 L231.063,227.705 C231.031,227.308 230.891,226.947 230.644,226.621 C230.24,226.159 229.54,225.928 228.544,225.928 C227.88,225.928 227.377,226.055 227.035,226.309 C226.693,226.562 226.522,226.898 226.522,227.314 C226.522,227.77 226.747,228.135 227.196,228.408 C227.457,228.571 227.841,228.714 228.349,228.838 L229.511,229.121 C230.774,229.427 231.62,229.723 232.05,230.01 C232.733,230.459 233.075,231.165 233.075,232.129 C233.075,233.06 232.722,233.864 232.016,234.541 C231.309,235.218 230.233,235.557 228.788,235.557 C227.232,235.557 226.13,235.203 225.482,234.497 C224.835,233.791 224.488,232.917 224.442,231.875 L226.132,231.875 M240.634,224.746 L242.421,224.746 L242.421,235.156 L240.634,235.156 L240.634,224.746 M240.634,220.811 L242.421,220.811 L242.421,222.803 L240.634,222.803 L240.634,220.811 M246.116,231.875 C246.168,232.461 246.315,232.91 246.556,233.223 C246.998,233.789 247.767,234.072 248.86,234.072 C249.511,234.072 250.084,233.931 250.579,233.647 C251.074,233.364 251.321,232.926 251.321,232.334 C251.321,231.885 251.123,231.543 250.726,231.309 C250.472,231.165 249.97,230.999 249.222,230.811 L247.825,230.459 C246.933,230.238 246.276,229.99 245.853,229.717 C245.097,229.242 244.72,228.584 244.72,227.744 C244.72,226.755 245.076,225.954 245.789,225.342 C246.502,224.73 247.461,224.424 248.665,224.424 C250.241,224.424 251.377,224.886 252.073,225.811 C252.509,226.396 252.721,227.028 252.708,227.705 L251.048,227.705 C251.015,227.308 250.875,226.947 250.628,226.621 C250.224,226.159 249.524,225.928 248.528,225.928 C247.864,225.928 247.361,226.055 247.02,226.309 C246.678,226.562 246.507,226.898 246.507,227.314 C246.507,227.77 246.731,228.135 247.181,228.408 C247.441,228.571 247.825,228.714 248.333,228.838 L249.495,229.121 C250.758,229.427 251.604,229.723 252.034,230.01 C252.718,230.459 253.06,231.165 253.06,232.129 C253.06,233.06 252.706,233.864 252,234.541 C251.294,235.218 250.218,235.557 248.772,235.557 C247.216,235.557 246.115,235.203 245.467,234.497 C244.819,233.791 244.472,232.917 244.427,231.875 L246.116,231.875 M262.522,233.574 C262.894,233.867 263.333,234.014 263.841,234.014 C264.459,234.014 265.058,233.87 265.638,233.584 C266.614,233.109 267.103,232.331 267.103,231.25 L267.103,229.834 C266.888,229.971 266.611,230.085 266.272,230.176 C265.934,230.267 265.602,230.332 265.276,230.371 L264.212,230.508 C263.574,230.592 263.095,230.726 262.776,230.908 C262.236,231.214 261.966,231.702 261.966,232.373 C261.966,232.881 262.151,233.281 262.522,233.574 M266.224,228.818 C266.627,228.766 266.897,228.597 267.034,228.311 C267.112,228.154 267.151,227.93 267.151,227.637 C267.151,227.038 266.938,226.603 266.512,226.333 C266.085,226.063 265.475,225.928 264.681,225.928 C263.763,225.928 263.112,226.175 262.728,226.67 C262.513,226.943 262.373,227.35 262.308,227.891 L260.667,227.891 C260.7,226.602 261.118,225.705 261.922,225.2 C262.726,224.696 263.659,224.443 264.72,224.443 C265.95,224.443 266.95,224.678 267.718,225.146 C268.479,225.615 268.86,226.344 268.86,227.334 L268.86,233.359 C268.86,233.542 268.898,233.688 268.973,233.799 C269.048,233.91 269.205,233.965 269.446,233.965 C269.524,233.965 269.612,233.96 269.71,233.95 C269.808,233.94 269.912,233.926 270.022,233.906 L270.022,235.205 C269.749,235.283 269.541,235.332 269.397,235.352 C269.254,235.371 269.059,235.381 268.812,235.381 C268.206,235.381 267.767,235.166 267.493,234.736 C267.35,234.508 267.249,234.186 267.19,233.77 C266.832,234.238 266.318,234.645 265.647,234.99 C264.977,235.335 264.238,235.508 263.431,235.508 C262.461,235.508 261.668,235.213 261.053,234.624 C260.438,234.035 260.13,233.298 260.13,232.412 C260.13,231.442 260.433,230.69 261.038,230.156 C261.644,229.622 262.438,229.294 263.421,229.17 L266.224,228.818 M271.776,220.811 L273.534,220.811 L273.534,235.156 L271.776,235.156 L271.776,220.811 M276.214,220.811 L277.972,220.811 L277.972,235.156 L276.214,235.156 L276.214,220.811 M286.96,224.697 L288.972,232.939 L291.013,224.697 L292.985,224.697 L295.036,232.891 L297.175,224.697 L298.933,224.697 L295.896,235.156 L294.069,235.156 L291.94,227.061 L289.88,235.156 L288.054,235.156 L285.036,224.697 L286.96,224.697 M307.101,224.985 C307.797,225.334 308.328,225.785 308.692,226.338 C309.044,226.865 309.278,227.48 309.396,228.184 C309.5,228.665 309.552,229.434 309.552,230.488 L301.886,230.488 C301.918,231.549 302.169,232.401 302.638,233.042 C303.106,233.683 303.832,234.004 304.815,234.004 C305.733,234.004 306.466,233.701 307.013,233.096 C307.325,232.744 307.547,232.337 307.677,231.875 L309.405,231.875 C309.36,232.259 309.208,232.687 308.951,233.159 C308.694,233.631 308.406,234.017 308.087,234.316 C307.553,234.837 306.892,235.189 306.104,235.371 C305.681,235.475 305.203,235.527 304.669,235.527 C303.367,235.527 302.263,235.054 301.358,234.106 C300.453,233.159 300.001,231.833 300.001,230.127 C300.001,228.447 300.457,227.083 301.368,226.035 C302.28,224.987 303.471,224.463 304.942,224.463 C305.685,224.463 306.404,224.637 307.101,224.985 M307.745,229.092 C307.673,228.33 307.507,227.721 307.247,227.266 C306.765,226.419 305.961,225.996 304.835,225.996 C304.028,225.996 303.351,226.287 302.804,226.87 C302.257,227.453 301.967,228.193 301.935,229.092 L307.745,229.092 M312.067,224.98 C312.425,224.922 312.697,224.72 312.883,224.375 C313.068,224.03 313.161,223.633 313.161,223.184 C313.161,223.138 313.16,223.097 313.156,223.062 C313.153,223.026 313.145,222.985 313.132,222.939 L312.067,222.939 L312.067,220.811 L314.157,220.811 L314.157,222.773 C314.157,223.607 313.985,224.315 313.64,224.897 C313.295,225.48 312.771,225.814 312.067,225.898 L312.067,224.98 M316.993,224.697 L319.786,233.213 L322.706,224.697 L324.63,224.697 L320.685,235.156 L318.81,235.156 L314.952,224.697 L316.993,224.697 M332.647,224.985 C333.344,225.334 333.875,225.785 334.239,226.338 C334.591,226.865 334.825,227.48 334.942,228.184 C335.047,228.665 335.099,229.434 335.099,230.488 L327.433,230.488 C327.465,231.549 327.716,232.401 328.185,233.042 C328.653,233.683 329.379,234.004 330.362,234.004 C331.28,234.004 332.013,233.701 332.56,233.096 C332.872,232.744 333.093,232.337 333.224,231.875 L334.952,231.875 C334.907,232.259 334.755,232.687 334.498,233.159 C334.241,233.631 333.953,234.017 333.634,234.316 C333.1,234.837 332.439,235.189 331.651,235.371 C331.228,235.475 330.75,235.527 330.216,235.527 C328.914,235.527 327.81,235.054 326.905,234.106 C326,233.159 325.548,231.833 325.548,230.127 C325.548,228.447 326.004,227.083 326.915,226.035 C327.827,224.987 329.018,224.463 330.489,224.463 C331.231,224.463 331.951,224.637 332.647,224.985 M333.292,229.092 C333.22,228.33 333.054,227.721 332.794,227.266 C332.312,226.419 331.508,225.996 330.382,225.996 C329.575,225.996 328.897,226.287 328.351,226.87 C327.804,227.453 327.514,228.193 327.481,229.092 L333.292,229.092 M45.4736,245.117 C45.8057,245.345 46.1442,245.677 46.4893,246.113 L46.4893,244.795 L48.1104,244.795 L48.1104,254.307 C48.1104,255.635 47.915,256.683 47.5244,257.451 C46.7952,258.87 45.4183,259.58 43.3936,259.58 C42.2673,259.58 41.32,259.328 40.5518,258.823 C39.7835,258.319 39.3538,257.529 39.2627,256.455 L41.0498,256.455 C41.1344,256.924 41.3037,257.285 41.5576,257.539 C41.9548,257.93 42.5798,258.125 43.4326,258.125 C44.7803,258.125 45.6624,257.65 46.0791,256.699 C46.3265,256.139 46.4404,255.14 46.4209,253.701 C46.0693,254.235 45.6462,254.632 45.1514,254.893 C44.6566,255.153 44.0023,255.283 43.1885,255.283 C42.0557,255.283 41.0645,254.881 40.2148,254.077 C39.3652,253.273 38.9404,251.943 38.9404,250.088 C38.9404,248.337 39.3685,246.969 40.2246,245.986 C41.0807,245.003 42.1143,244.512 43.3252,244.512 C44.1455,244.512 44.8616,244.714 45.4736,245.117 M45.6885,247.002 C45.1546,246.377 44.4743,246.064 43.6475,246.064 C42.4105,246.064 41.5641,246.644 41.1084,247.803 C40.8675,248.421 40.7471,249.232 40.7471,250.234 C40.7471,251.413 40.9863,252.31 41.4648,252.925 C41.9434,253.54 42.5863,253.848 43.3936,253.848 C44.6566,253.848 45.5452,253.278 46.0596,252.139 C46.346,251.494 46.4893,250.742 46.4893,249.883 C46.4893,248.587 46.2223,247.627 45.6885,247.002 M57.291,252.7 C57.724,251.818 57.9404,250.837 57.9404,249.756 C57.9404,248.779 57.7842,247.985 57.4717,247.373 C56.9769,246.41 56.124,245.928 54.9131,245.928 C53.8389,245.928 53.0576,246.338 52.5693,247.158 C52.0811,247.979 51.8369,248.968 51.8369,250.127 C51.8369,251.24 52.0811,252.168 52.5693,252.91 C53.0576,253.652 53.8324,254.023 54.8936,254.023 C56.0589,254.023 56.8581,253.582 57.291,252.7 M58.3799,245.742 C59.3109,246.641 59.7764,247.962 59.7764,249.707 C59.7764,251.393 59.3662,252.786 58.5459,253.887 C57.7256,254.987 56.4528,255.537 54.7275,255.537 C53.2887,255.537 52.1462,255.05 51.2998,254.077 C50.4534,253.104 50.0303,251.797 50.0303,250.156 C50.0303,248.398 50.4762,246.999 51.3682,245.957 C52.2601,244.915 53.458,244.395 54.9619,244.395 C56.3096,244.395 57.4489,244.844 58.3799,245.742 M62.2041,241.777 L63.9814,241.777 L63.9814,244.697 L65.6514,244.697 L65.6514,246.133 L63.9814,246.133 L63.9814,252.959 C63.9814,253.324 64.1051,253.568 64.3525,253.691 C64.4893,253.763 64.7171,253.799 65.0361,253.799 C65.1208,253.799 65.2119,253.797 65.3096,253.794 C65.4072,253.791 65.5212,253.783 65.6514,253.77 L65.6514,255.156 C65.4495,255.215 65.2396,255.257 65.0215,255.283 C64.8034,255.309 64.5674,255.322 64.3135,255.322 C63.4932,255.322 62.9365,255.112 62.6436,254.692 C62.3506,254.272 62.2041,253.727 62.2041,253.057 L62.2041,246.133 L60.7881,246.133 L60.7881,244.697 L62.2041,244.697 L62.2041,241.777 M73.7666,241.504 C74.1768,240.905 74.9678,240.605 76.1396,240.605 C76.2503,240.605 76.3643,240.609 76.4814,240.615 C76.5986,240.622 76.7321,240.632 76.8818,240.645 L76.8818,242.246 C76.6995,242.233 76.5677,242.225 76.4863,242.222 C76.4049,242.218 76.3285,242.217 76.2568,242.217 C75.723,242.217 75.404,242.355 75.2998,242.632 C75.1956,242.909 75.1436,243.613 75.1436,244.746 L76.8818,244.746 L76.8818,246.133 L75.124,246.133 L75.124,255.156 L73.3857,255.156 L73.3857,246.133 L71.9307,246.133 L71.9307,244.746 L73.3857,244.746 L73.3857,243.105 C73.4118,242.376 73.5387,241.842 73.7666,241.504 M85.041,252.7 C85.474,251.818 85.6904,250.837 85.6904,249.756 C85.6904,248.779 85.5342,247.985 85.2217,247.373 C84.7269,246.41 83.874,245.928 82.6631,245.928 C81.5889,245.928 80.8076,246.338 80.3193,247.158 C79.8311,247.979 79.5869,248.968 79.5869,250.127 C79.5869,251.24 79.8311,252.168 80.3193,252.91 C80.8076,253.652 81.5824,254.023 82.6436,254.023 C83.8089,254.023 84.6081,253.582 85.041,252.7 M86.1299,245.742 C87.0609,246.641 87.5264,247.962 87.5264,249.707 C87.5264,251.393 87.1162,252.786 86.2959,253.887 C85.4756,254.987 84.2028,255.537 82.4775,255.537 C81.0387,255.537 79.8962,255.05 79.0498,254.077 C78.2035,253.104 77.7803,251.797 77.7803,250.156 C77.7803,248.398 78.2262,246.999 79.1182,245.957 C80.0101,244.915 81.208,244.395 82.7119,244.395 C84.0596,244.395 85.1989,244.844 86.1299,245.742 M89.6514,244.697 L91.3213,244.697 L91.3213,246.504 C91.458,246.152 91.7933,245.724 92.3271,245.22 C92.861,244.715 93.4762,244.463 94.1729,244.463 C94.2054,244.463 94.2607,244.466 94.3389,244.473 C94.417,244.479 94.5505,244.492 94.7393,244.512 L94.7393,246.367 C94.6351,246.348 94.5391,246.335 94.4512,246.328 C94.3633,246.322 94.2673,246.318 94.1631,246.318 C93.2777,246.318 92.5973,246.603 92.1221,247.173 C91.6468,247.743 91.4092,248.398 91.4092,249.141 L91.4092,255.156 L89.6514,255.156 L89.6514,244.697 M101.806,244.697 L103.476,244.697 L103.476,246.182 C103.97,245.57 104.494,245.13 105.048,244.863 C105.601,244.596 106.216,244.463 106.894,244.463 C108.378,244.463 109.381,244.98 109.901,246.016 C110.188,246.582 110.331,247.393 110.331,248.447 L110.331,255.156 L108.544,255.156 L108.544,248.564 C108.544,247.926 108.45,247.412 108.261,247.021 C107.948,246.37 107.382,246.045 106.562,246.045 C106.145,246.045 105.803,246.087 105.536,246.172 C105.054,246.315 104.631,246.602 104.267,247.031 C103.974,247.376 103.783,247.733 103.695,248.101 C103.607,248.468 103.563,248.994 103.563,249.678 L103.563,255.156 L101.806,255.156 L101.806,244.697 M119.463,252.7 C119.896,251.818 120.112,250.837 120.112,249.756 C120.112,248.779 119.956,247.985 119.644,247.373 C119.149,246.41 118.296,245.928 117.085,245.928 C116.011,245.928 115.229,246.338 114.741,247.158 C114.253,247.979 114.009,248.968 114.009,250.127 C114.009,251.24 114.253,252.168 114.741,252.91 C115.229,253.652 116.004,254.023 117.065,254.023 C118.231,254.023 119.03,253.582 119.463,252.7 M120.552,245.742 C121.483,246.641 121.948,247.962 121.948,249.707 C121.948,251.393 121.538,252.786 120.718,253.887 C119.897,254.987 118.625,255.537 116.899,255.537 C115.461,255.537 114.318,255.05 113.472,254.077 C112.625,253.104 112.202,251.797 112.202,250.156 C112.202,248.398 112.648,246.999 113.54,245.957 C114.432,244.915 115.63,244.395 117.134,244.395 C118.481,244.395 119.621,244.844 120.552,245.742 M124.835,244.697 L126.847,252.939 L128.888,244.697 L130.86,244.697 L132.911,252.891 L135.05,244.697 L136.808,244.697 L133.771,255.156 L131.944,255.156 L129.815,247.061 L127.755,255.156 L125.929,255.156 L122.911,244.697 L124.835,244.697 M137.788,253.027 L139.829,253.027 L139.829,255.156 L137.788,255.156 L137.788,253.027 M149.966,250.527 C150.011,251.341 150.203,252.002 150.542,252.51 C151.187,253.46 152.323,253.936 153.95,253.936 C154.679,253.936 155.343,253.831 155.942,253.623 C157.101,253.219 157.681,252.497 157.681,251.455 C157.681,250.674 157.437,250.117 156.948,249.785 C156.453,249.46 155.679,249.176 154.624,248.936 L152.681,248.496 C151.411,248.21 150.513,247.894 149.985,247.549 C149.074,246.95 148.618,246.055 148.618,244.863 C148.618,243.574 149.064,242.516 149.956,241.689 C150.848,240.863 152.111,240.449 153.745,240.449 C155.249,240.449 156.527,240.812 157.578,241.538 C158.63,242.264 159.155,243.424 159.155,245.02 L157.329,245.02 C157.231,244.251 157.023,243.662 156.704,243.252 C156.112,242.503 155.106,242.129 153.687,242.129 C152.541,242.129 151.717,242.37 151.216,242.852 C150.715,243.333 150.464,243.893 150.464,244.531 C150.464,245.234 150.757,245.749 151.343,246.074 C151.727,246.283 152.596,246.543 153.95,246.855 L155.962,247.314 C156.932,247.536 157.681,247.839 158.208,248.223 C159.119,248.893 159.575,249.867 159.575,251.143 C159.575,252.731 158.997,253.867 157.842,254.551 C156.686,255.234 155.343,255.576 153.813,255.576 C152.03,255.576 150.633,255.12 149.624,254.209 C148.615,253.304 148.12,252.077 148.14,250.527 L149.966,250.527 M168.338,252.7 C168.771,251.818 168.987,250.837 168.987,249.756 C168.987,248.779 168.831,247.985 168.519,247.373 C168.024,246.41 167.171,245.928 165.96,245.928 C164.886,245.928 164.104,246.338 163.616,247.158 C163.128,247.979 162.884,248.968 162.884,250.127 C162.884,251.24 163.128,252.168 163.616,252.91 C164.104,253.652 164.879,254.023 165.94,254.023 C167.106,254.023 167.905,253.582 168.338,252.7 M169.427,245.742 C170.358,246.641 170.823,247.962 170.823,249.707 C170.823,251.393 170.413,252.786 169.593,253.887 C168.772,254.987 167.5,255.537 165.774,255.537 C164.336,255.537 163.193,255.05 162.347,254.077 C161.5,253.104 161.077,251.797 161.077,250.156 C161.077,248.398 161.523,246.999 162.415,245.957 C163.307,244.915 164.505,244.395 166.009,244.395 C167.356,244.395 168.496,244.844 169.427,245.742 M172.948,244.697 L174.618,244.697 L174.618,246.504 C174.755,246.152 175.09,245.724 175.624,245.22 C176.158,244.715 176.773,244.463 177.47,244.463 C177.502,244.463 177.558,244.466 177.636,244.473 C177.714,244.479 177.847,244.492 178.036,244.512 L178.036,246.367 C177.932,246.348 177.836,246.335 177.748,246.328 C177.66,246.322 177.564,246.318 177.46,246.318 C176.575,246.318 175.894,246.603 175.419,247.173 C174.944,247.743 174.706,248.398 174.706,249.141 L174.706,255.156 L172.948,255.156 L172.948,244.697 M179.604,244.697 L181.274,244.697 L181.274,246.504 C181.411,246.152 181.746,245.724 182.28,245.22 C182.814,244.715 183.429,244.463 184.126,244.463 C184.159,244.463 184.214,244.466 184.292,244.473 C184.37,244.479 184.504,244.492 184.692,244.512 L184.692,246.367 C184.588,246.348 184.492,246.335 184.404,246.328 C184.316,246.322 184.22,246.318 184.116,246.318 C183.231,246.318 182.55,246.603 182.075,247.173 C181.6,247.743 181.362,248.398 181.362,249.141 L181.362,255.156 L179.604,255.156 L179.604,244.697 M192.745,244.697 L194.688,244.697 C194.441,245.368 193.891,246.898 193.038,249.287 C192.4,251.084 191.866,252.549 191.437,253.682 C190.421,256.351 189.705,257.979 189.288,258.564 C188.871,259.15 188.155,259.443 187.14,259.443 C186.892,259.443 186.702,259.434 186.568,259.414 C186.435,259.395 186.271,259.359 186.075,259.307 L186.075,257.705 C186.381,257.79 186.603,257.842 186.739,257.861 C186.876,257.881 186.996,257.891 187.101,257.891 C187.426,257.891 187.665,257.837 187.818,257.729 C187.971,257.622 188.1,257.49 188.204,257.334 C188.237,257.282 188.354,257.015 188.556,256.533 C188.757,256.051 188.904,255.693 188.995,255.459 L185.128,244.697 L187.12,244.697 L189.923,253.213 L192.745,244.697 M197.237,240.811 L199.22,240.811 L199.22,245.527 L198.741,251.738 L197.745,251.738 L197.237,245.527 L197.237,240.811 M197.237,253.125 L199.181,253.125 L199.181,255.156 L197.237,255.156 L197.237,253.125 Z" style="stroke:none;fill-rule:nonzero;fill:#616161;fill-opacity:1;"/>
        </g>
    </g>
</svg>
