<?xml version="1.0" encoding="utf-8"?>
<!-- Generator: Adobe Illustrator 17.0.0, SVG Export Plug-In . SVG Version: 6.00 Build 0)  -->
<!DOCTYPE svg PUBLIC "-//W3C//DTD SVG 1.1//EN" "http://www.w3.org/Graphics/SVG/1.1/DTD/svg11.dtd">
<svg version="1.1" id="Capa_1" xmlns="http://www.w3.org/2000/svg" xmlns:xlink="http://www.w3.org/1999/xlink" x="0px" y="0px"
	 width="64px" height="64px" viewBox="0 0 64 64" enable-background="new 0 0 64 64" xml:space="preserve">
<g>
	<path d="M28.028,31.47c0.516,0,0.918-0.092,1.204-0.277c0.286-0.185,0.43-0.478,0.43-0.879c0-0.401-0.143-0.687-0.43-0.858
		c-0.286-0.171-0.688-0.256-1.204-0.256h-1.145c-0.493,0-0.893,0.4-0.893,0.893v0.485c0,0.493,0.4,0.893,0.893,0.893H28.028z"/>
	<path d="M3,52.488c0,1.105,0.895,2,2,2h54.5c1.105,0,2-0.895,2-2V24.905c0-1.097-0.883-1.985-1.977-1.998L39.194,11.99
		c0.056-0.351,0.093-0.708,0.093-1.075c0-3.787-3.081-6.868-6.869-6.868s-6.869,3.081-6.869,6.868c0,0.312,0.028,0.618,0.069,0.919
		L5.099,22.905H5c-1.105,0-2,0.895-2,2V52.488z M58.119,50.393c0,1.379-1.121,2.5-2.5,2.5H8.881c-1.379,0-2.5-1.121-2.5-2.5V27
		c0-0.699,0.29-1.331,0.754-1.785l1.216-0.656C8.522,24.522,8.699,24.5,8.881,24.5h46.738c0.278,0,0.541,0.056,0.791,0.14
		l0.74,0.397c0.586,0.458,0.97,1.163,0.97,1.963V50.393z M32.418,8.047c1.169,0,2.174,0.706,2.62,1.711
		c0.157,0.355,0.249,0.745,0.249,1.157c0,0.759-0.302,1.446-0.785,1.96c-0.524,0.557-1.261,0.909-2.084,0.909
		c-0.879,0-1.658-0.406-2.185-1.031c-0.421-0.499-0.685-1.135-0.685-1.838c0-0.515,0.147-0.992,0.386-1.41
		C30.429,8.639,31.351,8.047,32.418,8.047z M26.675,14.673c1.228,1.871,3.342,3.111,5.743,3.111c2.348,0,4.423-1.185,5.662-2.988
		l15.098,8.108H11.417L26.675,14.673z"/>
	<path d="M55.619,25.5H8.881c-0.827,0-1.5,0.673-1.5,1.5v23.393c0,0.827,0.673,1.5,1.5,1.5h46.738c0.827,0,1.5-0.673,1.5-1.5V27
		C57.119,26.173,56.446,25.5,55.619,25.5z M13.236,34.886c-1.096-0.736-1.645-1.796-1.645-3.181c0-1.413,0.548-2.473,1.645-3.181
		c0.817-0.6,2-0.9,3.546-0.9c1.547,0,2.729,0.3,3.546,0.9c1.092,0.708,1.637,1.768,1.637,3.181c0,1.385-0.546,2.445-1.637,3.181
		c-0.817,0.6-2,0.9-3.546,0.9C15.236,35.786,14.054,35.486,13.236,34.886z M25.484,48.654c0,0.468-0.38,0.848-0.848,0.848h-5.742
		c-0.468,0-0.846-0.382-0.764-0.843c0.081-0.457,0.221-0.887,0.418-1.291c0.305-0.724,1.023-1.492,2.156-2.301
		c0.984-0.704,1.622-1.208,1.91-1.512c0.444-0.475,0.667-0.994,0.667-1.558c0-0.459-0.126-0.842-0.381-1.146
		c-0.255-0.305-0.619-0.457-1.095-0.457c-0.648,0-1.091,0.243-1.325,0.726c-0.079,0.163-0.138,0.381-0.179,0.655
		c-0.055,0.372-0.439,0.679-0.908,0.679h-0.38c-0.468,0-0.841-0.381-0.772-0.844c0.082-0.546,0.224-1.012,0.426-1.397
		c0.57-1.082,1.582-1.624,3.037-1.624c1.15,0,2.064,0.317,2.745,0.955c0.679,0.636,1.019,1.479,1.019,2.527
		c0,0.805-0.239,1.519-0.72,2.142c-0.315,0.416-0.833,0.877-1.554,1.387l-0.854,0.607c-0.537,0.379-0.903,0.654-1.101,0.823
		c-0.098,0.086-0.189,0.178-0.272,0.277c-0.138,0.164,0.154,0.316,0.622,0.316h3.047c0.468,0,0.848,0.38,0.848,0.848V48.654z
		 M25.99,33.692v0.987c0,0.493-0.4,0.893-0.893,0.893h-0.461c-0.493,0-0.893-0.4-0.893-0.893v-5.926c0-0.493,0.4-0.893,0.893-0.893
		h3.754c1.072,0,1.926,0.199,2.562,0.596c0.638,0.398,0.956,1.013,0.956,1.847c0,0.91-0.317,1.554-0.951,1.93
		c-0.633,0.377-1.538,0.565-2.714,0.565h-1.36C26.39,32.799,25.99,33.199,25.99,33.692z M33.506,47.166
		c-0.339,0-0.614,0.38-0.614,0.848v0.639c0,0.468-0.38,0.848-0.848,0.848h-0.395c-0.468,0-0.848-0.38-0.848-0.848v-0.639
		c0-0.468-0.38-0.848-0.848-0.848h-2.602c-0.468,0-0.848-0.38-0.848-0.848v-0.17c0-0.468,0.197-1.173,0.439-1.573l3.113-5.14
		c0.243-0.401,0.819-0.725,1.287-0.725h0.701c0.468,0,0.848,0.38,0.848,0.848v5.09c0,0.468,0.275,0.848,0.614,0.848
		s0.614,0.374,0.614,0.835C34.12,46.792,33.845,47.166,33.506,47.166z M33.788,34.679v-5.926c0-0.493,0.4-0.893,0.893-0.893h6.151
		c0.493,0,0.893,0.306,0.893,0.683s-0.4,0.683-0.893,0.683h-3.941c-0.493,0-0.893,0.367-0.893,0.819s0.4,0.819,0.893,0.819h3.471
		c0.493,0,0.893,0.3,0.893,0.67s-0.4,0.67-0.893,0.67h-3.471c-0.493,0-0.893,0.4-0.893,0.893v0.197c0,0.493,0.4,0.893,0.893,0.893
		h4.206c0.493,0,0.893,0.31,0.893,0.693c0,0.383-0.4,0.693-0.893,0.693H34.68C34.187,35.572,33.788,35.172,33.788,34.679z
		 M47.249,48.654c0,0.468-0.38,0.848-0.848,0.848h-0.483c-0.468,0-0.848-0.38-0.848-0.848V44.53c0-0.44-0.074-0.794-0.222-1.064
		c-0.193-0.381-0.56-0.57-1.101-0.57c-0.56,0-0.986,0.187-1.276,0.566c-0.29,0.377-0.434,0.916-0.434,1.615v3.576
		c0,0.468-0.38,0.848-0.848,0.848h-0.44c-0.468,0-0.848-0.38-0.848-0.848v-9.306c0-0.468,0.38-0.848,0.848-0.848h0.44
		c0.468,0,0.848,0.38,0.848,0.848v2.199c0,0.468,0.171,0.558,0.465,0.275c0.188-0.181,0.389-0.321,0.605-0.42
		c0.405-0.187,0.831-0.28,1.28-0.28c0.502,0,0.957,0.086,1.368,0.261c0.409,0.175,0.747,0.442,1.01,0.802
		c0.224,0.307,0.36,0.619,0.409,0.942c0.049,0.321,0.074,0.848,0.074,1.576V48.654z M52.488,34.679c0,0.493-0.4,0.893-0.893,0.893
		H51.12c-0.493,0-1.144-0.311-1.453-0.695l-3.285-4.081c-0.309-0.384-0.56-0.296-0.56,0.197v3.686c0,0.493-0.4,0.893-0.893,0.893
		h-0.321c-0.493,0-0.893-0.4-0.893-0.893v-5.926c0-0.493,0.4-0.893,0.893-0.893h0.585c0.493,0,1.142,0.312,1.45,0.698l3.182,3.982
		c0.308,0.385,0.557,0.298,0.557-0.195v-3.591c0-0.493,0.4-0.893,0.893-0.893h0.321c0.493,0,0.893,0.4,0.893,0.893V34.679z"/>
	<path d="M16.783,28.99c-0.896,0-1.61,0.235-2.144,0.706s-0.8,1.141-0.8,2.009c0,0.868,0.267,1.538,0.8,2.009
		s1.248,0.706,2.144,0.706c0.896,0,1.607-0.235,2.133-0.706c0.526-0.471,0.789-1.141,0.789-2.009c0-0.865-0.263-1.534-0.789-2.006
		C18.39,29.227,17.679,28.99,16.783,28.99z"/>
	<path d="M30.376,41.55l-1.86,3.211c-0.235,0.405-0.045,0.734,0.423,0.734h1.014c0.468,0,0.848-0.38,0.848-0.848v-2.983
		C30.801,41.196,30.611,41.145,30.376,41.55z"/>
</g>
</svg>
