<svg xmlns="http://www.w3.org/2000/svg" xmlns:xlink="http://www.w3.org/1999/xlink" version="1.1" id="Layer_1" x="0px" y="0px" width="100px" height="100px" viewBox="0 0 100 100" enable-background="new 0 0 100 100" xml:space="preserve">
<path d="M50,70.028c-5.385,0-9.764,4.38-9.764,9.765s4.379,9.765,9.764,9.765c5.386,0,9.765-4.38,9.765-9.765  S55.386,70.028,50,70.028z"/>
<path d="M50,50.5c-7.281,0-14.185,3.542-18.466,9.472c-0.508,0.702-0.491,1.654,0.041,2.34l4.299,5.542  c0.375,0.484,0.934,0.743,1.569,0.756c0.612-0.007,1.186-0.302,1.548-0.796c2.613-3.557,6.626-5.597,11.01-5.597  c4.385,0,8.397,2.04,11.011,5.596c0.36,0.495,0.936,0.79,1.548,0.797c0.008,0,0.017,0,0.025,0c0.603,0,1.173-0.279,1.544-0.756  l4.3-5.542c0.529-0.685,0.547-1.638,0.038-2.34C64.184,54.042,57.28,50.5,50,50.5z"/>
<path d="M50,30.971c-11.621,0-22.462,4.626-30.523,13.025c-0.672,0.7-0.728,1.784-0.134,2.549l4.868,6.275  c0.355,0.459,0.896,0.735,1.475,0.756c0.6,0.032,1.139-0.219,1.523-0.65C33.024,46.42,41.332,42.688,50,42.688  c8.668,0,16.976,3.731,22.791,10.238c0.371,0.413,0.901,0.651,1.456,0.651c0.024,0,0.046,0,0.067-0.001  c0.579-0.021,1.12-0.298,1.478-0.756l4.866-6.275c0.594-0.765,0.537-1.85-0.135-2.549C72.462,35.597,61.622,30.971,50,30.971z"/>
<path d="M92.511,28.395C80.974,17.464,65.875,11.442,50,11.442c-15.875,0-30.974,6.021-42.512,16.953  c-0.729,0.689-0.815,1.821-0.2,2.614l4.812,6.203c0.341,0.44,0.853,0.712,1.409,0.751c0.548,0.036,1.1-0.163,1.497-0.551  C24.426,28.222,36.853,23.16,50,23.16c13.146,0,25.575,5.062,34.993,14.254c0.366,0.356,0.855,0.554,1.364,0.554  c0.044,0,0.089-0.001,0.135-0.004c0.555-0.039,1.067-0.312,1.408-0.751l4.813-6.202C93.327,30.216,93.241,29.086,92.511,28.395z"/>
</svg>