<?xml version="1.0"?>
<svg version="1.1" xmlns="http://www.w3.org/2000/svg" xmlns:xlink="http://www.w3.org/1999/xlink" width="340" height="100">
    <desc iVinci="yes" version="4.5" gridStep="20" showGrid="no" snapToGrid="no" codePlatform="0"/>
    <g id="Layer1" opacity="1">
        <g id="Shape1">
            <desc shapeID="1" type="0" basicInfo-basicType="0" basicInfo-roundedRectRadius="12" basicInfo-polygonSides="6" basicInfo-starPoints="5" bounding="rect(-50,-50,100,100)" text="" font-familyName="" font-pixelSize="20" font-bold="0" font-underline="0" font-alignment="1" strokeStyle="0" markerStart="0" markerEnd="0" shadowEnabled="0" shadowOffsetX="0" shadowOffsetY="2" shadowBlur="4" shadowOpacity="160" blurEnabled="0" blurRadius="4" transform="matrix(1,0,0,1,59,50)" pers-center="0,0" pers-size="0,0" pers-start="0,0" pers-end="0,0" locked="0" mesh="" flag=""/>
            <path id="shapePath1" d="M9,0 L109,0 L109,100 L9,100 L9,0 Z" style="stroke:none;fill:none;"/>
        </g>
        <g id="Shape2">
            <desc shapeID="2" type="0" basicInfo-basicType="0" basicInfo-roundedRectRadius="12" basicInfo-polygonSides="6" basicInfo-starPoints="5" bounding="rect(-45,-39.3083,90,78.6166)" text="" font-familyName="" font-pixelSize="20" font-bold="0" font-underline="0" font-alignment="1" strokeStyle="0" markerStart="0" markerEnd="0" shadowEnabled="0" shadowOffsetX="0" shadowOffsetY="2" shadowBlur="4" shadowOpacity="160" blurEnabled="0" blurRadius="4" transform="matrix(1,0,0,1,54,50)" pers-center="0,0" pers-size="0,0" pers-start="0,0" pers-end="0,0" locked="0" mesh="" flag=""/>
            <path id="shapePath2" d="M43.519,30.0343 C44.181,29.4973 44.56,28.7113 44.56,27.8863 C44.56,27.0613 44.178,26.2753 43.517,25.7383 C42.234,24.6953 41.497,23.1633 41.497,21.5343 C41.497,19.9053 42.234,18.3743 43.521,17.3353 C44.084,16.8733 44.921,16.9623 45.378,17.5303 C45.837,18.0983 45.749,18.9283 45.181,19.3903 C44.519,19.9273 44.14,20.7083 44.14,21.5343 C44.14,22.3603 44.522,23.1453 45.185,23.6873 C46.468,24.7303 47.205,26.2613 47.205,27.8863 C47.205,29.5153 46.468,31.0473 45.183,32.0903 L45.181,32.0903 C44.522,32.6273 44.14,33.4133 44.14,34.2383 C44.14,35.0633 44.522,35.8443 45.185,36.3863 C45.751,36.8483 45.837,37.6783 45.376,38.2463 C45.114,38.5663 44.734,38.7343 44.351,38.7343 C44.058,38.7343 43.763,38.6363 43.517,38.4373 C42.234,37.3943 41.497,35.8633 41.497,34.2383 C41.497,32.6133 42.234,31.0823 43.512,30.0393 C43.514,30.0393 43.517,30.0343 43.519,30.0343 M51.146,27.8863 C51.146,29.5153 51.883,31.0473 53.17,32.0903 C53.412,32.2853 53.707,32.3833 54,32.3833 C54.386,32.3833 54.768,32.2143 55.028,31.8903 C55.487,31.3223 55.398,30.4923 54.83,30.0353 C54.169,29.4983 53.789,28.7123 53.789,27.8873 C53.789,27.0623 54.171,26.2763 54.834,25.7393 C56.117,24.6963 56.854,23.1643 56.854,21.5353 C56.854,19.9063 56.118,18.3793 54.834,17.3363 C54.17,16.7993 53.789,16.0133 53.789,15.1883 C53.789,14.3633 54.171,13.5773 54.834,13.0353 C55.4,12.5783 55.486,11.7483 55.025,11.1803 C54.565,10.6173 53.733,10.5233 53.165,10.9903 C51.882,12.0333 51.145,13.5603 51.145,15.1893 C51.145,16.8143 51.882,18.3453 53.165,19.3883 L53.167,19.3883 L53.169,19.3933 C53.831,19.9303 54.21,20.7113 54.21,21.5373 C54.21,22.3633 53.828,23.1483 53.165,23.6903 C51.883,24.7303 51.146,26.2613 51.146,27.8863 M62.815,30.0343 C61.533,31.0773 60.795,32.6083 60.795,34.2383 C60.795,35.8633 61.532,37.3943 62.815,38.4373 C63.062,38.6373 63.357,38.7343 63.65,38.7343 C64.034,38.7343 64.414,38.5663 64.675,38.2463 C65.136,37.6783 65.05,36.8483 64.484,36.3863 C63.823,35.8443 63.441,35.0633 63.441,34.2383 C63.441,33.4083 63.823,32.6273 64.484,32.0853 C65.767,31.0463 66.504,29.5153 66.504,27.8863 C66.504,26.2613 65.768,24.7303 64.484,23.6873 C63.823,23.1453 63.441,22.3603 63.441,21.5343 C63.441,20.7083 63.821,19.9273 64.482,19.3903 C65.048,18.9283 65.136,18.0943 64.675,17.5303 C64.218,16.9623 63.388,16.8733 62.818,17.3353 C61.533,18.3743 60.796,19.9053 60.796,21.5343 C60.796,23.1633 61.533,24.6943 62.816,25.7383 C63.48,26.2753 63.862,27.0613 63.862,27.8863 C63.862,28.7123 63.482,29.4973 62.821,30.0343 L62.815,30.0343 M99,86.6673 C99,88.1273 97.816,89.3083 96.358,89.3083 L11.643,89.3083 C10.185,89.3083 9,88.1273 9,86.6673 C9,85.2023 10.185,84.0213 11.643,84.0213 L15.207,84.0213 C16.516,64.6553 32.023,49.1603 51.397,47.8683 C51.39,47.8023 51.357,47.7433 51.357,47.6733 L51.357,46.2533 C51.357,44.7933 52.54,43.6123 54,43.6123 C55.46,43.6123 56.643,44.7933 56.643,46.2533 L56.643,47.6733 C56.643,47.7443 56.61,47.8023 56.603,47.8683 C75.978,49.1603 91.485,64.6553 92.793,84.0213 L96.357,84.0213 C97.816,84.0213 99,85.2023 99,86.6673 M17.853,84.0213 L90.149,84.0213 C88.784,65.2503 73.115,50.3813 54,50.3813 C34.885,50.3813 19.217,65.2503 17.853,84.0213 M84.94,78.4643 C83.357,72.0863 79.961,66.3293 75.128,61.8193 C74.058,60.8253 72.389,60.8783 71.391,61.9523 C70.394,63.0173 70.454,64.6913 71.519,65.6893 C75.607,69.4943 78.47,74.3543 79.806,79.7383 C80.106,80.9413 81.184,81.7443 82.371,81.7443 C82.582,81.7443 82.798,81.7183 83.011,81.6693 C84.428,81.3133 85.291,79.8803 84.94,78.4643 Z" style="stroke:none;fill-rule:nonzero;fill:#000000;fill-opacity:1;"/>
        </g>
        <g id="Shape3">
            <desc shapeID="3" type="2" basicInfo-basicType="0" basicInfo-roundedRectRadius="12" basicInfo-polygonSides="6" basicInfo-starPoints="5" bounding="rect(-106,-37.5,212,75)" text="FoodPorn" font-familyName="Lato" font-pixelSize="44" font-bold="0" font-underline="0" font-alignment="1" strokeStyle="0" markerStart="0" markerEnd="0" shadowEnabled="0" shadowOffsetX="0" shadowOffsetY="2" shadowBlur="4" shadowOpacity="160" blurEnabled="0" blurRadius="4" transform="matrix(1,0,0,1,212.5,54)" pers-center="0,0" pers-size="0,0" pers-start="0,0" pers-end="0,0" locked="0" mesh="" flag=""/>
            <path id="shapePath3" d="M140.91,39.3959 L140.91,42.8719 L125.774,42.8719 L125.774,53.8939 L138.71,53.8939 L138.71,57.3699 L125.774,57.3699 L125.774,70.9219 L121.484,70.9219 L121.484,39.3959 L140.91,39.3959 M153.248,48.2839 C154.876,48.2839 156.346,48.5552 157.659,49.0979 C158.971,49.6405 160.086,50.4105 161.003,51.4079 C161.919,52.4052 162.623,53.6115 163.115,55.0269 C163.606,56.4422 163.852,58.0225 163.852,59.7679 C163.852,61.5279 163.606,63.1119 163.115,64.5199 C162.623,65.9279 161.919,67.1305 161.003,68.1279 C160.086,69.1252 158.971,69.8915 157.659,70.4269 C156.346,70.9622 154.876,71.2299 153.248,71.2299 C151.62,71.2299 150.149,70.9622 148.837,70.4269 C147.524,69.8915 146.406,69.1252 145.482,68.1279 C144.558,67.1305 143.846,65.9279 143.348,64.5199 C142.849,63.1119 142.6,61.5279 142.6,59.7679 C142.6,58.0225 142.849,56.4422 143.348,55.0269 C143.846,53.6115 144.558,52.4052 145.482,51.4079 C146.406,50.4105 147.524,49.6405 148.837,49.0979 C150.149,48.5552 151.62,48.2839 153.248,48.2839 M153.248,68.1719 C155.448,68.1719 157.09,67.4349 158.176,65.9609 C159.261,64.4869 159.804,62.4299 159.804,59.7899 C159.804,57.1352 159.261,55.0672 158.176,53.5859 C157.09,52.1045 155.448,51.3639 153.248,51.3639 C152.133,51.3639 151.165,51.5545 150.344,51.9359 C149.522,52.3172 148.837,52.8672 148.287,53.5859 C147.737,54.3045 147.326,55.1882 147.055,56.2369 C146.783,57.2855 146.648,58.4699 146.648,59.7899 C146.648,61.1099 146.783,62.2905 147.055,63.3319 C147.326,64.3732 147.737,65.2495 148.287,65.9609 C148.837,66.6722 149.522,67.2185 150.344,67.5999 C151.165,67.9812 152.133,68.1719 153.248,68.1719 M177.701,48.2839 C179.329,48.2839 180.799,48.5552 182.112,49.0979 C183.424,49.6405 184.539,50.4105 185.456,51.4079 C186.372,52.4052 187.076,53.6115 187.568,55.0269 C188.059,56.4422 188.305,58.0225 188.305,59.7679 C188.305,61.5279 188.059,63.1119 187.568,64.5199 C187.076,65.9279 186.372,67.1305 185.456,68.1279 C184.539,69.1252 183.424,69.8915 182.112,70.4269 C180.799,70.9622 179.329,71.2299 177.701,71.2299 C176.073,71.2299 174.602,70.9622 173.29,70.4269 C171.977,69.8915 170.859,69.1252 169.935,68.1279 C169.011,67.1305 168.299,65.9279 167.801,64.5199 C167.302,63.1119 167.053,61.5279 167.053,59.7679 C167.053,58.0225 167.302,56.4422 167.801,55.0269 C168.299,53.6115 169.011,52.4052 169.935,51.4079 C170.859,50.4105 171.977,49.6405 173.29,49.0979 C174.602,48.5552 176.073,48.2839 177.701,48.2839 M177.701,68.1719 C179.901,68.1719 181.543,67.4349 182.629,65.9609 C183.714,64.4869 184.257,62.4299 184.257,59.7899 C184.257,57.1352 183.714,55.0672 182.629,53.5859 C181.543,52.1045 179.901,51.3639 177.701,51.3639 C176.586,51.3639 175.618,51.5545 174.797,51.9359 C173.975,52.3172 173.29,52.8672 172.74,53.5859 C172.19,54.3045 171.779,55.1882 171.508,56.2369 C171.236,57.2855 171.101,58.4699 171.101,59.7899 C171.101,61.1099 171.236,62.2905 171.508,63.3319 C171.779,64.3732 172.19,65.2495 172.74,65.9609 C173.29,66.6722 173.975,67.2185 174.797,67.5999 C175.618,67.9812 176.586,68.1719 177.701,68.1719 M208.82,70.9219 C208.263,70.9219 207.911,70.6505 207.764,70.1079 L207.412,67.4019 C206.459,68.5605 205.37,69.4882 204.145,70.1849 C202.92,70.8815 201.516,71.2299 199.932,71.2299 C198.656,71.2299 197.497,70.9842 196.456,70.4929 C195.415,70.0015 194.527,69.2792 193.794,68.3259 C193.061,67.3725 192.496,66.1845 192.1,64.7619 C191.704,63.3392 191.506,61.7039 191.506,59.8559 C191.506,58.2132 191.726,56.6842 192.166,55.2689 C192.606,53.8535 193.24,52.6252 194.069,51.5839 C194.898,50.5425 195.906,49.7249 197.094,49.1309 C198.282,48.5369 199.631,48.2399 201.142,48.2399 C202.506,48.2399 203.672,48.4709 204.64,48.9329 C205.608,49.3949 206.473,50.0439 207.236,50.8799 L207.236,38.5159 L211.152,38.5159 L211.152,70.9219 L208.82,70.9219 M201.23,68.0619 C202.506,68.0619 203.624,67.7685 204.585,67.1819 C205.546,66.5952 206.429,65.7665 207.236,64.6959 L207.236,53.9159 C206.517,52.9479 205.729,52.2695 204.871,51.8809 C204.013,51.4922 203.063,51.2979 202.022,51.2979 C199.939,51.2979 198.341,52.0385 197.226,53.5199 C196.111,55.0012 195.554,57.1132 195.554,59.8559 C195.554,61.3079 195.679,62.5509 195.928,63.5849 C196.177,64.6189 196.544,65.4695 197.028,66.1369 C197.512,66.8042 198.106,67.2919 198.81,67.5999 C199.514,67.9079 200.321,68.0619 201.23,68.0619 M223.03,59.1299 L223.03,70.9219 L218.784,70.9219 L218.784,39.3959 L228.09,39.3959 C230.084,39.3959 231.819,39.6269 233.293,40.0889 C234.767,40.5509 235.988,41.2072 236.956,42.0579 C237.924,42.9085 238.646,43.9352 239.123,45.1379 C239.599,46.3405 239.838,47.6825 239.838,49.1639 C239.838,50.6305 239.581,51.9725 239.068,53.1899 C238.554,54.4072 237.803,55.4559 236.813,56.3359 C235.823,57.2159 234.594,57.9015 233.128,58.3929 C231.661,58.8842 229.982,59.1299 228.09,59.1299 L223.03,59.1299 M223.03,55.7419 L228.09,55.7419 C229.307,55.7419 230.381,55.5805 231.313,55.2579 C232.244,54.9352 233.025,54.4842 233.656,53.9049 C234.286,53.3255 234.763,52.6325 235.086,51.8259 C235.408,51.0192 235.57,50.1319 235.57,49.1639 C235.57,47.1545 234.95,45.5852 233.711,44.4559 C232.471,43.3265 230.598,42.7619 228.09,42.7619 L223.03,42.7619 L223.03,55.7419 M252.966,48.2839 C254.594,48.2839 256.065,48.5552 257.377,49.0979 C258.69,49.6405 259.805,50.4105 260.721,51.4079 C261.638,52.4052 262.342,53.6115 262.833,55.0269 C263.325,56.4422 263.57,58.0225 263.57,59.7679 C263.57,61.5279 263.325,63.1119 262.833,64.5199 C262.342,65.9279 261.638,67.1305 260.721,68.1279 C259.805,69.1252 258.69,69.8915 257.377,70.4269 C256.065,70.9622 254.594,71.2299 252.966,71.2299 C251.338,71.2299 249.868,70.9622 248.555,70.4269 C247.243,69.8915 246.124,69.1252 245.2,68.1279 C244.276,67.1305 243.565,65.9279 243.066,64.5199 C242.568,63.1119 242.318,61.5279 242.318,59.7679 C242.318,58.0225 242.568,56.4422 243.066,55.0269 C243.565,53.6115 244.276,52.4052 245.2,51.4079 C246.124,50.4105 247.243,49.6405 248.555,49.0979 C249.868,48.5552 251.338,48.2839 252.966,48.2839 M252.966,68.1719 C255.166,68.1719 256.809,67.4349 257.894,65.9609 C258.98,64.4869 259.522,62.4299 259.522,59.7899 C259.522,57.1352 258.98,55.0672 257.894,53.5859 C256.809,52.1045 255.166,51.3639 252.966,51.3639 C251.852,51.3639 250.884,51.5545 250.062,51.9359 C249.241,52.3172 248.555,52.8672 248.005,53.5859 C247.455,54.3045 247.045,55.1882 246.773,56.2369 C246.502,57.2855 246.366,58.4699 246.366,59.7899 C246.366,61.1099 246.502,62.2905 246.773,63.3319 C247.045,64.3732 247.455,65.2495 248.005,65.9609 C248.555,66.6722 249.241,67.2185 250.062,67.5999 C250.884,67.9812 251.852,68.1719 252.966,68.1719 M268.4,70.9219 L268.4,48.6359 L270.643,48.6359 C271.069,48.6359 271.362,48.7165 271.523,48.8779 C271.685,49.0392 271.795,49.3179 271.854,49.7139 L272.117,53.1899 C272.88,51.6352 273.823,50.4215 274.944,49.5489 C276.066,48.6762 277.383,48.2399 278.893,48.2399 C279.509,48.2399 280.067,48.3095 280.565,48.4489 C281.064,48.5882 281.526,48.7825 281.952,49.0319 L281.445,51.9579 C281.343,52.3245 281.116,52.5079 280.763,52.5079 C280.558,52.5079 280.243,52.4382 279.818,52.2989 C279.392,52.1595 278.798,52.0899 278.035,52.0899 C276.672,52.0899 275.531,52.4859 274.615,53.2779 C273.698,54.0699 272.931,55.2212 272.315,56.7319 L272.315,70.9219 L268.4,70.9219 M286.118,70.9219 L286.118,48.6359 L288.45,48.6359 C289.008,48.6359 289.36,48.9072 289.506,49.4499 L289.814,51.8699 C290.782,50.7992 291.864,49.9339 293.059,49.2739 C294.255,48.6139 295.637,48.2839 297.206,48.2839 C298.424,48.2839 299.498,48.4855 300.429,48.8889 C301.361,49.2922 302.138,49.8642 302.761,50.6049 C303.385,51.3455 303.858,52.2365 304.18,53.2779 C304.503,54.3192 304.664,55.4705 304.664,56.7319 L304.664,70.9219 L300.748,70.9219 L300.748,56.7319 C300.748,55.0452 300.363,53.7362 299.593,52.8049 C298.823,51.8735 297.646,51.4079 296.062,51.4079 C294.904,51.4079 293.822,51.6865 292.817,52.2439 C291.813,52.8012 290.885,53.5565 290.034,54.5099 L290.034,70.9219 L286.118,70.9219 Z" style="stroke:none;fill-rule:nonzero;fill:#000000;fill-opacity:1;"/>
        </g>
    </g>
</svg>
