<?xml version="1.0"?>
<svg version="1.1" xmlns="http://www.w3.org/2000/svg" xmlns:xlink="http://www.w3.org/1999/xlink" width="2792" height="2792">
    <desc iVinci="yes" version="4.5" gridStep="20" showGrid="no" snapToGrid="no" codePlatform="0"/>
    <g id="Layer1" visibility="hidden" opacity="1">
        <g id="Shape1">
            <desc shapeID="1" type="0" basicInfo-basicType="0" basicInfo-roundedRectRadius="12" basicInfo-polygonSides="6" basicInfo-starPoints="5" bounding="rect(0,0,0,0)" text="" font-familyName="Helvetica" font-pixelSize="20" font-bold="0" font-underline="0" font-alignment="1" strokeStyle="0" markerStart="0" markerEnd="0" shadowEnabled="0" shadowOffsetX="0" shadowOffsetY="2" shadowBlur="4" shadowOpacity="160" blurEnabled="0" blurRadius="4" transform="matrix(1.63225,0,0,1.57052,4455.36,788.198)" pers-center="0,0" pers-size="0,0" pers-start="0,0" pers-end="0,0" locked="0" mesh="" flag=""/>
            <path id="shapePath1" d="M4455.36,788.198 Z" style="stroke:none;fill-rule:evenodd;fill:#ffffff;fill-opacity:1;"/>
        </g>
        <g id="Shape2">
            <desc shapeID="2" type="0" basicInfo-basicType="0" basicInfo-roundedRectRadius="12" basicInfo-polygonSides="6" basicInfo-starPoints="5" bounding="rect(-767.999,-831.995,1536,1663.99)" text="" font-familyName="" font-pixelSize="20" font-bold="0" font-underline="0" font-alignment="1" strokeStyle="0" markerStart="0" markerEnd="0" shadowEnabled="0" shadowOffsetX="0" shadowOffsetY="2" shadowBlur="4" shadowOpacity="160" blurEnabled="0" blurRadius="4" transform="matrix(0.633367,0,0,0.592502,609.245,1423.36)" pers-center="0,0" pers-size="0,0" pers-start="0,0" pers-end="0,0" locked="0" mesh="" flag=""/>
            <path id="shapePath2" d="M284.962,1120 C284.962,1109.73 280.951,1100.84 272.929,1093.34 C264.907,1085.83 255.405,1082.08 244.427,1082.08 C233.448,1082.08 223.949,1085.83 215.926,1093.34 C207.902,1100.84 203.891,1109.73 203.891,1120 C203.891,1130.27 207.902,1139.16 215.926,1146.66 C223.949,1154.17 233.448,1157.92 244.427,1157.92 C255.405,1157.92 264.907,1154.17 272.929,1146.66 C280.951,1139.16 284.962,1130.27 284.962,1120 M1014.6,1461.28 C1014.6,1447.46 1010.06,1431.46 1000.98,1413.29 C991.906,1395.12 980.611,1385.83 967.099,1385.44 C973.432,1378.72 978.711,1369.34 982.933,1357.3 C987.154,1345.25 989.265,1334.29 989.265,1324.41 C989.265,1297.16 978.077,1273.65 955.697,1253.9 C963.298,1241.26 967.099,1227.64 967.099,1213.02 C967.099,1198.41 963.405,1183.89 956.015,1169.47 C948.624,1155.06 938.597,1144.69 925.93,1138.37 C928.041,1126.52 929.096,1115.46 929.096,1105.19 C929.096,1071.61 918.751,1046.73 898.061,1030.53 C877.371,1014.34 848.659,1006.24 811.923,1006.24 L730.854,1006.24 C675.538,1006.24 603.334,1020.66 514.241,1049.49 C512.13,1050.28 506.008,1052.36 495.875,1055.71 C485.739,1059.07 478.245,1061.54 473.389,1063.12 C468.533,1064.7 461.145,1066.97 451.22,1069.93 C441.298,1072.9 433.276,1075.07 427.154,1076.45 C421.031,1077.83 414.063,1079.12 406.253,1080.3 C398.44,1081.49 391.79,1082.08 386.302,1082.08 L366.034,1082.08 L366.034,1461.28 L386.302,1461.28 C393.056,1461.28 400.553,1463.06 408.785,1466.61 C417.018,1470.17 425.464,1475.5 434.12,1482.61 C442.777,1489.72 450.905,1496.73 458.504,1503.64 C466.105,1510.56 474.551,1519.25 483.839,1529.71 C493.13,1540.18 500.413,1548.57 505.691,1554.89 C510.968,1561.21 517.62,1569.31 525.642,1579.19 C533.664,1589.06 538.52,1594.99 540.21,1596.96 C563.434,1623.82 579.689,1641.79 588.979,1650.88 C606.29,1667.87 618.853,1689.49 626.665,1715.76 C634.476,1742.03 640.915,1766.81 645.982,1790.12 C651.048,1813.42 659.071,1830.21 670.049,1840.48 C710.585,1840.48 737.608,1831.2 751.12,1812.63 C764.632,1794.07 771.388,1765.43 771.388,1726.72 C771.388,1703.42 761.255,1671.72 740.987,1631.62 C720.718,1591.53 710.585,1560.03 710.585,1537.12 L933.529,1537.12 C954.642,1537.12 973.432,1529.52 989.9,1514.31 C1006.37,1499.1 1014.6,1481.43 1014.6,1461.28 M1095.67,1461.87 C1095.67,1502.56 1079.63,1537.91 1047.54,1567.93 C1015.44,1597.95 977.443,1612.96 933.529,1612.96 L822.058,1612.96 C842.324,1652.07 852.46,1689.98 852.46,1726.72 C852.46,1773.33 845.069,1810.07 830.291,1836.93 C815.513,1864.18 793.978,1884.23 765.688,1897.06 C737.397,1909.9 705.519,1916.32 670.049,1916.32 C648.514,1916.32 629.514,1909.01 613.046,1894.4 C598.691,1881.36 587.29,1865.17 578.844,1845.81 C570.4,1826.46 565.017,1808.58 562.693,1792.19 C560.372,1775.8 556.677,1759.11 551.609,1742.12 C546.542,1725.14 539.999,1712.5 531.975,1704.21 C511.708,1684.46 489.118,1659.37 464.205,1628.96 C421.559,1577.21 392.635,1546.6 377.435,1537.12 L203.891,1537.12 C181.512,1537.12 162.405,1529.71 146.571,1514.9 C130.737,1500.09 122.82,1482.22 122.82,1461.28 L122.82,1082.08 C122.82,1061.14 130.737,1043.27 146.571,1028.46 C162.405,1013.65 181.512,1006.24 203.891,1006.24 L386.302,1006.24 C395.59,1006.24 424.726,998.339 473.706,982.54 C527.753,965.16 574.833,952.125 614.946,943.434 C655.06,934.743 697.284,930.4 741.621,930.4 L812.557,930.4 C871.67,930.4 919.491,946.002 956.015,977.207 C992.538,1008.41 1010.59,1051.07 1010.17,1105.19 L1010.17,1108.15 C1035.5,1138.57 1048.17,1173.72 1048.17,1213.62 C1048.17,1222.3 1047.54,1230.8 1046.27,1239.09 C1062.31,1265.56 1070.34,1294 1070.34,1324.41 C1070.34,1338.63 1068.44,1352.26 1064.64,1365.3 C1085.33,1394.53 1095.67,1426.72 1095.67,1461.87 Z" style="stroke:none;fill-rule:evenodd;fill:#ffffff;fill-opacity:1;"/>
        </g>
    </g>
    <g id="Layer2" opacity="1">
        <g id="Shape3">
            <desc shapeID="3" type="0" basicInfo-basicType="0" basicInfo-roundedRectRadius="12" basicInfo-polygonSides="6" basicInfo-starPoints="5" bounding="rect(0,0,0,0)" text="" font-familyName="Helvetica" font-pixelSize="20" font-bold="0" font-underline="0" font-alignment="1" strokeStyle="0" markerStart="0" markerEnd="0" shadowEnabled="0" shadowOffsetX="0" shadowOffsetY="2" shadowBlur="4" shadowOpacity="160" blurEnabled="0" blurRadius="4" transform="matrix(0.828914,0,0,0.796916,1640.12,-418.409)" pers-center="0,0" pers-size="0,0" pers-start="0,0" pers-end="0,0" locked="0" mesh="" flag=""/>
            <path id="shapePath3" d="M1640.12,-418.409 Z" style="stroke:none;fill-rule:evenodd;fill:#ffffff;fill-opacity:1;"/>
        </g>
        <g id="Shape4">
            <desc shapeID="4" type="0" basicInfo-basicType="0" basicInfo-roundedRectRadius="12" basicInfo-polygonSides="6" basicInfo-starPoints="5" bounding="rect(-62.5709,-67.7884,125.142,135.577)" text="" font-familyName="" font-pixelSize="20" font-bold="0" font-underline="0" font-alignment="1" strokeStyle="0" markerStart="0" markerEnd="0" shadowEnabled="0" shadowOffsetX="0" shadowOffsetY="2" shadowBlur="4" shadowOpacity="160" blurEnabled="0" blurRadius="4" transform="matrix(7.17656,0,0,7.16512,1396,650.293)" pers-center="0,0" pers-size="0,0" pers-start="0,0" pers-end="0,0" locked="0" mesh="" flag=""/>
            <path id="shapePath4" d="M1816.41,707.51 C1835.52,678.7 1845.04,646.99 1845.04,612.35 C1845.04,572.26 1830.24,537.44 1800.63,507.83 C1771,478.26 1735.92,463.47 1695.38,463.47 L1592.47,463.47 C1611.16,424.95 1620.54,387.58 1620.54,351.39 C1620.54,305.86 1613.71,269.66 1600.07,242.811 C1586.42,215.949 1566.53,196.201 1540.43,183.547 C1514.29,170.901 1484.88,164.581 1452.14,164.581 C1432.25,164.581 1414.71,171.783 1399.51,186.184 C1382.75,202.528 1370.67,223.551 1363.27,249.238 C1355.85,274.92 1349.91,299.54 1345.42,323.08 C1340.94,346.62 1334.02,363.26 1324.67,372.99 C1305.57,393.62 1284.72,418.53 1262.11,447.72 C1222.73,498.7 1196.03,528.86 1182,538.21 L1021.79,538.21 C1001.14,538.21 983.495,545.52 968.885,560.1 C954.265,574.69 946.955,592.3 946.955,612.93 L946.955,986.54 C946.955,1007.18 954.265,1024.78 968.885,1039.37 C983.515,1053.96 1001.14,1061.27 1021.79,1061.27 L1190.19,1061.27 C1198.76,1061.27 1225.64,1069.06 1270.87,1084.62 C1318.8,1101.35 1361.01,1114.1 1397.46,1122.87 C1433.91,1131.63 1470.83,1136.01 1508.27,1136.01 L1562.63,1136.01 L1583.69,1136.01 C1638.65,1136.01 1682.87,1120.32 1716.41,1089 C1749.93,1057.66 1766.49,1014.96 1766.11,960.85 C1789.49,930.87 1801.2,896.25 1801.2,856.95 C1801.2,848.39 1800.61,840.02 1799.45,831.84 C1814.25,805.78 1821.66,777.75 1821.66,747.789 C1821.66,733.77 1819.92,720.34 1816.41,707.51 M1085.52,975.46 C1078.13,982.84 1069.35,986.55 1059.22,986.55 C1049.08,986.55 1040.32,982.84 1032.92,975.46 C1025.5,968.08 1021.79,959.31 1021.79,949.18 C1021.79,939.07 1025.5,930.3 1032.92,922.92 C1040.32,915.53 1049.08,911.83 1059.22,911.83 C1069.35,911.83 1078.13,915.53 1085.52,922.92 C1092.94,930.3 1096.65,939.07 1096.65,949.18 C1096.65,959.31 1092.94,968.08 1085.52,975.46 M1757.66,660.24 C1749.28,678.15 1738.84,687.29 1726.37,687.68 C1732.21,694.3 1737.1,703.55 1740.99,715.4 C1744.9,727.28 1746.83,738.07 1746.83,747.81 C1746.83,774.65 1736.5,797.81 1715.85,817.26 C1722.87,829.72 1726.37,843.14 1726.37,857.54 C1726.37,871.94 1722.98,886.24 1716.14,900.44 C1709.32,914.65 1700.07,924.86 1688.38,931.08 C1690.33,942.77 1691.29,953.66 1691.29,963.77 C1691.29,1028.75 1653.86,1061.25 1579.02,1061.25 L1508.29,1061.25 C1457.21,1061.25 1390.55,1047.06 1308.31,1018.65 C1306.35,1017.86 1300.7,1015.83 1291.35,1012.53 C1281.99,1009.21 1275.07,1006.78 1270.58,1005.22 C1266.11,1003.65 1259.29,1001.43 1250.13,998.51 C1240.96,995.59 1233.57,993.44 1227.9,992.08 C1222.26,990.73 1215.82,989.46 1208.61,988.28 C1201.41,987.12 1195.27,986.54 1190.19,986.54 L1171.49,986.54 L1171.49,612.95 L1190.19,612.95 C1196.43,612.95 1203.35,611.19 1210.95,607.69 C1218.55,604.19 1226.35,598.94 1234.35,591.93 C1242.33,584.92 1249.84,578.02 1256.85,571.2 C1263.87,564.4 1271.67,555.83 1280.25,545.52 C1288.83,535.2 1295.55,526.94 1300.41,520.71 C1305.28,514.48 1311.42,506.5 1318.84,496.77 C1326.24,487.05 1330.71,481.21 1332.27,479.26 C1353.71,452.8 1368.72,435.1 1377.3,426.14 C1393.28,409.41 1404.88,388.1 1412.09,362.22 C1419.31,336.33 1425.25,311.91 1429.91,288.95 C1434.6,265.99 1442,249.445 1452.14,239.328 C1489.55,239.328 1514.51,248.472 1526.98,266.764 C1539.45,285.06 1545.68,313.27 1545.68,351.41 C1545.68,374.37 1536.32,405.6 1517.62,445.1 C1498.91,484.61 1489.55,515.64 1489.55,538.22 L1695.38,538.22 C1714.89,538.22 1732.21,545.7 1747.41,560.69 C1762.6,575.669 1770.22,593.08 1770.22,612.94 C1770.22,626.56 1766.04,642.32 1757.66,660.24 Z" style="stroke:none;fill-rule:evenodd;fill:#ffffff;fill-opacity:1;"/>
        </g>
    </g>
</svg>
