<svg width="100" height="100" xmlns="http://www.w3.org/2000/svg" xmlns:svg="http://www.w3.org/2000/svg" xmlns:xlink="http://www.w3.org/1999/xlink">
 <!-- Created with SVG-edit - http://svg-edit.googlecode.com/ -->
 <defs>
  <symbol viewBox="0 0 100 100" height="100px" width="100px" y="0px" x="0px" id="svg_2" xmlns:xlink="http://www.w3.org/1999/xlink" xmlns="http://www.w3.org/2000/svg">
   <rect height="100" width="100" fill="none"/>
   <path d="m39.519,30.035c0.662,-0.537 1.041,-1.323 1.041,-2.148c0,-0.825 -0.382,-1.611 -1.043,-2.148c-1.283,-1.043 -2.02,-2.575 -2.02,-4.204s0.737,-3.16 2.024,-4.199c0.563,-0.462 1.4,-0.373 1.857,0.195c0.459,0.568 0.371,1.398 -0.197,1.86c-0.662,0.537 -1.041,1.318 -1.041,2.144s0.382,1.611 1.045,2.153c1.283,1.043 2.02,2.574 2.02,4.199c0,1.629 -0.737,3.161 -2.022,4.204l-0.002,0c-0.659,0.537 -1.041,1.323 -1.041,2.148c0,0.825 0.382,1.606 1.045,2.148c0.566,0.462 0.652,1.292 0.191,1.86c-0.262,0.32 -0.642,0.488 -1.025,0.488c-0.293,0 -0.588,-0.098 -0.834,-0.297c-1.283,-1.043 -2.02,-2.574 -2.02,-4.199s0.737,-3.156 2.015,-4.199c0.002,0 0.005,-0.005 0.007,-0.005zm7.627,-2.148c0,1.629 0.737,3.161 2.024,4.204c0.242,0.195 0.537,0.293 0.83,0.293c0.386,0 0.768,-0.169 1.028,-0.493c0.459,-0.568 0.37,-1.398 -0.198,-1.855c-0.661,-0.537 -1.041,-1.323 -1.041,-2.148c0,-0.825 0.382,-1.611 1.045,-2.148c1.283,-1.043 2.02,-2.575 2.02,-4.204s-0.736,-3.156 -2.02,-4.199c-0.664,-0.537 -1.045,-1.323 -1.045,-2.148s0.382,-1.611 1.045,-2.153c0.566,-0.457 0.652,-1.287 0.191,-1.855c-0.46,-0.563 -1.292,-0.657 -1.86,-0.19c-1.283,1.043 -2.02,2.57 -2.02,4.199c0,1.625 0.737,3.156 2.02,4.199l0.002,0l0.002,0.005c0.662,0.537 1.041,1.318 1.041,2.144s-0.382,1.611 -1.045,2.153c-1.282,1.04 -2.019,2.571 -2.019,4.196zm11.669,2.148c-1.282,1.043 -2.02,2.574 -2.02,4.204c0,1.625 0.737,3.156 2.02,4.199c0.247,0.2 0.542,0.297 0.835,0.297c0.384,0 0.764,-0.168 1.025,-0.488c0.461,-0.568 0.375,-1.398 -0.191,-1.86c-0.661,-0.542 -1.043,-1.323 -1.043,-2.148c0,-0.83 0.382,-1.611 1.043,-2.153c1.283,-1.039 2.02,-2.57 2.02,-4.199c0,-1.625 -0.736,-3.156 -2.02,-4.199c-0.661,-0.542 -1.043,-1.327 -1.043,-2.153s0.38,-1.607 1.041,-2.144c0.566,-0.462 0.654,-1.296 0.193,-1.86c-0.457,-0.568 -1.287,-0.657 -1.857,-0.195c-1.285,1.039 -2.022,2.57 -2.022,4.199s0.737,3.16 2.02,4.204c0.664,0.537 1.046,1.323 1.046,2.148c0,0.826 -0.38,1.611 -1.041,2.148l-0.006,0zm36.185,56.633c0,1.46 -1.184,2.641 -2.642,2.641l-84.715,0c-1.458,0 -2.643,-1.181 -2.643,-2.641c0,-1.465 1.185,-2.646 2.643,-2.646l3.564,0c1.309,-19.366 16.816,-34.861 36.19,-36.153c-0.007,-0.066 -0.04,-0.125 -0.04,-0.195l0,-1.42c0,-1.46 1.183,-2.641 2.643,-2.641c1.46,0 2.643,1.181 2.643,2.641l0,1.42c0,0.071 -0.033,0.129 -0.04,0.195c19.375,1.292 34.882,16.787 36.19,36.153l3.564,0c1.459,0 2.643,1.181 2.643,2.646zm-81.147,-2.646l72.296,0c-1.36501,-18.771 -17.034,-33.64 -36.149,-33.64s-34.783,14.869 -36.147,33.64zm67.087,-5.55701c-1.583,-6.378 -4.979,-12.13499 -9.812,-16.645c-1.07,-0.994 -2.739,-0.941 -3.737,0.133c-0.997,1.065 -0.937,2.739 0.128,3.737c4.08801,3.805 6.951,8.665 8.287,14.049c0.3,1.203 1.378,2.006 2.565,2.006c0.211,0 0.42699,-0.026 0.64,-0.075c1.417,-0.356 2.28,-1.789 1.929,-3.205z"/>
  </symbol>
 </defs>
 <g>
  <title>Layer 1</title>
  <use fill="#ffffff" x="0" y="0" transform="matrix(0.9559748457662707,0,0,0.965408751331033,1.867924451828003,1.896226167678833) " xlink:href="#svg_2" id="svg_3"/>
 </g>
</svg>