<svg xmlns="http://www.w3.org/2000/svg" xmlns:xlink="http://www.w3.org/1999/xlink" version="1.1" id="Layer_1" x="0px" y="0px" width="90px" height="90px" viewBox="0 0 90 90" enable-background="new 0 0 90 90" xml:space="preserve">
<path d="M57.117,36.666c-2.423-0.414-2.342,0.359-1.795,0.934c0.803,0.838,1.694,1.871,2.132,2.416  c0.574,0.719,0.099,1.27-0.312,1.148c-1.045-0.305-5.672-4.211-8.859-5.422c-1.485-0.564-3.775-0.584-4.016,0.32  c-0.213,0.807,4,3.604,4.065,4.686c0.009,0.143,0.063,0.727-0.796,0.598c-0.954-0.145-6.762-4.801-8.869-5.303  c-1.451-0.346-4.018-0.285-3.957,0.834c0.024,0.42,3.733,3.156,4.15,3.811c0.26,0.408-0.287,1.244-1.456,0.539  c-0.779-0.467-6.459-3.854-7.231-3.805c-1.987,0.129-4.63,1.162-6.586,1.867c-3.863,1.191-15.739,5.609-12.375,11.08  c2.257,3.67,25.09,4.297,33.451,4.285c8.579-0.014,31.95-0.688,34.317-4.285C82.683,44.539,59.462,37.066,57.117,36.666z"/>
</svg>