<svg xmlns="http://www.w3.org/2000/svg" xmlns:xlink="http://www.w3.org/1999/xlink" version="1.1" id="Your_Icon" x="0px" y="0px" width="100px" height="100px" viewBox="0 0 100 100" enable-background="new 0 0 100 100" xml:space="preserve">
<path d="M91.845,49.72c1.215-4.03-0.344-8.534-4.078-10.886c-0.449-0.281-4.331-2.684-10.884-5.066  c-3.277-1.189-7.627-2.371-12.145-3.259C62.74,30.116,61,29.794,58,29.542v-8.461c0,0-1.391,3.52-1.875,8.243  c-2.107-0.178-4.075-0.298-6.342-0.298c-2.237,0-3.902,0.118-5.984,0.292C43.314,24.598,42,21.082,42,21.082v8.45  c-3,0.253-4.776,0.579-6.801,0.976c-6.787,1.333-12.476,3.321-16.361,5.012c-3.887,1.695-6.257,3.094-6.591,3.303  C8.5,41.168,6.886,45.678,8.101,49.715l-1.744-0.051l0.945,1.777l0.951,1.777l0.792-1.288c0.023,0.041,0.046,0.079,0.07,0.119  c2.813,4.489,8.732,5.852,13.224,3.039c0.356-0.211,3.216-1.868,7.842-3.485c2.457-0.859,5.783-1.708,9.118-2.34  C40.052,49.122,40,48.994,42,48.875v8.807l4,7.438v5.355v0.894V85h8V71.37v-0.894v-5.355l4-7.438v-8.798  c2,0.136,2.184,0.29,3.035,0.458c5.143,1.009,9.537,2.534,12.361,3.77c1.412,0.617,2.582,1.161,3.256,1.524  c0.338,0.182,0.853,0.317,0.983,0.396C77.694,55.064,78,55.082,78,55.093v-0.004v0.012V55h-0.276h-0.074l-0.043,0.046l-0.049,0.006  c4.484,2.823,10.4,1.489,13.226-2.994c0.055-0.088,0.102-0.169,0.152-0.257l0.87,1.415l0.957-1.775l0.957-1.777L91.845,49.72z   M55.53,53.813c0,0-2.147,4.91-5.505,4.91c-3.357,0-5.505-4.91-5.505-4.91s-0.001-2.146-0.055-5.328  c1.769-0.167,3.608-0.266,5.52-0.266c1.942,0,3.808,0.105,5.6,0.277C55.53,51.673,55.53,53.813,55.53,53.813z M22.34,55.088  c0,0.001-0.001,0.001-0.002,0.001c-0.002,0.003-0.005,0.003-0.007,0.004L22.34,55.088z M77.586,55.105l-0.004-0.003  c0-0.001-0.004-0.004-0.005-0.004l0.003,0.003L77.586,55.105z M22.294,55.117l0.004-0.004c0,0,0.002,0,0.003-0.001  c0.002-0.001,0.005-0.005,0.008-0.006c0.003-0.003,0.015-0.01,0.021-0.014l-0.024,0.015C22.3,55.113,22.295,55.117,22.294,55.117z"/>
</svg>