<svg xmlns="http://www.w3.org/2000/svg" xmlns:xlink="http://www.w3.org/1999/xlink" version="1.1" id="&#1057;&#1083;&#1086;&#1081;_1" x="0px" y="0px" width="100px" height="100px" viewBox="0 0 100 100" enable-background="new 0 0 100 100" xml:space="preserve">
<g>
	<path d="M50,20C25.147,20,5,33.432,5,50c0,16.567,20.147,30,45,30c24.853,0,45-13.433,45-30C95,33.432,74.853,20,50,20z    M74.479,31.148c0.253-0.442,3.038,0.514,3.349,0.617c1.218,0.404,2.42,1.001,3.467,1.745c1.81,1.47,3.169,3.765,3.783,6.013   c-0.458-0.201-0.923-0.322-1.414-0.414c-0.232-0.641-0.537-1.258-0.872-1.851c-0.486-0.86-1.075-1.839-1.854-2.474   c-1.126-0.92-2.465-1.516-3.832-1.989c-0.775-0.27-1.021-0.49-1.678-0.972C75.176,31.637,74.366,31.204,74.479,31.148z    M81.35,38.973c-0.742,0.031-1.487-1.889-1.904-2.542C80.206,37.191,80.757,38.085,81.35,38.973   C81.337,38.974,81.347,38.969,81.35,38.973z M73.734,31.447c3.016,1.211,5.204,4.84,6.652,7.594   c-0.415,0.049-0.832,0.096-1.241,0.175c-0.088,0.016-0.732-1.205-0.809-1.332c-0.541-0.836-1.11-1.639-1.726-2.422   c-1.294-1.517-2.555-2.937-4.654-3.132c-1.685-0.155-3.422-0.037-5.091,0.225c-0.952,0.15-1.897,0.33-2.83,0.574   c-0.687,0.18-0.96,0.311-1.61,0.098c-0.444-0.131-0.883-0.287-1.335-0.396c1.783-0.721,3.632-1.135,5.521-1.462   C68.776,31.029,71.648,30.625,73.734,31.447C73.79,31.469,73.617,31.4,73.734,31.447z M75.136,43.232   c2.948,0.684,2.828,4.581,1.917,6.859c-0.466,1.125-1.408,1.972-2.322,2.733c-0.523,0.393-1.249,1.198-1.891,1.269   c-0.759,0.078-2.091,0.189-2.602,0.821c-0.357,0.43-0.318,0.928-0.815,1.181c-0.733,0.354-1.468,0.697-2.227,0.994   c-0.8,0.313-1.6,0.614-2.416,0.882c-1.847,0.604-3.703,1.134-5.59,1.598c-3.178,0.782-6.504,1.364-9.782,1.121   c-2.148-0.16-4.445-1.789-5.709-3.513c-1.172-1.563-1.339-3.569-1.576-5.451c-0.188-1.493-0.507-2.828-0.215-4.319   c0.86,0.807,1.032,0.709,0.914,2.003c-0.058,1.184-0.024,2.338,0.164,3.507c0.361,2.198,1.896,4.182,3.731,5.405   c2.711,1.879,6.289,1.27,9.364,0.667c3.523-0.88,7.014-1.604,10.415-2.929c3.915-1.525,9.861-4.06,9.861-8.951   c0.011-0.593,0.025-1.446-0.302-1.969c-0.957-0.628-1.645-0.909-2.863-0.87c-1.215,0.028-2.439,0.246-3.603,0.591   c-2.635,0.783-3.931,2.51-5.191,4.875c0-1.102,0.99-2.263,1.369-3.336c0.272-0.408,0.132-1.01,0.542-1.318   c0.435-0.435,1.078-0.696,1.639-0.929C70.132,43.291,72.808,42.69,75.136,43.232z M75.01,42.688   c0.275-0.102,0.552-0.202,0.828-0.303c0.06,0.19,0.109,0.376,0.129,0.576C75.656,42.839,75.337,42.751,75.01,42.688   C75.047,42.674,75.053,42.696,75.01,42.688z M77.395,43.109c-0.993,0.441-0.768-0.031-1.07-0.885   c0.317-0.1,0.635-0.201,0.954-0.292C77.441,42.317,77.46,42.703,77.395,43.109C77.377,43.117,77.423,42.933,77.395,43.109z    M77.931,42.833c0.041-0.357-0.018-0.702-0.155-1.034c1.179-0.294,1.261-0.434,1.379,0.834c-0.063,1.226-0.335,1.708-1.29,2.488   C77.786,44.837,77.505,42.887,77.931,42.833z M79.498,44.282c0.835-0.955,0.993-1.751,0.575-2.957   c1.008-0.126,1.478-0.275,1.478,1.062c0.059,0.964-0.359,1.774-0.97,2.491c-0.241,0.295-2.458,2.565-2.524,1.467   c-0.047-0.769-0.047-0.661,0.578-1.208C78.924,44.848,79.229,44.591,79.498,44.282z M82.066,42.588   c0-0.475-0.104-0.955-0.236-1.408c0.852,0.008,0.865,0.679,0.945,1.466c0.066,0.653,0.066,1.306,0.032,1.961   c-0.069,1.434-0.303,2.933-0.882,4.255c-0.146-0.568-0.604-0.598-1.107-0.492c0.384-0.853,0.566-1.812,0.682-2.733   c0.066-0.518-0.002-1.1,0.229-1.564C81.979,43.657,82.097,43.065,82.066,42.588C82.066,42.577,82.068,42.62,82.066,42.588z    M83.329,43.258c-0.027-0.75,0.232-0.897,0.579-1.512c0.288-0.399,0.88,0.034,1.11,0.484c-0.392,0.675-0.96,1.618-1.686,1.98   C83.333,43.893,83.347,43.577,83.329,43.258C83.327,43.205,83.352,43.68,83.329,43.258z M83.318,47.347   c0.385-0.822,0.518-1.448,0.176-2.312c-0.145-0.366,0.561-0.781,0.854-1.052c1.666,3.449-1.527,6.552-4.183,8.442   c0.111-0.407,0.219-0.816,0.306-1.229c0.439-0.212,0.796-0.458,1.119-0.82C82.362,49.566,82.746,48.297,83.318,47.347   C83.372,47.232,83.251,47.459,83.318,47.347z M82.816,51.998c-0.36,0.199-0.744,0.347-1.135,0.475   c-0.4-0.601,0.183-0.744,0.648-1.198C82.497,51.512,82.66,51.754,82.816,51.998C82.736,52.043,82.735,51.871,82.816,51.998z    M79.593,49.481c0.159,0.873,0.562,0.881,0.343,1.774c-0.192,0.788-0.402,1.57-0.611,2.354c-0.205,0.855-0.373,1.607-0.194,2.479   c0.128,0.615,0.31,1.217,0.487,1.819c0.238,0.788-0.251,1.189-0.729,1.819c-0.36-1.293-0.803-2.563-1.035-3.887   c-0.104-1.111,0.258-2.386,0.547-3.465c0.294-1.099,1.43-3.914-0.399-4.11c0.058-0.397,0.077-0.816,0.077-1.216   c0.573,0.053,1.274,0.238,1.652,0.711C80.627,48.884,79.395,48.462,79.593,49.481z M79.534,55.255   c0.329-0.082,0.673-0.116,1.005-0.185c-0.104,0.62-0.378,1.184-0.72,1.706C79.691,56.28,79.529,55.771,79.534,55.255   C79.536,55.254,79.533,55.358,79.534,55.255z M67.651,65.654c-0.811-0.235-1.517-0.817-2.102-1.397   c-0.372-0.368-0.707-0.769-1.036-1.176c-0.493-0.739,0.017-0.263,0.017-1.024c0.433,0.288,1.048,0.428,1.372,0.804   c0.149,0.111,1.392,1.557,1.561,1.388c1.561,0.88,3.758,0.958,5.507,0.858C71.19,65.997,69.533,66.301,67.651,65.654   C67.552,65.625,67.715,65.676,67.651,65.654z M67.188,66.021c-0.307,0.817-0.848,0.733-1.642,0.798   c0.212-0.458,0.398-0.923,0.57-1.397C66.466,65.663,66.805,65.841,67.188,66.021C67.186,66.03,67.171,66.014,67.188,66.021z    M60.042,65.995c-0.318,0.182-1.242,0.837-1.605,0.785c-0.659-0.083-1.252-0.297-1.864-0.541c0.787,0,2.013-0.825,2.699-1.208   c0.27-0.15,0.673-0.547,0.938-0.37c0.336,0.213,0.692,0.404,1.07,0.53C60.907,65.494,60.462,65.768,60.042,65.995   C60.021,66.007,60.176,65.923,60.042,65.995z M60.393,66.382c-0.224,0.696-0.275,0.652-1.014,0.538   C59.715,66.738,60.059,66.569,60.393,66.382C60.384,66.409,60.225,66.476,60.393,66.382z M56.103,63.67   c-0.431,0.377-1.377,1.978-1.774,1.363c-0.115-0.175-0.524-0.638-0.408-0.786c0.327-0.43,0.693-0.835,1.084-1.211   c0.397-0.397,1.119-0.369,1.602-0.734c0.796-0.667,1.019-1.361,2.221-1.143c-0.23,0.279-0.445,0.605-0.547,0.957   c-0.119,0.412-0.162,0.143-0.456,0.376C57.273,62.927,56.627,63.176,56.103,63.67C55.984,63.773,56.296,63.487,56.103,63.67z    M56.443,65.744c-0.566,0.212-0.824,0.077-1.342-0.205c0.171-0.24,0.357-0.468,0.55-0.69   C55.932,65.129,56.164,65.461,56.443,65.744C56.419,65.753,56.262,65.559,56.443,65.744z M52.145,66.342   c0.23,0.15,0.457,0.306,0.689,0.452c-0.272,0.07-0.55,0.116-0.825,0.168C52.094,66.773,52.154,66.549,52.145,66.342   C52.197,66.377,52.146,66.385,52.145,66.342z M52.204,67.443c0.456-0.097,1.097-0.371,1.505-0.133   c0.428,0.263,0.89,0.47,1.339,0.692c-1.265,0-2.818,0.693-4.098,0.876c-1.063,0.152-2.119,0.213-3.191,0.234   c-2.913,0.063-5.136-1.025-7.115-3.109c-3.073-3.237-6.089-8.023-6.089-12.607c0.039-2.541,2.822-4.753,4.715-6.057   c0.496-0.347,1.029-0.63,1.531-0.964c0.062,0.008,0.664,0.612,0.668,0.634c-0.167,0.84-1.87,1.567-2.525,2.1   c-1.034,0.842-2.099,1.815-2.767,2.989c-0.694,1.226-0.416,2.676-0.035,3.963c0.608,2.071,1.639,4.098,2.855,5.881   c1.242,1.933,3.051,4.45,5.235,5.359C46.672,68.347,49.68,67.907,52.204,67.443C52.231,67.438,52.111,67.461,52.204,67.443z    M39.398,72.628c-1.086-0.358-2.063-0.93-2.995-1.587c0.324-0.115,1.176-0.653,1.454-0.489c0.829,0.5,1.678,0.905,2.622,1.138   c1.402,0.409,2.761,0.476,4.148-0.017c1.377-0.429,2.746-1.034,3.991-1.764c0.903-0.538,1.984-0.444,3.016-0.613   C48.37,72.123,43.617,74.1,39.398,72.628z M39.6,73.228c-1.555-0.09-3.007-0.967-4.262-1.819c0.689-0.229,1.015,0.206,1.602,0.598   C37.789,72.521,38.648,72.936,39.6,73.228C39.446,73.219,39.393,73.164,39.6,73.228z M41.961,68.814   c0.475-0.028,0.937-0.223,1.373-0.029c0.437,0.191,0.863,0.349,1.319,0.473c-1.274,0.915-3.833,1.169-5.157,0.304   c0.298,0,0.931-0.653,1.133-0.814C41.073,68.85,41.508,68.841,41.961,68.814C42.01,68.812,41.573,68.837,41.961,68.814z    M39.696,70.832c1.208,0.482,3.298,0.308,4.508-0.109c0.604-0.195,0.963-0.64,1.27-1.175c0.106-0.187,1.171-0.043,1.267,0.174   c-1.988,2.146-4.938,1.871-7.443,1.035C39.43,70.782,39.563,70.807,39.696,70.832C39.698,70.833,39.513,70.801,39.696,70.832z    M47.247,69.609c0.286,0.015,0.57,0.014,0.856,0.006c-0.226,0.127-0.459,0.242-0.69,0.36C47.356,69.854,47.303,69.73,47.247,69.609   C47.286,69.611,47.276,69.673,47.247,69.609z M50.233,70.948c0.307,0,0.416-0.618,0.756-0.335c0.384,0.314,0.786,0.604,1.199,0.879   c0.859,0.57,1.847,1.168,2.871,1.366c-1.702,1.094-4.112-0.369-5.043-1.773C50.088,71.039,50.161,70.993,50.233,70.948z    M52.58,71.142c0.421-0.404,0.829-0.805,1.21-1.247c0.301,0.271,0.613,0.526,0.948,0.754c-0.252,0.305-0.522,0.591-0.802,0.87   C53.507,71.949,53.061,71.451,52.58,71.142C52.606,71.117,52.659,71.192,52.58,71.142z M54.592,69.91   c-0.38-0.301-0.722-0.632-1.042-0.995c0.823-0.19,0.787-0.184,1.361,0.407c0.532,0.547,1.077,1.069,1.64,1.585   C55.821,70.785,55.158,70.374,54.592,69.91C54.403,69.762,54.756,70.045,54.592,69.91z M56.311,69.999   c-0.494-0.444-0.948-0.938-1.395-1.43c0.784-0.223,0.942-0.183,1.708,0.072c1.115,0.258,0.612,1.275,0.264,1.885   C56.695,70.351,56.503,70.175,56.311,69.999z M34.042,63.525c-0.419,0.359-0.853,0.839-1.071,1.353   c-0.42,0.017-0.847,0.02-1.264-0.043c-0.045,0,0.787-1.457,0.989-1.678c0.516-0.55,1.102-0.979,1.687-1.448   c0.518-0.356,1.059-0.682,1.621-0.963c0.354-0.169,0.615,0.628,0.809,0.952C35.811,62.187,34.874,62.779,34.042,63.525   C34.025,63.54,34.071,63.499,34.042,63.525z M29.926,55.876c-1.378-0.092-1.728,1.093-3.034,1.409   c-0.604,0.146-1.136-0.157-1.768-0.382c1.179-0.765,2.495-1.344,3.824-1.786c0.628-0.213,1.269-0.378,1.918-0.505   c1.045-0.206,0.999,0.016,1.178,1.051C31.315,55.747,30.654,55.924,29.926,55.876C29.807,55.868,30.101,55.888,29.926,55.876z    M30.348,62.476c-0.122,0.469-0.226,0.941-0.305,1.418c-0.653-0.567-1.558-1.565-1.693-2.465c0.404-0.048,0.804-0.133,1.201-0.219   C29.63,61.654,30.049,62.151,30.348,62.476C30.288,62.707,30.133,62.242,30.348,62.476z M24.463,58.493   c-0.896-0.323-1.787-0.654-2.677-0.994c0.791-1.408,1.933-0.56,3.083-0.146c0.997,0.357,1.997,0.703,2.99,1.069   c-0.404,0.234-1.143,0.875-1.573,0.72C25.68,58.923,25.071,58.708,24.463,58.493z M24.68,59.387   C24.652,59.387,24.664,59.383,24.68,59.387C24.674,59.387,24.676,59.386,24.68,59.387z M21.188,58.075   c0.036,0.327,0.15,0.634,0.313,0.924c-0.448-0.109-1.455-0.194-1.507-0.704c-0.056-0.543-0.021-1.046,0.242-1.538   c0.278-0.49,0.895-0.389,1.42-0.615c0.468-0.201,0.926-0.48,1.329-0.789c0.818-0.604,1.42-1.452,2.327-1.882   c0.808-0.384,1.674-0.661,2.497-1.011c0.866-0.368,1.588-1.159,2.479-1.03c0.854,0.112,1.641-0.232,2.166,0.511   c0.845,1.69,1.566,3.372,1.371,5.318c-0.587-0.587-1.117-0.359-1.218-1.257c-0.086-0.858-0.319-1.727-0.675-2.513   c-0.142-0.315-0.708-1.649-1.214-1.396c-0.74,0.308-1.352,0.996-2.114,1.346c-1.344,0.57-2.714,1.079-4.052,1.661   C24.274,55.219,20.123,57.315,21.188,58.075z M19.443,56.501c-0.39-0.194-1.469-0.458-1.188-1.081   c0.44,0.482,0.953,0.832,1.595,0.979C19.697,56.705,19.796,56.662,19.443,56.501C19.312,56.436,19.542,56.546,19.443,56.501z    M19.549,57.106c-0.045,0.191-0.076,0.384-0.092,0.578c-0.438-0.353-0.713-0.585-0.945-1.08   C18.822,56.81,19.212,56.956,19.549,57.106C19.502,57.313,19.448,57.062,19.549,57.106z M19.562,55.778   c-1.629-0.658-2.438-3.145-2.746-4.687c0.346,0.457,0.781,1.021,1.338,1.219c0.491,0.17,0.682,0.964,0.975,1.424   c0.57,0.893,1.199,1.203,2.156,0.676c1.812-0.998,3.354-2.963,4.201-4.822c0.329,0.188,1.149,0.405,0.97,0.786   c-0.168,0.351-0.372,0.691-0.58,1.02c-0.556,0.872-1.201,1.689-1.925,2.427C22.906,54.894,21.183,56.437,19.562,55.778   C19.434,55.727,19.733,55.848,19.562,55.778z M16.178,47.5c0.462-2.059,1.115-3.553,2.625-5.04c0.028,0.405,0.141,0.819,0.308,1.19   c0.135,0.298-1.099,1.57-1.306,1.891c-0.247,0.382-0.432,0.797-0.588,1.225C16.972,47.434,16.892,47.206,16.178,47.5   C16.218,47.321,16.411,47.404,16.178,47.5z M16.724,52.682c-0.863-0.908-0.956-2.029-0.854-3.226   C16.253,50.502,16.34,51.613,16.724,52.682C16.511,52.457,16.623,52.399,16.724,52.682z M21.969,49.72   c0.229-0.314,0.458-0.628,0.687-0.942c0.171-0.234,0.344-0.465,0.52-0.696c0.326,0.24,0.658,0.468,0.994,0.694   c-0.508,0.677-0.99,1.376-1.512,2.042c-0.849,1.08-2.04,1.785-3.124,2.602c-0.198-0.333-0.381-0.661-0.528-1.02   c0.933-0.057,0.889-0.75,1.489-1.187C21.089,50.781,21.534,50.314,21.969,49.72z M21.718,46.899   c0.011,0.009,0.655,0.477,0.655,0.561c0.378,0.511,0.309,0.417-0.072,0.942C22.039,47.954,21.843,47.399,21.718,46.899z    M24.25,49.509c0.088-0.26,0.538-0.642,0.747-0.204c-0.008-0.017-0.11,0.576-0.223,0.572c-0.337,0.543-0.313,0.495-0.938,0.2   C23.974,49.888,24.112,49.698,24.25,49.509z M23.536,51.703c-0.257,0.319-0.53,0.628-0.819,0.92   c-0.617-0.769-0.169-0.835,0.404-1.575C23.244,51.273,23.385,51.494,23.536,51.703C23.341,51.945,23.481,51.627,23.536,51.703z    M21.639,53.569c-0.699,0.52-0.983,0.774-1.586,0.095C20.907,53.019,20.876,52.824,21.639,53.569   C21.38,53.762,21.474,53.408,21.639,53.569z M21.13,47.366c-0.481,0.425-0.89,0.904-1.039,1.542   c-0.447-0.871-0.906-0.861-0.161-1.673c0.333-0.361,0.7-0.69,1.067-1.016C21.193,46.415,21.333,47.178,21.13,47.366   C20.865,47.6,21.179,47.32,21.13,47.366z M20.178,46.268c-0.354,0.356-0.702,0.704-1.025,1.089   c-0.342,0.41-0.981,0.009-1.518-0.023c0.597-0.911,1.425-1.689,2.23-2.41c0.24,0.325,0.504,0.633,0.779,0.928   C20.489,45.99,20.333,46.129,20.178,46.268C19.919,46.527,20.364,46.102,20.178,46.268z M27.191,51.36   c0.004-0.215-0.088-0.384-0.088-0.584c0.633-0.147,1.42,0.018,1.281,0.862c-0.573,0.279-1.162,0.521-1.755,0.754   C26.867,52.121,27.191,51.751,27.191,51.36C27.196,51.13,27.191,51.364,27.191,51.36z M32,47.518   c-0.068-0.178-0.133-0.356-0.198-0.536c0.425,0.15,0.857,0.295,1.299,0.387c0.323,0.081,0.438,0.755,0.613,1.049   c0.304,0.629,0.664,1.217,1.074,1.782c0.446,0.613-0.019,0.804-0.329,1.476C33.302,50.583,32.571,48.979,32,47.518   C31.987,47.485,32.039,47.618,32,47.518z M31.429,48.458c-1.209,0.723-1.683,0.663-2.979,0.114   c0.755-0.294,1.465-0.661,2.175-1.046C31.081,47.657,32.252,47.961,31.429,48.458z M23.436,43.831   c-0.345,0.204-0.698,0.413-1.021,0.649c-0.282-0.292-0.548-0.599-0.788-0.926c0.935-0.669,1.992-1.299,3.065-1.726   c0.09,0.644,0.514,1.085-0.132,1.398C24.176,43.411,23.801,43.615,23.436,43.831z M23.542,45.534   c-0.402-0.34-0.793-0.653-0.197-1.051C23.402,44.83,23.431,45.198,23.542,45.534C23.471,45.474,23.524,45.481,23.542,45.534z    M22.385,42.219c-0.046,0.458-0.665,0.641-1.04,0.911c-0.674-1.129,0.004-3.194,0.489-4.304c0.199,0.303,0.468,0.56,0.747,0.785   c0,0-0.107,0.946-0.107,0.946C22.415,41.106,22.382,41.667,22.385,42.219z M30.814,30.737c-0.583,0.288-1.16,0.584-1.728,0.901   c0.03-0.59,1.396-0.834,1.949-1.005C30.961,30.667,30.888,30.702,30.814,30.737C30.745,30.771,30.889,30.702,30.814,30.737z    M29.425,32.396c0.91-0.26,1.854-0.438,2.806-0.396c1.124,0.078,1.479,0.887,2.403,1.469c-0.932,0.355-0.843,0.072-1.813-0.169   c-0.22-0.055-2.743-0.174-2.734,0.17c-0.238-0.238-2.636,0.964-2.929,1.108c-1.041,0.507-2.041,1.078-3.021,1.693   c0.527-0.946,1.602-1.884,2.5-2.454c0.539-0.341,0.66-0.26,1.306-0.425C28.639,33.216,28.719,32.596,29.425,32.396   C29.474,32.382,29.301,32.432,29.425,32.396z M26.807,37.781c0.855-1.179,2.416-2.176,3.882-1.488   c-0.458,0.767-1.044,0.658-1.917,0.864c-0.276,0.059-0.542,0.149-0.809,0.24C27.963,37.316,26.506,38.192,26.807,37.781   C27.008,37.503,26.774,37.826,26.807,37.781z M26.549,37.275c-0.168-0.376-0.417-0.796-0.848-0.884   c1.06-1.374,2.852-1.994,4.502-2.425C28.752,34.711,27.523,35.985,26.549,37.275C26.531,37.232,26.704,37.07,26.549,37.275z    M24.632,41.304c-0.273,0.111-0.536,0.236-0.801,0.364c0.035-0.408,0.079-0.816,0.153-1.22   C24.716,40.751,24.575,40.477,24.632,41.304C24.543,41.34,24.623,41.166,24.632,41.304z M26.333,33.411   c-0.673,0.523-1.332,1.054-1.91,1.684c-0.578,0.632-0.827,1.601-1.647,1.874c0.855-1.603,2.017-3.103,3.535-4.114   c-0.02,0.185,0.008,0.346,0.163,0.456C26.426,33.344,26.379,33.377,26.333,33.411z M23.197,41.991   c-0.102,0.056-0.203,0.113-0.304,0.17c0-0.737,0.07-1.477,0.158-2.208C23.532,40.266,23.177,41.424,23.197,41.991   C23.102,42.043,23.195,41.948,23.197,41.991z M23.994,44.099c0.324-0.191,0.662-0.356,1.001-0.519   c0.055,0.708,0.153,1.343,0.381,2.014c-0.39,0.085-0.775,0.293-1.085,0.539C24.162,45.762,23.557,44.334,23.994,44.099   C24.014,44.087,23.934,44.131,23.994,44.099z M25.06,46.252c1.223-0.591,2.114,0.553,2.114,1.721   c-0.852-0.446-1.672-0.957-2.45-1.523C24.836,46.384,24.948,46.318,25.06,46.252C25.212,46.179,24.954,46.304,25.06,46.252z    M27.169,45.391c-1.432-0.887-2.082-2.972-2.038-4.587c0.004-0.214,0.461-0.313,0.624-0.498c0.482-0.549,0.492-1.597,1.124-1.909   c1.074-0.531,2.198-0.815,3.375-1.022c-0.117,0.41-0.187,0.841-0.227,1.264c-0.909,0.147-1.887,0.433-2.694,0.889   c-1.211,0.673-1.078,1.699-0.737,2.921c0.138,0.479,0.331,0.961,0.623,1.368c0.413,0.563,1.145,0.773,1.573,1.299   c0.695,0.859,2.187,1.101,2.549,2.085C29.89,46.776,28.404,46.292,27.169,45.391C26.995,45.283,27.211,45.422,27.169,45.391z    M28.389,44.142c-0.553-0.354-0.873-0.709-1.125-1.32c0.688-0.159,0.938-0.162,1.006,0.515   C28.303,43.616,28.389,43.863,28.389,44.142C28.323,44.1,28.389,44.133,28.389,44.142z M28.39,42.295   c-0.001,0.004-1.327-0.058-1.309,0.002c-0.103-0.381-0.197-0.758-0.227-1.152c1.002,0,1.796-0.217,2.722,0.304   c-0.247,0.321-0.468,0.661-0.66,1.018C28.866,42.439,28.436,42.227,28.39,42.295z M29.187,40.723c0.529-0.78,1-0.715,0.612,0.269   C29.6,40.879,29.401,40.797,29.187,40.723C29.196,40.709,29.367,40.786,29.187,40.723z M29.979,39.266   c-0.43,0.324-0.805,0.696-1.161,1.096c-0.276,0.445-0.976,0.152-1.473,0.199c0.081-0.231,0.985-1.42,1.331-1.052   C28.999,39.399,29.825,39.067,29.979,39.266z M31.728,38.927c-0.021,0.218-0.031,0.433-0.037,0.65   c-0.006,0.254-0.858,0.902-1.201,0.902c-0.098-2.238,0.285-4.458,2.402-5.651c0.362-0.208,1.949-1.208,2.399-1.011   c1.105,0.458,1.043-0.093,1.823-0.516c1.037-0.563,2.869-0.526,4.04-0.673c1.093-0.138,2.188-0.25,3.283-0.361   c-1.046,0.524-1.792,1.396-2.957,1.54c-1.074,0.133-2.136,0.311-3.202,0.488C35.483,34.821,32.077,35.633,31.728,38.927   C31.72,39.002,31.737,38.843,31.728,38.927z M36.692,31.506c0.333,0.257,0.663,0.517,0.981,0.793   c0.058,0.584-0.315,0.417-0.795,0.533C36.877,32.386,36.809,31.937,36.692,31.506C36.753,31.553,36.731,31.649,36.692,31.506z    M38.592,28.21c-0.118,0.02-0.235,0.039-0.353,0.058c0.044-0.424,0.132-0.85,0.238-1.264c0.458-0.053,0.911-0.1,1.37-0.131   c0.673-0.047,1.354-0.014,2.023,0.073c1.078,0,2.585,0.678,3.152,1.607c-0.701-0.169-1.404,0.181-2.049-0.084   c-0.261-0.108-0.534-0.173-0.806-0.241C41.002,27.949,39.764,28.07,38.592,28.21z M38.673,28.713   c-0.142,0.397-0.274,0.794-0.396,1.198C37.793,29.544,38.078,28.713,38.673,28.713C38.627,28.843,38.672,28.713,38.673,28.713z    M57.656,25.994c1.352,0.14,2.731,0.32,3.746,1.299c-0.856,0.463-2.721-0.337-3.699-0.28C57.71,26.667,57.683,26.34,57.656,25.994   C57.709,25.999,57.685,26.365,57.656,25.994z M61.192,26.452c0.121-0.121-2.603-1.058-2.603-0.86c-1.167,0-0.99-0.465-1.416-1.354   c1.54,0.154,3.289,0.214,4.603,1.149c1.093,0.778,1.984,1.868,2.678,3.015c-0.517-0.196-1.074-0.384-1.607-0.526   C62.596,27.804,61.168,26.578,61.192,26.452C61.189,26.455,61.201,26.403,61.192,26.452z M57.426,27.764   c3.8-0.31,7.573,1.15,10.894,2.888c-0.184,0.011-2.452,0.354-2.452,0.165c-0.942-0.233-1.865-0.767-2.796-1.068   c-1.911-0.619-3.753-0.931-5.761-0.758c-1.649,0.143-3.324,0.439-4.893,0.979c-1.346,0.46-2.611,0.585-3.998,0.905   C50.663,28.631,54.389,28.009,57.426,27.764z M68.007,29.073c0.981,0.389,1.439,0.463,1.689,1.493   C68.579,30.615,68.334,29.96,68.007,29.073C68.06,29.093,68.027,29.129,68.007,29.073z M65.217,31.094   c-0.592,0.113-0.625,0.218-0.861-0.349C64.647,30.85,64.932,30.973,65.217,31.094C65.176,31.103,65.143,31.063,65.217,31.094z    M63.886,34.298c2.006,0.786,4.223,2.088,5.005,4.216c0.364,1.015,0.486,2.051,0.563,3.121c0.033,0.47,0.046,0.956,0.016,1.427   c-0.006,0.11-1.128,0.401-1.227,0.434c0-3.26-0.28-5.84-3.45-7.449c-1.558-0.835-3.274-1.335-4.98-1.762   c-0.767-0.208-1.558-0.323-2.334-0.479c-0.732-0.115-1.207-0.964-1.74-1.483C58.52,32.681,61.271,33.265,63.886,34.298z    M63.809,33.719c0.213-0.059,0.424-0.115,0.639-0.168c0,0.139-0.003,0.278-0.008,0.417C64.231,33.877,64.02,33.799,63.809,33.719   C64.009,33.663,63.879,33.746,63.809,33.719z M64.955,33.428c0.401-0.085,0.802-0.168,1.205-0.243   c0.018,0.546,0.003,1.095-0.044,1.639c-0.306-0.194-0.627-0.354-0.954-0.51C64.825,34.153,64.96,33.778,64.955,33.428   C65.022,33.414,64.957,33.569,64.955,33.428z M68.795,33.751c0.736-0.547,0.859-0.367,1.551,0.152   c-0.745,0.07-1.483,0.179-2.213,0.347C68.347,34.074,68.573,33.916,68.795,33.751z M73.362,34.295   c0.566,0.668,1.131,1.431,1.352,2.297c-0.401,0.113-0.807,0.258-1.168,0.467c-0.438-1.934-2.354-3.225-3.909-4.261   c0.687-0.031,1.375-0.032,2.061,0.02C72.226,32.855,72.986,33.89,73.362,34.295C73.376,34.312,73.33,34.261,73.362,34.295z    M73.339,33.169c0.246-0.095,0.966,0.614,1.114,0.746C73.71,33.834,73.714,33.885,73.339,33.169   C73.349,33.166,73.385,33.257,73.339,33.169z M72.941,37.964c-0.521,0.924-0.824,0.843-1.836,0.925   c-0.462,0.044-0.912,0.097-1.367,0.191c-0.229,0.044-0.42-0.885-0.524-1.125c1.216-0.299,2.492-0.355,3.737-0.298   C72.89,37.754,72.886,37.857,72.941,37.964C72.931,37.983,72.918,37.904,72.941,37.964z M70.149,36.239   c-0.24,0.184-1.071,1.068-1.281,1.068c-0.087-0.159-0.201-0.297-0.319-0.434c0.253-0.164,0.537-0.553,0.815-0.599   C69.611,36.233,70.374,35.998,70.149,36.239z M70.452,36.648c0.722-0.538,1.892-1.126,2.396-0.097   c-0.643,0.35-0.995,0.568-1.75,0.612c-0.512,0.042-1.022,0.094-1.526,0.196C69.854,37.108,70.153,36.879,70.452,36.648z    M68.442,34.704c0.546-0.129,1.128-0.234,1.69-0.27c1.011-0.104,1.372,0.367,2.03,1.098c-0.946,0.012-1.887,0.077-2.821,0.23   c-0.498,0.082-1.006,0.179-1.486,0.336c-0.325-0.326-0.724-0.629-1.108-0.88C67.293,35.002,67.864,34.81,68.442,34.704   C68.495,34.691,68.304,34.729,68.442,34.704z M67.115,34.424c-0.146,0.142-0.271,0.245-0.478,0.261   c0-0.384,0.043-0.768,0.038-1.152C66.85,33.634,67.827,34.424,67.115,34.424z M66.352,43.834c0.002,0-0.154-1.031-0.231-1.201   c0.544-0.013,1.121-0.16,1.631-0.352c0,0.425-0.002,0.849-0.02,1.274C67.291,43.692,66.814,43.818,66.352,43.834z M66.184,48.995   c0.159,0.017,0.229,0.126,0.207,0.33c-0.405-0.002-0.812-0.003-1.217,0.008C65.509,48.733,65.547,48.801,66.184,48.995   C66.223,49.006,66.093,48.967,66.184,48.995z M65.271,49.839c2.939-0.083,6.195,0.066,8.956,1.159   c-0.344,0.344-0.902,0.95-1.377,0.813c-1.087-0.315-2.234-0.511-3.364-0.604c-1.701-0.146-3.39-0.172-5.096-0.139   C64.411,50.636,64.743,49.737,65.271,49.839z M66.701,48.25c0-0.825,0.205-1.368,0.779-1.919c-0.128,1.007-0.307,2.007-0.495,3.005   C66.76,49.336,66.699,48.365,66.701,48.25z M72.88,45.411c0.695,0.243,1.397,0.326,2.104,0.503   c0.667,0.074,0.808-0.118,0.856,0.599c-0.348,0.202-0.719,0.458-1.099,0.592c-1.586-0.176-3.427-0.779-4.652-1.84   C70.96,44.636,72.034,45.12,72.88,45.411C72.9,45.418,72.688,45.345,72.88,45.411z M72.706,44.801   c0.482-0.034,0.553-0.173,0.612,0.221C73.111,44.957,72.907,44.883,72.706,44.801C72.84,44.792,72.81,44.844,72.706,44.801z    M73.795,44.787c0.189,0.01,1.846,0.278,1.585,0.65C74.742,45.4,73.911,45.466,73.795,44.787   C73.843,44.789,73.813,44.885,73.795,44.787z M75.06,48.82c-0.82,0.311-1.612,0.699-2.362,1.152   c-0.225,0.126-1.436-0.271-1.725-0.313c1.453-1.069,3.131-1.881,4.867-2.363C75.84,48.04,75.86,48.608,75.06,48.82z M75.209,49.902   c-0.609,0.899-0.891,0.505-1.841,0.268C74.083,49.772,74.447,49.787,75.209,49.902C75.188,49.935,75.113,49.888,75.209,49.902z    M70.851,48.13c0.248-0.31,0.829,0.072,1.199,0.099C71.547,48.391,71.362,48.342,70.851,48.13   C70.891,48.081,70.968,48.179,70.851,48.13z M70.129,45.936c1.078,0.771,2.405,1.265,3.7,1.526   c-0.895,0.381-1.558,0.412-2.532,0.081c-1.017-0.508-1.636-0.691-1.497-1.861C69.86,45.771,70.053,45.881,70.129,45.936z    M70.158,47.549c0.098,0.078,0.224,0.152,0.336,0.213c-0.253,0.321-1.061-0.162-0.87-0.65   C69.791,47.27,69.969,47.416,70.158,47.549C70.197,47.58,69.939,47.396,70.158,47.549z M69.766,48.19   c0.271,0.131,0.537,0.268,0.816,0.38c-0.396,0.066-0.799,0.103-1.2,0.067c-0.012-0.169,0.037-0.446,0.096-0.594   C69.574,48.092,69.669,48.141,69.766,48.19z M69.454,49.152c0.529,0.029,1.036-0.045,1.554-0.14   c-0.729,0.501-0.9,0.528-1.777,0.444C69.219,49.251,69.279,49.148,69.454,49.152C69.473,49.153,69.396,49.151,69.454,49.152z    M69.296,45.61c-0.096,0.954-0.236,1.905-0.398,2.85c-0.048,0.276-0.103,0.551-0.153,0.827c-0.046,0.248-0.982,0.074-1.244,0.065   c0.147-0.785,0.284-1.57,0.401-2.36c0.049-0.327,0.069-0.664,0.135-0.987C68.036,45.873,69.321,45.39,69.296,45.61   C69.29,45.669,69.302,45.56,69.296,45.61z M69.398,53.898c0,0.049,0.229,0.184,0.202,0.168c-0.353-0.151-0.703-0.309-1.063-0.446   c-0.44-0.166-0.033-0.841,0.069-1.262c0.248-0.993,0.762-0.68,1.704-0.543C69.987,52.146,68.942,53.338,69.398,53.898z    M62.667,55.844c0.04,0.336,0.118,0.618,0.228,0.937c-0.654,0.203-1.016,0.507-1.311-0.1c-0.511-1.046,0.431-1.009,1.095-1.494   C62.666,55.404,62.637,55.627,62.667,55.844C62.679,55.943,62.662,55.809,62.667,55.844z M62.752,54.475   c-1.362,1.43-3.996,1.592-5.834,1.616c-1.739,0.022-3.515-0.179-5.2-0.616c-2.2-0.628-4.417-1.505-4.966-3.967   c-0.418-1.885-0.641-4.813,0.89-6.308c1.178-1.147,3.254-1.697,4.905-1.918c1.238-0.207,3.725-0.564,4.712,0.424   c2.266,1.435,2.888,3.467,2.501,5.98c-0.237,1.466-1.246,2.219-2.671,2.438c0.058-0.386,0.055-0.784-0.018-1.167   c-0.005-0.029,0.948-0.377,1.061-0.459c0.479-1.068,0.515-1.917,0.515-3.085c-0.467-2.834-3.409-3.284-5.733-2.959   c-1.767,0.229-4.512,0.744-5.014,2.75c-0.461,1.81-0.458,4.915,1.369,5.994c2.508,1.612,6.385,1.965,9.283,1.586   c1.72-0.225,3.646-0.619,3.977-2.606c0.354-1.699,0.2-3.688-0.278-5.345c0.302,0.038,1.202-0.237,1.267,0.056   c0.087,0.321,0.139,0.657,0.189,0.985c0.104,0.702,0.189,1.417,0.189,2.128C63.896,51.477,63.877,53.354,62.752,54.475   C62.742,54.486,62.898,54.33,62.752,54.475z M60.738,57.206c0.024,0.061,0.05,0.121,0.073,0.183   c-0.636,0.171-1.463,0.535-1.446-0.404c0.006-0.347,0.085-0.587,0.403-0.65C60.396,56.334,60.485,56.588,60.738,57.206   C60.748,57.23,60.689,57.087,60.738,57.206z M58.966,56.46c-0.109,0.502-0.236,1.004-0.399,1.491   c-0.237,0.219-1.093,0.243-1.386,0.301c0.059-0.155,0.473-1.677,0.52-1.677C58.121,56.575,58.549,56.514,58.966,56.46   C58.956,56.506,58.919,56.466,58.966,56.46z M54.989,58.124c0,0-0.096-0.3-0.169-0.367c-0.257-0.241-0.631-0.374-0.966-0.454   c-0.463-0.126-0.939-0.186-1.414-0.248c-0.77-0.105-1.556-0.133-2.33-0.19c-1.669-0.123-3.865-0.065-5.229-1.156   c-1.723-1.367-1.654-4.445-1.546-6.396c0-1.607,0.422-3.376,1.005-4.868c0.28-0.736,0.636-1.387,1.177-1.969   c0.122,0.349,0.754,0.961,0.549,1.217c-0.236,0.298-0.404,0.682-0.538,1.035c-0.359,0.874-0.58,1.793-0.75,2.72   c-0.339,2.104-0.758,5.214,0.615,7.049c1.116,1.522,4.137,0.881,5.773,1.351c1.243,0.393,4.249,0.258,4.84,1.505   c0.197,0.382,0.053,0.928,0.625,0.773c-0.266,0.041-0.529,0.042-0.796,0.068c-0.031,0.002-0.88,0.076-0.643-0.068   C55.126,58.124,55.057,58.124,54.989,58.124z M50.652,57.992c-0.144,0.116-0.294,0.227-0.442,0.338   c-0.017-0.317-0.012-0.631,0.001-0.948c0.353,0.026,0.705,0.052,1.058,0.078C51.066,57.64,50.862,57.821,50.652,57.992z    M51.05,59.045c0.205-0.438,0.555-0.839,0.907-1.166c0.522-0.498,1.314-0.245,1.979-0.024c-0.615,0.407-1.062,0.971-1.743,1.13   C52.094,59.008,51.05,59.027,51.05,59.045C51.071,59.002,51.05,59.046,51.05,59.045z M48.476,57.974   c-0.007-0.242,0.013-0.483,0.021-0.725c0.418,0.041,1.208-0.104,1.198,0.357c-0.009,0.462,0.011,0.924,0.043,1.385   c-0.347-0.016-0.677-0.059-1.017-0.131C48.375,58.779,48.513,58.272,48.476,57.974z M47.575,57.787c-0.583,0-1.3-0.702-1.723-1.02   c0.625,0.216,1.298,0.336,1.954,0.407C48.242,57.227,47.96,57.762,47.575,57.787C47.557,57.787,47.59,57.786,47.575,57.787z    M47.479,60.905c-1.886,0.313-3.778-1.253-5.046-2.565c0.763,0.363,1.597,0.521,2.366,0.847c1.014,0.429,1.854,1.248,2.906,1.68   C47.629,60.879,47.554,60.893,47.479,60.905z M47.735,67.395c-0.536,0.016-1.227,0.129-1.341-0.443   c-0.124-0.629-0.14-1.288-0.002-1.916c0.404,0.367,1.094,0.604,1.125,1.145C47.541,66.593,47.636,66.993,47.735,67.395   C47.698,67.396,47.705,67.271,47.735,67.395z M44.033,58.427c-0.924-0.301-1.969-0.683-2.629-1.438   c-0.309-0.345-0.492-0.763-0.628-1.196c-0.3-0.957,0.144-1.037,0.975-1.453c0,1.57,1.383,3.133,2.495,4.152   C44.174,58.47,44.104,58.449,44.033,58.427C44.011,58.42,44.105,58.449,44.033,58.427z M41.746,53.775   c-0.917,0.523-2.37,0.997-2.116,2.303c0.231,0.962,0.848,1.81,1.461,2.565c1.534,1.896,3.262,3.321,5.813,2.857   c-0.622,0.452-0.849,1.376-1.648,1.309c-0.921-0.052-1.637-0.309-2.408-0.834c-1.096-0.828-2.05-1.762-2.907-2.834   c-0.794-1.015-1.64-2.321-1.563-3.661c0.091-1.594,2.056-2.46,3.327-3.018C41.744,52.806,42.007,53.652,41.746,53.775z    M42.879,65.376c0.405-0.349,0.765-0.739,1.065-1.184c0.2-0.296,0.383-0.604,0.494-0.946c0.377,0.043,0.753,0.084,1.132,0.074   c-0.255,0.918-0.571,1.59-1.238,2.337c-0.728,0.812-0.911,0.641-1.699-0.102C42.715,65.496,42.797,65.436,42.879,65.376   C42.911,65.349,42.801,65.443,42.879,65.376z M45.093,67.045c0.25-0.336,0.481-0.679,0.699-1.035   c0.015,0.427,0.055,0.825,0.146,1.242C45.754,67.227,45.084,67.055,45.093,67.045C45.333,66.722,45.087,67.052,45.093,67.045z    M41.171,62.745c0-0.465,0.112-0.868,0.182-1.331c0.492,0.447,1.035,0.649,1.035,1.345c0.004,0.775-0.096,1.558-0.263,2.313   c-0.358-0.368-0.667-0.789-1.028-1.15C41.156,63.528,41.171,63.143,41.171,62.745z M39.742,60.352   c-0.029-0.201,0.014-0.43,0.002-0.638c0.225,0.278,1.184,1.062,1.137,1.412c-0.094,0.655-0.233,1.313-0.469,1.935   c-0.305-0.41-0.598-0.824-0.888-1.244C39.524,61.818,39.776,60.352,39.742,60.352z M39.217,60.571   c-0.112,0.94-0.698-0.385-0.887-0.72c0.299-0.073,0.601-0.121,0.905-0.167C39.235,59.981,39.252,60.277,39.217,60.571z    M40.456,49.036c-0.573,1.75-1.816,4.267-4.063,3.785c0.43-1.125,1.4-1.277,2.029-2.229c0.584-0.914,1.281-1.482,2.196-2.09   C40.57,48.677,40.534,48.873,40.456,49.036z M40.474,50.436c-0.24,0.48-0.267,1.219-0.335,1.736   C39.44,51.296,40.721,51.055,40.474,50.436z M38.229,53.281c-0.637,0.311-0.965,0.817-1.426,0.103   C37.163,53.393,38.097,53.117,38.229,53.281C38.191,53.301,38.224,53.273,38.229,53.281z M36.444,54.906   c0.768-0.543,1.619-1.002,2.472-1.396c-0.345,0.301-0.636,0.657-0.831,1.072c-0.071,0.156-0.151,0.816-0.239,0.866   c-0.21,0.13-0.724,0.621-0.97,0.608C36.612,56.046,36.212,55.063,36.444,54.906C36.563,54.822,36.426,54.918,36.444,54.906z    M36.898,56.568c0.464,0,1.042-0.09,1.199,0.377c0.133,0.393,0.319,0.758,0.513,1.123c-0.364-0.114-0.729-0.2-1.106-0.254   C37.138,57.758,36.888,56.568,36.898,56.568z M37.745,58.365c0.469,0.077,0.846,0.25,1.245,0.467   c-0.225,0.149-0.428,0.326-0.641,0.492C37.659,59.485,38.015,58.405,37.745,58.365z M41.565,51.969   c-0.319,0.137-0.633,0.286-0.942,0.444c0.12-1.015,0.381-1.988,0.651-2.969C41.335,49.663,41.803,51.862,41.565,51.969z    M41.593,46.437c-1.264-1.104-2.41-2.531-3.083-4.069c-0.868-1.982-0.331-3.502,0.905-5.108c1.408-1.786,3.302-3.599,5.369-4.597   c1.07-0.535,2.235-0.937,3.398-1.208c0.492-0.118,2.152-0.134,2.432-0.414c1.812-0.168,3.225,0.257,4.571,1.462   c-0.478,0.066-0.94,0.237-1.384,0.418c-0.438-0.292-0.832-0.55-1.362-0.627c-1.171-0.171-2.363-0.022-3.513,0.229   c-2.175,0.463-4.108,1.316-5.813,2.743c-1.325,1.129-2.964,2.515-3.663,4.17c-0.766,0,0.361,2.917,0.48,3.083   c0.481,0.787,1.019,1.503,1.645,2.178c0.326,0.352,0.66,0.684,1.012,1.008c0.266,0.245,0.69,0.463,0.616,0.83   c-0.08,0.372-0.149,0.748-0.201,1.125C42.508,47.281,42.055,46.854,41.593,46.437z M40.438,45.995   c-0.194,0.112-0.389,0.224-0.58,0.341c0.045-0.278,0.082-0.557,0.111-0.836C40.123,45.662,40.295,45.822,40.438,45.995z    M37.073,47.804c-0.622,0.072-2.955,0.326-3.227-0.313c1.165,0.136,2-0.767,3.094-0.891c1.006-0.115,1.821-0.442,2.527-1.198   c-0.048,0.465,0.006,1.177-0.386,1.448C38.37,47.34,37.951,47.731,37.073,47.804z M37.108,48.313c-0.043,0.401-1,1.07-1.271,1.375   c-0.013-0.427,0.007-0.865,0.045-1.29C35.885,48.36,37.003,48.323,37.108,48.313C37.104,48.35,37.084,48.315,37.108,48.313z    M35.336,49.853c-0.45,0.067-0.719-0.813-0.714-1.199c0.243,0.04,0.497,0.026,0.734-0.043   C35.344,49.022,35.313,49.44,35.336,49.853C35.293,49.859,35.328,49.708,35.336,49.853z M34.851,37.244   c1.161,0.097,2.335,0.327,3.417,0.766c-0.216,0.351-0.378,0.711-0.53,1.092c-1.71-0.712-3.616-0.713-5.432-0.713   C32.552,36.756,33.417,37.126,34.851,37.244z M34.809,35.794c0.378-0.153,0.759-0.288,1.148-0.41   c0.12,0.504,0.24,1.014,0.282,1.531C35.089,36.7,35.072,36.902,34.809,35.794C34.828,35.787,34.832,35.889,34.809,35.794z    M38.666,36.278c0.246,0.465,0.475,0.502,0.155,0.917c-0.279,0.349-0.195,0.379-0.642,0.224c-0.783-0.269-1.011-1.586-1.237-2.309   c0.342-0.086,1.128-0.444,1.25-0.061C38.318,35.468,38.46,35.89,38.666,36.278z M38.63,34.748c0.282-0.052,0.564-0.106,0.847-0.15   c0.07,0.342,0.202,0.688,0.341,1.01c0.141,0.327-0.026,0.684-0.437,0.889C39.034,35.95,38.823,35.364,38.63,34.748   C38.807,34.715,38.667,34.865,38.63,34.748z M37.03,36.838c0.042,0.094,0.074,0.176,0.126,0.271   c-0.421-0.111-0.603-1.288-0.667-1.745C36.65,35.867,36.809,36.354,37.03,36.838z M38.489,43.963c-0.393,0.521-0.699,1.08-0.91,1.7   c-0.158,0.468-0.357,0.404-0.88,0.451c0.035-0.064-0.155-2.466,0.357-2.202c0.165,0,0.812-1.129,0.99-1.336   C38.227,43.011,38.766,43.594,38.489,43.963C38.4,44.081,38.547,43.886,38.489,43.963z M38.946,44.208   c0.259,0.368,0.545,0.417,0.198,0.796C38.713,44.716,38.574,44.707,38.946,44.208C38.971,44.243,38.837,44.353,38.946,44.208z    M35.124,39.175c0-0.058,0.002-0.116,0.006-0.174c0.385,0.056,0.766,0.114,1.146,0.197c0.167,0.037-0.024,1.438-0.035,1.571   c-0.099,0.993-0.261,2.019-0.568,2.97c-0.315-0.365-0.667-0.705-0.968-1.081c0-0.353,0.162-0.811,0.224-1.171   C35.054,40.793,35.195,39.883,35.124,39.175z M36.11,44.038c0.095-0.273,0.151-0.553,0.232-0.831   c0.472,0.495,0.162,0.591-0.119,1.23C36.048,44.326,36.01,44.193,36.11,44.038z M37.542,40.788c0.032,0.17,0.064,0.34,0.096,0.51   c-0.285-0.346-0.799-1.51-0.794-1.965C37.716,39.595,37.384,40.076,37.542,40.788z M37.059,41.393   c0.274,0.342,0.614,0.57,0.563,0.897c-0.037,0.235-0.488,0.608-0.649,0.834c-0.682-0.704-0.362-1.201-0.241-2.166   C36.845,41.116,36.928,41.229,37.059,41.393C37.133,41.485,36.88,41.17,37.059,41.393z M32.844,38.876   c0.618,0.009,1.382-0.23,1.516,0.478c0.121,0.698,0.187,1.121,0.102,1.81c-0.568-0.857-1.268-1.699-2.136-2.267   C32.498,38.89,32.671,38.883,32.844,38.876z M32.819,39.956c0.46,0.442,1.612,1.525,1.477,2.194   c-0.617-0.788-1.121-1.55-1.673-2.375C32.689,39.834,32.754,39.895,32.819,39.956z M40.477,35.333   c-0.05,0.046-0.099,0.095-0.146,0.144c-0.153-0.153-0.218-0.522-0.278-0.704C40.202,34.952,40.339,35.145,40.477,35.333   C40.46,35.349,40.451,35.298,40.477,35.333z M40.446,34.452c0.379-0.049,0.759-0.097,1.138-0.146   c-0.246,0.225-0.497,0.442-0.737,0.672C40.719,34.801,40.59,34.613,40.446,34.452z M43.788,26.387   c1.236-0.279,2.55-0.331,3.81-0.216c-0.485,0.549-0.538,1.15-1.278,1.161c-0.541,0.008-1.085,0.038-1.621,0.116   c-0.563-0.358-1.152-0.632-1.795-0.813C43.198,26.546,43.486,26.449,43.788,26.387C44.096,26.317,43.389,26.469,43.788,26.387z    M43.059,26.051c0.74-0.516,1.939-1.508,2.855-1.567c1.229-0.016,2.478,0.014,3.683,0.284c-0.449,0.189-0.703,0.25-1.194,0.227   c-0.797,0.1-1.466,0.477-2.227,0.621C46.175,25.444,43.292,25.98,43.059,26.051C43.15,25.987,43.223,26.001,43.059,26.051z    M53.449,27.586c0.25-0.036,2.019-0.214,2.012-0.099c-1.798,0.282-3.58,0.737-5.233,1.511   C51.022,28.093,52.297,27.754,53.449,27.586C53.569,27.568,53.297,27.608,53.449,27.586z M52.968,26.165   c0.35-0.052,0.922-0.24,1.246-0.158c0.423,0.108,0.619,0.554,0.891,0.935c-0.384,0-0.772,0.034-1.155,0.074   C53.503,27.06,53.267,26.485,52.968,26.165C53.055,26.151,52.975,26.172,52.968,26.165z M52.504,27.25   c-0.488,0.122-1.24-0.071-1.02-0.654C51.612,26.254,53.22,26.238,52.504,27.25C52.494,27.252,52.531,27.21,52.504,27.25z    M51.466,27.572c-0.4,0.159-0.783,0.354-1.125,0.618c-0.327-0.245-0.714-0.405-1.106-0.514   C50.033,26.67,50.646,26.777,51.466,27.572C51.406,27.596,51.371,27.48,51.466,27.572z M48.891,29.368   c0.102,0.069,0.203,0.138,0.305,0.207c-0.441,0.303-0.79,0.92-1.297,0.667C48.125,30.317,47.903,28.814,48.891,29.368   C49.003,29.426,48.695,29.258,48.891,29.368z M56.774,30.152c-0.141,0.559-0.299,1.111-0.492,1.653   c0,0.077-1.142,0.004-1.249-0.102c0.15-0.602,0.401-1.183,0.553-1.789c0.09-0.379,0.942-0.331,1.326-0.375   C56.912,29.719,56.816,29.973,56.774,30.152z M56.797,31.955C56.77,31.952,56.755,31.942,56.797,31.955   C56.788,31.954,56.787,31.952,56.797,31.955z M56.522,34.168c-0.001-0.091-0.001-0.183-0.002-0.274   c0.945,1.113,1.788,2.317,2.507,3.589c0.345,0.655,2.234,3.6,1.687,4.273c-0.513-0.498-1.502-0.997-1.733-1.692   c-0.312-0.762-0.706-1.571-1.162-2.255c-0.315-0.536-0.655-1.056-1.012-1.564C56.259,35.463,56.522,35.151,56.522,34.168z    M62.41,36.757c0.194,0.455,0.975,1.141,0.802,1.521c-0.347,0.755-0.615,0.993-1.169,0.203c-0.362-0.489-1.109-1.286-0.571-1.751   c0.256-0.223,0.764-1.234,0.996-1.141C62.125,35.962,62.226,36.28,62.41,36.757z M62.76,36.01c0.385-0.301,1.477,0.067,1.369,0.554   c-0.299,0.165-1.03,0.484-1.217,0.072C62.85,36.498,62.669,36.122,62.76,36.01C62.826,35.958,62.724,36.056,62.76,36.01z    M65.322,40.45c0.016,0.391,0.076,0.686-0.016,1.053c-0.314-0.271-0.759-0.389-0.637-0.824c0.141-0.456,0.484-0.726,0.718-1.142   C65.344,39.838,65.308,40.145,65.322,40.45z M65.312,38.548c-0.26,0.616-0.602,1.246-1.144,1.656   c-0.522,0.436-1.154-0.229-1.649-0.552c1.408-0.352,1.882-1.812,2.134-3.104c0.366,0.2,0.766,0.421,1.084,0.687   C65.615,37.68,65.488,38.121,65.312,38.548z M61.298,51.838c-1.817,1.15-4.165,2.062-6.333,1.667   c-1.291-0.298-2.522-0.611-3.771-1.065c-0.781-0.313-1.541-0.66-2.295-1.029c-0.691-0.35-0.636-0.975-0.678-1.722   c0.563,0.328,1.183,0.679,1.792,0.922c0.429,0.805,1.427,1.333,2.273,1.583c0.245,0.081,0.495,0.155,0.746,0.215   c0.011,0.457,0.275,0.667,0.678,0.812c0.685,0,1.304,0.223,2.025,0.087c0.729-0.132,1.093-0.595,1.76-0.739   c0.605-0.123,1.219-0.343,1.711-0.727c0.912-0.912,2.121-1.314,2.949-2.374c0.028,0.398,0.095,0.904,0.021,1.306   C62.057,51.403,61.834,51.478,61.298,51.838C61.282,51.847,61.332,51.814,61.298,51.838z M61.299,52.431   c-0.044,1.147-0.256,1.258-1.35,1.581C60.068,52.879,60.298,52.982,61.299,52.431C61.296,52.508,61.27,52.446,61.299,52.431z    M59.313,53.544c0,0.843-0.469,0.717-1.241,0.773c0.035-0.599-0.007-0.499,0.483-0.652C58.78,53.598,59.313,53.231,59.313,53.544z    M56.941,54.065c-0.278,0.563-1.224,0.291-1.801,0.24C55.751,54.128,56.262,54.168,56.941,54.065   C56.883,54.184,56.922,54.068,56.941,54.065z M53.616,53.758c-0.114,0.47-0.198,0.337-0.666,0.23   C53.158,53.879,53.383,53.697,53.616,53.758C53.606,53.798,53.564,53.744,53.616,53.758z M52.759,53.514   c-0.767,0.406-1.258,0.114-2.065-0.172C51.375,52.824,51.991,53.301,52.759,53.514C52.706,53.542,52.715,53.501,52.759,53.514z    M51.215,46.146c0.839-0.344,1.826-0.454,2.721-0.334c0.697,0.069,1.414,0.268,1.998,0.705c0.862,0.645,0.489,1.285,0.227,1.153   c-1.336-0.667-2.458-0.753-3.373-0.657c-1.162,0.111-1.612,0.512-1.531,1.667c0.093,1.375,0.984,1.797,2.233,2.07   c-0.184,0.37-0.337,0.739-0.416,1.144c-1.168-0.243-2.651-0.901-2.88-2.213C49.965,48.487,49.826,46.708,51.215,46.146z    M51.138,45.341c0.882-0.261,1.617-0.5,2.446-0.061C52.926,45.261,51.682,45.685,51.138,45.341   C51.159,45.334,51.178,45.366,51.138,45.341z M56.519,46.03c-0.797,0.07-1.911-0.773-2.635-1.167   C54.973,44.788,55.763,45.264,56.519,46.03C56.395,46.041,56.259,45.766,56.519,46.03z M56.276,45.119   C56.296,45.129,56.286,45.119,56.276,45.119C56.279,45.12,56.277,45.119,56.276,45.119z M54.808,48.89   c-0.296-0.236-0.623-0.433-0.941-0.636c0.587,0.037,1.087,0.055,1.605,0.055c0.998,0,1.691,0.916,2.334,1.645   c-0.713,0.126-0.967,0.164-1.638-0.057C55.659,49.736,55.239,49.207,54.808,48.89C54.798,48.882,54.939,48.987,54.808,48.89z    M54.474,49.277C54.445,49.259,54.446,49.255,54.474,49.277C54.469,49.274,54.468,49.272,54.474,49.277z M51.942,49.503   c-0.086-0.238-0.136-0.472-0.165-0.724c0.809,0.181,1.783,0.505,2.206,1.277C53.68,50.352,52.078,50.081,51.942,49.503   C51.917,49.432,51.955,49.556,51.942,49.503z M54.73,47.744c-0.037-0.055-1.893-0.103-2.305-0.173   C52.969,47.474,54.317,47.313,54.73,47.744C54.727,47.738,54.682,47.693,54.73,47.744z M57.654,48.138   c0-0.085,0.606-0.147,0.508,0.583C57.999,48.521,57.832,48.324,57.654,48.138C57.654,48.137,57.748,48.235,57.654,48.138z    M58.14,47.522c-0.228,0.052-0.456,0.096-0.687,0.131c-0.332,0.049-0.589-0.802-0.836-1.122c0.347-0.031,0.688-0.08,1.029-0.144   C57.739,46.504,58.333,47.475,58.14,47.522z M57.157,45.958c-0.253-0.272-0.518-0.571-0.813-0.798   C56.483,45.248,57.349,45.932,57.157,45.958C56.96,45.746,57.203,45.952,57.157,45.958z M50.766,45.799   c-0.344,0.211-0.627,0.459-0.831,0.809c-0.228-0.155-0.438-0.324-0.646-0.505c0.287-0.172,0.584-0.309,0.895-0.436   C50.334,45.61,51.011,45.646,50.766,45.799z M49.713,49.852c-0.327,0.063-1.003-0.47-1.303-0.64   c0.321-0.321,0.676-0.471,1.124-0.556C49.551,49.063,49.624,49.456,49.713,49.852C49.692,49.856,49.709,49.836,49.713,49.852z    M49.374,46.834c0.174,0.132-0.574-0.027-0.787-0.055C48.875,46.211,48.99,46.558,49.374,46.834   C49.396,46.852,49.328,46.801,49.374,46.834z M48.642,47.881c0.308-0.065,0.618-0.097,0.931-0.13   c-0.017,0.134-1.137,0.604-1.352,0.722C48.259,48.033,48.153,47.984,48.642,47.881C48.847,47.837,48.525,47.906,48.642,47.881z    M57.331,41.917c0.446,0.282,0.707,0.988,0.991,1.421c0.322,0.424,1.198,1.065,1.001,1.58c-0.583-0.726-1.337-1.467-2.188-1.873   c-0.853-0.357-0.851-0.823-1.233-1.633C56.363,41.499,57.354,41.989,57.331,41.917z M59.389,42.868   c-1.447-1.23-2.657-2.017-4.562-2.045c-1.928-0.025-3.883,0.332-5.697,0.973c-0.04-0.407-0.103-0.814-0.225-1.205   c0.305-0.106,0.615-0.196,0.924-0.289c0.664-0.2,1.352-0.335,2.035-0.451c0.941-0.094,1.847-0.241,2.799-0.241   c1.148-0.015,2.364,0.147,3.375,0.726c0.512,0.302,0.995,0.638,1.451,1.018c1.129,0.951,0.802,0.685,0.346,1.936   C59.688,43.147,59.539,43.007,59.389,42.868C59.379,42.859,59.425,42.901,59.389,42.868z M55.849,42.686   c-0.433-0.031-0.857-0.075-1.292-0.075c-0.073,0-0.526-1.149-0.583-1.263c0.297-0.014,1.1-0.148,1.346,0.005   C55.518,41.787,55.708,42.229,55.849,42.686C55.842,42.685,55.84,42.657,55.849,42.686z M52.452,42.183   c-0.723-0.01-1.364-0.325-2.101-0.243c0.705-0.209,1.436-0.328,2.16-0.448c0.85-0.144,1.03,0.111,1.38,0.879   C53.425,42.268,52.929,42.218,52.452,42.183z M52.824,42.729c-0.494,0.124-1.023,0.159-1.523,0.271   c-0.31,0.07-2.287,0.759-2.223,0.41c0.064-0.396-0.079-0.719,0.36-0.744c0.437-0.028,0.871-0.04,1.308-0.046   C51.443,42.609,52.132,42.729,52.824,42.729z M46.732,54.586c0.117,0.361-0.653-0.061-0.705-0.204   c-0.162-0.452-0.225-0.924-0.233-1.402c-0.008-0.372,0.508-0.305,0.781-0.357c0.105,0.244,0.217,0.478,0.357,0.702   C46.721,53.786,46.724,54.1,46.732,54.586C46.744,54.623,46.73,54.497,46.732,54.586z M45.284,52.397   c-0.24,0.064-0.219-0.759-0.241-1.009c-0.032-0.356,0.759-0.366,1.08-0.43c0.063,0.399,0.153,0.795,0.277,1.179   C46.025,52.214,45.653,52.296,45.284,52.397C45.249,52.407,45.413,52.361,45.284,52.397z M45.694,48.148   c0.517,0.226,0.275,1.156,0.3,1.634c-1.024-0.64-0.95-0.787-0.762-1.962C45.377,47.923,45.571,48.021,45.694,48.148z    M45.574,47.439c0.163-0.188,0.329-0.35,0.585-0.35c0,0.215-0.083,0.475-0.11,0.685C45.896,47.67,45.696,47.573,45.574,47.439z    M45.144,49.848c0.594,0.383,0.595,0.645-0.126,0.839C45.014,50.542,44.934,49.711,45.144,49.848z M46.404,46.202   c-0.186,0.516-0.378,0.39-0.928,0.39c0.06-0.248,0.086-0.55,0.206-0.771c-0.508-0.475,1.072-0.419,1.127-0.416   C46.673,45.678,46.505,45.911,46.404,46.202z M46.174,44.517c0.091-0.203,0.21-0.413,0.353-0.585   c0.094,0.1,0.339,0.293,0.372,0.359C46.654,44.352,46.408,44.422,46.174,44.517C46.192,44.476,46.347,44.447,46.174,44.517z    M47.252,38.433c-0.278,0.445-0.199,0.746-0.711,0.803c-0.378,0.032-0.827,0.129-1.031,0.477c0-1.157,0.978-2.472,1.707-3.25   c0.518-0.578,1.212-1.153,2.014-1.233c0.95-0.084,0.736,0.816,0.98,1.519C48.855,36.004,47.926,37.371,47.252,38.433   C47.201,38.515,47.282,38.387,47.252,38.433z M44.941,38.759c-0.628-0.268-0.637-0.288-0.746-0.97   c-0.067-0.303-0.016-0.679,0.41-0.492c0.521,0.23,0.621,0.289,0.881,0.795C45.32,38.428,45.332,38.9,44.941,38.759   C44.821,38.708,45.021,38.788,44.941,38.759z M45.045,39.337c-0.073,0.419-0.479,0.638-0.831,0.531   c0.046-0.27,0.097-0.551,0.097-0.827C44.516,39.13,44.822,39.337,45.045,39.337C45.03,39.423,45.045,39.337,45.045,39.337z    M41.795,43.451c-0.021-0.812-0.097-1.338,0.194-2.099c0.186-0.558,0.388-1.075,0.509-1.655c0.149-0.686,0.123-1.345-0.119-2   c-0.222-0.599-0.424-0.695,0.074-1.172c0.169-0.163,0.347-0.316,0.522-0.473c1.558,2.793,0.462,5.679-1.115,8.206   C41.763,44.021,41.798,43.729,41.795,43.451C41.794,43.412,41.795,43.494,41.795,43.451z M41.917,38.365   c-0.241,0.118-1.254,0.662-1.5,0.421c0.37-0.533,0.803-1.023,1.25-1.492C41.813,37.604,42.129,38.122,41.917,38.365z    M42.091,38.846c-0.017,0.154-0.018,0.302-0.041,0.455c-0.2-0.039-0.456-0.082-0.641-0.167   C41.639,39.042,41.869,38.955,42.091,38.846C42.091,38.851,42.058,38.862,42.091,38.846z M40.456,39.646   c0.823,0.822,0.833,2.874,0.833,3.947c-1.037-1.186-2.028-2.869-1.15-4.369C40.263,39.352,40.366,39.492,40.456,39.646z    M41.284,40.193c-0.09-0.219-0.186-0.434-0.295-0.644c0.93,0.018,0.819,0.921,0.556,1.543   C41.475,40.789,41.393,40.486,41.284,40.193C41.262,40.142,41.29,40.21,41.284,40.193z M43.649,36.271   c-0.45-0.948,0.838-1.516,1.645-1.941c-0.237,0.973-0.587,1.937-1.35,2.628C43.863,36.721,43.765,36.493,43.649,36.271z    M45.436,36.325c-0.157-0.79,0.215-2.484,1.154-2.556c-0.05,0.581-0.086,1.18-0.038,1.762c0.084,1.004-0.264,1.165-0.77,2.016   C45.604,37.191,45.478,36.712,45.436,36.325C45.406,36.173,45.455,36.499,45.436,36.325z M53.231,33.165   c-0.599,0.278-1.726,0.001-2.356-0.018c-0.774-0.024-1.56-0.054-2.333-0.01c0.926-0.229,1.89-0.414,2.848-0.414   C51.627,32.724,53.236,33.163,53.231,33.165z M53.317,38.327c0.301-0.12,0.591,0.525,0.765,0.786   c-0.909,0.032-1.269,0.229-1.864-0.511C52.593,38.565,52.966,38.46,53.317,38.327z M48.581,33.645c0.897,0,0.952,0.458,1.552,1.059   c-0.152,0.191-0.938-0.001-1.289,0.081c-0.415,0.106-0.762-0.788-0.92-1.111C48.142,33.658,48.362,33.654,48.581,33.645z    M47.943,34.738c0.073,0.103,0.145,0.206,0.221,0.307c-0.162,0.077-0.616,0.466-0.734,0.462c-0.632-0.02-0.394-0.952-0.36-1.389   C47.576,34.372,47.629,34.28,47.943,34.738z M47.434,39.179c0.349-0.742,2.057-0.808,2.809-0.943   c0.851-0.153,1.285,0.281,1.784,0.947c-0.725,0.107-1.45,0.214-2.169,0.358c-0.433,0.094-0.867,0.183-1.295,0.298   C48.418,39.637,47.453,39.138,47.434,39.179C47.505,39.027,47.422,39.205,47.434,39.179z M59.709,45.331   c0.067-0.164,0.156-0.341,0.187-0.522c0.371,0.792,1.145,1.102,0.343,1.772C60.163,46.259,59.602,45.59,59.709,45.331z    M60.768,49.578c-0.142,0.054-0.334,0.036-0.484,0.052c0.059-0.356,0.103-0.714,0.121-1.075   C60.565,48.903,60.837,49.349,60.768,49.578z M61.958,48.88c-0.164,0.23-0.354,0.489-0.565,0.641   c-0.141-0.396-0.226-0.767-0.349-1.171C61.347,48.541,61.64,48.719,61.958,48.88C61.888,48.979,61.688,48.743,61.958,48.88z    M61.437,46.712c-0.176-0.027-0.349-0.062-0.521-0.105c0.205-0.272,0.707-0.138,0.789,0.147   C61.615,46.74,61.526,46.726,61.437,46.712C61.252,46.68,61.528,46.727,61.437,46.712z M61.907,40.845   c-0.441,0.129-0.692,0.232-0.896-0.322c-0.257-0.716-0.561-1.406-0.897-2.088c0.998,0.749,1.936,1.54,3.008,2.183   C62.714,40.646,62.298,40.723,61.907,40.845C61.891,40.85,62.028,40.807,61.907,40.845z M60.611,38.171   c0.724,0.022,0.889,0.523,1.35,0.969C61.464,38.947,61.033,38.488,60.611,38.171C60.678,38.173,60.692,38.232,60.611,38.171z    M61.738,35.511c-0.202,0.472-0.614,0.963-1.086,1.169c-0.86,0.366-1.236,0.411-1.719-0.342c0.383-0.589,1.17-0.476,1.476-0.978   C60.744,34.878,61.836,35.31,61.738,35.511C61.735,35.518,61.762,35.464,61.738,35.511z M59.635,34.973   c-0.368,0.256-0.714,0.554-0.994,0.905c-0.233-0.382-0.873-0.883-0.507-1.234c0.359-0.354,1.259,0.061,1.728,0.177   C59.785,34.872,59.71,34.922,59.635,34.973z M56.137,37.33c0.933-0.218,0.967,0.237,1.417,1.04   c-0.677-0.176-1.603,0.278-2.277,0.399c-0.781,0.119-0.847-0.133-1.317-0.727C54.69,37.677,55.335,37.521,56.137,37.33z    M54.999,30.155c-0.151,0.438-0.117,0.974-0.604,1.063c-0.198,0.049-1.009-0.46-1.254-0.528c0.465-0.611,1.188-0.74,1.916-0.756   C55.038,30.007,55.019,30.081,54.999,30.155C54.995,30.167,55.02,30.08,54.999,30.155z M43.188,45.561   c-0.186-0.167-0.371-0.335-0.557-0.503c-0.252-0.228,0.259-1.121,0.384-1.453c0.479-1.232,1.069-2.448,1.999-3.406   c0.05,0.583,0.468,1.224,0.164,1.736c-0.295,0.476-0.621,0.922-0.909,1.403c-0.353,0.785-0.658,1.572-0.881,2.405   C43.321,45.683,43.248,45.626,43.188,45.561z M63.195,55.614c0.321,0.24,0.637,0.493,0.934,0.762   c-0.218,0.072-0.436,0.146-0.653,0.219C63.272,56.663,63.122,55.818,63.195,55.614C63.201,55.619,63.183,55.65,63.195,55.614z    M63.707,55.362c-0.122-0.336,1.073-0.729,1.216,0.108C65.129,56.68,64.313,55.861,63.707,55.362z M65.039,54.505   c-0.601-0.052-1.3-0.046-1.826,0.288c0.055-0.358,0.624-0.997,0.752-1.349c0.149-0.431,1.62-0.093,2.019-0.032   C65.764,54.115,65.806,54.568,65.039,54.505C64.964,54.498,65.141,54.513,65.039,54.505z M64.299,52.773   c0.325-0.085,2.133-0.614,2.133-0.905c-0.031,0.137-0.091,0.499-0.185,0.662c-0.258,0.45,0.004,0.247-0.491,0.327   C65.355,52.922,64.724,52.75,64.299,52.773z M65.775,55.5c0.315-0.753,0.598-1.549,0.818-2.337c0.117-0.4,0.257-0.808,0.342-1.215   c0.156-0.654,0.728-0.329,1.323-0.329c-0.201,0.969-0.501,1.926-0.822,2.86c-0.334,0.973-0.865,1.007-1.799,1.369   C65.683,55.732,65.729,55.616,65.775,55.5z M67.891,54.723c0.084-0.235,0.163-0.473,0.241-0.709   c0.302,0.11,0.595,0.229,0.889,0.354c-0.4,0.205-0.803,0.404-1.211,0.591C67.836,54.88,67.864,54.801,67.891,54.723   C67.907,54.675,67.872,54.778,67.891,54.723z M69.914,53.414c0.013-0.083,0.032-0.164,0.06-0.245   c0.191,0.124,0.394,0.254,0.594,0.366C70.313,53.678,69.811,53.921,69.914,53.414C69.908,53.42,69.898,53.491,69.914,53.414z    M70.559,52.933c-0.113-0.069-0.227-0.14-0.34-0.209c0.262-0.366,0.426-0.732,0.867-0.525c0.204,0.095,0.692,0.308,0.782,0.554   C71.28,53.117,71.171,53.328,70.559,52.933C70.437,52.861,70.75,53.057,70.559,52.933z M64.908,51.565   c-0.084,0.58-0.073,0.54-0.646,0.692C64.353,51.735,64.242,51.394,64.908,51.565z M64.293,48.383   c-0.021-0.161-0.335-1.761-0.316-1.77c1.185-0.379,1.023-1.374,0.878-2.396c-0.119-0.957-0.313-1.889-0.517-2.831   C66.834,43.074,65.525,46.25,64.293,48.383C64.285,48.324,64.334,48.313,64.293,48.383z M65.758,41.99   c-0.476-0.554,1.014-2.688,1.431-3.104c0.186,0.417,0.717,1.676,0.124,1.973c-0.493,0.317,0.021,1.074-0.716,1.208   C66.311,42.119,65.954,42.223,65.758,41.99z M66.621,38.137c0.706,0.228-0.158,0.961-0.609,1.064   C65.95,39.17,66.557,38.225,66.621,38.137z M57.672,30.45c0.892,0.365,1.308,1.037,1.563,1.942   c-0.545-0.107-1.19-0.081-1.528-0.508c-0.114-0.145-0.778-0.392-0.76-0.453c0.104-0.379,0.223-0.753,0.316-1.136   C57.401,30.342,57.537,30.394,57.672,30.45C57.766,30.488,57.541,30.395,57.672,30.45z M57.378,29.796   c0.046-0.205,0.43-0.72,0.642-0.295C57.769,29.697,57.688,29.897,57.378,29.796C57.389,29.747,57.424,29.811,57.378,29.796z    M58.104,30.085c0.722-0.587,1.03-0.484,1.645,0.261c-0.467,0-0.441,0.747-0.827,0.317C58.695,30.413,58.407,30.228,58.104,30.085   C58.151,30.047,58.135,30.101,58.104,30.085z M61.024,31.401c-0.352-0.717-0.822-1.426-1.441-1.94   c1.226,0.086,1.911,0.182,2.472,1.294c0.571,1.115,0.279,1.068-0.788,1.456C61.259,31.934,61.146,31.646,61.024,31.401z    M62.229,30.018c0.27,0.071,0.453,0.099,0.64,0.303C62.385,30.561,62.497,30.465,62.229,30.018   C62.422,30.068,62.338,30.2,62.229,30.018z M62.821,30.915c0.87-0.453,0.858-0.525,1.239,0.436   c-0.382,0.098-0.761,0.197-1.141,0.303C62.882,31.478,62.614,31.021,62.821,30.915C62.939,30.853,62.784,30.934,62.821,30.915z    M55.245,25.437c-1.854,0.069-4.904,0.211-6.233,1.729c-0.669,0.782-1.103,1.67-1.487,2.619c-0.167,0.414-0.295,0.846-0.419,1.274   c-0.088,0.292-0.672,0.377-0.963,0.481c-0.003-0.913-0.033-1.444,0.301-2.317c0.405-1.098,0.995-2.117,1.776-2.986   c1.079-1.093,2.774-1.47,4.229-1.733c0.496-0.096,0.999-0.145,1.501-0.199C54.635,24.231,55.013,25.437,55.245,25.437   C55.139,25.441,55.253,25.437,55.245,25.437z M52.223,24.03c-1.188,0.222-1.705,0.391-2.888,0.17   c-1.322-0.247-2.683-0.269-4.021-0.19c-1.246,0.074-2.522,0.279-3.678,0.766c-0.565,0.238-1.02,0.52-1.427,0.999   c-0.534,0.627-0.758,0.599-1.592,0.702c0.733-2.61,4.169-3.128,6.472-3.384c1.31-0.147,2.655-0.199,3.97-0.088   c0.661,0.037,1.265,0.141,1.898,0.347C51.273,23.453,52.51,23.977,52.223,24.03C52.134,24.046,52.295,24.017,52.223,24.03z    M38.84,30.353c0.195-0.32,0.955-1.772,1.305-1.772c-0.324,0.757-0.514,1.541-0.66,2.35C39.371,30.822,38.817,30.398,38.84,30.353   C38.949,30.174,38.838,30.355,38.84,30.353z M40.043,30.705c0.109-0.606,0.267-1.213,0.508-1.78   c0.242-0.566,0.907-0.333,1.452-0.208c-0.594,0.885-0.692,1.788-0.877,2.796c-0.034,0.374-0.105,0.952-0.532,0.501   C40.068,31.46,39.905,31.465,40.043,30.705z M35.014,59.171c-0.028-0.138-0.228-0.702,0.123-0.789   c0.114,0.256,0.228,0.513,0.34,0.77C35.322,59.158,35.168,59.164,35.014,59.171C34.987,59.037,35.137,59.162,35.014,59.171z    M34.915,57.902C33.799,58.394,34.613,55.23,34.915,57.902L34.915,57.902z M34.675,60.493c-0.098,0.112-0.618,0.9-0.745,0.9   c-0.83-0.613,0.113-0.726,0.64-1.181C34.605,60.306,34.64,60.399,34.675,60.493C34.601,60.578,34.645,60.403,34.675,60.493z    M34.331,55.983C34.338,56.019,34.333,56,34.331,55.983C34.332,55.99,34.331,55.988,34.331,55.983z M33.261,51.029   c0.082,0.11,0.163,0.221,0.244,0.331c-0.167-0.05-0.413-0.115-0.541-0.181C33.042,51.101,33.141,51.051,33.261,51.029   C33.345,51.15,33.227,51.049,33.261,51.029z M32.986,51.733c0.357,0.121,0.72,0.22,1.092,0.28c0.297,0.306-0.017,0.785-0.027,1.218   C33.328,53.144,33.295,51.842,32.986,51.733C33.059,51.759,32.958,51.724,32.986,51.733z M33.514,61.719   c-0.238,0.19-0.47,0.391-0.697,0.594c-0.342,0.322-0.257,0.103-0.615-0.063c-0.4-0.184-0.753-0.585-1.112-0.853   c0.407-0.01,1.461-0.408,1.728-0.202C33.048,61.373,33.279,61.546,33.514,61.719C33.486,61.74,33.322,61.578,33.514,61.719z    M31.585,53.984c-0.612,0.066-1.225,0.195-1.818,0.358c0.458-0.467,0.834-1.003,1.17-1.562   C31.221,53.127,31.423,53.568,31.585,53.984C31.566,53.986,31.493,53.749,31.585,53.984z M25.487,56.097   c-0.99,0.554-1.104,0.558-2.143,0.157c0.392-0.206,0.781-0.399,1.182-0.588C24.842,55.824,25.158,55.969,25.487,56.097   C25.455,56.114,25.439,56.077,25.487,56.097z M21.772,58.039c0.262,0.082,0.533,0.187,0.77,0.324   c-0.169,0.195-0.343,0.379-0.479,0.598C21.951,58.6,21.649,58.255,21.772,58.039z M22.531,59.169   c-0.029-0.042,0.307-0.373,0.358-0.431c0.251-0.285,0.189-0.098,0.519-0.086c0.273,0.011,0.671,0.244,0.934,0.338   C23.833,59.443,23.147,59.396,22.531,59.169z M27.358,59.274c0.69-0.376,1.462-1.195,1.755-0.25   C28.816,59.092,27.442,59.395,27.358,59.274z M30.501,64.265c0.122-0.773,0.284-1.536,0.516-2.283   c0.724,0.556,1.266,0.726,0.705,1.61c-0.227,0.353-0.369,0.702-0.5,1.097C31.188,64.797,30.446,64.612,30.501,64.265z    M34.481,64.56c0.175-0.305,0.479-0.048,0.792,0.023c-0.293,0.063-0.597,0.118-0.894,0.162   C34.413,64.684,34.447,64.621,34.481,64.56z M34.995,63.985c-0.158-0.067-0.318-0.129-0.472-0.205   c0.357-0.318,0.745-0.601,1.148-0.859c0.381-0.254,0.576,0.101,0.775-0.465c0.405-0.227,0.549-0.465,0.804-0.054   C38.101,63.757,36.075,64.297,34.995,63.985C34.956,63.968,35.164,64.034,34.995,63.985z M48.783,66.317   c0.29,0.023,0.527-0.056,0.759-0.22c-0.191,0.473-0.167,1.239-0.709,1.271c-0.75,0.041-0.864-0.492-0.617-1.186   C48.396,66.249,48.59,66.3,48.783,66.317C48.842,66.322,48.612,66.302,48.783,66.317z M48.868,61.159   c0.707,0.036,1.505-0.121,1.505,0.822C49.922,61.756,48.983,61.62,48.868,61.159C48.908,61.161,48.87,61.167,48.868,61.159z    M50.946,66.028c-0.333,0.766-0.406,1.192-1.268,1.272c0.055-0.207,0.291-1.264,0.455-1.264c0.079-0.177,0.169-0.35,0.264-0.519   C50.676,65.631,51.112,65.665,50.946,66.028z M50.694,61.321c0.005,0.016,2.326-0.136,2.515-0.168   c0.571-0.095,1.184,0.106,1.774-0.003c0.814-0.142,1.637-0.514,2.493-0.686c-1.056,1.899-2.617,2.03-4.59,1.869   c-0.449,0-0.94-0.095-1.388-0.142C50.892,62.134,50.882,61.884,50.694,61.321z M51.496,62.703c0.402,0.023,0.957-0.034,1.129,0.341   c0.228,0.493,0.486,0.97,0.753,1.443c-0.432-0.289-0.888-0.607-1.257-0.978C51.956,63.354,51.215,62.682,51.496,62.703   C51.514,62.704,51.445,62.699,51.496,62.703z M59.221,63.908c-0.306,1.619-1.351,0.291-1.933-0.528   c0.265-0.182,0.543-0.354,0.848-0.461C58.515,62.786,58.92,63.634,59.221,63.908C59.196,64.04,58.954,63.664,59.221,63.908z    M61.384,65.958c0.066-0.102,0.13-0.204,0.192-0.31c0.4,0.25-0.18,1.317-0.695,0.993C61.064,66.426,61.231,66.195,61.384,65.958z    M61.909,66.642c0.254-0.416,0.469-0.86,0.671-1.303c0.094-0.213,1.196-0.296,1.479-0.426c-0.189,0.52-0.383,1.199-0.721,1.639   c-0.479,0.622-0.782,0.467-1.66,0.479C61.756,66.901,61.833,66.771,61.909,66.642C62.063,66.391,61.83,66.784,61.909,66.642z    M73.692,60.443c-0.172,0.104-0.742-0.646-1.046-0.798c0.426-0.426,1.025-0.658,1.455-1.125   C74.349,59.465,74.627,59.882,73.692,60.443z M73.772,62.095c-0.474-0.118-0.927-0.263-1.383-0.439   c0.364-0.151,0.725-0.312,1.075-0.497C73.594,61.453,73.716,61.775,73.772,62.095C73.769,62.094,73.755,61.994,73.772,62.095z    M73.893,57.988c-0.365,0.435-0.411,0.666-0.809,0.307c-0.557-0.512-1.176-0.967-1.816-1.367   C71.444,56.944,74.538,57.235,73.893,57.988C73.686,58.233,73.904,57.975,73.893,57.988z M71.487,57.942   c0.451,0.308,1.086,0.547,1.469,0.929c-0.873,0.575-1.708,0.403-2.569-0.226c-0.653-0.478-1.261-1.007-1.834-1.577   c0.473-0.218,0.919-0.602,1.401-0.333C70.435,57.175,70.952,57.573,71.487,57.942C71.528,57.97,71.234,57.768,71.487,57.942z    M68.639,57.858c0.317,0.298,0.573,0.49,0.759,0.889c-0.448,0.039-0.939,0.427-1.285,0.129c-0.218-0.449-0.467-0.893-0.733-1.314   C68.116,57.284,68.055,57.316,68.639,57.858C68.69,57.906,68.528,57.756,68.639,57.858z M67.446,58.969   c0.139,0.065,0.261,0.23,0.378,0.332c-0.097,0.068-0.184,0.147-0.263,0.237c-0.303-0.504-0.672-0.972-1.004-1.438   C66.838,58.404,67.142,58.689,67.446,58.969z M66.708,59.156c-0.023,0.024,0.792,1.211,0.825,1.396   c-0.307,0.017-0.616,0.011-0.921-0.027c-0.582-0.077-0.459-0.457-0.887-0.661c-0.029-0.265,0.481-0.964,0.593-1.227   C66.454,58.806,66.584,58.979,66.708,59.156z M65.957,58.197c-0.225,0.516-0.476,1.018-0.727,1.521   c-0.183-0.182-0.821-0.787-0.821-1.068c0.023-0.079,0.426-0.139,0.489-0.182C65.155,58.295,65.934,58.091,65.957,58.197z    M64.641,59.808c0.688,0.82,1.405,1.238,2.476,1.261c0.434,0.009,1.002-0.172,1.422-0.112c0.722,0.103,1.362,0.716,2.155,0.752   c-1.494,0.43-3.527,0.956-5.045,0.361c-1.306-0.376-2.305-1.813-2.951-2.909c0.348-0.1,0.693-0.206,1.041-0.306   C64.085,58.755,64.436,59.564,64.641,59.808C64.764,59.954,64.567,59.721,64.641,59.808z M70.141,63.024   c-0.121,0.395-0.316,0.767-0.538,1.112c-0.254,0.397-0.914,0.055-1.313-0.081c0.069-0.312,0.287-0.54,0.439-0.82   C69.209,62.357,69.299,62.572,70.141,63.024C70.114,63.111,70.034,62.967,70.141,63.024z M67.946,62.754   c-0.006,0.365-0.06,0.741-0.134,1.099c-0.242-0.126-1.054-0.555-1.05-0.814C66.77,62.615,67.475,62.802,67.946,62.754   C67.944,62.871,67.531,62.796,67.946,62.754z M64.128,61.736c-0.146,0.258-0.294,0.503-0.464,0.745   c-0.729-0.734-0.945-0.733-0.408-1.653C63.531,61.159,63.81,61.447,64.128,61.736C64.107,61.773,64.054,61.669,64.128,61.736z    M63.791,66.784c0.165-0.146,0.973-0.056,1.294-0.176c-0.188,0.41-0.96,0.37-1.393,0.37C63.725,66.914,63.759,66.849,63.791,66.784   z M72.367,64.609c-0.147-0.001-0.297-0.003-0.444-0.004c0.573-0.911,0.514-0.323,1.426-0.323   C73.188,64.734,72.849,64.622,72.367,64.609C72.207,64.608,72.728,64.619,72.367,64.609z M73.175,63.731   c-1.1-0.314-2.113-0.76-3.106-1.331c0.56-0.137,1.115-0.297,1.657-0.492c0.665,0.328,1.367,0.584,2.098,0.714   C73.678,63.104,73.767,63.845,73.175,63.731C73.025,63.689,73.33,63.762,73.175,63.731z M73.774,64.599   c0.225-0.636,0.423-1.277,0.56-1.938c0.141-0.6-0.085-1.939,0.335-2.295c0.252,0.428,0.7,0.334,1.024,0.003   c0.135,0.975-0.035,1.996-0.261,2.943c-0.087,0.368-0.396,0.542-0.693,0.769C74.582,64.213,73.655,64.93,73.774,64.599z    M75.752,53.329c-0.138-0.125-0.258-0.242-0.404-0.357c0.404-0.349,0.753-1.002,1.197-0.563c0.382,0.377,0.698,0.813,0.877,1.32   c0.382,1.024-0.27,2.374-0.745,3.248c0.01-0.658-0.034-1.42-0.348-2.021C76.026,54.37,76.326,53.928,75.752,53.329   C75.746,53.324,75.787,53.367,75.752,53.329z M76.485,59.945c-0.104,0.059-0.21,0.114-0.317,0.167   c-0.202-1.221,0.761-1.885,1.53-2.647c0.168,0.589,0.571,1.148,0.084,1.581C77.663,59.151,76.575,60.027,76.485,59.945z    M77.368,61.577c-0.38,0.505-0.885,0.948-1.342,1.388C76.23,61.988,76.467,62.094,77.368,61.577   C77.365,61.581,77.247,61.646,77.368,61.577z M80.023,47.341c-0.156-0.153-0.306-0.29-0.497-0.386   c0.195-0.27,1.058-0.495,1.354-0.633c-0.098,0.532-0.179,1.074-0.497,1.519C80.293,47.651,80.174,47.484,80.023,47.341   C79.93,47.249,80.028,47.312,80.023,47.341z M80.106,46.122c0.336-0.317,0.649-0.652,0.939-1.012   C80.979,45.805,80.734,45.829,80.106,46.122C80.271,45.966,80.385,45.992,80.106,46.122z M77.641,50.063   c0.263-0.015,0.524-0.032,0.787-0.067c-0.055,0.358-0.122,0.71-0.213,1.06c-0.081,0.336-0.946,0.237-1.247,0.222   C77.014,51.216,77.626,50.063,77.641,50.063z M70.652,42.255c-0.227,0.113-0.441,0.249-0.666,0.364   c-0.005-0.452-0.014-0.901-0.049-1.352c0.097-0.196,0.891-0.542,1.105-0.699c0.859-0.567,1.716-1.296,2.245-2.189   c0.315,0.252,0.684,0.44,1.056,0.597C73.487,40.421,72.046,41.384,70.652,42.255z M74.731,35.343   c-0.17-0.33-0.386-0.648-0.608-0.947c1.189,0.094,1.523,0.68,2.263,1.603C75.77,35.83,75.025,35.921,74.731,35.343z M76.178,39.39   c0.377,0.021,0.982,0.033,1.25-0.296c0.118,0.134,0.236,0.268,0.354,0.402c-0.307,0.077-0.664,0.248-0.977,0.252   c-0.519,0.007-0.672-0.239-1.204-0.422C75.792,39.356,75.985,39.378,76.178,39.39C76.408,39.403,75.984,39.379,76.178,39.39z    M77.778,38.724c-0.279-0.256-0.104-0.641-0.155-1.007c0.342,0.526,0.659,1.062,0.967,1.607C78.198,39.403,78,39.056,77.778,38.724   C77.724,38.674,77.779,38.725,77.778,38.724z M68.808,27.541c1.772,0.759,3.332,1.643,4.475,3.238   c-0.464-0.089-0.934-0.147-1.405-0.183c-0.532-0.041-0.907-0.555-1.36-0.841c-0.8-0.503-1.67-0.929-2.562-1.245   c-0.837-0.296-1.712-0.575-2.604-0.625c-0.848-0.042-0.845-0.437-1.387-1.068C65.553,26.419,67.34,26.916,68.808,27.541   C69.008,27.626,68.747,27.515,68.808,27.541z M56.155,22.563c2.192-0.354,4.444,0.105,6.531,0.804   c1.894,0.634,4.496,1.604,5.578,3.432c-0.763-0.238-1.51-0.461-2.302-0.57c-1.079-0.694-2.235-1.204-3.442-1.635   c-1.366-0.488-2.838-0.849-4.289-0.935c-0.47-0.027-0.938-0.021-1.409,0.021c-0.298-0.396-0.65-0.72-1.051-1.01   C55.899,22.634,56.026,22.599,56.155,22.563C56.312,22.538,56.048,22.583,56.155,22.563z M36.463,28.639   c0.294-2.877,1.223-5.044,3.99-6.223c2.475-1.054,5.398-1.249,8.056-1.165c2.52,0.08,6.006,0.48,7.752,2.54   c0.509,0.586,0.826,1.391,0.883,2.168c0.034,0.44,0.073,0.874,0.046,1.316c-0.406,0.029-0.808,0.097-1.213,0.133   c0-1.803-0.314-3.016-2.084-3.846c-2.269-1.065-5.024-1.208-7.491-1.087c-2.356,0.115-5.254,0.465-7.15,2.006   c-1.309,1.165-1.551,3.287-1.634,4.949C37.475,29.338,36.447,28.826,36.463,28.639C36.479,28.488,36.46,28.667,36.463,28.639z    M34.612,27.91c0.495-0.151,0.989-0.293,1.488-0.43c-0.05,0.331-0.094,0.662-0.131,0.995c-0.487-0.243-1.043-0.414-1.581-0.49   C34.463,27.96,34.538,27.935,34.612,27.91C34.986,27.796,34.537,27.936,34.612,27.91z M19.826,39.237   c1.545-4.875,5.187-8.294,9.928-9.99c2.28-0.815,4.462-1.167,6.662,0.02c1.382,0.772,2.596,1.856,3.698,2.982   c-0.818,0.121-1.319,0.355-1.953-0.2c-0.552-0.485-1.126-0.932-1.732-1.346c-0.626-0.423-1.243-1.373-2.104-1.253   c-0.987,0.134-2.119,0.294-3.096,0.598c-0.888,0.235-1.965,0.941-2.868,0.923c-1.125-0.023-1.646,0.967-2.473,1.558   c-1.47,0.956-2.494,2.426-3.386,3.905c-0.938,1.556-1.799,3.329-1.996,5.158c-0.191,1.764,1.199,2.236,1.863,3.563   c1.908,1.67,3.928,3.154,6.321,4.065c0.715,0.271,1.46,0.488,2.226,0.551c0.484,0.036,1.015,0.03,1.45-0.21   c0.191,0.355,0.388,0.708,0.607,1.047c-2.366,1.266-5.676-0.513-7.712-1.739c-1.587-0.956-3.052-2.105-4.324-3.453   C19.223,43.539,18.969,41.616,19.826,39.237C19.947,38.855,19.812,39.275,19.826,39.237z M16.295,54.347   c-0.03,0.066-0.06,0.133-0.089,0.2c-2.63-2.266-2.32-5.446-1.428-8.525c0.951-3.195,2.371-5.89,4.987-8.026   c-0.094,0.219-0.627,1.873-0.671,1.873c-0.265,0.77-0.808,1.242-1.248,1.945c-0.909,1.454-1.533,3.136-1.971,4.787   c-0.375,1.405-0.626,2.857-0.506,4.313c0.048,0.58,0.229,1.107,0.556,1.597c-0.014,0.007,0.738,0.834,0.807,0.897   C16.991,53.651,16.443,54.047,16.295,54.347z M21.332,60.727c-1.563-0.335-2.904-0.882-3.777-2.294   c-0.897-1.452-1.551-3.105-0.327-4.56c0.198,0.388,0.419,0.768,0.679,1.117c-0.202,0.329-0.243,0.633-0.133,1.007   c0.106,0.715,0.551,1.468,0.975,2.039c0.932,1.254,2.639,1.565,4.12,1.719c1.385,0.179,2.781,0.188,4.171,0.088   c0.718-0.051,1.435-0.154,2.137-0.312c0.171-0.037,0.427,0.931,0.536,1.12C27.188,61.449,23.897,61.308,21.332,60.727   C21.29,60.718,21.384,60.738,21.332,60.727z M26.122,62.399c0.053,0.01,0.388-0.391,0.469-0.462   c0.158,0.459,0.467,0.85,0.772,1.221C26.961,62.935,26.381,62.671,26.122,62.399z M25.735,62.069   c-0.257,0.128-0.624-0.255-0.899-0.449c0.452,0.011,0.901,0.007,1.354-0.006C26.021,61.75,25.869,61.901,25.735,62.069   C25.741,62.066,25.713,62.059,25.735,62.069z M21.849,61.39c0.037,0.039,1.419,0.176,1.866,0.176   c0.695,0.056,1.607,1.015,2.24,1.388c1.765,1.038,3.719,2.063,5.759,2.396c1.561,0.198,2.975-0.466,4.473-0.466   c0.714-0.199,1.51-0.444,2.112-0.889c0.045-0.03,0.73,0.924,0.754,0.953C33.682,68.751,25.973,65.513,21.849,61.39   C21.829,61.369,21.893,61.434,21.849,61.39z M36.285,68.141c-0.182,0.113-0.188-0.239-0.217-0.379   c-0.097-0.47-0.023-0.464,0.327-0.748C36.698,67.639,36.917,67.686,36.285,68.141C36.261,68.156,36.497,67.988,36.285,68.141z    M36.99,67.076c-0.54-0.733,0.419-0.754,0.957-0.972c0.079,0.515,0.411,0.937,0.774,1.301C37.813,68.07,37.499,68.112,36.99,67.076   z M29.745,69.17c-0.709-0.797-1.571-1.439-2.41-2.092c-0.753-0.585-0.938-1.146-1.239-2.069c2.055,1.095,4.723,2.625,5.589,4.936   C30.572,70.135,30.441,69.952,29.745,69.17C29.661,69.076,30.004,69.462,29.745,69.17z M29.761,69.987   c-1.193-0.131-1.958-1.402-2.536-2.35C28.128,68.341,29.088,69.047,29.761,69.987C29.715,69.982,29.694,69.895,29.761,69.987z    M31.133,68.136c-0.427-0.494-0.609-0.636-0.718-1.309c0.796,0.209,1.114,0.207,1.139,1.089c0.198,0.702,0.651,1.322,1.122,1.866   C31.909,69.934,31.658,68.718,31.133,68.136C31.08,68.074,31.425,68.46,31.133,68.136z M32.529,68.758   c-0.208-0.308-0.318-0.646-0.482-0.974c0.502,0.64,1.033,1.222,1.634,1.773C33.049,69.723,32.885,69.289,32.529,68.758   C32.494,68.706,32.729,69.057,32.529,68.758z M33.571,68.757c-0.536-0.492-0.925-1.071-1.358-1.648c0.63,0,1.174-0.121,1.646,0.195   c0.213,0,1.564,1.453,1.762,1.651C34.563,69.362,34.378,69.52,33.571,68.757C33.546,68.734,33.833,69.005,33.571,68.757z    M34.275,67.004c0.29-0.03,0.574-0.073,0.861-0.125c0.02,0.468,0.221,0.944,0.416,1.359C35.1,67.853,34.677,67.441,34.275,67.004   C34.399,66.99,34.341,67.076,34.275,67.004z M22.451,62.608c0.71,0.56,1.024,0.65,1.156,1.513c-0.544-0.51-1.068-1.076-1.423-1.736   C22.273,62.459,22.362,62.533,22.451,62.608z M23.951,66.218c-0.746-0.802-1.504-1.777-1.744-2.872   c0.352,0.478,0.779,0.897,1.216,1.297c0.545,0.498,0.583,1.237,0.85,1.922C24.163,66.451,24.055,66.336,23.951,66.218z    M32.309,71.591c-2.601,0.376-4.375,0.013-5.966-2.179c-1.177-1.621-2.014-3.61-2.264-5.607c0.247,0.163,0.79,0.665,1.063,0.665   c0.508,0.299,0.511,0.898,0.717,1.431c0.464,1.161,0.991,2.216,1.773,3.205c1.455,1.841,3.372,1.48,5.455,1.115   c2.28-0.548,6.075-1.486,7.28-3.763c0.219,0.239,0.964,0.771,0.81,0.993c-0.254,0.327-0.54,0.639-0.863,0.897   c-0.842,0.562-1.6,1.113-2.515,1.557C36.043,70.695,34.219,71.305,32.309,71.591C32.034,71.631,32.401,71.577,32.309,71.591z    M44.533,75.263c-3.79,0.661-9.59,0.28-11.913-3.203c0.33-0.062,0.661-0.12,0.989-0.192c0.485-0.108,0.667,0.349,1.009,0.669   c0.797,0.749,2.083,1.056,3.125,1.269c0.387,0.094,6.595,0.834,6.595,0.262c0.814-0.134,1.654-0.334,2.32-0.848   c0.265-0.246,0.509-0.492,0.744-0.771c0.71-0.284,0.594-0.34,1.026,0.254c0.371,0.511-1.022,1.478-1.494,1.792   C46.711,74.649,44.531,75.347,44.533,75.263z M49.67,74.72c-1.355,0.679-2.783,1.298-4.329,0.901   c0.927-0.208,1.84-0.558,2.553-1.205c0.39-0.353,0.726-0.524,1.202-0.763c0.063-0.036,0.865,0.733,0.989,0.829   C49.947,74.562,49.809,74.641,49.67,74.72C49.314,74.898,49.82,74.634,49.67,74.72z M56.482,73.938   c-1.137,1.048-3.011,0.987-4.438,0.76c-1.632-0.261-2.679-1.455-3.537-2.779c0.244-0.126,0.978-0.706,1.127-0.492   c0.302,0.449,0.643,0.864,1.008,1.264c0.934,1.016,2.572,1.01,3.834,0.848c1.433-0.183,2.23-1.629,2.869-2.788   c0.265-0.481,0.497-0.977,0.726-1.477c0.214-0.508,0.875-0.139,1.361-0.105C58.776,70.876,57.836,72.685,56.482,73.938z    M60.476,73.844c-1.175,0.259-2.365,0.411-3.57,0.396c0.364-0.345,0.688-0.729,0.983-1.134c0.169-0.231,0.758-0.169,1.063-0.21   c0.822-0.111,2.001,0.435,2.894,0.498C61.731,73.442,60.476,73.833,60.476,73.844z M73.809,67.446   c-1.588,2.887-4.419,4.142-7.513,4.908c-1.633,0.404-3.442,0.725-5.125,0.471c-0.752-0.129-1.339-0.329-2.028-0.685   c-0.681-0.352-0.188-0.733,0.113-1.337c2.239,1.377,4.921,0.877,7.33,0.222c1.563-0.434,3.118-1.035,4.445-1.979   c0.455-0.375,0.889-1.187,1.406-1.354c0.538-0.175,1.055-0.358,1.563-0.607C73.937,67.205,73.872,67.325,73.809,67.446   C73.616,67.795,73.878,67.318,73.809,67.446z M65.754,69.061c-0.367,0.665-0.795,1.31-1.254,1.916   c-0.513,0.088-1.23,0.026-1.724,0.19c0.522-0.522,0.976-1.184,1.376-1.803C64.43,68.937,65.601,69.306,65.754,69.061   C65.727,69.108,65.759,69.052,65.754,69.061z M65.779,70.005c0.47-1.358,3.24-1.43,4.376-1.684   c-1.503,1.302-2.979,2.102-4.925,2.515C65.418,70.562,65.608,70.29,65.779,70.005z M63.083,69.999   c-0.257,0.352-0.541,0.702-0.854,1.005c-0.418-0.131-0.831-0.31-1.226-0.497c0.309-0.245,0.707-0.841,1.041-0.864   C62.044,69.742,62.973,69.967,63.083,69.999z M61.448,69.377c-0.345,0.387-1.793,1.817-1.878,0.757   c-0.052-0.653,0.461-0.936,0.949-0.915C60.754,69.23,61.635,69.166,61.448,69.377C61.344,69.495,61.493,69.326,61.448,69.377z    M80.5,62.82c-0.168,2.034-2.933,2.813-4.563,3.153c1.783-1.388,3.174-2.896,4.542-4.656C80.555,61.817,80.562,62.32,80.5,62.82   C80.485,62.989,80.521,62.65,80.5,62.82z M81.599,59.774c1.038-1.516,2.077-3.287,2.466-5.099c0.086,0.491,0.296,1.96,0.01,2.691   C83.69,58.35,82.604,58.746,81.599,59.774z M87.135,45.127c-0.127,2.042-0.571,4.155-1.471,6.003   c-0.391,0.805-0.823,1.562-1.568,2.096c-0.652,0.46-0.635,1.863-0.952,2.65c-1.445,3.596-4.25,7.231-7.356,9.567   c-2.561,2.136-6.733,2.784-9.95,3.075c-2.979,0.27-6.138,0.486-9.048-0.358c-1.416-0.447-2.702-1.213-3.963-1.98   c-0.588-0.394-1.261-0.796-1.762-1.305c-0.472-0.45-0.015-0.98,0.089-1.6c3.229,3.875,8.656,4.547,13.329,4.149   c3.004-0.256,6.186-0.665,8.936-1.967c3.331-1.333,6.146-5.323,7.803-8.362c0.532-0.975,0.974-1.985,1.229-3.066   c-0.935,0.318-1.888,0.521-2.857,0.697c0.066-0.396,0.174-0.783,0.271-1.173c0.066-0.257,0.847-0.178,0.847-0.284   c0.816-0.191,1.646-0.43,2.379-0.843c0.606-0.348,1.002-0.863,1.313-1.476c0.124-0.244,0.924-2.274,0.891-2.274   c0.526-1.793,0.878-3.816,0.525-5.678c-0.299-1.58-1.629-2.216-3.134-2.292c-1.903-0.117-3.815,0.227-5.639,0.761   c-1.311,0.381-2.539,1.038-3.892,1.083c-0.839,0.015-1.661,0.141-2.485,0.279C75.105,40.35,87.838,35.76,87.135,45.127   C87.109,45.525,87.164,44.731,87.135,45.127z"/>
</g>
</svg>