<svg xmlns="http://www.w3.org/2000/svg" xmlns:xlink="http://www.w3.org/1999/xlink" version="1.1" id="Layer_1" x="0px" y="0px" viewBox="0 0 90 90" enable-background="new 0 0 90 90" xml:space="preserve" height="100px" width="100px">
<g>
	<path d="M72.9,26.2c0-0.7-0.1-1.4-0.1-2.1C65,24.7,55.9,25.1,46,25.1c-10.6,0-20.4-0.4-28.5-1.1c-0.1,0.7-0.1,1.5-0.1,2.2   c0,12.2,7.9,22.6,18.8,26.3L23.5,85.8l1.8,0.7l8.3-21.8c1.4,0.6,3.8,1.1,6.9,1.3l0.6,8.9c-0.7,0.6-1.1,1.6-1.1,2.8   c-0.1,1.9,1,3.5,2.3,3.5c1.4,0.1,2.5-1.5,2.6-3.4c0.1-1.6-0.6-2.9-1.7-3.4l-0.6-8.4c0.8,0,1.6,0,2.5,0c4.8,0,9-0.5,11.1-1.4   l2.5,15.8c-0.8,0.8-1.3,2.1-1.3,3.5c-0.1,2.6,1.4,4.8,3.2,4.9c1.9,0.1,3.5-2,3.6-4.6c0.1-2.6-1.4-4.8-3.2-4.9c-0.1,0-0.2,0-0.3,0   l-4.5-28C66.1,47.3,72.9,37.5,72.9,26.2z M34.6,62.1l3.5-9.1c0.5,0.1,1,0.3,1.5,0.4l0.5,7.8C37.9,61.4,36,61.7,34.6,62.1z    M55.8,62.2c-2.3-0.7-6.2-1.2-10.7-1.2c-1,0-1.9,0-2.8,0.1l-0.5-7.3c1.1,0.1,2.2,0.2,3.3,0.2c3.2,0,6.3-0.6,9.2-1.6L55.8,62.2z"/>
	<path d="M72.7,22.4c-0.3-2.1-1.5-5.4-3.1-7.2C66,10.8,59.2,8.4,51,7.7V2.8C51,1.9,50.3,1,49.4,1h-9C39.6,1,39,1.9,39,2.8v4.8   c-8,0.6-14.2,2.6-17.8,6.9c-1.5,1.8-3.4,5.6-3.7,7.7c8.1,0.4,17.9,0.6,28.5,0.6C55.9,22.9,65,22.7,72.7,22.4z M40,3.5   C40,2.7,40.3,2,41.1,2h7.8C49.6,2,50,2.7,50,3.5v4.1c-1.6-0.1-3.2-0.2-4.9-0.2c-1.8,0-3.5,0.1-5.1,0.2V3.5z"/>
</g>
</svg>