<svg xmlns="http://www.w3.org/2000/svg" xmlns:xlink="http://www.w3.org/1999/xlink" version="1.1" id="Your_Icon" x="0px" y="0px" viewBox="0 0 100 100" enable-background="new 0 0 100 100" xml:space="preserve" height="100px" width="100px">
<g>
	<g>
		<g>
		</g>
	</g>
	<g>
	</g>
</g>
<path fill="#000000" d="M43.799,66.043c0.305-0.027,0.72-0.257,1.11-0.614c0.321-0.294,0.556-0.609,0.661-0.886  c0.036-0.094,0.052-0.176,0.054-0.249c-0.077-0.012-0.151-0.011-0.205-0.006c-0.338,0.03-0.738,0.229-1.068,0.531  c-0.294,0.269-0.512,0.601-0.598,0.909c-0.032,0.115-0.043,0.221-0.036,0.313C43.743,66.044,43.768,66.046,43.799,66.043z"/>
<path fill="#000000" d="M42.625,55.984c0.286,0.069,0.549,0.082,0.74,0.036c0.065-0.016,0.115-0.037,0.155-0.064  c-0.024-0.047-0.055-0.089-0.079-0.117c-0.151-0.178-0.417-0.326-0.711-0.397c-0.262-0.063-0.527-0.06-0.727,0.008  c-0.075,0.025-0.136,0.059-0.183,0.098c0.009,0.015,0.018,0.029,0.032,0.046C41.988,55.755,42.277,55.901,42.625,55.984z"/>
<path fill="#000000" d="M29.45,76.026c-0.247,0.107-0.457,0.269-0.576,0.443c-0.044,0.065-0.073,0.129-0.087,0.188  c0.016,0.006,0.032,0.013,0.053,0.017c0.205,0.046,0.523-0.011,0.851-0.153c0.27-0.117,0.488-0.265,0.613-0.416  c0.043-0.051,0.07-0.099,0.086-0.144c-0.048-0.024-0.097-0.038-0.133-0.046C30.03,75.865,29.728,75.906,29.45,76.026z"/>
<g>
	<path fill="#000000" d="M61.19,61.566c-0.033,0-0.067-0.013-0.092-0.038l-0.174-0.174c-0.051-0.051-0.051-0.133,0-0.184   c0.051-0.051,0.133-0.051,0.184,0l0.174,0.174c0.051,0.051,0.051,0.133,0,0.184C61.256,61.553,61.223,61.566,61.19,61.566z"/>
</g>
<g>
	<path fill="#000000" d="M63.6,64.155c-0.026,0-0.053-0.008-0.077-0.025c-0.058-0.042-0.071-0.124-0.028-0.182   c0.035-0.048,0.045-0.119,0.027-0.188c-0.018-0.069-0.062-0.125-0.116-0.15c-0.066-0.03-0.095-0.107-0.065-0.172   c0.03-0.066,0.108-0.094,0.172-0.065c0.127,0.058,0.222,0.175,0.261,0.321c0.039,0.146,0.014,0.295-0.069,0.408   C63.68,64.137,63.64,64.155,63.6,64.155z"/>
</g>
<g>
	<path fill="#000000" d="M58.337,61.583c-0.053,0-0.095-0.043-0.095-0.095v-0.191c0-0.053,0.043-0.095,0.095-0.095   s0.095,0.043,0.095,0.095v0.191C58.432,61.541,58.39,61.583,58.337,61.583z"/>
</g>
<g>
	<path fill="#000000" d="M58.585,60.35c-0.033,0-0.067-0.013-0.092-0.038c-0.051-0.051-0.051-0.133,0-0.184l0.173-0.173   c0.051-0.051,0.133-0.051,0.184,0c0.051,0.051,0.051,0.133,0,0.184l-0.174,0.174C58.652,60.337,58.618,60.35,58.585,60.35z"/>
</g>
<g>
	<path fill="#000000" d="M55.994,60.15c-0.02,0-0.04-0.005-0.059-0.014c-0.064-0.033-0.089-0.111-0.056-0.175   c0.034-0.067,0.047-0.106,0.051-0.125c-0.105-0.084-0.071-0.181-0.051-0.221c0.033-0.064,0.111-0.09,0.175-0.056   c0.04,0.02,0.065,0.059,0.07,0.1c0.118,0.115,0.061,0.276-0.013,0.42C56.087,60.124,56.041,60.15,55.994,60.15z"/>
</g>
<g>
	<path fill="#000000" d="M60.34,62.06h-0.381c-0.053,0-0.095-0.043-0.095-0.095s0.043-0.095,0.095-0.095h0.381   c0.053,0,0.095,0.043,0.095,0.095S60.392,62.06,60.34,62.06z"/>
</g>
<g>
	<path fill="#000000" d="M62.196,62.936c-0.02,0-0.041-0.005-0.061-0.015c-0.064-0.034-0.088-0.112-0.055-0.176l0.181-0.343   c0.034-0.064,0.112-0.088,0.176-0.055c0.064,0.034,0.088,0.112,0.055,0.176l-0.181,0.343   C62.288,62.911,62.243,62.936,62.196,62.936z"/>
</g>
<g>
	<path fill="#000000" d="M62.724,58.913c-0.053,0-0.095-0.043-0.095-0.095v-0.381c0-0.053,0.043-0.095,0.095-0.095   c0.053,0,0.095,0.043,0.095,0.095v0.381C62.819,58.87,62.777,58.913,62.724,58.913z"/>
</g>
<g>
	<path fill="#000000" d="M58.129,58.436c-0.074,0-0.232-0.021-0.309-0.126c-0.034-0.002-0.067-0.025-0.091-0.053   c-0.046-0.055-0.039-0.141,0.015-0.187c0.098-0.083,0.135-0.121,0.143-0.129c0.05-0.049,0.132-0.052,0.183-0.003   c0.051,0.048,0.053,0.129,0.007,0.181c-0.007,0.008-0.014,0.016-0.019,0.024c0.019,0.003,0.046,0.005,0.087,0.005   c0.066-0.005,0.131,0.071,0.132,0.143c0.001,0.072-0.057,0.145-0.129,0.145C58.142,58.436,58.136,58.436,58.129,58.436z"/>
</g>
<g>
	<path fill="#000000" d="M57.574,58.531c-0.053,0-0.095-0.043-0.095-0.095v-0.191c0-0.053,0.043-0.095,0.095-0.095   s0.095,0.043,0.095,0.095v0.191C57.669,58.489,57.627,58.531,57.574,58.531z"/>
</g>
<g>
	<path fill="#000000" d="M63.232,61.392c-0.048,0-0.088-0.027-0.11-0.074L63.01,61.07c0,0,0,0,0,0c0-0.001-0.008-0.002-0.009-0.003   l-0.143-0.291c-0.031-0.065-0.006-0.142,0.059-0.174c0.064-0.031,0.129-0.004,0.16,0.061l0.123,0.284v-0.022l0.03-0.009H63.23   c0.001,0,0.002,0.028,0.003,0.031c0.03,0.057,0.067,0.145,0.116,0.248c0.031,0.065,0.004,0.148-0.061,0.179   C63.27,61.382,63.251,61.392,63.232,61.392z"/>
</g>
<g>
	<path fill="#000000" d="M61.77,60.248c-0.022,0-0.044-0.008-0.062-0.023c-0.04-0.034-0.044-0.095-0.01-0.134l0.248-0.286   c0.034-0.04,0.095-0.044,0.134-0.01c0.04,0.034,0.044,0.095,0.01,0.134l-0.248,0.286C61.823,60.237,61.797,60.248,61.77,60.248z"/>
</g>
<g>
	<path fill="#000000" d="M59.908,60.153c-0.072,0-0.13-0.101-0.13-0.172c0-0.072,0.058-0.152,0.13-0.152l0.435-0.012   c0.153-0.306,0.417-0.555,0.736-0.681c0.066-0.026,0.143,0.004,0.169,0.071c0.026,0.067-0.006,0.141-0.073,0.168   c-0.278,0.11-0.513,0.339-0.629,0.614c-0.02,0.048-0.067,0.122-0.12,0.122L59.908,60.153   C59.908,60.153,59.908,60.153,59.908,60.153z"/>
</g>
<g>
	<path fill="#000000" d="M61.615,62.439c-0.031,0-0.063-0.011-0.088-0.034c-0.053-0.049-0.056-0.131-0.008-0.184   c0.205-0.223,0.323-0.274,0.466-0.201c0.019-0.011,0.066-0.044,0.158-0.144c0.049-0.053,0.131-0.056,0.184-0.008   c0.053,0.049,0.056,0.131,0.008,0.184c-0.205,0.223-0.323,0.274-0.466,0.201c-0.019,0.011-0.066,0.044-0.158,0.144   C61.685,62.425,61.65,62.439,61.615,62.439z"/>
</g>
<g>
	<path fill="#000000" d="M59.616,58.528c-0.099,0-0.222-0.017-0.373-0.051c-0.07-0.016-0.114-0.085-0.098-0.156   c0.016-0.07,0.085-0.114,0.156-0.098c0.256,0.058,0.357,0.047,0.391,0.038c-0.007-0.027-0.029-0.069-0.038-0.087   c-0.022-0.042-0.073-0.141,0.012-0.212c0.093-0.078,0.101-0.072,0.563,0.277c0.057,0.043,0.069,0.125,0.026,0.182   c-0.043,0.057-0.125,0.069-0.182,0.025c-0.042-0.032-0.085-0.064-0.127-0.096c-0.007,0.024-0.019,0.047-0.037,0.07   C59.85,58.492,59.758,58.528,59.616,58.528z"/>
</g>
<path fill="#000000" d="M90.997,50.377c-1.798-0.892-3.689-1.641-5.661-2.041c-3.67-0.745-7.431,0.021-9.903,3.03  c0.373-1.035,1.187-2.494,1.2-3.592c0.228-0.72-0.662-1.304-1.232-0.809c-0.326,0.283-0.434,0.957-0.558,1.322  c-1.249-6.394-8.796-8.295-15.008-8.535c17.637-7.41,33.992-14.351,33.992-14.351c1.179-1.814-0.849-3.99-0.849-3.99  s-21.434,9.431-41.547,18.524c0.002-0.001,0.004-0.002,0.007-0.003c16.781-9.988,33.465-20.009,33.465-20.009  c0.794-1.797-1.439-3.393-1.439-3.393S62.218,29.65,43.832,41.312c-1.577-0.118-3.155-0.178-4.71-0.178  c-18.466,0-32.674,8.137-33.784,19.348c-0.233,2.355,0.12,4.706,1.021,6.993c1.223,6.625,4.918,12.656,10.71,17.333  c6.942,5.606,16.379,8.905,26.572,9.29c0.539,0.02,1.085,0.031,1.622,0.031c9.677,0,18.688-3.273,25.509-9.216  c4.006-3.491,6.925-7.659,8.642-12.21c0,0,0,0,0,0c0.572-1.503,1.23-3.088,1.394-4.741c0.378-3.82-0.741-7.632-3.295-11.171  c1.48-0.597,2.957-1.263,4.382-1.977c0.653-0.327,0.968-0.652,1.6-0.618c0.712,0.038,1.429,0.092,2.141,0.125  c1.383,0.065,2.656-0.254,4.024-0.338c1.297-0.079,2.6-0.036,3.898,0.007c0.496,0.017,1.973,0.328,2.217-0.347  C96.13,52.661,91.76,50.756,90.997,50.377z M82.604,49c3.094-0.011,6.112,1.18,8.854,2.672c-6.213-2.197-10.639-1.409-13.39-0.221  c-0.98,0.423-1.81,0.917-2.499,1.412C77.143,50.529,79.588,49.01,82.604,49z M73.31,46.703c0.209,0.426,0.744,1.955,0.827,3.095  c-0.44-0.843-1.124-1.888-2.178-2.986c-3.3-3.442-8.104-5.197-12.243-6.091C64.818,40.901,71.051,42.094,73.31,46.703z   M71.219,47.417c1.425,1.47,2.132,2.844,2.465,3.679c-0.005,0.001-0.009,0.004-0.014,0.005c-1.294,0.332-2.653,0.476-3.986,0.36  c-1.81-0.157-3.125-0.887-4.57-1.921c-1.488-1.064-3.479-1.221-4.912-2.308c-3.272-2.482-3.003-5.133-3.143-6.028  C61.442,41.866,67.403,43.481,71.219,47.417z M72.446,52.324c0.329-0.048,0.655-0.108,0.979-0.18  c-0.233,0.578-0.479,1.148-0.729,1.719C72.733,53.339,72.624,52.813,72.446,52.324z M53.873,70.3  c0.039,0.236,0.245,0.611-0.171,0.663c-0.285,0.036-0.553-0.347-0.687-0.536c-0.028-0.043-0.055-0.09-0.082-0.138  c-0.06,0.266-0.079,0.541-0.017,0.807c0.041,0.254,0.264,0.656-0.183,0.712c-0.308,0.039-0.589-0.365-0.737-0.576  c-0.344-0.539-0.892-1.435-0.789-2.082c0.02-0.103-0.206-0.16-0.206-0.19c0-0.001,0-0.003,0-0.004c0,0.068-0.689,0.127-1.156,0.176  c-1.476,0.155-2.838,0.083-4.289,0.427c-0.984,0.233-1.884,0.538-2.841,0.859c0.321,0.376,0.666,0.758,0.971,1.143  c0.479,0.605,0.949,1.23,1.373,1.875c0.178,0.27,0.727,0.847,0.62,1.216c-0.206,0.708-0.986-0.234-1.176-0.427  c-0.551-0.56-1.079-1.14-1.598-1.729c-0.479-0.544-0.948-1.094-1.425-1.639c-0.23,0.078-0.459,0.156-0.69,0.232  c-0.745,0.247-1.495,0.48-2.253,0.685c-0.261,0.071-1.413,0.488-1.234-0.227c0.094-0.373,0.852-0.597,1.142-0.741  c0.692-0.343,1.399-0.653,2.119-0.933c0.008-0.003,0.017-0.006,0.025-0.01c-0.365-0.395-0.739-0.782-1.129-1.154  c-1.079-1.029-2.396-1.716-3.592-2.594c-0.379-0.278-0.752-0.564-1.12-0.858c-0.01,0.028-0.029,0.084-0.065,0.187  c-0.237,0.611-0.952,1.231-1.521,1.522c-0.235,0.107-0.681,0.314-0.927,0.125c-0.358-0.274,0.037-0.509,0.201-0.708  c0.188-0.199,0.31-0.446,0.393-0.706c-0.047,0.028-0.094,0.054-0.14,0.078c-0.211,0.096-0.636,0.291-0.863,0.116  c-0.333-0.255,0.035-0.474,0.187-0.659c0.23-0.243,0.353-0.561,0.427-0.884c0.069-0.283,0.029-0.571,0.224-0.806  c0.472-0.569,1.323-0.247,1.469,0.355c0.029,0.008,0.058,0.019,0.085,0.035c0.902,0.555,1.799,1.118,2.709,1.662  c1.248,0.746,2.449,1.387,3.522,2.39c0.487,0.456,0.959,0.935,1.416,1.428c1.095-0.384,2.212-0.72,3.337-0.975  c1.432-0.325,2.792-0.273,4.247-0.286c1.059-0.01,2.118-0.043,3.177-0.067c0.032,0,0.062,0.005,0.091,0.013  c0.429-0.446,1.327-0.294,1.447,0.435c0.05,0.301-0.13,0.529-0.214,0.809C53.851,69.638,53.797,69.974,53.873,70.3z M28.726,63.44  c-1.795,0.009-3.587,1.519-4.965,1.459c-0.391-0.017-0.671-0.301-0.856-0.735c0.524-0.128,1.061-0.362,1.619-0.608  c0.834-0.367,1.697-0.747,2.511-0.751c0.643-0.003,1.45-0.38,2.304-0.778c0.62-0.289,1.323-0.617,1.696-0.642  c0.952-0.064,2.725-0.184,3.696-1.335c1.124-1.332,0.614-2.757-0.09-4.729c-0.416-1.165-0.935-2.615-1.288-4.47  c-0.003-0.017-0.005-0.032-0.008-0.049c0.326-0.134,0.655-0.271,0.987-0.408c-0.02,0.51,0.025,1.094,0.153,1.77  c0.94,4.935,2.984,6.967,1.503,8.723c-0.755,0.894-2.13,1.054-3.297,1.133C31.694,62.088,29.724,63.435,28.726,63.44z   M30.054,77.266c-0.443,0.192-0.865,0.257-1.19,0.184c-0.257-0.058-0.446-0.199-0.547-0.407c-0.022-0.046-0.038-0.094-0.05-0.144  c-0.033-0.041-0.062-0.086-0.086-0.135c-0.076-0.156-0.153-0.468,0.188-0.803c0.175-0.172,0.44-0.333,0.81-0.493  c0.522-0.226,0.919-0.303,1.215-0.237c0.219,0.049,0.383,0.176,0.476,0.367c0.023,0.047,0.038,0.096,0.05,0.145  c0.033,0.042,0.063,0.086,0.086,0.134C31.244,76.367,30.871,76.912,30.054,77.266z M11.723,65.379  c-0.216,0.083-0.652,0.252-0.869,0.064c-0.317-0.275,0.063-0.471,0.227-0.646c0.244-0.229,0.386-0.539,0.48-0.856  c0.086-0.278,0.063-0.568,0.272-0.791c0.506-0.54,1.336-0.167,1.445,0.442c0.029,0.01,0.057,0.022,0.083,0.04  c0.867,0.609,1.729,1.225,2.604,1.822c1.201,0.819,2.361,1.532,3.371,2.598c1.11,1.171,2.122,2.464,3.045,3.786  c0.442,0.633,0.858,1.284,1.243,1.953c0.161,0.281,0.668,0.888,0.538,1.251c-0.248,0.694-0.974-0.293-1.152-0.497  c-0.516-0.592-1.01-1.203-1.492-1.822c-1.049-1.347-2.047-2.734-3.212-3.987c-1.015-1.092-2.289-1.857-3.43-2.806  c-0.361-0.3-0.717-0.609-1.066-0.924c-0.011,0.027-0.034,0.082-0.076,0.182c-0.274,0.595-1.025,1.172-1.61,1.428  c-0.241,0.092-0.698,0.273-0.933,0.069c-0.34-0.295,0.068-0.506,0.243-0.694c0.2-0.187,0.336-0.426,0.434-0.681  C11.818,65.335,11.77,65.358,11.723,65.379z M21.928,58.85c0.061-0.139,0.209-0.46,0.409-0.895c0.521-1.135,1.032-2.254,1.478-3.256  c2.371-0.955,5.242-2.128,8.451-3.451c0.368,1.851,0.881,3.294,1.297,4.458c0.688,1.926,0.964,2.811,0.293,3.606  c-0.607,0.72-1.814,0.858-2.898,0.931c-0.587,0.039-1.323,0.383-2.103,0.747c-0.672,0.313-1.434,0.669-1.826,0.671  c-1.052,0.005-2.069,0.453-2.966,0.848c-0.742,0.327-1.437,0.636-1.971,0.612c-0.038-0.002-0.138-0.006-0.263-0.208  C21.347,62.139,21.399,60.05,21.928,58.85z M33.46,48.153c0.034-0.066,0.069-0.132,0.11-0.19c0.474-0.676,1.409-0.826,2.4-0.985  c0.013-0.002,0.027-0.004,0.041-0.007C35.142,47.372,34.291,47.767,33.46,48.153z M44.122,55.954c-0.01,0.052-0.027,0.1-0.047,0.146  c0.001,0.053-0.002,0.107-0.012,0.159c-0.104,0.535-0.347,0.874-1.393,0.429c-0.444-0.189-1.049-0.206-1.264-0.459  c-0.17-0.2-0.237-0.427-0.193-0.654c0.01-0.05,0.027-0.098,0.047-0.145c-0.002-0.053,0.002-0.106,0.012-0.16  c0.033-0.171,0.159-0.466,0.633-0.528c0.243-0.032,0.551-0.002,0.944,0.092c0.553,0.133,0.917,0.31,1.114,0.541  C44.107,55.545,44.162,55.746,44.122,55.954z M45.3,63.232c0.325-0.029,0.61,0.079,0.825,0.314c0.053,0.058,0.26,0.284,0.314,0.343  c0.551,0.601,0.314,1.604-0.692,2.455c-0.856,0.724-2.601,0.355-2.64,0.289c-0.065-0.045-0.125-0.097-0.181-0.157  c-0.176-0.192-0.423-0.61-0.102-1.252c0.165-0.33,0.459-0.686,0.899-1.089C44.344,63.566,44.859,63.271,45.3,63.232z M53.808,62.012  c-0.402-0.134-0.822-0.043-1.181,0.181c0.533-2.827,3.014-4.965,5.996-4.965c3.371,0,6.104,2.733,6.104,6.104  c0,0.845-0.172,1.649-0.482,2.381c-1.893,0.198-4.57,0.331-4.947-0.252c-0.422-0.652-0.814-1.611-1.63-1.829  c-0.629-0.168-1.325,0.091-1.936-0.131C54.962,63.22,54.585,62.272,53.808,62.012z M62.027,71.476l3.12,2.2  c-0.111,0.126-0.228,0.25-0.351,0.372c-0.667,0.66-1.388,1.121-2.12,1.439L62.027,71.476z M62.353,75.601  c-0.994,0.376-2.012,0.491-2.906,0.488l2.262-4.474L62.353,75.601z M62.215,71.217l0.101-0.083l4.501-0.891  c-0.241,1.133-0.691,2.218-1.466,3.186L62.215,71.217z M62.838,70.705l4.211-3.463c0.026,0.891-0.012,1.789-0.165,2.663  L62.838,70.705z M61.1,72.111l-2.006,3.968c-0.888-0.011-1.78-0.224-2.34-0.382L61.1,72.111z M65.424,74.672  c1.948-1.927,2.542-4.301,2.609-6.672c0.74,2.093,1.532,5.633-0.239,8.283c-2.637,0.198-5.976,1.427-8.222,2.377  c-0.143-0.063-0.283-0.129-0.417-0.197c-0.854-0.432-1.674-1.023-2.392-1.715C58.782,77.213,62.528,77.537,65.424,74.672z   M61.81,56.509c-0.076-0.047-1.083-0.431-1.539-0.525c-0.546-0.113-1.094-0.163-1.641-0.191c-1.231-0.063-2.456-0.016-3.633-0.321  c-0.392-0.102-0.779-0.243-1.159-0.44c0.375-0.507,4.046-2.343,7.326-3.098c1.569-0.361,3.232-0.383,4.798,0.033  c2.065,0.549,3.746,1.887,5.015,3.981C69.239,59.773,64.321,58.055,61.81,56.509z M53.936,53.848  c0.124-0.157,1.946-2.636,3.294-3.385c0.059-0.033,0.103-0.086,0.156-0.128c0.308-0.242,2.749-2.135,3.14-1.831  c1.754,0.395,3.162,1.395,4.626,2.33C61.532,49.543,54.032,53.79,53.936,53.848z M69.022,52.374c0.703,0.123,2.27,0.375,2.486,0.096  c0.335,0.824,0.279,1.691-0.026,2.5C70.772,53.908,69.951,53.04,69.022,52.374z M56.116,41.313c0.128,0.788,0.291,1.559,0.517,2.299  c-1.213-0.356-2.452-0.677-3.714-0.959C53.984,42.207,55.05,41.76,56.116,41.313z M49.109,44.246  c3.105,0.511,6.091,1.255,8.907,2.201c0.392,0.528,0.861,1.016,1.425,1.454c-1.216,0.547-2.323,1.324-3.332,2.215  c-3.972-1.18-8.405-1.954-13.186-2.171c-0.853-0.039-1.69-0.061-2.515-0.071C43.209,46.711,46.133,45.491,49.109,44.246z   M39.122,43.423c0.452,0,0.811,0.007,1.266,0.017c-0.506,0.322-1.03,0.643-1.602,0.96c0,0.001,0,0.002,0,0.002  c0-0.351-0.052-0.681-0.271-0.977C38.686,43.425,38.951,43.423,39.122,43.423z M32.654,43.19c0.545-0.084,1.092-0.126,1.626-0.126  c1.534,0,2.806,0.358,3.319,0.933c0.188,0.211,0.261,0.435,0.229,0.704c-0.088,0.759-0.659,0.925-2.039,1.147  c-1.127,0.181-2.404,0.387-3.156,1.458c-0.283,0.403-0.457,0.896-0.532,1.48c-2.679,1.25-5.117,2.402-7.218,3.416  c0.191-0.481,0.323-0.851,0.374-1.072C26.739,44.762,30.924,43.456,32.654,43.19z M69.35,83.195  c-6.406,5.581-14.96,8.655-24.087,8.655c-0.509,0-1.025-0.01-1.536-0.029c-9.706-0.366-18.665-3.487-25.227-8.786  c-2.944-2.377-5.301-5.128-7.015-8.134c1.051,1.03,2.229,2.025,3.531,2.979c6.677,4.891,15.854,8.129,25.839,9.118  c2.083,0.206,4.184,0.311,6.242,0.311c9.629,0,18.1-2.214,24.16-5.921C70.653,82.009,70.018,82.613,69.35,83.195z M78.604,67.736  c-0.472,4.764-3.872,9.129-9.576,12.291c-5.808,3.22-13.597,4.994-21.931,4.994c-1.984,0-4.008-0.101-6.017-0.3  c-9.584-0.949-18.36-4.034-24.712-8.687c-6.174-4.523-9.283-9.966-8.752-15.327c0.472-4.764,3.872-9.129,9.576-12.291  c2.953-1.637,6.42-2.9,10.208-3.746c0.004-0.004,0.007-0.007,0.011-0.011c-1.308,1.305-2.326,3.04-2.968,5.108  c0.003-0.009,0.005-0.018,0.008-0.027c-9.33,2.574-14.642,7.404-14.828,11.952c-0.199,4.878,2.554,9.815,8.129,13.971  c5.921,4.414,14.129,7.377,23.112,8.343c1.883,0.202,3.781,0.313,5.642,0.329c7.817,0.066,15.137-1.536,20.611-4.511  c4.744-2.578,7.984-5.406,8.796-9.9c0.645-3.567-0.804-7.307-3.888-10.672c0.785-0.688,1.649-1.073,2.808-1.458  c0.161-0.054,0.322-0.111,0.482-0.166C77.794,60.858,78.943,64.313,78.604,67.736z M73.803,57.133  c1.893-2.329,4.667-2.915,7.309-2.984C78.746,55.837,74.056,57.053,73.803,57.133z M83.774,53.256  c-3.226-0.186-6.751-0.115-9.408,1.984c0.009-0.026,0.019-0.05,0.029-0.076c0.744-0.804,2.09-2.002,4.103-2.86  c3.85-1.643,8.6-1.388,13.838,0.719C89.465,53.047,86.656,53.422,83.774,53.256z"/>
</svg>