<?xml version="1.0"?>
<svg version="1.1" xmlns="http://www.w3.org/2000/svg" xmlns:xlink="http://www.w3.org/1999/xlink" width="2792" height="2792">
    <desc iVinci="yes" version="4.5" gridStep="20" showGrid="no" snapToGrid="no" codePlatform="0"/>
    <g id="Layer1" opacity="1">
        <g id="Shape1">
            <desc shapeID="1" type="0" basicInfo-basicType="0" basicInfo-roundedRectRadius="12" basicInfo-polygonSides="6" basicInfo-starPoints="5" bounding="rect(-45.6208,-23.9234,91.2415,47.8468)" text="" font-familyName="" font-pixelSize="20" font-bold="0" font-underline="0" font-alignment="1" strokeStyle="0" markerStart="0" markerEnd="0" shadowEnabled="0" shadowOffsetX="0" shadowOffsetY="2" shadowBlur="4" shadowOpacity="160" blurEnabled="0" blurRadius="4" transform="matrix(7.22366,-6.15324,6.39429,6.93828,2227.03,1491.76)" pers-center="0,0" pers-size="0,0" pers-start="0,0" pers-end="0,0" locked="0" mesh="" flag=""/>
            <path id="shapePath1" d="M2686.65,1353.86 L2465.62,1136.88 C2455.5,1135.61 2446.22,1142.52 2444.94,1152.37 L2428.59,1271.69 C2351.26,1255.04 2176.06,1238.89 2013.48,1377.38 C1819.44,1542.66 1854.34,1705.56 1854.34,1705.56 L1855.44,1726.87 C1855.44,1726.87 1912.71,1497.1 2103.65,1421.71 C2228.69,1372.36 2336.74,1396.08 2405,1424.12 L2389.14,1539.78 C2387.81,1549.67 2394.98,1558.73 2405.11,1560.06 L2683.08,1395.41 C2693.16,1389.91 2702.06,1387.22 2703.33,1377.38 C2704.67,1367.59 2694.87,1362.34 2686.65,1353.86 Z" style="stroke:none;fill-rule:nonzero;fill:#ffffff;fill-opacity:1;"/>
        </g>
        <g id="Shape2">
            <desc shapeID="2" type="0" basicInfo-basicType="0" basicInfo-roundedRectRadius="12" basicInfo-polygonSides="6" basicInfo-starPoints="5" bounding="rect(-46.6419,-24.4281,93.2837,48.8562)" text="" font-familyName="" font-pixelSize="20" font-bold="0" font-underline="0" font-alignment="1" strokeStyle="0" markerStart="0" markerEnd="0" shadowEnabled="0" shadowOffsetX="0" shadowOffsetY="2" shadowBlur="4" shadowOpacity="160" blurEnabled="0" blurRadius="4" transform="matrix(-6.82002,-6.13435,-6.87295,7.06283,581.343,1170.93)" pers-center="0,0" pers-size="0,0" pers-start="0,0" pers-end="0,0" locked="0" mesh="" flag=""/>
            <path id="shapePath2" d="M119.855,1033.74 L376.751,818.051 C386.976,816.665 395.805,823.547 396.423,833.466 L404.743,953.663 C483.321,936.091 659.896,918.043 813.394,1056.11 C996.586,1220.88 950.636,1385.55 950.636,1385.55 L948.093,1407.05 C948.093,1407.05 917.617,1170.31 731.46,1096.18 C609.554,1047.65 499.727,1072.67 429.461,1101.64 L437.542,1218.15 C438.2,1228.1 430.415,1237.31 420.17,1238.76 L120.624,1075.61 C110.899,1070.16 102.169,1067.54 101.559,1057.63 C100.873,1047.77 111.045,1042.38 119.855,1033.74 Z" style="stroke:none;fill-rule:nonzero;fill:#ffffff;fill-opacity:1;"/>
        </g>
        <g id="Shape3">
            <desc shapeID="3" type="0" basicInfo-basicType="0" basicInfo-roundedRectRadius="12" basicInfo-polygonSides="6" basicInfo-starPoints="5" bounding="rect(-768,-832,1536,1664)" text="" font-familyName="" font-pixelSize="20" font-bold="0" font-underline="0" font-alignment="1" strokeStyle="0" markerStart="0" markerEnd="0" shadowEnabled="0" shadowOffsetX="0" shadowOffsetY="2" shadowBlur="4" shadowOpacity="160" blurEnabled="0" blurRadius="4" transform="matrix(0.321647,0,0,0.300649,490.163,642.228)" pers-center="0,0" pers-size="0,0" pers-start="0,0" pers-end="0,0" locked="0" mesh="" flag=""/>
            <path id="shapePath3" d="M325.48,488.296 C325.48,483.085 323.443,478.575 319.369,474.767 C315.295,470.959 310.47,469.055 304.895,469.055 C299.319,469.055 294.495,470.959 290.421,474.767 C286.346,478.575 284.309,483.085 284.309,488.296 C284.309,493.508 286.346,498.017 290.421,501.825 C294.495,505.634 299.319,507.538 304.895,507.538 C310.47,507.538 315.295,505.634 319.369,501.825 C323.443,498.017 325.48,493.508 325.48,488.296 M696.017,661.47 C696.017,654.455 693.712,646.337 689.102,637.117 C684.492,627.897 678.756,623.187 671.894,622.987 C675.11,619.579 677.791,614.819 679.935,608.706 C682.079,602.593 683.151,597.031 683.151,592.02 C683.151,578.19 677.469,566.264 666.104,556.243 C669.964,549.829 671.894,542.914 671.894,535.498 C671.894,528.082 670.018,520.716 666.265,513.4 C662.512,506.085 657.42,500.823 650.987,497.616 C652.059,491.603 652.595,485.991 652.595,480.78 C652.595,463.743 647.341,451.116 636.834,442.898 C626.327,434.681 611.746,430.572 593.09,430.572 L551.92,430.572 C523.829,430.572 487.161,437.888 441.916,452.519 C440.844,452.92 437.735,453.972 432.589,455.676 C427.442,457.38 423.636,458.632 421.17,459.434 C418.704,460.236 414.952,461.388 409.912,462.891 C404.873,464.395 400.799,465.497 397.69,466.199 C394.581,466.9 391.042,467.552 387.076,468.153 C383.108,468.754 379.731,469.055 376.944,469.055 L366.651,469.055 L366.651,661.47 L376.944,661.47 C380.374,661.47 384.181,662.372 388.362,664.176 C392.543,665.98 396.832,668.685 401.228,672.293 C405.624,675.901 409.752,679.459 413.611,682.966 C417.471,686.474 421.76,690.883 426.477,696.195 C431.195,701.506 434.894,705.765 437.574,708.972 C440.254,712.179 443.632,716.288 447.706,721.299 C451.78,726.31 454.246,729.316 455.104,730.318 C466.898,743.948 475.153,753.067 479.871,757.677 C488.662,766.296 495.042,777.27 499.009,790.598 C502.976,803.927 506.246,816.504 508.819,828.33 C511.392,840.155 515.466,848.674 521.041,853.885 C541.627,853.885 555.35,849.175 562.212,839.755 C569.074,830.334 572.505,815.803 572.505,796.16 C572.505,784.335 567.359,768.25 557.066,747.906 C546.773,727.562 541.627,711.578 541.627,699.953 L654.846,699.953 C665.568,699.953 675.11,696.095 683.473,688.378 C691.836,680.661 696.017,671.692 696.017,661.47 M737.188,661.771 C737.188,682.415 729.04,700.354 712.743,715.587 C696.446,730.819 677.147,738.436 654.846,738.436 L598.237,738.436 C608.529,758.279 613.676,777.52 613.676,796.16 C613.676,819.812 609.923,838.452 602.418,852.081 C594.913,865.911 583.977,876.083 569.61,882.597 C555.243,889.111 539.054,892.368 521.041,892.368 C510.105,892.368 500.456,888.66 492.093,881.244 C484.803,874.63 479.013,866.412 474.724,856.591 C470.436,846.77 467.702,837.7 466.522,829.382 C465.343,821.064 463.467,812.596 460.893,803.977 C458.32,795.359 454.997,788.945 450.922,784.736 C440.63,774.714 429.158,761.987 416.506,746.553 C394.849,720.297 380.16,704.763 372.441,699.953 L284.309,699.953 C272.944,699.953 263.241,696.195 255.2,688.679 C247.159,681.162 243.138,672.093 243.138,661.47 L243.138,469.055 C243.138,458.432 247.159,449.362 255.2,441.846 C263.241,434.33 272.944,430.572 284.309,430.572 L376.944,430.572 C381.661,430.572 396.457,426.563 421.331,418.546 C448.778,409.727 472.687,403.113 493.058,398.703 C513.429,394.293 534.872,392.089 557.388,392.089 L593.412,392.089 C623.432,392.089 647.717,400.006 666.265,415.84 C684.813,431.674 693.98,453.321 693.766,480.78 L693.766,482.283 C706.632,497.717 713.065,515.555 713.065,535.799 C713.065,540.208 712.743,544.518 712.1,548.727 C720.248,562.156 724.322,576.587 724.322,592.02 C724.322,599.236 723.357,606.151 721.427,612.765 C731.935,627.597 737.188,643.932 737.188,661.771 Z" style="stroke:none;fill-rule:nonzero;fill:#ffffff;fill-opacity:1;"/>
        </g>
        <g id="Shape4">
            <desc shapeID="4" type="0" basicInfo-basicType="0" basicInfo-roundedRectRadius="12" basicInfo-polygonSides="6" basicInfo-starPoints="5" bounding="rect(0,0,0,0)" text="" font-familyName="Helvetica" font-pixelSize="20" font-bold="0" font-underline="0" font-alignment="1" strokeStyle="0" markerStart="0" markerEnd="0" shadowEnabled="0" shadowOffsetX="0" shadowOffsetY="2" shadowBlur="4" shadowOpacity="160" blurEnabled="0" blurRadius="4" transform="matrix(0.828914,0,0,0.796916,2432.94,312.991)" pers-center="0,0" pers-size="0,0" pers-start="0,0" pers-end="0,0" locked="0" mesh="" flag=""/>
            <path id="shapePath4" d="M2432.94,312.991 Z" style="stroke:none;fill-rule:evenodd;fill:#ffffff;fill-opacity:1;"/>
        </g>
        <g id="Shape5">
            <desc shapeID="5" type="0" basicInfo-basicType="0" basicInfo-roundedRectRadius="12" basicInfo-polygonSides="6" basicInfo-starPoints="5" bounding="rect(-62.5709,-67.7883,125.142,135.577)" text="" font-familyName="" font-pixelSize="20" font-bold="0" font-underline="0" font-alignment="1" strokeStyle="0" markerStart="0" markerEnd="0" shadowEnabled="0" shadowOffsetX="0" shadowOffsetY="2" shadowBlur="4" shadowOpacity="160" blurEnabled="0" blurRadius="4" transform="matrix(3.94792,0,0,3.77677,2336.02,864.535)" pers-center="0,0" pers-size="0,0" pers-start="0,0" pers-end="0,0" locked="0" mesh="" flag=""/>
            <path id="shapePath5" d="M2567.29,894.692 C2577.8,879.509 2583.04,862.793 2583.04,844.536 C2583.04,823.405 2574.9,805.05 2558.61,789.444 C2542.31,773.854 2523.01,766.062 2500.71,766.062 L2444.1,766.062 C2454.38,745.754 2459.54,726.058 2459.54,706.982 C2459.54,682.98 2455.78,663.904 2448.28,649.749 C2440.77,635.59 2429.83,625.181 2415.47,618.511 C2401.09,611.845 2384.91,608.514 2366.9,608.514 C2355.96,608.514 2346.31,612.31 2337.95,619.901 C2328.73,628.516 2322.08,639.597 2318.01,653.137 C2313.93,666.673 2310.66,679.65 2308.19,692.06 C2305.73,704.47 2301.92,713.24 2296.78,718.369 C2286.27,729.242 2274.8,742.374 2262.36,757.757 C2240.7,784.629 2226.01,800.529 2218.29,805.454 L2130.16,805.454 C2118.8,805.454 2109.09,809.306 2101.05,816.992 C2093.01,824.685 2088.99,833.969 2088.99,844.842 L2088.99,1041.77 C2088.99,1052.65 2093.01,1061.93 2101.05,1069.62 C2109.1,1077.31 2118.8,1081.16 2130.16,1081.16 L2222.8,1081.16 C2227.51,1081.16 2242.3,1085.27 2267.18,1093.47 C2293.55,1102.29 2316.77,1109.01 2336.82,1113.63 C2356.87,1118.25 2377.18,1120.56 2397.78,1120.56 L2427.68,1120.56 L2439.27,1120.56 C2469.5,1120.56 2493.83,1112.29 2512.28,1095.78 C2530.72,1079.26 2539.83,1056.75 2539.62,1028.23 C2552.48,1012.43 2558.92,994.181 2558.92,973.465 C2558.92,968.954 2558.6,964.542 2557.96,960.228 C2566.1,946.492 2570.18,931.719 2570.18,915.925 C2570.18,908.538 2569.22,901.459 2567.29,894.692 M2165.22,1035.93 C2161.15,1039.82 2156.32,1041.78 2150.75,1041.78 C2145.17,1041.78 2140.35,1039.82 2136.28,1035.93 C2132.2,1032.04 2130.16,1027.42 2130.16,1022.08 C2130.16,1016.75 2132.2,1012.13 2136.28,1008.24 C2140.35,1004.34 2145.17,1002.39 2150.75,1002.39 C2156.32,1002.39 2161.15,1004.34 2165.22,1008.24 C2169.3,1012.13 2171.34,1016.75 2171.34,1022.08 C2171.34,1027.42 2169.3,1032.04 2165.22,1035.93 M2534.97,869.78 C2530.36,879.218 2524.62,884.037 2517.76,884.241 C2520.97,887.731 2523.66,892.605 2525.8,898.855 C2527.95,905.117 2529.01,910.805 2529.01,915.936 C2529.01,930.084 2523.33,942.294 2511.97,952.545 C2515.83,959.109 2517.76,966.188 2517.76,973.778 C2517.76,981.368 2515.89,988.905 2512.13,996.39 C2508.38,1003.88 2503.29,1009.26 2496.86,1012.54 C2497.93,1018.7 2498.46,1024.44 2498.46,1029.77 C2498.46,1064.02 2477.87,1081.15 2436.7,1081.15 L2397.79,1081.15 C2369.69,1081.15 2333.02,1073.67 2287.78,1058.7 C2286.7,1058.28 2283.59,1057.21 2278.45,1055.47 C2273.3,1053.72 2269.49,1052.44 2267.02,1051.62 C2264.56,1050.79 2260.81,1049.62 2255.77,1048.08 C2250.73,1046.54 2246.66,1045.41 2243.54,1044.69 C2240.44,1043.98 2236.9,1043.31 2232.93,1042.69 C2228.97,1042.08 2225.59,1041.77 2222.8,1041.77 L2212.51,1041.77 L2212.51,844.85 L2222.8,844.85 C2226.23,844.85 2230.04,843.924 2234.22,842.081 C2238.4,840.234 2242.69,837.466 2247.09,833.772 C2251.48,830.079 2255.61,826.438 2259.47,822.846 C2263.33,819.258 2267.62,814.745 2272.34,809.31 C2277.06,803.871 2280.76,799.513 2283.43,796.231 C2286.11,792.949 2289.49,788.742 2293.57,783.613 C2297.64,778.488 2300.1,775.41 2300.96,774.382 C2312.75,760.435 2321.01,751.103 2325.73,746.381 C2334.52,737.563 2340.9,726.33 2344.87,712.689 C2348.84,699.043 2352.11,686.172 2354.67,674.071 C2357.25,661.967 2361.32,653.246 2366.9,647.913 C2387.48,647.913 2401.21,652.733 2408.07,662.375 C2414.93,672.017 2418.36,686.89 2418.36,706.993 C2418.36,719.094 2413.21,735.557 2402.92,756.379 C2392.63,777.2 2387.48,793.561 2387.48,805.458 L2500.71,805.458 C2511.44,805.458 2520.97,809.404 2529.33,817.305 C2537.69,825.203 2541.88,834.38 2541.88,844.846 C2541.88,852.025 2539.58,860.334 2534.97,869.78 Z" style="stroke:none;fill-rule:evenodd;fill:#ffffff;fill-opacity:1;"/>
        </g>
        <g id="Shape6">
            <desc shapeID="6" type="2" basicInfo-basicType="0" basicInfo-roundedRectRadius="12" basicInfo-polygonSides="6" basicInfo-starPoints="5" bounding="rect(-686.065,-236.915,1372.13,473.829)" text="Swipe!" font-familyName="Lato" font-pixelSize="140" font-bold="0" font-underline="0" font-alignment="1" strokeStyle="0" markerStart="0" markerEnd="0" shadowEnabled="0" shadowOffsetX="0" shadowOffsetY="2" shadowBlur="4" shadowOpacity="160" blurEnabled="0" blurRadius="4" transform="matrix(1,0,0,1,1453.57,1506.93)" pers-center="0,0" pers-size="0,0" pers-start="0,0" pers-end="0,0" locked="0" mesh="" flag=""/>
            <path id="shapePath6" d="M1309.19,1476.57 C1308.77,1477.27 1308.33,1477.8 1307.86,1478.15 C1307.4,1478.5 1306.79,1478.67 1306.04,1478.67 C1305.25,1478.67 1304.33,1478.27 1303.28,1477.48 C1302.23,1476.69 1300.9,1475.81 1299.29,1474.86 C1297.68,1473.9 1295.74,1473.02 1293.48,1472.23 C1291.21,1471.44 1288.47,1471.04 1285.25,1471.04 C1282.22,1471.04 1279.54,1471.45 1277.2,1472.27 C1274.87,1473.08 1272.92,1474.19 1271.36,1475.59 C1269.79,1476.99 1268.62,1478.64 1267.82,1480.53 C1267.03,1482.42 1266.63,1484.46 1266.63,1486.65 C1266.63,1489.45 1267.32,1491.77 1268.7,1493.62 C1270.07,1495.46 1271.89,1497.03 1274.16,1498.34 C1276.42,1499.65 1278.99,1500.78 1281.86,1501.74 C1284.73,1502.69 1287.67,1503.68 1290.68,1504.71 C1293.69,1505.74 1296.63,1506.89 1299.5,1508.18 C1302.37,1509.46 1304.93,1511.08 1307.2,1513.04 C1309.46,1515 1311.28,1517.4 1312.66,1520.25 C1314.03,1523.1 1314.72,1526.6 1314.72,1530.75 C1314.72,1535.14 1313.98,1539.26 1312.48,1543.11 C1310.99,1546.96 1308.81,1550.3 1305.94,1553.15 C1303.07,1556 1299.54,1558.24 1295.37,1559.87 C1291.19,1561.5 1286.44,1562.32 1281.12,1562.32 C1274.64,1562.32 1268.72,1561.14 1263.38,1558.79 C1258.03,1556.43 1253.47,1553.24 1249.69,1549.23 L1253.61,1542.79 C1253.99,1542.28 1254.44,1541.85 1254.98,1541.5 C1255.51,1541.15 1256.11,1540.97 1256.76,1540.97 C1257.74,1540.97 1258.86,1541.5 1260.12,1542.55 C1261.38,1543.6 1262.96,1544.75 1264.85,1546.01 C1266.74,1547.27 1269.02,1548.43 1271.71,1549.48 C1274.39,1550.53 1277.67,1551.05 1281.54,1551.05 C1284.76,1551.05 1287.63,1550.61 1290.15,1549.72 C1292.67,1548.83 1294.81,1547.59 1296.56,1545.98 C1298.31,1544.37 1299.65,1542.44 1300.58,1540.2 C1301.52,1537.96 1301.98,1535.46 1301.98,1532.71 C1301.98,1529.68 1301.29,1527.19 1299.92,1525.26 C1298.54,1523.32 1296.73,1521.7 1294.49,1520.39 C1292.25,1519.08 1289.7,1517.98 1286.83,1517.07 C1283.96,1516.16 1281.02,1515.22 1278.01,1514.27 C1275,1513.31 1272.06,1512.2 1269.19,1510.94 C1266.32,1509.68 1263.76,1508.05 1261.52,1506.04 C1259.28,1504.03 1257.47,1501.53 1256.1,1498.52 C1254.72,1495.51 1254.03,1491.78 1254.03,1487.35 C1254.03,1483.8 1254.72,1480.37 1256.1,1477.06 C1257.47,1473.75 1259.47,1470.81 1262.08,1468.24 C1264.7,1465.67 1267.93,1463.62 1271.78,1462.08 C1275.63,1460.54 1280.05,1459.77 1285.04,1459.77 C1290.64,1459.77 1295.75,1460.66 1300.37,1462.43 C1304.99,1464.2 1309.03,1466.77 1312.48,1470.13 L1309.19,1476.57 M1320.8,1490.29 L1330.6,1490.29 C1331.63,1490.29 1332.47,1490.55 1333.12,1491.06 C1333.77,1491.57 1334.22,1492.18 1334.45,1492.88 L1348.03,1538.52 C1348.4,1540.2 1348.75,1541.82 1349.08,1543.39 C1349.41,1544.95 1349.69,1546.52 1349.92,1548.11 C1350.29,1546.52 1350.71,1544.95 1351.18,1543.39 C1351.65,1541.82 1352.14,1540.2 1352.65,1538.52 L1367.63,1492.6 C1367.86,1491.9 1368.27,1491.32 1368.86,1490.85 C1369.44,1490.38 1370.17,1490.15 1371.06,1490.15 L1376.45,1490.15 C1377.38,1490.15 1378.15,1490.38 1378.76,1490.85 C1379.37,1491.32 1379.79,1491.9 1380.02,1492.6 L1394.65,1538.52 C1395.16,1540.15 1395.62,1541.76 1396.02,1543.35 C1396.41,1544.94 1396.8,1546.5 1397.17,1548.04 C1397.4,1546.5 1397.71,1544.89 1398.08,1543.21 C1398.45,1541.53 1398.85,1539.97 1399.27,1538.52 L1413.13,1492.88 C1413.36,1492.13 1413.81,1491.52 1414.46,1491.03 C1415.11,1490.54 1415.88,1490.29 1416.77,1490.29 L1426.15,1490.29 L1403.19,1561.2 L1393.32,1561.2 C1392.11,1561.2 1391.27,1560.41 1390.8,1558.82 L1375.12,1510.73 C1374.75,1509.66 1374.44,1508.57 1374.21,1507.48 C1373.98,1506.38 1373.74,1505.29 1373.51,1504.22 C1373.28,1505.29 1373.04,1506.39 1372.81,1507.51 C1372.58,1508.63 1372.27,1509.73 1371.9,1510.8 L1356.01,1558.82 C1355.5,1560.41 1354.54,1561.2 1353.14,1561.2 L1343.76,1561.2 L1320.8,1490.29 M1451.13,1490.29 L1451.13,1561.2 L1438.67,1561.2 L1438.67,1490.29 L1451.13,1490.29 M1453.93,1468.03 C1453.93,1469.24 1453.69,1470.38 1453.2,1471.43 C1452.71,1472.48 1452.06,1473.41 1451.24,1474.23 C1450.42,1475.04 1449.48,1475.68 1448.4,1476.15 C1447.33,1476.62 1446.19,1476.85 1444.97,1476.85 C1443.76,1476.85 1442.63,1476.62 1441.58,1476.15 C1440.53,1475.68 1439.6,1475.04 1438.78,1474.23 C1437.96,1473.41 1437.32,1472.48 1436.85,1471.43 C1436.39,1470.38 1436.15,1469.24 1436.15,1468.03 C1436.15,1466.82 1436.39,1465.66 1436.85,1464.57 C1437.32,1463.47 1437.96,1462.51 1438.78,1461.7 C1439.6,1460.88 1440.53,1460.24 1441.58,1459.77 C1442.63,1459.3 1443.76,1459.07 1444.97,1459.07 C1446.19,1459.07 1447.33,1459.3 1448.4,1459.77 C1449.48,1460.24 1450.42,1460.88 1451.24,1461.7 C1452.06,1462.51 1452.71,1463.47 1453.2,1464.57 C1453.69,1465.66 1453.93,1466.82 1453.93,1468.03 M1473.1,1585.21 L1473.1,1490.29 L1480.52,1490.29 C1482.3,1490.29 1483.42,1491.15 1483.88,1492.88 L1484.93,1501.28 C1487.97,1497.59 1491.43,1494.63 1495.33,1492.39 C1499.22,1490.15 1503.72,1489.03 1508.8,1489.03 C1512.86,1489.03 1516.55,1489.81 1519.86,1491.38 C1523.18,1492.94 1526,1495.25 1528.33,1498.31 C1530.67,1501.36 1532.46,1505.15 1533.72,1509.68 C1534.98,1514.21 1535.61,1519.41 1535.61,1525.29 C1535.61,1530.52 1534.91,1535.38 1533.51,1539.89 C1532.11,1544.39 1530.11,1548.29 1527.49,1551.58 C1524.88,1554.87 1521.67,1557.46 1517.87,1559.35 C1514.06,1561.24 1509.78,1562.18 1505.02,1562.18 C1500.64,1562.18 1496.89,1561.46 1493.79,1560.01 C1490.68,1558.56 1487.94,1556.51 1485.56,1553.85 L1485.56,1585.21 L1473.1,1585.21 M1504.67,1499.11 C1500.61,1499.11 1497.05,1500.04 1494,1501.91 C1490.94,1503.78 1488.13,1506.41 1485.56,1509.82 L1485.56,1544.12 C1487.85,1547.2 1490.36,1549.37 1493.09,1550.63 C1495.82,1551.89 1498.86,1552.52 1502.22,1552.52 C1508.8,1552.52 1513.87,1550.16 1517.41,1545.45 C1520.96,1540.74 1522.73,1534.02 1522.73,1525.29 C1522.73,1520.67 1522.32,1516.7 1521.51,1513.39 C1520.69,1510.08 1519.51,1507.36 1517.97,1505.24 C1516.43,1503.11 1514.54,1501.56 1512.3,1500.58 C1510.06,1499.6 1507.52,1499.11 1504.67,1499.11 M1578.44,1489.17 C1582.68,1489.17 1586.6,1489.88 1590.2,1491.31 C1593.79,1492.73 1596.89,1494.78 1599.51,1497.47 C1602.12,1500.15 1604.16,1503.46 1605.63,1507.41 C1607.1,1511.35 1607.84,1515.84 1607.84,1520.88 C1607.84,1522.84 1607.63,1524.15 1607.21,1524.8 C1606.79,1525.45 1605.99,1525.78 1604.83,1525.78 L1557.65,1525.78 C1557.74,1530.26 1558.35,1534.16 1559.47,1537.47 C1560.59,1540.78 1562.13,1543.55 1564.09,1545.77 C1566.05,1547.98 1568.38,1549.64 1571.09,1550.74 C1573.79,1551.83 1576.83,1552.38 1580.19,1552.38 C1583.31,1552.38 1586.01,1552.02 1588.27,1551.3 C1590.54,1550.57 1592.48,1549.79 1594.12,1548.95 C1595.75,1548.11 1597.12,1547.33 1598.21,1546.61 C1599.31,1545.88 1600.25,1545.52 1601.05,1545.52 C1602.07,1545.52 1602.87,1545.92 1603.43,1546.71 L1606.93,1551.26 C1605.39,1553.13 1603.54,1554.75 1601.4,1556.13 C1599.25,1557.5 1596.95,1558.63 1594.5,1559.52 C1592.05,1560.41 1589.52,1561.07 1586.91,1561.52 C1584.29,1561.96 1581.7,1562.18 1579.14,1562.18 C1574.24,1562.18 1569.72,1561.35 1565.59,1559.7 C1561.46,1558.04 1557.89,1555.61 1554.88,1552.42 C1551.87,1549.22 1549.53,1545.26 1547.85,1540.55 C1546.17,1535.84 1545.33,1530.42 1545.33,1524.31 C1545.33,1519.36 1546.09,1514.74 1547.6,1510.45 C1549.12,1506.16 1551.3,1502.44 1554.15,1499.29 C1556.99,1496.14 1560.47,1493.66 1564.58,1491.87 C1568.68,1490.07 1573.3,1489.17 1578.44,1489.17 M1578.72,1498.34 C1572.7,1498.34 1567.96,1500.08 1564.51,1503.56 C1561.05,1507.03 1558.91,1511.85 1558.07,1518.01 L1596.64,1518.01 C1596.64,1515.12 1596.24,1512.47 1595.45,1510.07 C1594.65,1507.66 1593.49,1505.59 1591.95,1503.84 C1590.41,1502.09 1588.53,1500.73 1586.31,1499.78 C1584.1,1498.82 1581.56,1498.34 1578.72,1498.34 M1643.61,1460.89 L1643.61,1500.93 C1643.61,1503.03 1643.57,1505.08 1643.5,1507.09 C1643.43,1509.1 1643.33,1511.12 1643.19,1513.15 C1643.05,1515.18 1642.87,1517.25 1642.66,1519.38 C1642.45,1521.5 1642.21,1523.77 1641.93,1526.2 L1633.46,1526.2 C1633.18,1523.77 1632.93,1521.5 1632.72,1519.38 C1632.51,1517.25 1632.34,1515.18 1632.2,1513.15 C1632.06,1511.12 1631.95,1509.1 1631.88,1507.09 C1631.81,1505.08 1631.78,1503.03 1631.78,1500.93 L1631.78,1460.89 L1643.61,1460.89 M1628.77,1553.5 C1628.77,1552.29 1628.99,1551.14 1629.43,1550.07 C1629.88,1549 1630.48,1548.06 1631.25,1547.27 C1632.02,1546.48 1632.94,1545.85 1634.02,1545.38 C1635.09,1544.91 1636.23,1544.68 1637.45,1544.68 C1638.66,1544.68 1639.8,1544.91 1640.88,1545.38 C1641.95,1545.85 1642.88,1546.48 1643.68,1547.27 C1644.47,1548.06 1645.09,1549 1645.53,1550.07 C1645.98,1551.14 1646.2,1552.29 1646.2,1553.5 C1646.2,1554.76 1645.98,1555.92 1645.53,1556.97 C1645.09,1558.02 1644.47,1558.94 1643.68,1559.73 C1642.88,1560.52 1641.95,1561.14 1640.88,1561.59 C1639.8,1562.03 1638.66,1562.25 1637.45,1562.25 C1636.23,1562.25 1635.09,1562.03 1634.02,1561.59 C1632.94,1561.14 1632.02,1560.52 1631.25,1559.73 C1630.48,1558.94 1629.88,1558.02 1629.43,1556.97 C1628.99,1555.92 1628.77,1554.76 1628.77,1553.5 Z" style="stroke:none;fill-rule:nonzero;fill:#ffffff;fill-opacity:1;"/>
        </g>
    </g>
    <g id="Layer2" opacity="1">
        <g id="Shape7">
            <desc shapeID="7" type="0" basicInfo-basicType="1" basicInfo-roundedRectRadius="12" basicInfo-polygonSides="6" basicInfo-starPoints="5" bounding="rect(-1497.47,-267.783,2994.94,535.566)" text="" font-familyName="Lato" font-pixelSize="140" font-bold="0" font-underline="0" font-alignment="1" strokeStyle="0" markerStart="0" markerEnd="0" shadowEnabled="0" shadowOffsetX="0" shadowOffsetY="2" shadowBlur="4" shadowOpacity="160" blurEnabled="0" blurRadius="4" transform="matrix(1,0,0,1.09211,1423.48,2550.99)" pers-center="0,0" pers-size="0,0" pers-start="0,0" pers-end="0,0" locked="0" mesh="" flag=""/>
            <path id="shapePath7" d="M-73.9927,2258.54 L2920.95,2258.54 L2920.95,2843.43 L-73.9927,2843.43 L-73.9927,2258.54 Z" style="stroke:none;fill-rule:evenodd;fill:#000000;fill-opacity:0.509804;"/>
        </g>
    </g>
    <g id="Layer3" opacity="1">
        <g id="Shape8">
            <desc shapeID="8" type="2" basicInfo-basicType="0" basicInfo-roundedRectRadius="12" basicInfo-polygonSides="6" basicInfo-starPoints="5" bounding="rect(-1275.88,-194.961,2551.77,389.922)" text="UNDO    HELP    INFO    DISLIKE    LIKE" font-familyName="Lato" font-pixelSize="140" font-bold="0" font-underline="0" font-alignment="1" strokeStyle="0" markerStart="0" markerEnd="0" shadowEnabled="0" shadowOffsetX="0" shadowOffsetY="2" shadowBlur="4" shadowOpacity="160" blurEnabled="0" blurRadius="4" transform="matrix(1,0,0,1,1384.06,2493.25)" pers-center="0,0" pers-size="0,0" pers-start="0,0" pers-end="0,0" locked="0" mesh="" flag=""/>
            <path id="shapePath8" d="M261.481,2536.69 C265.635,2536.69 269.345,2535.99 272.611,2534.59 C275.878,2533.19 278.643,2531.23 280.906,2528.71 C283.17,2526.19 284.896,2523.18 286.086,2519.68 C287.276,2516.18 287.871,2512.33 287.871,2508.13 L287.871,2447.16 L301.381,2447.16 L301.381,2508.13 C301.381,2513.92 300.46,2519.28 298.616,2524.23 C296.773,2529.18 294.136,2533.46 290.706,2537.08 C287.276,2540.69 283.088,2543.53 278.141,2545.58 C273.195,2547.63 267.641,2548.66 261.481,2548.66 C255.321,2548.66 249.768,2547.63 244.821,2545.58 C239.875,2543.53 235.675,2540.69 232.221,2537.08 C228.768,2533.46 226.12,2529.18 224.276,2524.23 C222.433,2519.28 221.511,2513.92 221.511,2508.13 L221.511,2447.16 L235.021,2447.16 L235.021,2508.06 C235.021,2512.26 235.616,2516.11 236.806,2519.61 C237.996,2523.11 239.723,2526.12 241.986,2528.64 C244.25,2531.16 247.026,2533.13 250.316,2534.56 C253.606,2535.98 257.328,2536.69 261.481,2536.69 M331.679,2447.16 C332.892,2447.16 333.791,2447.31 334.374,2447.62 C334.957,2447.92 335.622,2448.54 336.369,2449.47 L394.469,2525.07 C394.329,2523.86 394.236,2522.68 394.189,2521.54 C394.142,2520.39 394.119,2519.28 394.119,2518.21 L394.119,2447.16 L406.019,2447.16 L406.019,2547.47 L399.159,2547.47 C398.086,2547.47 397.187,2547.28 396.464,2546.91 C395.741,2546.54 395.029,2545.91 394.329,2545.02 L336.299,2469.49 C336.392,2470.66 336.462,2471.8 336.509,2472.92 C336.556,2474.04 336.579,2475.07 336.579,2476 L336.579,2547.47 L324.679,2547.47 L324.679,2447.16 L331.679,2447.16 M517.447,2497.35 C517.447,2504.86 516.257,2511.7 513.877,2517.86 C511.497,2524.02 508.137,2529.29 503.797,2533.68 C499.457,2538.07 494.254,2541.46 488.187,2543.87 C482.12,2546.27 475.4,2547.47 468.027,2547.47 L430.507,2547.47 L430.507,2447.16 L468.027,2447.16 C475.4,2447.16 482.12,2448.36 488.187,2450.77 C494.254,2453.17 499.457,2456.58 503.797,2460.99 C508.137,2465.4 511.497,2470.68 513.877,2476.84 C516.257,2483 517.447,2489.84 517.447,2497.35 M503.517,2497.35 C503.517,2491.19 502.677,2485.68 500.997,2480.83 C499.317,2475.98 496.937,2471.87 493.857,2468.51 C490.777,2465.15 487.044,2462.58 482.657,2460.81 C478.27,2459.04 473.394,2458.15 468.027,2458.15 L444.157,2458.15 L444.157,2536.48 L468.027,2536.48 C473.394,2536.48 478.27,2535.59 482.657,2533.82 C487.044,2532.05 490.777,2529.49 493.857,2526.16 C496.937,2522.82 499.317,2518.72 500.997,2513.87 C502.677,2509.02 503.517,2503.51 503.517,2497.35 M629.083,2497.35 C629.083,2504.86 627.893,2511.76 625.513,2518.04 C623.133,2524.31 619.773,2529.71 615.433,2534.24 C611.093,2538.77 605.878,2542.28 599.788,2544.78 C593.698,2547.27 586.967,2548.52 579.593,2548.52 C572.22,2548.52 565.5,2547.27 559.433,2544.78 C553.367,2542.28 548.163,2538.77 543.823,2534.24 C539.483,2529.71 536.123,2524.31 533.743,2518.04 C531.363,2511.76 530.173,2504.86 530.173,2497.35 C530.173,2489.84 531.363,2482.94 533.743,2476.67 C536.123,2470.39 539.483,2464.98 543.823,2460.43 C548.163,2455.88 553.367,2452.34 559.433,2449.82 C565.5,2447.3 572.22,2446.04 579.593,2446.04 C586.967,2446.04 593.698,2447.3 599.788,2449.82 C605.878,2452.34 611.093,2455.88 615.433,2460.43 C619.773,2464.98 623.133,2470.39 625.513,2476.67 C627.893,2482.94 629.083,2489.84 629.083,2497.35 M615.153,2497.35 C615.153,2491.19 614.313,2485.66 612.633,2480.76 C610.953,2475.86 608.573,2471.72 605.493,2468.34 C602.413,2464.95 598.68,2462.35 594.293,2460.53 C589.907,2458.71 585.007,2457.8 579.593,2457.8 C574.227,2457.8 569.35,2458.71 564.963,2460.53 C560.577,2462.35 556.832,2464.95 553.728,2468.34 C550.625,2471.72 548.233,2475.86 546.553,2480.76 C544.873,2485.66 544.033,2491.19 544.033,2497.35 C544.033,2503.51 544.873,2509.03 546.553,2513.91 C548.233,2518.78 550.625,2522.91 553.728,2526.3 C556.832,2529.68 560.577,2532.27 564.963,2534.07 C569.35,2535.86 574.227,2536.76 579.593,2536.76 C585.007,2536.76 589.907,2535.86 594.293,2534.07 C598.68,2532.27 602.413,2529.68 605.493,2526.3 C608.573,2522.91 610.953,2518.78 612.633,2513.91 C614.313,2509.03 615.153,2503.51 615.153,2497.35 M837.035,2547.47 L823.385,2547.47 L823.385,2501.83 L769.345,2501.83 L769.345,2547.47 L755.695,2547.47 L755.695,2447.16 L769.345,2447.16 L769.345,2491.89 L823.385,2491.89 L823.385,2447.16 L837.035,2447.16 L837.035,2547.47 M923.333,2447.16 L923.333,2458.22 L875.173,2458.22 L875.173,2491.54 L914.163,2491.54 L914.163,2502.18 L875.173,2502.18 L875.173,2536.41 L923.333,2536.41 L923.333,2547.47 L861.523,2547.47 L861.523,2447.16 L923.333,2447.16 M956.431,2536.06 L999.831,2536.06 L999.831,2547.47 L942.851,2547.47 L942.851,2447.16 L956.431,2447.16 L956.431,2536.06 M1029.71,2509.95 L1029.71,2547.47 L1016.2,2547.47 L1016.2,2447.16 L1045.81,2447.16 C1052.16,2447.16 1057.68,2447.9 1062.37,2449.37 C1067.06,2450.84 1070.94,2452.92 1074.02,2455.63 C1077.1,2458.34 1079.4,2461.6 1080.92,2465.43 C1082.44,2469.26 1083.19,2473.53 1083.19,2478.24 C1083.19,2482.91 1082.38,2487.18 1080.74,2491.05 C1079.11,2494.92 1076.72,2498.26 1073.57,2501.06 C1070.42,2503.86 1066.51,2506.04 1061.84,2507.61 C1057.18,2509.17 1051.83,2509.95 1045.81,2509.95 L1029.71,2509.95 M1029.71,2499.17 L1045.81,2499.17 C1049.69,2499.17 1053.11,2498.66 1056.07,2497.63 C1059.03,2496.6 1061.52,2495.17 1063.52,2493.33 C1065.53,2491.48 1067.05,2489.28 1068.07,2486.71 C1069.1,2484.14 1069.61,2481.32 1069.61,2478.24 C1069.61,2471.85 1067.64,2466.85 1063.7,2463.26 C1059.76,2459.67 1053.79,2457.87 1045.81,2457.87 L1029.71,2457.87 L1029.71,2499.17 M1224.5,2547.47 L1210.92,2547.47 L1210.92,2447.16 L1224.5,2447.16 L1224.5,2547.47 M1258.37,2447.16 C1259.58,2447.16 1260.48,2447.31 1261.06,2447.62 C1261.64,2447.92 1262.31,2448.54 1263.06,2449.47 L1321.16,2525.07 C1321.02,2523.86 1320.92,2522.68 1320.88,2521.54 C1320.83,2520.39 1320.81,2519.28 1320.81,2518.21 L1320.81,2447.16 L1332.71,2447.16 L1332.71,2547.47 L1325.85,2547.47 C1324.77,2547.47 1323.87,2547.28 1323.15,2546.91 C1322.43,2546.54 1321.72,2545.91 1321.02,2545.02 L1262.99,2469.49 C1263.08,2470.66 1263.15,2471.8 1263.2,2472.92 C1263.24,2474.04 1263.27,2475.07 1263.27,2476 L1263.27,2547.47 L1251.37,2547.47 L1251.37,2447.16 L1258.37,2447.16 M1419,2447.16 L1419,2458.22 L1370.84,2458.22 L1370.84,2493.29 L1412,2493.29 L1412,2504.35 L1370.84,2504.35 L1370.84,2547.47 L1357.19,2547.47 L1357.19,2447.16 L1419,2447.16 M1529.6,2497.35 C1529.6,2504.86 1528.41,2511.76 1526.03,2518.04 C1523.65,2524.31 1520.29,2529.71 1515.95,2534.24 C1511.61,2538.77 1506.39,2542.28 1500.3,2544.78 C1494.21,2547.27 1487.48,2548.52 1480.11,2548.52 C1472.74,2548.52 1466.02,2547.27 1459.95,2544.78 C1453.88,2542.28 1448.68,2538.77 1444.34,2534.24 C1440,2529.71 1436.64,2524.31 1434.26,2518.04 C1431.88,2511.76 1430.69,2504.86 1430.69,2497.35 C1430.69,2489.84 1431.88,2482.94 1434.26,2476.67 C1436.64,2470.39 1440,2464.98 1444.34,2460.43 C1448.68,2455.88 1453.88,2452.34 1459.95,2449.82 C1466.02,2447.3 1472.74,2446.04 1480.11,2446.04 C1487.48,2446.04 1494.21,2447.3 1500.3,2449.82 C1506.39,2452.34 1511.61,2455.88 1515.95,2460.43 C1520.29,2464.98 1523.65,2470.39 1526.03,2476.67 C1528.41,2482.94 1529.6,2489.84 1529.6,2497.35 M1515.67,2497.35 C1515.67,2491.19 1514.83,2485.66 1513.15,2480.76 C1511.47,2475.86 1509.09,2471.72 1506.01,2468.34 C1502.93,2464.95 1499.2,2462.35 1494.81,2460.53 C1490.42,2458.71 1485.52,2457.8 1480.11,2457.8 C1474.74,2457.8 1469.87,2458.71 1465.48,2460.53 C1461.09,2462.35 1457.35,2464.95 1454.24,2468.34 C1451.14,2471.72 1448.75,2475.86 1447.07,2480.76 C1445.39,2485.66 1444.55,2491.19 1444.55,2497.35 C1444.55,2503.51 1445.39,2509.03 1447.07,2513.91 C1448.75,2518.78 1451.14,2522.91 1454.24,2526.3 C1457.35,2529.68 1461.09,2532.27 1465.48,2534.07 C1469.87,2535.86 1474.74,2536.76 1480.11,2536.76 C1485.52,2536.76 1490.42,2535.86 1494.81,2534.07 C1499.2,2532.27 1502.93,2529.68 1506.01,2526.3 C1509.09,2522.91 1511.47,2518.78 1513.15,2513.91 C1514.83,2509.03 1515.67,2503.51 1515.67,2497.35 M1743.15,2497.35 C1743.15,2504.86 1741.96,2511.7 1739.58,2517.86 C1737.2,2524.02 1733.84,2529.29 1729.5,2533.68 C1725.16,2538.07 1719.96,2541.46 1713.89,2543.87 C1707.82,2546.27 1701.1,2547.47 1693.73,2547.47 L1656.21,2547.47 L1656.21,2447.16 L1693.73,2447.16 C1701.1,2447.16 1707.82,2448.36 1713.89,2450.77 C1719.96,2453.17 1725.16,2456.58 1729.5,2460.99 C1733.84,2465.4 1737.2,2470.68 1739.58,2476.84 C1741.96,2483 1743.15,2489.84 1743.15,2497.35 M1729.22,2497.35 C1729.22,2491.19 1728.38,2485.68 1726.7,2480.83 C1725.02,2475.98 1722.64,2471.87 1719.56,2468.51 C1716.48,2465.15 1712.75,2462.58 1708.36,2460.81 C1703.97,2459.04 1699.1,2458.15 1693.73,2458.15 L1669.86,2458.15 L1669.86,2536.48 L1693.73,2536.48 C1699.1,2536.48 1703.97,2535.59 1708.36,2533.82 C1712.75,2532.05 1716.48,2529.49 1719.56,2526.16 C1722.64,2522.82 1725.02,2518.72 1726.7,2513.87 C1728.38,2509.02 1729.22,2503.51 1729.22,2497.35 M1777.72,2547.47 L1764.14,2547.47 L1764.14,2447.16 L1777.72,2447.16 L1777.72,2547.47 M1855.97,2462.84 C1855.55,2463.54 1855.1,2464.07 1854.64,2464.42 C1854.17,2464.77 1853.56,2464.94 1852.82,2464.94 C1852.02,2464.94 1851.1,2464.54 1850.05,2463.75 C1849,2462.96 1847.67,2462.08 1846.06,2461.13 C1844.45,2460.17 1842.51,2459.29 1840.25,2458.5 C1837.99,2457.71 1835.25,2457.31 1832.03,2457.31 C1828.99,2457.31 1826.31,2457.72 1823.98,2458.54 C1821.64,2459.35 1819.69,2460.46 1818.13,2461.86 C1816.57,2463.26 1815.39,2464.91 1814.6,2466.8 C1813.8,2468.69 1813.41,2470.73 1813.41,2472.92 C1813.41,2475.72 1814.09,2478.04 1815.47,2479.89 C1816.85,2481.73 1818.67,2483.3 1820.93,2484.61 C1823.19,2485.92 1825.76,2487.05 1828.63,2488.01 C1831.5,2488.96 1834.44,2489.95 1837.45,2490.98 C1840.46,2492.01 1843.4,2493.16 1846.27,2494.45 C1849.14,2495.73 1851.71,2497.35 1853.97,2499.31 C1856.23,2501.27 1858.05,2503.67 1859.43,2506.52 C1860.81,2509.37 1861.5,2512.87 1861.5,2517.02 C1861.5,2521.41 1860.75,2525.53 1859.26,2529.38 C1857.76,2533.23 1855.58,2536.57 1852.71,2539.42 C1849.84,2542.27 1846.32,2544.51 1842.14,2546.14 C1837.96,2547.77 1833.22,2548.59 1827.9,2548.59 C1821.41,2548.59 1815.49,2547.41 1810.15,2545.06 C1804.81,2542.7 1800.25,2539.51 1796.47,2535.5 L1800.39,2529.06 C1800.76,2528.55 1801.21,2528.12 1801.75,2527.77 C1802.29,2527.42 1802.88,2527.24 1803.54,2527.24 C1804.52,2527.24 1805.64,2527.77 1806.9,2528.82 C1808.16,2529.87 1809.73,2531.02 1811.62,2532.28 C1813.51,2533.54 1815.8,2534.7 1818.48,2535.75 C1821.16,2536.8 1824.44,2537.32 1828.32,2537.32 C1831.54,2537.32 1834.41,2536.88 1836.93,2535.99 C1839.45,2535.1 1841.58,2533.86 1843.33,2532.25 C1845.08,2530.64 1846.42,2528.71 1847.36,2526.47 C1848.29,2524.23 1848.76,2521.73 1848.76,2518.98 C1848.76,2515.95 1848.07,2513.46 1846.69,2511.53 C1845.31,2509.59 1843.51,2507.97 1841.27,2506.66 C1839.03,2505.35 1836.47,2504.25 1833.6,2503.34 C1830.73,2502.43 1827.79,2501.49 1824.78,2500.54 C1821.77,2499.58 1818.83,2498.47 1815.96,2497.21 C1813.09,2495.95 1810.54,2494.32 1808.3,2492.31 C1806.06,2490.3 1804.25,2487.8 1802.87,2484.79 C1801.49,2481.78 1800.81,2478.05 1800.81,2473.62 C1800.81,2470.07 1801.49,2466.64 1802.87,2463.33 C1804.25,2460.02 1806.24,2457.08 1808.86,2454.51 C1811.47,2451.94 1814.7,2449.89 1818.55,2448.35 C1822.4,2446.81 1826.82,2446.04 1831.82,2446.04 C1837.42,2446.04 1842.53,2446.93 1847.15,2448.7 C1851.77,2450.47 1855.8,2453.04 1859.26,2456.4 L1855.97,2462.84 M1892.35,2536.06 L1935.75,2536.06 L1935.75,2547.47 L1878.77,2547.47 L1878.77,2447.16 L1892.35,2447.16 L1892.35,2536.06 M1966.83,2547.47 L1953.25,2547.47 L1953.25,2447.16 L1966.83,2447.16 L1966.83,2547.47 M2008.6,2491.12 L2013.71,2491.12 C2015.49,2491.12 2016.9,2490.9 2017.95,2490.46 C2019,2490.01 2019.99,2489.25 2020.92,2488.18 L2054.31,2450.38 C2055.34,2449.21 2056.33,2448.39 2057.29,2447.9 C2058.25,2447.41 2059.47,2447.16 2060.96,2447.16 L2072.51,2447.16 L2034.29,2490.35 C2033.31,2491.42 2032.39,2492.33 2031.53,2493.08 C2030.67,2493.83 2029.74,2494.43 2028.76,2494.9 C2030.07,2495.32 2031.21,2495.95 2032.19,2496.79 C2033.17,2497.63 2034.2,2498.68 2035.27,2499.94 L2075.17,2547.47 L2063.41,2547.47 C2062.53,2547.47 2061.78,2547.4 2061.17,2547.26 C2060.57,2547.12 2060.04,2546.93 2059.6,2546.7 C2059.16,2546.47 2058.75,2546.16 2058.37,2545.79 C2058,2545.42 2057.63,2545.02 2057.25,2544.6 L2022.6,2504.77 C2022.09,2504.21 2021.61,2503.73 2021.17,2503.34 C2020.73,2502.94 2020.21,2502.6 2019.63,2502.32 C2019.05,2502.04 2018.37,2501.84 2017.6,2501.73 C2016.83,2501.61 2015.88,2501.55 2014.76,2501.55 L2008.6,2501.55 L2008.6,2547.47 L1995.09,2547.47 L1995.09,2447.16 L2008.6,2447.16 L2008.6,2491.12 M2150.83,2447.16 L2150.83,2458.22 L2102.67,2458.22 L2102.67,2491.54 L2141.66,2491.54 L2141.66,2502.18 L2102.67,2502.18 L2102.67,2536.41 L2150.83,2536.41 L2150.83,2547.47 L2089.02,2547.47 L2089.02,2447.16 L2150.83,2447.16 M2291.99,2536.06 L2335.39,2536.06 L2335.39,2547.47 L2278.41,2547.47 L2278.41,2447.16 L2291.99,2447.16 L2291.99,2536.06 M2366.47,2547.47 L2352.89,2547.47 L2352.89,2447.16 L2366.47,2447.16 L2366.47,2547.47 M2408.25,2491.12 L2413.35,2491.12 C2415.13,2491.12 2416.54,2490.9 2417.59,2490.46 C2418.64,2490.01 2419.63,2489.25 2420.57,2488.18 L2453.96,2450.38 C2454.98,2449.21 2455.97,2448.39 2456.93,2447.9 C2457.89,2447.41 2459.11,2447.16 2460.6,2447.16 L2472.16,2447.16 L2433.94,2490.35 C2432.96,2491.42 2432.03,2492.33 2431.17,2493.08 C2430.31,2493.83 2429.39,2494.43 2428.41,2494.9 C2429.71,2495.32 2430.85,2495.95 2431.84,2496.79 C2432.82,2497.63 2433.84,2498.68 2434.92,2499.94 L2474.82,2547.47 L2463.06,2547.47 C2462.17,2547.47 2461.42,2547.4 2460.82,2547.26 C2460.21,2547.12 2459.68,2546.93 2459.24,2546.7 C2458.8,2546.47 2458.39,2546.16 2458.02,2545.79 C2457.64,2545.42 2457.27,2545.02 2456.9,2544.6 L2422.25,2504.77 C2421.73,2504.21 2421.25,2503.73 2420.81,2503.34 C2420.37,2502.94 2419.85,2502.6 2419.27,2502.32 C2418.69,2502.04 2418.01,2501.84 2417.24,2501.73 C2416.47,2501.61 2415.53,2501.55 2414.41,2501.55 L2408.25,2501.55 L2408.25,2547.47 L2394.74,2547.47 L2394.74,2447.16 L2408.25,2447.16 L2408.25,2491.12 M2550.47,2447.16 L2550.47,2458.22 L2502.31,2458.22 L2502.31,2491.54 L2541.3,2491.54 L2541.3,2502.18 L2502.31,2502.18 L2502.31,2536.41 L2550.47,2536.41 L2550.47,2547.47 L2488.66,2547.47 L2488.66,2447.16 L2550.47,2447.16 Z" style="stroke:none;fill-rule:nonzero;fill:#ffffff;fill-opacity:1;"/>
        </g>
        <g id="Shape9">
            <desc shapeID="9" type="0" basicInfo-basicType="0" basicInfo-roundedRectRadius="12" basicInfo-polygonSides="6" basicInfo-starPoints="5" bounding="rect(-34.9997,-34.266,69.9995,68.532)" text="" font-familyName="" font-pixelSize="20" font-bold="0" font-underline="0" font-alignment="1" strokeStyle="0" markerStart="0" markerEnd="0" shadowEnabled="0" shadowOffsetX="0" shadowOffsetY="2" shadowBlur="4" shadowOpacity="160" blurEnabled="0" blurRadius="4" transform="matrix(2.55124,0,0,2.58446,414.601,2675.16)" pers-center="0,0" pers-size="0,0" pers-start="0,0" pers-end="0,0" locked="0" mesh="" flag=""/>
            <path id="shapePath9" d="M501.078,2678.39 C498.767,2675.58 495.368,2673.96 491.756,2673.96 C488.926,2673.96 486.161,2674.97 483.982,2676.81 L426.689,2725.2 L426.824,2598.92 C426.824,2592.15 421.377,2586.61 414.675,2586.6 C408.004,2586.6 402.542,2592.11 402.531,2598.89 L402.396,2725.1 L345.22,2676.81 C343.034,2674.97 340.273,2673.96 337.447,2673.96 C333.829,2673.96 330.441,2675.58 328.129,2678.39 C326.048,2680.91 325.065,2684.09 325.359,2687.38 C325.647,2690.64 327.183,2693.61 329.678,2695.71 L406.828,2760.87 C409.006,2762.71 411.767,2763.72 414.601,2763.72 C417.446,2763.72 420.211,2762.7 422.37,2760.87 L499.514,2695.71 C502.014,2693.61 503.545,2690.65 503.838,2687.38 C504.145,2684.1 503.162,2680.91 501.078,2678.39 Z" style="stroke:none;fill-rule:nonzero;fill:#ffffff;fill-opacity:1;"/>
        </g>
        <g id="Shape10">
            <desc shapeID="10" type="0" basicInfo-basicType="0" basicInfo-roundedRectRadius="12" basicInfo-polygonSides="6" basicInfo-starPoints="5" bounding="rect(-34.9997,-34.266,69.9995,68.532)" text="" font-familyName="" font-pixelSize="20" font-bold="0" font-underline="0" font-alignment="1" strokeStyle="0" markerStart="0" markerEnd="0" shadowEnabled="0" shadowOffsetX="0" shadowOffsetY="2" shadowBlur="4" shadowOpacity="160" blurEnabled="0" blurRadius="4" transform="matrix(2.55124,0,0,2.58446,893.365,2675.16)" pers-center="0,0" pers-size="0,0" pers-start="0,0" pers-end="0,0" locked="0" mesh="" flag=""/>
            <path id="shapePath10" d="M979.843,2678.39 C977.531,2675.58 974.133,2673.96 970.521,2673.96 C967.691,2673.96 964.926,2674.97 962.747,2676.81 L905.454,2725.2 L905.589,2598.92 C905.589,2592.15 900.142,2586.61 893.44,2586.6 C886.769,2586.6 881.306,2592.11 881.296,2598.89 L881.161,2725.1 L823.985,2676.81 C821.799,2674.97 819.038,2673.96 816.211,2673.96 C812.594,2673.96 809.206,2675.58 806.894,2678.39 C804.812,2680.91 803.83,2684.09 804.124,2687.38 C804.412,2690.64 805.948,2693.61 808.443,2695.71 L885.592,2760.87 C887.771,2762.71 890.532,2763.72 893.366,2763.72 C896.211,2763.72 898.976,2762.7 901.135,2760.87 L978.279,2695.71 C980.779,2693.61 982.31,2690.65 982.603,2687.38 C982.909,2684.1 981.927,2680.91 979.843,2678.39 Z" style="stroke:none;fill-rule:nonzero;fill:#ffffff;fill-opacity:1;"/>
        </g>
        <g id="Shape11">
            <desc shapeID="11" type="0" basicInfo-basicType="0" basicInfo-roundedRectRadius="12" basicInfo-polygonSides="6" basicInfo-starPoints="5" bounding="rect(-34.9997,-34.266,69.9995,68.532)" text="" font-familyName="" font-pixelSize="20" font-bold="0" font-underline="0" font-alignment="1" strokeStyle="0" markerStart="0" markerEnd="0" shadowEnabled="0" shadowOffsetX="0" shadowOffsetY="2" shadowBlur="4" shadowOpacity="160" blurEnabled="0" blurRadius="4" transform="matrix(2.55124,0,0,2.58446,1352.39,2675.16)" pers-center="0,0" pers-size="0,0" pers-start="0,0" pers-end="0,0" locked="0" mesh="" flag=""/>
            <path id="shapePath11" d="M1438.86,2678.39 C1436.55,2675.58 1433.16,2673.96 1429.54,2673.96 C1426.71,2673.96 1423.95,2674.97 1421.77,2676.81 L1364.48,2725.2 L1364.61,2598.92 C1364.61,2592.15 1359.16,2586.61 1352.46,2586.6 C1345.79,2586.6 1340.33,2592.11 1340.32,2598.89 L1340.18,2725.1 L1283.01,2676.81 C1280.82,2674.97 1278.06,2673.96 1275.23,2673.96 C1271.62,2673.96 1268.23,2675.58 1265.92,2678.39 C1263.83,2680.91 1262.85,2684.09 1263.15,2687.38 C1263.43,2690.64 1264.97,2693.61 1267.46,2695.71 L1344.61,2760.87 C1346.79,2762.71 1349.55,2763.72 1352.39,2763.72 C1355.23,2763.72 1358,2762.7 1360.16,2760.87 L1437.3,2695.71 C1439.8,2693.61 1441.33,2690.65 1441.63,2687.38 C1441.93,2684.1 1440.95,2680.91 1438.86,2678.39 Z" style="stroke:none;fill-rule:nonzero;fill:#ffffff;fill-opacity:1;"/>
        </g>
        <g id="Shape12">
            <desc shapeID="12" type="0" basicInfo-basicType="0" basicInfo-roundedRectRadius="12" basicInfo-polygonSides="6" basicInfo-starPoints="5" bounding="rect(-34.9997,-34.266,69.9995,68.532)" text="" font-familyName="" font-pixelSize="20" font-bold="0" font-underline="0" font-alignment="1" strokeStyle="0" markerStart="0" markerEnd="0" shadowEnabled="0" shadowOffsetX="0" shadowOffsetY="2" shadowBlur="4" shadowOpacity="160" blurEnabled="0" blurRadius="4" transform="matrix(2.55124,0,0,2.58446,1905.19,2675.16)" pers-center="0,0" pers-size="0,0" pers-start="0,0" pers-end="0,0" locked="0" mesh="" flag=""/>
            <path id="shapePath12" d="M1991.67,2678.39 C1989.35,2675.58 1985.96,2673.96 1982.34,2673.96 C1979.51,2673.96 1976.75,2674.97 1974.57,2676.81 L1917.28,2725.2 L1917.41,2598.92 C1917.41,2592.15 1911.96,2586.61 1905.26,2586.6 C1898.59,2586.6 1893.13,2592.11 1893.12,2598.89 L1892.98,2725.1 L1835.81,2676.81 C1833.62,2674.97 1830.86,2673.96 1828.03,2673.96 C1824.42,2673.96 1821.03,2675.58 1818.72,2678.39 C1816.64,2680.91 1815.65,2684.09 1815.95,2687.38 C1816.23,2690.64 1817.77,2693.61 1820.27,2695.71 L1897.42,2760.87 C1899.59,2762.71 1902.35,2763.72 1905.19,2763.72 C1908.03,2763.72 1910.8,2762.7 1912.96,2760.87 L1990.1,2695.71 C1992.6,2693.61 1994.13,2690.65 1994.43,2687.38 C1994.73,2684.1 1993.75,2680.91 1991.67,2678.39 Z" style="stroke:none;fill-rule:nonzero;fill:#ffffff;fill-opacity:1;"/>
        </g>
        <g id="Shape13">
            <desc shapeID="13" type="0" basicInfo-basicType="0" basicInfo-roundedRectRadius="12" basicInfo-polygonSides="6" basicInfo-starPoints="5" bounding="rect(-34.9997,-34.266,69.9995,68.532)" text="" font-familyName="" font-pixelSize="20" font-bold="0" font-underline="0" font-alignment="1" strokeStyle="0" markerStart="0" markerEnd="0" shadowEnabled="0" shadowOffsetX="0" shadowOffsetY="2" shadowBlur="4" shadowOpacity="160" blurEnabled="0" blurRadius="4" transform="matrix(2.55124,0,0,2.58446,2423.44,2675.16)" pers-center="0,0" pers-size="0,0" pers-start="0,0" pers-end="0,0" locked="0" mesh="" flag=""/>
            <path id="shapePath13" d="M2509.92,2678.39 C2507.6,2675.58 2504.21,2673.96 2500.59,2673.96 C2497.76,2673.96 2495,2674.97 2492.82,2676.81 L2435.53,2725.2 L2435.66,2598.92 C2435.66,2592.15 2430.22,2586.61 2423.51,2586.6 C2416.84,2586.6 2411.38,2592.11 2411.37,2598.89 L2411.23,2725.1 L2354.06,2676.81 C2351.87,2674.97 2349.11,2673.96 2346.28,2673.96 C2342.67,2673.96 2339.28,2675.58 2336.97,2678.39 C2334.89,2680.91 2333.9,2684.09 2334.2,2687.38 C2334.49,2690.64 2336.02,2693.61 2338.52,2695.71 L2415.67,2760.87 C2417.84,2762.71 2420.6,2763.72 2423.44,2763.72 C2426.28,2763.72 2429.05,2762.7 2431.21,2760.87 L2508.35,2695.71 C2510.85,2693.61 2512.38,2690.65 2512.68,2687.38 C2512.98,2684.1 2512,2680.91 2509.92,2678.39 Z" style="stroke:none;fill-rule:nonzero;fill:#ffffff;fill-opacity:1;"/>
        </g>
    </g>
</svg>
