<?xml version="1.0"?>
<svg version="1.1" xmlns="http://www.w3.org/2000/svg" xmlns:xlink="http://www.w3.org/1999/xlink" width="2792" height="2792">
    <desc iVinci="yes" version="4.5" gridStep="20" showGrid="no" snapToGrid="no" codePlatform="0"/>
    <g id="Layer1" visibility="hidden" opacity="1">
        <g id="Shape1">
            <desc shapeID="1" type="0" basicInfo-basicType="0" basicInfo-roundedRectRadius="12" basicInfo-polygonSides="6" basicInfo-starPoints="5" bounding="rect(0,0,0,0)" text="" font-familyName="Helvetica" font-pixelSize="20" font-bold="0" font-underline="0" font-alignment="1" strokeStyle="0" markerStart="0" markerEnd="0" shadowEnabled="0" shadowOffsetX="0" shadowOffsetY="2" shadowBlur="4" shadowOpacity="160" blurEnabled="0" blurRadius="4" transform="matrix(1.63225,0,0,1.57052,4455.36,788.198)" pers-center="0,0" pers-size="0,0" pers-start="0,0" pers-end="0,0" locked="0" mesh="" flag=""/>
            <path id="shapePath1" d="M4455.36,788.198 Z" style="stroke:none;fill-rule:evenodd;fill:#ffffff;fill-opacity:1;"/>
        </g>
        <g id="Shape2">
            <desc shapeID="2" type="0" basicInfo-basicType="0" basicInfo-roundedRectRadius="12" basicInfo-polygonSides="6" basicInfo-starPoints="5" bounding="rect(-768,-831.998,1536,1664)" text="" font-familyName="" font-pixelSize="20" font-bold="0" font-underline="0" font-alignment="1" strokeStyle="0" markerStart="0" markerEnd="0" shadowEnabled="0" shadowOffsetX="0" shadowOffsetY="2" shadowBlur="4" shadowOpacity="160" blurEnabled="0" blurRadius="4" transform="matrix(0.633367,0,0,0.592502,609.246,1423.36)" pers-center="0,0" pers-size="0,0" pers-start="0,0" pers-end="0,0" locked="0" mesh="" flag=""/>
            <path id="shapePath2" d="M284.962,1120 C284.962,1109.73 280.951,1100.84 272.929,1093.34 C264.907,1085.83 255.405,1082.08 244.427,1082.08 C233.448,1082.08 223.949,1085.83 215.926,1093.34 C207.902,1100.84 203.891,1109.73 203.891,1120 C203.891,1130.27 207.902,1139.16 215.926,1146.66 C223.949,1154.17 233.448,1157.92 244.427,1157.92 C255.405,1157.92 264.907,1154.17 272.929,1146.66 C280.951,1139.16 284.962,1130.27 284.962,1120 M1014.6,1461.28 C1014.6,1447.46 1010.06,1431.46 1000.98,1413.29 C991.906,1395.12 980.611,1385.83 967.099,1385.44 C973.432,1378.72 978.711,1369.34 982.933,1357.3 C987.154,1345.25 989.265,1334.29 989.265,1324.41 C989.265,1297.16 978.077,1273.65 955.697,1253.9 C963.298,1241.26 967.099,1227.64 967.099,1213.02 C967.099,1198.41 963.405,1183.89 956.015,1169.47 C948.624,1155.06 938.597,1144.69 925.93,1138.37 C928.041,1126.52 929.096,1115.46 929.096,1105.19 C929.096,1071.61 918.751,1046.73 898.061,1030.53 C877.371,1014.34 848.659,1006.24 811.923,1006.24 L730.854,1006.24 C675.538,1006.24 603.334,1020.66 514.241,1049.49 C512.13,1050.28 506.008,1052.36 495.875,1055.71 C485.739,1059.07 478.245,1061.54 473.389,1063.12 C468.533,1064.7 461.145,1066.97 451.22,1069.93 C441.298,1072.9 433.276,1075.07 427.154,1076.45 C421.031,1077.83 414.063,1079.12 406.253,1080.3 C398.44,1081.49 391.79,1082.08 386.302,1082.08 L366.034,1082.08 L366.034,1461.28 L386.302,1461.28 C393.056,1461.28 400.553,1463.06 408.785,1466.61 C417.018,1470.17 425.464,1475.5 434.12,1482.61 C442.777,1489.72 450.905,1496.73 458.504,1503.64 C466.105,1510.56 474.551,1519.25 483.839,1529.71 C493.13,1540.18 500.413,1548.57 505.691,1554.89 C510.968,1561.21 517.62,1569.31 525.642,1579.19 C533.664,1589.06 538.52,1594.99 540.21,1596.96 C563.434,1623.82 579.689,1641.79 588.979,1650.88 C606.29,1667.87 618.853,1689.49 626.665,1715.76 C634.476,1742.03 640.915,1766.81 645.982,1790.12 C651.048,1813.42 659.071,1830.21 670.049,1840.48 C710.585,1840.48 737.608,1831.2 751.12,1812.63 C764.632,1794.07 771.388,1765.43 771.388,1726.72 C771.388,1703.42 761.255,1671.72 740.987,1631.62 C720.718,1591.53 710.585,1560.03 710.585,1537.12 L933.529,1537.12 C954.642,1537.12 973.432,1529.52 989.9,1514.31 C1006.37,1499.1 1014.6,1481.43 1014.6,1461.28 M1095.67,1461.87 C1095.67,1502.56 1079.63,1537.91 1047.54,1567.93 C1015.44,1597.95 977.443,1612.96 933.529,1612.96 L822.058,1612.96 C842.324,1652.07 852.46,1689.98 852.46,1726.72 C852.46,1773.33 845.069,1810.07 830.291,1836.93 C815.513,1864.18 793.978,1884.23 765.688,1897.06 C737.397,1909.9 705.519,1916.32 670.049,1916.32 C648.514,1916.32 629.514,1909.01 613.046,1894.4 C598.691,1881.36 587.29,1865.17 578.844,1845.81 C570.4,1826.46 565.017,1808.58 562.693,1792.19 C560.372,1775.8 556.677,1759.11 551.609,1742.12 C546.542,1725.14 539.999,1712.5 531.975,1704.21 C511.708,1684.46 489.118,1659.37 464.205,1628.96 C421.559,1577.21 392.635,1546.6 377.435,1537.12 L203.891,1537.12 C181.512,1537.12 162.405,1529.71 146.571,1514.9 C130.737,1500.09 122.82,1482.22 122.82,1461.28 L122.82,1082.08 C122.82,1061.14 130.737,1043.27 146.571,1028.46 C162.405,1013.65 181.512,1006.24 203.891,1006.24 L386.302,1006.24 C395.59,1006.24 424.726,998.339 473.706,982.54 C527.753,965.16 574.833,952.125 614.946,943.434 C655.06,934.743 697.284,930.4 741.621,930.4 L812.557,930.4 C871.67,930.4 919.491,946.002 956.015,977.207 C992.538,1008.41 1010.59,1051.07 1010.17,1105.19 L1010.17,1108.15 C1035.5,1138.57 1048.17,1173.72 1048.17,1213.62 C1048.17,1222.3 1047.54,1230.8 1046.27,1239.09 C1062.31,1265.56 1070.34,1294 1070.34,1324.41 C1070.34,1338.63 1068.44,1352.26 1064.64,1365.3 C1085.33,1394.53 1095.67,1426.72 1095.67,1461.87 Z" style="stroke:none;fill-rule:evenodd;fill:#ffffff;fill-opacity:1;"/>
        </g>
    </g>
    <g id="Layer2" opacity="1">
        <g id="Shape3">
            <desc shapeID="3" type="0" basicInfo-basicType="0" basicInfo-roundedRectRadius="12" basicInfo-polygonSides="6" basicInfo-starPoints="5" bounding="rect(0,0,0,0)" text="" font-familyName="Helvetica" font-pixelSize="20" font-bold="0" font-underline="0" font-alignment="1" strokeStyle="0" markerStart="0" markerEnd="0" shadowEnabled="0" shadowOffsetX="0" shadowOffsetY="2" shadowBlur="4" shadowOpacity="160" blurEnabled="0" blurRadius="4" transform="matrix(0.828914,0,0,0.796916,2432.94,312.991)" pers-center="0,0" pers-size="0,0" pers-start="0,0" pers-end="0,0" locked="0" mesh="" flag=""/>
            <path id="shapePath3" d="M2432.94,312.991 Z" style="stroke:none;fill-rule:evenodd;fill:#ffffff;fill-opacity:1;"/>
        </g>
        <g id="Shape4">
            <desc shapeID="4" type="0" basicInfo-basicType="0" basicInfo-roundedRectRadius="12" basicInfo-polygonSides="6" basicInfo-starPoints="5" bounding="rect(-62.5708,-67.7887,125.142,135.578)" text="" font-familyName="" font-pixelSize="20" font-bold="0" font-underline="0" font-alignment="1" strokeStyle="0" markerStart="0" markerEnd="0" shadowEnabled="0" shadowOffsetX="0" shadowOffsetY="2" shadowBlur="4" shadowOpacity="160" blurEnabled="0" blurRadius="4" transform="matrix(7.17656,0,0,7.16512,2188.82,1381.7)" pers-center="0,0" pers-size="0,0" pers-start="0,0" pers-end="0,0" locked="0" mesh="" flag=""/>
            <path id="shapePath4" d="M2609.23,1438.91 C2628.34,1410.1 2637.86,1378.39 2637.86,1343.75 C2637.86,1303.66 2623.06,1268.84 2593.45,1239.23 C2563.82,1209.66 2528.74,1194.87 2488.2,1194.87 L2385.29,1194.87 C2403.98,1156.35 2413.36,1118.98 2413.36,1082.79 C2413.36,1037.26 2406.53,1001.06 2392.89,974.211 C2379.24,947.349 2359.35,927.601 2333.25,914.947 C2307.11,902.301 2277.7,895.981 2244.96,895.981 C2225.07,895.981 2207.53,903.183 2192.33,917.584 C2175.57,933.928 2163.49,954.951 2156.09,980.638 C2148.67,1006.32 2142.73,1030.94 2138.24,1054.48 C2133.76,1078.02 2126.84,1094.66 2117.49,1104.39 C2098.39,1125.02 2077.54,1149.93 2054.93,1179.12 C2015.55,1230.1 1988.85,1260.26 1974.82,1269.61 L1814.61,1269.61 C1793.96,1269.61 1776.31,1276.92 1761.7,1291.5 C1747.08,1306.09 1739.77,1323.7 1739.77,1344.33 L1739.77,1717.94 C1739.77,1738.58 1747.08,1756.18 1761.7,1770.77 C1776.33,1785.36 1793.96,1792.67 1814.61,1792.67 L1983.01,1792.67 C1991.58,1792.67 2018.46,1800.46 2063.69,1816.02 C2111.62,1832.75 2153.83,1845.5 2190.28,1854.27 C2226.73,1863.03 2263.65,1867.41 2301.09,1867.41 L2355.45,1867.41 L2376.51,1867.41 C2431.47,1867.41 2475.69,1851.72 2509.23,1820.4 C2542.75,1789.06 2559.31,1746.36 2558.93,1692.25 C2582.31,1662.27 2594.02,1627.65 2594.02,1588.35 C2594.02,1579.79 2593.43,1571.42 2592.27,1563.24 C2607.07,1537.18 2614.48,1509.15 2614.48,1479.19 C2614.48,1465.17 2612.74,1451.74 2609.23,1438.91 M1878.34,1706.86 C1870.95,1714.24 1862.17,1717.95 1852.04,1717.95 C1841.9,1717.95 1833.14,1714.24 1825.74,1706.86 C1818.32,1699.48 1814.61,1690.71 1814.61,1680.58 C1814.61,1670.47 1818.32,1661.7 1825.74,1654.32 C1833.14,1646.93 1841.9,1643.23 1852.04,1643.23 C1862.17,1643.23 1870.95,1646.93 1878.34,1654.32 C1885.76,1661.7 1889.47,1670.47 1889.47,1680.58 C1889.47,1690.71 1885.76,1699.48 1878.34,1706.86 M2550.48,1391.64 C2542.1,1409.55 2531.66,1418.69 2519.19,1419.08 C2525.03,1425.7 2529.92,1434.95 2533.81,1446.8 C2537.72,1458.68 2539.65,1469.47 2539.65,1479.21 C2539.65,1506.05 2529.32,1529.21 2508.67,1548.66 C2515.69,1561.12 2519.19,1574.54 2519.19,1588.94 C2519.19,1603.34 2515.8,1617.64 2508.96,1631.84 C2502.14,1646.05 2492.89,1656.26 2481.2,1662.48 C2483.15,1674.17 2484.11,1685.06 2484.11,1695.17 C2484.11,1760.15 2446.68,1792.65 2371.84,1792.65 L2301.11,1792.65 C2250.03,1792.65 2183.37,1778.46 2101.13,1750.05 C2099.17,1749.26 2093.52,1747.23 2084.17,1743.93 C2074.81,1740.61 2067.89,1738.18 2063.4,1736.62 C2058.93,1735.05 2052.11,1732.83 2042.95,1729.91 C2033.78,1726.99 2026.39,1724.84 2020.72,1723.48 C2015.08,1722.13 2008.64,1720.86 2001.43,1719.68 C1994.23,1718.52 1988.09,1717.94 1983.01,1717.94 L1964.31,1717.94 L1964.31,1344.35 L1983.01,1344.35 C1989.25,1344.35 1996.17,1342.59 2003.77,1339.09 C2011.37,1335.59 2019.17,1330.34 2027.17,1323.33 C2035.15,1316.32 2042.66,1309.42 2049.67,1302.6 C2056.69,1295.8 2064.49,1287.23 2073.07,1276.92 C2081.65,1266.6 2088.37,1258.34 2093.23,1252.11 C2098.1,1245.88 2104.24,1237.9 2111.66,1228.17 C2119.06,1218.45 2123.53,1212.61 2125.09,1210.66 C2146.53,1184.2 2161.54,1166.5 2170.12,1157.54 C2186.1,1140.81 2197.7,1119.5 2204.91,1093.62 C2212.13,1067.73 2218.07,1043.31 2222.73,1020.35 C2227.42,997.39 2234.82,980.845 2244.96,970.728 C2282.37,970.728 2307.33,979.872 2319.8,998.164 C2332.27,1016.46 2338.5,1044.67 2338.5,1082.81 C2338.5,1105.77 2329.14,1137 2310.44,1176.5 C2291.73,1216.01 2282.37,1247.04 2282.37,1269.62 L2488.2,1269.62 C2507.71,1269.62 2525.03,1277.1 2540.23,1292.09 C2555.42,1307.07 2563.04,1324.48 2563.04,1344.34 C2563.04,1357.96 2558.86,1373.72 2550.48,1391.64 Z" style="stroke:none;fill-rule:evenodd;fill:#ffffff;fill-opacity:1;"/>
        </g>
    </g>
</svg>
