<svg xmlns="http://www.w3.org/2000/svg" xmlns:xlink="http://www.w3.org/1999/xlink" version="1.1" x="0px" y="0px" width="100px" height="100px" viewBox="0 0 100 100" enable-background="new 0 0 100 100" xml:space="preserve">
<g id="Captions">
</g>
<g id="Your_Icon">
	<path fill="#000000" d="M49.807,55.072c0.426,0,0.827-0.205,1.129-0.578c0.484-0.6,1.213-0.942,1.998-0.942   c0.563,0,1.094,0.177,1.535,0.511c0.284,0.215,0.603,0.327,0.921,0.327c0.53,0,1.002-0.316,1.263-0.848   c0.425-0.868,1.334-1.428,2.314-1.428c0.361,0,0.707,0.074,1.034,0.222c0.221,0.099,0.443,0.148,0.664,0.148   c0.656,0,1.185-0.448,1.349-1.142c0.268-1.141,1.32-1.971,2.502-1.971c0.166,0,0.333,0.017,0.494,0.05   c0.115,0.022,0.231,0.035,0.344,0.035c0.816,0,1.392-0.596,1.397-1.451c0.011-1.366,1.129-2.504,2.492-2.541   c0.476-0.013,0.88-0.201,1.141-0.534c0.259-0.332,0.347-0.77,0.243-1.234c-0.295-1.333,0.543-2.693,1.866-3.031   c0.46-0.118,0.813-0.392,0.991-0.773c0.181-0.381,0.166-0.828-0.037-1.257c-0.584-1.234-0.071-2.747,1.144-3.371   c0.424-0.217,0.706-0.564,0.796-0.975c0.09-0.412-0.022-0.844-0.316-1.218c-0.844-1.074-0.68-2.661,0.366-3.54   c0.362-0.306,0.562-0.707,0.557-1.127c-0.003-0.422-0.209-0.818-0.578-1.117c-1.062-0.859-1.255-2.444-0.432-3.533   c0.287-0.378,0.391-0.813,0.293-1.223c-0.097-0.41-0.385-0.751-0.813-0.96c-1.225-0.601-1.767-2.103-1.206-3.348   c0.194-0.434,0.201-0.88,0.014-1.259c-0.187-0.378-0.543-0.646-1.006-0.755c-1.329-0.313-2.191-1.657-1.922-2.996   c0.094-0.465-0.002-0.902-0.267-1.229c-0.267-0.327-0.675-0.509-1.149-0.512c-1.366-0.01-2.504-1.128-2.54-2.493   c-0.021-0.839-0.595-1.425-1.395-1.425c-0.123,0-0.248,0.014-0.374,0.042c-0.176,0.04-0.356,0.059-0.539,0.059   c-1.158,0-2.207-0.809-2.492-1.923c-0.172-0.679-0.699-1.118-1.342-1.118c-0.229,0-0.461,0.054-0.688,0.163   c-0.337,0.159-0.699,0.241-1.077,0.241c-0.96,0-1.86-0.544-2.293-1.385c-0.265-0.517-0.734-0.826-1.253-0.826   c-0.328,0-0.652,0.12-0.939,0.347c-0.442,0.347-1.002,0.538-1.574,0.538c-0.766,0-1.484-0.329-1.967-0.903   c-0.301-0.36-0.698-0.559-1.115-0.559c-0.425,0-0.827,0.206-1.129,0.58c-0.483,0.598-1.213,0.94-1.998,0.94   c-0.563,0-1.093-0.176-1.534-0.51c-0.286-0.214-0.603-0.329-0.921-0.329c-0.53,0-1.003,0.317-1.264,0.849   c-0.425,0.867-1.333,1.427-2.314,1.427c-0.359,0-0.708-0.074-1.034-0.22c-0.219-0.1-0.444-0.15-0.665-0.15   c-0.656,0-1.184,0.449-1.347,1.143c-0.27,1.142-1.322,1.97-2.503,1.97c-0.165,0-0.331-0.017-0.494-0.049   c-0.116-0.023-0.23-0.035-0.343-0.035c-0.817,0-1.391,0.597-1.397,1.452c-0.009,1.365-1.127,2.504-2.493,2.54   c-0.476,0.013-0.88,0.202-1.139,0.533c-0.26,0.333-0.346,0.771-0.245,1.235c0.295,1.333-0.542,2.693-1.865,3.031   c-0.461,0.118-0.812,0.392-0.993,0.774c-0.179,0.381-0.166,0.828,0.038,1.258c0.583,1.234,0.07,2.746-1.143,3.37   c-0.424,0.217-0.706,0.563-0.796,0.975c-0.09,0.412,0.023,0.845,0.316,1.218c0.844,1.074,0.68,2.661-0.366,3.541   c-0.364,0.306-0.561,0.706-0.558,1.127c0.005,0.421,0.21,0.818,0.579,1.117c1.062,0.858,1.256,2.444,0.432,3.532   c-0.287,0.379-0.392,0.814-0.292,1.225c0.097,0.41,0.385,0.75,0.812,0.959c1.226,0.601,1.768,2.103,1.208,3.348   c-0.196,0.433-0.201,0.88-0.014,1.258c0.187,0.377,0.544,0.646,1.007,0.755c1.328,0.312,2.191,1.656,1.921,2.996   c-0.094,0.465,0,0.901,0.267,1.229c0.265,0.326,0.673,0.508,1.15,0.513c1.364,0.01,2.504,1.127,2.539,2.492   c0.022,0.839,0.595,1.426,1.395,1.426c0.122,0,0.248-0.014,0.375-0.042c0.176-0.039,0.357-0.06,0.538-0.06   c1.159,0,2.207,0.81,2.492,1.924c0.174,0.679,0.701,1.118,1.343,1.118c0.229,0,0.461-0.055,0.688-0.163   c0.339-0.158,0.701-0.24,1.077-0.24c0.962,0,1.862,0.543,2.293,1.385c0.267,0.517,0.734,0.825,1.255,0.825   c0.326,0,0.651-0.119,0.939-0.346c0.442-0.348,1-0.539,1.573-0.539c0.767,0,1.484,0.33,1.967,0.903   C48.994,54.875,49.389,55.072,49.807,55.072z M29.927,28.651c0-10.832,8.814-19.645,19.646-19.645   c10.831,0,19.644,8.813,19.644,19.645c0,10.833-8.813,19.645-19.644,19.645C38.741,48.296,29.927,39.484,29.927,28.651z"/>
	<path fill="#000000" d="M58.967,52.767c-0.734,0-1.411,0.418-1.729,1.063c-0.373,0.76-1.063,1.214-1.849,1.214   c-0.461,0-0.915-0.16-1.313-0.461c-0.328-0.247-0.723-0.378-1.143-0.378c-0.586,0-1.131,0.256-1.489,0.7   c-0.429,0.529-1.01,0.821-1.638,0.821c-0.613,0-1.186-0.282-1.615-0.792c-0.232-0.276-0.542-0.467-0.885-0.573   c0.499,9.767,1.012,19.731,1.532,29.746c0.134,0.011,0.272,0.015,0.408,0.015c2.126,0,4.345-1.225,6.491-2.407   c2.236-1.233,4.548-2.509,6.876-2.509c0.755,0,1.464,0.129,2.153,0.393c-1.842-9.625-3.678-18.074-5.705-26.822   C59.029,52.775,58.999,52.767,58.967,52.767z"/>
	<path fill="#000000" d="M48.347,85.159l-0.378-0.056l-0.023-0.457c-0.531-10.209-1.053-20.371-1.563-30.327   c-0.301,0.056-0.59,0.156-0.828,0.344c-0.405,0.316-0.869,0.485-1.342,0.485c-0.77,0-1.456-0.442-1.835-1.18   c-0.322-0.626-0.995-1.03-1.713-1.03c-0.279,0-0.547,0.06-0.798,0.179c-0.315,0.148-0.64,0.224-0.968,0.224   c-0.228,0-0.443-0.038-0.646-0.106c-1.984,13.333-3.711,25.217-5.823,40.283c5.866-2.124,11.386,6.046,17.249,3.966   c0.14-4.104,0.28-8.21,0.42-12.314c-0.284,0.035-0.569,0.056-0.854,0.056C48.943,85.225,48.64,85.202,48.347,85.159z"/>
	<path fill="#000000" d="M49.573,9.66c-10.473,0-18.992,8.52-18.992,18.991c0,10.473,8.519,18.993,18.992,18.993   c10.471,0,18.991-8.52,18.991-18.993C68.564,18.179,60.044,9.66,49.573,9.66z"/>
</g>
</svg>